<?xml version="1.0" standalone="no"?>
<!DOCTYPE svg PUBLIC "-//W3C//DTD SVG 1.1//EN" "http://www.w3.org/Graphics/SVG/1.1/DTD/svg11.dtd" >
<svg>
<metadata>
Created by FontForge 20090914 at Thu Nov 12 13:28:31 2020
 By www-data
Copyright 2013 The Alegreya Sans Project Authors (https://github.com/huertatipografica/Alegreya-Sans)
</metadata>
<defs>
<font id="AlegreyaSansSC-BoldItalic" horiz-adv-x="0" >
  <font-face 
    font-family="Alegreya Sans SC"
    font-weight="700"
    font-style="italic"
    font-stretch="normal"
    units-per-em="1000"
    panose-1="0 0 8 0 0 0 0 0 0 0"
    ascent="800"
    descent="-200"
    x-height="505"
    cap-height="643"
    bbox="-417 -274.005 1375 1056"
    underline-thickness="57"
    underline-position="-122"
    slope="-7"
    unicode-range="U+000D-U+FB02"
  />
<missing-glyph horiz-adv-x="152" 
 />
    <glyph glyph-name="Idieresis" unicode="&#xa8;I" horiz-adv-x="289" 
d="M200 204l-19 -204h-133l31 192l49 451h134zM184 840.5c10 -10.333 15.001 -24.499 15.001 -42.499c0 -19.333 -5.5 -34.833 -16.5 -46.5s-25.833 -17.5 -44.5 -17.5s-33 5.16699 -43 15.5s-15 24.833 -15 43.5c0 19.333 5.66699 34.666 17 45.999s26.666 17 45.999 17
c17.333 0 31 -5.16699 41 -15.5zM330.001 840.501c10 -10.333 15 -24.499 15 -42.499c0 -19.333 -5.5 -34.833 -16.5 -46.5s-25.833 -17.5 -44.5 -17.5s-33 5 -43 15s-15 24.667 -15 44s5.5 34.666 16.5 45.999s26.167 17 45.5 17c18 0 32 -5.16699 42 -15.5z" />
    <glyph glyph-name="Odieresis" unicode="&#xa8;O" horiz-adv-x="631" 
d="M553.5 583.5c43.667 -45.667 65.499 -112.169 65.499 -199.502c0 -78.667 -13 -147.667 -39 -207s-64 -105.333 -114 -138s-110 -49 -180 -49c-78.667 0 -139.834 23.5 -183.501 70.5s-65.5 114.5 -65.5 202.5c0 78.667 12.833 147.334 38.5 206.001
s63.334 103.834 113.001 135.501s109.834 47.5 180.501 47.5c79.333 0 140.833 -22.833 184.5 -68.5zM218.499 478.498c-29.667 -44.333 -44.499 -115.166 -44.499 -212.499c0 -60.667 9.83301 -104.834 29.5 -132.501s51.5 -41.5 95.5 -41.5c60 0 105 22.333 135 67
s45 116 45 214c0 60.667 -9.83301 104.5 -29.5 131.5s-51.834 40.5 -96.501 40.5c-60 0 -104.833 -22.167 -134.5 -66.5zM341 841.498c10 -10.333 15.001 -24.499 15.001 -42.499c0 -20 -5.5 -35.667 -16.5 -47s-26.167 -17 -45.5 -17c-18.667 0 -33 5 -43 15
s-15 24.667 -15 44s5.66699 34.666 17 45.999s26.666 17 45.999 17c18 0 32 -5.16699 42 -15.5zM518.501 841.499c10.333 -10.333 15.499 -24.499 15.499 -42.499c0 -20 -5.66699 -35.667 -17 -47s-26.666 -17 -45.999 -17c-18.667 0 -33 5.16699 -43 15.5
s-15 24.833 -15 43.5c0 19.333 5.5 34.666 16.5 45.999s26.167 17 45.5 17c18.667 0 33.167 -5.16699 43.5 -15.5z" />
    <glyph glyph-name="Yacute" unicode="&#xb4;Y" horiz-adv-x="543" 
d="M324 220l-7 -40l-17 -180h-132l30 180l4 41l-146 422h137l8 -43l76 -248h9l148 244l24 47h138zM436 884l32.999 -77l-4 -12c-59.333 -23.333 -130.666 -49.333 -213.999 -78l-13 4l-21 54c72 36 141 73.333 207 112z" />
    <glyph glyph-name="idieresis" unicode="&#xa8;i" horiz-adv-x="275" 
d="M159 701.5c10 -10.333 15.001 -24.499 15.001 -42.499c0 -19.333 -5.5 -34.833 -16.5 -46.5s-25.833 -17.5 -44.5 -17.5s-33 5.16699 -43 15.5s-15 24.833 -15 43.5c0 19.333 5.66699 34.666 17 45.999s26.666 17 45.999 17c17.333 0 31 -5.16699 41 -15.5z
M305.001 701.501c10 -10.333 15 -24.499 15 -42.499c0 -19.333 -5.5 -34.833 -16.5 -46.5s-25.833 -17.5 -44.5 -17.5s-33 5 -43 15s-15 24.667 -15 44s5.5 34.666 16.5 45.999s26.167 17 45.5 17c18 0 32 -5.16699 42 -15.5zM181.001 161.002l-14 -161h-122l24 150l38 355
h124z" />
    <glyph glyph-name="odieresis" unicode="&#xa8;o" horiz-adv-x="552" 
d="M281 702.5c10 -10.333 15.001 -24.499 15.001 -42.499c0 -20 -5.5 -35.667 -16.5 -47s-26.167 -17 -45.5 -17c-18.667 0 -33 5 -43 15s-15 24.667 -15 44s5.66699 34.666 17 45.999s26.666 17 45.999 17c18 0 32 -5.16699 42 -15.5zM458.501 702.501
c10.333 -10.333 15.499 -24.499 15.499 -42.499c0 -20 -5.66699 -35.667 -17 -47s-26.666 -17 -45.999 -17c-18.667 0 -33 5.16699 -43 15.5s-15 24.833 -15 43.5c0 19.333 5.5 34.666 16.5 45.999s26.167 17 45.5 17c18.667 0 33.167 -5.16699 43.5 -15.5zM469.5 457.002
c37 -36.667 55.5 -92.334 55.5 -167.001c0 -58 -11 -109.667 -33 -155s-54 -80.666 -96 -105.999s-92 -38 -150 -38c-68.667 0 -121.5 18.833 -158.5 56.5s-55.5 94.167 -55.5 169.5c0 58 11 109.167 33 153.5s54 79 96 104s92.333 37.5 151 37.5
c68 0 120.5 -18.333 157.5 -55zM194 368.502c-22.667 -29.667 -34 -79.167 -34 -148.5c0 -49.333 7.5 -83.833 22.5 -103.5s40.833 -29.5 77.5 -29.5c46 0 80.167 15 102.5 45s33.5 79.333 33.5 148c0 49.333 -7.33301 83.833 -22 103.5s-40.667 29.5 -78 29.5
c-45.333 0 -79.333 -14.833 -102 -44.5z" />
    <glyph glyph-name="yacute" unicode="&#xb4;y" horiz-adv-x="488" 
d="M207 561l-32 49c63.333 49.333 123.333 100 180 152l12 -1l47 -70l-2 -12c-74.667 -48 -139 -87.667 -193 -119zM287 164l-5 -26l-13 -138h-122l23 138l3 26l-126 341h130l7 -37l60 -179h8l114 174l21 42h127z" />
    <glyph glyph-name="Itilde" unicode="&#x7e;I" horiz-adv-x="289" 
d="M200 204l-19 -204h-133l31 192l49 451h134zM366 837v-11l-63 -87l-11 -5c-15.333 2 -39.666 8.66699 -72.999 20c-30 10 -48.667 15 -56 15s-14.333 -3.16699 -21 -9.5s-13.167 -13.833 -19.5 -22.5s-10.833 -14.667 -13.5 -18h-11l-39 38v11l63 87l11 5
c15.333 -2 39.666 -8.66699 72.999 -20c30 -10 48.667 -15 56 -15c8.66699 0 16.5 3.83301 23.5 11.5s17.167 20.5 30.5 38.5h12z" />
    <glyph glyph-name="itilde" unicode="&#x7e;i" horiz-adv-x="275" 
d="M341 698v-11l-63 -87l-11 -5c-15.333 2 -39.666 8.66699 -72.999 20c-30 10 -48.667 15 -56 15s-14.333 -3.16699 -21 -9.5s-13.167 -13.833 -19.5 -22.5s-10.833 -14.667 -13.5 -18h-11l-39 38v11l63 87l11 5c15.333 -2 39.666 -8.66699 72.999 -20
c30 -10 48.667 -15 56 -15c8.66699 0 16.5 3.83301 23.5 11.5s17.167 20.5 30.5 38.5h12zM181 161l-14 -161h-122l24 150l38 355h124z" />
    <glyph glyph-name="Utilde" unicode="&#x7e;U" horiz-adv-x="622" 
d="M568 317l-11 -84c-8.66699 -78 -36.334 -137.833 -83.001 -179.5s-110.334 -62.5 -191.001 -62.5c-70 0 -125 16.167 -165 48.5s-60 78.5 -60 138.5c0 17.333 1.33301 33.666 4 48.999l13 93l36 323h132l-55 -398c-2 -14 -3 -26.667 -3 -38
c0 -36.667 8.83301 -63.667 26.5 -81s44.834 -26 81.501 -26c42.667 0 75.834 11.333 99.501 34s38.167 57.334 43.5 104.001l44 405h133zM555 840l-0.00195312 -11l-70 -88l-12 -5c-13.333 2 -41 8.66699 -83 20c-3.33301 0.666992 -14.166 3.5 -32.499 8.5
s-31.166 7.5 -38.499 7.5s-14.666 -3.16699 -21.999 -9.5s-15 -14 -23 -23l-17 -19.5h-12l-38 39v11l69 88l13 4c10.667 -1.33301 25 -4.33301 43 -9s31.667 -8 41 -10c35.333 -10.667 58.666 -16 69.999 -16c8 0 15.667 3.16699 23 9.5s14.833 14 22.5 23
s13.167 15.167 16.5 18.5h12z" />
    <glyph glyph-name="utilde" unicode="&#x7e;u" horiz-adv-x="545" 
d="M497 701l-0.00195312 -11l-70 -88l-12 -5c-13.333 2 -41 8.66699 -83 20c-3.33301 0.666992 -14.166 3.5 -32.499 8.5s-31.166 7.5 -38.499 7.5s-14.666 -3.16699 -21.999 -9.5s-15 -14 -23 -23l-17 -19.5h-12l-38 39v11l69 88l13 4c10.667 -1.33301 25 -4.33301 43 -9
s31.667 -8 41 -10c35.333 -10.667 58.666 -16 69.999 -16c8 0 15.667 3.16699 23 9.5s14.833 14 22.5 23s13.167 15.167 16.5 18.5h12zM484.998 248l-10.001 -77c-7.33301 -57.333 -30.666 -101.5 -69.999 -132.5s-93.333 -46.5 -162 -46.5
c-61.333 0 -108.833 12.5 -142.5 37.5s-50.5 60.833 -50.5 107.5c0 10.667 1 22 3 34l11 79l29 255h122l-45 -316c-1.33301 -10.667 -2 -18 -2 -22c0 -50.667 29 -76 87 -76c65.333 0 101.333 32.667 108 98l34 316h123z" />
    <glyph glyph-name="uni1EBC" unicode="&#x7e;E" horiz-adv-x="497" 
d="M248 538l-22 -159l107 -1l102 3l7 -10l-22 -99l-110 3l-99 -1l-10 -70l-10 -99l111 -1l154 5l5 -10l-20 -99h-393l31 192l50 451h396l6 -10l-22 -99l-149 5zM514 840l-0.00195312 -11l-70 -88l-12 -5c-13.333 2 -41 8.66699 -83 20
c-3.33301 0.666992 -14.166 3.5 -32.499 8.5s-31.166 7.5 -38.499 7.5s-14.666 -3.16699 -21.999 -9.5s-15 -14 -23 -23l-17 -19.5h-12l-38 39v11l69 88l13 4c10.667 -1.33301 25 -4.33301 43 -9s31.667 -8 41 -10c35.333 -10.667 58.666 -16 69.999 -16
c8 0 15.667 3.16699 23 9.5s14.833 14 22.5 23s13.167 15.167 16.5 18.5h12z" />
    <glyph glyph-name="uni1EBD" unicode="&#x7e;e" horiz-adv-x="446" 
d="M462 701l-0.00195312 -11l-70 -88l-12 -5c-13.333 2 -41 8.66699 -83 20c-3.33301 0.666992 -14.166 3.5 -32.499 8.5s-31.166 7.5 -38.499 7.5s-14.666 -3.16699 -21.999 -9.5s-15 -14 -23 -23l-17 -19.5h-12l-38 39v11l69 88l13 4c10.667 -1.33301 25 -4.33301 43 -9
s31.667 -8 41 -10c35.333 -10.667 58.666 -16 69.999 -16c8 0 15.667 3.16699 23 9.5s14.833 14 22.5 23s13.167 15.167 16.5 18.5h12zM453.998 495l-20 -91l-125 5h-92l-15 -105l89 -1l85 3l5 -9l-18 -92l-93 3l-82 -1l-7 -46l-6 -65h86l134 4l6 -9l-19 -91h-338l24 150
l39 355h342z" />
    <glyph glyph-name="uni1EF8" unicode="&#x7e;Y" horiz-adv-x="543" 
d="M324 220l-7 -40l-17 -180h-132l30 180l4 41l-146 422h137l8 -43l76 -248h9l148 244l24 47h138zM515 840l-0.00195312 -11l-70 -88l-12 -5c-13.333 2 -41 8.66699 -83 20c-3.33301 0.666992 -14.166 3.5 -32.499 8.5s-31.166 7.5 -38.499 7.5
s-14.666 -3.16699 -21.999 -9.5s-15 -14 -23 -23l-17 -19.5h-12l-38 39v11l69 88l13 4c10.667 -1.33301 25 -4.33301 43 -9s31.667 -8 41 -10c35.333 -10.667 58.666 -16 69.999 -16c8 0 15.667 3.16699 23 9.5s14.833 14 22.5 23s13.167 15.167 16.5 18.5h12z" />
    <glyph glyph-name="uni1EF9" unicode="&#x7e;y" horiz-adv-x="488" 
d="M158 581l-38.002 39v11l69 88l13 4c10.667 -1.33301 25 -4.33301 43 -9s31.667 -8 41 -10c35.333 -10.667 58.666 -16 69.999 -16c8 0 15.667 3.16699 23 9.5s14.833 14 22.5 23s13.167 15.167 16.5 18.5h12l38 -38v-11l-70 -88l-12 -5c-13.333 2 -41 8.66699 -83 20
c-3.33301 0.666992 -14.166 3.5 -32.499 8.5s-31.166 7.5 -38.499 7.5s-14.666 -3.16699 -21.999 -9.5s-15 -14 -23 -23l-17 -19.5h-12zM286.998 164l-5 -26l-13 -138h-122l23 138l3 26l-126 341h130l7 -37l60 -179h8l114 174l21 42h127z" />
    <glyph glyph-name="Gtilde" unicode="&#x7e;G" horiz-adv-x="585" 
d="M587 613l-43.998 -120.002l-12 -1c-30 18.667 -56.833 32 -80.5 40s-49.834 12 -78.501 12c-66 0 -115.667 -22.5 -149 -67.5s-50 -118.167 -50 -219.5c0 -57.333 11.5 -98.666 34.5 -123.999s59.5 -38 109.5 -38c12.667 0 25 1.16699 37 3.5s27.333 6.5 46 12.5l9 55
l11 105l122 9l-13 -93l-17 -156c-39.333 -14 -75.333 -24.167 -108 -30.5s-66.667 -9.5 -102 -9.5c-86.667 0 -152.834 22.833 -198.501 68.5s-68.5 109.834 -68.5 192.501c0 128 31.5 226.5 94.5 295.5s153.167 103.5 270.5 103.5c70 0 132.333 -12.667 187 -38z
M554.002 839.998l-0.00195312 -11l-70 -88l-12 -5c-13.333 2 -41 8.66699 -83 20c-3.33301 0.666992 -14.166 3.5 -32.499 8.5s-31.166 7.5 -38.499 7.5s-14.666 -3.16699 -21.999 -9.5s-15 -14 -23 -23l-17 -19.5h-12l-38 39v11l69 88l13 4
c10.667 -1.33301 25 -4.33301 43 -9s31.667 -8 41 -10c35.333 -10.667 58.666 -16 69.999 -16c8 0 15.667 3.16699 23 9.5s14.833 14 22.5 23s13.167 15.167 16.5 18.5h12z" />
    <glyph glyph-name="gtilde" unicode="&#x7e;g" horiz-adv-x="511" 
d="M489 701l-0.00195312 -11l-70 -88l-12 -5c-13.333 2 -41 8.66699 -83 20c-3.33301 0.666992 -14.166 3.5 -32.499 8.5s-31.166 7.5 -38.499 7.5s-14.666 -3.16699 -21.999 -9.5s-15 -14 -23 -23l-17 -19.5h-12l-38 39v11l69 88l13 4c10.667 -1.33301 25 -4.33301 43 -9
s31.667 -8 41 -10c35.333 -10.667 58.666 -16 69.999 -16c8 0 15.667 3.16699 23 9.5s14.833 14 22.5 23s13.167 15.167 16.5 18.5h12zM496.998 484l-45.999 -113h-10c-26 15.333 -48.333 26 -67 32s-39.667 9 -63 9c-50.667 0 -88.5 -15.5 -113.5 -46.5
s-37.5 -80.833 -37.5 -149.5c0 -46 8 -78.833 24 -98.5s45.333 -29.5 88 -29.5c12 0 22.667 0.833008 32 2.5s20.666 5.16699 33.999 10.5l4 33l8 80l113 7l-10 -67l-16 -129c-66.667 -22 -125.667 -33 -177 -33c-74.667 0 -131.334 19 -170.001 57s-58 94.333 -58 169
c0 90.667 26.833 162.167 80.5 214.5s129.167 78.5 226.5 78.5c54.667 0 107.334 -9 158.001 -27z" />
    <glyph glyph-name=".notdef" horiz-adv-x="152" 
 />
    <glyph glyph-name="nonmarkingreturn" unicode="&#xd;" horiz-adv-x="133" 
 />
    <glyph glyph-name="space" unicode=" " horiz-adv-x="133" 
 />
    <glyph glyph-name="exclam" unicode="!" horiz-adv-x="233" 
d="M214 498l-64 -314l-73 -9l-12 12l32 306l12 15l91 5zM136.5 103c10.333 -10.667 15.502 -25.668 15.502 -45.001c0 -20 -5.66699 -35.833 -17 -47.5s-27 -17.5 -47 -17.5c-18.667 0 -33.334 5.33301 -44.001 16s-16 25.334 -16 44.001c0 20 5.83301 36 17.5 48
s27.167 18 46.5 18s34.166 -5.33301 44.499 -16z" />
    <glyph glyph-name="quotedbl" unicode="&#x22;" horiz-adv-x="356" 
d="M195 495l-62 -217l-62 -10l-9 9l25 220l101 7zM342 495l-62 -217l-62 -10l-9 9l25 220l101 7z" />
    <glyph glyph-name="numbersign" unicode="#" horiz-adv-x="547" 
d="M415 357l-20 -105h90l8 -9l-6 -66h-107l-29 -145h-74l-7 9l27 136h-102l-28 -145h-75l-6 9l27 136h-85l-8 8l6 67h101l21 105h-87l-8 8l6 67h103l28 141h73l8 -10l-26 -131h101l28 141h73l9 -10l-26 -131h88l8 -9l-6 -66h-105zM332 357h-101l-21 -105h101z" />
    <glyph glyph-name="dollar" unicode="$" horiz-adv-x="446" 
d="M205 335c12 -8.66699 30.6631 -18.6699 55.9961 -30.0029s46.333 -22.166 63 -32.499s31 -24.333 43 -42s18 -39.5 18 -65.5c0 -37.333 -12.667 -71.666 -38 -102.999s-61.666 -52.333 -108.999 -63l-16 -133h-65l-8 10l13 116c-23.333 0.666992 -48 3.5 -74 8.5
s-50.333 12.5 -73 22.5l28 115l14 8c19.333 -20 41.833 -35.833 67.5 -47.5s48.834 -17.5 69.501 -17.5c19.333 0 35.5 5.33301 48.5 16s19.5 23.334 19.5 38.001c0 13.333 -6.16699 24.5 -18.5 33.5s-31.166 19.167 -56.499 30.5c-26 12 -47.167 23.167 -63.5 33.5
s-30.5 24.333 -42.5 42s-18 39.5 -18 65.5c0 41.333 14.667 77.666 44 108.999s69 51 119 59l15 135h63l11 -11l-15 -121c38.667 -3.33301 74.334 -11.666 107.001 -24.999l-30 -109l-19 -5c-18 15.333 -36.333 27 -55 35s-36.334 12 -53.001 12
c-19.333 0 -34.666 -5 -45.999 -15s-17 -22 -17 -36c0 -13.333 6 -24.333 18 -33z" />
    <glyph glyph-name="percent" unicode="%" horiz-adv-x="859" 
d="M719 653l5 -18l-557 -727l-51 33l-4 14l558 730zM343 612.5c22 -24.333 33 -59.167 33 -104.5c0 -69.333 -16.333 -123.5 -49 -162.5s-79 -58.5 -139 -58.5c-42 0 -74.167 12.333 -96.5 37s-33.5 59.667 -33.5 105c0 68.667 16.5 122.5 49.5 161.5s79.5 58.5 139.5 58.5
c42 0 74 -12.167 96 -36.5zM140 442.999c0 -52 21 -77.999 63 -77.999c32 0 55.167 10.667 69.5 32s21.5 51.666 21.5 90.999c0 52 -21.667 78 -65 78c-59.333 0 -89 -41 -89 -123zM789 320.5c22 -24.333 33 -59.5 33 -105.5c0 -69.333 -16.333 -123.5 -49 -162.5
s-79 -58.5 -139 -58.5c-42 0 -74.167 12.167 -96.5 36.5s-33.5 59.5 -33.5 105.5c0 69.333 16.5 123.5 49.5 162.5s79.5 58.5 139.5 58.5c42 0 74 -12.167 96 -36.5zM585 150c0 -52 21 -78 63 -78c32.667 0 56.167 10.667 70.5 32s21.5 52 21.5 92c0 51.333 -22 77 -66 77
c-59.333 0 -89 -41 -89 -123z" />
    <glyph glyph-name="ampersand" unicode="&#x26;" horiz-adv-x="742" 
d="M805 267c-14 -20 -29.001 -35.502 -45.001 -46.502s-34.667 -18.167 -56 -21.5c-18.667 0 -53 5 -103 15c-12 -69.333 -44.333 -124.166 -97 -164.499s-119.334 -60.5 -200.001 -60.5c-84.667 0 -150.5 23 -197.5 69s-70.5 110 -70.5 192c0 52 9.5 98 28.5 138
s45 71 78 93s70.167 33 111.5 33c40 0 70.833 -9.33301 92.5 -28s32.5 -42.334 32.5 -71.001v-8c57.333 44 107.833 92 151.5 144s77.834 105.333 102.501 160h11c25.333 -23.333 43 -51.666 53 -84.999c-19.333 -46 -56.833 -97.5 -112.5 -154.5
s-121.334 -111.667 -197.001 -164s-151.167 -94.5 -226.5 -126.5c22.667 -65.333 74.334 -98 155.001 -98c52.667 0 96.834 13.5 132.501 40.5s56.167 62.833 61.5 107.5c-13.333 2 -24.333 3 -33 3c-12.667 0 -24.5 -3.83301 -35.5 -11.5s-22.167 -20.167 -33.5 -37.5h-14
l-18 74c14 20 29 35.667 45 47s35 18.333 57 21c20.667 0 58 -5.66699 112 -17l51 -9.5c26.667 -5 47.667 -7.5 63 -7.5c16 0 29.5 3.83301 40.5 11.5s20.5 19.834 28.5 36.501h14zM175.999 385.998c-18 -28 -27.333 -66.333 -28 -115c32.667 13.333 70.667 32.333 114 57
c12.667 9.33301 21.834 19.333 27.501 30s8.5 20.667 8.5 30c0 13.333 -4.33301 23.333 -13 30s-20.334 10 -35.001 10c-31.333 0 -56 -14 -74 -42z" />
    <glyph glyph-name="quotesingle" unicode="'" horiz-adv-x="203" 
d="M195 495l-62 -217l-62 -10l-9 9l25 220l101 7z" />
    <glyph glyph-name="parenleft" unicode="(" horiz-adv-x="296" 
d="M331 621l-0.999023 -11.001c-62 -48.667 -105.333 -116.834 -130 -204.501s-37 -173.5 -37 -257.5c0 -54.667 6.16699 -100.667 18.5 -138s33.166 -70.333 62.499 -99l-1 -11l-52 -39h-12c-42.667 34.667 -73.334 74.834 -92.001 120.501s-28 102.5 -28 170.5
c0 98.667 16.333 194.834 49 288.501s89.334 167.167 170.001 220.5h12z" />
    <glyph glyph-name="parenright" unicode=")" horiz-adv-x="302" 
d="M-35 -100l0.999023 11.001c62 48.667 105.333 116.834 130 204.501s37 173.5 37 257.5c0 54.667 -6.16699 100.667 -18.5 138s-33.166 70.333 -62.499 99l1 11l52 39h12c42.667 -34.667 73.334 -74.834 92.001 -120.501s28 -102.5 28 -170.5
c0 -98.667 -16.333 -194.834 -49 -288.501s-89.334 -167.167 -170.001 -220.5h-12z" />
    <glyph glyph-name="asterisk" unicode="*" horiz-adv-x="383" 
d="M288 733l-28.999 -123l-41 -4l-8 7l-3 116c23.333 8 48.666 12 75.999 12zM197.001 600l-6 -42.001l-10 -4l-106 32c0 28.667 3.66699 54.334 11 77.001l9 3zM413.001 570.999l-5 -7l-120 -10l-18 37l4 10l104 39c16 -22.667 27.667 -45.667 35 -69zM283.001 534.999
l68 -90.999c-10.667 -16.667 -28.667 -35.334 -54 -56.001l-9 2l-45 119l30 27zM224.001 516l1 -10l-60 -96c-20 6 -43.667 17.333 -71 34l1 9l92 82z" />
    <glyph glyph-name="plus" unicode="+" horiz-adv-x="477" 
d="M312 468l-21 -163h163l8 -9l-16 -79h-165l-20 -166l-80 -7l-9 9l20 164h-163l-7 9l16 79h165l20 166l80 6z" />
    <glyph glyph-name="comma" unicode="," horiz-adv-x="229" 
d="M164 45c0 -29.333 -9.66602 -58.001 -28.999 -86.001s-49.333 -56.333 -90 -85l-42 37l-1 10c36.667 30 55 62.333 55 97c0 22.667 -10.333 42.334 -31 59.001v12c31.333 18.667 62.666 32 93.999 40c29.333 -23.333 44 -51.333 44 -84z" />
    <glyph glyph-name="hyphen" unicode="-" horiz-adv-x="304" 
d="M285 308l-9 -81l-243 -36l-9 10l10 81l242 35z" />
    <glyph glyph-name="period" unicode="." horiz-adv-x="230" 
d="M145 114.5c11.333 -11.667 16.999 -27.833 16.999 -48.5c0 -22.667 -6.33301 -40.5 -19 -53.5s-29.667 -19.5 -51 -19.5s-37.666 5.83301 -48.999 17.5s-17 28.167 -17 49.5c0 22 6.33301 39.5 19 52.5s30 19.5 52 19.5c20.667 0 36.667 -5.83301 48 -17.5z" />
    <glyph glyph-name="slash" unicode="/" horiz-adv-x="284" 
d="M332 668l-262 -783h-89l-7 11l261 784h87z" />
    <glyph glyph-name="zero" unicode="0" horiz-adv-x="525" 
d="M441 458c33.333 -36.667 50 -92.335 50 -167.002c0 -58.667 -10.167 -110.667 -30.5 -156s-50 -80.666 -89 -105.999s-85.167 -38 -138.5 -38c-62.667 0 -110.667 18.5 -144 55.5s-50 92.167 -50 165.5c0 58 10.333 109.833 31 155.5s50.5 81.334 89.5 107.001
s85.167 38.5 138.5 38.5c62 0 109.667 -18.333 143 -55zM175.5 349.999c-23 -28.667 -34.5 -69 -34.5 -121c0 -42.667 8.33301 -74 25 -94s44 -30 82 -30c46 0 80.833 14.167 104.5 42.5s35.5 68.5 35.5 120.5c0 43.333 -8.5 75 -25.5 95s-44.5 30 -82.5 30
c-46.667 0 -81.5 -14.333 -104.5 -43z" />
    <glyph glyph-name="one" unicode="1" horiz-adv-x="359" 
d="M291 497l-43 -289l-19 -208h-131l30 194l20 169l-117 -30l-9 7l13 104l239 67z" />
    <glyph glyph-name="two" unicode="2" horiz-adv-x="470" 
d="M373.5 479c28.333 -21.333 42.501 -49.998 42.501 -85.998c0 -26.667 -10.667 -54.834 -32 -84.501s-59.333 -71.834 -114 -126.501l-76 -78l2 -5h136l91 8l6 -8l-28 -105l-119 6h-227l-37 -2l-6 5l10 79l148 136c40 36.667 68.833 65.5 86.5 86.5s26.5 39.5 26.5 55.5
c0 12.667 -4.5 22.667 -13.5 30s-22.167 11 -39.5 11c-21.333 0 -44.333 -5.33301 -69 -16s-48.334 -25.667 -71.001 -45h-15l-8 101c69.333 46.667 135 70 197 70c44.667 0 81.167 -10.667 109.5 -32z" />
    <glyph glyph-name="three" unicode="3" horiz-adv-x="430" 
d="M348.5 477.5c31 -23 46.502 -53.167 46.502 -90.5c0 -28.667 -10 -57.5 -30 -86.5s-48.333 -52.167 -85 -69.5v-5c31.333 -11.333 55 -26.833 71 -46.5s24 -44.834 24 -75.501c0 -38 -11.5 -72.167 -34.5 -102.5s-54.833 -54 -95.5 -71s-86.667 -25.5 -138 -25.5
c-42 0 -79.333 3.66699 -112 11l5 103l11 9c36 -15.333 71.667 -23 107 -23c40 0 71.833 8.33301 95.5 25s35.5 39.334 35.5 68.001c0 41.333 -28.333 63 -85 65h-69l-6 8l15 89l50 2c15.333 0.666992 31.166 5 47.499 13s29.833 19 40.5 33s16 29.667 16 47
c0 16 -5.33301 28.667 -16 38s-25.667 14 -45 14s-39 -4 -59 -12s-42.333 -20.333 -67 -37h-13l-7 95c59.333 39.333 117.666 59 174.999 59c50.667 0 91.5 -11.5 122.5 -34.5z" />
    <glyph glyph-name="four" unicode="4" horiz-adv-x="501" 
d="M446 55l-83 2l-12 -137l-9 -10l-101 -6l-6 8l22 146h-163l-86 -3l-7 11l10 84l287 355h121l-46 -348h84l6 -11zM125 157h146l26 201h-9z" />
    <glyph glyph-name="five" unicode="5" horiz-adv-x="431" 
d="M427 502l-24.999 -99.998l-10 -9l-89 9h-118l-15 -114l61 -13c98.667 -20.667 148 -70.334 148 -149.001c0 -42 -12 -80 -36 -114s-57 -60.667 -99 -80s-88.667 -29 -140 -29c-35.333 0 -72.333 4 -111 12l4 102l10 9c39.333 -15.333 78 -23 116 -23
c39.333 0 71 9.5 95 28.5s36 43.5 36 73.5c0 20.667 -6.83301 37.167 -20.5 49.5s-34.834 21.166 -63.501 26.499l-101 18l-8 10l35 284l18 15l57 -3h146l103 6z" />
    <glyph glyph-name="six" unicode="6" horiz-adv-x="483" 
d="M183 341l7.00098 -9.99902c17.333 10 33.666 17.5 48.999 22.5s31.333 7.5 48 7.5c31.333 0 59 -7.33301 83 -22s42.5 -34.5 55.5 -59.5s19.5 -52.167 19.5 -81.5c0 -31.333 -7.66699 -63 -23 -95s-39.333 -58.833 -72 -80.5s-74 -32.5 -124 -32.5
c-62.667 0 -111 17.667 -145 53s-51 83.666 -51 144.999c0 51.333 12.167 102.333 36.5 153s61.833 98.167 112.5 142.5s114.334 81.833 191.001 112.5h7l85 -58l-1 -13c-140.667 -42.667 -233.334 -104 -278.001 -184zM200.001 259.001
c-18 -6.66699 -34.999 -16.002 -50.999 -28.002c-1.33301 -17.333 -2 -30.666 -2 -39.999c0 -36.667 6.16699 -64.667 18.5 -84s34.166 -29 65.499 -29c34 0 58.333 10.333 73 31s22 46.334 22 77.001c0 55.333 -25 83 -75 83c-16 0 -33 -3.33301 -51 -10z" />
    <glyph glyph-name="seven" unicode="7" horiz-adv-x="432" 
d="M169 505h220l49 2l-10 -95l-212 -364l-74 -148l-101 31l-6 20l265 447h-165l-92 -10l-6 12l22 109z" />
    <glyph glyph-name="eight" unicode="8" horiz-adv-x="493" 
d="M409 557.5c30.667 -24.333 45.999 -57.833 45.999 -100.5c0 -34 -9.5 -62.667 -28.5 -86s-44.833 -43.333 -77.5 -60l-1 -7c30 -16 53 -34 69 -54s24 -47.333 24 -82s-8.83301 -65.334 -26.5 -92.001s-42.667 -47.5 -75 -62.5s-69.833 -22.5 -112.5 -22.5
c-60 0 -107.5 13.333 -142.5 40s-52.5 62 -52.5 106c0 36.667 11 66.5 33 89.5s53.333 43.167 94 60.5l1 6c-24.667 14.667 -43.667 31.834 -57 51.501s-20 45.5 -20 77.5c0 34 8.33301 64 25 90s40.167 46.167 70.5 60.5s65.5 21.5 105.5 21.5
c52.667 0 94.334 -12.167 125.001 -36.5zM213.499 484c-16.333 -14 -24.499 -32 -24.499 -54c0 -21.333 6.66699 -38.333 20 -51s33.666 -24.667 60.999 -36c26 13.333 46 27.5 60 42.5s21 33.5 21 55.5c0 20.667 -6.16699 36.5 -18.5 47.5s-30.5 16.5 -54.5 16.5
c-26.667 0 -48.167 -7 -64.5 -21zM166.5 213c-16.333 -14 -24.502 -33.333 -24.502 -58s7.5 -43.667 22.5 -57s36.833 -20 65.5 -20c31.333 0 56.5 8 75.5 24s28.5 35.667 28.5 59c0 22 -7.66699 39.167 -23 51.5s-39.666 25.5 -72.999 39.5
c-31.333 -12 -55.166 -25 -71.499 -39z" />
    <glyph glyph-name="nine" unicode="9" horiz-adv-x="483" 
d="M305 164l-7.00098 9.99902c-17.333 -10 -33.666 -17.5 -48.999 -22.5s-31.333 -7.5 -48 -7.5c-31.333 0 -59 7.33301 -83 22s-42.5 34.5 -55.5 59.5s-19.5 52.167 -19.5 81.5c0 31.333 7.66699 63 23 95s39.333 58.833 72 80.5s74 32.5 124 32.5
c62.667 0 111 -17.667 145 -53s51 -83.666 51 -144.999c0 -51.333 -12.167 -102.333 -36.5 -153s-61.833 -98.167 -112.5 -142.5s-114.334 -81.833 -191.001 -112.5h-7l-85 58l1 13c140.667 42.667 233.334 104 278.001 184zM287.999 245.999
c18 6.66699 34.999 16.002 50.999 28.002c1.33301 17.333 2 30.666 2 39.999c0 36.667 -6.16699 64.667 -18.5 84s-34.166 29 -65.499 29c-34 0 -58.333 -10.333 -73 -31s-22 -46.334 -22 -77.001c0 -55.333 25 -83 75 -83c16 0 33 3.33301 51 10z" />
    <glyph glyph-name="colon" unicode=":" horiz-adv-x="230" 
d="M145 114.5c11.333 -11.667 16.999 -27.833 16.999 -48.5c0 -22.667 -6.33301 -40.5 -19 -53.5s-29.667 -19.5 -51 -19.5s-37.666 5.83301 -48.999 17.5s-17 28.167 -17 49.5c0 22 6.33301 39.5 19 52.5s30 19.5 52 19.5c20.667 0 36.667 -5.83301 48 -17.5z
M176.999 377.501c11.333 -11.667 16.999 -27.833 16.999 -48.5c0 -22.667 -6.33301 -40.5 -19 -53.5s-29.667 -19.5 -51 -19.5s-37.666 5.83301 -48.999 17.5s-17 28.167 -17 49.5c0 22 6.33301 39.5 19 52.5s30 19.5 52 19.5c20.667 0 36.667 -5.83301 48 -17.5z" />
    <glyph glyph-name="semicolon" unicode=";" horiz-adv-x="229" 
d="M161 45c0 -29.333 -9.66602 -58.001 -28.999 -86.001s-49.333 -56.333 -90 -85l-42 37l-1 10c36.667 30 55 62.333 55 97c0 22.667 -10.333 42.334 -31 59.001v12c31.333 18.667 62.666 32 93.999 40c29.333 -23.333 44 -51.333 44 -84zM174.001 377.499
c11.333 -11.667 16.999 -27.833 16.999 -48.5c0 -22.667 -6.33301 -40.5 -19 -53.5s-29.667 -19.5 -51 -19.5s-37.666 5.83301 -48.999 17.5s-17 28.167 -17 49.5c0 22 6.33301 39.5 19 52.5s30 19.5 52 19.5c20.667 0 36.667 -5.83301 48 -17.5z" />
    <glyph glyph-name="less" unicode="&#x3c;" horiz-adv-x="496" 
d="M466 396l-7 -10l-327 -119v-7l298 -114l-27 -73l-13 -9l-357 144l12 105l11 12l391 145z" />
    <glyph glyph-name="equal" unicode="=" horiz-adv-x="478" 
d="M473 389l-7 -79h-417l-9 9l7 79h417zM450 202l-7 -79h-417l-9 9l7 79h417z" />
    <glyph glyph-name="greater" unicode="&#x3e;" horiz-adv-x="503" 
d="M466 325l8 -12l-12 -105l-394 -144l-11 9l-9 73l327 114l1 7l-298 119l-4 10l36 74z" />
    <glyph glyph-name="question" unicode="?" horiz-adv-x="287" 
d="M250.5 478c38.333 -21.333 57.502 -50.6699 57.502 -88.0029c0 -23.333 -7.83301 -46.166 -23.5 -68.499s-37.834 -39.833 -66.501 -52.5l-62 -29l-3 -4l-4 -54l-79 -11l-9 9l2 86l4 10l70 35c34.667 16 53 36 55 60c2.66699 17.333 -6.33301 30.333 -27 39
s-57.667 14.334 -111 17.001l-10 12l31 69l11 7c71.333 -3.33301 126.166 -15.666 164.499 -36.999zM137.502 100.996c10.333 -10.667 15.5 -25.333 15.5 -44c0 -19.333 -5.83301 -34.833 -17.5 -46.5s-27.167 -17.5 -46.5 -17.5c-18.667 0 -33.167 5.16699 -43.5 15.5
s-15.5 24.833 -15.5 43.5c0 20 5.66699 35.833 17 47.5s27 17.5 47 17.5c18.667 0 33.167 -5.33301 43.5 -16z" />
    <glyph glyph-name="at" unicode="@" horiz-adv-x="843" 
d="M724 82.5c-64.667 -53.667 -156.999 -81.8311 -276.999 -84.498l22 161h-12c-38 -66.667 -78.667 -122 -122 -166h-18c-35.333 13.333 -60.666 33.166 -75.999 59.499s-23 59.833 -23 100.5c0 44 8.66699 87.5 26 130.5s43.666 80.5 78.999 112.5s78.333 54 129 66h5
l77 -20l70 22l10 -6l-48 -346l-1 -24c53.333 8.66699 95.166 32.5 125.499 71.5s45.5 88.167 45.5 147.5c0 48.667 -10.833 91.5 -32.5 128.5s-52.667 65.667 -93 86s-87.5 30.5 -141.5 30.5c-70 0 -131.833 -15 -185.5 -45s-95.167 -71.667 -124.5 -125s-44 -114 -44 -182
c0 -70 15.667 -130.167 47 -180.5s75.666 -88.833 132.999 -115.5s124.333 -40 201 -40l5 -13l-36 -61c-87.333 0.666992 -163.833 16.667 -229.5 48s-116.5 76.5 -152.5 135.5s-54 129.5 -54 211.5c0 85.333 18.333 162 55 230s88.5 121.333 155.5 160s144.5 58 232.5 58
c70 0 131.333 -13 184 -39s93.334 -63.333 122.001 -112s43 -105.667 43 -171c0 -98.667 -32.333 -174.834 -97 -228.501zM383.001 133.503c14.667 17 31.499 42.168 50.499 75.501s38.5 73 58.5 119l3 20v5l-63 21c-33.333 0 -59.666 -16.833 -78.999 -50.5
s-29 -76.834 -29 -129.501c0 -30.667 2.5 -52.667 7.5 -66s11.167 -20 18.5 -20s18.333 8.5 33 25.5z" />
    <glyph glyph-name="A" unicode="A" horiz-adv-x="583" 
d="M539 0h-133l-6 83l-9 63l-121 2l-107 -2l-24 -56l-29 -90h-130l291 643h157zM376 248l-40 271h-9l-118 -270l82 -2z" />
    <glyph glyph-name="B" unicode="B" horiz-adv-x="565" 
d="M503.5 282c17 -21.333 25.499 -49.002 25.499 -83.002c0 -67.333 -25.167 -118.166 -75.5 -152.499s-127.5 -51.5 -231.5 -51.5c-59.333 0 -116.666 1.66699 -171.999 5h-1l31 192l49 451l216 1c59.333 0 106 -12 140 -36s51 -59 51 -105
c0 -38 -9.83301 -71.667 -29.5 -101s-48.167 -52 -85.5 -68c38 -13.333 65.5 -30.666 82.5 -51.999zM377.499 406.498c14.333 18.333 21.5 42.833 21.5 73.5c0 24.667 -7.66699 42.334 -23 53.001s-41.666 16 -78.999 16h-50l-25 -178l90 -3
c29.333 7.33301 51.166 20.166 65.499 38.499zM357.999 118.498c24.667 19 37 45.499 37 79.499c0 22.667 -6.5 40.334 -19.5 53.001s-32.833 21.667 -59.5 27l-108 -2l-10 -72l-11 -110c33.333 -2.66699 55.666 -4 66.999 -4c44.667 0 79.334 9.5 104.001 28.5z" />
    <glyph glyph-name="C" unicode="C" horiz-adv-x="507" 
d="M541 613l-37.002 -112l-11 -4c-18 14.667 -38.167 26 -60.5 34s-45.833 12 -70.5 12c-60.667 0 -106.667 -22.333 -138 -67s-47 -110 -47 -196c0 -58.667 11.5 -103 34.5 -133s56.5 -45 100.5 -45c24 0 49.333 3.83301 76 11.5s51 18.5 73 32.5l11 -7l-25 -113
c-26.667 -12 -52.167 -20.833 -76.5 -26.5s-50.166 -8.5 -77.499 -8.5c-82 0 -145.167 23.167 -189.5 69.5s-66.5 112.5 -66.5 198.5c0 81.333 13.333 151.333 40 210s65.334 103.667 116.001 135s111.667 47 183 47c63.333 0 118.333 -12.667 165 -38z" />
    <glyph glyph-name="D" unicode="D" horiz-adv-x="641" 
d="M561.5 581.5c44.333 -43.667 66.5 -105.5 66.5 -185.5c0 -126 -30.667 -224.667 -92 -296s-148.666 -107 -261.999 -107c-31.333 0 -69 0.666992 -113 2s-81.333 3 -112 5l31 192l49 451l244 4c81.333 0 144.166 -21.833 188.499 -65.5zM440.5 164.5
c32.333 46.333 48.502 116.5 48.502 210.5c0 57.333 -10.833 99.5 -32.5 126.5s-54.834 40.5 -99.501 40.5c-26 0 -62.333 -1.33301 -109 -4l-48 -334l-9 -101c18 -2 37.833 -3.83301 59.5 -5.5s39.167 -2.5 52.5 -2.5c59.333 0 105.166 23.167 137.499 69.5z" />
    <glyph glyph-name="E" unicode="E" horiz-adv-x="497" 
d="M248 538l-22 -159l107 -1l102 3l7 -10l-22 -99l-110 3l-99 -1l-10 -70l-10 -99l111 -1l154 5l5 -10l-20 -99h-393l31 192l50 451h396l6 -10l-22 -99l-149 5z" />
    <glyph glyph-name="F" unicode="F" horiz-adv-x="444" 
d="M248 538l-25 -177l86 -1l108 3l6 -10l-21 -98l-115 3l-78 -1l-8 -53l-20 -204h-133l31 192l50 451h372l6 -10l-22 -100l-147 6z" />
    <glyph glyph-name="G" unicode="G" horiz-adv-x="585" 
d="M587 613l-43.998 -120.002l-12 -1c-30 18.667 -56.833 32 -80.5 40s-49.834 12 -78.501 12c-66 0 -115.667 -22.5 -149 -67.5s-50 -118.167 -50 -219.5c0 -57.333 11.5 -98.666 34.5 -123.999s59.5 -38 109.5 -38c12.667 0 25 1.16699 37 3.5s27.333 6.5 46 12.5l9 55
l11 105l122 9l-13 -93l-17 -156c-39.333 -14 -75.333 -24.167 -108 -30.5s-66.667 -9.5 -102 -9.5c-86.667 0 -152.834 22.833 -198.501 68.5s-68.5 109.834 -68.5 192.501c0 128 31.5 226.5 94.5 295.5s153.167 103.5 270.5 103.5c70 0 132.333 -12.667 187 -38z" />
    <glyph glyph-name="H" unicode="H" horiz-adv-x="679" 
d="M653 643l-62 -439l-20 -204h-132l31 192l8 76l-142 3l-127 -4l-9 -63l-19 -204h-133l31 192l49 451h134l-37 -265l133 -3l132 3l28 265h135z" />
    <glyph glyph-name="I" unicode="I" horiz-adv-x="289" 
d="M200 204l-19 -204h-133l31 192l49 451h134z" />
    <glyph glyph-name="J" unicode="J" horiz-adv-x="328" 
d="M235 212l-7.99902 -91.998c-7.33301 -55.333 -27.5 -99.833 -60.5 -133.5s-86.5 -64.5 -160.5 -92.5l-32 70l1 13c43.333 21.333 74.666 42.666 93.999 63.999s31.333 48.666 36 81.999l10 77l37 346l-103 -2l-8 9l17 90h239z" />
    <glyph glyph-name="K" unicode="K" horiz-adv-x="569" 
d="M352 335c53.333 -94 120.001 -196.334 200.001 -307.001l-4 -15c-40 -10 -84 -17.667 -132 -23l-13 8c-78.667 132.667 -140.334 243.334 -185.001 332.001l-18 -126l-20 -204h-132l31 192l49 451h134l-42 -298l204 237l44 61h142z" />
    <glyph glyph-name="L" unicode="L" horiz-adv-x="423" 
d="M405 99l-21 -99h-338l31 192l49 451h134l-61 -439l-9 -95h209z" />
    <glyph glyph-name="M" unicode="M" horiz-adv-x="776" 
d="M701 0h-117l15 195l8 253h-9l-187 -380h-103l-80 380h-10l-53 -241l-39 -207h-111l144 643h151l14 -95l60 -309h9l143 310l39 94h150z" />
    <glyph glyph-name="N" unicode="N" horiz-adv-x="678" 
d="M590 198l-19 -198h-142l-200 441h-9l-28 -220l-22 -221h-121l30 190l50 453h142l200 -441h9l51 436l123 8z" />
    <glyph glyph-name="O" unicode="O" horiz-adv-x="631" 
d="M553.5 583.5c43.667 -45.667 65.499 -112.169 65.499 -199.502c0 -78.667 -13 -147.667 -39 -207s-64 -105.333 -114 -138s-110 -49 -180 -49c-78.667 0 -139.834 23.5 -183.501 70.5s-65.5 114.5 -65.5 202.5c0 78.667 12.833 147.334 38.5 206.001
s63.334 103.834 113.001 135.501s109.834 47.5 180.501 47.5c79.333 0 140.833 -22.833 184.5 -68.5zM218.499 478.498c-29.667 -44.333 -44.499 -115.166 -44.499 -212.499c0 -60.667 9.83301 -104.834 29.5 -132.501s51.5 -41.5 95.5 -41.5c60 0 105 22.333 135 67
s45 116 45 214c0 60.667 -9.83301 104.5 -29.5 131.5s-51.834 40.5 -96.501 40.5c-60 0 -104.833 -22.167 -134.5 -66.5z" />
    <glyph glyph-name="P" unicode="P" horiz-adv-x="540" 
d="M499.5 600.5c33.667 -29 50.501 -71.501 50.501 -127.501c0 -51.333 -11.5 -97.166 -34.5 -137.499s-55.833 -71.833 -98.5 -94.5s-92.334 -34 -149.001 -34h-67v-3l-20 -204h-132l31 192l49 451l230 1c60 0 106.833 -14.5 140.5 -43.5zM385.001 355.999
c18 26 27 58 27 96c0 30.667 -7.66699 53.667 -23 69s-40 24 -74 26l-66 -3l-33 -236l94 -3c32 8 57 25 75 51z" />
    <glyph glyph-name="Q" unicode="Q" horiz-adv-x="632" 
d="M688 -112c-20 -34.667 -42.332 -62.6699 -66.999 -84.0029l-10 -5c-123.333 44.667 -228.333 108.334 -315 191.001h-11c-78 0 -138.833 23.5 -182.5 70.5s-65.5 114.5 -65.5 202.5c0 78.667 12.833 147.334 38.5 206.001s63.5 103.834 113.5 135.501
s110.333 47.5 181 47.5c79.333 0 140.666 -22.833 183.999 -68.5s65 -112.167 65 -199.5c0 -90.667 -17 -168 -51 -232s-82.667 -109.333 -146 -136c78.667 -52.667 166 -90.667 262 -114zM203.501 133.497c19.667 -27.667 51.501 -41.5 95.501 -41.5
c60 0 105 22.333 135 67s45 116 45 214c0 60.667 -9.83301 104.5 -29.5 131.5s-51.834 40.5 -96.501 40.5c-60 0 -104.833 -22.167 -134.5 -66.5s-44.5 -115.166 -44.5 -212.499c0 -60.667 9.83301 -104.834 29.5 -132.501z" />
    <glyph glyph-name="R" unicode="R" horiz-adv-x="574" 
d="M513 349.5c-25.333 -39.667 -60.334 -71.499 -105.001 -95.499c36 -74.667 77 -149 123 -223l-3 -15c-45.333 -14.667 -89.666 -23.334 -132.999 -26.001l-12 10c-32.667 75.333 -62 148.333 -88 219h-93l-2 -15l-19 -204h-133l31 192l50 451l232 1
c59.333 0 105.833 -14.167 139.5 -42.5s50.5 -68.5 50.5 -120.5c0 -48 -12.667 -91.833 -38 -131.5zM216.999 321.001l95 -3.99902c66.667 22.667 100 70 100 142c0 55.333 -32.333 84.666 -97 87.999l-66 -3z" />
    <glyph glyph-name="S" unicode="S" horiz-adv-x="485" 
d="M483 619l-34.998 -114.003l-20 -8c-20.667 16 -42.334 28.5 -65.001 37.5s-44 13.5 -64 13.5c-27.333 0 -49.666 -7.16699 -66.999 -21.5s-26 -31.5 -26 -51.5c0 -18.667 7.66699 -34.667 23 -48s39.666 -29.333 72.999 -48c30.667 -17.333 56 -33.166 76 -47.499
s37 -32.666 51 -54.999s21 -48.5 21 -78.5c0 -38 -10.833 -72.667 -32.5 -104s-51.834 -56.333 -90.501 -75s-82 -28 -130 -28c-31.333 0 -63.333 3.5 -96 10.5s-63.334 17.5 -92.001 31.5l32 122l15 8c24 -23.333 50.5 -41 79.5 -53s56.167 -18 81.5 -18
c30 0 53.833 7.33301 71.5 22s26.5 32.667 26.5 54c0 20 -7.83301 36.833 -23.5 50.5s-40.167 29.834 -73.5 48.501c-30 16.667 -54.667 32 -74 46s-35.833 32 -49.5 54s-20.5 48.333 -20.5 79c0 38 10.667 72.833 32 104.5s50.833 56.5 88.5 74.5s79.834 27 126.501 27
c54.667 0 108.667 -11 162 -33z" />
    <glyph glyph-name="T" unicode="T" horiz-adv-x="489" 
d="M525 633l-20 -98l-117 6h-38l-47 -337l-20 -204h-132l32 192l38 349h-39l-121 -6l-7 10l22 98h443z" />
    <glyph glyph-name="U" unicode="U" horiz-adv-x="622" 
d="M568 317l-11 -84c-8.66699 -78 -36.334 -137.833 -83.001 -179.5s-110.334 -62.5 -191.001 -62.5c-70 0 -125 16.167 -165 48.5s-60 78.5 -60 138.5c0 17.333 1.33301 33.666 4 48.999l13 93l36 323h132l-55 -398c-2 -14 -3 -26.667 -3 -38
c0 -36.667 8.83301 -63.667 26.5 -81s44.834 -26 81.501 -26c42.667 0 75.834 11.333 99.501 34s38.167 57.334 43.5 104.001l44 405h133z" />
    <glyph glyph-name="V" unicode="V" horiz-adv-x="570" 
d="M330 0h-157l-113 643h134l6 -83l65 -436h8l188 429l29 90h129z" />
    <glyph glyph-name="W" unicode="W" horiz-adv-x="877" 
d="M638 0h-138l-54 312h-9l-132 -312h-141l-94 643h129v-78l58 -428h8l149 350l-25 156h135l3 -91l61 -415h9l178 421l26 85h123z" />
    <glyph glyph-name="X" unicode="X" horiz-adv-x="593" 
d="M393 330l156 -330h-154l-21 64l-83 169l-135 -177l-35 -56h-135l238 325l-154 318h155l21 -63l78 -161l122 166l35 58h139z" />
    <glyph glyph-name="Y" unicode="Y" horiz-adv-x="543" 
d="M324 220l-7 -40l-17 -180h-132l30 180l4 41l-146 422h137l8 -43l76 -248h9l148 244l24 47h138z" />
    <glyph glyph-name="Z" unicode="Z" horiz-adv-x="532" 
d="M537 548l-367 -447h210l106 8l4 -7l-23 -105l-141 3h-249l-76 -4l12 95l370 451h-198l-107 -9l-5 7l24 105l126 -2h266l60 1z" />
    <glyph glyph-name="bracketleft" unicode="[" horiz-adv-x="295" 
d="M339 641l-7 -59l-110 -13l-76 -617l107 -13l-8 -59l-6 -7l-206 10l53 378l39 377l209 10z" />
    <glyph glyph-name="backslash" unicode="\" horiz-adv-x="350" 
d="M35 668l11 12h87l206 -784l-8 -11h-89z" />
    <glyph glyph-name="bracketright" unicode="]" horiz-adv-x="295" 
d="M-37 -120l7 59l110 13l76 617l-107 13l8 59l6 7l206 -10l-53 -378l-39 -377l-209 -10z" />
    <glyph glyph-name="asciicircum" unicode="^" horiz-adv-x="440" 
d="M413 146l-11 -12l-74 -17l-79 288h-8l-154 -288l-11 -5l-70 27l188 350l13 7h105z" />
    <glyph glyph-name="underscore" unicode="_" horiz-adv-x="445" 
d="M419 -98l-15 -73h-460l-7 9l15 73h460z" />
    <glyph glyph-name="grave" unicode="`" horiz-adv-x="398" 
d="M338 570l-30.999 -49.001l-12 -1c-52.667 30.667 -117.334 70.334 -194.001 119.001l-2 12l47 70l12 1c57.333 -51.333 117.333 -102 180 -152z" />
    <glyph glyph-name="a" unicode="a" horiz-adv-x="517" 
d="M464 0h-123l-3 71l-5 32l-101 2l-88 -2l-12 -25l-25 -78h-119l237 505h144zM317 196l-33 197h-8l-90 -197l65 -1z" />
    <glyph glyph-name="b" unicode="b" horiz-adv-x="507" 
d="M436 218.5c14.667 -17.667 21.999 -41.166 21.999 -70.499c0 -50.667 -21.167 -88.667 -63.5 -114s-104.5 -38 -186.5 -38c-40 0 -94.667 1.33301 -164 4l24 150l39 355h195c50.667 0 90.334 -9.83301 119.001 -29.5s43 -48.167 43 -85.5
c0 -28.667 -8.16699 -54.167 -24.5 -76.5s-39.5 -39.833 -69.5 -52.5c29.333 -10.667 51.333 -24.834 66 -42.501zM319.999 320.001c10 12 15.001 28.667 15.001 50c0 18 -5.83301 30.5 -17.5 37.5s-30.834 10.5 -57.501 10.5h-45l-17 -121l77 -3c20 5.33301 35 14 45 26z
M305 101.001c18.667 12.667 28 30.998 28 54.998c0 14.667 -4.5 26.334 -13.5 35.001s-22.833 15.334 -41.5 20.001l-92 -2l-7 -48l-7 -76c20 -2 38.333 -3 55 -3c33.333 0 59.333 6.33301 78 19z" />
    <glyph glyph-name="c" unicode="c" horiz-adv-x="446" 
d="M394 504.5c24 -4.33301 44.999 -10.833 62.999 -19.5l-34 -106l-11 -5c-13.333 11.333 -29.666 20.333 -48.999 27s-40 10 -62 10c-92 0 -138 -61 -138 -183c0 -89.333 35.667 -134 107 -134c19.333 0 40 3 62 9s41.333 14.333 58 25l11 -6l-22 -106
c-42.667 -16 -82.667 -24 -120 -24c-74.667 0 -131 19 -169 57s-57 92.333 -57 163c0 93.333 25.167 166.5 75.5 219.5s120.833 79.5 211.5 79.5c25.333 0 50 -2.16699 74 -6.5z" />
    <glyph glyph-name="d" unicode="d" horiz-adv-x="561" 
d="M477 456c38 -34.667 56.999 -84 56.999 -148c0 -98.667 -25.667 -175.667 -77 -231s-124.666 -83 -219.999 -83c-54 0 -118.333 2 -193 6l24 150l39 355l210 3c68.667 0 122 -17.333 160 -52zM367.999 136.5c24.667 32.333 37 82.499 37 150.499
c0 42.667 -8.66699 73.834 -26 93.501s-43.333 29.5 -78 29.5c-31.333 0 -59.333 -1.33301 -84 -4l-36 -245l-6 -67l28 -2c30.667 -2.66699 50.667 -4 60 -4c45.333 0 80.333 16.167 105 48.5z" />
    <glyph glyph-name="e" unicode="e" horiz-adv-x="446" 
d="M217 409l-15 -105l89 -1l85 3l5 -9l-18 -92l-93 3l-82 -1l-7 -46l-6 -65h86l134 4l6 -9l-19 -91h-338l24 150l39 355h342l5 -10l-20 -91l-125 5h-92z" />
    <glyph glyph-name="f" unicode="f" horiz-adv-x="397" 
d="M212 409l-17 -122h69l91 3l6 -10l-19 -91l-99 2l-62 -1l-4 -29l-15 -161h-122l23 150l39 355h321l6 -10l-20 -91l-125 5h-72z" />
    <glyph glyph-name="g" unicode="g" horiz-adv-x="511" 
d="M497 484l-45.999 -113h-10c-26 15.333 -48.333 26 -67 32s-39.667 9 -63 9c-50.667 0 -88.5 -15.5 -113.5 -46.5s-37.5 -80.833 -37.5 -149.5c0 -46 8 -78.833 24 -98.5s45.333 -29.5 88 -29.5c12 0 22.667 0.833008 32 2.5s20.666 5.16699 33.999 10.5l4 33l8 80l113 7
l-10 -67l-16 -129c-66.667 -22 -125.667 -33 -177 -33c-74.667 0 -131.334 19 -170.001 57s-58 94.333 -58 169c0 90.667 26.833 162.167 80.5 214.5s129.167 78.5 226.5 78.5c54.667 0 107.334 -9 158.001 -27z" />
    <glyph glyph-name="h" unicode="h" horiz-adv-x="593" 
d="M555 505l-49 -344l-15 -161h-122l24 150l5 51l-211 -1l-6 -39l-14 -161h-122l24 150l38 355h124l-29 -202l106 -1l101 1l22 202h124z" />
    <glyph glyph-name="i" unicode="i" horiz-adv-x="275" 
d="M181 161l-14 -161h-122l24 150l38 355h124z" />
    <glyph glyph-name="j" unicode="j" horiz-adv-x="314" 
d="M212 166l-6.99902 -71c-6 -44.667 -22.167 -80.5 -48.5 -107.5s-69.833 -52.167 -130.5 -75.5l-32 66l1 10c32 15.333 55.167 31 69.5 47s23.166 37 26.499 63l7 56l28 260l-87 -2l-7 8l19 85h208z" />
    <glyph glyph-name="k" unicode="k" horiz-adv-x="511" 
d="M317 264c46.667 -76.667 102.001 -155.999 166.001 -237.999l-5 -14c-42 -9.33301 -83 -16 -123 -20l-13 7c-54.667 89.333 -103.334 173.666 -146.001 252.999l-13 -91l-16 -161h-123l25 150l38 355h125l-33 -230l159 179l36 51h131z" />
    <glyph glyph-name="l" unicode="l" horiz-adv-x="383" 
d="M351 92l-20 -92h-289l25 150l38 355h124l-50 -344l-6 -60h172z" />
    <glyph glyph-name="m" unicode="m" horiz-adv-x="672" 
d="M597 0h-107l13 153l3 172h-7l-145 -274h-94l-64 274h-8l-39 -160l-30 -165h-103l116 505h141l10 -74l47 -222h8l107 220l31 76h138z" />
    <glyph glyph-name="n" unicode="n" horiz-adv-x="594" 
d="M505 158l-15 -158h-131l-162 320h-6l-19 -144l-18 -176h-110l24 148l39 357h130l163 -321h8l35 316l113 7z" />
    <glyph glyph-name="o" unicode="o" horiz-adv-x="552" 
d="M469.5 457c37 -36.667 55.5 -92.334 55.5 -167.001c0 -58 -11 -109.667 -33 -155s-54 -80.666 -96 -105.999s-92 -38 -150 -38c-68.667 0 -121.5 18.833 -158.5 56.5s-55.5 94.167 -55.5 169.5c0 58 11 109.167 33 153.5s54 79 96 104s92.333 37.5 151 37.5
c68 0 120.5 -18.333 157.5 -55zM194 368.5c-22.667 -29.667 -34 -79.167 -34 -148.5c0 -49.333 7.5 -83.833 22.5 -103.5s40.833 -29.5 77.5 -29.5c46 0 80.167 15 102.5 45s33.5 79.333 33.5 148c0 49.333 -7.33301 83.833 -22 103.5s-40.667 29.5 -78 29.5
c-45.333 0 -79.333 -14.833 -102 -44.5z" />
    <glyph glyph-name="p" unicode="p" horiz-adv-x="484" 
d="M429.5 466c30.333 -26 45.5 -62 45.5 -108c0 -37.333 -10.167 -71.5 -30.5 -102.5s-48.5 -55.333 -84.5 -73s-76 -26.5 -120 -26.5h-59l-15 -156h-122l24 150l39 355h201c50.667 0 91.167 -13 121.5 -39zM326 285c12.667 18 18.998 39.333 18.998 64
c0 22 -5.66699 38.333 -17 49s-29.666 16.667 -54.999 18l-55 -2l-24 -166l76 -3c24.667 8.66699 43.334 22 56.001 40z" />
    <glyph glyph-name="q" unicode="q" horiz-adv-x="553" 
d="M572 -81c-11.333 -17.333 -21.8311 -31.666 -31.498 -42.999s-20.834 -22 -33.501 -32l-10 -4c-88.667 35.333 -168.334 85.666 -239.001 150.999h-12c-68.667 0 -121.5 18.833 -158.5 56.5s-55.5 94.167 -55.5 169.5c0 58 11 109.167 33 153.5s54 79 96 104
s92.333 37.5 151 37.5c68 0 120.5 -18.333 157.5 -55s55.5 -92.334 55.5 -167.001c0 -65.333 -13.667 -122.166 -41 -170.499s-66.333 -83.5 -117 -105.5c61.333 -37.333 128.333 -65 201 -83zM182.502 116.5c15 -19.667 40.833 -29.5 77.5 -29.5c46 0 80.167 15 102.5 45
s33.5 79.333 33.5 148c0 49.333 -7.33301 83.833 -22 103.5s-40.667 29.5 -78 29.5c-45.333 0 -79.333 -14.833 -102 -44.5s-34 -79.167 -34 -148.5c0 -49.333 7.5 -83.833 22.5 -103.5z" />
    <glyph glyph-name="r" unicode="r" horiz-adv-x="513" 
d="M445.5 271c-20.333 -29.333 -48.5 -53.332 -84.5 -71.999c28.667 -53.333 63 -110 103 -170l-5 -14c-40.667 -12.667 -80.667 -20.334 -120 -23.001l-16 12c-28 63.333 -50 117 -66 161l-75 -1l-1 -3l-15 -161h-122l24 150l39 355h205c50.667 0 90.667 -12 120 -36
s44 -57.333 44 -100c0 -36 -10.167 -68.667 -30.5 -98zM195 258.001l76 -3.99805c49.333 16.667 74 49 74 97c0 21.333 -5.66699 37.166 -17 47.499s-29.333 16.166 -54 17.499l-56 -3z" />
    <glyph glyph-name="s" unicode="s" horiz-adv-x="436" 
d="M342.5 505c23.667 -4.66699 45.4971 -11.0029 65.4971 -19.0029l-30 -109l-19 -5c-18 15.333 -36.333 27 -55 35s-36.334 12 -53.001 12c-19.333 0 -34.666 -5 -45.999 -15s-17 -22 -17 -36c0 -13.333 6 -24.333 18 -33s30.667 -18.667 56 -30s46.333 -22.166 63 -32.499
s31 -24.333 43 -42s18 -39.5 18 -65.5c0 -29.333 -7.83301 -57.166 -23.5 -83.499s-39.5 -47.833 -71.5 -64.5s-71 -25 -117 -25c-24.667 0 -51.167 2.5 -79.5 7.5s-54.5 12.833 -78.5 23.5l28 115l14 8c19.333 -20 41.833 -35.833 67.5 -47.5s48.834 -17.5 69.501 -17.5
c19.333 0 35.5 5.33301 48.5 16s19.5 23.334 19.5 38.001c0 13.333 -6.16699 24.5 -18.5 33.5s-31.166 19.167 -56.499 30.5c-26 12 -47.167 23.167 -63.5 33.5s-30.5 24.333 -42.5 42s-18 39.5 -18 65.5c0 31.333 8.5 60 25.5 86s41.333 46.833 73 62.5
s68.5 23.5 110.5 23.5c22.667 0 45.834 -2.33301 69.501 -7z" />
    <glyph glyph-name="t" unicode="t" horiz-adv-x="437" 
d="M446 495l-19 -94l-99 6h-28l-34 -246l-15 -161h-122l24 150l29 257h-29l-102 -6l-7 9l20 95h377z" />
    <glyph glyph-name="u" unicode="u" horiz-adv-x="545" 
d="M485 248l-10.001 -77c-7.33301 -57.333 -30.666 -101.5 -69.999 -132.5s-93.333 -46.5 -162 -46.5c-61.333 0 -108.833 12.5 -142.5 37.5s-50.5 60.833 -50.5 107.5c0 10.667 1 22 3 34l11 79l29 255h122l-45 -316c-1.33301 -10.667 -2 -18 -2 -22
c0 -50.667 29 -76 87 -76c65.333 0 101.333 32.667 108 98l34 316h123z" />
    <glyph glyph-name="v" unicode="v" horiz-adv-x="507" 
d="M293 0h-147l-93 505h123l6 -73l51 -320h7l144 313l23 80h121z" />
    <glyph glyph-name="w" unicode="w" horiz-adv-x="757" 
d="M549 0h-130l-44 221h-7l-98 -221h-131l-78 505h120v-69l44 -309h7l113 257l-18 121h125l2 -81l47 -297h9l131 303l24 75h114z" />
    <glyph glyph-name="x" unicode="x" horiz-adv-x="525" 
d="M340 258l138 -258h-144l-18 54l-65 119l-100 -125l-30 -48h-128l201 254l-139 251h146l18 -55l61 -114l90 119l29 50h132z" />
    <glyph glyph-name="y" unicode="y" horiz-adv-x="488" 
d="M287 164l-5 -26l-13 -138h-122l23 138l3 26l-126 341h130l7 -37l60 -179h8l114 174l21 42h127z" />
    <glyph glyph-name="z" unicode="z" horiz-adv-x="473" 
d="M455 416l-291 -324h162l95 9l4 -6l-23 -98l-127 3h-201l-67 -3l11 87l294 327h-158l-91 -9l-3 7l21 97l385 -1z" />
    <glyph glyph-name="braceleft" unicode="{" horiz-adv-x="295" 
d="M329 648l3.99609 -10l-19 -66c-13.333 3.33301 -24.666 5 -33.999 5c-42.667 0 -64 -27 -64 -81c0 -11.333 1.33301 -29 4 -53c2.66699 -25.333 4 -42.666 4 -51.999c0 -28 -7 -52.167 -21 -72.5s-34.333 -36.166 -61 -47.499l-1 -5
c18.667 -9.33301 32.834 -21.833 42.501 -37.5s14.5 -33.167 14.5 -52.5c0 -11.333 -1.83301 -23.333 -5.5 -36s-9.16699 -28.667 -16.5 -48c-7.33301 -20.667 -12.666 -36.834 -15.999 -48.501s-5 -22.834 -5 -33.501c0 -34 16.333 -51 49 -51
c8.66699 0 20.667 1.66699 36 5l3 -66l-7 -9c-22 -6 -43.667 -9 -65 -9c-39.333 0 -69.333 8.66699 -90 26s-31 42.333 -31 75c0 16 1.83301 31.5 5.5 46.5s9.83398 35.833 18.501 62.5c6 18.667 10.667 33.834 14 45.501s5 22.5 5 32.5c0 36 -20.333 59.333 -61 70l7 60
c28 7.33301 48.5 19 61.5 35s19.5 38 19.5 66c0 8.66699 -0.666992 25 -2 49c-2 19.333 -3 38.666 -3 57.999c0 50 13 87.667 39 113s63.667 38 113 38c17.333 0 38 -3 62 -9z" />
    <glyph glyph-name="bar" unicode="|" horiz-adv-x="308" 
d="M274 794l-65 -504l-66 -543l-90 -7l-8 12l65 529l64 514l92 8z" />
    <glyph glyph-name="braceright" unicode="}" horiz-adv-x="295" 
d="M-25 -111l-3.99609 10.001l19 66c13.333 -3.33301 24.666 -5 33.999 -5c42.667 0 64 27 64 81c0 11.333 -1.33301 29 -4 53c-2.66699 25.333 -4 42.666 -4 51.999c0 28 7 52.167 21 72.5s34.333 36.166 61 47.499l1 5c-18.667 9.33301 -32.834 21.833 -42.501 37.5
s-14.5 33.167 -14.5 52.5c0 11.333 1.83301 23.333 5.5 36s9.16699 28.667 16.5 48c7.33301 20.667 12.666 36.834 15.999 48.501s5 22.834 5 33.501c0 34 -16.333 51 -49 51c-8.66699 0 -20.667 -1.66699 -36 -5l-3 66l7 9c22 6 43.667 9 65 9
c39.333 0 69.333 -8.66699 90 -26s31 -42.333 31 -75c0 -16 -1.83301 -31.5 -5.5 -46.5s-9.83398 -35.833 -18.501 -62.5c-6 -18.667 -10.667 -33.834 -14 -45.501s-5 -22.5 -5 -32.5c0 -36 20.333 -59.333 61 -70l-7 -60c-28 -7.33301 -48.5 -19 -61.5 -35
s-19.5 -38 -19.5 -66c0 -8.66699 0.666992 -25 2 -49c2 -18.667 3 -38 3 -58c0 -50 -13 -87.667 -39 -113s-63.667 -38 -113 -38c-17.333 0 -38 3 -62 9z" />
    <glyph glyph-name="asciitilde" unicode="~" horiz-adv-x="480" 
d="M125 228.5c-8.66699 -6.33301 -21.335 -17.167 -38.002 -32.5l-15 -14h-12l-30 43l2 12l93 91l13 6c18 -3.33301 49 -12 93 -26c58 -18 93.667 -27 107 -27c8 0 16.5 3.16699 25.5 9.5s18.833 14.333 29.5 24l24 21.5h12l28 -42l-1 -12l-92 -92l-14 -4
c-17.333 2 -52.333 11.333 -105 28c-19.333 6 -38.166 11.5 -56.499 16.5s-31.166 7.5 -38.499 7.5c-8 0 -16.333 -3.16699 -25 -9.5z" />
    <glyph glyph-name="uni00A0" unicode="&#xa0;" horiz-adv-x="133" 
 />
    <glyph glyph-name="exclamdown" unicode="&#xa1;" horiz-adv-x="233" 
d="M96.5 403c-10.333 10.667 -15.5 25.666 -15.5 44.999c0 20 5.66699 35.833 17 47.5s27 17.5 47 17.5c19.333 0 34.166 -5.16699 44.499 -15.5s15.5 -25.166 15.5 -44.499c0 -20 -5.83301 -36 -17.5 -48s-27.167 -18 -46.5 -18s-34.166 5.33301 -44.499 16zM19 7.99902
l64 314l73 9l12 -12l-32 -306l-12 -15l-91 -5z" />
    <glyph glyph-name="cent" unicode="&#xa2;" horiz-adv-x="388" 
d="M164.5 376c-21.667 -34 -32.5 -81.667 -32.5 -143c0 -38 4.83301 -65.5 14.5 -82.5s24.834 -25.5 45.501 -25.5c34.667 0 67.667 26.667 99 80l15 -1l36 -45c-18 -29.333 -36.833 -53 -56.5 -71s-41.834 -32.333 -66.501 -43l-27 -168h-64l-7 11l22 150
c-39.333 9.33301 -68.166 27.5 -86.499 54.5s-27.5 67.167 -27.5 120.5c0 72.667 15.833 135 47.5 187s78.5 85.667 140.5 101l23 154h63l11 -10l-21 -135l77 -22l6 -13l-30 -81l-23 -2c-12.667 12.667 -24.167 21.667 -34.5 27s-21.5 8 -33.5 8
c-38.667 0 -68.834 -17 -90.501 -51z" />
    <glyph glyph-name="sterling" unicode="&#xa3;" horiz-adv-x="447" 
d="M453 579l-16.998 -93.001l-9 -6c-38 21.333 -72.667 32 -104 32c-52 0 -81.333 -26.333 -88 -79l-12 -90h127l4 -7l-14 -63h-126l-12 -88c-2.66699 -22.667 -7.83398 -41.167 -15.501 -55.5s-19.167 -27.166 -34.5 -38.499v-3h145l100 7l4 -7l-20 -91l-123 3h-260l-4 7
l13 70c26 6 46 17 60 33s22.667 38.333 26 67l11 96h-72l-3 7l13 63h71l8 71c6.66699 58 29 102.667 67 134s89 47 153 47c33.333 0 70.666 -5.33301 111.999 -16z" />
    <glyph glyph-name="currency" unicode="&#xa4;" horiz-adv-x="435" 
d="M453 501l-1.99805 -11.999l-76 -62c8.66699 -16.667 13 -37.334 13 -62.001c0 -32 -10 -61 -30 -87l63 -60v-12l-63 -59l-12 1l-53 68c-25.333 -15.333 -52.333 -23 -81 -23c-26.667 0 -50.334 7 -71.001 21l-67 -69l-12 -1l-53 56l3 12l75 61
c-9.33301 17.333 -14 38 -14 62c0 30 10.333 59.667 31 89l-61 59v12l63 59l11 -1l54 -69c25.333 14.667 51.666 22 78.999 22c26.667 0 49.667 -6.66699 69 -20l69 70l13 1zM172.502 408.501c-19 -18.333 -28.5 -41.167 -28.5 -68.5c0 -23.333 7 -42 21 -56
s32.333 -21 55 -21c28 0 51.5 9.16699 70.5 27.5s28.5 41.5 28.5 69.5c0 22.667 -7.16699 41 -21.5 55s-32.833 21 -55.5 21c-27.333 0 -50.5 -9.16699 -69.5 -27.5z" />
    <glyph glyph-name="yen" unicode="&#xa5;" horiz-adv-x="551" 
d="M519 308l5 -6l-11 -54h-143l-53 -77h184l6 -6l-10 -53h-193l-10 -112h-110l18 112h-173l-5 6l10 53h173l-31 77h-131l-4 7l10 53h101l-78 195h117l8 -35l74 -188h8l131 184l21 39h114l-135 -195h107z" />
    <glyph glyph-name="brokenbar" unicode="&#xa6;" horiz-adv-x="308" 
d="M274 794l-54 -417l-90 -11l-8 8l51 421l93 8zM192 149l-49 -402l-89 -7l-9 12l49 398l89 10z" />
    <glyph glyph-name="section" unicode="&#xa7;" horiz-adv-x="420" 
d="M216.5 484.5c11.667 -9.66699 30.833 -22.498 57.5 -38.498s48.167 -30 64.5 -42s30.5 -27.167 42.5 -45.5s18 -39.166 18 -62.499c0 -30.667 -10.167 -59.167 -30.5 -85.5s-47.5 -47.166 -81.5 -62.499c29.333 -28 44 -58.333 44 -91c0 -28 -9 -54 -27 -78
s-42.333 -43 -73 -57s-64.667 -21 -102 -21c-22.667 0 -47.667 2.83301 -75 8.5s-51.333 12.834 -72 21.501l27 99l12 8c18.667 -18 39.667 -32.167 63 -42.5s45 -15.5 65 -15.5c22 0 39.833 5.5 53.5 16.5s20.5 23.167 20.5 36.5c0 12.667 -6.16699 24.167 -18.5 34.5
s-31.5 23.166 -57.5 38.499c-26 14.667 -47.333 28.167 -64 40.5s-31 27.666 -43 45.999s-18 39.166 -18 62.499c0 30.667 10 59.667 30 87s47 48.666 81 63.999c-28.667 26.667 -43 56.334 -43 89.001c0 28 9 54 27 78s42.333 43 73 57s64.667 21 102 21
c19.333 0 40 -2 62 -6s41.667 -9.66699 59 -17l-26 -95l-16 -5c-18.667 13.333 -37 23.5 -55 30.5s-34.667 10.5 -50 10.5c-19.333 0 -35.333 -5.33301 -48 -16s-19 -22.334 -19 -35.001s5.83301 -23.834 17.5 -33.501zM289.999 264.002c0 18.667 -7.5 34.501 -22.5 47.501
s-38.833 29.5 -71.5 49.5c-21.333 -10 -37.5 -21.333 -48.5 -34s-16.5 -26 -16.5 -40c0 -12.667 4.16699 -24.167 12.5 -34.5s18 -19.333 29 -27s28.833 -19.167 53.5 -34.5c42.667 19.333 64 43.666 64 72.999z" />
    <glyph glyph-name="dieresis" unicode="&#xa8;" horiz-adv-x="392" 
d="M200 662.5c10 -10.333 15.001 -24.499 15.001 -42.499c0 -20 -5.5 -35.667 -16.5 -47s-26.167 -17 -45.5 -17c-18.667 0 -33 5 -43 15s-15 24.667 -15 44s5.66699 34.666 17 45.999s26.666 17 45.999 17c18 0 32 -5.16699 42 -15.5zM377.501 662.501
c10.333 -10.333 15.499 -24.499 15.499 -42.499c0 -20 -5.66699 -35.667 -17 -47s-26.666 -17 -45.999 -17c-18.667 0 -33 5.16699 -43 15.5s-15 24.833 -15 43.5c0 19.333 5.5 34.666 16.5 45.999s26.167 17 45.5 17c18.667 0 33.167 -5.16699 43.5 -15.5z" />
    <glyph glyph-name="copyright" unicode="&#xa9;" horiz-adv-x="693" 
d="M510 560c45.333 -25.333 80.5 -61 105.5 -107s37.5 -99.333 37.5 -160s-12.5 -114 -37.5 -160s-60.167 -81.667 -105.5 -107s-97.666 -38 -156.999 -38s-111.5 12.667 -156.5 38s-80 61 -105 107s-37.5 99.333 -37.5 160s12.5 114 37.5 160s60 81.667 105 107
s97.167 38 156.5 38s111.666 -12.667 156.999 -38zM220.5 520c-38.333 -21.333 -68 -51.666 -89 -90.999s-31.5 -84.666 -31.5 -135.999s10.5 -96.666 31.5 -135.999s50.667 -69.666 89 -90.999s82.5 -32 132.5 -32s94.333 10.667 133 32s68.5 51.666 89.5 90.999
s31.5 84.666 31.5 135.999s-10.5 96.666 -31.5 135.999s-50.833 69.666 -89.5 90.999s-83 32 -133 32s-94.167 -10.667 -132.5 -32zM464 448l-16.0029 -69l-5 -3c-9.33301 5.33301 -20.666 9.5 -33.999 12.5s-25.666 4.5 -36.999 4.5
c-26.667 0 -46.334 -7.16699 -59.001 -21.5s-19 -37.5 -19 -69.5c0 -68.667 27 -103 81 -103c26.667 0 51.334 4.66699 74.001 14l8 -3l-7 -69c-25.333 -9.33301 -52.333 -14 -81 -14c-55.333 0 -96.833 14.167 -124.5 42.5s-41.5 69.5 -41.5 123.5c0 54.667 15 97 45 127
s72.333 45 127 45c28.667 0 58.334 -5.66699 89.001 -17z" />
    <glyph glyph-name="ordfeminine" unicode="&#xaa;" horiz-adv-x="323" 
d="M333 645l-33 -241.003l-4 -73l-84 -6l15 116h-9c-26.667 -51.333 -53.667 -90.666 -81 -117.999h-13c-27.333 9.33301 -46.333 22.333 -57 39s-16 39.334 -16 68.001c0 50 13.667 95.333 41 136s67 67.334 119 80.001h5l56 -8l53 12zM184.5 437.997
c17 25.333 35.499 59.999 55.499 103.999l3 25l1 9l-45 9c-22 -0.666992 -39 -12.167 -51 -34.5s-18 -51.5 -18 -87.5c0 -21.333 1.83301 -37.166 5.5 -47.499s7.83398 -15.5 12.501 -15.5c7.33301 0 19.5 12.667 36.5 38z" />
    <glyph glyph-name="guillemotleft" unicode="&#xab;" horiz-adv-x="427" 
d="M236 220l3 21l157 173l57 -33l1 -13l-122 -141l88 -141l-4 -12l-65 -33zM53 220l3 21l157 173l57 -33l1 -13l-122 -141l88 -141l-4 -12l-65 -33z" />
    <glyph glyph-name="logicalnot" unicode="&#xac;" horiz-adv-x="480" 
d="M439 297l-30 -246l-79 -7l-9 9l20 164h-311l-8 9l17 79h395z" />
    <glyph glyph-name="uni00AD" unicode="&#xad;" horiz-adv-x="304" 
d="M285 308l-9 -81l-243 -36l-9 10l10 81l242 35z" />
    <glyph glyph-name="registered" unicode="&#xae;" horiz-adv-x="445" 
d="M358 651c34 -34 51 -78.667 51 -134c0 -56 -17 -101.167 -51 -135.5s-79 -51.5 -135 -51.5s-101 17.167 -135 51.5s-51 79.5 -51 135.5c0 55.333 17 100 51 134s79 51 135 51s101 -17 135 -51zM334 405.5c28 28.333 42.001 65.5 42.001 111.5s-14 82.833 -42 110.5
s-65 41.5 -111 41.5s-83 -13.833 -111 -41.5s-42 -64.5 -42 -110.5s14.167 -83.167 42.5 -111.5s65.166 -42.5 110.499 -42.5c46 0 83 14.167 111 42.5zM294.501 528c-6.33301 -10 -15.499 -18.668 -27.499 -26.001c13.333 -19.333 30 -41.333 50 -66l-1 -5
c-8.66699 -3.33301 -24.334 -6.33301 -47.001 -9l-6 4c-12.667 20.667 -24.667 41.667 -36 63h-31v-1l3 -62h-48l2 57l-2 137l84 1c22 0 39 -5.16699 51 -15.5s18 -25.166 18 -44.499c0 -12 -3.16699 -23 -9.5 -33zM197.002 525.999l32 -1.99805
c8.66699 3.33301 15 7.66602 19 12.999s6 12 6 20c0 9.33301 -2.83301 16.166 -8.5 20.499s-14.5 6.83301 -26.5 7.5l-20 -1z" />
    <glyph glyph-name="macron" unicode="&#xaf;" horiz-adv-x="386" 
d="M388 650l-6 -73h-281l-8 9l7 73h280z" />
    <glyph glyph-name="degree" unicode="&#xb0;" horiz-adv-x="293" 
d="M280.5 619c21.667 -22 32.498 -49.333 32.498 -82c0 -26 -6.83301 -49.833 -20.5 -71.5s-31.667 -39 -54 -52s-46.166 -19.5 -71.499 -19.5c-33.333 0 -61 11.167 -83 33.5s-33 49.833 -33 82.5c0 25.333 6.83301 48.833 20.5 70.5s31.834 39 54.501 52
s46.667 19.5 72 19.5c33.333 0 60.833 -11 82.5 -33zM132.498 572.5c-16.333 -15.667 -24.5 -34.5 -24.5 -56.5c0 -18.667 6.16699 -34.167 18.5 -46.5s27.833 -18.5 46.5 -18.5c22.667 0 42.167 7.83301 58.5 23.5s24.5 34.5 24.5 56.5
c0 18.667 -6.16699 34.167 -18.5 46.5s-27.833 18.5 -46.5 18.5c-22.667 0 -42.167 -7.83301 -58.5 -23.5z" />
    <glyph glyph-name="plusminus" unicode="&#xb1;" horiz-adv-x="478" 
d="M312 468l-21 -163h163l8 -9l-16 -79h-165l-20 -166l-80 -7l-9 9l20 164h-163l-7 9l16 79h165l20 166l80 6zM419 -35l-7 -79h-417l-9 9l7 79h417z" />
    <glyph glyph-name="uni00B2" unicode="&#xb2;" horiz-adv-x="360" 
d="M317.5 681.5c21.667 -15.667 32.4971 -36.501 32.4971 -62.501c0 -20 -7.66699 -41.667 -23 -65s-41.666 -54.333 -78.999 -93l-62 -65l2 -3h96l68 5l4 -7l-20 -79l-93 4h-167l-27 -1l-5 3l7 60l108 103c30.667 30 52.334 52.833 65.001 68.5s19 30.167 19 43.5
c0 8.66699 -3.33301 15.834 -10 21.501s-15.667 8.5 -27 8.5c-14.667 0 -31.167 -4.16699 -49.5 -12.5s-35.5 -19.5 -51.5 -33.5h-11l-9 76c54 34.667 104.333 52 151 52c32.667 0 59.834 -7.83301 81.501 -23.5z" />
    <glyph glyph-name="uni00B3" unicode="&#xb3;" horiz-adv-x="320" 
d="M287.5 682c23 -16 34.501 -36.667 34.501 -62c0 -18 -6 -35.833 -18 -53.5s-30.667 -32.167 -56 -43.5l-1 -4c42.667 -12 64 -38.333 64 -79c0 -38.667 -17.833 -70 -53.5 -94s-82.167 -36 -139.5 -36c-26.667 0 -51.667 2.66699 -75 8l3 71l7 6
c28 -7.33301 53 -11 75 -11c26 0 46.5 4.66699 61.5 14s22.5 21.666 22.5 36.999c0 23.333 -16.667 35.666 -50 36.999h-50l-5 6l9 67l32 1c18 0.666992 33.833 5.83398 47.5 15.501s20.5 21.834 20.5 36.501c0 20 -13.667 30 -41 30c-20.667 0 -48 -9 -82 -27h-11l-8 67
c43.333 25.333 85.666 38 126.999 38c34.667 0 63.5 -8 86.5 -24z" />
    <glyph glyph-name="acute" unicode="&#xb4;" horiz-adv-x="379" 
d="M309 721l47 -70l-2 -12c-74.667 -48 -139 -87.667 -193 -119l-12 1l-32 49c63.333 49.333 123.333 100 180 152z" />
    <glyph glyph-name="uni00B5" unicode="&#xb5;" horiz-adv-x="672" 
d="M597 0h-107l13 153l3 172h-7l-145 -274h-94l-64 274h-8l-39 -160l-30 -165h-103l116 505h141l10 -74l47 -222h8l107 220l31 76h138z" />
    <glyph glyph-name="paragraph" unicode="&#xb6;" horiz-adv-x="521" 
d="M552 633l-20 -89h-68l-47 -348l-6 -60c-6.66699 -51.333 -26.334 -94 -59.001 -128s-85.667 -65 -159 -93l-28 59l2 13c39.333 20 68.333 41.167 87 63.5s29.667 48.833 33 79.5l7 50l41 365h-47c-32 -5.33301 -56.667 -19.833 -74 -43.5s-26 -54.167 -26 -91.5
c0 -28 6.66699 -53.333 20 -76s33 -40.667 59 -54l-53 -67c-53.333 12.667 -94.166 35.5 -122.499 68.5s-42.5 74.167 -42.5 123.5c0 74 24.667 132.167 74 174.5s117 63.5 203 63.5h218z" />
    <glyph glyph-name="periodcentered" unicode="&#xb7;" horiz-adv-x="230" 
d="M168 303.5c11.333 -11.667 16.999 -27.833 16.999 -48.5c0 -22.667 -6.33301 -40.5 -19 -53.5s-29.667 -19.5 -51 -19.5s-37.666 5.83301 -48.999 17.5s-17 28.167 -17 49.5c0 22 6.33301 39.5 19 52.5s30 19.5 52 19.5c20.667 0 36.667 -5.83301 48 -17.5z" />
    <glyph glyph-name="cedilla" unicode="&#xb8;" horiz-adv-x="383" 
d="M160 -48l34.001 -19c14.667 -8 25.167 -16.833 31.5 -26.5s9.5 -20.5 9.5 -32.5c0 -22 -8.66699 -40 -26 -54s-40 -21 -68 -21c-30 0 -57 9.66699 -81 29l9 55l6 2c21.333 -20 40.666 -30 57.999 -30c16.667 0 25 7.33301 25 22c0 4.66699 -1.33301 8.5 -4 11.5
s-7 5.83301 -13 8.5l-49 28l23 100h63z" />
    <glyph glyph-name="uni00B9" unicode="&#xb9;" horiz-adv-x="274" 
d="M256 696l-34 -243l-13 -137h-103l19 126l18 152l-84 -17l-6 5l10 78l181 46z" />
    <glyph glyph-name="ordmasculine" unicode="&#xba;" horiz-adv-x="309" 
d="M228 649c58.667 -10.667 88.001 -48 88.001 -112s-15 -115 -45 -153s-71.333 -58.667 -124 -62l-8 2c-28 4 -49.667 15.667 -65 35s-23 46.333 -23 81c0 60.667 15.167 110 45.5 148s71.166 58.333 122.499 61h9zM132.001 439c0 -20.667 2.5 -35.167 7.5 -43.5
s13.167 -12.5 24.5 -12.5c24.667 0 42.5 12.5 53.5 37.5s16.5 61.833 16.5 110.5c0 20 -2.16699 34.167 -6.5 42.5s-11.833 12.5 -22.5 12.5c-48.667 0 -73 -49 -73 -147z" />
    <glyph glyph-name="guillemotright" unicode="&#xbb;" horiz-adv-x="427" 
d="M373 237l-3 -21l-157 -173l-57 33l-1 13l122 141l-88 141l4 12l65 33zM190 237l-3 -21l-157 -173l-57 33l-1 13l122 141l-88 141l4 12l65 33z" />
    <glyph glyph-name="onequarter" unicode="&#xbc;" horiz-adv-x="743" 
d="M249 639l-34 -243l-13 -137h-103l19 126l18 152l-84 -17l-6 5l10 78l181 46zM635 653l6 -18l-558 -727l-51 33l-4 14l558 730zM694 86l-54 2l-5 -81l-7 -7l-81 -4l-4 5l13 88h-104l-65 -3l-5 8l7 63l194 228h94l-29 -221h54l5 -9zM478 164h88l14 112h-6z" />
    <glyph glyph-name="onehalf" unicode="&#xbd;" horiz-adv-x="764" 
d="M249 639l-34 -243l-13 -137h-103l19 126l18 152l-84 -17l-6 5l10 78l181 46zM635 653l6 -18l-558 -727l-51 33l-4 14l558 730zM682.5 365.5c21.667 -15.667 32.4971 -36.501 32.4971 -62.501c0 -20 -7.66699 -41.667 -23 -65s-41.666 -54.333 -78.999 -93l-62 -65l2 -3
h96l68 5l4 -7l-20 -79l-93 4h-167l-27 -1l-5 3l7 60l108 103c30.667 30 52.334 52.833 65.001 68.5s19 30.167 19 43.5c0 8.66699 -3.33301 15.834 -10 21.501s-15.667 8.5 -27 8.5c-14.667 0 -31.167 -4.16699 -49.5 -12.5s-35.5 -19.5 -51.5 -33.5h-11l-9 76
c54 34.667 104.333 52 151 52c32.667 0 59.834 -7.83301 81.501 -23.5z" />
    <glyph glyph-name="threequarters" unicode="&#xbe;" horiz-adv-x="782" 
d="M280.5 625c23 -16 34.501 -36.667 34.501 -62c0 -18 -6 -35.833 -18 -53.5s-30.667 -32.167 -56 -43.5l-1 -4c42.667 -12 64 -38.333 64 -79c0 -38.667 -17.833 -70 -53.5 -94s-82.167 -36 -139.5 -36c-26.667 0 -51.667 2.66699 -75 8l3 71l7 6
c28 -7.33301 53 -11 75 -11c26 0 46.5 4.66699 61.5 14s22.5 21.666 22.5 36.999c0 23.333 -16.667 35.666 -50 36.999h-50l-5 6l9 67l32 1c18 0.666992 33.833 5.83398 47.5 15.501s20.5 21.834 20.5 36.501c0 20 -13.667 30 -41 30c-20.667 0 -48 -9 -82 -27h-11l-8 67
c43.333 25.333 85.666 38 126.999 38c34.667 0 63.5 -8 86.5 -24zM674.001 653l6 -18l-558 -727l-51 33l-4 14l558 730zM733.001 86l-54 2l-5 -81l-7 -7l-81 -4l-4 5l13 88h-104l-65 -3l-5 8l7 63l194 228h94l-29 -221h54l5 -9zM517.001 164h88l14 112h-6z" />
    <glyph glyph-name="questiondown" unicode="&#xbf;" horiz-adv-x="287" 
d="M149.5 407c-10.333 10.667 -15.5 25.333 -15.5 44c0 19.333 5.83301 34.833 17.5 46.5s27.167 17.5 46.5 17.5s34 -5 44 -15s15 -24.667 15 -44c0 -20 -5.66699 -35.833 -17 -47.5s-27 -17.5 -47 -17.5c-18.667 0 -33.167 5.33301 -43.5 16zM36.5 29.999
c-38.333 21.333 -57.502 50.6699 -57.502 88.0029c0 23.333 7.83301 46.166 23.5 68.499s37.834 39.833 66.501 52.5l62 29l3 4l4 54l79 11l9 -9l-2 -86l-4 -10l-70 -35c-34.667 -16 -53 -36 -55 -60c-2.66699 -17.333 6.33301 -30.333 27 -39s57.667 -14.334 111 -17.001
l10 -12l-31 -69l-11 -7c-71.333 3.33301 -126.166 15.666 -164.499 36.999z" />
    <glyph glyph-name="Agrave" unicode="&#xc0;" horiz-adv-x="583" 
d="M539 0h-133l-6 83l-9 63l-121 2l-107 -2l-24 -56l-29 -90h-130l291 643h157zM376 248l-40 271h-9l-118 -270l82 -2zM465 775l-21 -54l-13 -4c-86.667 30 -157.667 56 -213 78l-4 12l33 77l12 3c64 -38 132.667 -75.333 206 -112z" />
    <glyph glyph-name="Aacute" unicode="&#xc1;" horiz-adv-x="583" 
d="M539 0h-133l-6 83l-9 63l-121 2l-107 -2l-24 -56l-29 -90h-130l291 643h157zM376 248l-40 271h-9l-118 -270l82 -2zM459 884l32.999 -77l-4 -12c-59.333 -23.333 -130.666 -49.333 -213.999 -78l-13 4l-21 54c72 36 141 73.333 207 112z" />
    <glyph glyph-name="Acircumflex" unicode="&#xc2;" horiz-adv-x="583" 
d="M539 0h-133l-6 83l-9 63l-121 2l-107 -2l-24 -56l-29 -90h-130l291 643h157zM376 248l-40 271h-9l-118 -270l82 -2zM216 771c48.667 31.333 94.667 65.667 138 103h27c34.667 -32.667 77 -67 127 -103l-30 -52h-13c-50 30.667 -83.333 51.667 -100 63
c-10.667 -6 -35.667 -19.333 -75 -40l-43 -23h-14z" />
    <glyph glyph-name="Atilde" unicode="&#xc3;" horiz-adv-x="583" 
d="M539 0h-133l-6 83l-9 63l-121 2l-107 -2l-24 -56l-29 -90h-130l291 643h157zM376 248l-40 271h-9l-118 -270l82 -2zM538 840l-0.00195312 -11l-70 -88l-12 -5c-13.333 2 -41 8.66699 -83 20c-3.33301 0.666992 -14.166 3.5 -32.499 8.5s-31.166 7.5 -38.499 7.5
s-14.666 -3.16699 -21.999 -9.5s-15 -14 -23 -23l-17 -19.5h-12l-38 39v11l69 88l13 4c10.667 -1.33301 25 -4.33301 43 -9s31.667 -8 41 -10c35.333 -10.667 58.666 -16 69.999 -16c8 0 15.667 3.16699 23 9.5s14.833 14 22.5 23s13.167 15.167 16.5 18.5h12z" />
    <glyph glyph-name="Adieresis" unicode="&#xc4;" horiz-adv-x="583" 
d="M539 0h-133l-6 83l-9 63l-121 2l-107 -2l-24 -56l-29 -90h-130l291 643h157zM376 248l-40 271h-9l-118 -270l82 -2zM320 841.5c10 -10.333 15.001 -24.499 15.001 -42.499c0 -20 -5.5 -35.667 -16.5 -47s-26.167 -17 -45.5 -17c-18.667 0 -33 5 -43 15s-15 24.667 -15 44
s5.66699 34.666 17 45.999s26.666 17 45.999 17c18 0 32 -5.16699 42 -15.5zM497.501 841.501c10.333 -10.333 15.499 -24.499 15.499 -42.499c0 -20 -5.66699 -35.667 -17 -47s-26.666 -17 -45.999 -17c-18.667 0 -33 5.16699 -43 15.5s-15 24.833 -15 43.5
c0 19.333 5.5 34.666 16.5 45.999s26.167 17 45.5 17c18.667 0 33.167 -5.16699 43.5 -15.5z" />
    <glyph glyph-name="Aring" unicode="&#xc5;" horiz-adv-x="583" 
d="M539 0h-133l-6 83l-9 63l-121 2l-107 -2l-24 -56l-29 -90h-130l291 643h157zM376 248l-40 271h-9l-118 -270l82 -2zM436 878c16 -16 24 -38.333 24 -67c0 -31.333 -8.83301 -55.5 -26.5 -72.5s-41.5 -25.5 -71.5 -25.5c-28.667 0 -51.167 8.16699 -67.5 24.5
s-24.5 39.5 -24.5 69.5s8.33301 53.333 25 70s40.667 25 72 25c30 0 53 -8 69 -24zM324 809c0 -27.333 13.667 -41 41 -41s41 12.667 41 38c0 26.667 -14 40 -42 40c-26.667 0 -40 -12.333 -40 -37z" />
    <glyph glyph-name="AE" unicode="&#xc6;" horiz-adv-x="798" 
d="M774 99l-21 -99h-377l5 83l1 140l-212 -55l-45 -78l-39 -90h-131l380 643h427l6 -10l-21 -99l-151 5h-85l-2 -183l195 49l9 -8l-1 -93l-204 -48l-1 -153h100l160 6zM382 323l1 196h-8l-136 -233z" />
    <glyph glyph-name="Ccedilla" unicode="&#xc7;" horiz-adv-x="507" 
d="M541 613l-37.002 -112l-11 -4c-18 14.667 -38.167 26 -60.5 34s-45.833 12 -70.5 12c-60.667 0 -106.667 -22.333 -138 -67s-47 -110 -47 -196c0 -58.667 11.5 -103 34.5 -133s56.5 -45 100.5 -45c24 0 49.333 3.83301 76 11.5s51 18.5 73 32.5l11 -7l-25 -113
c-26.667 -12 -52.167 -20.833 -76.5 -26.5s-50.166 -8.5 -77.499 -8.5c-82 0 -145.167 23.167 -189.5 69.5s-66.5 112.5 -66.5 198.5c0 81.333 13.333 151.333 40 210s65.334 103.667 116.001 135s111.667 47 183 47c63.333 0 118.333 -12.667 165 -38zM329.998 -48
l34.001 -19c14.667 -8 25.167 -16.833 31.5 -26.5s9.5 -20.5 9.5 -32.5c0 -22 -8.66699 -40 -26 -54s-40 -21 -68 -21c-30 0 -57 9.66699 -81 29l9 55l6 2c21.333 -20 40.666 -30 57.999 -30c16.667 0 25 7.33301 25 22c0 4.66699 -1.33301 8.5 -4 11.5s-7 5.83301 -13 8.5
l-49 28l23 100h63z" />
    <glyph glyph-name="Egrave" unicode="&#xc8;" horiz-adv-x="497" 
d="M248 538l-22 -159l107 -1l102 3l7 -10l-22 -99l-110 3l-99 -1l-10 -70l-10 -99l111 -1l154 5l5 -10l-20 -99h-393l31 192l50 451h396l6 -10l-22 -99l-149 5zM441 775l-21 -54l-13 -4c-86.667 30 -157.667 56 -213 78l-4 12l33 77l12 3c64 -38 132.667 -75.333 206 -112z
" />
    <glyph glyph-name="Eacute" unicode="&#xc9;" horiz-adv-x="497" 
d="M248 538l-22 -159l107 -1l102 3l7 -10l-22 -99l-110 3l-99 -1l-10 -70l-10 -99l111 -1l154 5l5 -10l-20 -99h-393l31 192l50 451h396l6 -10l-22 -99l-149 5zM435 884l32.999 -77l-4 -12c-59.333 -23.333 -130.666 -49.333 -213.999 -78l-13 4l-21 54
c72 36 141 73.333 207 112z" />
    <glyph glyph-name="Ecircumflex" unicode="&#xca;" horiz-adv-x="497" 
d="M248 538l-22 -159l107 -1l102 3l7 -10l-22 -99l-110 3l-99 -1l-10 -70l-10 -99l111 -1l154 5l5 -10l-20 -99h-393l31 192l50 451h396l6 -10l-22 -99l-149 5zM192 771c48.667 31.333 94.667 65.667 138 103h27c34.667 -32.667 77 -67 127 -103l-30 -52h-13
c-50 30.667 -83.333 51.667 -100 63c-10.667 -6 -35.667 -19.333 -75 -40l-43 -23h-14z" />
    <glyph glyph-name="Edieresis" unicode="&#xcb;" horiz-adv-x="497" 
d="M248 538l-22 -159l107 -1l102 3l7 -10l-22 -99l-110 3l-99 -1l-10 -70l-10 -99l111 -1l154 5l5 -10l-20 -99h-393l31 192l50 451h396l6 -10l-22 -99l-149 5zM296 841.5c10 -10.333 15.001 -24.499 15.001 -42.499c0 -20 -5.5 -35.667 -16.5 -47s-26.167 -17 -45.5 -17
c-18.667 0 -33 5 -43 15s-15 24.667 -15 44s5.66699 34.666 17 45.999s26.666 17 45.999 17c18 0 32 -5.16699 42 -15.5zM473.501 841.501c10.333 -10.333 15.499 -24.499 15.499 -42.499c0 -20 -5.66699 -35.667 -17 -47s-26.666 -17 -45.999 -17
c-18.667 0 -33 5.16699 -43 15.5s-15 24.833 -15 43.5c0 19.333 5.5 34.666 16.5 45.999s26.167 17 45.5 17c18.667 0 33.167 -5.16699 43.5 -15.5z" />
    <glyph glyph-name="Igrave" unicode="&#xcc;" horiz-adv-x="289" 
d="M200 204l-19 -204h-133l31 192l49 451h134zM314 775l-21 -54l-13 -4c-86.667 30 -157.667 56 -213 78l-4 12l33 77l12 3c64 -38 132.667 -75.333 206 -112z" />
    <glyph glyph-name="Iacute" unicode="&#xcd;" horiz-adv-x="289" 
d="M200 204l-19 -204h-133l31 192l49 451h134zM308 884l32.999 -77l-4 -12c-59.333 -23.333 -130.666 -49.333 -213.999 -78l-13 4l-21 54c72 36 141 73.333 207 112z" />
    <glyph glyph-name="Icircumflex" unicode="&#xce;" horiz-adv-x="289" 
d="M200 204l-19 -204h-133l31 192l49 451h134zM65 771c48.667 31.333 94.667 65.667 138 103h27c34.667 -32.667 77 -67 127 -103l-30 -52h-13c-50 30.667 -83.333 51.667 -100 63c-10.667 -6 -35.667 -19.333 -75 -40l-43 -23h-14z" />
    <glyph glyph-name="Eth" unicode="&#xd0;" horiz-adv-x="668" 
d="M588.5 581.5c44.333 -43.667 66.5 -105.5 66.5 -185.5c0 -126 -30.667 -224.667 -92 -296s-148.666 -107 -261.999 -107c-31.333 0 -69 0.666992 -113 2s-81.333 3 -112 5l31 192l49 451l244 4c81.333 0 144.166 -21.833 188.499 -65.5zM467.5 164.5
c32.333 46.333 48.502 116.5 48.502 210.5c0 57.333 -10.833 99.5 -32.5 126.5s-54.834 40.5 -99.501 40.5c-26 0 -62.333 -1.33301 -109 -4l-48 -334l-9 -101c18 -2 37.833 -3.83301 59.5 -5.5s39.167 -2.5 52.5 -2.5c59.333 0 105.166 23.167 137.499 69.5zM373.678 354
l-10.3906 -79h-333.905l-4.84961 10l11.084 79h333.213z" />
    <glyph glyph-name="Ntilde" unicode="&#xd1;" horiz-adv-x="678" 
d="M590 198l-19 -198h-142l-200 441h-9l-28 -220l-22 -221h-121l30 190l50 453h142l200 -441h9l51 436l123 8zM584 840l-0.00195312 -11l-70 -88l-12 -5c-13.333 2 -41 8.66699 -83 20c-3.33301 0.666992 -14.166 3.5 -32.499 8.5s-31.166 7.5 -38.499 7.5
s-14.666 -3.16699 -21.999 -9.5s-15 -14 -23 -23l-17 -19.5h-12l-38 39v11l69 88l13 4c10.667 -1.33301 25 -4.33301 43 -9s31.667 -8 41 -10c35.333 -10.667 58.666 -16 69.999 -16c8 0 15.667 3.16699 23 9.5s14.833 14 22.5 23s13.167 15.167 16.5 18.5h12z" />
    <glyph glyph-name="Ograve" unicode="&#xd2;" horiz-adv-x="631" 
d="M553.5 583.5c43.667 -45.667 65.499 -112.169 65.499 -199.502c0 -78.667 -13 -147.667 -39 -207s-64 -105.333 -114 -138s-110 -49 -180 -49c-78.667 0 -139.834 23.5 -183.501 70.5s-65.5 114.5 -65.5 202.5c0 78.667 12.833 147.334 38.5 206.001
s63.334 103.834 113.001 135.501s109.834 47.5 180.501 47.5c79.333 0 140.833 -22.833 184.5 -68.5zM218.499 478.498c-29.667 -44.333 -44.499 -115.166 -44.499 -212.499c0 -60.667 9.83301 -104.834 29.5 -132.501s51.5 -41.5 95.5 -41.5c60 0 105 22.333 135 67
s45 116 45 214c0 60.667 -9.83301 104.5 -29.5 131.5s-51.834 40.5 -96.501 40.5c-60 0 -104.833 -22.167 -134.5 -66.5zM486 774.998l-21 -54l-13 -4c-86.667 30 -157.667 56 -213 78l-4 12l33 77l12 3c64 -38 132.667 -75.333 206 -112z" />
    <glyph glyph-name="Oacute" unicode="&#xd3;" horiz-adv-x="631" 
d="M553.5 583.5c43.667 -45.667 65.499 -112.169 65.499 -199.502c0 -78.667 -13 -147.667 -39 -207s-64 -105.333 -114 -138s-110 -49 -180 -49c-78.667 0 -139.834 23.5 -183.501 70.5s-65.5 114.5 -65.5 202.5c0 78.667 12.833 147.334 38.5 206.001
s63.334 103.834 113.001 135.501s109.834 47.5 180.501 47.5c79.333 0 140.833 -22.833 184.5 -68.5zM218.499 478.498c-29.667 -44.333 -44.499 -115.166 -44.499 -212.499c0 -60.667 9.83301 -104.834 29.5 -132.501s51.5 -41.5 95.5 -41.5c60 0 105 22.333 135 67
s45 116 45 214c0 60.667 -9.83301 104.5 -29.5 131.5s-51.834 40.5 -96.501 40.5c-60 0 -104.833 -22.167 -134.5 -66.5zM480 883.998l32.999 -77l-4 -12c-59.333 -23.333 -130.666 -49.333 -213.999 -78l-13 4l-21 54c72 36 141 73.333 207 112z" />
    <glyph glyph-name="Ocircumflex" unicode="&#xd4;" horiz-adv-x="631" 
d="M553.5 583.5c43.667 -45.667 65.499 -112.169 65.499 -199.502c0 -78.667 -13 -147.667 -39 -207s-64 -105.333 -114 -138s-110 -49 -180 -49c-78.667 0 -139.834 23.5 -183.501 70.5s-65.5 114.5 -65.5 202.5c0 78.667 12.833 147.334 38.5 206.001
s63.334 103.834 113.001 135.501s109.834 47.5 180.501 47.5c79.333 0 140.833 -22.833 184.5 -68.5zM218.499 478.498c-29.667 -44.333 -44.499 -115.166 -44.499 -212.499c0 -60.667 9.83301 -104.834 29.5 -132.501s51.5 -41.5 95.5 -41.5c60 0 105 22.333 135 67
s45 116 45 214c0 60.667 -9.83301 104.5 -29.5 131.5s-51.834 40.5 -96.501 40.5c-60 0 -104.833 -22.167 -134.5 -66.5zM237 770.998c48.667 31.333 94.667 65.667 138 103h27c34.667 -32.667 77 -67 127 -103l-30 -52h-13c-50 30.667 -83.333 51.667 -100 63
c-10.667 -6 -35.667 -19.333 -75 -40l-43 -23h-14z" />
    <glyph glyph-name="Otilde" unicode="&#xd5;" horiz-adv-x="631" 
d="M553.5 583.5c43.667 -45.667 65.499 -112.169 65.499 -199.502c0 -78.667 -13 -147.667 -39 -207s-64 -105.333 -114 -138s-110 -49 -180 -49c-78.667 0 -139.834 23.5 -183.501 70.5s-65.5 114.5 -65.5 202.5c0 78.667 12.833 147.334 38.5 206.001
s63.334 103.834 113.001 135.501s109.834 47.5 180.501 47.5c79.333 0 140.833 -22.833 184.5 -68.5zM218.499 478.498c-29.667 -44.333 -44.499 -115.166 -44.499 -212.499c0 -60.667 9.83301 -104.834 29.5 -132.501s51.5 -41.5 95.5 -41.5c60 0 105 22.333 135 67
s45 116 45 214c0 60.667 -9.83301 104.5 -29.5 131.5s-51.834 40.5 -96.501 40.5c-60 0 -104.833 -22.167 -134.5 -66.5zM559 839.998l-0.00195312 -11l-70 -88l-12 -5c-13.333 2 -41 8.66699 -83 20c-3.33301 0.666992 -14.166 3.5 -32.499 8.5s-31.166 7.5 -38.499 7.5
s-14.666 -3.16699 -21.999 -9.5s-15 -14 -23 -23l-17 -19.5h-12l-38 39v11l69 88l13 4c10.667 -1.33301 25 -4.33301 43 -9s31.667 -8 41 -10c35.333 -10.667 58.666 -16 69.999 -16c8 0 15.667 3.16699 23 9.5s14.833 14 22.5 23s13.167 15.167 16.5 18.5h12z" />
    <glyph glyph-name="multiply" unicode="&#xd7;" horiz-adv-x="481" 
d="M438 389l-1 -13l-130 -115l100 -116l-1 -12l-67 -52l-102 117l-133 -117l-54 52l2 11l130 117l-101 115l1 13l66 51l104 -117l131 117z" />
    <glyph glyph-name="Oslash" unicode="&#xd8;" horiz-adv-x="631" 
d="M619 384c0 -78.667 -13.0039 -147.669 -39.0039 -207.002s-64 -105.333 -114 -138s-110 -49 -180 -49c-33.333 0 -64.666 4.66699 -93.999 14l-71 -121l-68 31l-5 11l71 120c-54.667 47.333 -82 120 -82 218c0 78.667 12.833 147.334 38.5 206.001
s63.334 103.834 113.001 135.501s109.834 47.5 180.501 47.5c36.667 0 69.334 -5 98.001 -15l58 99l68 -30l5 -14l-57 -97c52 -46 78 -116.333 78 -211zM433.996 158.998c30 44.667 45.001 116 45.001 214c0 60.667 -9.83301 104.5 -29.5 131.5s-51.834 40.5 -96.501 40.5
c-60 0 -104.833 -22.167 -134.5 -66.5s-44.5 -115.166 -44.5 -212.499c0 -60.667 9.83301 -104.834 29.5 -132.501s51.5 -41.5 95.5 -41.5c60 0 105 22.333 135 67z" />
    <glyph glyph-name="Ugrave" unicode="&#xd9;" horiz-adv-x="622" 
d="M568 317l-11 -84c-8.66699 -78 -36.334 -137.833 -83.001 -179.5s-110.334 -62.5 -191.001 -62.5c-70 0 -125 16.167 -165 48.5s-60 78.5 -60 138.5c0 17.333 1.33301 33.666 4 48.999l13 93l36 323h132l-55 -398c-2 -14 -3 -26.667 -3 -38
c0 -36.667 8.83301 -63.667 26.5 -81s44.834 -26 81.501 -26c42.667 0 75.834 11.333 99.501 34s38.167 57.334 43.5 104.001l44 405h133zM482 775l-21 -54l-13 -4c-86.667 30 -157.667 56 -213 78l-4 12l33 77l12 3c64 -38 132.667 -75.333 206 -112z" />
    <glyph glyph-name="Uacute" unicode="&#xda;" horiz-adv-x="622" 
d="M568 317l-11 -84c-8.66699 -78 -36.334 -137.833 -83.001 -179.5s-110.334 -62.5 -191.001 -62.5c-70 0 -125 16.167 -165 48.5s-60 78.5 -60 138.5c0 17.333 1.33301 33.666 4 48.999l13 93l36 323h132l-55 -398c-2 -14 -3 -26.667 -3 -38
c0 -36.667 8.83301 -63.667 26.5 -81s44.834 -26 81.501 -26c42.667 0 75.834 11.333 99.501 34s38.167 57.334 43.5 104.001l44 405h133zM476 884l32.999 -77l-4 -12c-59.333 -23.333 -130.666 -49.333 -213.999 -78l-13 4l-21 54c72 36 141 73.333 207 112z" />
    <glyph glyph-name="Ucircumflex" unicode="&#xdb;" horiz-adv-x="622" 
d="M568 317l-11 -84c-8.66699 -78 -36.334 -137.833 -83.001 -179.5s-110.334 -62.5 -191.001 -62.5c-70 0 -125 16.167 -165 48.5s-60 78.5 -60 138.5c0 17.333 1.33301 33.666 4 48.999l13 93l36 323h132l-55 -398c-2 -14 -3 -26.667 -3 -38
c0 -36.667 8.83301 -63.667 26.5 -81s44.834 -26 81.501 -26c42.667 0 75.834 11.333 99.501 34s38.167 57.334 43.5 104.001l44 405h133zM233 771c48.667 31.333 94.667 65.667 138 103h27c34.667 -32.667 77 -67 127 -103l-30 -52h-13c-50 30.667 -83.333 51.667 -100 63
c-10.667 -6 -35.667 -19.333 -75 -40l-43 -23h-14z" />
    <glyph glyph-name="Udieresis" unicode="&#xdc;" horiz-adv-x="622" 
d="M568 317l-11 -84c-8.66699 -78 -36.334 -137.833 -83.001 -179.5s-110.334 -62.5 -191.001 -62.5c-70 0 -125 16.167 -165 48.5s-60 78.5 -60 138.5c0 17.333 1.33301 33.666 4 48.999l13 93l36 323h132l-55 -398c-2 -14 -3 -26.667 -3 -38
c0 -36.667 8.83301 -63.667 26.5 -81s44.834 -26 81.501 -26c42.667 0 75.834 11.333 99.501 34s38.167 57.334 43.5 104.001l44 405h133zM339 841.5c10 -10.333 15.001 -24.499 15.001 -42.499c0 -20 -5.5 -35.667 -16.5 -47s-26.167 -17 -45.5 -17c-18.667 0 -33 5 -43 15
s-15 24.667 -15 44s5.66699 34.666 17 45.999s26.666 17 45.999 17c18 0 32 -5.16699 42 -15.5zM516.501 841.501c10.333 -10.333 15.499 -24.499 15.499 -42.499c0 -20 -5.66699 -35.667 -17 -47s-26.666 -17 -45.999 -17c-18.667 0 -33 5.16699 -43 15.5
s-15 24.833 -15 43.5c0 19.333 5.5 34.666 16.5 45.999s26.167 17 45.5 17c18.667 0 33.167 -5.16699 43.5 -15.5z" />
    <glyph glyph-name="Thorn" unicode="&#xde;" horiz-adv-x="547" 
d="M492.5 498.5c33.667 -29 50.5 -71.167 50.5 -126.5c0 -50.667 -11.5 -96 -34.5 -136s-55.667 -71.333 -98 -94s-91.5 -34 -147.5 -34h-71l-10 -108h-133l30 192l50 451h134l-14 -101h104c59.333 0 105.833 -14.5 139.5 -43.5zM379 255.5c18 25.667 27 57.833 27 96.5
c0 30 -7.5 52.5 -22.5 67.5s-39.5 23.5 -73.5 25.5l-75 -4l-33 -232l102 -4c32 8 57 24.833 75 50.5z" />
    <glyph glyph-name="germandbls" unicode="&#xdf;" horiz-adv-x="577" 
d="M430.5 499c31.667 -8.66699 67.168 -22.3311 106.501 -40.998l3 -16l-130 -144c47.333 -24.667 81 -47.5 101 -68.5s30 -46.167 30 -75.5c0 -52 -19.333 -92 -58 -120s-86.334 -42 -143.001 -42c-24.667 0 -49.5 2.83301 -74.5 8.5s-47.5 13.5 -67.5 23.5l29 113l11 5
c17.333 -16.667 35.5 -29.5 54.5 -38.5s36.167 -13.5 51.5 -13.5c18.667 0 34 5.16699 46 15.5s18 23.5 18 39.5c0 17.333 -10.5 32.666 -31.5 45.999s-59.167 31.666 -114.5 54.999l-1 16l120 133c-25.333 12.667 -50.666 19 -75.999 19c-68 0 -106 -30.667 -114 -92
l-23 -161l-15 -161h-122l24 148l19 174c7.33301 58 33.166 104.167 77.499 138.5s103.5 51.5 177.5 51.5c36 0 69.833 -4.33301 101.5 -13z" />
    <glyph glyph-name="agrave" unicode="&#xe0;" horiz-adv-x="517" 
d="M155 679l-1.99902 11.999l47 70l12 1c57.333 -51.333 117.333 -102 180 -152l-31 -49l-12 -1c-52.667 30.667 -117.334 70.334 -194.001 119.001zM464.001 -0.000976562h-123l-3 71l-5 32l-101 2l-88 -2l-12 -25l-25 -78h-119l237 505h144zM317.001 195.999l-33 197h-8
l-90 -197l65 -1z" />
    <glyph glyph-name="aacute" unicode="&#xe1;" horiz-adv-x="517" 
d="M224 561l-32 49c63.333 49.333 123.333 100 180 152l12 -1l47 -70l-2 -12c-74.667 -48 -139 -87.667 -193 -119zM464 0h-123l-3 71l-5 32l-101 2l-88 -2l-12 -25l-25 -78h-119l237 505h144zM317 196l-33 197h-8l-90 -197l65 -1z" />
    <glyph glyph-name="acircumflex" unicode="&#xe2;" horiz-adv-x="517" 
d="M182 564l-26 49.001c34.667 29.333 78.667 69.666 132 120.999l21 20h28c30.667 -38.667 72.334 -85.667 125.001 -141l-39 -49h-13c-38.667 34.667 -70.334 65.667 -95.001 93c-22.667 -20 -62.667 -51 -120 -93h-13zM464 0.000976562h-123l-3 71l-5 32l-101 2l-88 -2
l-12 -25l-25 -78h-119l237 505h144zM317 196.001l-33 197h-8l-90 -197l65 -1z" />
    <glyph glyph-name="atilde" unicode="&#xe3;" horiz-adv-x="517" 
d="M485 701l-0.00195312 -11l-70 -88l-12 -5c-13.333 2 -41 8.66699 -83 20c-3.33301 0.666992 -14.166 3.5 -32.499 8.5s-31.166 7.5 -38.499 7.5s-14.666 -3.16699 -21.999 -9.5s-15 -14 -23 -23l-17 -19.5h-12l-38 39v11l69 88l13 4c10.667 -1.33301 25 -4.33301 43 -9
s31.667 -8 41 -10c35.333 -10.667 58.666 -16 69.999 -16c8 0 15.667 3.16699 23 9.5s14.833 14 22.5 23s13.167 15.167 16.5 18.5h12zM368.998 505l95 -505h-123l-3 71l-5 32l-101 2l-88 -2l-12 -25l-25 -78h-119l237 505h144zM316.998 196l-33 197h-8l-90 -197l65 -1z" />
    <glyph glyph-name="adieresis" unicode="&#xe4;" horiz-adv-x="517" 
d="M177 611c-10 10 -14.999 24.668 -14.999 44.001s5.66699 34.666 17 45.999s26.666 17 45.999 17c18 0 32 -5.16699 42 -15.5s15 -24.5 15 -42.5c0 -20 -5.5 -35.667 -16.5 -47s-26.167 -17 -45.5 -17c-18.667 0 -33 5 -43 15zM354.001 611.501
c-10 10.333 -15.001 24.834 -15.001 43.501c0 19.333 5.5 34.666 16.5 45.999s26.167 17 45.5 17c18.667 0 33.167 -5.16699 43.5 -15.5s15.5 -24.5 15.5 -42.5c0 -20 -5.66699 -35.667 -17 -47s-26.666 -17 -45.999 -17c-18.667 0 -33 5.16699 -43 15.5zM464 0.00195312
h-123l-3 71l-5 32l-101 2l-88 -2l-12 -25l-25 -78h-119l237 505h144zM317 196.002l-33 197h-8l-90 -197l65 -1z" />
    <glyph glyph-name="aring" unicode="&#xe5;" horiz-adv-x="517" 
d="M241.5 598.5c-16.333 16.333 -24.5 39.5 -24.5 69.5s8.33301 53.333 25 70s40.667 25 72 25c30 0 53 -8 69 -24s24 -38.333 24 -67c0 -31.333 -8.83301 -55.5 -26.5 -72.5s-41.5 -25.5 -71.5 -25.5c-28.667 0 -51.167 8.16699 -67.5 24.5zM271 670
c0 -27.333 13.667 -41 41 -41s41 12.667 41 38c0 26.667 -14 40 -42 40c-26.667 0 -40 -12.333 -40 -37zM464 0h-123l-3 71l-5 32l-101 2l-88 -2l-12 -25l-25 -78h-119l237 505h144zM317 196l-33 197h-8l-90 -197l65 -1z" />
    <glyph glyph-name="ae" unicode="&#xe6;" horiz-adv-x="695" 
d="M664 87l-18 -87h-322l6 68l-1 97l-189 -48l-26 -42l-33 -75h-113l316 504h366l6 -9l-20 -86l-128 6h-71l1 -135l164 41l8 -7l-2 -85l-170 -37l1 -101h83l136 5zM328 253l-1 145h-8l-112 -176z" />
    <glyph glyph-name="ccedilla" unicode="&#xe7;" horiz-adv-x="446" 
d="M394 504.5c24 -4.33301 45 -10.834 63 -19.501l-34 -106l-11 -5c-13.333 11.333 -29.666 20.333 -48.999 27s-40 10 -62 10c-92 0 -138 -61 -138 -183c0 -89.333 35.667 -134 107 -134c19.333 0 40 3 62 9s41.333 14.333 58 25l11 -6l-22 -106
c-28 -10.667 -55.667 -18 -83 -22l-10 -42l34 -19c14.667 -8 25.167 -16.833 31.5 -26.5s9.5 -20.5 9.5 -32.5c0 -22 -8.66699 -40 -26 -54s-40 -21 -68 -21c-30 0 -57 9.66699 -81 29l9 55l6 2c21.333 -20 40.666 -30 57.999 -30c16.667 0 25 7.33301 25 22
c0 4.66699 -1.33301 8.5 -4 11.5s-7 5.83301 -13 8.5l-49 28l16 68c-66 4 -116 24.833 -150 62.5s-51 89.834 -51 156.501c0 93.333 25.167 166.5 75.5 219.5s120.833 79.5 211.5 79.5c25.333 0 50 -2.16699 74 -6.5z" />
    <glyph glyph-name="egrave" unicode="&#xe8;" horiz-adv-x="446" 
d="M132 679l-1.99902 11.999l47 70l12 1c57.333 -51.333 117.333 -102 180 -152l-31 -49l-12 -1c-52.667 30.667 -117.334 70.334 -194.001 119.001zM217.001 408.999l-15 -105l89 -1l85 3l5 -9l-18 -92l-93 3l-82 -1l-7 -46l-6 -65h86l134 4l6 -9l-19 -91h-338l24 150
l39 355h342l5 -10l-20 -91l-125 5h-92z" />
    <glyph glyph-name="eacute" unicode="&#xe9;" horiz-adv-x="446" 
d="M202 561l-32 49c63.333 49.333 123.333 100 180 152l12 -1l47 -70l-2 -12c-74.667 -48 -139 -87.667 -193 -119zM217 409l-15 -105l89 -1l85 3l5 -9l-18 -92l-93 3l-82 -1l-7 -46l-6 -65h86l134 4l6 -9l-19 -91h-338l24 150l39 355h342l5 -10l-20 -91l-125 5h-92z" />
    <glyph glyph-name="ecircumflex" unicode="&#xea;" horiz-adv-x="446" 
d="M160 564l-26 49.001c34.667 29.333 78.667 69.666 132 120.999l21 20h28c30.667 -38.667 72.334 -85.667 125.001 -141l-39 -49h-13c-38.667 34.667 -70.334 65.667 -95.001 93c-22.667 -20 -62.667 -51 -120 -93h-13zM217 409.001l-15 -105l89 -1l85 3l5 -9l-18 -92
l-93 3l-82 -1l-7 -46l-6 -65h86l134 4l6 -9l-19 -91h-338l24 150l39 355h342l5 -10l-20 -91l-125 5h-92z" />
    <glyph glyph-name="edieresis" unicode="&#xeb;" horiz-adv-x="446" 
d="M155 611c-10 10 -14.999 24.668 -14.999 44.001s5.66699 34.666 17 45.999s26.666 17 45.999 17c18 0 32 -5.16699 42 -15.5s15 -24.5 15 -42.5c0 -20 -5.5 -35.667 -16.5 -47s-26.167 -17 -45.5 -17c-18.667 0 -33 5 -43 15zM332.001 611.501
c-10 10.333 -15.001 24.834 -15.001 43.501c0 19.333 5.5 34.666 16.5 45.999s26.167 17 45.5 17c18.667 0 33.167 -5.16699 43.5 -15.5s15.5 -24.5 15.5 -42.5c0 -20 -5.66699 -35.667 -17 -47s-26.666 -17 -45.999 -17c-18.667 0 -33 5.16699 -43 15.5zM217 409.002
l-15 -105l89 -1l85 3l5 -9l-18 -92l-93 3l-82 -1l-7 -46l-6 -65h86l134 4l6 -9l-19 -91h-338l24 150l39 355h342l5 -10l-20 -91l-125 5h-92z" />
    <glyph glyph-name="igrave" unicode="&#xec;" horiz-adv-x="275" 
d="M268 610l-30.999 -49.001l-12 -1c-52.667 30.667 -117.334 70.334 -194.001 119.001l-2 12l47 70l12 1c57.333 -51.333 117.333 -102 180 -152zM181.001 160.999l-14 -161h-122l24 150l38 355h124z" />
    <glyph glyph-name="iacute" unicode="&#xed;" horiz-adv-x="275" 
d="M261 761l47 -70l-2 -12c-74.667 -48 -139 -87.667 -193 -119l-12 1l-32 49c63.333 49.333 123.333 100 180 152zM181 161l-14 -161h-122l24 150l38 355h124z" />
    <glyph glyph-name="icircumflex" unicode="&#xee;" horiz-adv-x="275" 
d="M33 613c34.667 29.333 78.667 69.667 132 121l21 20h28c30.667 -38.667 72.334 -85.667 125.001 -141l-39 -49h-13c-38.667 34.667 -70.334 65.667 -95.001 93c-22.667 -20 -62.667 -51 -120 -93h-13zM181 161.001l-14 -161h-122l24 150l38 355h124z" />
    <glyph glyph-name="eth" unicode="&#xf0;" horiz-adv-x="569" 
d="M485 456c38 -34.667 56.999 -84 56.999 -148c0 -98.667 -25.667 -175.667 -77 -231s-124.666 -83 -219.999 -83c-54 0 -118.333 2 -193 6l24 150l6 59h-73l-6 9l14 70h74l24 217l210 3c68.667 0 122 -17.333 160 -52zM375.999 136.5c24.667 32.333 37 82.499 37 150.499
c0 42.667 -8.66699 73.834 -26 93.501s-43.333 29.5 -78 29.5c-31.333 0 -59.333 -1.33301 -84 -4l-18 -118h105l5 -9l-13 -70h-108l-7 -48l-6 -67c38.667 -4 68 -6 88 -6c45.333 0 80.333 16.167 105 48.5z" />
    <glyph glyph-name="ntilde" unicode="&#xf1;" horiz-adv-x="594" 
d="M520 701l-0.00195312 -11l-70 -88l-12 -5c-13.333 2 -41 8.66699 -83 20c-3.33301 0.666992 -14.166 3.5 -32.499 8.5s-31.166 7.5 -38.499 7.5s-14.666 -3.16699 -21.999 -9.5s-15 -14 -23 -23l-17 -19.5h-12l-38 39v11l69 88l13 4c10.667 -1.33301 25 -4.33301 43 -9
s31.667 -8 41 -10c35.333 -10.667 58.666 -16 69.999 -16c8 0 15.667 3.16699 23 9.5s14.833 14 22.5 23s13.167 15.167 16.5 18.5h12zM504.998 158l-15 -158h-131l-162 320h-6l-19 -144l-18 -176h-110l24 148l39 357h130l163 -321h8l35 316l113 7z" />
    <glyph glyph-name="ograve" unicode="&#xf2;" horiz-adv-x="552" 
d="M405 610l-30.999 -49.001l-12 -1c-52.667 30.667 -117.334 70.334 -194.001 119.001l-2 12l47 70l12 1c57.333 -51.333 117.333 -102 180 -152zM469.501 456.999c37 -36.667 55.5 -92.334 55.5 -167.001c0 -58 -11 -109.667 -33 -155s-54 -80.666 -96 -105.999
s-92 -38 -150 -38c-68.667 0 -121.5 18.833 -158.5 56.5s-55.5 94.167 -55.5 169.5c0 58 11 109.167 33 153.5s54 79 96 104s92.333 37.5 151 37.5c68 0 120.5 -18.333 157.5 -55zM194.001 368.499c-22.667 -29.667 -34 -79.167 -34 -148.5
c0 -49.333 7.5 -83.833 22.5 -103.5s40.833 -29.5 77.5 -29.5c46 0 80.167 15 102.5 45s33.5 79.333 33.5 148c0 49.333 -7.33301 83.833 -22 103.5s-40.667 29.5 -78 29.5c-45.333 0 -79.333 -14.833 -102 -44.5z" />
    <glyph glyph-name="oacute" unicode="&#xf3;" horiz-adv-x="552" 
d="M398 761l47 -70l-2 -12c-74.667 -48 -139 -87.667 -193 -119l-12 1l-32 49c63.333 49.333 123.333 100 180 152zM469.5 457c37 -36.667 55.5 -92.334 55.5 -167.001c0 -58 -11 -109.667 -33 -155s-54 -80.666 -96 -105.999s-92 -38 -150 -38
c-68.667 0 -121.5 18.833 -158.5 56.5s-55.5 94.167 -55.5 169.5c0 58 11 109.167 33 153.5s54 79 96 104s92.333 37.5 151 37.5c68 0 120.5 -18.333 157.5 -55zM194 368.5c-22.667 -29.667 -34 -79.167 -34 -148.5c0 -49.333 7.5 -83.833 22.5 -103.5
s40.833 -29.5 77.5 -29.5c46 0 80.167 15 102.5 45s33.5 79.333 33.5 148c0 49.333 -7.33301 83.833 -22 103.5s-40.667 29.5 -78 29.5c-45.333 0 -79.333 -14.833 -102 -44.5z" />
    <glyph glyph-name="ocircumflex" unicode="&#xf4;" horiz-adv-x="552" 
d="M170 613c34.667 29.333 78.667 69.667 132 121l21 20h28c30.667 -38.667 72.334 -85.667 125.001 -141l-39 -49h-13c-38.667 34.667 -70.334 65.667 -95.001 93c-22.667 -20 -62.667 -51 -120 -93h-13zM469.5 457.001c37 -36.667 55.5 -92.334 55.5 -167.001
c0 -58 -11 -109.667 -33 -155s-54 -80.666 -96 -105.999s-92 -38 -150 -38c-68.667 0 -121.5 18.833 -158.5 56.5s-55.5 94.167 -55.5 169.5c0 58 11 109.167 33 153.5s54 79 96 104s92.333 37.5 151 37.5c68 0 120.5 -18.333 157.5 -55zM194 368.501
c-22.667 -29.667 -34 -79.167 -34 -148.5c0 -49.333 7.5 -83.833 22.5 -103.5s40.833 -29.5 77.5 -29.5c46 0 80.167 15 102.5 45s33.5 79.333 33.5 148c0 49.333 -7.33301 83.833 -22 103.5s-40.667 29.5 -78 29.5c-45.333 0 -79.333 -14.833 -102 -44.5z" />
    <glyph glyph-name="otilde" unicode="&#xf5;" horiz-adv-x="552" 
d="M499 701l-0.00195312 -11l-70 -88l-12 -5c-13.333 2 -41 8.66699 -83 20c-3.33301 0.666992 -14.166 3.5 -32.499 8.5s-31.166 7.5 -38.499 7.5s-14.666 -3.16699 -21.999 -9.5s-15 -14 -23 -23l-17 -19.5h-12l-38 39v11l69 88l13 4c10.667 -1.33301 25 -4.33301 43 -9
s31.667 -8 41 -10c35.333 -10.667 58.666 -16 69.999 -16c8 0 15.667 3.16699 23 9.5s14.833 14 22.5 23s13.167 15.167 16.5 18.5h12zM469.498 457c37 -36.667 55.5 -92.334 55.5 -167.001c0 -58 -11 -109.667 -33 -155s-54 -80.666 -96 -105.999s-92 -38 -150 -38
c-68.667 0 -121.5 18.833 -158.5 56.5s-55.5 94.167 -55.5 169.5c0 58 11 109.167 33 153.5s54 79 96 104s92.333 37.5 151 37.5c68 0 120.5 -18.333 157.5 -55zM193.998 368.5c-22.667 -29.667 -34 -79.167 -34 -148.5c0 -49.333 7.5 -83.833 22.5 -103.5
s40.833 -29.5 77.5 -29.5c46 0 80.167 15 102.5 45s33.5 79.333 33.5 148c0 49.333 -7.33301 83.833 -22 103.5s-40.667 29.5 -78 29.5c-45.333 0 -79.333 -14.833 -102 -44.5z" />
    <glyph glyph-name="divide" unicode="&#xf7;" horiz-adv-x="477" 
d="M459 296l-7 -79h-417l-9 9l7 79h417zM266.627 138.571c10.0537 -10.3496 15.083 -24.6914 15.083 -43.0244c0 -20.1074 -5.61816 -35.9268 -16.8545 -47.459c-11.2373 -11.5322 -26.3184 -17.2988 -45.2432 -17.2988s-33.4141 5.1748 -43.4678 15.5244
c-10.0537 10.3486 -15.0801 24.9854 -15.0801 43.9102c0 19.5166 5.61816 35.041 16.8545 46.5732s26.6123 17.2988 46.1279 17.2988c18.333 0 32.5264 -5.1748 42.5801 -15.5244zM307.629 478.57c10.0537 -10.3496 15.083 -24.6914 15.083 -43.0244
c0 -20.1074 -5.61816 -35.9268 -16.8545 -47.459c-11.2373 -11.5322 -26.3184 -17.2988 -45.2432 -17.2988s-33.4141 5.1748 -43.4678 15.5244c-10.0537 10.3486 -15.0801 24.9854 -15.0801 43.9102c0 19.5166 5.61816 35.041 16.8545 46.5732
s26.6123 17.2988 46.1279 17.2988c18.333 0 32.5264 -5.1748 42.5801 -15.5244z" />
    <glyph glyph-name="oslash" unicode="&#xf8;" horiz-adv-x="552" 
d="M525 290c0 -58 -10.999 -109.668 -32.999 -155.001s-54 -80.666 -96 -105.999s-92 -38 -150 -38c-28.667 0 -55.667 3.66699 -81 11l-72 -108l-64 41l-2 12l65 96c-40 38 -60 96 -60 174c0 58 11 109.167 33 153.5s54 79 96 104s92.333 37.5 151 37.5
c29.333 0 56.666 -3.66699 81.999 -11l63 93l61 -41l5 -12l-55 -82c38 -38 57 -94.333 57 -169zM362.501 131.999c22.333 30 33.5 79.333 33.5 148c0 49.333 -7.33301 83.833 -22 103.5s-40.667 29.5 -78 29.5c-45.333 0 -79.333 -14.833 -102 -44.5s-34 -79.167 -34 -148.5
c0 -49.333 7.5 -83.833 22.5 -103.5s40.833 -29.5 77.5 -29.5c46 0 80.167 15 102.5 45z" />
    <glyph glyph-name="ugrave" unicode="&#xf9;" horiz-adv-x="545" 
d="M404 610l-30.999 -49.001l-12 -1c-52.667 30.667 -117.334 70.334 -194.001 119.001l-2 12l47 70l12 1c57.333 -51.333 117.333 -102 180 -152zM485.001 247.999l-10.001 -77c-7.33301 -57.333 -30.666 -101.5 -69.999 -132.5s-93.333 -46.5 -162 -46.5
c-61.333 0 -108.833 12.5 -142.5 37.5s-50.5 60.833 -50.5 107.5c0 10.667 1 22 3 34l11 79l29 255h122l-45 -316c-1.33301 -10.667 -2 -18 -2 -22c0 -50.667 29 -76 87 -76c65.333 0 101.333 32.667 108 98l34 316h123z" />
    <glyph glyph-name="uacute" unicode="&#xfa;" horiz-adv-x="545" 
d="M397 761l47 -70l-2 -12c-74.667 -48 -139 -87.667 -193 -119l-12 1l-32 49c63.333 49.333 123.333 100 180 152zM485 248l-10.001 -77c-7.33301 -57.333 -30.666 -101.5 -69.999 -132.5s-93.333 -46.5 -162 -46.5c-61.333 0 -108.833 12.5 -142.5 37.5
s-50.5 60.833 -50.5 107.5c0 10.667 1 22 3 34l11 79l29 255h122l-45 -316c-1.33301 -10.667 -2 -18 -2 -22c0 -50.667 29 -76 87 -76c65.333 0 101.333 32.667 108 98l34 316h123z" />
    <glyph glyph-name="ucircumflex" unicode="&#xfb;" horiz-adv-x="545" 
d="M168 613c34.667 29.333 78.667 69.667 132 121l21 20h28c30.667 -38.667 72.334 -85.667 125.001 -141l-39 -49h-13c-38.667 34.667 -70.334 65.667 -95.001 93c-22.667 -20 -62.667 -51 -120 -93h-13zM485 248.001l-10.001 -77
c-7.33301 -57.333 -30.666 -101.5 -69.999 -132.5s-93.333 -46.5 -162 -46.5c-61.333 0 -108.833 12.5 -142.5 37.5s-50.5 60.833 -50.5 107.5c0 10.667 1 22 3 34l11 79l29 255h122l-45 -316c-1.33301 -10.667 -2 -18 -2 -22c0 -50.667 29 -76 87 -76
c65.333 0 101.333 32.667 108 98l34 316h123z" />
    <glyph glyph-name="udieresis" unicode="&#xfc;" horiz-adv-x="545" 
d="M279 702.5c10 -10.333 15.001 -24.499 15.001 -42.499c0 -20 -5.5 -35.667 -16.5 -47s-26.167 -17 -45.5 -17c-18.667 0 -33 5 -43 15s-15 24.667 -15 44s5.66699 34.666 17 45.999s26.666 17 45.999 17c18 0 32 -5.16699 42 -15.5zM456.501 702.501
c10.333 -10.333 15.499 -24.499 15.499 -42.499c0 -20 -5.66699 -35.667 -17 -47s-26.666 -17 -45.999 -17c-18.667 0 -33 5.16699 -43 15.5s-15 24.833 -15 43.5c0 19.333 5.5 34.666 16.5 45.999s26.167 17 45.5 17c18.667 0 33.167 -5.16699 43.5 -15.5zM485 248.002
l-10.001 -77c-7.33301 -57.333 -30.666 -101.5 -69.999 -132.5s-93.333 -46.5 -162 -46.5c-61.333 0 -108.833 12.5 -142.5 37.5s-50.5 60.833 -50.5 107.5c0 10.667 1 22 3 34l11 79l29 255h122l-45 -316c-1.33301 -10.667 -2 -18 -2 -22c0 -50.667 29 -76 87 -76
c65.333 0 101.333 32.667 108 98l34 316h123z" />
    <glyph glyph-name="thorn" unicode="&#xfe;" horiz-adv-x="490" 
d="M424 391c30 -26 45 -61.666 45 -106.999c0 -37.333 -10 -71.333 -30 -102s-47.833 -54.834 -83.5 -72.501s-75.5 -26.5 -119.5 -26.5h-60l-8 -83h-124l24 150l39 355h125l-11 -75h82c50.667 0 91 -13 121 -39zM322 210.001c12 18 18 39.667 18 65
c0 22.667 -5.33301 39 -16 49s-28.667 16 -54 18l-62 -3l-23 -165l82 -3c24.667 8 43 21 55 39z" />
    <glyph glyph-name="ydieresis" unicode="&#xff;" horiz-adv-x="488" 
d="M160 611c-10 10 -14.999 24.668 -14.999 44.001s5.66699 34.666 17 45.999s26.666 17 45.999 17c18 0 32 -5.16699 42 -15.5s15 -24.5 15 -42.5c0 -20 -5.5 -35.667 -16.5 -47s-26.167 -17 -45.5 -17c-18.667 0 -33 5 -43 15zM337.001 611.501
c-10 10.333 -15.001 24.834 -15.001 43.501c0 19.333 5.5 34.666 16.5 45.999s26.167 17 45.5 17c18.667 0 33.167 -5.16699 43.5 -15.5s15.5 -24.5 15.5 -42.5c0 -20 -5.66699 -35.667 -17 -47s-26.666 -17 -45.999 -17c-18.667 0 -33 5.16699 -43 15.5zM287 164.002
l-5 -26l-13 -138h-122l23 138l3 26l-126 341h130l7 -37l60 -179h8l114 174l21 42h127z" />
    <glyph glyph-name="Amacron" unicode="&#x100;" horiz-adv-x="583" 
d="M539 0h-133l-6 83l-9 63l-121 2l-107 -2l-24 -56l-29 -90h-130l291 643h157zM376 248l-40 271h-9l-118 -270l82 -2zM510 829l-6 -73h-281l-8 9l7 73h280z" />
    <glyph glyph-name="amacron" unicode="&#x101;" horiz-adv-x="517" 
d="M171 617l-8 9l7 73h280l8 -9l-6 -73h-281zM464 0h-123l-3 71l-5 32l-101 2l-88 -2l-12 -25l-25 -78h-119l237 505h144zM317 196l-33 197h-8l-90 -197l65 -1z" />
    <glyph glyph-name="Abreve" unicode="&#x102;" horiz-adv-x="583" 
d="M539 0h-133l-6 83l-9 63l-121 2l-107 -2l-24 -56l-29 -90h-130l291 643h157zM376 248l-40 271h-9l-118 -270l82 -2zM511 826c-32.667 -70 -84.3301 -105 -154.997 -105c-36.667 0 -67.334 9 -92.001 27s-41.334 44 -50.001 78l35 41h19
c6.66699 -18 18.167 -31.833 34.5 -41.5s36.166 -14.5 59.499 -14.5s44 4.83301 62 14.5s32.333 23.5 43 41.5h19z" />
    <glyph glyph-name="abreve" unicode="&#x103;" horiz-adv-x="517" 
d="M202.5 604c-22.333 22.667 -35.834 52.667 -40.501 90l34 44h19c4.66699 -25.333 15 -44.5 31 -57.5s36 -19.5 60 -19.5c24.667 0 46.334 6.5 65.001 19.5s33.334 32.167 44.001 57.5h19l24 -44c-13.333 -37.333 -33.333 -67.333 -60 -90s-59.334 -34 -98.001 -34
c-42.667 0 -75.167 11.333 -97.5 34zM463.999 0h-123l-3 71l-5 32l-101 2l-88 -2l-12 -25l-25 -78h-119l237 505h144zM316.999 196l-33 197h-8l-90 -197l65 -1z" />
    <glyph glyph-name="Aogonek" unicode="&#x104;" horiz-adv-x="583" 
d="M539 0h-133l-6 83l-9 63l-121 2l-107 -2l-24 -56l-29 -90h-130l291 643h157zM376 248l-40 271h-9l-118 -270l82 -2zM451 -70c-13.333 -12.667 -20 -24 -20 -34c0 -12.667 8 -19 24 -19c16.667 0 37.667 9 63 27l6 -2l14 -59c-32.667 -26.667 -65.667 -40 -99 -40
c-26.667 0 -48.167 6.66699 -64.5 20s-24.5 31 -24.5 53s8.16699 42.5 24.5 61.5s43.166 39.833 80.499 62.5h84c-45.333 -34 -74.666 -57.333 -87.999 -70z" />
    <glyph glyph-name="aogonek" unicode="&#x105;" horiz-adv-x="517" 
d="M449 -98l14 -59c-32.667 -26.667 -65.667 -40 -99 -40c-26.667 0 -48.167 6.66699 -64.5 20s-24.5 31 -24.5 53s8.16699 42.5 24.5 61.5s43.166 39.833 80.499 62.5h-39l-3 71l-5 32l-101 2l-88 -2l-12 -25l-25 -78h-119l237 505h144l95 -505
c-45.333 -34 -74.666 -57.333 -87.999 -70s-20 -24 -20 -34c0 -12.667 8 -19 24 -19c17.333 0 38.333 9 63 27zM317 196l-33 197h-8l-90 -197l65 -1z" />
    <glyph glyph-name="Cacute" unicode="&#x106;" horiz-adv-x="507" 
d="M541 613l-37.002 -112l-11 -4c-18 14.667 -38.167 26 -60.5 34s-45.833 12 -70.5 12c-60.667 0 -106.667 -22.333 -138 -67s-47 -110 -47 -196c0 -58.667 11.5 -103 34.5 -133s56.5 -45 100.5 -45c24 0 49.333 3.83301 76 11.5s51 18.5 73 32.5l11 -7l-25 -113
c-26.667 -12 -52.167 -20.833 -76.5 -26.5s-50.166 -8.5 -77.499 -8.5c-82 0 -145.167 23.167 -189.5 69.5s-66.5 112.5 -66.5 198.5c0 81.333 13.333 151.333 40 210s65.334 103.667 116.001 135s111.667 47 183 47c63.333 0 118.333 -12.667 165 -38zM453.998 884
l32.999 -77l-4 -12c-59.333 -23.333 -130.666 -49.333 -213.999 -78l-13 4l-21 54c72 36 141 73.333 207 112z" />
    <glyph glyph-name="cacute" unicode="&#x107;" horiz-adv-x="446" 
d="M379 761l47 -70l-2 -12c-74.667 -48 -139 -87.667 -193 -119l-12 1l-32 49c63.333 49.333 123.333 100 180 152zM394 504.5c24 -4.33301 44.999 -10.833 62.999 -19.5l-34 -106l-11 -5c-13.333 11.333 -29.666 20.333 -48.999 27s-40 10 -62 10c-92 0 -138 -61 -138 -183
c0 -89.333 35.667 -134 107 -134c19.333 0 40 3 62 9s41.333 14.333 58 25l11 -6l-22 -106c-42.667 -16 -82.667 -24 -120 -24c-74.667 0 -131 19 -169 57s-57 92.333 -57 163c0 93.333 25.167 166.5 75.5 219.5s120.833 79.5 211.5 79.5c25.333 0 50 -2.16699 74 -6.5z" />
    <glyph glyph-name="Ccircumflex" unicode="&#x108;" horiz-adv-x="507" 
d="M541 613l-37.002 -112l-11 -4c-18 14.667 -38.167 26 -60.5 34s-45.833 12 -70.5 12c-60.667 0 -106.667 -22.333 -138 -67s-47 -110 -47 -196c0 -58.667 11.5 -103 34.5 -133s56.5 -45 100.5 -45c24 0 49.333 3.83301 76 11.5s51 18.5 73 32.5l11 -7l-25 -113
c-26.667 -12 -52.167 -20.833 -76.5 -26.5s-50.166 -8.5 -77.499 -8.5c-82 0 -145.167 23.167 -189.5 69.5s-66.5 112.5 -66.5 198.5c0 81.333 13.333 151.333 40 210s65.334 103.667 116.001 135s111.667 47 183 47c63.333 0 118.333 -12.667 165 -38zM210.998 771
c48.667 31.333 94.667 65.667 138 103h27c34.667 -32.667 77 -67 127 -103l-30 -52h-13c-50 30.667 -83.333 51.667 -100 63c-10.667 -6 -35.667 -19.333 -75 -40l-43 -23h-14z" />
    <glyph glyph-name="ccircumflex" unicode="&#x109;" horiz-adv-x="446" 
d="M151 613c34.667 29.333 78.667 69.667 132 121l21 20h28c30.667 -38.667 72.334 -85.667 125.001 -141l-39 -49h-13c-38.667 34.667 -70.334 65.667 -95.001 93c-22.667 -20 -62.667 -51 -120 -93h-13zM394 504.501c24 -4.33301 44.999 -10.833 62.999 -19.5l-34 -106
l-11 -5c-13.333 11.333 -29.666 20.333 -48.999 27s-40 10 -62 10c-92 0 -138 -61 -138 -183c0 -89.333 35.667 -134 107 -134c19.333 0 40 3 62 9s41.333 14.333 58 25l11 -6l-22 -106c-42.667 -16 -82.667 -24 -120 -24c-74.667 0 -131 19 -169 57s-57 92.333 -57 163
c0 93.333 25.167 166.5 75.5 219.5s120.833 79.5 211.5 79.5c25.333 0 50 -2.16699 74 -6.5z" />
    <glyph glyph-name="Cdotaccent" unicode="&#x10a;" horiz-adv-x="507" 
d="M541 613l-37.002 -112l-11 -4c-18 14.667 -38.167 26 -60.5 34s-45.833 12 -70.5 12c-60.667 0 -106.667 -22.333 -138 -67s-47 -110 -47 -196c0 -58.667 11.5 -103 34.5 -133s56.5 -45 100.5 -45c24 0 49.333 3.83301 76 11.5s51 18.5 73 32.5l11 -7l-25 -113
c-26.667 -12 -52.167 -20.833 -76.5 -26.5s-50.166 -8.5 -77.499 -8.5c-82 0 -145.167 23.167 -189.5 69.5s-66.5 112.5 -66.5 198.5c0 81.333 13.333 151.333 40 210s65.334 103.667 116.001 135s111.667 47 183 47c63.333 0 118.333 -12.667 165 -38zM409.998 848.5
c11.333 -11.667 16.999 -27.833 16.999 -48.5c0 -22.667 -6.33301 -40.5 -19 -53.5s-29.667 -19.5 -51 -19.5s-37.666 5.83301 -48.999 17.5s-17 28.167 -17 49.5c0 22 6.33301 39.5 19 52.5s30 19.5 52 19.5c20.667 0 36.667 -5.83301 48 -17.5z" />
    <glyph glyph-name="cdotaccent" unicode="&#x10b;" horiz-adv-x="446" 
d="M358 710.5c11.333 -11.667 16.999 -27.833 16.999 -48.5c0 -22.667 -6.33301 -40.5 -19 -53.5s-29.667 -19.5 -51 -19.5s-37.666 5.83301 -48.999 17.5s-17 28.167 -17 49.5c0 22 6.33301 39.5 19 52.5s30 19.5 52 19.5c20.667 0 36.667 -5.83301 48 -17.5z
M393.999 504.501c24 -4.33301 44.999 -10.833 62.999 -19.5l-34 -106l-11 -5c-13.333 11.333 -29.666 20.333 -48.999 27s-40 10 -62 10c-92 0 -138 -61 -138 -183c0 -89.333 35.667 -134 107 -134c19.333 0 40 3 62 9s41.333 14.333 58 25l11 -6l-22 -106
c-42.667 -16 -82.667 -24 -120 -24c-74.667 0 -131 19 -169 57s-57 92.333 -57 163c0 93.333 25.167 166.5 75.5 219.5s120.833 79.5 211.5 79.5c25.333 0 50 -2.16699 74 -6.5z" />
    <glyph glyph-name="Ccaron" unicode="&#x10c;" horiz-adv-x="507" 
d="M541 613l-37.002 -112l-11 -4c-18 14.667 -38.167 26 -60.5 34s-45.833 12 -70.5 12c-60.667 0 -106.667 -22.333 -138 -67s-47 -110 -47 -196c0 -58.667 11.5 -103 34.5 -133s56.5 -45 100.5 -45c24 0 49.333 3.83301 76 11.5s51 18.5 73 32.5l11 -7l-25 -113
c-26.667 -12 -52.167 -20.833 -76.5 -26.5s-50.166 -8.5 -77.499 -8.5c-82 0 -145.167 23.167 -189.5 69.5s-66.5 112.5 -66.5 198.5c0 81.333 13.333 151.333 40 210s65.334 103.667 116.001 135s111.667 47 183 47c63.333 0 118.333 -12.667 165 -38zM503.998 821
c-48.667 -31.333 -94.667 -65.667 -138 -103h-27c-34.667 32.667 -77 67 -127 103l30 52h13c50 -30.667 83.333 -51.667 100 -63c10.667 6 35.667 19.333 75 40l43 23h14z" />
    <glyph glyph-name="ccaron" unicode="&#x10d;" horiz-adv-x="446" 
d="M459 705c-34.667 -29.333 -78.667 -69.667 -132 -121l-21 -20h-28c-30.667 38.667 -72.334 85.667 -125.001 141l39 49h13c38.667 -34.667 70.334 -65.667 95.001 -93c22.667 20 62.667 51 120 93h13zM394 504.499c24 -4.33301 44.999 -10.833 62.999 -19.5l-34 -106
l-11 -5c-13.333 11.333 -29.666 20.333 -48.999 27s-40 10 -62 10c-92 0 -138 -61 -138 -183c0 -89.333 35.667 -134 107 -134c19.333 0 40 3 62 9s41.333 14.333 58 25l11 -6l-22 -106c-42.667 -16 -82.667 -24 -120 -24c-74.667 0 -131 19 -169 57s-57 92.333 -57 163
c0 93.333 25.167 166.5 75.5 219.5s120.833 79.5 211.5 79.5c25.333 0 50 -2.16699 74 -6.5z" />
    <glyph glyph-name="Dcaron" unicode="&#x10e;" horiz-adv-x="641" 
d="M561.5 581.5c44.333 -43.667 66.5 -105.5 66.5 -185.5c0 -126 -30.667 -224.667 -92 -296s-148.666 -107 -261.999 -107c-31.333 0 -69 0.666992 -113 2s-81.333 3 -112 5l31 192l49 451l244 4c81.333 0 144.166 -21.833 188.499 -65.5zM440.5 164.5
c32.333 46.333 48.502 116.5 48.502 210.5c0 57.333 -10.833 99.5 -32.5 126.5s-54.834 40.5 -99.501 40.5c-26 0 -62.333 -1.33301 -109 -4l-48 -334l-9 -101c18 -2 37.833 -3.83301 59.5 -5.5s39.167 -2.5 52.5 -2.5c59.333 0 105.166 23.167 137.499 69.5zM503.002 821
c-48.667 -31.333 -94.667 -65.667 -138 -103h-27c-34.667 32.667 -77 67 -127 103l30 52h13c50 -30.667 83.333 -51.667 100 -63c10.667 6 35.667 19.333 75 40l43 23h14z" />
    <glyph glyph-name="dcaron" unicode="&#x10f;" horiz-adv-x="561" 
d="M289 564c-30.667 38.667 -72.334 85.666 -125.001 140.999l39 49h13c38.667 -34.667 70.334 -65.667 95.001 -93c22.667 20 62.667 51 120 93h13l26 -49c-34.667 -29.333 -78.667 -69.666 -132 -120.999l-21 -20h-28zM477 455.999c38 -34.667 56.999 -84 56.999 -148
c0 -98.667 -25.667 -175.667 -77 -231s-124.666 -83 -219.999 -83c-54 0 -118.333 2 -193 6l24 150l39 355l210 3c68.667 0 122 -17.333 160 -52zM367.999 136.499c24.667 32.333 37 82.499 37 150.499c0 42.667 -8.66699 73.834 -26 93.501s-43.333 29.5 -78 29.5
c-31.333 0 -59.333 -1.33301 -84 -4l-36 -245l-6 -67l28 -2c30.667 -2.66699 50.667 -4 60 -4c45.333 0 80.333 16.167 105 48.5z" />
    <glyph glyph-name="Dcroat" unicode="&#x110;" horiz-adv-x="668" 
d="M588.5 581.5c44.333 -43.667 66.5 -105.5 66.5 -185.5c0 -126 -30.667 -224.667 -92 -296s-148.666 -107 -261.999 -107c-31.333 0 -69 0.666992 -113 2s-81.333 3 -112 5l31 192l49 451l244 4c81.333 0 144.166 -21.833 188.499 -65.5zM467.5 164.5
c32.333 46.333 48.502 116.5 48.502 210.5c0 57.333 -10.833 99.5 -32.5 126.5s-54.834 40.5 -99.501 40.5c-26 0 -62.333 -1.33301 -109 -4l-48 -334l-9 -101c18 -2 37.833 -3.83301 59.5 -5.5s39.167 -2.5 52.5 -2.5c59.333 0 105.166 23.167 137.499 69.5zM373.678 354
l-10.3906 -79h-333.905l-4.84961 10l11.084 79h333.213z" />
    <glyph glyph-name="dcroat" unicode="&#x111;" horiz-adv-x="569" 
d="M485 456c38 -34.667 56.999 -84 56.999 -148c0 -98.667 -25.667 -175.667 -77 -231s-124.666 -83 -219.999 -83c-54 0 -118.333 2 -193 6l24 150l6 59h-73l-6 9l14 70h74l24 217l210 3c68.667 0 122 -17.333 160 -52zM375.999 136.5c24.667 32.333 37 82.499 37 150.499
c0 42.667 -8.66699 73.834 -26 93.501s-43.333 29.5 -78 29.5c-31.333 0 -59.333 -1.33301 -84 -4l-18 -118h105l5 -9l-13 -70h-108l-7 -48l-6 -67c38.667 -4 68 -6 88 -6c45.333 0 80.333 16.167 105 48.5z" />
    <glyph glyph-name="Emacron" unicode="&#x112;" horiz-adv-x="497" 
d="M248 538l-22 -159l107 -1l102 3l7 -10l-22 -99l-110 3l-99 -1l-10 -70l-10 -99l111 -1l154 5l5 -10l-20 -99h-393l31 192l50 451h396l6 -10l-22 -99l-149 5zM486 829l-6 -73h-281l-8 9l7 73h280z" />
    <glyph glyph-name="emacron" unicode="&#x113;" horiz-adv-x="446" 
d="M149 617l-8 9l7 73h280l8 -9l-6 -73h-281zM217 409l-15 -105l89 -1l85 3l5 -9l-18 -92l-93 3l-82 -1l-7 -46l-6 -65h86l134 4l6 -9l-19 -91h-338l24 150l39 355h342l5 -10l-20 -91l-125 5h-92z" />
    <glyph glyph-name="Ebreve" unicode="&#x114;" horiz-adv-x="497" 
d="M248 538l-22 -159l107 -1l102 3l7 -10l-22 -99l-110 3l-99 -1l-10 -70l-10 -99l111 -1l154 5l5 -10l-20 -99h-393l31 192l50 451h396l6 -10l-22 -99l-149 5zM487 826c-32.667 -70 -84.3301 -105 -154.997 -105c-36.667 0 -67.334 9 -92.001 27s-41.334 44 -50.001 78
l35 41h19c6.66699 -18 18.167 -31.833 34.5 -41.5s36.166 -14.5 59.499 -14.5s44 4.83301 62 14.5s32.333 23.5 43 41.5h19z" />
    <glyph glyph-name="ebreve" unicode="&#x115;" horiz-adv-x="446" 
d="M180.5 604c-22.333 22.667 -35.834 52.667 -40.501 90l34 44h19c4.66699 -25.333 15 -44.5 31 -57.5s36 -19.5 60 -19.5c24.667 0 46.334 6.5 65.001 19.5s33.334 32.167 44.001 57.5h19l24 -44c-13.333 -37.333 -33.333 -67.333 -60 -90s-59.334 -34 -98.001 -34
c-42.667 0 -75.167 11.333 -97.5 34zM216.999 409l-15 -105l89 -1l85 3l5 -9l-18 -92l-93 3l-82 -1l-7 -46l-6 -65h86l134 4l6 -9l-19 -91h-338l24 150l39 355h342l5 -10l-20 -91l-125 5h-92z" />
    <glyph glyph-name="Edotaccent" unicode="&#x116;" horiz-adv-x="497" 
d="M248 538l-22 -159l107 -1l102 3l7 -10l-22 -99l-110 3l-99 -1l-10 -70l-10 -99l111 -1l154 5l5 -10l-20 -99h-393l31 192l50 451h396l6 -10l-22 -99l-149 5zM391 848.5c11.333 -11.667 16.999 -27.833 16.999 -48.5c0 -22.667 -6.33301 -40.5 -19 -53.5
s-29.667 -19.5 -51 -19.5s-37.666 5.83301 -48.999 17.5s-17 28.167 -17 49.5c0 22 6.33301 39.5 19 52.5s30 19.5 52 19.5c20.667 0 36.667 -5.83301 48 -17.5z" />
    <glyph glyph-name="edotaccent" unicode="&#x117;" horiz-adv-x="446" 
d="M238 606.5c-11.333 11.667 -17.001 28.168 -17.001 49.501c0 22 6.33301 39.5 19 52.5s30 19.5 52 19.5c20.667 0 36.667 -5.83301 48 -17.5s17 -27.834 17 -48.501c0 -22.667 -6.33301 -40.5 -19 -53.5s-29.667 -19.5 -51 -19.5s-37.666 5.83301 -48.999 17.5z
M216.999 409.001l-15 -105l89 -1l85 3l5 -9l-18 -92l-93 3l-82 -1l-7 -46l-6 -65h86l134 4l6 -9l-19 -91h-338l24 150l39 355h342l5 -10l-20 -91l-125 5h-92z" />
    <glyph glyph-name="Eogonek" unicode="&#x118;" horiz-adv-x="497" 
d="M248 538l-22 -159l107 -1l102 3l7 -10l-22 -99l-110 3l-99 -1l-10 -70l-10 -99l111 -1l154 5l5 -10l-20 -99h-393l31 192l50 451h396l6 -10l-22 -99l-149 5zM253 -199.5c-18 15 -27.001 34.834 -27.001 59.501c0 14.667 3 27.834 9 39.501s17.333 25.5 34 41.5
s43 39 79 69h71l-70 -72c-18 -18.667 -29.167 -31.334 -33.5 -38.001s-6.5 -13.334 -6.5 -20.001c0 -18 10.333 -27 31 -27c18.667 0 43.334 10 74.001 30h6l14 -62c-38 -28.667 -74.667 -43 -110 -43c-29.333 0 -53 7.5 -71 22.5z" />
    <glyph glyph-name="eogonek" unicode="&#x119;" horiz-adv-x="446" 
d="M217 409l-15.001 -105l89 -1l85 3l5 -9l-18 -92l-93 3l-82 -1l-7 -46l-6 -65h86l134 4l6 -9l-19 -91h-57c-35.333 -36 -57.333 -59.5 -66 -70.5s-13 -20.5 -13 -28.5c0 -18 10.333 -27 31 -27c18.667 0 43.334 10 74.001 30h6l14 -62c-38 -28.667 -74.667 -43 -110 -43
c-29.333 0 -53 7.5 -71 22.5s-27 34.833 -27 59.5c0 18.667 5.5 35.667 16.5 51s33.833 38 68.5 68h-204l24 150l39 355h342l5 -10l-20 -91l-125 5h-92z" />
    <glyph glyph-name="Ecaron" unicode="&#x11a;" horiz-adv-x="497" 
d="M248 538l-22 -159l107 -1l102 3l7 -10l-22 -99l-110 3l-99 -1l-10 -70l-10 -99l111 -1l154 5l5 -10l-20 -99h-393l31 192l50 451h396l6 -10l-22 -99l-149 5zM485 821c-48.667 -31.333 -94.667 -65.667 -138 -103h-27c-34.667 32.667 -77 67 -127 103l30 52h13
c50 -30.667 83.333 -51.667 100 -63c10.667 6 35.667 19.333 75 40l43 23h14z" />
    <glyph glyph-name="ecaron" unicode="&#x11b;" horiz-adv-x="446" 
d="M261 564c-30.667 38.667 -72.334 85.666 -125.001 140.999l39 49h13c38.667 -34.667 70.334 -65.667 95.001 -93c22.667 20 62.667 51 120 93h13l26 -49c-34.667 -29.333 -78.667 -69.666 -132 -120.999l-21 -20h-28zM217 408.999l-15 -105l89 -1l85 3l5 -9l-18 -92
l-93 3l-82 -1l-7 -46l-6 -65h86l134 4l6 -9l-19 -91h-338l24 150l39 355h342l5 -10l-20 -91l-125 5h-92z" />
    <glyph glyph-name="Gcircumflex" unicode="&#x11c;" horiz-adv-x="585" 
d="M587 613l-43.998 -120.002l-12 -1c-30 18.667 -56.833 32 -80.5 40s-49.834 12 -78.501 12c-66 0 -115.667 -22.5 -149 -67.5s-50 -118.167 -50 -219.5c0 -57.333 11.5 -98.666 34.5 -123.999s59.5 -38 109.5 -38c12.667 0 25 1.16699 37 3.5s27.333 6.5 46 12.5l9 55
l11 105l122 9l-13 -93l-17 -156c-39.333 -14 -75.333 -24.167 -108 -30.5s-66.667 -9.5 -102 -9.5c-86.667 0 -152.834 22.833 -198.501 68.5s-68.5 109.834 -68.5 192.501c0 128 31.5 226.5 94.5 295.5s153.167 103.5 270.5 103.5c70 0 132.333 -12.667 187 -38z
M232.002 770.998c48.667 31.333 94.667 65.667 138 103h27c34.667 -32.667 77 -67 127 -103l-30 -52h-13c-50 30.667 -83.333 51.667 -100 63c-10.667 -6 -35.667 -19.333 -75 -40l-43 -23h-14z" />
    <glyph glyph-name="gcircumflex" unicode="&#x11d;" horiz-adv-x="511" 
d="M160 613c34.667 29.333 78.667 69.667 132 121l21 20h28c30.667 -38.667 72.334 -85.667 125.001 -141l-39 -49h-13c-38.667 34.667 -70.334 65.667 -95.001 93c-22.667 -20 -62.667 -51 -120 -93h-13zM497 484.001l-45.999 -113h-10c-26 15.333 -48.333 26 -67 32
s-39.667 9 -63 9c-50.667 0 -88.5 -15.5 -113.5 -46.5s-37.5 -80.833 -37.5 -149.5c0 -46 8 -78.833 24 -98.5s45.333 -29.5 88 -29.5c12 0 22.667 0.833008 32 2.5s20.666 5.16699 33.999 10.5l4 33l8 80l113 7l-10 -67l-16 -129c-66.667 -22 -125.667 -33 -177 -33
c-74.667 0 -131.334 19 -170.001 57s-58 94.333 -58 169c0 90.667 26.833 162.167 80.5 214.5s129.167 78.5 226.5 78.5c54.667 0 107.334 -9 158.001 -27z" />
    <glyph glyph-name="Gbreve" unicode="&#x11e;" horiz-adv-x="585" 
d="M587 613l-43.998 -120.002l-12 -1c-30 18.667 -56.833 32 -80.5 40s-49.834 12 -78.501 12c-66 0 -115.667 -22.5 -149 -67.5s-50 -118.167 -50 -219.5c0 -57.333 11.5 -98.666 34.5 -123.999s59.5 -38 109.5 -38c12.667 0 25 1.16699 37 3.5s27.333 6.5 46 12.5l9 55
l11 105l122 9l-13 -93l-17 -156c-39.333 -14 -75.333 -24.167 -108 -30.5s-66.667 -9.5 -102 -9.5c-86.667 0 -152.834 22.833 -198.501 68.5s-68.5 109.834 -68.5 192.501c0 128 31.5 226.5 94.5 295.5s153.167 103.5 270.5 103.5c70 0 132.333 -12.667 187 -38z
M527.002 825.998c-32.667 -70 -84.3301 -105 -154.997 -105c-36.667 0 -67.334 9 -92.001 27s-41.334 44 -50.001 78l35 41h19c6.66699 -18 18.167 -31.833 34.5 -41.5s36.166 -14.5 59.499 -14.5s44 4.83301 62 14.5s32.333 23.5 43 41.5h19z" />
    <glyph glyph-name="gbreve" unicode="&#x11f;" horiz-adv-x="511" 
d="M462 694c-13.333 -37.333 -33.334 -67.333 -60.001 -90s-59.334 -34 -98.001 -34c-42.667 0 -75.167 11.333 -97.5 34s-35.833 52.667 -40.5 90l34 44h19c4.66699 -25.333 15 -44.5 31 -57.5s36 -19.5 60 -19.5c24.667 0 46.334 6.5 65.001 19.5
s33.334 32.167 44.001 57.5h19zM496.999 484l-45.999 -113h-10c-26 15.333 -48.333 26 -67 32s-39.667 9 -63 9c-50.667 0 -88.5 -15.5 -113.5 -46.5s-37.5 -80.833 -37.5 -149.5c0 -46 8 -78.833 24 -98.5s45.333 -29.5 88 -29.5c12 0 22.667 0.833008 32 2.5
s20.666 5.16699 33.999 10.5l4 33l8 80l113 7l-10 -67l-16 -129c-66.667 -22 -125.667 -33 -177 -33c-74.667 0 -131.334 19 -170.001 57s-58 94.333 -58 169c0 90.667 26.833 162.167 80.5 214.5s129.167 78.5 226.5 78.5c54.667 0 107.334 -9 158.001 -27z" />
    <glyph glyph-name="Gdotaccent" unicode="&#x120;" horiz-adv-x="585" 
d="M587 613l-43.998 -120.002l-12 -1c-30 18.667 -56.833 32 -80.5 40s-49.834 12 -78.501 12c-66 0 -115.667 -22.5 -149 -67.5s-50 -118.167 -50 -219.5c0 -57.333 11.5 -98.666 34.5 -123.999s59.5 -38 109.5 -38c12.667 0 25 1.16699 37 3.5s27.333 6.5 46 12.5l9 55
l11 105l122 9l-13 -93l-17 -156c-39.333 -14 -75.333 -24.167 -108 -30.5s-66.667 -9.5 -102 -9.5c-86.667 0 -152.834 22.833 -198.501 68.5s-68.5 109.834 -68.5 192.501c0 128 31.5 226.5 94.5 295.5s153.167 103.5 270.5 103.5c70 0 132.333 -12.667 187 -38z
M431.002 848.498c11.333 -11.667 16.999 -27.833 16.999 -48.5c0 -22.667 -6.33301 -40.5 -19 -53.5s-29.667 -19.5 -51 -19.5s-37.666 5.83301 -48.999 17.5s-17 28.167 -17 49.5c0 22 6.33301 39.5 19 52.5s30 19.5 52 19.5c20.667 0 36.667 -5.83301 48 -17.5z" />
    <glyph glyph-name="gdotaccent" unicode="&#x121;" horiz-adv-x="511" 
d="M367 710.5c11.333 -11.667 16.999 -27.833 16.999 -48.5c0 -22.667 -6.33301 -40.5 -19 -53.5s-29.667 -19.5 -51 -19.5s-37.666 5.83301 -48.999 17.5s-17 28.167 -17 49.5c0 22 6.33301 39.5 19 52.5s30 19.5 52 19.5c20.667 0 36.667 -5.83301 48 -17.5z
M496.999 484.001l-45.999 -113h-10c-26 15.333 -48.333 26 -67 32s-39.667 9 -63 9c-50.667 0 -88.5 -15.5 -113.5 -46.5s-37.5 -80.833 -37.5 -149.5c0 -46 8 -78.833 24 -98.5s45.333 -29.5 88 -29.5c12 0 22.667 0.833008 32 2.5s20.666 5.16699 33.999 10.5l4 33l8 80
l113 7l-10 -67l-16 -129c-66.667 -22 -125.667 -33 -177 -33c-74.667 0 -131.334 19 -170.001 57s-58 94.333 -58 169c0 90.667 26.833 162.167 80.5 214.5s129.167 78.5 226.5 78.5c54.667 0 107.334 -9 158.001 -27z" />
    <glyph glyph-name="Gcommaaccent" unicode="&#x122;" horiz-adv-x="585" 
d="M587 613l-43.998 -120.002l-12 -1c-30 18.667 -56.833 32 -80.5 40s-49.834 12 -78.501 12c-66 0 -115.667 -22.5 -149 -67.5s-50 -118.167 -50 -219.5c0 -57.333 11.5 -98.666 34.5 -123.999s59.5 -38 109.5 -38c12.667 0 25 1.16699 37 3.5s27.333 6.5 46 12.5l9 55
l11 105l122 9l-13 -93l-17 -156c-39.333 -14 -75.333 -24.167 -108 -30.5s-66.667 -9.5 -102 -9.5c-86.667 0 -152.834 22.833 -198.501 68.5s-68.5 109.834 -68.5 192.501c0 128 31.5 226.5 94.5 295.5s153.167 103.5 270.5 103.5c70 0 132.333 -12.667 187 -38z
M389.002 -113.002c0 -27.333 -9.16699 -54.334 -27.5 -81.001s-46.833 -53.334 -85.5 -80.001l-39 35l-1 9c34.667 28.667 52 59.334 52 92.001c0 21.333 -9.66699 40 -29 56v11c28.667 16.667 58 29.334 88 38.001c28 -22 42 -48.667 42 -80z" />
    <glyph glyph-name="gcommaaccent" unicode="&#x123;" horiz-adv-x="511" 
d="M497 484l-45.999 -113h-10c-26 15.333 -48.333 26 -67 32s-39.667 9 -63 9c-50.667 0 -88.5 -15.5 -113.5 -46.5s-37.5 -80.833 -37.5 -149.5c0 -46 8 -78.833 24 -98.5s45.333 -29.5 88 -29.5c12 0 22.667 0.833008 32 2.5s20.666 5.16699 33.999 10.5l4 33l8 80l113 7
l-10 -67l-16 -129c-66.667 -22 -125.667 -33 -177 -33c-74.667 0 -131.334 19 -170.001 57s-58 94.333 -58 169c0 90.667 26.833 162.167 80.5 214.5s129.167 78.5 226.5 78.5c54.667 0 107.334 -9 158.001 -27zM350.001 -113c0 -27.333 -9.16699 -54.334 -27.5 -81.001
s-46.833 -53.334 -85.5 -80.001l-39 35l-1 9c34.667 28.667 52 59.334 52 92.001c0 21.333 -9.66699 40 -29 56v11c28.667 16.667 58 29.334 88 38.001c28 -22 42 -48.667 42 -80z" />
    <glyph glyph-name="Hcircumflex" unicode="&#x124;" horiz-adv-x="679" 
d="M653 643l-62 -439l-20 -204h-132l31 192l8 76l-142 3l-127 -4l-9 -63l-19 -204h-133l31 192l49 451h134l-37 -265l133 -3l132 3l28 265h135zM262 771c48.667 31.333 94.667 65.667 138 103h27c34.667 -32.667 77 -67 127 -103l-30 -52h-13
c-50 30.667 -83.333 51.667 -100 63c-10.667 -6 -35.667 -19.333 -75 -40l-43 -23h-14z" />
    <glyph glyph-name="hcircumflex" unicode="&#x125;" horiz-adv-x="593" 
d="M218 564l-26 49.001c34.667 29.333 78.667 69.666 132 120.999l21 20h28c30.667 -38.667 72.334 -85.667 125.001 -141l-39 -49h-13c-38.667 34.667 -70.334 65.667 -95.001 93c-22.667 -20 -62.667 -51 -120 -93h-13zM555 505.001l-49 -344l-15 -161h-122l24 150l5 51
l-211 -1l-6 -39l-14 -161h-122l24 150l38 355h124l-29 -202l106 -1l101 1l22 202h124z" />
    <glyph glyph-name="Hbar" unicode="&#x126;" horiz-adv-x="709" 
d="M713 475h-70l-38 -271l-20 -204h-132l31 192l8 76l-142 3l-127 -4l-9 -63l-19 -204h-133l31 192l31 283h-57l-5 7l5 70h65l10 91h134l-13 -91h259l10 91h135l-13 -91h58l6 -8zM514 475h-262l-13 -97l133 -3l132 3z" />
    <glyph glyph-name="hbar" unicode="&#x127;" horiz-adv-x="593" 
d="M587 365h-52l-29 -204l-15 -161h-122l24 150l5 51l-211 -1l-6 -39l-14 -161h-122l24 150l23 215h-54l-5 7l13 61h53l8 72h124l-10 -72h202l8 72h124l-10 -72h50l5 -6zM416 365h-205l-9 -62l106 -1l101 1z" />
    <glyph glyph-name="Imacron" unicode="&#x12a;" horiz-adv-x="289" 
d="M200 204l-19 -204h-133l31 192l49 451h134zM333 829l-7 -73h-224l-9 9l6 73h226z" />
    <glyph glyph-name="imacron" unicode="&#x12b;" horiz-adv-x="275" 
d="M308 690l-7 -73h-224l-9 9l6 73h226zM181 161l-14 -161h-122l24 150l38 355h124z" />
    <glyph glyph-name="Ibreve" unicode="&#x12c;" horiz-adv-x="289" 
d="M200 204l-19 -204h-133l31 192l49 451h134zM360 826c-32.667 -70 -84.3301 -105 -154.997 -105c-36.667 0 -67.334 9 -92.001 27s-41.334 44 -50.001 78l35 41h19c6.66699 -18 18.167 -31.833 34.5 -41.5s36.166 -14.5 59.499 -14.5s44 4.83301 62 14.5
s32.333 23.5 43 41.5h19z" />
    <glyph glyph-name="ibreve" unicode="&#x12d;" horiz-adv-x="275" 
d="M335 694c-13.333 -37.333 -33.334 -67.333 -60.001 -90s-59.334 -34 -98.001 -34c-42.667 0 -75.167 11.333 -97.5 34s-35.833 52.667 -40.5 90l34 44h19c4.66699 -25.333 15 -44.5 31 -57.5s36 -19.5 60 -19.5c24.667 0 46.334 6.5 65.001 19.5
s33.334 32.167 44.001 57.5h19zM180.999 161l-14 -161h-122l24 150l38 355h124z" />
    <glyph glyph-name="Iogonek" unicode="&#x12e;" horiz-adv-x="289" 
d="M200 204l-19 -204h-133l31 192l49 451h134zM93 -70c-13.333 -12.667 -20 -24 -20 -34c0 -12.667 8 -19 24 -19c16.667 0 37.667 9 63 27l6 -2l14 -59c-32.667 -26.667 -65.667 -40 -99 -40c-26.667 0 -48.167 6.66699 -64.5 20s-24.5 31 -24.5 53s8.16699 42.5 24.5 61.5
s43.166 39.833 80.499 62.5h84c-45.333 -34 -74.666 -57.333 -87.999 -70z" />
    <glyph glyph-name="iogonek" unicode="&#x12f;" horiz-adv-x="275" 
d="M231 505l-50 -344l-14 -161c-45.333 -34 -74.666 -57.333 -87.999 -70s-20 -24 -20 -34c0 -12.667 8 -19 24 -19c17.333 0 38.333 9 63 27l6 -2l14 -59c-32.667 -26.667 -65.667 -40 -99 -40c-26.667 0 -48.167 6.66699 -64.5 20s-24.5 31 -24.5 53
s8.16699 42.5 24.5 61.5s43.166 39.833 80.499 62.5h-38l24 150l38 355h124z" />
    <glyph glyph-name="Idotaccent" unicode="&#x130;" horiz-adv-x="289" 
d="M200 204l-19 -204h-133l31 192l49 451h134zM264 848.5c11.333 -11.667 16.999 -27.833 16.999 -48.5c0 -22.667 -6.33301 -40.5 -19 -53.5s-29.667 -19.5 -51 -19.5s-37.666 5.83301 -48.999 17.5s-17 28.167 -17 49.5c0 22 6.33301 39.5 19 52.5s30 19.5 52 19.5
c20.667 0 36.667 -5.83301 48 -17.5z" />
    <glyph glyph-name="dotlessi" unicode="&#x131;" horiz-adv-x="275" 
d="M181 161l-14 -161h-122l24 150l38 355h124z" />
    <glyph glyph-name="IJ" unicode="&#x132;" horiz-adv-x="617" 
d="M200 204l-19 -204h-133l31 192l49 451h134zM524 212l-7.99902 -91.998c-7.33301 -55.333 -27.5 -99.833 -60.5 -133.5s-86.5 -64.5 -160.5 -92.5l-32 70l1 13c43.333 21.333 74.666 42.666 93.999 63.999s31.333 48.666 36 81.999l10 77l37 346l-103 -2l-8 9l17 90h239z
" />
    <glyph glyph-name="ij" unicode="&#x133;" horiz-adv-x="589" 
d="M107 505h124l-50 -344l-14 -161h-122l24 150zM487 166l-6.99902 -71c-6 -44.667 -22.167 -80.5 -48.5 -107.5s-69.833 -52.167 -130.5 -75.5l-32 66l1 10c32 15.333 55.167 31 69.5 47s23.166 37 26.499 63l7 56l28 260l-87 -2l-7 8l19 85h208z" />
    <glyph glyph-name="Jcircumflex" unicode="&#x134;" horiz-adv-x="328" 
d="M235 212l-7.99902 -91.998c-7.33301 -55.333 -27.5 -99.833 -60.5 -133.5s-86.5 -64.5 -160.5 -92.5l-32 70l1 13c43.333 21.333 74.666 42.666 93.999 63.999s31.333 48.666 36 81.999l10 77l37 346l-103 -2l-8 9l17 90h239zM62.001 771.002
c48.667 31.333 94.667 65.667 138 103h27c34.667 -32.667 77 -67 127 -103l-30 -52h-13c-50 30.667 -83.333 51.667 -100 63c-10.667 -6 -35.667 -19.333 -75 -40l-43 -23h-14z" />
    <glyph glyph-name="jcircumflex" unicode="&#x135;" horiz-adv-x="314" 
d="M327 613l-39 -48.999h-13c-38.667 34.667 -70.334 65.667 -95.001 93c-22.667 -20 -62.667 -51 -120 -93h-13l-26 49c34.667 29.333 78.667 69.666 132 120.999l21 20h28c30.667 -38.667 72.334 -85.667 125.001 -141zM212 166.001l-6.99902 -71
c-6 -44.667 -22.167 -80.5 -48.5 -107.5s-69.833 -52.167 -130.5 -75.5l-32 66l1 10c32 15.333 55.167 31 69.5 47s23.166 37 26.499 63l7 56l28 260l-87 -2l-7 8l19 85h208z" />
    <glyph glyph-name="Kcommaaccent" unicode="&#x136;" horiz-adv-x="569" 
d="M352 335c53.333 -94 120.001 -196.334 200.001 -307.001l-4 -15c-40 -10 -84 -17.667 -132 -23l-13 8c-78.667 132.667 -140.334 243.334 -185.001 332.001l-18 -126l-20 -204h-132l31 192l49 451h134l-42 -298l204 237l44 61h142zM367.001 -113.001
c0 -27.333 -9.16699 -54.334 -27.5 -81.001s-46.833 -53.334 -85.5 -80.001l-39 35l-1 9c34.667 28.667 52 59.334 52 92.001c0 21.333 -9.66699 40 -29 56v11c28.667 16.667 58 29.334 88 38.001c28 -22 42 -48.667 42 -80z" />
    <glyph glyph-name="kcommaaccent" unicode="&#x137;" horiz-adv-x="511" 
d="M317 264c46.667 -76.667 102.001 -155.999 166.001 -237.999l-5 -14c-42 -9.33301 -83 -16 -123 -20l-13 7c-54.667 89.333 -103.334 173.666 -146.001 252.999l-13 -91l-16 -161h-123l25 150l38 355h125l-33 -230l159 179l36 51h131zM320.001 -112.999
c0 -27.333 -9.16699 -54.334 -27.5 -81.001s-46.833 -53.334 -85.5 -80.001l-39 35l-1 9c34.667 28.667 52 59.334 52 92.001c0 21.333 -9.66699 40 -29 56v11c28.667 16.667 58 29.334 88 38.001c28 -22 42 -48.667 42 -80z" />
    <glyph glyph-name="kgreenlandic" unicode="&#x138;" horiz-adv-x="511" 
d="M317 264c46.667 -76.667 102.001 -155.999 166.001 -237.999l-5 -14c-42 -9.33301 -83 -16 -123 -20l-13 7c-54.667 89.333 -103.334 173.666 -146.001 252.999l-13 -91l-16 -161h-123l25 150l38 355h125l-33 -230l159 179l36 51h131z" />
    <glyph glyph-name="Lacute" unicode="&#x139;" horiz-adv-x="423" 
d="M405 99l-21 -99h-338l31 192l49 451h134l-61 -439l-9 -95h209zM306 884l32.999 -77l-4 -12c-59.333 -23.333 -130.666 -49.333 -213.999 -78l-13 4l-21 54c72 36 141 73.333 207 112z" />
    <glyph glyph-name="lacute" unicode="&#x13a;" horiz-adv-x="383" 
d="M98 561l-32 49c63.333 49.333 123.333 100 180 152l12 -1l47 -70l-2 -12c-74.667 -48 -139 -87.667 -193 -119zM351 92l-20 -92h-289l25 150l38 355h124l-50 -344l-6 -60h172z" />
    <glyph glyph-name="Lcommaaccent" unicode="&#x13b;" horiz-adv-x="423" 
d="M405 99l-21 -99h-338l31 192l49 451h134l-61 -439l-9 -95h209zM281 -113c0 -27.333 -9.16699 -54.334 -27.5 -81.001s-46.833 -53.334 -85.5 -80.001l-39 35l-1 9c34.667 28.667 52 59.334 52 92.001c0 21.333 -9.66699 40 -29 56v11c28.667 16.667 58 29.334 88 38.001
c28 -22 42 -48.667 42 -80z" />
    <glyph glyph-name="lcommaaccent" unicode="&#x13c;" horiz-adv-x="383" 
d="M351 92l-20 -92h-289l25 150l38 355h124l-50 -344l-6 -60h172zM266 -113c0 -27.333 -9.16699 -54.334 -27.5 -81.001s-46.833 -53.334 -85.5 -80.001l-39 35l-1 9c34.667 28.667 52 59.334 52 92.001c0 21.333 -9.66699 40 -29 56v11c28.667 16.667 58 29.334 88 38.001
c28 -22 42 -48.667 42 -80z" />
    <glyph glyph-name="Lcaron" unicode="&#x13d;" horiz-adv-x="471" 
d="M405 99l-21 -99h-338l31 192l49 451h134l-61 -439l-9 -95h209zM476 589l-56 -198l-59 -9l-7 7l23 203l94 5z" />
    <glyph glyph-name="lcaron" unicode="&#x13e;" horiz-adv-x="408" 
d="M345 101l6 -9l-20 -92h-289l25 150l38 355h124l-50 -344l-6 -60h172zM434 479l-56 -198l-59 -9l-7 7l23 203l94 5z" />
    <glyph glyph-name="Ldot" unicode="&#x13f;" horiz-adv-x="444" 
d="M405 99l-21 -99h-338l31 192l49 451h134l-61 -439l-9 -95h209zM418 439.5c11.333 -11.667 16.999 -27.833 16.999 -48.5c0 -22.667 -6.33301 -40.5 -19 -53.5s-29.667 -19.5 -51 -19.5s-37.666 5.83301 -48.999 17.5s-17 28.167 -17 49.5c0 22 6.33301 39.5 19 52.5
s30 19.5 52 19.5c20.667 0 36.667 -5.83301 48 -17.5z" />
    <glyph glyph-name="ldot" unicode="&#x140;" horiz-adv-x="414" 
d="M345 101l6 -9l-20 -92h-289l25 150l38 355h124l-50 -344l-6 -60h172zM381 361.5c11.333 -11.667 16.999 -28.167 16.999 -49.5c0 -22 -6.33301 -39.5 -19 -52.5s-29.667 -19.5 -51 -19.5s-37.666 5.83301 -48.999 17.5s-17 28.167 -17 49.5c0 22 6.33301 39.5 19 52.5
s30 19.5 52 19.5c20.667 0 36.667 -5.83301 48 -17.5z" />
    <glyph glyph-name="Lslash" unicode="&#x141;" horiz-adv-x="430" 
d="M412 99l-21 -99h-338l31 192l6 58l-62 -31l-11 6l-14 77l98 49l32 292h134l-32 -226l106 53l12 -6l14 -77l-146 -73l-16 -110l-9 -95h210z" />
    <glyph glyph-name="lslash" unicode="&#x142;" horiz-adv-x="386" 
d="M347 92l-20 -92h-289l24 150l4 42l-52 -22l-9 7l-3 68l73 30l25 230h124l-26 -180l112 45l8 -6l2 -68l-134 -55l-11 -80l-6 -60h171z" />
    <glyph glyph-name="Nacute" unicode="&#x143;" horiz-adv-x="678" 
d="M590 198l-19 -198h-142l-200 441h-9l-28 -220l-22 -221h-121l30 190l50 453h142l200 -441h9l51 436l123 8zM505 884l32.999 -77l-4 -12c-59.333 -23.333 -130.666 -49.333 -213.999 -78l-13 4l-21 54c72 36 141 73.333 207 112z" />
    <glyph glyph-name="nacute" unicode="&#x144;" horiz-adv-x="594" 
d="M420 761l47 -70l-2 -12c-74.667 -48 -139 -87.667 -193 -119l-12 1l-32 49c63.333 49.333 123.333 100 180 152zM505 158l-15 -158h-131l-162 320h-6l-19 -144l-18 -176h-110l24 148l39 357h130l163 -321h8l35 316l113 7z" />
    <glyph glyph-name="Ncommaaccent" unicode="&#x145;" horiz-adv-x="678" 
d="M590 198l-19 -198h-142l-200 441h-9l-28 -220l-22 -221h-121l30 190l50 453h142l200 -441h9l51 436l123 8zM386 -113c0 -27.333 -9.16699 -54.334 -27.5 -81.001s-46.833 -53.334 -85.5 -80.001l-39 35l-1 9c34.667 28.667 52 59.334 52 92.001
c0 21.333 -9.66699 40 -29 56v11c28.667 16.667 58 29.334 88 38.001c28 -22 42 -48.667 42 -80z" />
    <glyph glyph-name="ncommaaccent" unicode="&#x146;" horiz-adv-x="594" 
d="M505 158l-15 -158h-131l-162 320h-6l-19 -144l-18 -176h-110l24 148l39 357h130l163 -321h8l35 316l113 7zM341 -113c0 -27.333 -9.16699 -54.334 -27.5 -81.001s-46.833 -53.334 -85.5 -80.001l-39 35l-1 9c34.667 28.667 52 59.334 52 92.001
c0 21.333 -9.66699 40 -29 56v11c28.667 16.667 58 29.334 88 38.001c28 -22 42 -48.667 42 -80z" />
    <glyph glyph-name="Ncaron" unicode="&#x147;" horiz-adv-x="678" 
d="M590 198l-19 -198h-142l-200 441h-9l-28 -220l-22 -221h-121l30 190l50 453h142l200 -441h9l51 436l123 8zM555 821c-48.667 -31.333 -94.667 -65.667 -138 -103h-27c-34.667 32.667 -77 67 -127 103l30 52h13c50 -30.667 83.333 -51.667 100 -63
c10.667 6 35.667 19.333 75 40l43 23h14z" />
    <glyph glyph-name="ncaron" unicode="&#x148;" horiz-adv-x="594" 
d="M500 705c-34.667 -29.333 -78.667 -69.667 -132 -121l-21 -20h-28c-30.667 38.667 -72.334 85.667 -125.001 141l39 49h13c38.667 -34.667 70.334 -65.667 95.001 -93c22.667 20 62.667 51 120 93h13zM505 157.999l-15 -158h-131l-162 320h-6l-19 -144l-18 -176h-110
l24 148l39 357h130l163 -321h8l35 316l113 7z" />
    <glyph glyph-name="Eng" unicode="&#x14a;" horiz-adv-x="685" 
d="M592 198l-13.001 -142c-5.33301 -37.333 -15.833 -69.333 -31.5 -96s-38.5 -50.334 -68.5 -71.001s-70.333 -40.334 -121 -59.001l-32 70l2 13c28.667 14.667 51.834 28.834 69.501 42.501s31.167 28.834 40.5 45.501l-209 440h-9l-27 -220l-23 -221h-121l31 190l49 453
h143l202 -431h9l48 426l124 8z" />
    <glyph glyph-name="eng" unicode="&#x14b;" horiz-adv-x="594" 
d="M504 159l-11.0029 -119c-5.33301 -42.667 -19.666 -76.834 -42.999 -102.501s-61.666 -49.5 -114.999 -71.5l-33 51l1 11c18 10.667 32.333 21.334 43 32.001s18.334 22.667 23.001 36l-170 322h-8l-17 -142l-18 -176h-111l24 148l39 357h132l159 -305h8l34 300l114 7z
" />
    <glyph glyph-name="Omacron" unicode="&#x14c;" horiz-adv-x="631" 
d="M553.5 583.5c43.667 -45.667 65.499 -112.169 65.499 -199.502c0 -78.667 -13 -147.667 -39 -207s-64 -105.333 -114 -138s-110 -49 -180 -49c-78.667 0 -139.834 23.5 -183.501 70.5s-65.5 114.5 -65.5 202.5c0 78.667 12.833 147.334 38.5 206.001
s63.334 103.834 113.001 135.501s109.834 47.5 180.501 47.5c79.333 0 140.833 -22.833 184.5 -68.5zM218.499 478.498c-29.667 -44.333 -44.499 -115.166 -44.499 -212.499c0 -60.667 9.83301 -104.834 29.5 -132.501s51.5 -41.5 95.5 -41.5c60 0 105 22.333 135 67
s45 116 45 214c0 60.667 -9.83301 104.5 -29.5 131.5s-51.834 40.5 -96.501 40.5c-60 0 -104.833 -22.167 -134.5 -66.5zM531 828.998l-6 -73h-281l-8 9l7 73h280z" />
    <glyph glyph-name="omacron" unicode="&#x14d;" horiz-adv-x="552" 
d="M472 690l-6 -73h-281l-8 9l7 73h280zM469.5 457c37 -36.667 55.5 -92.334 55.5 -167.001c0 -58 -11 -109.667 -33 -155s-54 -80.666 -96 -105.999s-92 -38 -150 -38c-68.667 0 -121.5 18.833 -158.5 56.5s-55.5 94.167 -55.5 169.5c0 58 11 109.167 33 153.5
s54 79 96 104s92.333 37.5 151 37.5c68 0 120.5 -18.333 157.5 -55zM194 368.5c-22.667 -29.667 -34 -79.167 -34 -148.5c0 -49.333 7.5 -83.833 22.5 -103.5s40.833 -29.5 77.5 -29.5c46 0 80.167 15 102.5 45s33.5 79.333 33.5 148c0 49.333 -7.33301 83.833 -22 103.5
s-40.667 29.5 -78 29.5c-45.333 0 -79.333 -14.833 -102 -44.5z" />
    <glyph glyph-name="Obreve" unicode="&#x14e;" horiz-adv-x="631" 
d="M553.5 583.5c43.667 -45.667 65.499 -112.169 65.499 -199.502c0 -78.667 -13 -147.667 -39 -207s-64 -105.333 -114 -138s-110 -49 -180 -49c-78.667 0 -139.834 23.5 -183.501 70.5s-65.5 114.5 -65.5 202.5c0 78.667 12.833 147.334 38.5 206.001
s63.334 103.834 113.001 135.501s109.834 47.5 180.501 47.5c79.333 0 140.833 -22.833 184.5 -68.5zM218.499 478.498c-29.667 -44.333 -44.499 -115.166 -44.499 -212.499c0 -60.667 9.83301 -104.834 29.5 -132.501s51.5 -41.5 95.5 -41.5c60 0 105 22.333 135 67
s45 116 45 214c0 60.667 -9.83301 104.5 -29.5 131.5s-51.834 40.5 -96.501 40.5c-60 0 -104.833 -22.167 -134.5 -66.5zM532 825.998c-32.667 -70 -84.3301 -105 -154.997 -105c-36.667 0 -67.334 9 -92.001 27s-41.334 44 -50.001 78l35 41h19
c6.66699 -18 18.167 -31.833 34.5 -41.5s36.166 -14.5 59.499 -14.5s44 4.83301 62 14.5s32.333 23.5 43 41.5h19z" />
    <glyph glyph-name="obreve" unicode="&#x14f;" horiz-adv-x="552" 
d="M472 694c-13.333 -37.333 -33.334 -67.333 -60.001 -90s-59.334 -34 -98.001 -34c-42.667 0 -75.167 11.333 -97.5 34s-35.833 52.667 -40.5 90l34 44h19c4.66699 -25.333 15 -44.5 31 -57.5s36 -19.5 60 -19.5c24.667 0 46.334 6.5 65.001 19.5
s33.334 32.167 44.001 57.5h19zM469.499 457c37 -36.667 55.5 -92.334 55.5 -167.001c0 -58 -11 -109.667 -33 -155s-54 -80.666 -96 -105.999s-92 -38 -150 -38c-68.667 0 -121.5 18.833 -158.5 56.5s-55.5 94.167 -55.5 169.5c0 58 11 109.167 33 153.5s54 79 96 104
s92.333 37.5 151 37.5c68 0 120.5 -18.333 157.5 -55zM193.999 368.5c-22.667 -29.667 -34 -79.167 -34 -148.5c0 -49.333 7.5 -83.833 22.5 -103.5s40.833 -29.5 77.5 -29.5c46 0 80.167 15 102.5 45s33.5 79.333 33.5 148c0 49.333 -7.33301 83.833 -22 103.5
s-40.667 29.5 -78 29.5c-45.333 0 -79.333 -14.833 -102 -44.5z" />
    <glyph glyph-name="Ohungarumlaut" unicode="&#x150;" horiz-adv-x="631" 
d="M553.5 583.5c43.667 -45.667 65.499 -112.169 65.499 -199.502c0 -78.667 -13 -147.667 -39 -207s-64 -105.333 -114 -138s-110 -49 -180 -49c-78.667 0 -139.834 23.5 -183.501 70.5s-65.5 114.5 -65.5 202.5c0 78.667 12.833 147.334 38.5 206.001
s63.334 103.834 113.001 135.501s109.834 47.5 180.501 47.5c79.333 0 140.833 -22.833 184.5 -68.5zM218.499 478.498c-29.667 -44.333 -44.499 -115.166 -44.499 -212.499c0 -60.667 9.83301 -104.834 29.5 -132.501s51.5 -41.5 95.5 -41.5c60 0 105 22.333 135 67
s45 116 45 214c0 60.667 -9.83301 104.5 -29.5 131.5s-51.834 40.5 -96.501 40.5c-60 0 -104.833 -22.167 -134.5 -66.5zM274 782.998c36.667 44.667 62.333 77.332 77 97.999l10 3l60 -40l1 -11c-40 -39.333 -81.333 -77.666 -124 -114.999l-11 -3l-41 33zM419.999 772.996
l85 108l10 3l60 -40l1 -11c-32 -32 -73.333 -70.333 -124 -115l-11 -3l-41 33z" />
    <glyph glyph-name="ohungarumlaut" unicode="&#x151;" horiz-adv-x="552" 
d="M315 764l9.99902 2l59 -43l2 -10c-42 -46 -90.333 -96 -145 -150l-11 -3l-40 34c50.667 66 92.334 122.667 125.001 170zM466.999 764l9 2l60 -43l1 -10c-42 -46 -90.333 -96 -145 -150l-10 -3l-40 34zM469.499 457c37 -36.667 55.5 -92.334 55.5 -167.001
c0 -58 -11 -109.667 -33 -155s-54 -80.666 -96 -105.999s-92 -38 -150 -38c-68.667 0 -121.5 18.833 -158.5 56.5s-55.5 94.167 -55.5 169.5c0 58 11 109.167 33 153.5s54 79 96 104s92.333 37.5 151 37.5c68 0 120.5 -18.333 157.5 -55zM193.999 368.5
c-22.667 -29.667 -34 -79.167 -34 -148.5c0 -49.333 7.5 -83.833 22.5 -103.5s40.833 -29.5 77.5 -29.5c46 0 80.167 15 102.5 45s33.5 79.333 33.5 148c0 49.333 -7.33301 83.833 -22 103.5s-40.667 29.5 -78 29.5c-45.333 0 -79.333 -14.833 -102 -44.5z" />
    <glyph glyph-name="OE" unicode="&#x152;" horiz-adv-x="847" 
d="M494 649c36 -4 62.668 -6.00098 80.001 -6.00098h300l7 -10l-22 -99l-146 5h-117l-20 -160l103 -1l107 3l6 -10l-22 -99l-113 3l-98 -1l-8 -72l-11 -97l107 -1l158 5l7 -10l-21 -99h-297c-24.667 0.666992 -58 -1.33301 -100 -6c-44 -4 -77.333 -6 -100 -6
c-82.667 0 -146.334 23.833 -191.001 71.5s-67 114.834 -67 201.501c0 80.667 14.5 150.667 43.5 210s70.667 104.833 125 136.5s118.5 47.5 192.5 47.5c24.667 0 57 -2 97 -6zM223.001 479.999c-32.667 -45.333 -48.998 -116.999 -48.998 -214.999
c0 -59.333 11.667 -103.333 35 -132s59.666 -43 108.999 -43c17.333 0 33.166 1.16699 47.499 3.5s25.166 5.16602 32.499 8.49902c8 3.33301 14 8.33301 18 15s6.66699 16 8 28l38 347c0.666992 4.66699 1 10.667 1 18c0 12.667 -2.66699 20.667 -8 24
c-5.33301 4 -15.666 7.33301 -30.999 10s-32.666 4 -51.999 4c-66.667 0 -116.334 -22.667 -149.001 -68z" />
    <glyph glyph-name="oe" unicode="&#x153;" horiz-adv-x="733" 
d="M416 509c33.333 -2.66699 56.665 -4.00098 69.998 -4.00098h254l5 -10l-20 -91l-123 5h-95l-13 -105l84 -1l88 3l6 -9l-19 -92l-94 3l-80 -1l-6 -47l-7 -64h88l132 4l6 -9l-20 -91h-248c-13.333 0.666992 -28.5 0.333984 -45.5 -0.999023s-28.5 -2.33301 -34.5 -3
c-30 -3.33301 -58.333 -5 -85 -5c-71.333 0 -126.833 18.833 -166.5 56.5s-59.5 90.5 -59.5 158.5c0 96 25.833 171.333 77.5 226s123.834 82 216.501 82c12.667 0 42.334 -1.66699 89.001 -5zM196.999 366.499c-24 -31 -35.9971 -83.165 -35.9971 -156.498
c0 -43.333 8.83301 -74.833 26.5 -94.5s45.834 -29.5 84.501 -29.5c15.333 0 29.166 1 41.499 3s20.833 4.33301 25.5 7c5.33301 2.66699 9.16602 6.66699 11.499 12s4.16602 13.333 5.49902 24l26 236c0.666992 3.33301 1 7.66602 1 12.999c0 9.33301 -2.33301 16 -7 20
c-4.66699 3.33301 -12.834 6.16602 -24.501 8.49902s-25.167 3.5 -40.5 3.5c-52 0 -90 -15.5 -114 -46.5z" />
    <glyph glyph-name="Racute" unicode="&#x154;" horiz-adv-x="574" 
d="M513 349.5c-25.333 -39.667 -60.334 -71.499 -105.001 -95.499c36 -74.667 77 -149 123 -223l-3 -15c-45.333 -14.667 -89.666 -23.334 -132.999 -26.001l-12 10c-32.667 75.333 -62 148.333 -88 219h-93l-2 -15l-19 -204h-133l31 192l50 451l232 1
c59.333 0 105.833 -14.167 139.5 -42.5s50.5 -68.5 50.5 -120.5c0 -48 -12.667 -91.833 -38 -131.5zM216.999 321.001l95 -3.99902c66.667 22.667 100 70 100 142c0 55.333 -32.333 84.666 -97 87.999l-66 -3zM429.999 900.002l47 -70l-2 -12
c-74.667 -48 -139 -87.667 -193 -119l-12 1l-32 49c63.333 49.333 123.333 100 180 152z" />
    <glyph glyph-name="racute" unicode="&#x155;" horiz-adv-x="513" 
d="M208 561l-32 49c63.333 49.333 123.333 100 180 152l12 -1l47 -70l-2 -12c-74.667 -48 -139 -87.667 -193 -119zM445.5 271c-20.333 -29.333 -48.5 -53.332 -84.5 -71.999c28.667 -53.333 63 -110 103 -170l-5 -14c-40.667 -12.667 -80.667 -20.334 -120 -23.001l-16 12
c-28 63.333 -50 117 -66 161l-75 -1l-1 -3l-15 -161h-122l24 150l39 355h205c50.667 0 90.667 -12 120 -36s44 -57.333 44 -100c0 -36 -10.167 -68.667 -30.5 -98zM195 258.001l76 -3.99805c49.333 16.667 74 49 74 97c0 21.333 -5.66699 37.166 -17 47.499
s-29.333 16.166 -54 17.499l-56 -3z" />
    <glyph glyph-name="Rcommaaccent" unicode="&#x156;" horiz-adv-x="574" 
d="M513 349.5c-25.333 -39.667 -60.334 -71.499 -105.001 -95.499c36 -74.667 77 -149 123 -223l-3 -15c-45.333 -14.667 -89.666 -23.334 -132.999 -26.001l-12 10c-32.667 75.333 -62 148.333 -88 219h-93l-2 -15l-19 -204h-133l31 192l50 451l232 1
c59.333 0 105.833 -14.167 139.5 -42.5s50.5 -68.5 50.5 -120.5c0 -48 -12.667 -91.833 -38 -131.5zM216.999 321.001l95 -3.99902c66.667 22.667 100 70 100 142c0 55.333 -32.333 84.666 -97 87.999l-66 -3zM332.999 -112.998c0 -27.333 -9.16699 -54.334 -27.5 -81.001
s-46.833 -53.334 -85.5 -80.001l-39 35l-1 9c34.667 28.667 52 59.334 52 92.001c0 21.333 -9.66699 40 -29 56v11c28.667 16.667 58 29.334 88 38.001c28 -22 42 -48.667 42 -80z" />
    <glyph glyph-name="rcommaaccent" unicode="&#x157;" horiz-adv-x="513" 
d="M445.5 271c-20.333 -29.333 -48.5 -53.332 -84.5 -71.999c28.667 -53.333 63 -110 103 -170l-5 -14c-40.667 -12.667 -80.667 -20.334 -120 -23.001l-16 12c-28 63.333 -50 117 -66 161l-75 -1l-1 -3l-15 -161h-122l24 150l39 355h205c50.667 0 90.667 -12 120 -36
s44 -57.333 44 -100c0 -36 -10.167 -68.667 -30.5 -98zM195 258.001l76 -3.99805c49.333 16.667 74 49 74 97c0 21.333 -5.66699 37.166 -17 47.499s-29.333 16.166 -54 17.499l-56 -3zM319 -112.997c0 -27.333 -9.16699 -54.334 -27.5 -81.001
s-46.833 -53.334 -85.5 -80.001l-39 35l-1 9c34.667 28.667 52 59.334 52 92.001c0 21.333 -9.66699 40 -29 56v11c28.667 16.667 58 29.334 88 38.001c28 -22 42 -48.667 42 -80z" />
    <glyph glyph-name="Rcaron" unicode="&#x158;" horiz-adv-x="574" 
d="M513 349.5c-25.333 -39.667 -60.334 -71.499 -105.001 -95.499c36 -74.667 77 -149 123 -223l-3 -15c-45.333 -14.667 -89.666 -23.334 -132.999 -26.001l-12 10c-32.667 75.333 -62 148.333 -88 219h-93l-2 -15l-19 -204h-133l31 192l50 451l232 1
c59.333 0 105.833 -14.167 139.5 -42.5s50.5 -68.5 50.5 -120.5c0 -48 -12.667 -91.833 -38 -131.5zM216.999 321.001l95 -3.99902c66.667 22.667 100 70 100 142c0 55.333 -32.333 84.666 -97 87.999l-66 -3zM509.999 844.002c-34.667 -29.333 -78.667 -69.667 -132 -121
l-21 -20h-28c-30.667 38.667 -72.334 85.667 -125.001 141l39 49h13c38.667 -34.667 70.334 -65.667 95.001 -93c22.667 20 62.667 51 120 93h13z" />
    <glyph glyph-name="rcaron" unicode="&#x159;" horiz-adv-x="513" 
d="M267 564c-30.667 38.667 -72.334 85.666 -125.001 140.999l39 49h13c38.667 -34.667 70.334 -65.667 95.001 -93c22.667 20 62.667 51 120 93h13l26 -49c-34.667 -29.333 -78.667 -69.666 -132 -120.999l-21 -20h-28zM445.5 270.999
c-20.333 -29.333 -48.5 -53.332 -84.5 -71.999c28.667 -53.333 63 -110 103 -170l-5 -14c-40.667 -12.667 -80.667 -20.334 -120 -23.001l-16 12c-28 63.333 -50 117 -66 161l-75 -1l-1 -3l-15 -161h-122l24 150l39 355h205c50.667 0 90.667 -12 120 -36s44 -57.333 44 -100
c0 -36 -10.167 -68.667 -30.5 -98zM195 258l76 -3.99805c49.333 16.667 74 49 74 97c0 21.333 -5.66699 37.166 -17 47.499s-29.333 16.166 -54 17.499l-56 -3z" />
    <glyph glyph-name="Sacute" unicode="&#x15a;" horiz-adv-x="485" 
d="M483 619l-34.998 -114.003l-20 -8c-20.667 16 -42.334 28.5 -65.001 37.5s-44 13.5 -64 13.5c-27.333 0 -49.666 -7.16699 -66.999 -21.5s-26 -31.5 -26 -51.5c0 -18.667 7.66699 -34.667 23 -48s39.666 -29.333 72.999 -48c30.667 -17.333 56 -33.166 76 -47.499
s37 -32.666 51 -54.999s21 -48.5 21 -78.5c0 -38 -10.833 -72.667 -32.5 -104s-51.834 -56.333 -90.501 -75s-82 -28 -130 -28c-31.333 0 -63.333 3.5 -96 10.5s-63.334 17.5 -92.001 31.5l32 122l15 8c24 -23.333 50.5 -41 79.5 -53s56.167 -18 81.5 -18
c30 0 53.833 7.33301 71.5 22s26.5 32.667 26.5 54c0 20 -7.83301 36.833 -23.5 50.5s-40.167 29.834 -73.5 48.501c-30 16.667 -54.667 32 -74 46s-35.833 32 -49.5 54s-20.5 48.333 -20.5 79c0 38 10.667 72.833 32 104.5s50.833 56.5 88.5 74.5s79.834 27 126.501 27
c54.667 0 108.667 -11 162 -33zM388.002 899.997l47 -70l-2 -12c-74.667 -48 -139 -87.667 -193 -119l-12 1l-32 49c63.333 49.333 123.333 100 180 152z" />
    <glyph glyph-name="sacute" unicode="&#x15b;" horiz-adv-x="436" 
d="M340 761l47 -70l-2 -12c-74.667 -48 -139 -87.667 -193 -119l-12 1l-32 49c63.333 49.333 123.333 100 180 152zM342.5 505c23.667 -4.66699 45.4971 -11.0029 65.4971 -19.0029l-30 -109l-19 -5c-18 15.333 -36.333 27 -55 35s-36.334 12 -53.001 12
c-19.333 0 -34.666 -5 -45.999 -15s-17 -22 -17 -36c0 -13.333 6 -24.333 18 -33s30.667 -18.667 56 -30s46.333 -22.166 63 -32.499s31 -24.333 43 -42s18 -39.5 18 -65.5c0 -29.333 -7.83301 -57.166 -23.5 -83.499s-39.5 -47.833 -71.5 -64.5s-71 -25 -117 -25
c-24.667 0 -51.167 2.5 -79.5 7.5s-54.5 12.833 -78.5 23.5l28 115l14 8c19.333 -20 41.833 -35.833 67.5 -47.5s48.834 -17.5 69.501 -17.5c19.333 0 35.5 5.33301 48.5 16s19.5 23.334 19.5 38.001c0 13.333 -6.16699 24.5 -18.5 33.5s-31.166 19.167 -56.499 30.5
c-26 12 -47.167 23.167 -63.5 33.5s-30.5 24.333 -42.5 42s-18 39.5 -18 65.5c0 31.333 8.5 60 25.5 86s41.333 46.833 73 62.5s68.5 23.5 110.5 23.5c22.667 0 45.834 -2.33301 69.501 -7z" />
    <glyph glyph-name="Scircumflex" unicode="&#x15c;" horiz-adv-x="485" 
d="M483 619l-34.998 -114.003l-20 -8c-20.667 16 -42.334 28.5 -65.001 37.5s-44 13.5 -64 13.5c-27.333 0 -49.666 -7.16699 -66.999 -21.5s-26 -31.5 -26 -51.5c0 -18.667 7.66699 -34.667 23 -48s39.666 -29.333 72.999 -48c30.667 -17.333 56 -33.166 76 -47.499
s37 -32.666 51 -54.999s21 -48.5 21 -78.5c0 -38 -10.833 -72.667 -32.5 -104s-51.834 -56.333 -90.501 -75s-82 -28 -130 -28c-31.333 0 -63.333 3.5 -96 10.5s-63.334 17.5 -92.001 31.5l32 122l15 8c24 -23.333 50.5 -41 79.5 -53s56.167 -18 81.5 -18
c30 0 53.833 7.33301 71.5 22s26.5 32.667 26.5 54c0 20 -7.83301 36.833 -23.5 50.5s-40.167 29.834 -73.5 48.501c-30 16.667 -54.667 32 -74 46s-35.833 32 -49.5 54s-20.5 48.333 -20.5 79c0 38 10.667 72.833 32 104.5s50.833 56.5 88.5 74.5s79.834 27 126.501 27
c54.667 0 108.667 -11 162 -33zM160.002 751.997c34.667 29.333 78.667 69.667 132 121l21 20h28c30.667 -38.667 72.334 -85.667 125.001 -141l-39 -49h-13c-38.667 34.667 -70.334 65.667 -95.001 93c-22.667 -20 -62.667 -51 -120 -93h-13z" />
    <glyph glyph-name="scircumflex" unicode="&#x15d;" horiz-adv-x="436" 
d="M112 613c34.667 29.333 78.667 69.667 132 121l21 20h28c30.667 -38.667 72.334 -85.667 125.001 -141l-39 -49h-13c-38.667 34.667 -70.334 65.667 -95.001 93c-22.667 -20 -62.667 -51 -120 -93h-13zM342.5 505.001c23.667 -4.66699 45.4971 -11.0029 65.4971 -19.0029
l-30 -109l-19 -5c-18 15.333 -36.333 27 -55 35s-36.334 12 -53.001 12c-19.333 0 -34.666 -5 -45.999 -15s-17 -22 -17 -36c0 -13.333 6 -24.333 18 -33s30.667 -18.667 56 -30s46.333 -22.166 63 -32.499s31 -24.333 43 -42s18 -39.5 18 -65.5
c0 -29.333 -7.83301 -57.166 -23.5 -83.499s-39.5 -47.833 -71.5 -64.5s-71 -25 -117 -25c-24.667 0 -51.167 2.5 -79.5 7.5s-54.5 12.833 -78.5 23.5l28 115l14 8c19.333 -20 41.833 -35.833 67.5 -47.5s48.834 -17.5 69.501 -17.5c19.333 0 35.5 5.33301 48.5 16
s19.5 23.334 19.5 38.001c0 13.333 -6.16699 24.5 -18.5 33.5s-31.166 19.167 -56.499 30.5c-26 12 -47.167 23.167 -63.5 33.5s-30.5 24.333 -42.5 42s-18 39.5 -18 65.5c0 31.333 8.5 60 25.5 86s41.333 46.833 73 62.5s68.5 23.5 110.5 23.5
c22.667 0 45.834 -2.33301 69.501 -7z" />
    <glyph glyph-name="Scedilla" unicode="&#x15e;" horiz-adv-x="485" 
d="M483 619l-34.998 -114.003l-20 -8c-20.667 16 -42.334 28.5 -65.001 37.5s-44 13.5 -64 13.5c-27.333 0 -49.666 -7.16699 -66.999 -21.5s-26 -31.5 -26 -51.5c0 -18.667 7.66699 -34.667 23 -48s39.666 -29.333 72.999 -48c30.667 -17.333 56 -33.166 76 -47.499
s37 -32.666 51 -54.999s21 -48.5 21 -78.5c0 -38 -10.833 -72.667 -32.5 -104s-51.834 -56.333 -90.501 -75s-82 -28 -130 -28c-31.333 0 -63.333 3.5 -96 10.5s-63.334 17.5 -92.001 31.5l32 122l15 8c24 -23.333 50.5 -41 79.5 -53s56.167 -18 81.5 -18
c30 0 53.833 7.33301 71.5 22s26.5 32.667 26.5 54c0 20 -7.83301 36.833 -23.5 50.5s-40.167 29.834 -73.5 48.501c-30 16.667 -54.667 32 -74 46s-35.833 32 -49.5 54s-20.5 48.333 -20.5 79c0 38 10.667 72.833 32 104.5s50.833 56.5 88.5 74.5s79.834 27 126.501 27
c54.667 0 108.667 -11 162 -33zM233.002 -48.0029l34.001 -19c14.667 -8 25.167 -16.833 31.5 -26.5s9.5 -20.5 9.5 -32.5c0 -22 -8.66699 -40 -26 -54s-40 -21 -68 -21c-30 0 -57 9.66699 -81 29l9 55l6 2c21.333 -20 40.666 -30 57.999 -30c16.667 0 25 7.33301 25 22
c0 4.66699 -1.33301 8.5 -4 11.5s-7 5.83301 -13 8.5l-49 28l23 100h63z" />
    <glyph glyph-name="scedilla" unicode="&#x15f;" horiz-adv-x="436" 
d="M206 335c12 -8.66699 30.6641 -18.6689 55.9971 -30.002s46.333 -22.166 63 -32.499s31 -24.333 43 -42s18 -39.5 18 -65.5c0 -39.333 -13.667 -75 -41 -107s-66.333 -52.333 -117 -61l-11 -45l34 -19c14.667 -8 25.167 -16.833 31.5 -26.5s9.5 -20.5 9.5 -32.5
c0 -22 -8.66699 -40 -26 -54s-40 -21 -68 -21c-30 0 -57 9.66699 -81 29l9 55l6 2c21.333 -20 40.666 -30 57.999 -30c16.667 0 25 7.33301 25 22c0 4.66699 -1.33301 8.5 -4 11.5s-7 5.83301 -13 8.5l-49 28l15 67c-23.333 0.666992 -48.166 3.5 -74.499 8.5
s-50.833 12.5 -73.5 22.5l28 115l14 8c19.333 -20 41.833 -35.833 67.5 -47.5s48.834 -17.5 69.501 -17.5c19.333 0 35.5 5.33301 48.5 16s19.5 23.334 19.5 38.001c0 13.333 -6.16699 24.5 -18.5 33.5s-31.166 19.167 -56.499 30.5c-26 12 -47.167 23.167 -63.5 33.5
s-30.5 24.333 -42.5 42s-18 39.5 -18 65.5c0 31.333 8.5 60 25.5 86s41.333 46.833 73 62.5s68.5 23.5 110.5 23.5c22.667 0 45.834 -2.33301 69.501 -7s45.5 -11 65.5 -19l-30 -109l-19 -5c-18 15.333 -36.333 27 -55 35s-36.334 12 -53.001 12
c-19.333 0 -34.666 -5 -45.999 -15s-17 -22 -17 -36c0 -13.333 6 -24.333 18 -33z" />
    <glyph glyph-name="Scaron" unicode="&#x160;" horiz-adv-x="485" 
d="M483 619l-34.998 -114.003l-20 -8c-20.667 16 -42.334 28.5 -65.001 37.5s-44 13.5 -64 13.5c-27.333 0 -49.666 -7.16699 -66.999 -21.5s-26 -31.5 -26 -51.5c0 -18.667 7.66699 -34.667 23 -48s39.666 -29.333 72.999 -48c30.667 -17.333 56 -33.166 76 -47.499
s37 -32.666 51 -54.999s21 -48.5 21 -78.5c0 -38 -10.833 -72.667 -32.5 -104s-51.834 -56.333 -90.501 -75s-82 -28 -130 -28c-31.333 0 -63.333 3.5 -96 10.5s-63.334 17.5 -92.001 31.5l32 122l15 8c24 -23.333 50.5 -41 79.5 -53s56.167 -18 81.5 -18
c30 0 53.833 7.33301 71.5 22s26.5 32.667 26.5 54c0 20 -7.83301 36.833 -23.5 50.5s-40.167 29.834 -73.5 48.501c-30 16.667 -54.667 32 -74 46s-35.833 32 -49.5 54s-20.5 48.333 -20.5 79c0 38 10.667 72.833 32 104.5s50.833 56.5 88.5 74.5s79.834 27 126.501 27
c54.667 0 108.667 -11 162 -33zM460.002 820.997c-48.667 -31.333 -94.667 -65.667 -138 -103h-27c-34.667 32.667 -77 67 -127 103l30 52h13c50 -30.667 83.333 -51.667 100 -63c10.667 6 35.667 19.333 75 40l43 23h14z" />
    <glyph glyph-name="scaron" unicode="&#x161;" horiz-adv-x="436" 
d="M420 705c-34.667 -29.333 -78.667 -69.667 -132 -121l-21 -20h-28c-30.667 38.667 -72.334 85.667 -125.001 141l39 49h13c38.667 -34.667 70.334 -65.667 95.001 -93c22.667 20 62.667 51 120 93h13zM342.5 504.999c23.667 -4.66699 45.4971 -11.0029 65.4971 -19.0029
l-30 -109l-19 -5c-18 15.333 -36.333 27 -55 35s-36.334 12 -53.001 12c-19.333 0 -34.666 -5 -45.999 -15s-17 -22 -17 -36c0 -13.333 6 -24.333 18 -33s30.667 -18.667 56 -30s46.333 -22.166 63 -32.499s31 -24.333 43 -42s18 -39.5 18 -65.5
c0 -29.333 -7.83301 -57.166 -23.5 -83.499s-39.5 -47.833 -71.5 -64.5s-71 -25 -117 -25c-24.667 0 -51.167 2.5 -79.5 7.5s-54.5 12.833 -78.5 23.5l28 115l14 8c19.333 -20 41.833 -35.833 67.5 -47.5s48.834 -17.5 69.501 -17.5c19.333 0 35.5 5.33301 48.5 16
s19.5 23.334 19.5 38.001c0 13.333 -6.16699 24.5 -18.5 33.5s-31.166 19.167 -56.499 30.5c-26 12 -47.167 23.167 -63.5 33.5s-30.5 24.333 -42.5 42s-18 39.5 -18 65.5c0 31.333 8.5 60 25.5 86s41.333 46.833 73 62.5s68.5 23.5 110.5 23.5
c22.667 0 45.834 -2.33301 69.501 -7z" />
    <glyph glyph-name="uni0162" unicode="&#x162;" horiz-adv-x="489" 
d="M525 633l-20 -98.001l-117 6h-38l-47 -337l-20 -204h-35l-14 -47l34 -20c14.667 -8 25.167 -16.833 31.5 -26.5s9.5 -20.5 9.5 -32.5c0 -22 -8.5 -39.833 -25.5 -53.5s-39.5 -20.5 -67.5 -20.5c-30 0 -57.333 9.33301 -82 28l9 55l7 3c18.667 -20 38 -30 58 -30
c8 0 14.167 1.83301 18.5 5.5s6.5 8.83398 6.5 15.501c0 4.66699 -1.5 8.5 -4.5 11.5s-7.5 5.83301 -13.5 8.5l-48 29l18 74h-34l32 192l38 349h-39l-121 -6l-7 10l22 98h443z" />
    <glyph glyph-name="uni0163" unicode="&#x163;" horiz-adv-x="440" 
d="M446 495l-18.999 -93.998l-99 6h-28l-34 -246l-15 -161h-29l-17 -48l30 -19c21.333 -13.333 32 -30.333 32 -51c0 -23.333 -9.33301 -42.333 -28 -57s-42.334 -22 -71.001 -22c-28 0 -52.667 9 -74 27l15 53l7 2c6.66699 -8.66699 14.5 -15.667 23.5 -21
s17.833 -8 26.5 -8s15.5 2.16699 20.5 6.5s7.5 10.166 7.5 17.499s-4.33301 13.666 -13 18.999l-44 28l26 73h-34l24 150l29 257h-29l-102 -6l-7 9l20 95h377z" />
    <glyph glyph-name="Tcaron" unicode="&#x164;" horiz-adv-x="489" 
d="M525 633l-20 -98l-117 6h-38l-47 -337l-20 -204h-132l32 192l38 349h-39l-121 -6l-7 10l22 98h443zM468 844c-34.667 -29.333 -78.667 -69.667 -132 -121l-21 -20h-28c-30.667 38.667 -72.334 85.667 -125.001 141l39 49h13c38.667 -34.667 70.334 -65.667 95.001 -93
c22.667 20 62.667 51 120 93h13z" />
    <glyph glyph-name="tcaron" unicode="&#x165;" horiz-adv-x="437" 
d="M242 564c-30.667 38.667 -72.334 85.666 -125.001 140.999l39 49h13c38.667 -34.667 70.334 -65.667 95.001 -93c22.667 20 62.667 51 120 93h13l26 -49c-34.667 -29.333 -78.667 -69.666 -132 -120.999l-21 -20h-28zM446 494.999l-19 -94l-99 6h-28l-34 -246l-15 -161
h-122l24 150l29 257h-29l-102 -6l-7 9l20 95h377z" />
    <glyph glyph-name="Tbar" unicode="&#x166;" horiz-adv-x="489" 
d="M350 541l-28 -200h88l9 -9l-5 -63h-102l-9 -65l-20 -204h-132l32 192l8 77h-85l-8 8l5 64h96l22 200h-39l-121 -6l-7 10l22 98h443l6 -10l-20 -98l-117 6h-38z" />
    <glyph glyph-name="tbar" unicode="&#x167;" horiz-adv-x="437" 
d="M300 407l-21 -152h81l7 -9l-13 -63h-85l-3 -22l-15 -161h-122l24 150l4 33h-84l-7 8l13 64h86l17 152h-29l-101 -6l-7 9l19 95h377l6 -10l-20 -94l-99 6h-28z" />
    <glyph glyph-name="Umacron" unicode="&#x16a;" horiz-adv-x="622" 
d="M568 317l-11 -84c-8.66699 -78 -36.334 -137.833 -83.001 -179.5s-110.334 -62.5 -191.001 -62.5c-70 0 -125 16.167 -165 48.5s-60 78.5 -60 138.5c0 17.333 1.33301 33.666 4 48.999l13 93l36 323h132l-55 -398c-2 -14 -3 -26.667 -3 -38
c0 -36.667 8.83301 -63.667 26.5 -81s44.834 -26 81.501 -26c42.667 0 75.834 11.333 99.501 34s38.167 57.334 43.5 104.001l44 405h133zM527 829l-6 -73h-281l-8 9l7 73h280z" />
    <glyph glyph-name="umacron" unicode="&#x16b;" horiz-adv-x="545" 
d="M470 690l-6 -73h-281l-8 9l7 73h280zM485 248l-10.001 -77c-7.33301 -57.333 -30.666 -101.5 -69.999 -132.5s-93.333 -46.5 -162 -46.5c-61.333 0 -108.833 12.5 -142.5 37.5s-50.5 60.833 -50.5 107.5c0 10.667 1 22 3 34l11 79l29 255h122l-45 -316
c-1.33301 -10.667 -2 -18 -2 -22c0 -50.667 29 -76 87 -76c65.333 0 101.333 32.667 108 98l34 316h123z" />
    <glyph glyph-name="Ubreve" unicode="&#x16c;" horiz-adv-x="622" 
d="M568 317l-11 -84c-8.66699 -78 -36.334 -137.833 -83.001 -179.5s-110.334 -62.5 -191.001 -62.5c-70 0 -125 16.167 -165 48.5s-60 78.5 -60 138.5c0 17.333 1.33301 33.666 4 48.999l13 93l36 323h132l-55 -398c-2 -14 -3 -26.667 -3 -38
c0 -36.667 8.83301 -63.667 26.5 -81s44.834 -26 81.501 -26c42.667 0 75.834 11.333 99.501 34s38.167 57.334 43.5 104.001l44 405h133zM528 833c-13.333 -37.333 -33.334 -67.333 -60.001 -90s-59.334 -34 -98.001 -34c-42.667 0 -75.167 11.333 -97.5 34
s-35.833 52.667 -40.5 90l34 44h19c4.66699 -25.333 15 -44.5 31 -57.5s36 -19.5 60 -19.5c24.667 0 46.334 6.5 65.001 19.5s33.334 32.167 44.001 57.5h19z" />
    <glyph glyph-name="ubreve" unicode="&#x16d;" horiz-adv-x="545" 
d="M470 694c-13.333 -37.333 -33.334 -67.333 -60.001 -90s-59.334 -34 -98.001 -34c-42.667 0 -75.167 11.333 -97.5 34s-35.833 52.667 -40.5 90l34 44h19c4.66699 -25.333 15 -44.5 31 -57.5s36 -19.5 60 -19.5c24.667 0 46.334 6.5 65.001 19.5
s33.334 32.167 44.001 57.5h19zM484.999 248l-10.001 -77c-7.33301 -57.333 -30.666 -101.5 -69.999 -132.5s-93.333 -46.5 -162 -46.5c-61.333 0 -108.833 12.5 -142.5 37.5s-50.5 60.833 -50.5 107.5c0 10.667 1 22 3 34l11 79l29 255h122l-45 -316
c-1.33301 -10.667 -2 -18 -2 -22c0 -50.667 29 -76 87 -76c65.333 0 101.333 32.667 108 98l34 316h123z" />
    <glyph glyph-name="Uring" unicode="&#x16e;" horiz-adv-x="622" 
d="M568 317l-11 -84c-8.66699 -78 -36.334 -137.833 -83.001 -179.5s-110.334 -62.5 -191.001 -62.5c-70 0 -125 16.167 -165 48.5s-60 78.5 -60 138.5c0 17.333 1.33301 33.666 4 48.999l13 93l36 323h132l-55 -398c-2 -14 -3 -26.667 -3 -38
c0 -36.667 8.83301 -63.667 26.5 -81s44.834 -26 81.501 -26c42.667 0 75.834 11.333 99.501 34s38.167 57.334 43.5 104.001l44 405h133zM453 878c16 -16 24 -38.333 24 -67c0 -31.333 -8.83301 -55.5 -26.5 -72.5s-41.5 -25.5 -71.5 -25.5
c-28.667 0 -51.167 8.16699 -67.5 24.5s-24.5 39.5 -24.5 69.5s8.33301 53.333 25 70s40.667 25 72 25c30 0 53 -8 69 -24zM341 809c0 -27.333 13.667 -41 41 -41s41 12.667 41 38c0 26.667 -14 40 -42 40c-26.667 0 -40 -12.333 -40 -37z" />
    <glyph glyph-name="uring" unicode="&#x16f;" horiz-adv-x="545" 
d="M396 739c16 -16 24 -38.333 24 -67c0 -31.333 -8.83301 -55.5 -26.5 -72.5s-41.5 -25.5 -71.5 -25.5c-28.667 0 -51.167 8.16699 -67.5 24.5s-24.5 39.5 -24.5 69.5s8.33301 53.333 25 70s40.667 25 72 25c30 0 53 -8 69 -24zM284 670c0 -27.333 13.667 -41 41 -41
s41 12.667 41 38c0 26.667 -14 40 -42 40c-26.667 0 -40 -12.333 -40 -37zM485 248l-10.001 -77c-7.33301 -57.333 -30.666 -101.5 -69.999 -132.5s-93.333 -46.5 -162 -46.5c-61.333 0 -108.833 12.5 -142.5 37.5s-50.5 60.833 -50.5 107.5c0 10.667 1 22 3 34l11 79
l29 255h122l-45 -316c-1.33301 -10.667 -2 -18 -2 -22c0 -50.667 29 -76 87 -76c65.333 0 101.333 32.667 108 98l34 316h123z" />
    <glyph glyph-name="Uhungarumlaut" unicode="&#x170;" horiz-adv-x="622" 
d="M568 317l-11 -84c-8.66699 -78 -36.334 -137.833 -83.001 -179.5s-110.334 -62.5 -191.001 -62.5c-70 0 -125 16.167 -165 48.5s-60 78.5 -60 138.5c0 17.333 1.33301 33.666 4 48.999l13 93l36 323h132l-55 -398c-2 -14 -3 -26.667 -3 -38
c0 -36.667 8.83301 -63.667 26.5 -81s44.834 -26 81.501 -26c42.667 0 75.834 11.333 99.501 34s38.167 57.334 43.5 104.001l44 405h133zM270 783c36.667 44.667 62.333 77.332 77 97.999l10 3l60 -40l1 -11c-40 -39.333 -81.333 -77.666 -124 -114.999l-11 -3l-41 33z
M415.999 772.998l85 108l10 3l60 -40l1 -11c-32 -32 -73.333 -70.333 -124 -115l-11 -3l-41 33z" />
    <glyph glyph-name="uhungarumlaut" unicode="&#x171;" horiz-adv-x="545" 
d="M314 764l9.99902 2l59 -43l2 -10c-42 -46 -90.333 -96 -145 -150l-11 -3l-40 34c50.667 66 92.334 122.667 125.001 170zM465.999 764l9 2l60 -43l1 -10c-42 -46 -90.333 -96 -145 -150l-10 -3l-40 34zM484.999 248l-10.001 -77
c-7.33301 -57.333 -30.666 -101.5 -69.999 -132.5s-93.333 -46.5 -162 -46.5c-61.333 0 -108.833 12.5 -142.5 37.5s-50.5 60.833 -50.5 107.5c0 10.667 1 22 3 34l11 79l29 255h122l-45 -316c-1.33301 -10.667 -2 -18 -2 -22c0 -50.667 29 -76 87 -76
c65.333 0 101.333 32.667 108 98l34 316h123z" />
    <glyph glyph-name="Uogonek" unicode="&#x172;" horiz-adv-x="622" 
d="M568 317l-11 -84c-8.66699 -78 -36.334 -137.833 -83.001 -179.5s-110.334 -62.5 -191.001 -62.5c-70 0 -125 16.167 -165 48.5s-60 78.5 -60 138.5c0 17.333 1.33301 33.666 4 48.999l13 93l36 323h132l-55 -398c-2 -14 -3 -26.667 -3 -38
c0 -36.667 8.83301 -63.667 26.5 -81s44.834 -26 81.501 -26c42.667 0 75.834 11.333 99.501 34s38.167 57.334 43.5 104.001l44 405h133zM230 -199.5c-18 15 -27.001 34.834 -27.001 59.501c0 14.667 3 27.834 9 39.501s17.333 25.5 34 41.5s43 39 79 69h71l-70 -72
c-18 -18.667 -29.167 -31.334 -33.5 -38.001s-6.5 -13.334 -6.5 -20.001c0 -18 10.333 -27 31 -27c18.667 0 43.334 10 74.001 30h6l14 -62c-38 -28.667 -74.667 -43 -110 -43c-29.333 0 -53 7.5 -71 22.5z" />
    <glyph glyph-name="uogonek" unicode="&#x173;" horiz-adv-x="545" 
d="M520 505l-35.002 -256.999l-10 -77c-8 -63.333 -35.333 -110.333 -82 -141l-62.5 -64c-15.667 -16.667 -25.5 -28.334 -29.5 -35.001s-6 -13 -6 -19c0 -18 10.333 -27 31 -27c18.667 0 43.334 10 74.001 30h6l14 -62c-38 -28.667 -74.667 -43 -110 -43
c-29.333 0 -53 7.5 -71 22.5s-27 34.833 -27 59.5c0 16.667 4.33301 31.667 13 45s26 32 52 56c-7.33301 -0.666992 -18.666 -1 -33.999 -1c-61.333 0 -108.833 12.5 -142.5 37.5s-50.5 60.833 -50.5 107.5c0 10.667 1 22 3 34l11 79l29 255h122l-45 -316
c-1.33301 -10.667 -2 -18 -2 -22c0 -50.667 29 -76 87 -76c65.333 0 101.333 32.667 108 98l34 316h123z" />
    <glyph glyph-name="Wcircumflex" unicode="&#x174;" horiz-adv-x="877" 
d="M638 0h-138l-54 312h-9l-132 -312h-141l-94 643h129v-78l58 -428h8l149 350l-25 156h135l3 -91l61 -415h9l178 421l26 85h123zM340 771c48.667 31.333 94.667 65.667 138 103h27c34.667 -32.667 77 -67 127 -103l-30 -52h-13c-50 30.667 -83.333 51.667 -100 63
c-10.667 -6 -35.667 -19.333 -75 -40l-43 -23h-14z" />
    <glyph glyph-name="wcircumflex" unicode="&#x175;" horiz-adv-x="757" 
d="M258 613c34.667 29.333 78.667 69.667 132 121l21 20h28c30.667 -38.667 72.334 -85.667 125.001 -141l-39 -49h-13c-38.667 34.667 -70.334 65.667 -95.001 93c-22.667 -20 -62.667 -51 -120 -93h-13zM549 0.000976562h-130l-44 221h-7l-98 -221h-131l-78 505h120v-69
l44 -309h7l113 257l-18 121h125l2 -81l47 -297h9l131 303l24 75h114z" />
    <glyph glyph-name="Ycircumflex" unicode="&#x176;" horiz-adv-x="543" 
d="M324 220l-7 -40l-17 -180h-132l30 180l4 41l-146 422h137l8 -43l76 -248h9l148 244l24 47h138zM193 771c48.667 31.333 94.667 65.667 138 103h27c34.667 -32.667 77 -67 127 -103l-30 -52h-13c-50 30.667 -83.333 51.667 -100 63c-10.667 -6 -35.667 -19.333 -75 -40
l-43 -23h-14z" />
    <glyph glyph-name="ycircumflex" unicode="&#x177;" horiz-adv-x="488" 
d="M165 564l-26 49.001c34.667 29.333 78.667 69.666 132 120.999l21 20h28c30.667 -38.667 72.334 -85.667 125.001 -141l-39 -49h-13c-38.667 34.667 -70.334 65.667 -95.001 93c-22.667 -20 -62.667 -51 -120 -93h-13zM287 164.001l-5 -26l-13 -138h-122l23 138l3 26
l-126 341h130l7 -37l60 -179h8l114 174l21 42h127z" />
    <glyph glyph-name="Ydieresis" unicode="&#x178;" horiz-adv-x="543" 
d="M324 220l-7 -40l-17 -180h-132l30 180l4 41l-146 422h137l8 -43l76 -248h9l148 244l24 47h138zM299 841.5c10 -10.333 15.001 -24.499 15.001 -42.499c0 -20 -5.5 -35.667 -16.5 -47s-26.167 -17 -45.5 -17c-18.667 0 -33 5 -43 15s-15 24.667 -15 44
s5.66699 34.666 17 45.999s26.666 17 45.999 17c18 0 32 -5.16699 42 -15.5zM476.501 841.501c10.333 -10.333 15.499 -24.499 15.499 -42.499c0 -20 -5.66699 -35.667 -17 -47s-26.666 -17 -45.999 -17c-18.667 0 -33 5.16699 -43 15.5s-15 24.833 -15 43.5
c0 19.333 5.5 34.666 16.5 45.999s26.167 17 45.5 17c18.667 0 33.167 -5.16699 43.5 -15.5z" />
    <glyph glyph-name="Zacute" unicode="&#x179;" horiz-adv-x="532" 
d="M537 548l-367 -447h210l106 8l4 -7l-23 -105l-141 3h-249l-76 -4l12 95l370 451h-198l-107 -9l-5 7l24 105l126 -2h266l60 1zM392 884l32.999 -77l-4 -12c-59.333 -23.333 -130.666 -49.333 -213.999 -78l-13 4l-21 54c72 36 141 73.333 207 112z" />
    <glyph glyph-name="zacute" unicode="&#x17a;" horiz-adv-x="473" 
d="M361 761l47 -70l-2 -12c-74.667 -48 -139 -87.667 -193 -119l-12 1l-32 49c63.333 49.333 123.333 100 180 152zM455 416l-291 -324h162l95 9l4 -6l-23 -98l-127 3h-201l-67 -3l11 87l294 327h-158l-91 -9l-3 7l21 97l385 -1z" />
    <glyph glyph-name="Zdotaccent" unicode="&#x17b;" horiz-adv-x="532" 
d="M537 548l-367 -447h210l106 8l4 -7l-23 -105l-141 3h-249l-76 -4l12 95l370 451h-198l-107 -9l-5 7l24 105l126 -2h266l60 1zM348 848.5c11.333 -11.667 16.999 -27.833 16.999 -48.5c0 -22.667 -6.33301 -40.5 -19 -53.5s-29.667 -19.5 -51 -19.5
s-37.666 5.83301 -48.999 17.5s-17 28.167 -17 49.5c0 22 6.33301 39.5 19 52.5s30 19.5 52 19.5c20.667 0 36.667 -5.83301 48 -17.5z" />
    <glyph glyph-name="zdotaccent" unicode="&#x17c;" horiz-adv-x="473" 
d="M339 710.5c11.333 -11.667 16.999 -27.833 16.999 -48.5c0 -22.667 -6.33301 -40.5 -19 -53.5s-29.667 -19.5 -51 -19.5s-37.666 5.83301 -48.999 17.5s-17 28.167 -17 49.5c0 22 6.33301 39.5 19 52.5s30 19.5 52 19.5c20.667 0 36.667 -5.83301 48 -17.5z
M454.999 416.001l-291 -324h162l95 9l4 -6l-23 -98l-127 3h-201l-67 -3l11 87l294 327h-158l-91 -9l-3 7l21 97l385 -1z" />
    <glyph glyph-name="Zcaron" unicode="&#x17d;" horiz-adv-x="532" 
d="M537 548l-367 -447h210l106 8l4 -7l-23 -105l-141 3h-249l-76 -4l12 95l370 451h-198l-107 -9l-5 7l24 105l126 -2h266l60 1zM442 821c-48.667 -31.333 -94.667 -65.667 -138 -103h-27c-34.667 32.667 -77 67 -127 103l30 52h13c50 -30.667 83.333 -51.667 100 -63
c10.667 6 35.667 19.333 75 40l43 23h14z" />
    <glyph glyph-name="zcaron" unicode="&#x17e;" horiz-adv-x="473" 
d="M440 705c-34.667 -29.333 -78.667 -69.667 -132 -121l-21 -20h-28c-30.667 38.667 -72.334 85.667 -125.001 141l39 49h13c38.667 -34.667 70.334 -65.667 95.001 -93c22.667 20 62.667 51 120 93h13zM455 415.999l-291 -324h162l95 9l4 -6l-23 -98l-127 3h-201l-67 -3
l11 87l294 327h-158l-91 -9l-3 7l21 97l385 -1z" />
    <glyph glyph-name="uni018F" unicode="&#x18f;" horiz-adv-x="614" 
d="M530.5 577c47 -49.333 70.501 -117.332 70.501 -203.999c0 -76 -14.167 -142.833 -42.5 -200.5s-68.333 -102.334 -120 -134.001s-111.167 -47.5 -178.5 -47.5c-70.667 0 -126.834 19.5 -168.501 58.5s-62.5 91.167 -62.5 156.5c0 17.333 1.5 33.333 4.5 48
s7.5 33 13.5 55l20 20l400 3c0.666992 6 1 15.333 1 28c0 59.333 -13.5 104.333 -40.5 135s-67.5 46 -121.5 46c-62 0 -128 -18 -198 -54l-13 10l37 111c68.667 28.667 135.667 43 201 43c84.667 0 150.5 -24.667 197.5 -74zM387.501 131.001
c31 27.333 53.167 65.667 66.5 115l-291 -5l-4 -21c-0.666992 -4.66699 -1 -11.667 -1 -21c0 -34 10.333 -60.667 31 -80s49 -29 85 -29c44.667 0 82.5 13.667 113.5 41z" />
    <glyph glyph-name="florin" unicode="&#x192;" horiz-adv-x="315" 
d="M405 611l-18.0039 -86l-9 -5c-26 11.333 -49.667 17 -71 17c-45.333 0 -71 -23.333 -77 -70l-11 -83h102l4 -8l-7 -63h-109l-16 -128l-15 -131c-5.33301 -47.333 -18.166 -86.166 -38.499 -116.499s-53.5 -59.5 -99.5 -87.5l-53 51l1 10
c26.667 20 45.834 40.167 57.501 60.5s19.834 47.166 24.501 80.499l14 122l16 139h-66l-4 7l6 64h71l8 64c6.66699 55.333 28.334 97.833 65.001 127.5s85 44.5 145 44.5c24 0 50.667 -3 80 -9z" />
    <glyph glyph-name="Ohorn" unicode="&#x1a0;" horiz-adv-x="654" 
d="M660 604.5c-20.667 -22.333 -48.002 -37.832 -82.002 -46.499c14.667 -23.333 25.5 -49.166 32.5 -77.499s10.5 -61.5 10.5 -99.5c0 -78 -13.667 -146.5 -41 -205.5s-66.166 -104.667 -116.499 -137s-109.5 -48.5 -177.5 -48.5c-80.667 0 -142.334 24 -185.001 72
s-64 118 -64 210c0 76 13.833 142.667 41.5 200s66.5 101.666 116.5 132.999s107.667 47 173 47c22.667 0 41.834 -1.5 57.501 -4.5s34.5 -7.83301 56.5 -14.5c22.667 -8 41.334 -12 56.001 -12c16 0 28.5 4.16699 37.5 12.5s13.5 20.166 13.5 35.499c0 24 -9 44.333 -27 61
l3 11c22.667 16.667 44 25 64 25c17.333 0 32 -8.16699 44 -24.5s18 -35.833 18 -58.5c0 -30 -10.333 -56.167 -31 -78.5zM435.998 158.501c31.333 45.667 47 114.5 47 206.5c0 64 -9.66699 110.167 -29 138.5s-52 42.5 -98 42.5c-59.333 0 -104.5 -22.667 -135.5 -68
s-46.5 -114 -46.5 -206c0 -64 9.83301 -110.333 29.5 -139s52.167 -43 97.5 -43c58.667 0 103.667 22.833 135 68.5z" />
    <glyph glyph-name="ohorn" unicode="&#x1a1;" horiz-adv-x="573" 
d="M563 472.5c-17.333 -19 -40.335 -32.4971 -69.002 -40.4971c12.667 -18.667 21.667 -38.667 27 -60s8 -47 8 -77c0 -60.667 -11.5 -113.834 -34.5 -159.501s-55.667 -81 -98 -106s-92.166 -37.5 -149.499 -37.5c-69.333 0 -122.5 19.333 -159.5 58
s-55.5 94.667 -55.5 168c0 58 11.667 109.5 35 154.5s56 79.833 98 104.5s90.333 37 145 37c19.333 0 36.333 -1.33301 51 -4s30 -6.33398 46 -11.001c20.667 -6 36.334 -9 47.001 -9c13.333 0 23.5 3.16699 30.5 9.5s10.5 15.166 10.5 26.499
c0 18.667 -7.66699 34.667 -23 48l3 9c21.333 16 41 24 59 24c15.333 0 28.333 -6.66699 39 -20s16 -30 16 -50c0 -24 -8.66699 -45.5 -26 -64.5zM398.998 280.003c0 49.333 -7.16699 84.167 -21.5 104.5s-39.833 30.5 -76.5 30.5c-92.667 0 -139 -65 -139 -195
c0 -49.333 7.33301 -84.333 22 -105s40 -31 76 -31c92.667 0 139 65.333 139 196z" />
    <glyph glyph-name="Uhorn" unicode="&#x1af;" horiz-adv-x="634" 
d="M667 639.5c-14.667 -19 -35.001 -34.167 -61.001 -45.5l-38 -277l-11 -84c-8.66699 -78 -36.334 -137.833 -83.001 -179.5s-110.334 -62.5 -191.001 -62.5c-70 0 -125 16.167 -165 48.5s-60 78.5 -60 138.5c0 17.333 1.33301 33.666 4 48.999l13 93l36 323h132l-55 -398
c-2 -14 -3 -26.667 -3 -38c0 -36.667 8.83301 -63.667 26.5 -81s44.834 -26 81.501 -26c42.667 0 75.834 11.333 99.501 34s38.167 57.334 43.5 104.001l44 405h48c40 0 60 16.667 60 50c0 21.333 -9.66699 41.333 -29 60l3 10c22.667 16.667 43.334 25 62.001 25
c17.333 0 32.5 -8 45.5 -24s19.5 -36 19.5 -60s-7.33301 -45.5 -22 -64.5z" />
    <glyph glyph-name="uhorn" unicode="&#x1b0;" horiz-adv-x="556" 
d="M568.5 500.5c-12.333 -16.333 -29.502 -29.168 -51.502 -38.501l-30 -213l-9 -72c-7.33301 -60 -30.666 -105.833 -69.999 -137.5s-93.666 -47.5 -162.999 -47.5c-60.667 0 -108.167 12.667 -142.5 38s-51.5 61.666 -51.5 108.999c0 12 1 24 3 36l10 76l29 255h123
l-44 -315c-1.33301 -12 -2 -20.667 -2 -26c0 -25.333 7 -44 21 -56s35.333 -18 64 -18c33.333 0 58.833 8 76.5 24s28.5 40.333 32.5 73l34 318h46c16.667 0 29 3 37 9s12 15.667 12 29c0 16.667 -8.33301 32.334 -25 47.001l3 9c20 15.333 39 23 57 23
c16 0 29.833 -6.5 41.5 -19.5s17.5 -29.5 17.5 -49.5c0 -19.333 -6.16699 -37.166 -18.5 -53.499z" />
    <glyph glyph-name="uni01C4" unicode="&#x1c4;" horiz-adv-x="1173" 
d="M561.5 581.5c44.333 -43.667 66.5 -105.5 66.5 -185.5c0 -126 -30.667 -224.667 -92 -296s-148.666 -107 -261.999 -107c-31.333 0 -69 0.666992 -113 2s-81.333 3 -112 5l31 192l49 451l244 4c81.333 0 144.166 -21.833 188.499 -65.5zM440.5 164.5
c32.333 46.333 48.502 116.5 48.502 210.5c0 57.333 -10.833 99.5 -32.5 126.5s-54.834 40.5 -99.501 40.5c-26 0 -62.333 -1.33301 -109 -4l-48 -334l-9 -101c18 -2 37.833 -3.83301 59.5 -5.5s39.167 -2.5 52.5 -2.5c59.333 0 105.166 23.167 137.499 69.5zM1178 548
l-367 -447h210l106 8l4 -7l-23 -105l-141 3h-249l-76 -4l12 95l370 451h-198l-107 -9l-5 7l24 105l126 -2h266l60 1zM1083 821c-48.667 -31.333 -94.667 -65.667 -138 -103h-27c-34.667 32.667 -77 67 -127 103l30 52h13c50 -30.667 83.333 -51.667 100 -63
c10.667 6 35.667 19.333 75 40l43 23h14z" />
    <glyph glyph-name="uni01C5" unicode="&#x1c5;" horiz-adv-x="1114" 
d="M561.5 581.5c44.333 -43.667 66.5 -105.5 66.5 -185.5c0 -126 -30.667 -224.667 -92 -296s-148.666 -107 -261.999 -107c-31.333 0 -69 0.666992 -113 2s-81.333 3 -112 5l31 192l49 451l244 4c81.333 0 144.166 -21.833 188.499 -65.5zM440.5 164.5
c32.333 46.333 48.502 116.5 48.502 210.5c0 57.333 -10.833 99.5 -32.5 126.5s-54.834 40.5 -99.501 40.5c-26 0 -62.333 -1.33301 -109 -4l-48 -334l-9 -101c18 -2 37.833 -3.83301 59.5 -5.5s39.167 -2.5 52.5 -2.5c59.333 0 105.166 23.167 137.499 69.5zM1081 705
c-34.667 -29.333 -78.667 -69.667 -132 -121l-21 -20h-28c-30.667 38.667 -72.334 85.667 -125.001 141l39 49h13c38.667 -34.667 70.334 -65.667 95.001 -93c22.667 20 62.667 51 120 93h13zM1096 415.999l-291 -324h162l95 9l4 -6l-23 -98l-127 3h-201l-67 -3l11 87
l294 327h-158l-91 -9l-3 7l21 97l385 -1z" />
    <glyph glyph-name="uni01C6" unicode="&#x1c6;" horiz-adv-x="1033" 
d="M820 564c-30.667 38.667 -72.334 85.666 -125.001 140.999l39 49h13c38.667 -34.667 70.334 -65.667 95.001 -93c22.667 20 62.667 51 120 93h13l26 -49c-34.667 -29.333 -78.667 -69.666 -132 -120.999l-21 -20h-28zM477 455.999c38 -34.667 56.999 -84 56.999 -148
c0 -98.667 -25.667 -175.667 -77 -231s-124.666 -83 -219.999 -83c-54 0 -118.333 2 -193 6l24 150l39 355l210 3c68.667 0 122 -17.333 160 -52zM1016 415.999l-291 -324h162l95 9l4 -6l-23 -98l-127 3h-201l-67 -3l11 87l294 327h-158l-91 -9l-3 7l21 97l385 -1z
M367.999 136.499c24.667 32.333 37 82.499 37 150.499c0 42.667 -8.66699 73.834 -26 93.501s-43.333 29.5 -78 29.5c-31.333 0 -59.333 -1.33301 -84 -4l-36 -245l-6 -67l28 -2c30.667 -2.66699 50.667 -4 60 -4c45.333 0 80.333 16.167 105 48.5z" />
    <glyph glyph-name="uni01C7" unicode="&#x1c7;" horiz-adv-x="743" 
d="M405 99l-21 -99h-338l31 192l49 451h134l-61 -439l-9 -95h209zM650 212l-7.99902 -91.998c-7.33301 -55.333 -27.5 -99.833 -60.5 -133.5s-86.5 -64.5 -160.5 -92.5l-32 70l1 13c43.333 21.333 74.666 42.666 93.999 63.999s31.333 48.666 36 81.999l10 77l37 346
l-103 -2l-8 9l17 90h239z" />
    <glyph glyph-name="uni01C8" unicode="&#x1c8;" horiz-adv-x="729" 
d="M405 99l-21 -99h-338l31 192l49 451h134l-61 -439l-9 -95h209zM627 166l-6.99902 -71c-6 -44.667 -22.167 -80.5 -48.5 -107.5s-69.833 -52.167 -130.5 -75.5l-32 66l1 10c32 15.333 55.167 31 69.5 47s23.166 37 26.499 63l7 56l28 260l-87 -2l-7 8l19 85h208z" />
    <glyph glyph-name="uni01C9" unicode="&#x1c9;" horiz-adv-x="689" 
d="M345 101l6 -9l-20 -92h-289l25 150l38 355h124l-50 -344l-6 -60h172zM588 166l-6.99902 -71c-6 -44.667 -22.167 -80.5 -48.5 -107.5s-69.833 -52.167 -130.5 -75.5l-32 66l1 10c32 15.333 55.167 31 69.5 47s23.166 37 26.499 63l7 56l28 260l-87 -2l-7 8l19 85h208z
" />
    <glyph glyph-name="uni01CA" unicode="&#x1ca;" horiz-adv-x="1006" 
d="M590 198l-19 -198h-142l-200 441h-9l-28 -220l-22 -221h-121l30 190l50 453h142l200 -441h9l51 436l123 8zM913 212l-7.99902 -91.998c-7.33301 -55.333 -27.5 -99.833 -60.5 -133.5s-86.5 -64.5 -160.5 -92.5l-32 70l1 13c43.333 21.333 74.666 42.666 93.999 63.999
s31.333 48.666 36 81.999l10 77l37 346l-103 -2l-8 9l17 90h239z" />
    <glyph glyph-name="uni01CB" unicode="&#x1cb;" horiz-adv-x="992" 
d="M590 198l-19 -198h-142l-200 441h-9l-28 -220l-22 -221h-121l30 190l50 453h142l200 -441h9l51 436l123 8zM890 166l-6.99902 -71c-6 -44.667 -22.167 -80.5 -48.5 -107.5s-69.833 -52.167 -130.5 -75.5l-32 66l1 10c32 15.333 55.167 31 69.5 47s23.166 37 26.499 63
l7 56l28 260l-87 -2l-7 8l19 85h208z" />
    <glyph glyph-name="uni01CC" unicode="&#x1cc;" horiz-adv-x="908" 
d="M443 500l113 7l-51 -349l-15 -158h-131l-162 320h-6l-19 -144l-18 -176h-110l24 148l39 357h130l163 -321h8zM806 166l-6.99902 -71c-6 -44.667 -22.167 -80.5 -48.5 -107.5s-69.833 -52.167 -130.5 -75.5l-32 66l1 10c32 15.333 55.167 31 69.5 47s23.166 37 26.499 63
l7 56l28 260l-87 -2l-7 8l19 85h208z" />
    <glyph glyph-name="uni01CD" unicode="&#x1cd;" horiz-adv-x="583" 
d="M539 0h-133l-6 83l-9 63l-121 2l-107 -2l-24 -56l-29 -90h-130l291 643h157zM376 248l-40 271h-9l-118 -270l82 -2zM509 821c-48.667 -31.333 -94.667 -65.667 -138 -103h-27c-34.667 32.667 -77 67 -127 103l30 52h13c50 -30.667 83.333 -51.667 100 -63
c10.667 6 35.667 19.333 75 40l43 23h14z" />
    <glyph glyph-name="uni01CE" unicode="&#x1ce;" horiz-adv-x="517" 
d="M283 564c-30.667 38.667 -72.334 85.666 -125.001 140.999l39 49h13c38.667 -34.667 70.334 -65.667 95.001 -93c22.667 20 62.667 51 120 93h13l26 -49c-34.667 -29.333 -78.667 -69.666 -132 -120.999l-21 -20h-28zM369 504.999l95 -505h-123l-3 71l-5 32l-101 2
l-88 -2l-12 -25l-25 -78h-119l237 505h144zM317 195.999l-33 197h-8l-90 -197l65 -1z" />
    <glyph glyph-name="uni01CF" unicode="&#x1cf;" horiz-adv-x="289" 
d="M200 204l-19 -204h-133l31 192l49 451h134zM358 821c-48.667 -31.333 -94.667 -65.667 -138 -103h-27c-34.667 32.667 -77 67 -127 103l30 52h13c50 -30.667 83.333 -51.667 100 -63c10.667 6 35.667 19.333 75 40l43 23h14z" />
    <glyph glyph-name="uni01D0" unicode="&#x1d0;" horiz-adv-x="275" 
d="M341 705c-34.667 -29.333 -78.667 -69.667 -132 -121l-21 -20h-28c-30.667 38.667 -72.334 85.667 -125.001 141l39 49h13c38.667 -34.667 70.334 -65.667 95.001 -93c22.667 20 62.667 51 120 93h13zM181 160.999l-14 -161h-122l24 150l38 355h124z" />
    <glyph glyph-name="uni01D1" unicode="&#x1d1;" horiz-adv-x="631" 
d="M553.5 583.5c43.667 -45.667 65.499 -112.169 65.499 -199.502c0 -78.667 -13 -147.667 -39 -207s-64 -105.333 -114 -138s-110 -49 -180 -49c-78.667 0 -139.834 23.5 -183.501 70.5s-65.5 114.5 -65.5 202.5c0 78.667 12.833 147.334 38.5 206.001
s63.334 103.834 113.001 135.501s109.834 47.5 180.501 47.5c79.333 0 140.833 -22.833 184.5 -68.5zM218.499 478.498c-29.667 -44.333 -44.499 -115.166 -44.499 -212.499c0 -60.667 9.83301 -104.834 29.5 -132.501s51.5 -41.5 95.5 -41.5c60 0 105 22.333 135 67
s45 116 45 214c0 60.667 -9.83301 104.5 -29.5 131.5s-51.834 40.5 -96.501 40.5c-60 0 -104.833 -22.167 -134.5 -66.5zM530 820.998c-48.667 -31.333 -94.667 -65.667 -138 -103h-27c-34.667 32.667 -77 67 -127 103l30 52h13c50 -30.667 83.333 -51.667 100 -63
c10.667 6 35.667 19.333 75 40l43 23h14z" />
    <glyph glyph-name="uni01D2" unicode="&#x1d2;" horiz-adv-x="552" 
d="M478 705c-34.667 -29.333 -78.667 -69.667 -132 -121l-21 -20h-28c-30.667 38.667 -72.334 85.667 -125.001 141l39 49h13c38.667 -34.667 70.334 -65.667 95.001 -93c22.667 20 62.667 51 120 93h13zM469.5 456.999c37 -36.667 55.5 -92.334 55.5 -167.001
c0 -58 -11 -109.667 -33 -155s-54 -80.666 -96 -105.999s-92 -38 -150 -38c-68.667 0 -121.5 18.833 -158.5 56.5s-55.5 94.167 -55.5 169.5c0 58 11 109.167 33 153.5s54 79 96 104s92.333 37.5 151 37.5c68 0 120.5 -18.333 157.5 -55zM194 368.499
c-22.667 -29.667 -34 -79.167 -34 -148.5c0 -49.333 7.5 -83.833 22.5 -103.5s40.833 -29.5 77.5 -29.5c46 0 80.167 15 102.5 45s33.5 79.333 33.5 148c0 49.333 -7.33301 83.833 -22 103.5s-40.667 29.5 -78 29.5c-45.333 0 -79.333 -14.833 -102 -44.5z" />
    <glyph glyph-name="uni01D3" unicode="&#x1d3;" horiz-adv-x="622" 
d="M568 317l-11 -84c-8.66699 -78 -36.334 -137.833 -83.001 -179.5s-110.334 -62.5 -191.001 -62.5c-70 0 -125 16.167 -165 48.5s-60 78.5 -60 138.5c0 17.333 1.33301 33.666 4 48.999l13 93l36 323h132l-55 -398c-2 -14 -3 -26.667 -3 -38
c0 -36.667 8.83301 -63.667 26.5 -81s44.834 -26 81.501 -26c42.667 0 75.834 11.333 99.501 34s38.167 57.334 43.5 104.001l44 405h133zM534 844c-34.667 -29.333 -78.667 -69.667 -132 -121l-21 -20h-28c-30.667 38.667 -72.334 85.667 -125.001 141l39 49h13
c38.667 -34.667 70.334 -65.667 95.001 -93c22.667 20 62.667 51 120 93h13z" />
    <glyph glyph-name="uni01D4" unicode="&#x1d4;" horiz-adv-x="545" 
d="M476 705c-34.667 -29.333 -78.667 -69.667 -132 -121l-21 -20h-28c-30.667 38.667 -72.334 85.667 -125.001 141l39 49h13c38.667 -34.667 70.334 -65.667 95.001 -93c22.667 20 62.667 51 120 93h13zM485 247.999l-10.001 -77
c-7.33301 -57.333 -30.666 -101.5 -69.999 -132.5s-93.333 -46.5 -162 -46.5c-61.333 0 -108.833 12.5 -142.5 37.5s-50.5 60.833 -50.5 107.5c0 10.667 1 22 3 34l11 79l29 255h122l-45 -316c-1.33301 -10.667 -2 -18 -2 -22c0 -50.667 29 -76 87 -76
c65.333 0 101.333 32.667 108 98l34 316h123z" />
    <glyph glyph-name="uni01D5" unicode="&#x1d5;" horiz-adv-x="622" 
d="M568 317l-11 -84c-8.66699 -78 -36.334 -137.833 -83.001 -179.5s-110.334 -62.5 -191.001 -62.5c-70 0 -125 16.167 -165 48.5s-60 78.5 -60 138.5c0 17.333 1.33301 33.666 4 48.999l13 93l36 323h132l-55 -398c-2 -14 -3 -26.667 -3 -38
c0 -36.667 8.83301 -63.667 26.5 -81s44.834 -26 81.501 -26c42.667 0 75.834 11.333 99.501 34s38.167 57.334 43.5 104.001l44 405h133zM542 968l-7 -73h-278l-10 9l7 73h278zM343 822c10 -10 15.001 -24.332 15.001 -42.999c0 -19.333 -5.66699 -34.833 -17 -46.5
s-26.333 -17.5 -45 -17.5s-33 5.16699 -43 15.5s-15 24.833 -15 43.5c0 19.333 5.66699 34.666 17 45.999s26.666 17 45.999 17c18 0 32 -5 42 -15zM516.001 822.001c10 -10 15.001 -24.332 15.001 -42.999c0 -19.333 -5.5 -34.833 -16.5 -46.5s-26.167 -17.5 -45.5 -17.5
c-18.667 0 -33 5.16699 -43 15.5s-15 24.833 -15 43.5c0 19.333 5.66699 34.666 17 45.999s26.666 17 45.999 17c18 0 32 -5 42 -15z" />
    <glyph glyph-name="uni01D6" unicode="&#x1d6;" horiz-adv-x="545" 
d="M484 829l-7 -73h-278l-10 9l7 73h278zM285 683c10 -10 15.001 -24.332 15.001 -42.999c0 -19.333 -5.66699 -34.833 -17 -46.5s-26.333 -17.5 -45 -17.5s-33 5.16699 -43 15.5s-15 24.833 -15 43.5c0 19.333 5.66699 34.666 17 45.999s26.666 17 45.999 17
c18 0 32 -5 42 -15zM458.001 683.001c10 -10 15.001 -24.332 15.001 -42.999c0 -19.333 -5.5 -34.833 -16.5 -46.5s-26.167 -17.5 -45.5 -17.5c-18.667 0 -33 5.16699 -43 15.5s-15 24.833 -15 43.5c0 19.333 5.66699 34.666 17 45.999s26.666 17 45.999 17
c18 0 32 -5 42 -15zM485.002 248.002l-10.001 -77c-7.33301 -57.333 -30.666 -101.5 -69.999 -132.5s-93.333 -46.5 -162 -46.5c-61.333 0 -108.833 12.5 -142.5 37.5s-50.5 60.833 -50.5 107.5c0 10.667 1 22 3 34l11 79l29 255h122l-45 -316
c-1.33301 -10.667 -2 -18 -2 -22c0 -50.667 29 -76 87 -76c65.333 0 101.333 32.667 108 98l34 316h123z" />
    <glyph glyph-name="uni01D7" unicode="&#x1d7;" horiz-adv-x="622" 
d="M568 317l-11 -84c-8.66699 -78 -36.334 -137.833 -83.001 -179.5s-110.334 -62.5 -191.001 -62.5c-70 0 -125 16.167 -165 48.5s-60 78.5 -60 138.5c0 17.333 1.33301 33.666 4 48.999l13 93l36 323h132l-55 -398c-2 -14 -3 -26.667 -3 -38
c0 -36.667 8.83301 -63.667 26.5 -81s44.834 -26 81.501 -26c42.667 0 75.834 11.333 99.501 34s38.167 57.334 43.5 104.001l44 405h133zM482 1012l20 -82l-7 -10c-80 -16 -154.667 -29.333 -224 -40l-11 6l-12 58c80.667 23.333 155 48 223 74zM320 822
c10 -10 15.001 -24.332 15.001 -42.999c0 -19.333 -5.5 -34.833 -16.5 -46.5s-25.833 -17.5 -44.5 -17.5s-33.167 5.16699 -43.5 15.5s-15.5 24.833 -15.5 43.5c0 19.333 5.66699 34.666 17 45.999s26.666 17 45.999 17c18 0 32 -5 42 -15zM492.501 822.001
c10.333 -10 15.5 -24.332 15.5 -42.999c0 -19.333 -5.66699 -34.833 -17 -46.5s-26.333 -17.5 -45 -17.5s-33 5.16699 -43 15.5s-15 24.833 -15 43.5c0 19.333 5.66699 34.666 17 45.999s26.333 17 45 17c18 0 32.167 -5 42.5 -15z" />
    <glyph glyph-name="uni01D8" unicode="&#x1d8;" horiz-adv-x="545" 
d="M437 873l19 -82.001l-7 -10c-82 -16.667 -156.333 -30 -223 -40l-12 6l-11 58c78 22.667 152 47.334 222 74.001zM290 682.999c10 -10 15 -24.332 15 -42.999c0 -19.333 -5.5 -34.833 -16.5 -46.5s-25.833 -17.5 -44.5 -17.5s-33 5.16699 -43 15.5s-15 24.833 -15 43.5
c0 19.333 5.5 34.666 16.5 45.999s26.167 17 45.5 17c18 0 32 -5 42 -15zM463 683c10 -10 15.001 -24.332 15.001 -42.999c0 -19.333 -5.66699 -34.833 -17 -46.5s-26.333 -17.5 -45 -17.5s-33 5.16699 -43 15.5s-15 24.833 -15 43.5c0 19.333 5.66699 34.666 17 45.999
s26.666 17 45.999 17c18 0 32 -5 42 -15zM485.001 248.001l-10.001 -77c-7.33301 -57.333 -30.666 -101.5 -69.999 -132.5s-93.333 -46.5 -162 -46.5c-61.333 0 -108.833 12.5 -142.5 37.5s-50.5 60.833 -50.5 107.5c0 10.667 1 22 3 34l11 79l29 255h122l-45 -316
c-1.33301 -10.667 -2 -18 -2 -22c0 -50.667 29 -76 87 -76c65.333 0 101.333 32.667 108 98l34 316h123z" />
    <glyph glyph-name="uni01D9" unicode="&#x1d9;" horiz-adv-x="622" 
d="M568 317l-11 -84c-8.66699 -78 -36.334 -137.833 -83.001 -179.5s-110.334 -62.5 -191.001 -62.5c-70 0 -125 16.167 -165 48.5s-60 78.5 -60 138.5c0 17.333 1.33301 33.666 4 48.999l13 93l36 323h132l-55 -398c-2 -14 -3 -26.667 -3 -38
c0 -36.667 8.83301 -63.667 26.5 -81s44.834 -26 81.501 -26c42.667 0 75.834 11.333 99.501 34s38.167 57.334 43.5 104.001l44 405h133zM335 826.5c10 -10.333 15.001 -24.499 15.001 -42.499c0 -20 -5.5 -35.667 -16.5 -47s-26.167 -17 -45.5 -17c-18.667 0 -33 5 -43 15
s-15 24.667 -15 44s5.66699 34.666 17 45.999s26.666 17 45.999 17c18 0 32 -5.16699 42 -15.5zM512.501 826.501c10.333 -10.333 15.499 -24.499 15.499 -42.499c0 -20 -5.66699 -35.667 -17 -47s-26.666 -17 -45.999 -17c-18.667 0 -33 5.16699 -43 15.5
s-15 24.833 -15 43.5c0 19.333 5.5 34.666 16.5 45.999s26.167 17 45.5 17c18.667 0 33.167 -5.16699 43.5 -15.5zM534 949.002c-48.667 -31.333 -94.667 -65.667 -138 -103h-27c-34.667 32.667 -77 67 -127 103l30 52h13c50 -30.667 83.333 -51.667 100 -63
c10.667 6 35.667 19.333 75 40l43 23h14z" />
    <glyph glyph-name="uni01DA" unicode="&#x1da;" horiz-adv-x="545" 
d="M479 815c-50 -32.667 -96 -66.668 -138 -102.001h-27c-34 31.333 -76 65.333 -126 102l29 53h13l19 -12c31.333 -21.333 58.333 -38.666 81 -51.999l119 64h13zM286 682.999c10 -10 15.001 -24.332 15.001 -42.999c0 -19.333 -5.66699 -34.833 -17 -46.5
s-26.333 -17.5 -45 -17.5s-33 5.16699 -43 15.5s-15 24.833 -15 43.5c0 19.333 5.66699 34.666 17 45.999s26.666 17 45.999 17c18 0 32 -5 42 -15zM458.501 683c9.66699 -10 14.499 -24.332 14.499 -42.999c0 -19.333 -5.5 -34.833 -16.5 -46.5s-25.833 -17.5 -44.5 -17.5
s-33 5.16699 -43 15.5s-15 24.833 -15 43.5c0 19.333 5.66699 34.666 17 45.999s26.333 17 45 17s32.834 -5 42.501 -15zM485 248.001l-10.001 -77c-7.33301 -57.333 -30.666 -101.5 -69.999 -132.5s-93.333 -46.5 -162 -46.5c-61.333 0 -108.833 12.5 -142.5 37.5
s-50.5 60.833 -50.5 107.5c0 10.667 1 22 3 34l11 79l29 255h122l-45 -316c-1.33301 -10.667 -2 -18 -2 -22c0 -50.667 29 -76 87 -76c65.333 0 101.333 32.667 108 98l34 316h123z" />
    <glyph glyph-name="uni01DB" unicode="&#x1db;" horiz-adv-x="622" 
d="M568 317l-11 -84c-8.66699 -78 -36.334 -137.833 -83.001 -179.5s-110.334 -62.5 -191.001 -62.5c-70 0 -125 16.167 -165 48.5s-60 78.5 -60 138.5c0 17.333 1.33301 33.666 4 48.999l13 93l36 323h132l-55 -398c-2 -14 -3 -26.667 -3 -38
c0 -36.667 8.83301 -63.667 26.5 -81s44.834 -26 81.501 -26c42.667 0 75.834 11.333 99.501 34s38.167 57.334 43.5 104.001l44 405h133zM239 920l-7 10l19 82l12 6c70.667 -27.333 145 -52 223 -74l-12 -58l-12 -6c-64.667 10 -139 23.333 -223 40zM230 730.5
c-10 10.333 -14.999 24.834 -14.999 43.501c0 19.333 5.66699 34.666 17 45.999s26.666 17 45.999 17c18 0 32 -5 42 -15s15 -24.333 15 -43c0 -19.333 -5.66699 -34.833 -17 -46.5s-26.333 -17.5 -45 -17.5s-33 5.16699 -43 15.5zM403.001 730.501
c-10 10.333 -14.999 24.834 -14.999 43.501c0 19.333 5.66699 34.666 17 45.999s26.666 17 45.999 17c18 0 32 -5 42 -15s15 -24.333 15 -43c0 -19.333 -5.5 -34.833 -16.5 -46.5s-26.167 -17.5 -45.5 -17.5c-18.667 0 -33 5.16699 -43 15.5z" />
    <glyph glyph-name="uni01DC" unicode="&#x1dc;" horiz-adv-x="545" 
d="M209 781l-7 10l19 82l12 6c70.667 -27.333 145 -52 223 -74l-12 -58l-12 -6c-64.667 10 -139 23.333 -223 40zM200 591.5c-10 10.333 -14.999 24.834 -14.999 43.501c0 19.333 5.66699 34.666 17 45.999s26.666 17 45.999 17c18 0 32 -5 42 -15s15 -24.333 15 -43
c0 -19.333 -5.66699 -34.833 -17 -46.5s-26.333 -17.5 -45 -17.5s-33 5.16699 -43 15.5zM373.001 591.501c-10 10.333 -14.999 24.834 -14.999 43.501c0 19.333 5.66699 34.666 17 45.999s26.666 17 45.999 17c18 0 32 -5 42 -15s15 -24.333 15 -43
c0 -19.333 -5.5 -34.833 -16.5 -46.5s-26.167 -17.5 -45.5 -17.5c-18.667 0 -33 5.16699 -43 15.5zM485.002 248.002l-10.001 -77c-7.33301 -57.333 -30.666 -101.5 -69.999 -132.5s-93.333 -46.5 -162 -46.5c-61.333 0 -108.833 12.5 -142.5 37.5s-50.5 60.833 -50.5 107.5
c0 10.667 1 22 3 34l11 79l29 255h122l-45 -316c-1.33301 -10.667 -2 -18 -2 -22c0 -50.667 29 -76 87 -76c65.333 0 101.333 32.667 108 98l34 316h123z" />
    <glyph glyph-name="Gcaron" unicode="&#x1e6;" horiz-adv-x="585" 
d="M587 613l-43.998 -120.002l-12 -1c-30 18.667 -56.833 32 -80.5 40s-49.834 12 -78.501 12c-66 0 -115.667 -22.5 -149 -67.5s-50 -118.167 -50 -219.5c0 -57.333 11.5 -98.666 34.5 -123.999s59.5 -38 109.5 -38c12.667 0 25 1.16699 37 3.5s27.333 6.5 46 12.5l9 55
l11 105l122 9l-13 -93l-17 -156c-39.333 -14 -75.333 -24.167 -108 -30.5s-66.667 -9.5 -102 -9.5c-86.667 0 -152.834 22.833 -198.501 68.5s-68.5 109.834 -68.5 192.501c0 128 31.5 226.5 94.5 295.5s153.167 103.5 270.5 103.5c70 0 132.333 -12.667 187 -38z
M525.002 820.998c-48.667 -31.333 -94.667 -65.667 -138 -103h-27c-34.667 32.667 -77 67 -127 103l30 52h13c50 -30.667 83.333 -51.667 100 -63c10.667 6 35.667 19.333 75 40l43 23h14z" />
    <glyph glyph-name="gcaron" unicode="&#x1e7;" horiz-adv-x="511" 
d="M468 705c-34.667 -29.333 -78.667 -69.667 -132 -121l-21 -20h-28c-30.667 38.667 -72.334 85.667 -125.001 141l39 49h13c38.667 -34.667 70.334 -65.667 95.001 -93c22.667 20 62.667 51 120 93h13zM497 483.999l-45.999 -113h-10c-26 15.333 -48.333 26 -67 32
s-39.667 9 -63 9c-50.667 0 -88.5 -15.5 -113.5 -46.5s-37.5 -80.833 -37.5 -149.5c0 -46 8 -78.833 24 -98.5s45.333 -29.5 88 -29.5c12 0 22.667 0.833008 32 2.5s20.666 5.16699 33.999 10.5l4 33l8 80l113 7l-10 -67l-16 -129c-66.667 -22 -125.667 -33 -177 -33
c-74.667 0 -131.334 19 -170.001 57s-58 94.333 -58 169c0 90.667 26.833 162.167 80.5 214.5s129.167 78.5 226.5 78.5c54.667 0 107.334 -9 158.001 -27z" />
    <glyph glyph-name="uni01EA" unicode="&#x1ea;" horiz-adv-x="631" 
d="M553.5 583.5c43.667 -45.667 65.499 -112.169 65.499 -199.502c0 -78.667 -13 -147.667 -39 -207s-64 -105.333 -114 -138s-110 -49 -180 -49c-78.667 0 -139.834 23.5 -183.501 70.5s-65.5 114.5 -65.5 202.5c0 78.667 12.833 147.334 38.5 206.001
s63.334 103.834 113.001 135.501s109.834 47.5 180.501 47.5c79.333 0 140.833 -22.833 184.5 -68.5zM218.499 478.498c-29.667 -44.333 -44.499 -115.166 -44.499 -212.499c0 -60.667 9.83301 -104.834 29.5 -132.501s51.5 -41.5 95.5 -41.5c60 0 105 22.333 135 67
s45 116 45 214c0 60.667 -9.83301 104.5 -29.5 131.5s-51.834 40.5 -96.501 40.5c-60 0 -104.833 -22.167 -134.5 -66.5zM235 -199.502c-18 15 -27.001 34.834 -27.001 59.501c0 14.667 3 27.834 9 39.501s17.333 25.5 34 41.5s43 39 79 69h71l-70 -72
c-18 -18.667 -29.167 -31.334 -33.5 -38.001s-6.5 -13.334 -6.5 -20.001c0 -18 10.333 -27 31 -27c18.667 0 43.334 10 74.001 30h6l14 -62c-38 -28.667 -74.667 -43 -110 -43c-29.333 0 -53 7.5 -71 22.5z" />
    <glyph glyph-name="uni01EB" unicode="&#x1eb;" horiz-adv-x="552" 
d="M491.5 134.5c-22.333 -45.667 -54.501 -80.832 -96.501 -105.499l-65 -67c-16.667 -17.333 -27 -29.333 -31 -36s-6 -13 -6 -19c0 -18 10.333 -27 31 -27c18.667 0 43.334 10 74.001 30h6l14 -62c-38 -28.667 -74.667 -43 -110 -43c-29.333 0 -53 7.5 -71 22.5
s-27 34.833 -27 59.5c0 17.333 4.5 33 13.5 47s27.833 33.667 56.5 59c-14.667 -1.33301 -26 -2 -34 -2c-68.667 0 -121.5 18.833 -158.5 56.5s-55.5 94.167 -55.5 169.5c0 58 11 109.167 33 153.5s54 79 96 104s92.333 37.5 151 37.5c68 0 120.5 -18.333 157.5 -55
s55.5 -92.334 55.5 -167.001c0 -58 -11.167 -109.833 -33.5 -155.5zM182.499 116.502c15 -19.667 40.833 -29.5 77.5 -29.5c46 0 80.167 15 102.5 45s33.5 79.333 33.5 148c0 49.333 -7.33301 83.833 -22 103.5s-40.667 29.5 -78 29.5c-45.333 0 -79.333 -14.833 -102 -44.5
s-34 -79.167 -34 -148.5c0 -49.333 7.5 -83.833 22.5 -103.5z" />
    <glyph glyph-name="Aringacute" unicode="&#x1fa;" horiz-adv-x="597" 
d="M282 808l-15 55.999c75.333 26.667 148.333 55.334 219 86.001l12 -4l23 -81l-6 -11c-62 -16 -135.667 -33.333 -221 -52zM553 -0.000976562h-133l-7 80l-10 63l-120 3l-108 -3l-24 -55l-27 -88h-130l296 628c-12.667 16.667 -19 37.667 -19 63
c0 30 8.33301 53.333 25 70s40.667 25 72 25c30 0 53 -8 69 -24s24 -38.333 24 -67c0 -31.333 -9 -55.333 -27 -72zM325 692.999c0 -26.667 13.667 -40 41 -40s41 12.667 41 38c0 26 -14 39 -42 39c-26.667 0 -40 -12.333 -40 -37zM388 242.999l-40 265h-9l-119 -265l83 -1z
" />
    <glyph glyph-name="aringacute" unicode="&#x1fb;" horiz-adv-x="517" 
d="M471 842l-6 -12.001c-75.333 -19.333 -149.333 -36.333 -222 -51l-12 6l-14 56c69.333 24.667 142.333 53.334 219 86.001l11 -5zM245.5 598.499c-16.333 16.333 -24.5 39.5 -24.5 69.5s8.33301 53.333 25 70s40.667 25 72 25c30 0 53 -8 69 -24s24 -38.333 24 -67
c0 -31.333 -8.83301 -55.5 -26.5 -72.5s-41.5 -25.5 -71.5 -25.5c-28.667 0 -51.167 8.16699 -67.5 24.5zM275 669.999c0 -27.333 13.667 -41 41 -41s41 12.667 41 38c0 26.667 -14 40 -42 40c-26.667 0 -40 -12.333 -40 -37zM369 504.999l95 -505h-123l-3 71l-5 32l-101 2
l-88 -2l-12 -25l-25 -78h-119l237 505h144zM317 195.999l-33 197h-8l-90 -197l65 -1z" />
    <glyph glyph-name="AEacute" unicode="&#x1fc;" horiz-adv-x="798" 
d="M774 99l-21 -99h-377l5 83l1 140l-212 -55l-45 -78l-39 -90h-131l380 643h427l6 -10l-21 -99l-151 5h-85l-2 -183l195 49l9 -8l-1 -93l-204 -48l-1 -153h100l160 6zM382 323l1 196h-8l-136 -233zM651 884l32.999 -77l-4 -12
c-59.333 -23.333 -130.666 -49.333 -213.999 -78l-13 4l-21 54c72 36 141 73.333 207 112z" />
    <glyph glyph-name="aeacute" unicode="&#x1fd;" horiz-adv-x="695" 
d="M381 561l-32 49c63.333 49.333 123.333 100 180 152l12 -1l47 -70l-2 -12c-74.667 -48 -139 -87.667 -193 -119zM664 87l-18 -87h-322l6 68l-1 97l-189 -48l-26 -42l-33 -75h-113l316 504h366l6 -9l-20 -86l-128 6h-71l1 -135l164 41l8 -7l-2 -85l-170 -37l1 -101h83
l136 5zM328 253l-1 145h-8l-112 -176z" />
    <glyph glyph-name="Oslashacute" unicode="&#x1fe;" horiz-adv-x="631" 
d="M619 384c0 -78.667 -13.0039 -147.669 -39.0039 -207.002s-64 -105.333 -114 -138s-110 -49 -180 -49c-33.333 0 -64.666 4.66699 -93.999 14l-71 -121l-68 31l-5 11l71 120c-54.667 47.333 -82 120 -82 218c0 78.667 12.833 147.334 38.5 206.001
s63.334 103.834 113.001 135.501s109.834 47.5 180.501 47.5c36.667 0 69.334 -5 98.001 -15l58 99l68 -30l5 -14l-57 -97c52 -46 78 -116.333 78 -211zM433.996 158.998c30 44.667 45.001 116 45.001 214c0 60.667 -9.83301 104.5 -29.5 131.5s-51.834 40.5 -96.501 40.5
c-60 0 -104.833 -22.167 -134.5 -66.5s-44.5 -115.166 -44.5 -212.499c0 -60.667 9.83301 -104.834 29.5 -132.501s51.5 -41.5 95.5 -41.5c60 0 105 22.333 135 67zM467.997 885.998l32.999 -77l-4 -12c-59.333 -23.333 -130.666 -49.333 -213.999 -78l-13 4l-21 54
c72 36 141 73.333 207 112z" />
    <glyph glyph-name="oslashacute" unicode="&#x1ff;" horiz-adv-x="552" 
d="M226 563l-32 49c63.333 49.333 123.333 100 180 152l12 -1l47 -70l-2 -12c-74.667 -48 -139 -87.667 -193 -119zM525 290c0 -58 -10.999 -109.668 -32.999 -155.001s-54 -80.666 -96 -105.999s-92 -38 -150 -38c-28.667 0 -55.667 3.66699 -81 11l-72 -108l-64 41l-2 12
l65 96c-40 38 -60 96 -60 174c0 58 11 109.167 33 153.5s54 79 96 104s92.333 37.5 151 37.5c29.333 0 56.666 -3.66699 81.999 -11l63 93l61 -41l5 -12l-55 -82c38 -38 57 -94.333 57 -169zM362.501 131.999c22.333 30 33.5 79.333 33.5 148
c0 49.333 -7.33301 83.833 -22 103.5s-40.667 29.5 -78 29.5c-45.333 0 -79.333 -14.833 -102 -44.5s-34 -79.167 -34 -148.5c0 -49.333 7.5 -83.833 22.5 -103.5s40.833 -29.5 77.5 -29.5c46 0 80.167 15 102.5 45z" />
    <glyph glyph-name="uni0200" unicode="&#x200;" horiz-adv-x="583" 
d="M539 0h-133l-6 83l-9 63l-121 2l-107 -2l-24 -56l-29 -90h-130l291 643h157zM376 248l-40 271h-9l-118 -270l82 -2zM312 721c-50 44 -93 83.667 -129 119l1 10l51 43l10 -1c32 -42 69.333 -88.333 112 -139l-35 -35zM456 721c-50 44 -93 83.667 -129 119l1 10l51 43
l10 -1c28 -38 65.333 -84.333 112 -139l-35 -35z" />
    <glyph glyph-name="uni0201" unicode="&#x201;" horiz-adv-x="517" 
d="M107 713l1 10l59 43l10 -2c45.333 -64 87.333 -120.667 126 -170l-41 -34l-11 3c-49.333 48 -97.333 98 -144 150zM258 713l1.99902 10l59 43l10 -2c32.667 -47.333 74.334 -104 125.001 -170l-40 -34l-11 3c-54.667 54 -103 104 -145 150zM463.999 0h-123l-3 71l-5 32
l-101 2l-88 -2l-12 -25l-25 -78h-119l237 505h144zM316.999 196l-33 197h-8l-90 -197l65 -1z" />
    <glyph glyph-name="uni0202" unicode="&#x202;" horiz-adv-x="583" 
d="M539 0h-133l-6 83l-9 63l-121 2l-107 -2l-24 -56l-29 -90h-130l291 643h157zM376 248l-40 271h-9l-118 -270l82 -2zM216 752c13.333 37.333 33.334 67.333 60.001 90s59.334 34 98.001 34c42.667 0 75.167 -11.333 97.5 -34s35.833 -52.667 40.5 -90l-34 -44h-19
c-4.66699 25.333 -15 44.5 -31 57.5s-36 19.5 -60 19.5c-24.667 0 -46.334 -6.5 -65.001 -19.5s-33.334 -32.167 -44.001 -57.5h-19z" />
    <glyph glyph-name="uni0203" unicode="&#x203;" horiz-adv-x="517" 
d="M187 570l-23.999 44c13.333 37.333 33.333 67.333 60 90s59.334 34 98.001 34c42.667 0 75.167 -11.333 97.5 -34s35.833 -52.667 40.5 -90l-34 -44h-19c-4.66699 25.333 -15 44.5 -31 57.5s-36 19.5 -60 19.5c-24.667 0 -46.334 -6.5 -65.001 -19.5
s-33.334 -32.167 -44.001 -57.5h-19zM464.001 0h-123l-3 71l-5 32l-101 2l-88 -2l-12 -25l-25 -78h-119l237 505h144zM317.001 196l-33 197h-8l-90 -197l65 -1z" />
    <glyph glyph-name="uni0204" unicode="&#x204;" horiz-adv-x="497" 
d="M248 538l-22 -159l107 -1l102 3l7 -10l-22 -99l-110 3l-99 -1l-10 -70l-10 -99l111 -1l154 5l5 -10l-20 -99h-393l31 192l50 451h396l6 -10l-22 -99l-149 5zM288 721c-50 44 -93 83.667 -129 119l1 10l51 43l10 -1c32 -42 69.333 -88.333 112 -139l-35 -35zM432 721
c-50 44 -93 83.667 -129 119l1 10l51 43l10 -1c28 -38 65.333 -84.333 112 -139l-35 -35z" />
    <glyph glyph-name="uni0205" unicode="&#x205;" horiz-adv-x="446" 
d="M85 713l1 10l59 43l10 -2c45.333 -64 87.333 -120.667 126 -170l-41 -34l-11 3c-48.667 48 -96.667 98 -144 150zM236 713l1.99902 10l59 43l10 -2c32.667 -47.333 74.334 -104 125.001 -170l-40 -34l-11 3c-54.667 54 -103 104 -145 150zM216.999 409l-15 -105l89 -1
l85 3l5 -9l-18 -92l-93 3l-82 -1l-7 -46l-6 -65h86l134 4l6 -9l-19 -91h-338l24 150l39 355h342l5 -10l-20 -91l-125 5h-92z" />
    <glyph glyph-name="uni0206" unicode="&#x206;" horiz-adv-x="497" 
d="M248 538l-22 -159l107 -1l102 3l7 -10l-22 -99l-110 3l-99 -1l-10 -70l-10 -99l111 -1l154 5l5 -10l-20 -99h-393l31 192l50 451h396l6 -10l-22 -99l-149 5zM192 752c13.333 37.333 33.334 67.333 60.001 90s59.334 34 98.001 34c42.667 0 75.167 -11.333 97.5 -34
s35.833 -52.667 40.5 -90l-34 -44h-19c-4.66699 25.333 -15 44.5 -31 57.5s-36 19.5 -60 19.5c-24.667 0 -46.334 -6.5 -65.001 -19.5s-33.334 -32.167 -44.001 -57.5h-19z" />
    <glyph glyph-name="uni0207" unicode="&#x207;" horiz-adv-x="446" 
d="M164 570l-23.999 44c13.333 37.333 33.333 67.333 60 90s59.334 34 98.001 34c42.667 0 75.167 -11.333 97.5 -34s35.833 -52.667 40.5 -90l-34 -44h-19c-4.66699 25.333 -15 44.5 -31 57.5s-36 19.5 -60 19.5c-24.667 0 -46.334 -6.5 -65.001 -19.5
s-33.334 -32.167 -44.001 -57.5h-19zM217.001 409l-15 -105l89 -1l85 3l5 -9l-18 -92l-93 3l-82 -1l-7 -46l-6 -65h86l134 4l6 -9l-19 -91h-338l24 150l39 355h342l5 -10l-20 -91l-125 5h-92z" />
    <glyph glyph-name="uni0208" unicode="&#x208;" horiz-adv-x="289" 
d="M200 204l-19 -204h-133l31 192l49 451h134zM161 721c-50 44 -93 83.667 -129 119l1 10l51 43l10 -1c32 -42 69.333 -88.333 112 -139l-35 -35zM305 721c-50 44 -93 83.667 -129 119l1 10l51 43l10 -1c28 -38 65.333 -84.333 112 -139l-35 -35z" />
    <glyph glyph-name="uni0209" unicode="&#x209;" horiz-adv-x="275" 
d="M128 563c-49.333 48 -97.333 98 -144 150l1 10l59 43l10 -2c45.333 -64 87.333 -120.667 126 -170l-41 -34zM280 563c-54.667 54 -103.001 104 -145.001 150l2 10l59 43l10 -2c32.667 -47.333 74.334 -104 125.001 -170l-40 -34zM180.999 161l-14 -161h-122l24 150
l38 355h124z" />
    <glyph glyph-name="uni020A" unicode="&#x20a;" horiz-adv-x="289" 
d="M200 204l-19 -204h-133l31 192l49 451h134zM65 752c13.333 37.333 33.334 67.333 60.001 90s59.334 34 98.001 34c42.667 0 75.167 -11.333 97.5 -34s35.833 -52.667 40.5 -90l-34 -44h-19c-4.66699 25.333 -15 44.5 -31 57.5s-36 19.5 -60 19.5
c-24.667 0 -46.334 -6.5 -65.001 -19.5s-33.334 -32.167 -44.001 -57.5h-19z" />
    <glyph glyph-name="uni020B" unicode="&#x20b;" horiz-adv-x="275" 
d="M39 614c13.333 37.333 33.334 67.333 60.001 90s59.334 34 98.001 34c42.667 0 75.167 -11.333 97.5 -34s35.833 -52.667 40.5 -90l-34 -44h-19c-4.66699 25.333 -15 44.5 -31 57.5s-36 19.5 -60 19.5c-24.667 0 -46.334 -6.5 -65.001 -19.5
s-33.334 -32.167 -44.001 -57.5h-19zM181.001 161l-14 -161h-122l24 150l38 355h124z" />
    <glyph glyph-name="uni020C" unicode="&#x20c;" horiz-adv-x="631" 
d="M553.5 583.5c43.667 -45.667 65.499 -112.169 65.499 -199.502c0 -78.667 -13 -147.667 -39 -207s-64 -105.333 -114 -138s-110 -49 -180 -49c-78.667 0 -139.834 23.5 -183.501 70.5s-65.5 114.5 -65.5 202.5c0 78.667 12.833 147.334 38.5 206.001
s63.334 103.834 113.001 135.501s109.834 47.5 180.501 47.5c79.333 0 140.833 -22.833 184.5 -68.5zM218.499 478.498c-29.667 -44.333 -44.499 -115.166 -44.499 -212.499c0 -60.667 9.83301 -104.834 29.5 -132.501s51.5 -41.5 95.5 -41.5c60 0 105 22.333 135 67
s45 116 45 214c0 60.667 -9.83301 104.5 -29.5 131.5s-51.834 40.5 -96.501 40.5c-60 0 -104.833 -22.167 -134.5 -66.5zM333 720.998c-50 44 -93 83.667 -129 119l1 10l51 43l10 -1c32 -42 69.333 -88.333 112 -139l-35 -35zM477 720.998c-50 44 -93 83.667 -129 119l1 10
l51 43l10 -1c28 -38 65.333 -84.333 112 -139l-35 -35z" />
    <glyph glyph-name="uni020D" unicode="&#x20d;" horiz-adv-x="552" 
d="M265 563c-49.333 48 -97.333 98 -144 150l1 10l59 43l10 -2c45.333 -64 87.333 -120.667 126 -170l-41 -34zM417 563c-54.667 54 -103.001 104 -145.001 150l2 10l59 43l10 -2c32.667 -47.333 74.334 -104 125.001 -170l-40 -34zM469.499 457
c37 -36.667 55.5 -92.334 55.5 -167.001c0 -58 -11 -109.667 -33 -155s-54 -80.666 -96 -105.999s-92 -38 -150 -38c-68.667 0 -121.5 18.833 -158.5 56.5s-55.5 94.167 -55.5 169.5c0 58 11 109.167 33 153.5s54 79 96 104s92.333 37.5 151 37.5
c68 0 120.5 -18.333 157.5 -55zM193.999 368.5c-22.667 -29.667 -34 -79.167 -34 -148.5c0 -49.333 7.5 -83.833 22.5 -103.5s40.833 -29.5 77.5 -29.5c46 0 80.167 15 102.5 45s33.5 79.333 33.5 148c0 49.333 -7.33301 83.833 -22 103.5s-40.667 29.5 -78 29.5
c-45.333 0 -79.333 -14.833 -102 -44.5z" />
    <glyph glyph-name="uni020E" unicode="&#x20e;" horiz-adv-x="631" 
d="M553.5 583.5c43.667 -45.667 65.499 -112.169 65.499 -199.502c0 -78.667 -13 -147.667 -39 -207s-64 -105.333 -114 -138s-110 -49 -180 -49c-78.667 0 -139.834 23.5 -183.501 70.5s-65.5 114.5 -65.5 202.5c0 78.667 12.833 147.334 38.5 206.001
s63.334 103.834 113.001 135.501s109.834 47.5 180.501 47.5c79.333 0 140.833 -22.833 184.5 -68.5zM218.499 478.498c-29.667 -44.333 -44.499 -115.166 -44.499 -212.499c0 -60.667 9.83301 -104.834 29.5 -132.501s51.5 -41.5 95.5 -41.5c60 0 105 22.333 135 67
s45 116 45 214c0 60.667 -9.83301 104.5 -29.5 131.5s-51.834 40.5 -96.501 40.5c-60 0 -104.833 -22.167 -134.5 -66.5zM237 751.998c13.333 37.333 33.334 67.333 60.001 90s59.334 34 98.001 34c42.667 0 75.167 -11.333 97.5 -34s35.833 -52.667 40.5 -90l-34 -44h-19
c-4.66699 25.333 -15 44.5 -31 57.5s-36 19.5 -60 19.5c-24.667 0 -46.334 -6.5 -65.001 -19.5s-33.334 -32.167 -44.001 -57.5h-19z" />
    <glyph glyph-name="uni020F" unicode="&#x20f;" horiz-adv-x="552" 
d="M177 614c13.333 37.333 33.334 67.333 60.001 90s59.334 34 98.001 34c42.667 0 75.167 -11.333 97.5 -34s35.833 -52.667 40.5 -90l-34 -44h-19c-4.66699 25.333 -15 44.5 -31 57.5s-36 19.5 -60 19.5c-24.667 0 -46.334 -6.5 -65.001 -19.5
s-33.334 -32.167 -44.001 -57.5h-19zM469.501 457c37 -36.667 55.5 -92.334 55.5 -167.001c0 -58 -11 -109.667 -33 -155s-54 -80.666 -96 -105.999s-92 -38 -150 -38c-68.667 0 -121.5 18.833 -158.5 56.5s-55.5 94.167 -55.5 169.5c0 58 11 109.167 33 153.5s54 79 96 104
s92.333 37.5 151 37.5c68 0 120.5 -18.333 157.5 -55zM194.001 368.5c-22.667 -29.667 -34 -79.167 -34 -148.5c0 -49.333 7.5 -83.833 22.5 -103.5s40.833 -29.5 77.5 -29.5c46 0 80.167 15 102.5 45s33.5 79.333 33.5 148c0 49.333 -7.33301 83.833 -22 103.5
s-40.667 29.5 -78 29.5c-45.333 0 -79.333 -14.833 -102 -44.5z" />
    <glyph glyph-name="uni0210" unicode="&#x210;" horiz-adv-x="574" 
d="M513 349.5c-25.333 -39.667 -60.334 -71.499 -105.001 -95.499c36 -74.667 77 -149 123 -223l-3 -15c-45.333 -14.667 -89.666 -23.334 -132.999 -26.001l-12 10c-32.667 75.333 -62 148.333 -88 219h-93l-2 -15l-19 -204h-133l31 192l50 451l232 1
c59.333 0 105.833 -14.167 139.5 -42.5s50.5 -68.5 50.5 -120.5c0 -48 -12.667 -91.833 -38 -131.5zM216.999 321.001l95 -3.99902c66.667 22.667 100 70 100 142c0 55.333 -32.333 84.666 -97 87.999l-66 -3zM304.999 721.002c-50 44 -93 83.667 -129 119l1 10l51 43l10 -1
c32 -42 69.333 -88.333 112 -139l-35 -35zM448.999 721.002c-50 44 -93 83.667 -129 119l1 10l51 43l10 -1c28 -38 65.333 -84.333 112 -139l-35 -35z" />
    <glyph glyph-name="uni0211" unicode="&#x211;" horiz-adv-x="513" 
d="M91 713l1 10l59 43l10 -2c45.333 -64 87.333 -120.667 126 -170l-41 -34l-11 3c-48.667 48 -96.667 98 -144 150zM242 713l1.99902 10l59 43l10 -2c32.667 -47.333 74.334 -104 125.001 -170l-40 -34l-11 3c-54.667 54 -103 104 -145 150zM445.499 271
c-20.333 -29.333 -48.5 -53.332 -84.5 -71.999c28.667 -53.333 63 -110 103 -170l-5 -14c-40.667 -12.667 -80.667 -20.334 -120 -23.001l-16 12c-28 63.333 -50 117 -66 161l-75 -1l-1 -3l-15 -161h-122l24 150l39 355h205c50.667 0 90.667 -12 120 -36s44 -57.333 44 -100
c0 -36 -10.167 -68.667 -30.5 -98zM194.999 258.001l76 -3.99805c49.333 16.667 74 49 74 97c0 21.333 -5.66699 37.166 -17 47.499s-29.333 16.166 -54 17.499l-56 -3z" />
    <glyph glyph-name="uni0212" unicode="&#x212;" horiz-adv-x="574" 
d="M513 349.5c-25.333 -39.667 -60.334 -71.499 -105.001 -95.499c36 -74.667 77 -149 123 -223l-3 -15c-45.333 -14.667 -89.666 -23.334 -132.999 -26.001l-12 10c-32.667 75.333 -62 148.333 -88 219h-93l-2 -15l-19 -204h-133l31 192l50 451l232 1
c59.333 0 105.833 -14.167 139.5 -42.5s50.5 -68.5 50.5 -120.5c0 -48 -12.667 -91.833 -38 -131.5zM216.999 321.001l95 -3.99902c66.667 22.667 100 70 100 142c0 55.333 -32.333 84.666 -97 87.999l-66 -3zM208.999 752.002c13.333 37.333 33.334 67.333 60.001 90
s59.334 34 98.001 34c42.667 0 75.167 -11.333 97.5 -34s35.833 -52.667 40.5 -90l-34 -44h-19c-4.66699 25.333 -15 44.5 -31 57.5s-36 19.5 -60 19.5c-24.667 0 -46.334 -6.5 -65.001 -19.5s-33.334 -32.167 -44.001 -57.5h-19z" />
    <glyph glyph-name="uni0213" unicode="&#x213;" horiz-adv-x="513" 
d="M171 570l-23.999 44c13.333 37.333 33.333 67.333 60 90s59.334 34 98.001 34c42.667 0 75.167 -11.333 97.5 -34s35.833 -52.667 40.5 -90l-34 -44h-19c-4.66699 25.333 -15 44.5 -31 57.5s-36 19.5 -60 19.5c-24.667 0 -46.334 -6.5 -65.001 -19.5
s-33.334 -32.167 -44.001 -57.5h-19zM445.501 271c-20.333 -29.333 -48.5 -53.332 -84.5 -71.999c28.667 -53.333 63 -110 103 -170l-5 -14c-40.667 -12.667 -80.667 -20.334 -120 -23.001l-16 12c-28 63.333 -50 117 -66 161l-75 -1l-1 -3l-15 -161h-122l24 150l39 355h205
c50.667 0 90.667 -12 120 -36s44 -57.333 44 -100c0 -36 -10.167 -68.667 -30.5 -98zM195.001 258.001l76 -3.99805c49.333 16.667 74 49 74 97c0 21.333 -5.66699 37.166 -17 47.499s-29.333 16.166 -54 17.499l-56 -3z" />
    <glyph glyph-name="uni0214" unicode="&#x214;" horiz-adv-x="622" 
d="M568 317l-11 -84c-8.66699 -78 -36.334 -137.833 -83.001 -179.5s-110.334 -62.5 -191.001 -62.5c-70 0 -125 16.167 -165 48.5s-60 78.5 -60 138.5c0 17.333 1.33301 33.666 4 48.999l13 93l36 323h132l-55 -398c-2 -14 -3 -26.667 -3 -38
c0 -36.667 8.83301 -63.667 26.5 -81s44.834 -26 81.501 -26c42.667 0 75.834 11.333 99.501 34s38.167 57.334 43.5 104.001l44 405h133zM329 721c-50 44 -93 83.667 -129 119l1 10l51 43l10 -1c32 -42 69.333 -88.333 112 -139l-35 -35zM473 721
c-50 44 -93 83.667 -129 119l1 10l51 43l10 -1c28 -38 65.333 -84.333 112 -139l-35 -35z" />
    <glyph glyph-name="uni0215" unicode="&#x215;" horiz-adv-x="545" 
d="M264 563c-48.667 48 -96.667 98 -144 150l1 10l59 43l10 -2c45.333 -64 87.333 -120.667 126 -170l-41 -34zM416 563c-54.667 54 -103.001 104 -145.001 150l2 10l59 43l10 -2c32.667 -47.333 74.334 -104 125.001 -170l-40 -34zM484.999 248l-10.001 -77
c-7.33301 -57.333 -30.666 -101.5 -69.999 -132.5s-93.333 -46.5 -162 -46.5c-61.333 0 -108.833 12.5 -142.5 37.5s-50.5 60.833 -50.5 107.5c0 10.667 1 22 3 34l11 79l29 255h122l-45 -316c-1.33301 -10.667 -2 -18 -2 -22c0 -50.667 29 -76 87 -76
c65.333 0 101.333 32.667 108 98l34 316h123z" />
    <glyph glyph-name="uni0216" unicode="&#x216;" horiz-adv-x="622" 
d="M568 317l-11 -84c-8.66699 -78 -36.334 -137.833 -83.001 -179.5s-110.334 -62.5 -191.001 -62.5c-70 0 -125 16.167 -165 48.5s-60 78.5 -60 138.5c0 17.333 1.33301 33.666 4 48.999l13 93l36 323h132l-55 -398c-2 -14 -3 -26.667 -3 -38
c0 -36.667 8.83301 -63.667 26.5 -81s44.834 -26 81.501 -26c42.667 0 75.834 11.333 99.501 34s38.167 57.334 43.5 104.001l44 405h133zM233 752c13.333 37.333 33.334 67.333 60.001 90s59.334 34 98.001 34c42.667 0 75.167 -11.333 97.5 -34s35.833 -52.667 40.5 -90
l-34 -44h-19c-4.66699 25.333 -15 44.5 -31 57.5s-36 19.5 -60 19.5c-24.667 0 -46.334 -6.5 -65.001 -19.5s-33.334 -32.167 -44.001 -57.5h-19z" />
    <glyph glyph-name="uni0217" unicode="&#x217;" horiz-adv-x="545" 
d="M175 614c13.333 37.333 33.334 67.333 60.001 90s59.334 34 98.001 34c42.667 0 75.167 -11.333 97.5 -34s35.833 -52.667 40.5 -90l-34 -44h-19c-4.66699 25.333 -15 44.5 -31 57.5s-36 19.5 -60 19.5c-24.667 0 -46.334 -6.5 -65.001 -19.5
s-33.334 -32.167 -44.001 -57.5h-19zM485.001 248l-10.001 -77c-7.33301 -57.333 -30.666 -101.5 -69.999 -132.5s-93.333 -46.5 -162 -46.5c-61.333 0 -108.833 12.5 -142.5 37.5s-50.5 60.833 -50.5 107.5c0 10.667 1 22 3 34l11 79l29 255h122l-45 -316
c-1.33301 -10.667 -2 -18 -2 -22c0 -50.667 29 -76 87 -76c65.333 0 101.333 32.667 108 98l34 316h123z" />
    <glyph glyph-name="Scommaaccent" unicode="&#x218;" horiz-adv-x="485" 
d="M483 619l-34.998 -114.003l-20 -8c-20.667 16 -42.334 28.5 -65.001 37.5s-44 13.5 -64 13.5c-27.333 0 -49.666 -7.16699 -66.999 -21.5s-26 -31.5 -26 -51.5c0 -18.667 7.66699 -34.667 23 -48s39.666 -29.333 72.999 -48c30.667 -17.333 56 -33.166 76 -47.499
s37 -32.666 51 -54.999s21 -48.5 21 -78.5c0 -38 -10.833 -72.667 -32.5 -104s-51.834 -56.333 -90.501 -75s-82 -28 -130 -28c-31.333 0 -63.333 3.5 -96 10.5s-63.334 17.5 -92.001 31.5l32 122l15 8c24 -23.333 50.5 -41 79.5 -53s56.167 -18 81.5 -18
c30 0 53.833 7.33301 71.5 22s26.5 32.667 26.5 54c0 20 -7.83301 36.833 -23.5 50.5s-40.167 29.834 -73.5 48.501c-30 16.667 -54.667 32 -74 46s-35.833 32 -49.5 54s-20.5 48.333 -20.5 79c0 38 10.667 72.833 32 104.5s50.833 56.5 88.5 74.5s79.834 27 126.501 27
c54.667 0 108.667 -11 162 -33zM289.002 -113.003c0 -27.333 -9.16699 -54.334 -27.5 -81.001s-46.833 -53.334 -85.5 -80.001l-39 35l-1 9c34.667 28.667 52 59.334 52 92.001c0 21.333 -9.66699 40 -29 56v11c28.667 16.667 58 29.334 88 38.001c28 -22 42 -48.667 42 -80
z" />
    </font>
</defs>
</svg>
