<?xml version="1.0" standalone="no"?>
<!DOCTYPE svg PUBLIC "-//W3C//DTD SVG 1.1//EN" "http://www.w3.org/Graphics/SVG/1.1/DTD/svg11.dtd" >
<svg>
<metadata>
Created by FontForge 20090914 at Thu Nov 12 13:28:21 2020
 By www-data
Copyright 2013 The Alegreya Sans Project Authors (https://github.com/huertatipografica/Alegreya-Sans)
</metadata>
<defs>
<font id="AlegreyaSansSC-Bold" horiz-adv-x="0" >
  <font-face 
    font-family="Alegreya Sans SC"
    font-weight="700"
    font-stretch="normal"
    units-per-em="1000"
    panose-1="0 0 8 0 0 0 0 0 0 0"
    ascent="800"
    descent="-200"
    x-height="505"
    cap-height="644"
    bbox="-446 -272.001 1392 1058.94"
    underline-thickness="59"
    underline-position="-119"
    unicode-range="U+000D-U+FB02"
  />
<missing-glyph horiz-adv-x="151" 
 />
    <glyph glyph-name="Idieresis" unicode="&#xa8;I" horiz-adv-x="295" 
d="M208 204l6 -204h-136l7 192l-7 452h138zM124.5 842c9.66699 -10 14.501 -24.334 14.501 -43.001c0 -19.333 -5.33301 -34.666 -16 -45.999s-25.334 -17 -44.001 -17s-33 5 -43 15s-15 24.667 -15 44s5.5 34.5 16.5 45.5s26.167 16.5 45.5 16.5c18 0 31.833 -5 41.5 -15z
M259.001 841.999c10 -10 15.001 -24.334 15.001 -43.001c0 -19.333 -5.5 -34.666 -16.5 -45.999s-25.833 -17 -44.5 -17s-33 5.16699 -43 15.5s-15 24.833 -15 43.5c0 19.333 5.66699 34.5 17 45.5s26.666 16.5 45.999 16.5c17.333 0 31 -5 41 -15z" />
    <glyph glyph-name="Odieresis" unicode="&#xa8;O" horiz-adv-x="643" 
d="M542.5 570.5c49 -55 73.499 -133.167 73.499 -234.5c0 -110.667 -26.667 -196 -80 -256s-128.666 -90 -225.999 -90c-90 0 -159.5 28.167 -208.5 84.5s-73.5 136.166 -73.5 239.499c0 108.667 26.5 192.334 79.5 251.001s128.167 88 225.5 88
c90.667 0 160.5 -27.5 209.5 -82.5zM204.999 494c-24 -33.333 -36 -87.668 -36 -163.001c0 -86 11.833 -147.333 35.5 -184s62.834 -55 117.501 -55c53.333 0 92 16.833 116 50.5s36 88.834 36 165.501c0 84.667 -11.833 145.167 -35.5 181.5s-62.834 54.5 -117.501 54.5
c-53.333 0 -92 -16.667 -116 -50zM282.999 844.998c10.667 -10.667 15.998 -25.667 15.998 -45c0 -20.667 -5.83301 -37 -17.5 -49s-27.5 -18 -47.5 -18c-19.333 0 -34.333 5.33301 -45 16s-16 26 -16 46s5.83301 36 17.5 48s27.834 18 48.501 18
c18.667 0 33.334 -5.33301 44.001 -16zM455.997 844.998c10.667 -10.667 15.999 -25.667 15.999 -45c0 -20.667 -5.83301 -37 -17.5 -49s-27.167 -18 -46.5 -18s-34.333 5.33301 -45 16s-16 26 -16 46s5.83301 36 17.5 48s27.5 18 47.5 18
c18.667 0 33.334 -5.33301 44.001 -16z" />
    <glyph glyph-name="Yacute" unicode="&#xb4;Y" horiz-adv-x="558" 
d="M333 179l6 -179h-135l6 179l-1 38l-205 427h144l14 -45l109 -245h9l122 241l19 49h139l-225 -422zM388 886l34 -79l-4 -12c-64.667 -25.333 -136.667 -51.333 -216 -78l-12 4l-22 55c82 41.333 151 79 207 113z" />
    <glyph glyph-name="idieresis" unicode="&#xa8;i" horiz-adv-x="279" 
d="M102 706c10.667 -10.667 15.998 -25.667 15.998 -45c0 -20.667 -5.83301 -37 -17.5 -49s-27.5 -18 -47.5 -18c-19.333 0 -34.333 5.33301 -45 16s-16 26 -16 46s5.83301 36 17.5 48s27.834 18 48.501 18c18.667 0 33.334 -5.33301 44.001 -16zM274.998 706
c10.667 -10.667 15.999 -25.667 15.999 -45c0 -20.667 -5.83301 -37 -17.5 -49s-27.167 -18 -46.5 -18s-34.333 5.33301 -45 16s-16 26 -16 46s5.83301 36 17.5 48s27.5 18 47.5 18c18.667 0 33.334 -5.33301 44.001 -16zM193.997 162l5 -162h-126l5 150l-5 355h128z" />
    <glyph glyph-name="odieresis" unicode="&#xa8;o" horiz-adv-x="560" 
d="M242 706c10.667 -10.667 15.998 -25.667 15.998 -45c0 -20.667 -5.83301 -37 -17.5 -49s-27.5 -18 -47.5 -18c-19.333 0 -34.333 5.33301 -45 16s-16 26 -16 46s5.83301 36 17.5 48s27.834 18 48.501 18c18.667 0 33.334 -5.33301 44.001 -16zM414.998 706
c10.667 -10.667 15.999 -25.667 15.999 -45c0 -20.667 -5.83301 -37 -17.5 -49s-27.167 -18 -46.5 -18s-34.333 5.33301 -45 16s-16 26 -16 46s5.83301 36 17.5 48s27.5 18 47.5 18c18.667 0 33.334 -5.33301 44.001 -16zM465.997 448
c41.333 -43.333 61.999 -104.666 61.999 -183.999c0 -86.667 -22.5 -153.834 -67.5 -201.501s-108.5 -71.5 -190.5 -71.5c-75.333 0 -133.666 22.167 -174.999 66.5s-62 106.833 -62 187.5c0 85.333 22.333 151.333 67 198s108 70 190 70c76 0 134.667 -21.667 176 -65z
M190.496 377.5c-17.667 -22.333 -26.5 -60.833 -26.5 -115.5c0 -44 3.83301 -78.5 11.5 -103.5s20 -42.833 37 -53.5s39.833 -16 68.5 -16c42 0 71.833 11 89.5 33s26.5 60.667 26.5 116c0 44 -4 78.5 -12 103.5s-20.333 42.833 -37 53.5s-39.667 16 -69 16
c-41.333 0 -70.833 -11.167 -88.5 -33.5z" />
    <glyph glyph-name="yacute" unicode="&#xb4;y" horiz-adv-x="497" 
d="M189 561l-31.999 50c77.333 62 137.666 113 180.999 153l13 -1l48 -72l-2 -13c-14.667 -9.33301 -25.667 -16 -33 -20c-83.333 -51.333 -137.333 -84 -162 -98zM299.001 137l5 -137h-126l6 137l-1 25l-171 343h134l11 -37l85 -177h7l94 172l16 42h130l-189 -340z" />
    <glyph glyph-name="Itilde" unicode="&#x7e;I" horiz-adv-x="295" 
d="M208 204l6 -204h-136l7 192l-7 452h138zM301 838l0.000976562 -10.999l-63 -89l-12 -4c-16 2.66699 -39.333 9 -70 19c-31.333 10 -50.666 15 -57.999 15s-14.5 -3.33301 -21.5 -10s-13.833 -14.334 -20.5 -23.001l-13 -17h-11l-39 39v12l62 87l13 5
c16 -2.66699 39.333 -9 70 -19c31.333 -10 50.666 -15 57.999 -15s14.166 3 20.499 9s12.833 13.333 19.5 22s11.667 15 15 19h11z" />
    <glyph glyph-name="itilde" unicode="&#x7e;i" horiz-adv-x="279" 
d="M296 699l0.000976562 -10.999l-63 -89l-12 -4c-16 2.66699 -39.333 9 -70 19c-31.333 10 -50.666 15 -57.999 15s-14.5 -3.33301 -21.5 -10s-13.833 -14.334 -20.5 -23.001l-13 -17h-11l-39 39v12l62 87l13 5c16 -2.66699 39.333 -9 70 -19
c31.333 -10 50.666 -15 57.999 -15s14.166 3 20.499 9s12.833 13.333 19.5 22s11.667 15 15 19h11zM194.001 162.001l5 -162h-126l5 150l-5 355h128z" />
    <glyph glyph-name="Utilde" unicode="&#x7e;U" horiz-adv-x="638" 
d="M573 317l-0.999023 -85c0.666992 -76.667 -21.666 -136 -66.999 -178s-110.333 -63 -195 -63c-81.333 0 -143.333 20.333 -186 61s-63 99 -61 175l1 93l-3 324h136l-7 -399c-0.666992 -48.667 9.66602 -84.667 30.999 -108s53.666 -35 96.999 -35
c86.667 0 129.667 45.333 129 136l-7 406h138zM495.001 841l-0.00195312 -11.001l-70 -89l-13 -5c-18 2 -45.667 8.33301 -83 19c-3.33301 0.666992 -14.166 3.5 -32.499 8.5s-31.166 7.5 -38.499 7.5s-14.5 -3 -21.5 -9s-14.5 -13.333 -22.5 -22l-18 -20h-12l-40 39v11
l71 89l12 5c16 -2 44.333 -8.66699 85 -20c37.333 -10 60.333 -15 69 -15c8 0 15.833 3.33301 23.5 10s15.5 14.334 23.5 23.001s13.333 14.667 16 18h12z" />
    <glyph glyph-name="utilde" unicode="&#x7e;u" horiz-adv-x="557" 
d="M454 702l-0.00195312 -11.001l-70 -89l-13 -5c-18 2 -45.667 8.33301 -83 19c-3.33301 0.666992 -14.166 3.5 -32.499 8.5s-31.166 7.5 -38.499 7.5s-14.5 -3 -21.5 -9s-14.5 -13.333 -22.5 -22l-18 -20h-12l-40 39v11l71 89l12 5c16 -2 44.333 -8.66699 85 -20
c37.333 -10 60.333 -15 69 -15c8 0 15.833 3.33301 23.5 10s15.5 14.334 23.5 23.001s13.333 14.667 16 18h12zM493.998 247.999l-0.999023 -77c0.666992 -57.333 -18.166 -101.5 -56.499 -132.5s-93.166 -46.5 -164.499 -46.5c-69.333 0 -122.333 15.5 -159 46.5
s-54 75.167 -52 132.5l1 79l-3 255h126l-6 -316c-0.666992 -32.667 7.16602 -56.667 23.499 -72s41.166 -23 74.499 -23c34 0 59.167 7.83301 75.5 23.5s24.166 39.5 23.499 71.5l-5 316h127z" />
    <glyph glyph-name="uni1EBC" unicode="&#x7e;E" horiz-adv-x="509" 
d="M483 112l8 -11l-9 -101h-404l7 192l-7 452h408l8 -11l-10 -101l-154 5l-116 -1l-3 -155l111 -2l105 3l8 -10l-9 -101l-114 3l-103 -1l-1 -69l3 -97l113 -1zM456 841l-0.00195312 -11.001l-70 -89l-13 -5c-18 2 -45.667 8.33301 -83 19
c-3.33301 0.666992 -14.166 3.5 -32.499 8.5s-31.166 7.5 -38.499 7.5s-14.5 -3 -21.5 -9s-14.5 -13.333 -22.5 -22l-18 -20h-12l-40 39v11l71 89l12 5c16 -2 44.333 -8.66699 85 -20c37.333 -10 60.333 -15 69 -15c8 0 15.833 3.33301 23.5 10s15.5 14.334 23.5 23.001
s13.333 14.667 16 18h12z" />
    <glyph glyph-name="uni1EBD" unicode="&#x7e;e" horiz-adv-x="456" 
d="M111 581l-40.002 38.999v11l71 89l12 5c16 -2 44.333 -8.66699 85 -20c37.333 -10 60.333 -15 69 -15c8 0 15.833 3.33301 23.5 10s15.5 14.334 23.5 23.001s13.333 14.667 16 18h12l39 -39v-11l-70 -89l-13 -5c-18 2 -45.667 8.33301 -83 19
c-3.33301 0.666992 -14.166 3.5 -32.499 8.5s-31.166 7.5 -38.499 7.5s-14.5 -3 -21.5 -9s-14.5 -13.333 -22.5 -22l-18 -20h-12zM419.998 101.999l8 -8l-9 -94h-346l5 150l-5 355h351l7 -10l-8 -93l-130 5h-94l-2 -102l90 -1l87 3l7 -9l-8 -95l-95 3h-83l-1 -44l2 -64h88z
" />
    <glyph glyph-name="uni1EF8" unicode="&#x7e;Y" horiz-adv-x="558" 
d="M333 179l6 -179h-135l6 179l-1 38l-205 427h144l14 -45l109 -245h9l122 241l19 49h139l-225 -422zM450 841l-0.00195312 -11.001l-70 -89l-13 -5c-18 2 -45.667 8.33301 -83 19c-3.33301 0.666992 -14.166 3.5 -32.499 8.5s-31.166 7.5 -38.499 7.5s-14.5 -3 -21.5 -9
s-14.5 -13.333 -22.5 -22l-18 -20h-12l-40 39v11l71 89l12 5c16 -2 44.333 -8.66699 85 -20c37.333 -10 60.333 -15 69 -15c8 0 15.833 3.33301 23.5 10s15.5 14.334 23.5 23.001s13.333 14.667 16 18h12z" />
    <glyph glyph-name="uni1EF9" unicode="&#x7e;y" horiz-adv-x="497" 
d="M117 581l-40.002 38.999v11l71 89l12 5c16 -2 44.333 -8.66699 85 -20c37.333 -10 60.333 -15 69 -15c8 0 15.833 3.33301 23.5 10s15.5 14.334 23.5 23.001s13.333 14.667 16 18h12l39 -39v-11l-70 -89l-13 -5c-18 2 -45.667 8.33301 -83 19
c-3.33301 0.666992 -14.166 3.5 -32.499 8.5s-31.166 7.5 -38.499 7.5s-14.5 -3 -21.5 -9s-14.5 -13.333 -22.5 -22l-18 -20h-12zM298.998 136.999l5 -137h-126l6 137l-1 25l-171 343h134l11 -37l85 -177h7l94 172l16 42h130l-189 -340z" />
    <glyph glyph-name="Gtilde" unicode="&#x7e;G" horiz-adv-x="598" 
d="M553 613l-29.001 -122.002l-13 -2c-32.667 18.667 -61.834 32.167 -87.501 40.5s-53.167 12.5 -82.5 12.5c-59.333 0 -102.666 -17.667 -129.999 -53s-41 -93.333 -41 -174c0 -53.333 5.83301 -95.666 17.5 -126.999s29.834 -54.166 54.501 -68.499
s57.334 -21.5 98.001 -21.5c14 0 27.167 1 39.5 3s27.5 5.66699 45.5 11l2 55l-2 102l125 9l-3 -90l3 -157c-80 -26.667 -153.667 -40 -221 -40c-100 0 -175.167 27.333 -225.5 82s-75.5 133 -75.5 235c0 111.333 29.167 196.5 87.5 255.5s141.166 88.5 248.499 88.5
c70 0 133 -13 189 -39zM500.999 840.998l-0.00195312 -11.001l-70 -89l-13 -5c-18 2 -45.667 8.33301 -83 19c-3.33301 0.666992 -14.166 3.5 -32.499 8.5s-31.166 7.5 -38.499 7.5s-14.5 -3 -21.5 -9s-14.5 -13.333 -22.5 -22l-18 -20h-12l-40 39v11l71 89l12 5
c16 -2 44.333 -8.66699 85 -20c37.333 -10 60.333 -15 69 -15c8 0 15.833 3.33301 23.5 10s15.5 14.334 23.5 23.001s13.333 14.667 16 18h12z" />
    <glyph glyph-name="gtilde" unicode="&#x7e;g" horiz-adv-x="520" 
d="M450 702l-0.00195312 -11.001l-70 -89l-13 -5c-18 2 -45.667 8.33301 -83 19c-3.33301 0.666992 -14.166 3.5 -32.499 8.5s-31.166 7.5 -38.499 7.5s-14.5 -3 -21.5 -9s-14.5 -13.333 -22.5 -22l-18 -20h-12l-40 39v11l71 89l12 5c16 -2 44.333 -8.66699 85 -20
c37.333 -10 60.333 -15 69 -15c8 0 15.833 3.33301 23.5 10s15.5 14.334 23.5 23.001s13.333 14.667 16 18h12zM474.998 483.999l-33.001 -113.999h-11c-26 14.667 -49.167 25 -69.5 31s-42.833 9 -67.5 9c-46 0 -79.167 -12.167 -99.5 -36.5s-30.5 -66.5 -30.5 -126.5
c0 -40 4.33301 -71.333 13 -94s22.5 -38.834 41.5 -48.501s44.833 -14.5 77.5 -14.5c20 0 41 4 63 12v32l-1 80l115 8l-2 -67v-130c-65.333 -22 -126.666 -33 -183.999 -33c-84 0 -147.333 21.5 -190 64.5s-64 104.5 -64 184.5c0 88 24.667 155.167 74 201.5
s119.333 69.5 210 69.5c56 0 108.667 -9.33301 158 -28z" />
    <glyph glyph-name=".notdef" horiz-adv-x="151" 
 />
    <glyph glyph-name="nonmarkingreturn" unicode="&#xd;" horiz-adv-x="151" 
 />
    <glyph glyph-name="space" unicode=" " horiz-adv-x="151" 
 />
    <glyph glyph-name="exclam" unicode="!" horiz-adv-x="234" 
d="M184 498l-26 -312l-75 -10l-12 12l-6 305l11 15l93 5zM159 105c10.667 -10.667 16 -25.668 16 -45.001c0 -20.667 -5.83301 -37 -17.5 -49s-27.5 -18 -47.5 -18c-19.333 0 -34.5 5.33301 -45.5 16s-16.5 26 -16.5 46c0 20.667 6 36.834 18 48.501s28 17.5 48 17.5
c19.333 0 34.333 -5.33301 45 -16z" />
    <glyph glyph-name="quotedbl" unicode="&#x22;" horiz-adv-x="363" 
d="M165 495l-35 -220l-62 -9l-11 9l-2 222l103 7zM315 495l-35 -220l-63 -9l-10 9l-2 222l102 7z" />
    <glyph glyph-name="numbersign" unicode="#" horiz-adv-x="549" 
d="M418 356l-20 -104h90l8 -9l-7 -68h-106l-28 -143h-77l-7 9l26 134h-100l-28 -143h-77l-6 9l26 134h-84l-8 9l6 68h101l20 104h-86l-8 9l6 68h103l27 140h74l9 -10l-25 -130h101l27 140h74l9 -10l-25 -130h87l9 -9l-7 -68h-104zM333 356h-101l-20 -104h100z" />
    <glyph glyph-name="dollar" unicode="$" horiz-adv-x="450" 
d="M364 53.5c-25.333 -29.667 -62.3311 -48.8311 -110.998 -57.498l-8 -132h-77l-11 11l8 118c-44.667 3.33301 -87 13 -127 29l17 118l13 9c22 -20 46.667 -36 74 -48s51.666 -18 72.999 -18c18.667 0 33.834 4.66699 45.501 14s17.5 21 17.5 35
c0 14.667 -6.83301 26.5 -20.5 35.5s-34.834 19.167 -63.501 30.5c-30 12.667 -54.5 24.5 -73.5 35.5s-35.333 26.167 -49 45.5s-20.5 43.333 -20.5 72c0 38.667 13.167 72.167 39.5 100.5s62.5 46.833 108.5 55.5l8 138h76l12 -12l-8 -123
c36 -2.66699 70.333 -10.334 103 -23.001l-19 -112l-18 -5c-21.333 16 -42 28 -62 36s-38.333 12 -55 12c-18.667 0 -33.334 -4.5 -44.001 -13.5s-16 -19.833 -16 -32.5c0 -14 6.66699 -25.5 20 -34.5s34.333 -19.5 63 -31.5c30 -12.667 54.5 -24.334 73.5 -35.001
s35.333 -25.5 49 -44.5s20.5 -42.833 20.5 -71.5c0 -38 -12.667 -71.833 -38 -101.5z" />
    <glyph glyph-name="percent" unicode="%" horiz-adv-x="854" 
d="M666 653l8 -19l-466 -726l-57 34l-6 14l467 730zM305 605c25.333 -30 38.002 -73.333 38.002 -130c0 -60.667 -13.833 -107.167 -41.5 -139.5s-67.834 -48.5 -120.501 -48.5c-48.667 0 -85.834 15 -111.501 45s-38.5 73.333 -38.5 130
c0 60.667 14.167 107.167 42.5 139.5s68.833 48.5 121.5 48.5c48 0 84.667 -15 110 -45zM132.002 540c-11.333 -15.333 -17.001 -39 -17.001 -71c0 -34.667 5.83301 -60.167 17.5 -76.5s29.834 -24.5 54.501 -24.5c25.333 0 43.833 7.83301 55.5 23.5s17.5 39.5 17.5 71.5
c0 34.667 -6 60 -18 76s-30.667 24 -56 24c-24.667 0 -42.667 -7.66699 -54 -23zM784.001 312.5c25.333 -30.333 38.002 -73.5 38.002 -129.5c0 -61.333 -13.833 -108.166 -41.5 -140.499s-67.834 -48.5 -120.501 -48.5c-48.667 0 -85.834 15 -111.501 45
s-38.5 73.333 -38.5 130c0 61.333 14.167 108.166 42.5 140.499s68.833 48.5 121.5 48.5c48 0 84.667 -15.167 110 -45.5zM611.003 247.5c-11.333 -15 -17.001 -38.834 -17.001 -71.501c0 -34 5.83301 -59.333 17.5 -76s29.834 -25 54.501 -25
c25.333 0 43.833 7.83301 55.5 23.5s17.5 39.834 17.5 72.501c0 34 -6 59 -18 75s-30.667 24 -56 24c-24.667 0 -42.667 -7.5 -54 -22.5z" />
    <glyph glyph-name="ampersand" unicode="&#x26;" horiz-adv-x="712" 
d="M692 273l-10.999 -81.9971h-129c-15.333 -65.333 -44.833 -115.5 -88.5 -150.5s-100.167 -52.5 -169.5 -52.5c-82 0 -146.333 23.667 -193 71s-70 112.666 -70 195.999c0 51.333 9.16699 96.5 27.5 135.5s44.166 69.167 77.499 90.5s71.666 32 114.999 32
c40.667 0 71.834 -8.66699 93.501 -26s32.5 -40.333 32.5 -69c0 -4.66699 -0.333008 -8.33398 -1 -11.001c58 44 109 92 153 144s78.333 105.333 103 160h11c26 -24 43.333 -52 52 -84c-19.333 -46 -57 -98 -113 -156s-122 -113.333 -198 -166s-152 -95.334 -228 -128.001
c11.333 -30.667 29.5 -54 54.5 -70s55.833 -24 92.5 -24c52.667 0 93.5 16.833 122.5 50.5s44.167 80.5 45.5 140.5l9 10h204zM171.001 385.503c-18.667 -28.333 -28.333 -66.833 -29 -115.5c42 18 81 37.333 117 58h-1c24.667 16 37 36 37 60c0 26.667 -16 40 -48 40
s-57.333 -14.167 -76 -42.5z" />
    <glyph glyph-name="quotesingle" unicode="'" horiz-adv-x="205" 
d="M165 495l-35 -220l-62 -9l-11 9l-2 222l103 7z" />
    <glyph glyph-name="parenleft" unicode="(" horiz-adv-x="295" 
d="M291 620v-11c-40 -36 -69 -82 -87 -138s-27 -128.333 -27 -217c0 -84 9 -152.833 27 -206.5s47 -98.834 87 -135.501v-11l-48 -40h-11c-56.667 41.333 -97.667 92.833 -123 154.5s-38.333 140.834 -39 237.501c0.666992 102 13.667 185 39 249s66.333 117 123 159h11z
" />
    <glyph glyph-name="parenright" unicode=")" horiz-adv-x="300" 
d="M-1 -99v11c40 36 69 82 87 138s27 128.333 27 217c0 84 -9 152.833 -27 206.5s-47 98.834 -87 135.501v11l48 40h11c56.667 -41.333 97.667 -92.833 123 -154.5s38.333 -140.834 39 -237.501c-0.666992 -102 -13.667 -185 -39 -249s-66.333 -117 -123 -159h-11z" />
    <glyph glyph-name="asterisk" unicode="*" horiz-adv-x="383" 
d="M241 734l-29 -123l-42 -5l-7 7l-4 116c24.667 8.66699 50.667 13 78 13zM149 600l-5.99902 -42l-10 -4l-106 32c-0.666992 23.333 2.66602 49.333 9.99902 78l10 3zM368.001 570l-6 -6l-120 -10l-19 38l4 9l105 40c14 -22 26 -45.667 36 -71zM237.001 535l67.999 -91.999
c-11.333 -16.667 -29.666 -35.334 -54.999 -56.001l-9 2l-45 119l30 28zM177 516.001l1 -11.001l-60 -96c-16 4.66699 -40 16.334 -72 35.001l1 9l92 82z" />
    <glyph glyph-name="plus" unicode="+" horiz-adv-x="480" 
d="M286 468v-163h162l9 -9l-7 -81h-164v-165l-81 -6l-10 8v163h-163l-9 9l7 81h165v166l81 7z" />
    <glyph glyph-name="comma" unicode="," horiz-adv-x="229" 
d="M188 46c0 -58 -40.333 -115.668 -121 -173.001l-43 38l-1 10c36.667 30.667 55 63.334 55 98.001c0 22.667 -10.667 42.667 -32 60l1 11c30.667 18.667 62.667 32.667 96 42c30 -24 45 -52.667 45 -86z" />
    <glyph glyph-name="hyphen" unicode="-" horiz-adv-x="304" 
d="M276 308v-82l-238 -37l-11 11v83l238 36z" />
    <glyph glyph-name="period" unicode="." horiz-adv-x="229" 
d="M165.5 117c11.667 -12 17.499 -28.667 17.499 -50c0 -22.667 -6.33301 -40.667 -19 -54s-30 -20 -52 -20s-38.833 6 -50.5 18s-17.5 29 -17.5 51s6.5 39.667 19.5 53s30.833 20 53.5 20c20.667 0 36.834 -6 48.501 -18z" />
    <glyph glyph-name="slash" unicode="/" horiz-adv-x="284" 
d="M306 668l-207 -783h-92l-8 11l206 784h90z" />
    <glyph glyph-name="zero" unicode="0" horiz-adv-x="521" 
d="M427.5 447c37 -44 55.501 -106.333 55.501 -187c0 -85.333 -20 -151.5 -60 -198.5s-96.667 -70.5 -170 -70.5c-68 0 -120.667 22 -158 66s-56 105.667 -56 185c0 86 20.167 152.667 60.5 200s97.166 71 170.499 71c68 0 120.5 -22 157.5 -66zM171.001 356.5
c-19.333 -22.333 -29 -57.5 -29 -105.5c0 -48.667 9.66699 -84.667 29 -108s49.333 -35 90 -35c40 0 69.833 11.167 89.5 33.5s29.5 56.833 29.5 103.5c0 49.333 -10 85.833 -30 109.5s-50 35.5 -90 35.5s-69.667 -11.167 -89 -33.5z" />
    <glyph glyph-name="one" unicode="1" horiz-adv-x="360" 
d="M261 497l-8 -289l7 -208h-135l6 194v166l-113 -30l-10 7v107l234 67z" />
    <glyph glyph-name="two" unicode="2" horiz-adv-x="471" 
d="M355 478.5c29.333 -21.667 43.998 -51.5 43.998 -89.5c0 -26.667 -8.83301 -56.167 -26.5 -88.5s-46.167 -69.5 -85.5 -111.5l-75 -83l2 -4h135l90 8l8 -9l-16 -107l-121 6h-227l-37 -2l-7 5v81l135 133c32 32.667 55.667 59.667 71 81s23 40 23 56
c0 13.333 -5 24 -15 32s-24 12 -42 12c-21.333 0 -43.666 -5.33301 -66.999 -16s-45 -25 -65 -43h-15l-22 103c68.667 46 135.334 69 200.001 69c46 0 83.667 -10.833 113 -32.5z" />
    <glyph glyph-name="three" unicode="3" horiz-adv-x="431" 
d="M330 475c32 -25.333 48.001 -58.333 48.001 -99c0 -27.333 -7.66699 -53.833 -23 -79.5s-39.333 -47.5 -72 -65.5v-5c72.667 -20.667 109 -65 109 -133c0 -36.667 -10.5 -69.334 -31.5 -98.001s-50.5 -50.834 -88.5 -66.501s-81.667 -23.5 -131 -23.5
c-35.333 0 -71.333 3.33301 -108 10l-7 103l9 9c39.333 -14 76.333 -21 111 -21c37.333 0 66.5 7.33301 87.5 22s31.5 35.334 31.5 62.001c0 22 -7.66699 39.167 -23 51.5s-38 18.833 -68 19.5h-70l-7 9l4 91l44 2c25.333 0.666992 48 8.83398 68 24.501s30 35.5 30 59.5
c0 18 -6 32 -18 42s-28.667 15 -50 15c-18.667 0 -37.5 -3.83301 -56.5 -11.5s-39.5 -19.5 -61.5 -35.5h-14l-20 97c57.333 39.333 117.666 59 180.999 59c52 0 94 -12.667 126 -38z" />
    <glyph glyph-name="four" unicode="4" horiz-adv-x="503" 
d="M470 53l-83 2l5 -135l-7 -9l-104 -7l-7 8l3 144h-160l-87 -3l-9 12v84l245 357h122l-3 -348h83l8 -12zM135 158h144v197h-9z" />
    <glyph glyph-name="five" unicode="5" horiz-adv-x="432" 
d="M400 503l-13.999 -102.999l-10 -10l-91 10h-116l-3 -112l62 -13c58 -12 99.833 -30.833 125.5 -56.5s38.5 -59.834 38.5 -102.501c0 -42 -10.667 -79.167 -32 -111.5s-51.5 -57.333 -90.5 -75s-83.5 -26.5 -133.5 -26.5c-34.667 0 -71.334 4 -110.001 12l-7 104l9 9
c44 -15.333 83.667 -23 119 -23c36.667 0 65.667 8.5 87 25.5s32 39.5 32 67.5c0 22.667 -7.66699 40.5 -23 53.5s-40.333 22.5 -75 28.5l-96 17l-9 11l5 285l16 15l58 -2h146l104 5z" />
    <glyph glyph-name="six" unicode="6" horiz-adv-x="483" 
d="M405.5 311.5c29.667 -33 44.499 -74.501 44.499 -124.501c0 -36 -8.16699 -69 -24.5 -99s-40.5 -53.833 -72.5 -71.5s-70.333 -26.5 -115 -26.5c-66 0 -116.667 19.833 -152 59.5s-53 94.834 -53 165.501c0 81.333 25.333 155 76 221s122.334 119.333 215.001 160h7
l91 -59v-13c-70 -26.667 -124.5 -54 -163.5 -82s-66.833 -61.333 -83.5 -100l8 -9c30 18.667 63.667 28 101 28c51.333 0 91.833 -16.5 121.5 -49.5zM307.499 101.499c15 16.333 22.498 39.5 22.498 69.5c0 31.333 -7.16699 55.333 -21.5 72s-35.5 25 -63.5 25
c-29.333 0 -59.666 -10 -90.999 -30v-21c0 -47.333 6.83301 -82.5 20.5 -105.5s36.834 -34.5 69.501 -34.5c27.333 0 48.5 8.16699 63.5 24.5z" />
    <glyph glyph-name="seven" unicode="7" horiz-adv-x="432" 
d="M136 506h221l49 2v-98l-165 -360l-56 -150l-107 30l-8 21l209 444h-165l-91 -9l-8 11l9 112z" />
    <glyph glyph-name="eight" unicode="8" horiz-adv-x="493" 
d="M384.5 556c30.333 -26 45.5 -61.6689 45.5 -107.002c0 -29.333 -7.66699 -55 -23 -77s-37 -42 -65 -60v-6c32.667 -16 58.334 -34.5 77.001 -55.5s28 -49.167 28 -84.5c0 -54 -19.5 -96.667 -58.5 -128s-90.833 -47 -155.5 -47c-60.667 0 -107.834 14 -141.501 42
s-50.5 64.333 -50.5 109c0 34.667 9.66699 63.334 29 86.001s46.333 41.667 81 57v6c-27.333 15.333 -49.333 33.833 -66 55.5s-25 49.5 -25 83.5c0 50.667 18 90.834 54 120.501s84 44.5 144 44.5c54 0 96.167 -13 126.5 -39zM190 484.498
c-14 -12.333 -21 -29.166 -21 -50.499c0 -22 7.66699 -39.5 23 -52.5s37.333 -25.167 66 -36.5c21.333 12 38 24.667 50 38s18 30.333 18 51c0 21.333 -6.83301 38.166 -20.5 50.499s-32.5 18.5 -56.5 18.5c-25.333 0 -45 -6.16699 -59 -18.5zM173.5 214.998
c-14.333 -13.333 -21.498 -32 -21.498 -56s8.16699 -43.167 24.5 -57.5s38.833 -21.5 67.5 -21.5c29.333 0 52.166 7.16699 68.499 21.5s24.5 32.5 24.5 54.5c0 22.667 -8.33301 40.5 -25 53.5s-42.334 26.5 -77.001 40.5c-26.667 -10 -47.167 -21.667 -61.5 -35z" />
    <glyph glyph-name="nine" unicode="9" horiz-adv-x="483" 
d="M77.5 194.5c-29.667 33 -44.499 74.501 -44.499 124.501c0 36 8.16699 69 24.5 99s40.5 53.833 72.5 71.5s70.333 26.5 115 26.5c66 0 116.667 -19.833 152 -59.5s53 -94.834 53 -165.501c0 -81.333 -25.333 -155 -76 -221s-122.334 -119.333 -215.001 -160h-7l-91 59v13
c70 26.667 124.5 54 163.5 82s66.833 61.333 83.5 100l-8 9c-30 -18.667 -63.667 -28 -101 -28c-51.333 0 -91.833 16.5 -121.5 49.5zM175.501 404.501c-15 -16.333 -22.498 -39.5 -22.498 -69.5c0 -31.333 7.16699 -55.333 21.5 -72s35.5 -25 63.5 -25
c29.333 0 59.666 10 90.999 30v21c0 47.333 -6.83301 82.5 -20.5 105.5s-36.834 34.5 -69.501 34.5c-27.333 0 -48.5 -8.16699 -63.5 -24.5z" />
    <glyph glyph-name="colon" unicode=":" horiz-adv-x="229" 
d="M161.5 117c11.667 -12 17.499 -28.667 17.499 -50c0 -22.667 -6.33301 -40.667 -19 -54s-30 -20 -52 -20s-38.833 6 -50.5 18s-17.5 29 -17.5 51s6.5 39.667 19.5 53s30.833 20 53.5 20c20.667 0 36.834 -6 48.501 -18zM161.499 380
c11.667 -12 17.499 -28.667 17.499 -50c0 -22.667 -6.33301 -40.667 -19 -54s-30 -20 -52 -20s-38.833 6 -50.5 18s-17.5 29 -17.5 51s6.5 39.667 19.5 53s30.833 20 53.5 20c20.667 0 36.834 -6 48.501 -18z" />
    <glyph glyph-name="semicolon" unicode=";" horiz-adv-x="229" 
d="M184 46c0 -58 -40.333 -115.668 -121 -173.001l-43 38l-1 10c36.667 30.667 55 63.334 55 98.001c0 22.667 -10.667 42.667 -32 60l1 11c30.667 18.667 62.667 32.667 96 42c30 -24 45 -52.667 45 -86zM161.5 379.999c11.667 -12 17.499 -28.667 17.499 -50
c0 -22.667 -6.33301 -40.667 -19 -54s-30 -20 -52 -20s-38.833 6 -50.5 18s-17.5 29 -17.5 51s6.5 39.667 19.5 53s30.833 20 53.5 20c20.667 0 36.834 -6 48.501 -18z" />
    <glyph glyph-name="less" unicode="&#x3c;" horiz-adv-x="480" 
d="M445 395l-6 -10l-311 -118v-7l312 -114l-19 -74l-12 -9l-375 143v108l9 12l373 145z" />
    <glyph glyph-name="equal" unicode="=" horiz-adv-x="480" 
d="M457 390l-7 -81h-418l-9 9l7 81h418zM457 201l-7 -81h-418l-9 9l7 81h418z" />
    <glyph glyph-name="greater" unicode="&#x3e;" horiz-adv-x="480" 
d="M437 326l9 -12v-108l-375 -143l-12 9l-19 74l312 114v7l-311 118l-6 10l29 76z" />
    <glyph glyph-name="question" unicode="?" horiz-adv-x="288" 
d="M230.5 476.5c41 -22.333 61.5 -53.502 61.5 -93.502c0 -22.667 -6.83301 -44.167 -20.5 -64.5s-33.167 -36.5 -58.5 -48.5l-57 -29l-3 -4l3 -53l-79 -12l-11 9l-7 86l4 11l66 33c30.667 14 46 32.333 46 55c0 18 -11.167 31.833 -33.5 41.5s-60.5 15.834 -114.5 18.501
l-9 12l24 71l12 6c76.667 -3.33301 135.5 -16.166 176.5 -38.499zM160 102.998c10.667 -10.667 16 -25.333 16 -44c0 -20 -5.83301 -36 -17.5 -48s-27.834 -18 -48.501 -18c-18.667 0 -33.167 5.16699 -43.5 15.5s-15.5 25.166 -15.5 44.499
c0 20.667 5.83301 36.834 17.5 48.501s27.5 17.5 47.5 17.5c18.667 0 33.334 -5.33301 44.001 -16z" />
    <glyph glyph-name="at" unicode="@" horiz-adv-x="844" 
d="M725 83c-65.333 -54 -158.335 -81.999 -279.002 -83.999l22 157h-12c-40 -68 -79.667 -122.333 -119 -163h-18c-36 13.333 -61.833 33.166 -77.5 59.499s-23.5 59.833 -23.5 100.5c0 44 8.66699 87.333 26 130s43.5 80.167 78.5 112.5s77.833 54.5 128.5 66.5h6l77 -20
l72 22l10 -6l-47 -346l-1 -21c52.667 8 93.834 31.167 123.501 69.5s44.5 87.166 44.5 146.499c0 50 -11.333 93.667 -34 131s-55.167 65.833 -97.5 85.5s-91.5 28.834 -147.5 27.501c-67.333 -1.33301 -126.666 -17.166 -177.999 -47.499s-91.166 -71.833 -119.499 -124.5
s-42.5 -112 -42.5 -178c0 -70 15.667 -130.167 47 -180.5s75.666 -88.833 132.999 -115.5s124 -40 200 -40l5 -13l-36 -62c-88 0.666992 -164.833 16.5 -230.5 47.5s-116.667 76.167 -153 135.5s-54.5 130 -54.5 212c0 85.333 18.5 162.166 55.5 230.499
s89.167 122 156.5 161s145 58.5 233 58.5c70 0 131.333 -13.167 184 -39.5s93.5 -63.833 122.5 -112.5s43.5 -105.667 43.5 -171c0 -98.667 -32.667 -175 -98 -229zM384.498 135.501c14.333 17 31.002 42.332 50.002 75.999s38.5 73.834 58.5 120.501l2 15v4l-64 20
c-32.667 0 -58.334 -16.333 -77.001 -49s-28 -75 -28 -127c0 -30 2.5 -51.667 7.5 -65s11.167 -20 18.5 -20s18.166 8.5 32.499 25.5z" />
    <glyph glyph-name="A" unicode="A" horiz-adv-x="600" 
d="M584 0h-138l-16 84l-17 60l-126 3l-111 -3l-17 -53l-17 -91h-134l218 644h161zM384 249l-76 268h-9l-88 -268l86 -2z" />
    <glyph glyph-name="B" unicode="B" horiz-adv-x="579" 
d="M515.5 280.5c21 -25 31.5 -57.833 31.5 -98.5c0 -124.667 -97.667 -187 -293 -187c-57.333 0 -116 1.66699 -176 5l7 192l-7 452l229 1c66 0 117.333 -13.833 154 -41.5s55 -67.5 55 -119.5c0 -34.667 -8.5 -65 -25.5 -91s-41.167 -45.667 -72.5 -59
c44 -10.667 76.5 -28.5 97.5 -53.5zM351 528.5c-17.333 12.333 -47.666 18.502 -90.999 18.502h-49l-3 -175l94 -3c25.333 6.66699 44.166 17.667 56.499 33s18.5 36.666 18.5 63.999c0 29.333 -8.66699 50.166 -26 62.499zM374.5 117.002
c23 16.667 34.5 40.668 34.5 72.001c0 47.333 -30.667 76.666 -92 87.999l-111 -2l-1 -71l3 -108c23.333 -2.66699 46.333 -4 69 -4c42 0 74.5 8.33301 97.5 25z" />
    <glyph glyph-name="C" unicode="C" horiz-adv-x="517" 
d="M505 613l-23.999 -113.001l-11 -5c-20 14 -42 25 -66 33s-48.667 12 -74 12c-106 0 -159 -69.667 -159 -209c0 -75.333 13.833 -131.833 41.5 -169.5s68.167 -56.5 121.5 -56.5c24.667 0 50.167 3.83301 76.5 11.5s50.166 18.167 71.499 31.5l12 -7l-11 -115
c-50.667 -23.333 -104 -35 -160 -35c-96 0 -169.167 28 -219.5 84s-75.5 136.333 -75.5 241c0 106.667 26.833 189.334 80.5 248.001s129.5 88 227.5 88c62.667 0 119 -13 169 -39z" />
    <glyph glyph-name="D" unicode="D" horiz-adv-x="655" 
d="M552 570c50 -52 75 -126.667 75 -224c0 -114 -28 -201.333 -84 -262s-136 -91 -240 -91c-31.333 0 -68.833 0.666992 -112.5 2s-81.167 3 -112.5 5l7 192l-7 452l259 4c93.333 0 165 -26 215 -78zM486 315c0 78.667 -12.833 135.833 -38.5 171.5
s-65.834 53.5 -120.501 53.5c-35.333 0 -73 -1.66699 -113 -5l-6 -331l3 -99c46.667 -4.66699 85.334 -7 116.001 -7c106 0 159 72.333 159 217z" />
    <glyph glyph-name="E" unicode="E" horiz-adv-x="509" 
d="M483 112l8 -11l-9 -101h-404l7 192l-7 452h408l8 -11l-10 -101l-154 5l-116 -1l-3 -155l111 -2l105 3l8 -10l-9 -101l-114 3l-103 -1l-1 -69l3 -97l113 -1z" />
    <glyph glyph-name="F" unicode="F" horiz-adv-x="456" 
d="M214 536l-3 -174l90 -1l109 3l9 -10l-10 -101l-119 3l-81 -1l-1 -51l6 -204h-136l7 192l-7 452h383l8 -11l-10 -102l-153 6z" />
    <glyph glyph-name="G" unicode="G" horiz-adv-x="598" 
d="M553 613l-29.001 -122.002l-13 -2c-32.667 18.667 -61.834 32.167 -87.501 40.5s-53.167 12.5 -82.5 12.5c-59.333 0 -102.666 -17.667 -129.999 -53s-41 -93.333 -41 -174c0 -53.333 5.83301 -95.666 17.5 -126.999s29.834 -54.166 54.501 -68.499
s57.334 -21.5 98.001 -21.5c14 0 27.167 1 39.5 3s27.5 5.66699 45.5 11l2 55l-2 102l125 9l-3 -90l3 -157c-80 -26.667 -153.667 -40 -221 -40c-100 0 -175.167 27.333 -225.5 82s-75.5 133 -75.5 235c0 111.333 29.167 196.5 87.5 255.5s141.166 88.5 248.499 88.5
c70 0 133 -13 189 -39z" />
    <glyph glyph-name="H" unicode="H" horiz-adv-x="696" 
d="M615 204l4 -204h-135l6 192l-1 75l-145 1l-131 -2l-1 -62l5 -204h-135l7 192l-7 452h137l-4 -266l138 -2l135 2l-4 266h138z" />
    <glyph glyph-name="I" unicode="I" horiz-adv-x="295" 
d="M208 204l6 -204h-136l7 192l-7 452h138z" />
    <glyph glyph-name="J" unicode="J" horiz-adv-x="335" 
d="M251 212l1.99902 -90.998c0 -38 -6.33301 -70.333 -19 -97s-33.167 -50.334 -61.5 -71.001s-67.166 -40.334 -116.499 -59.001l-41 72v12c41.333 21.333 70.5 42.5 87.5 63.5s25.5 48.167 25.5 81.5v76l-6 345l-106 -3l-10 10l7 93h245z" />
    <glyph glyph-name="K" unicode="K" horiz-adv-x="584" 
d="M593 28l-1.99902 -15c-37.333 -9.33301 -81.333 -17 -132 -23l-16 8c-87.333 116 -165 227.333 -233 334l-2 -128l5 -204h-135l7 192l-7 452h137l-5 -299l181 237l37 62h146l-228 -304c71.333 -99.333 153.666 -203.333 246.999 -312z" />
    <glyph glyph-name="L" unicode="L" horiz-adv-x="433" 
d="M431 101l-9 -101h-348l7 192l-7 452h138l-8 -440l3 -92h216z" />
    <glyph glyph-name="M" unicode="M" horiz-adv-x="797" 
d="M749 0h-120l-10 195l-23 248h-10l-144 -375h-105l-131 375h-9l-25 -235l-14 -208h-114l65 644h156l26 -95l102 -305h9l107 305l29 95h153z" />
    <glyph glyph-name="N" unicode="N" horiz-adv-x="695" 
d="M610 199l5 -199h-146l-263 436h-8l-1 -214l4 -222h-123l7 190l-6 454h145l263 -436h9l-3 430l125 8z" />
    <glyph glyph-name="O" unicode="O" horiz-adv-x="643" 
d="M542.5 570.5c49 -55 73.499 -133.167 73.499 -234.5c0 -110.667 -26.667 -196 -80 -256s-128.666 -90 -225.999 -90c-90 0 -159.5 28.167 -208.5 84.5s-73.5 136.166 -73.5 239.499c0 108.667 26.5 192.334 79.5 251.001s128.167 88 225.5 88
c90.667 0 160.5 -27.5 209.5 -82.5zM204.999 494c-24 -33.333 -36 -87.668 -36 -163.001c0 -86 11.833 -147.333 35.5 -184s62.834 -55 117.501 -55c53.333 0 92 16.833 116 50.5s36 88.834 36 165.501c0 84.667 -11.833 145.167 -35.5 181.5s-62.834 54.5 -117.501 54.5
c-53.333 0 -92 -16.667 -116 -50z" />
    <glyph glyph-name="P" unicode="P" horiz-adv-x="553" 
d="M480.5 594c36.333 -34 54.501 -82.667 54.501 -146c0 -48.667 -10.667 -91.167 -32 -127.5s-51.833 -64.5 -91.5 -84.5s-86.167 -30 -139.5 -30h-64v-2l6 -204h-136l7 192l-7 452l247 1c67.333 0 119.166 -17 155.499 -51zM394.001 436c0 36 -9.16699 62.833 -27.5 80.5
s-46.5 27.167 -84.5 28.5l-68 -4l-4 -232l92 -4c61.333 17.333 92 61 92 131z" />
    <glyph glyph-name="Q" unicode="Q" horiz-adv-x="649" 
d="M736 -110c-18 -35.333 -38.999 -64.334 -62.999 -87.001l-11 -4c-124 46 -233.667 109.667 -329 191h-21c-90.667 0 -160.667 28.167 -210 84.5s-74 136.166 -74 239.499c0 108.667 26.5 192.334 79.5 251.001s128.167 88 225.5 88c90.667 0 160.5 -27.5 209.5 -82.5
s73.5 -133.833 73.5 -236.5c0 -77.333 -14 -143 -42 -197s-68 -93.333 -120 -118c87.333 -53.333 179.666 -91.666 276.999 -114.999zM205.001 148.999c24 -36 63.333 -54 118 -54c52 0 90.167 17 114.5 51s36.5 89 36.5 165c0 83.333 -12 142.833 -36 178.5
s-63.333 53.5 -118 53.5c-53.333 0 -91.833 -16.667 -115.5 -50s-35.5 -88 -35.5 -164c0 -84 12 -144 36 -180z" />
    <glyph glyph-name="R" unicode="R" horiz-adv-x="590" 
d="M571 32l-2.00098 -15c-43.333 -15.333 -87.666 -24.333 -132.999 -27l-14 11c-48 82.667 -87 154.667 -117 216h-97v-13l6 -204h-136l7 192l-7 452l247 1c67.333 0 119.333 -16.5 156 -49.5s55 -80.167 55 -141.5c0 -41.333 -10.5 -79.166 -31.5 -113.499
s-50.5 -62.5 -88.5 -84.5c52 -82.667 103.667 -157.334 155 -224.001zM209.999 322l99 -4c56.667 19.333 85 60.333 85 123c0 34 -9.16699 59.5 -27.5 76.5s-46.5 26.167 -84.5 27.5l-68 -4z" />
    <glyph glyph-name="S" unicode="S" horiz-adv-x="498" 
d="M448 619l-22.001 -116.999l-20 -8c-22.667 16 -46.167 28.667 -70.5 38s-46.5 14 -66.5 14c-26.667 0 -48 -7.16699 -64 -21.5s-24 -30.833 -24 -49.5c0 -19.333 8.83301 -35.666 26.5 -48.999s45.5 -29 83.5 -47c36.667 -16.667 66.5 -32.167 89.5 -46.5
s42.667 -33.166 59 -56.499s24.5 -52 24.5 -86c0 -36.667 -10 -70.167 -30 -100.5s-48.333 -54.333 -85 -72s-79 -26.5 -127 -26.5c-63.333 0 -127 13.667 -191 41l19 126l15 8c26.667 -23.333 55.834 -41.166 87.501 -53.499s59.834 -18.5 84.501 -18.5
c29.333 0 52.166 7.16699 68.499 21.5s24.5 31.5 24.5 51.5c0 21.333 -8.83301 38.666 -26.5 51.999s-46.167 29.333 -85.5 48c-36 16 -65.333 31 -88 45s-42 32.667 -58 56s-24 51.666 -24 84.999c0 37.333 10 71.166 30 101.499s48 54.166 84 71.499s77 26 123 26
c54.667 0 109 -11 163 -33z" />
    <glyph glyph-name="T" unicode="T" horiz-adv-x="503" 
d="M489 633l-8 -101l-121 6h-40l-5 -334l6 -204h-136l7 192l-5 346h-40l-123 -6l-9 11l9 101h457z" />
    <glyph glyph-name="U" unicode="U" horiz-adv-x="638" 
d="M573 317l-0.999023 -85c0.666992 -76.667 -21.666 -136 -66.999 -178s-110.333 -63 -195 -63c-81.333 0 -143.333 20.333 -186 61s-63 99 -61 175l1 93l-3 324h136l-7 -399c-0.666992 -48.667 9.66602 -84.667 30.999 -108s53.666 -35 96.999 -35
c86.667 0 129.667 45.333 129 136l-7 406h138z" />
    <glyph glyph-name="V" unicode="V" horiz-adv-x="587" 
d="M369 0h-162l-197 644h138l16 -85l122 -433h9l140 426l17 92h134z" />
    <glyph glyph-name="W" unicode="W" horiz-adv-x="903" 
d="M686 0h-142l-96 308h-9l-97 -308h-143l-180 644h133l10 -79l114 -425h9l109 347l-46 157h138l15 -93l116 -411h9l130 416l16 88h126z" />
    <glyph glyph-name="X" unicode="X" horiz-adv-x="623" 
d="M398 337l208 -337h-163l-30 64l-107 167l-116 -174l-29 -57h-140l206 318l-204 326h163l30 -65l101 -157l105 162l27 60h144z" />
    <glyph glyph-name="Y" unicode="Y" horiz-adv-x="558" 
d="M333 179l6 -179h-135l6 179l-1 38l-205 427h144l14 -45l109 -245h9l122 241l19 49h139l-225 -422z" />
    <glyph glyph-name="Z" unicode="Z" horiz-adv-x="547" 
d="M510 546l-320 -443h216l109 9l5 -8l-11 -107l-145 3h-257l-77 -4v97l323 447h-204l-109 -9l-6 7l10 107l404 -1l62 1v-99z" />
    <glyph glyph-name="bracketleft" unicode="[" horiz-adv-x="295" 
d="M295 641v-60l-107 -14v-613l107 -13v-61l-6 -6l-209 10l7 377l-7 377l209 10z" />
    <glyph glyph-name="backslash" unicode="\" horiz-adv-x="284" 
d="M-10 668l11 12h89l207 -784l-9 -11h-92z" />
    <glyph glyph-name="bracketright" unicode="]" horiz-adv-x="295" 
d="M0 -120v60l107 14v613l-107 13v61l6 6l209 -10l-7 -377l7 -377l-209 -10z" />
    <glyph glyph-name="asciicircum" unicode="^" horiz-adv-x="441" 
d="M425 146l-9 -11l-75 -18l-113 286h-7l-118 -286l-11 -5l-75 28l144 349l13 7h107z" />
    <glyph glyph-name="underscore" unicode="_" horiz-adv-x="444" 
d="M459 -98l-7 -75h-458l-9 10l7 74h459z" />
    <glyph glyph-name="grave" unicode="`" horiz-adv-x="389" 
d="M315 571l-32 -50l-12 -1l-195 118l-2 13l48 72l12 1c48.667 -44.667 109 -95.667 181 -153z" />
    <glyph glyph-name="a" unicode="a" horiz-adv-x="529" 
d="M504 0h-127l-14 73l-9 29l-102 1l-90 -2l-7 -21l-15 -80h-123l177 505h149zM327 197l-57 193h-8l-67 -193l65 -1z" />
    <glyph glyph-name="b" unicode="b" horiz-adv-x="517" 
d="M452.5 219.5c17 -19 25.501 -44.167 25.501 -75.5c0 -50.667 -21 -88 -63 -112s-104.333 -36 -187 -36c-36.667 0 -88.334 1.33301 -155.001 4l5 150l-5 355l203 1c56 0 99.833 -11 131.5 -33s47.5 -53.667 47.5 -95c0 -26.667 -7 -50 -21 -70s-34 -35.667 -60 -47
c35.333 -8.66699 61.5 -22.5 78.5 -41.5zM302.501 404c-14.333 8 -39.499 12 -75.499 12h-31l-2 -119l73 -2c19.333 4.66699 33.666 12.167 42.999 22.5s14 24.833 14 43.5c0 20.667 -7.16699 35 -21.5 43zM323.502 100.5c17 11 25.499 27.501 25.499 49.501
c0 16 -5.66699 28.667 -17 38s-28.666 16.666 -51.999 21.999l-87 -2l-1 -46l2 -75c21.333 -2 40 -3 56 -3c32 0 56.5 5.5 73.5 16.5z" />
    <glyph glyph-name="c" unicode="c" horiz-adv-x="454" 
d="M434 486l-21.9971 -105.998l-10 -5c-15.333 10.667 -33.333 19 -54 25s-41.334 9 -62.001 9c-40.667 0 -71 -11.833 -91 -35.5s-30 -60.834 -30 -111.501c0 -110 42.333 -165 127 -165c20 0 40.667 2.66699 62 8s40.666 12.666 57.999 21.999l11 -6l-10 -105
c-39.333 -16 -82.333 -24 -129 -24c-82 0 -144.333 22 -187 66s-64 107.333 -64 190c0 84 22.667 149 68 195s109.666 69 192.999 69c50 0 96.667 -8.66699 140 -26z" />
    <glyph glyph-name="d" unicode="d" horiz-adv-x="570" 
d="M474.5 447.5c41.667 -41 62.5 -99.5 62.5 -175.5c0 -89.333 -23.5 -158 -70.5 -206s-114.5 -72 -202.5 -72c-51.333 0 -115 2 -191 6l5 150l-5 355l222 4c78 0 137.833 -20.5 179.5 -61.5zM407 242c0 59.333 -9.66699 101.833 -29 127.5s-50.333 38.5 -93 38.5
c-31.333 0 -60 -1.33301 -86 -4l-5 -242l2 -65c16 -2 32.333 -3.66699 49 -5s30.667 -2 42 -2c80 0 120 50.667 120 152z" />
    <glyph glyph-name="e" unicode="e" horiz-adv-x="456" 
d="M420 102l8 -8l-9 -94h-346l5 150l-5 355h351l7 -10l-8 -93l-130 5h-94l-2 -102l90 -1l87 3l7 -9l-8 -95l-95 3h-83l-1 -44l2 -64h88z" />
    <glyph glyph-name="f" unicode="f" horiz-adv-x="405" 
d="M194 407l-2 -119l70 -1l93 3l8 -9l-9 -94l-102 3l-62 -1l-1 -27l5 -162h-126l6 150l-6 355h330l7 -10l-9 -93l-129 5h-73z" />
    <glyph glyph-name="g" unicode="g" horiz-adv-x="520" 
d="M475 484l-33.001 -113.999h-11c-26 14.667 -49.167 25 -69.5 31s-42.833 9 -67.5 9c-46 0 -79.167 -12.167 -99.5 -36.5s-30.5 -66.5 -30.5 -126.5c0 -40 4.33301 -71.333 13 -94s22.5 -38.834 41.5 -48.501s44.833 -14.5 77.5 -14.5c20 0 41 4 63 12v32l-1 80l115 8
l-2 -67v-130c-65.333 -22 -126.666 -33 -183.999 -33c-84 0 -147.333 21.5 -190 64.5s-64 104.5 -64 184.5c0 88 24.667 155.167 74 201.5s119.333 69.5 210 69.5c56 0 108.667 -9.33301 158 -28z" />
    <glyph glyph-name="h" unicode="h" horiz-adv-x="604" 
d="M526 162l5 -162h-126l5 150l-1 49l-113 1l-101 -2l-1 -36l5 -162h-126l5 150l-5 355h128l-4 -200l107 -2l104 1l-3 201h128z" />
    <glyph glyph-name="i" unicode="i" horiz-adv-x="279" 
d="M194 162l5 -162h-126l5 150l-5 355h128z" />
    <glyph glyph-name="j" unicode="j" horiz-adv-x="315" 
d="M232 166l1.00098 -70c0 -45.333 -11.5 -81.666 -34.5 -108.999s-64.167 -52.333 -123.5 -75l-40 63v11c29.333 14.667 50.166 30.167 62.499 46.5s18.5 37.166 18.5 62.499v58l-4 259l-86 -2l-8 8l8 87h211z" />
    <glyph glyph-name="k" unicode="k" horiz-adv-x="520" 
d="M518 27l-3.00098 -14.999c-45.333 -11.333 -86.666 -18.333 -123.999 -21l-16 7c-66 87.333 -125.667 171.666 -179 252.999l-2 -89l5 -162h-126l5 150l-5 355h128l-5 -228l138 177l31 51l138 1l-183 -239c60.667 -81.333 126.667 -161.333 198 -240z" />
    <glyph glyph-name="l" unicode="l" horiz-adv-x="388" 
d="M374 94l-8 -94h-297l6 150l-6 355h128l-7 -343l2 -59h175z" />
    <glyph glyph-name="m" unicode="m" horiz-adv-x="686" 
d="M640 0h-113l-7 153l-17 165h-8l-111 -268h-97l-99 268h-8l-18 -153l-11 -165h-107l54 505h148l20 -74l73 -214h8l79 213l22 75h145z" />
    <glyph glyph-name="n" unicode="n" horiz-adv-x="604" 
d="M525 160l5 -160h-137l-202 313h-7l-1 -136l4 -177h-114l5 148l-5 357h136l202 -313h9l-4 308l116 8z" />
    <glyph glyph-name="o" unicode="o" horiz-adv-x="560" 
d="M466 448c41.333 -43.333 61.999 -104.666 61.999 -183.999c0 -86.667 -22.5 -153.834 -67.5 -201.501s-108.5 -71.5 -190.5 -71.5c-75.333 0 -133.666 22.167 -174.999 66.5s-62 106.833 -62 187.5c0 85.333 22.333 151.333 67 198s108 70 190 70
c76 0 134.667 -21.667 176 -65zM190.499 377.5c-17.667 -22.333 -26.5 -60.833 -26.5 -115.5c0 -44 3.83301 -78.5 11.5 -103.5s20 -42.833 37 -53.5s39.833 -16 68.5 -16c42 0 71.833 11 89.5 33s26.5 60.667 26.5 116c0 44 -4 78.5 -12 103.5s-20.333 42.833 -37 53.5
s-39.667 16 -69 16c-41.333 0 -70.833 -11.167 -88.5 -33.5z" />
    <glyph glyph-name="p" unicode="p" horiz-adv-x="494" 
d="M423 465.5c30.667 -27 46 -65.833 46 -116.5c0 -58.667 -20.333 -105.667 -61 -141s-95 -53 -163 -53h-51l5 -155h-126l5 150l-5 355l218 1c57.333 0 101.333 -13.5 132 -40.5zM320 278c11.333 14.667 17.001 34.333 17.001 59c0 25.333 -7.16699 44.333 -21.5 57
s-36.5 19.667 -66.5 21l-50 -2l-3 -165l72 -3c23.333 7.33301 40.666 18.333 51.999 33z" />
    <glyph glyph-name="q" unicode="q" horiz-adv-x="566" 
d="M620 -78c-10.667 -18 -20.1689 -32.8359 -28.502 -44.5029s-17.833 -22.5 -28.5 -32.5l-10 -2c-93.333 36.667 -178.666 86.334 -255.999 149.001c-6 -0.666992 -15 -1 -27 -1c-75.333 0 -133.666 22.167 -174.999 66.5s-62 106.833 -62 187.5
c0 85.333 22.333 151.333 67 198s108 70 190 70c76 0 134.667 -21.667 176 -65s62 -104.666 62 -183.999c0 -60 -10.833 -110.833 -32.5 -152.5s-53.167 -72.5 -94.5 -92.5c66 -37.333 137.333 -65.666 214 -84.999zM175.498 158.497c7.66699 -25 20 -42.833 37 -53.5
s39.833 -16 68.5 -16c42 0 71.833 11 89.5 33s26.5 60.667 26.5 116c0 44 -4 78.5 -12 103.5s-20.333 42.833 -37 53.5s-39.667 16 -69 16c-41.333 0 -70.833 -11.167 -88.5 -33.5s-26.5 -60.833 -26.5 -115.5c0 -44 3.83301 -78.5 11.5 -103.5z" />
    <glyph glyph-name="r" unicode="r" horiz-adv-x="524" 
d="M499 29l-1.00098 -13.998c-41.333 -12.667 -82 -20.334 -122 -23.001l-18 12c-37.333 64.667 -66.333 117.667 -87 159h-77v-1l5 -162h-126l5 150l-5 355l218 1c56.667 0 100.5 -13.167 131.5 -39.5s46.5 -63.833 46.5 -112.5c0 -31.333 -8.33301 -60.5 -25 -87.5
s-40 -49.5 -70 -67.5c44.667 -64.667 86.334 -121.334 125.001 -170.001zM195.999 259.002l74.999 -4c22.667 7.33301 39.334 18 50.001 32s16 32 16 54c0 24 -7 41.833 -21 53.5s-36 18.167 -66 19.5l-51 -2z" />
    <glyph glyph-name="s" unicode="s" horiz-adv-x="445" 
d="M390 487l-18.9971 -111.999l-18 -5c-21.333 16 -42 28 -62 36s-38.333 12 -55 12c-18.667 0 -33.334 -4.5 -44.001 -13.5s-16 -19.833 -16 -32.5c0 -14 6.66699 -25.5 20 -34.5s34.333 -19.5 63 -31.5c30 -12.667 54.5 -24.334 73.5 -35.001s35.333 -25.5 49 -44.5
s20.5 -42.833 20.5 -71.5s-7.5 -55.5 -22.5 -80.5s-37.667 -45.167 -68 -60.5s-67.833 -23 -112.5 -23c-24 0 -50.167 2.5 -78.5 7.5s-55.833 12.833 -82.5 23.5l17 118l13 9c22 -20 46.667 -36 74 -48s51.666 -18 72.999 -18c18.667 0 33.834 4.66699 45.501 14
s17.5 21 17.5 35c0 14.667 -6.83301 26.5 -20.5 35.5s-34.834 19.167 -63.501 30.5c-30 12.667 -54.5 24.5 -73.5 35.5s-35.333 26.167 -49 45.5s-20.5 43.333 -20.5 72c0 30 8.16699 57.333 24.5 82s39.666 44 69.999 58s65.833 21 106.5 21c48 0 94 -8.33301 138 -25z" />
    <glyph glyph-name="t" unicode="t" horiz-adv-x="446" 
d="M423 495l-7 -96l-102 7h-29l-3 -244l4 -162h-125l5 150l-2 256h-29l-104 -7l-8 10l7 96h386z" />
    <glyph glyph-name="u" unicode="u" horiz-adv-x="557" 
d="M494 248l-0.999023 -77c0.666992 -57.333 -18.166 -101.5 -56.499 -132.5s-93.166 -46.5 -164.499 -46.5c-69.333 0 -122.333 15.5 -159 46.5s-54 75.167 -52 132.5l1 79l-3 255h126l-6 -316c-0.666992 -32.667 7.16602 -56.667 23.499 -72s41.166 -23 74.499 -23
c34 0 59.167 7.83301 75.5 23.5s24.166 39.5 23.499 71.5l-5 316h127z" />
    <glyph glyph-name="v" unicode="v" horiz-adv-x="519" 
d="M330 0h-151l-160 505h127l15 -73l92 -317h8l107 310l14 80h124z" />
    <glyph glyph-name="w" unicode="w" horiz-adv-x="774" 
d="M592 0h-136l-71 216h-8l-72 -216h-135l-143 505h126l8 -70l82 -304h8l82 254l-33 120h130l11 -82l85 -292h8l95 297l14 77h119z" />
    <glyph glyph-name="x" unicode="x" horiz-adv-x="536" 
d="M348 266l170 -266h-150l-26 55l-79 112l-89 -119l-25 -48h-128l168 247l-169 258h152l26 -56l75 -106l79 112l24 50h132z" />
    <glyph glyph-name="y" unicode="y" horiz-adv-x="497" 
d="M299 137l5 -137h-126l6 137l-1 25l-171 343h134l11 -37l85 -177h7l94 172l16 42h130l-189 -340z" />
    <glyph glyph-name="z" unicode="z" horiz-adv-x="483" 
d="M442 414l-257 -319h166l95 8l5 -6l-10 -100l-130 3h-207l-68 -3v89l259 323h-161l-92 -9l-5 7l10 100l111 -2h229l55 1v-92z" />
    <glyph glyph-name="braceleft" unicode="{" horiz-adv-x="295" 
d="M284 648l6 -10.002l-11 -68c-14.667 3.33301 -26.667 5 -36 5c-36 0 -54 -20.333 -54 -61c0 -14 4 -37.667 12 -71c0.666992 -3.33301 2.66699 -12.833 6 -28.5s5 -29.167 5 -40.5c0 -23.333 -5.66699 -43.666 -17 -60.999s-28.333 -31.333 -51 -42v-5
c22 -10 38.833 -23.833 50.5 -41.5s17.5 -37.5 17.5 -59.5c0 -15.333 -4 -39 -12 -71c-0.666992 -4.66699 -2.66699 -14.667 -6 -30s-5 -28.666 -5 -39.999c0 -41.333 18 -62 54 -62c9.33301 0 21.333 1.66699 36 5l11 -67l-6 -10c-20 -6 -41.333 -9 -64 -9
c-44 0 -77.667 10.167 -101 30.5s-35 49.5 -35 87.5c0 23.333 4 54.333 12 93c6 30 9 52 9 66c0 40.667 -23 67 -69 79v63c46 12 69 38.333 69 79c0 14.667 -3 37 -9 67c-8 38.667 -12 69.667 -12 93c0 38 11.667 67.167 35 87.5s57 30.5 101 30.5c18.667 0 40 -3 64 -9z
" />
    <glyph glyph-name="bar" unicode="|" horiz-adv-x="307" 
d="M206 794l-3 -503v-543l-90 -7l-11 12l1 528l1 515l92 7z" />
    <glyph glyph-name="braceright" unicode="}" horiz-adv-x="295" 
d="M11 -111l-6 10.002l11 68c14.667 -3.33301 26.667 -5 36 -5c36 0 54 20.333 54 61c0 14 -4 37.667 -12 71c-0.666992 3.33301 -2.66699 12.833 -6 28.5s-5 29.167 -5 40.5c0 23.333 5.66699 43.666 17 60.999s28.333 31.333 51 42v5c-22 10 -38.833 23.833 -50.5 41.5
s-17.5 37.5 -17.5 59.5c0 15.333 4 39 12 71c0.666992 4.66699 2.66699 14.667 6 30s5 28.666 5 39.999c0 41.333 -18 62 -54 62c-9.33301 0 -21.333 -1.66699 -36 -5l-11 67l6 10c20 6 41.333 9 64 9c44 0 77.667 -10.167 101 -30.5s35 -49.5 35 -87.5
c0 -23.333 -4 -54.333 -12 -93c-6 -30 -9 -52 -9 -66c0 -40.667 23 -67 69 -79v-63c-46 -12 -69 -38.333 -69 -79c0 -14.667 3 -37 9 -67c8 -38.667 12 -69.667 12 -93c0 -38 -11.667 -67.167 -35 -87.5s-57 -30.5 -101 -30.5c-18.667 0 -40 3 -64 9z" />
    <glyph glyph-name="asciitilde" unicode="~" horiz-adv-x="480" 
d="M121.5 224c-9 -8 -23.5 -22.667 -43.5 -44h-13l-35 44v12l82 93l12 5c14.667 -2 49 -11 103 -27c6 -1.33301 22.333 -6 49 -14s45.334 -12 56.001 -12c7.33301 0 15.166 3.16699 23.499 9.5s19.833 16.833 34.5 31.5l14 15h12l35 -43v-12l-82 -93l-12 -5
c-19.333 2.66699 -55.333 12 -108 28c-20.667 6 -40.5 11.5 -59.5 16.5s-32.167 7.5 -39.5 7.5c-10 0 -19.5 -4 -28.5 -12z" />
    <glyph glyph-name="uni00A0" unicode="&#xa0;" horiz-adv-x="151" 
 />
    <glyph glyph-name="exclamdown" unicode="&#xa1;" horiz-adv-x="234" 
d="M75 401c-10.667 10.667 -16 25.668 -16 45.001c0 20.667 5.83301 37 17.5 49s27.5 18 47.5 18c19.333 0 34.5 -5.33301 45.5 -16s16.5 -26 16.5 -46c0 -20.667 -6 -36.834 -18 -48.501s-28 -17.5 -48 -17.5c-19.333 0 -34.333 5.33301 -45 16zM50 8.00098l26 312l75 10
l12 -12l6 -305l-11 -15l-93 -5z" />
    <glyph glyph-name="cent" unicode="&#xa2;" horiz-adv-x="383" 
d="M359 159l10.0029 -7.99805l-13 -103c-26.667 -8 -54.334 -13.667 -83.001 -17l-10 -155h-86l-10 11l9 149c-46.667 11.333 -82.834 37 -108.501 77s-38.5 91 -38.5 153c0 68 15.5 123.167 46.5 165.5s74.5 68.166 130.5 77.499l9 148h83l14 -12l-9 -136
c27.333 -4 51.333 -11 72 -21l-22 -106l-11 -5c-34 18.667 -64.333 28 -91 28c-30.667 0 -54.334 -11 -71.001 -33s-25 -53.333 -25 -94c0 -46.667 9 -82.334 27 -107.001s43.667 -37 77 -37c30 0 63.333 8.33301 100 25z" />
    <glyph glyph-name="sterling" unicode="&#xa3;" horiz-adv-x="446" 
d="M420 87l-10.001 -90.001l-126 3h-260l-6 7l7 74c24.667 6 42.834 17 54.501 33s17.5 38 17.5 66v90h-73l-5 7l6 67h71v68c-0.666992 58.667 16.5 103.834 51.5 135.501s85.167 47.5 150.5 47.5c38 0 76 -5.33301 114 -16l-8 -93l-8 -5c-41.333 18.667 -77.333 28 -108 28
c-50.667 0 -76 -26 -76 -78l-1 -87h139l4 -7l-6 -67h-137l-1 -65c0 -27.333 -2.83301 -49 -8.5 -65s-16.167 -32 -31.5 -48v-3h149l96 5z" />
    <glyph glyph-name="currency" unicode="&#xa4;" horiz-adv-x="435" 
d="M426 501v-12l-69 -62c14.667 -24 22 -50 22 -78c0 -23.333 -6.66699 -47.333 -20 -72l70 -59l1 -12l-57 -61l-12 1l-61 69c-24.667 -16 -50.667 -24 -78 -24c-26 0 -50.333 7 -73 21l-59 -69l-12 -1l-61 57l1 13l68 60c-14.667 23.333 -22 49 -22 77c0 25.333 7 50 21 74
l-69 59l-2 12l57 60h12l63 -69c22 14 47.333 21 76 21c25.333 0 49 -6.33301 71 -19l60 69l13 2zM160 411c-16 -16 -24 -36.667 -24 -62s8 -45.833 24 -61.5s36.667 -23.5 62 -23.5s46 8 62 24s24 36.333 24 61c0 25.333 -8 46 -24 62s-36.667 24 -62 24s-46 -8 -62 -24z
" />
    <glyph glyph-name="yen" unicode="&#xa5;" horiz-adv-x="526" 
d="M363 247l-43 -75h180l6 -6l-5 -55h-187l4 -111h-114l5 111h-176l-5 7l4 54h171l-39 75h-131l-5 8l4 53h100l-102 196h120l12 -36l99 -186h8l108 182l17 40h117l-113 -196h102l6 -5l-5 -56h-138z" />
    <glyph glyph-name="brokenbar" unicode="&#xa6;" horiz-adv-x="307" 
d="M206 794l-3 -417l-91 -11l-9 8v422l93 7zM203 148v-400l-90 -7l-11 12l1 397l89 10z" />
    <glyph glyph-name="section" unicode="&#xa7;" horiz-adv-x="431" 
d="M361 54c0 -27.333 -8.16504 -52.665 -24.498 -75.998s-38.833 -41.833 -67.5 -55.5s-61 -20.5 -97 -20.5c-22.667 0 -48 2.66699 -76 8s-53 12.333 -75 21l17 105l12 8c21.333 -18 44.166 -32.333 68.499 -43s46.5 -16 66.5 -16s35.5 4.66699 46.5 14s16.5 20 16.5 32
c0 13.333 -6.5 24.833 -19.5 34.5s-33.5 21.5 -61.5 35.5c-30 15.333 -54.167 29.166 -72.5 41.499s-34.333 28.166 -48 47.499s-20.5 42.333 -20.5 69c0 28.667 8 56 24 82s38 47.333 66 64c-32 26 -48 57.333 -48 94c0 27.333 8.16699 52.666 24.5 75.999
s38.833 42 67.5 56s60.667 21 96 21c19.333 0 40.333 -2 63 -6s43.334 -9.66699 62.001 -17l-16 -101l-16 -5c-20.667 14 -40.834 24.667 -60.501 32s-36.5 11 -50.5 11c-17.333 0 -31.333 -4.66699 -42 -14s-16 -20 -16 -32c0 -12.667 6.16699 -23.5 18.5 -32.5
s33.166 -21.167 62.499 -36.5c29.333 -14.667 53.5 -28.167 72.5 -40.5s35.333 -28.333 49 -48s20.5 -42.5 20.5 -68.5c0 -28 -8.33301 -54.833 -25 -80.5s-39 -46.5 -67 -62.5c33.333 -27.333 50 -59.666 50 -96.999zM151.502 254.501
c9 -10.333 19.499 -19.168 31.499 -26.501s31.333 -18.333 58 -33c32.667 18.667 49 41 49 67c0 13.333 -4.66699 25.5 -14 36.5s-20.166 20.5 -32.499 28.5s-31.5 19 -57.5 33c-32 -20.667 -48 -44 -48 -70c0 -13.333 4.5 -25.166 13.5 -35.499z" />
    <glyph glyph-name="dieresis" unicode="&#xa8;" horiz-adv-x="389" 
d="M155 666c10.667 -10.667 15.998 -25.667 15.998 -45c0 -20.667 -5.83301 -37 -17.5 -49s-27.5 -18 -47.5 -18c-19.333 0 -34.333 5.33301 -45 16s-16 26 -16 46s5.83301 36 17.5 48s27.834 18 48.501 18c18.667 0 33.334 -5.33301 44.001 -16zM327.998 666
c10.667 -10.667 15.999 -25.667 15.999 -45c0 -20.667 -5.83301 -37 -17.5 -49s-27.167 -18 -46.5 -18s-34.333 5.33301 -45 16s-16 26 -16 46s5.83301 36 17.5 48s27.5 18 47.5 18c18.667 0 33.334 -5.33301 44.001 -16z" />
    <glyph glyph-name="copyright" unicode="&#xa9;" horiz-adv-x="687" 
d="M500 560c45.333 -25.333 80.5 -61 105.5 -107s37.5 -99.333 37.5 -160s-12.5 -114 -37.5 -160s-60.167 -81.667 -105.5 -107s-97.666 -38 -156.999 -38s-111.666 12.667 -156.999 38s-80.5 61 -105.5 107s-37.5 99.333 -37.5 160s12.5 114 37.5 160
s60.167 81.667 105.5 107s97.666 38 156.999 38s111.666 -12.667 156.999 -38zM210.5 519.5c-38.333 -21.667 -68 -52 -89 -91s-31.5 -84.167 -31.5 -135.5s10.5 -96.5 31.5 -135.5s50.667 -69.333 89 -91s82.5 -32.5 132.5 -32.5s94.167 10.833 132.5 32.5s68 52 89 91
s31.5 84.167 31.5 135.5s-10.5 96.5 -31.5 135.5s-50.667 69.333 -89 91s-82.5 32.5 -132.5 32.5s-94.167 -10.833 -132.5 -32.5zM454 448l-16.001 -70.001l-6 -4c-10 5.33301 -21.333 9.66602 -34 12.999s-24.667 5 -36 5c-26 0 -45.333 -7.16699 -58 -21.5
s-19 -37.166 -19 -68.499c0 -68 27 -102 81 -102c11.333 0 23.5 1.33301 36.5 4s24.833 6.33398 35.5 11.001l8 -4l-7 -70c-24 -9.33301 -50.667 -14 -80 -14c-55.333 0 -97 14.167 -125 42.5s-42 69.5 -42 123.5c0 54.667 15 97 45 127s72.667 45 128 45
c28.667 0 58.334 -5.66699 89.001 -17z" />
    <glyph glyph-name="ordfeminine" unicode="&#xaa;" horiz-adv-x="340" 
d="M262.5 628c20.333 -16 30.5039 -38.665 30.5039 -67.998l-3 -77c-2 -28 -3 -48.667 -3 -62c0 -14.667 4.33301 -22 13 -22c7.33301 0 12.666 1.33301 15.999 4l7 -6l-10 -55c-15.333 -11.333 -32 -17 -50 -17c-16.667 0 -29.334 3.66699 -38.001 11
s-15.334 19.666 -20.001 36.999h-4c-20 -24 -44 -40.333 -72 -49c-32 0.666992 -57.333 9.66699 -76 27s-28 41 -28 71c0 46 24.333 73 73 81l99 16l1 21c0 14 -3.16699 24.167 -9.5 30.5s-16.5 9.5 -30.5 9.5c-24.667 0 -56.667 -11.333 -96 -34l-7 3l-11 67
c20 11.333 41.5 20.166 64.5 26.499s45.5 9.5 67.5 9.5c37.333 0 66.166 -8 86.499 -24zM143.004 461.002c-16.667 -3.33301 -25.001 -13.334 -25.001 -30.001c0 -11.333 2.83301 -20.166 8.5 -26.499s13.834 -9.5 24.501 -9.5c15.333 0 30.333 8 45 24l1 52z" />
    <glyph glyph-name="guillemotleft" unicode="&#xab;" horiz-adv-x="428" 
d="M230 215v22l135 178l63 -33l2 -13l-103 -141l103 -140l-2 -13l-63 -34zM45 215v22l135 178l63 -33l2 -13l-103 -141l103 -140l-2 -13l-63 -34z" />
    <glyph glyph-name="logicalnot" unicode="&#xac;" horiz-adv-x="480" 
d="M432 297v-247l-81 -6l-10 8v163h-310l-9 9l7 81h397z" />
    <glyph glyph-name="uni00AD" unicode="&#xad;" horiz-adv-x="304" 
d="M276 308v-82l-238 -37l-11 11v83l238 36z" />
    <glyph glyph-name="registered" unicode="&#xae;" horiz-adv-x="446" 
d="M358 651c34 -34 51 -78.667 51 -134c0 -56.667 -17 -102 -51 -136s-79 -51 -135 -51s-101 17 -135 51s-51 79.333 -51 136c0 55.333 17 100 51 134s79 51 135 51s101 -17 135 -51zM334 405c28 28 42 65.333 42 112c0 45.333 -14 82 -42 110s-64.667 42 -110 42
c-46 0 -83 -14 -111 -42s-42 -64.667 -42 -110c0 -46.667 14 -84 42 -112s65 -42 111 -42c45.333 0 82 14 110 42zM295 528c-6.66699 -10 -15.667 -18.667 -27 -26c12 -18.667 28.333 -40.667 49 -66l-1 -5c-11.333 -4.66699 -27 -7.66699 -47 -9l-6 4
c-13.333 21.333 -25 42 -35 62h-31l2 -63h-48l1 57l-1 138l85 1c22 0 39 -5.33301 51 -16s18 -25.667 18 -45c0 -11.333 -3.33301 -22 -10 -32zM198 526l31 -2.00098c8.66699 3.33301 15 7.5 19 12.5s6 11.5 6 19.5c0 18.667 -11.667 28.334 -35 29.001l-20 -1z" />
    <glyph glyph-name="macron" unicode="&#xaf;" horiz-adv-x="389" 
d="M342 651l-6 -74h-280l-9 9l6 74h280z" />
    <glyph glyph-name="degree" unicode="&#xb0;" horiz-adv-x="293" 
d="M238.5 615.5c25 -25 37.5 -55.833 37.5 -92.5c0 -36 -12.5 -66.5 -37.5 -91.5s-55.5 -37.5 -91.5 -37.5c-36.667 0 -67.667 12.5 -93 37.5s-38 55.5 -38 91.5c0 36.667 12.667 67.5 38 92.5s56.333 37.5 93 37.5c36 0 66.5 -12.5 91.5 -37.5zM94.5 574.5
c-13.667 -13.667 -20.5 -30.834 -20.5 -51.501c0 -20 6.83301 -36.833 20.5 -50.5s30.834 -20.5 51.501 -20.5s37.834 6.83301 51.501 20.5s20.5 30.5 20.5 50.5c0 20.667 -6.83301 37.834 -20.5 51.501s-30.834 20.5 -51.501 20.5s-37.834 -6.83301 -51.501 -20.5z" />
    <glyph glyph-name="plusminus" unicode="&#xb1;" horiz-adv-x="480" 
d="M286 468v-163h162l9 -9l-7 -81h-164v-165l-81 -6l-10 8v163h-163l-9 9l7 81h165v166l81 7zM457 -36l-7 -81h-418l-9 9l7 81h418z" />
    <glyph glyph-name="uni00B2" unicode="&#xb2;" horiz-adv-x="361" 
d="M270 680c22.667 -16.667 34.001 -39.665 34.001 -68.998c0 -19.333 -6.33301 -40.333 -19 -63s-33.334 -51.334 -62.001 -86.001l-51 -64l2 -2h91l67 4l5 -7l-11 -82l-94 4h-167l-26 -1l-6 3v62l94 102c26 30 44.167 52.167 54.5 66.5s15.5 27.5 15.5 39.5
c0 9.33301 -3.5 17.166 -10.5 23.499s-16.833 9.5 -29.5 9.5c-14 0 -29.5 -4.16699 -46.5 -12.5s-32.833 -19.5 -47.5 -33.5h-12l-18 79c51.333 34.667 101.666 52 150.999 52c34.667 0 63.334 -8.33301 86.001 -25z" />
    <glyph glyph-name="uni00B3" unicode="&#xb3;" horiz-adv-x="321" 
d="M242.5 680.5c23 -17 34.5 -39.502 34.5 -67.502c0 -16.667 -4.83301 -33.167 -14.5 -49.5s-25.167 -30.166 -46.5 -41.499v-4c48 -14 72 -44 72 -90c0 -35.333 -16.333 -64 -49 -86s-75.667 -33 -129 -33c-26 0 -51.333 2.66699 -76 8l-7 74l8 7
c26 -7.33301 51.667 -11 77 -11c23.333 0 41.333 3.83301 54 11.5s19 18.5 19 32.5c0 12 -4.33301 21.333 -13 28s-21 10 -37 10h-52l-5 7l1 69l31 1c16 0.666992 29.833 5.33398 41.5 14.001s17.5 19.667 17.5 33c0 20.667 -14 31 -42 31
c-20.667 0 -46.667 -8.33301 -78 -25h-11l-16 70c40 24.667 83 37 129 37c38 0 68.5 -8.5 91.5 -25.5z" />
    <glyph glyph-name="acute" unicode="&#xb4;" horiz-adv-x="389" 
d="M268 723l48.001 -72l-2 -13c-14.667 -9.33301 -25.667 -16 -33 -20c-83.333 -51.333 -137.333 -84 -162 -98l-13 1l-32 50c77.333 62 137.666 113 180.999 153z" />
    <glyph glyph-name="uni00B5" unicode="&#xb5;" horiz-adv-x="686" 
d="M640 0h-113l-7 153l-17 165h-8l-111 -268h-97l-99 268h-8l-18 -153l-11 -165h-107l54 505h148l20 -74l73 -214h8l79 213l22 75h145z" />
    <glyph glyph-name="paragraph" unicode="&#xb6;" horiz-adv-x="522" 
d="M504 633l-8.99902 -92.002h-67l-5 -344l1 -61c0 -51.333 -14.333 -94 -43 -128s-78.334 -65 -149.001 -93l-36 60v13c36.667 20 63 41 79 63s24 48.333 24 79v51l-5 361h-45c-26.667 -4 -47 -15.833 -61 -35.5s-21 -46.167 -21 -79.5c0 -31.333 8 -59.666 24 -84.999
s39.333 -45.666 70 -60.999l-46 -70c-60.667 14 -107.5 40 -140.5 78s-49.5 85.667 -49.5 143c0 67.333 21.167 119.5 63.5 156.5s102.5 55.5 180.5 55.5h226z" />
    <glyph glyph-name="periodcentered" unicode="&#xb7;" horiz-adv-x="229" 
d="M165.5 305c11.667 -12 17.499 -28.667 17.499 -50c0 -22.667 -6.33301 -40.667 -19 -54s-30 -20 -52 -20s-38.833 6 -50.5 18s-17.5 29 -17.5 51s6.5 39.667 19.5 53s30.833 20 53.5 20c20.667 0 36.834 -6 48.501 -18z" />
    <glyph glyph-name="cedilla" unicode="&#xb8;" horiz-adv-x="389" 
d="M210 -48l34 -19c14.667 -8 25.167 -16.833 31.5 -26.5s9.5 -20.5 9.5 -32.5c0 -22 -8.66699 -40 -26 -54s-40 -21 -68 -21c-30 0 -57.333 9.33301 -82 28l9 56l6 3c20 -20 39.667 -30 59 -30c16 0 24 7 24 21c0 4.66699 -1.33301 8.5 -4 11.5s-7 5.83301 -13 8.5l-49 28
l23 101h64z" />
    <glyph glyph-name="uni00B9" unicode="&#xb9;" horiz-adv-x="276" 
d="M201 695l-5 -242l4 -138h-108l4 126v149l-79 -18l-7 5v83l176 46z" />
    <glyph glyph-name="ordmasculine" unicode="&#xba;" horiz-adv-x="347" 
d="M287 611.5c24.667 -27 37 -66.5 37 -118.5c0 -55.333 -13.333 -97.5 -40 -126.5s-65.334 -43.5 -116.001 -43.5c-47.333 0 -83.333 13.5 -108 40.5s-37 66.5 -37 118.5c0 55.333 13.333 97.5 40 126.5s65.334 43.5 116.001 43.5c47.333 0 83.333 -13.5 108 -40.5z
M133 561c-8 -13.333 -11.999 -36 -11.999 -68c0 -37.333 4.16699 -63.5 12.5 -78.5s22.166 -22.5 41.499 -22.5s33 6.66699 41 20s12 36.333 12 69c0 36.667 -4.16699 62.5 -12.5 77.5s-22.5 22.5 -42.5 22.5c-18.667 0 -32 -6.66699 -40 -20z" />
    <glyph glyph-name="guillemotright" unicode="&#xbb;" horiz-adv-x="428" 
d="M383 243v-22l-135 -178l-63 33l-2 13l103 141l-103 140l2 13l63 34zM199 243v-22l-135 -178l-63 33l-2 13l103 141l-103 140l2 13l63 34z" />
    <glyph glyph-name="onequarter" unicode="&#xbc;" horiz-adv-x="747" 
d="M201 639l-5 -242l4 -138h-108l4 126v149l-79 -18l-7 5v83l176 46zM568 653l7 -19l-466 -726l-57 34l-6 14l468 730zM715 84l-53 2l5 -79l-6 -7l-83 -4l-6 5l2 86h-101l-66 -3l-7 9v65l165 228h98l-3 -221h54l6 -9zM492 165h84l-1 108h-6z" />
    <glyph glyph-name="onehalf" unicode="&#xbd;" horiz-adv-x="741" 
d="M201 639l-5 -242l4 -138h-108l4 126v149l-79 -18l-7 5v83l176 46zM568 653l7 -19l-466 -726l-57 34l-6 14l468 730zM650 365c22.667 -16.667 34.001 -39.665 34.001 -68.998c0 -19.333 -6.33301 -40.333 -19 -63s-33.334 -51.334 -62.001 -86.001l-51 -64l2 -2h91l67 4
l5 -7l-11 -82l-94 4h-167l-26 -1l-6 3v62l94 102c26 30 44.167 52.167 54.5 66.5s15.5 27.5 15.5 39.5c0 9.33301 -3.5 17.166 -10.5 23.499s-16.833 9.5 -29.5 9.5c-14 0 -29.5 -4.16699 -46.5 -12.5s-32.833 -19.5 -47.5 -33.5h-12l-18 79
c51.333 34.667 101.666 52 150.999 52c34.667 0 63.334 -8.33301 86.001 -25z" />
    <glyph glyph-name="threequarters" unicode="&#xbe;" horiz-adv-x="792" 
d="M242.5 624.5c23 -17 34.5 -39.502 34.5 -67.502c0 -16.667 -4.83301 -33.167 -14.5 -49.5s-25.167 -30.166 -46.5 -41.499v-4c48 -14 72 -44 72 -90c0 -35.333 -16.333 -64 -49 -86s-75.667 -33 -129 -33c-26 0 -51.333 2.66699 -76 8l-7 74l8 7
c26 -7.33301 51.667 -11 77 -11c23.333 0 41.333 3.83301 54 11.5s19 18.5 19 32.5c0 12 -4.33301 21.333 -13 28s-21 10 -37 10h-52l-5 7l1 69l31 1c16 0.666992 29.833 5.33398 41.5 14.001s17.5 19.667 17.5 33c0 20.667 -14 31 -42 31
c-20.667 0 -46.667 -8.33301 -78 -25h-11l-16 70c40 24.667 83 37 129 37c38 0 68.5 -8.5 91.5 -25.5zM613 652.998l7 -19l-466 -726l-57 34l-6 14l468 730zM760 83.998l-53 2l5 -79l-6 -7l-83 -4l-6 5l2 86h-101l-66 -3l-7 9v65l165 228h98l-3 -221h54l6 -9zM537 164.998
h84l-1 108h-6z" />
    <glyph glyph-name="questiondown" unicode="&#xbf;" horiz-adv-x="288" 
d="M128 405c-10.667 10.667 -16 25.333 -16 44c0 20 5.83301 36 17.5 48s27.834 18 48.501 18c18.667 0 33.167 -5.16699 43.5 -15.5s15.5 -25.166 15.5 -44.499c0 -20.667 -5.83301 -36.834 -17.5 -48.501s-27.5 -17.5 -47.5 -17.5c-18.667 0 -33.334 5.33301 -44.001 16z
M57.5 31.499c-41 22.333 -61.5 53.502 -61.5 93.502c0 22.667 6.83301 44.167 20.5 64.5s33.167 36.5 58.5 48.5l57 29l3 4l-3 53l79 12l11 -9l7 -86l-4 -11l-66 -33c-30.667 -14 -46 -32.333 -46 -55c0 -18 11.167 -31.833 33.5 -41.5s60.5 -15.834 114.5 -18.501l9 -12
l-24 -71l-12 -6c-76.667 3.33301 -135.5 16.166 -176.5 38.499z" />
    <glyph glyph-name="Agrave" unicode="&#xc0;" horiz-adv-x="600" 
d="M584 0h-138l-16 84l-17 60l-126 3l-111 -3l-17 -53l-17 -91h-134l218 644h161zM384 249l-76 268h-9l-88 -268l86 -2zM428 776l-20.999 -54.999l-13 -4c-80.667 27.333 -152.334 53.333 -215.001 78l-4 12l33 79l13 3c54.667 -32.667 123.667 -70.334 207 -113.001z" />
    <glyph glyph-name="Aacute" unicode="&#xc1;" horiz-adv-x="600" 
d="M584 0h-138l-16 84l-17 60l-126 3l-111 -3l-17 -53l-17 -91h-134l218 644h161zM384 249l-76 268h-9l-88 -268l86 -2zM413 886l34 -79l-4 -12c-64.667 -25.333 -136.667 -51.333 -216 -78l-12 4l-22 55c82 41.333 151 79 207 113z" />
    <glyph glyph-name="Acircumflex" unicode="&#xc2;" horiz-adv-x="600" 
d="M584 0h-138l-16 84l-17 60l-126 3l-111 -3l-17 -53l-17 -91h-134l218 644h161zM384 249l-76 268h-9l-88 -268l86 -2zM155 781c46 31.333 90.332 66 132.999 104h27c46.667 -40 91.334 -74.667 134.001 -104l-24 -53h-13l-26 15l-84 48
c-25.333 -15.333 -62 -36.333 -110 -63h-13z" />
    <glyph glyph-name="Atilde" unicode="&#xc3;" horiz-adv-x="600" 
d="M584 0h-138l-16 84l-17 60l-126 3l-111 -3l-17 -53l-17 -91h-134l218 644h161zM384 249l-76 268h-9l-88 -268l86 -2zM475 841l-0.00195312 -11.001l-70 -89l-13 -5c-18 2 -45.667 8.33301 -83 19c-3.33301 0.666992 -14.166 3.5 -32.499 8.5s-31.166 7.5 -38.499 7.5
s-14.5 -3 -21.5 -9s-14.5 -13.333 -22.5 -22l-18 -20h-12l-40 39v11l71 89l12 5c16 -2 44.333 -8.66699 85 -20c37.333 -10 60.333 -15 69 -15c8 0 15.833 3.33301 23.5 10s15.5 14.334 23.5 23.001s13.333 14.667 16 18h12z" />
    <glyph glyph-name="Adieresis" unicode="&#xc4;" horiz-adv-x="600" 
d="M584 0h-138l-16 84l-17 60l-126 3l-111 -3l-17 -53l-17 -91h-134l218 644h161zM384 249l-76 268h-9l-88 -268l86 -2zM262 845c10.667 -10.667 15.998 -25.667 15.998 -45c0 -20.667 -5.83301 -37 -17.5 -49s-27.5 -18 -47.5 -18c-19.333 0 -34.333 5.33301 -45 16
s-16 26 -16 46s5.83301 36 17.5 48s27.834 18 48.501 18c18.667 0 33.334 -5.33301 44.001 -16zM434.998 845c10.667 -10.667 15.999 -25.667 15.999 -45c0 -20.667 -5.83301 -37 -17.5 -49s-27.167 -18 -46.5 -18s-34.333 5.33301 -45 16s-16 26 -16 46s5.83301 36 17.5 48
s27.5 18 47.5 18c18.667 0 33.334 -5.33301 44.001 -16z" />
    <glyph glyph-name="Aring" unicode="&#xc5;" horiz-adv-x="600" 
d="M584 0h-138l-16 84l-17 60l-126 3l-111 -3l-17 -53l-17 -91h-134l218 644h161zM384 249l-76 268h-9l-88 -268l86 -2zM372 879c16 -16 24 -38.333 24 -67c0 -31.333 -8.83301 -55.5 -26.5 -72.5s-41.834 -25.5 -72.501 -25.5c-29.333 0 -52.166 8 -68.499 24
s-24.5 39.333 -24.5 70c0 30 8.5 53.333 25.5 70s41.167 25 72.5 25c30.667 0 54 -8 70 -24zM259 809c0 -26.667 13.667 -40 41 -40s41 12.667 41 38c0 26 -14 39 -42 39c-26.667 0 -40 -12.333 -40 -37z" />
    <glyph glyph-name="AE" unicode="&#xc6;" horiz-adv-x="822" 
d="M814 101l-9 -101h-389l-5 84l-17 137l-212 -56l-35 -74l-30 -91h-135l310 644h440l9 -11l-11 -101l-155 5h-88l22 -181l194 50l10 -8l11 -95l-203 -48l18 -149h102l165 6zM382 323l-24 194h-9l-109 -231z" />
    <glyph glyph-name="Ccedilla" unicode="&#xc7;" horiz-adv-x="517" 
d="M505 613l-23.999 -113.001l-11 -5c-20 14 -42 25 -66 33s-48.667 12 -74 12c-106 0 -159 -69.667 -159 -209c0 -75.333 13.833 -131.833 41.5 -169.5s68.167 -56.5 121.5 -56.5c24.667 0 50.167 3.83301 76.5 11.5s50.166 18.167 71.499 31.5l12 -7l-11 -115
c-50.667 -23.333 -104 -35 -160 -35c-96 0 -169.167 28 -219.5 84s-75.5 136.333 -75.5 241c0 106.667 26.833 189.334 80.5 248.001s129.5 88 227.5 88c62.667 0 119 -13 169 -39zM333.001 -48.001l34 -19c14.667 -8 25.167 -16.833 31.5 -26.5s9.5 -20.5 9.5 -32.5
c0 -22 -8.66699 -40 -26 -54s-40 -21 -68 -21c-30 0 -57.333 9.33301 -82 28l9 56l6 3c20 -20 39.667 -30 59 -30c16 0 24 7 24 21c0 4.66699 -1.33301 8.5 -4 11.5s-7 5.83301 -13 8.5l-49 28l23 101h64z" />
    <glyph glyph-name="Egrave" unicode="&#xc8;" horiz-adv-x="509" 
d="M483 112l8 -11l-9 -101h-404l7 192l-7 452h408l8 -11l-10 -101l-154 5l-116 -1l-3 -155l111 -2l105 3l8 -10l-9 -101l-114 3l-103 -1l-1 -69l3 -97l113 -1zM409 776l-20.999 -54.999l-13 -4c-80.667 27.333 -152.334 53.333 -215.001 78l-4 12l33 79l13 3
c54.667 -32.667 123.667 -70.334 207 -113.001z" />
    <glyph glyph-name="Eacute" unicode="&#xc9;" horiz-adv-x="509" 
d="M483 112l8 -11l-9 -101h-404l7 192l-7 452h408l8 -11l-10 -101l-154 5l-116 -1l-3 -155l111 -2l105 3l8 -10l-9 -101l-114 3l-103 -1l-1 -69l3 -97l113 -1zM394 886l34 -79l-4 -12c-64.667 -25.333 -136.667 -51.333 -216 -78l-12 4l-22 55c82 41.333 151 79 207 113z
" />
    <glyph glyph-name="Ecircumflex" unicode="&#xca;" horiz-adv-x="509" 
d="M483 112l8 -11l-9 -101h-404l7 192l-7 452h408l8 -11l-10 -101l-154 5l-116 -1l-3 -155l111 -2l105 3l8 -10l-9 -101l-114 3l-103 -1l-1 -69l3 -97l113 -1zM136 781c46 31.333 90.332 66 132.999 104h27c46.667 -40 91.334 -74.667 134.001 -104l-24 -53h-13l-26 15
l-84 48c-25.333 -15.333 -62 -36.333 -110 -63h-13z" />
    <glyph glyph-name="Edieresis" unicode="&#xcb;" horiz-adv-x="509" 
d="M483 112l8 -11l-9 -101h-404l7 192l-7 452h408l8 -11l-10 -101l-154 5l-116 -1l-3 -155l111 -2l105 3l8 -10l-9 -101l-114 3l-103 -1l-1 -69l3 -97l113 -1zM243 845c10.667 -10.667 15.998 -25.667 15.998 -45c0 -20.667 -5.83301 -37 -17.5 -49s-27.5 -18 -47.5 -18
c-19.333 0 -34.333 5.33301 -45 16s-16 26 -16 46s5.83301 36 17.5 48s27.834 18 48.501 18c18.667 0 33.334 -5.33301 44.001 -16zM415.998 845c10.667 -10.667 15.999 -25.667 15.999 -45c0 -20.667 -5.83301 -37 -17.5 -49s-27.167 -18 -46.5 -18s-34.333 5.33301 -45 16
s-16 26 -16 46s5.83301 36 17.5 48s27.5 18 47.5 18c18.667 0 33.334 -5.33301 44.001 -16z" />
    <glyph glyph-name="Igrave" unicode="&#xcc;" horiz-adv-x="295" 
d="M208 204l6 -204h-136l7 192l-7 452h138zM274 776l-20.999 -54.999l-13 -4c-80.667 27.333 -152.334 53.333 -215.001 78l-4 12l33 79l13 3c54.667 -32.667 123.667 -70.334 207 -113.001z" />
    <glyph glyph-name="Iacute" unicode="&#xcd;" horiz-adv-x="295" 
d="M208 204l6 -204h-136l7 192l-7 452h138zM259 886l34 -79l-4 -12c-64.667 -25.333 -136.667 -51.333 -216 -78l-12 4l-22 55c82 41.333 151 79 207 113z" />
    <glyph glyph-name="Icircumflex" unicode="&#xce;" horiz-adv-x="295" 
d="M208 204l6 -204h-136l7 192l-7 452h138zM1 781c46 31.333 90.332 66 132.999 104h27c46.667 -40 91.334 -74.667 134.001 -104l-24 -53h-13l-26 15l-84 48c-25.333 -15.333 -62 -36.333 -110 -63h-13z" />
    <glyph glyph-name="Eth" unicode="&#xd0;" horiz-adv-x="680" 
d="M577 570c50 -52 75 -126.667 75 -224c0 -114 -28 -201.333 -84 -262s-136 -91 -240 -91c-31.333 0 -68.833 0.666992 -112.5 2s-81.167 3 -112.5 5l7 192l-7 452l259 4c93.333 0 165 -26 215 -78zM511 315c0 78.667 -12.833 135.833 -38.5 171.5
s-65.834 53.5 -120.501 53.5c-35.333 0 -73 -1.66699 -113 -5l-6 -331l3 -99c46.667 -4.66699 85.334 -7 116.001 -7c106 0 159 72.333 159 217zM357.534 354.999l-4.17383 -80h-334.621l-5.56543 9l4.17383 81h334.621z" />
    <glyph glyph-name="Ntilde" unicode="&#xd1;" horiz-adv-x="695" 
d="M610 199l5 -199h-146l-263 436h-8l-1 -214l4 -222h-123l7 190l-6 454h145l263 -436h9l-3 430l125 8zM521 841l-0.00195312 -11.001l-70 -89l-13 -5c-18 2 -45.667 8.33301 -83 19c-3.33301 0.666992 -14.166 3.5 -32.499 8.5s-31.166 7.5 -38.499 7.5s-14.5 -3 -21.5 -9
s-14.5 -13.333 -22.5 -22l-18 -20h-12l-40 39v11l71 89l12 5c16 -2 44.333 -8.66699 85 -20c37.333 -10 60.333 -15 69 -15c8 0 15.833 3.33301 23.5 10s15.5 14.334 23.5 23.001s13.333 14.667 16 18h12z" />
    <glyph glyph-name="Ograve" unicode="&#xd2;" horiz-adv-x="643" 
d="M542.5 570.5c49 -55 73.499 -133.167 73.499 -234.5c0 -110.667 -26.667 -196 -80 -256s-128.666 -90 -225.999 -90c-90 0 -159.5 28.167 -208.5 84.5s-73.5 136.166 -73.5 239.499c0 108.667 26.5 192.334 79.5 251.001s128.167 88 225.5 88
c90.667 0 160.5 -27.5 209.5 -82.5zM204.999 494c-24 -33.333 -36 -87.668 -36 -163.001c0 -86 11.833 -147.333 35.5 -184s62.834 -55 117.501 -55c53.333 0 92 16.833 116 50.5s36 88.834 36 165.501c0 84.667 -11.833 145.167 -35.5 181.5s-62.834 54.5 -117.501 54.5
c-53.333 0 -92 -16.667 -116 -50zM448.999 775.998l-20.999 -54.999l-13 -4c-80.667 27.333 -152.334 53.333 -215.001 78l-4 12l33 79l13 3c54.667 -32.667 123.667 -70.334 207 -113.001z" />
    <glyph glyph-name="Oacute" unicode="&#xd3;" horiz-adv-x="643" 
d="M542.5 570.5c49 -55 73.499 -133.167 73.499 -234.5c0 -110.667 -26.667 -196 -80 -256s-128.666 -90 -225.999 -90c-90 0 -159.5 28.167 -208.5 84.5s-73.5 136.166 -73.5 239.499c0 108.667 26.5 192.334 79.5 251.001s128.167 88 225.5 88
c90.667 0 160.5 -27.5 209.5 -82.5zM204.999 494c-24 -33.333 -36 -87.668 -36 -163.001c0 -86 11.833 -147.333 35.5 -184s62.834 -55 117.501 -55c53.333 0 92 16.833 116 50.5s36 88.834 36 165.501c0 84.667 -11.833 145.167 -35.5 181.5s-62.834 54.5 -117.501 54.5
c-53.333 0 -92 -16.667 -116 -50zM433.999 885.998l34 -79l-4 -12c-64.667 -25.333 -136.667 -51.333 -216 -78l-12 4l-22 55c82 41.333 151 79 207 113z" />
    <glyph glyph-name="Ocircumflex" unicode="&#xd4;" horiz-adv-x="643" 
d="M542.5 570.5c49 -55 73.499 -133.167 73.499 -234.5c0 -110.667 -26.667 -196 -80 -256s-128.666 -90 -225.999 -90c-90 0 -159.5 28.167 -208.5 84.5s-73.5 136.166 -73.5 239.499c0 108.667 26.5 192.334 79.5 251.001s128.167 88 225.5 88
c90.667 0 160.5 -27.5 209.5 -82.5zM204.999 494c-24 -33.333 -36 -87.668 -36 -163.001c0 -86 11.833 -147.333 35.5 -184s62.834 -55 117.501 -55c53.333 0 92 16.833 116 50.5s36 88.834 36 165.501c0 84.667 -11.833 145.167 -35.5 181.5s-62.834 54.5 -117.501 54.5
c-53.333 0 -92 -16.667 -116 -50zM175.999 780.998c46 31.333 90.332 66 132.999 104h27c46.667 -40 91.334 -74.667 134.001 -104l-24 -53h-13l-26 15l-84 48c-25.333 -15.333 -62 -36.333 -110 -63h-13z" />
    <glyph glyph-name="Otilde" unicode="&#xd5;" horiz-adv-x="643" 
d="M542.5 570.5c49 -55 73.499 -133.167 73.499 -234.5c0 -110.667 -26.667 -196 -80 -256s-128.666 -90 -225.999 -90c-90 0 -159.5 28.167 -208.5 84.5s-73.5 136.166 -73.5 239.499c0 108.667 26.5 192.334 79.5 251.001s128.167 88 225.5 88
c90.667 0 160.5 -27.5 209.5 -82.5zM204.999 494c-24 -33.333 -36 -87.668 -36 -163.001c0 -86 11.833 -147.333 35.5 -184s62.834 -55 117.501 -55c53.333 0 92 16.833 116 50.5s36 88.834 36 165.501c0 84.667 -11.833 145.167 -35.5 181.5s-62.834 54.5 -117.501 54.5
c-53.333 0 -92 -16.667 -116 -50zM495.999 840.998l-0.00195312 -11.001l-70 -89l-13 -5c-18 2 -45.667 8.33301 -83 19c-3.33301 0.666992 -14.166 3.5 -32.499 8.5s-31.166 7.5 -38.499 7.5s-14.5 -3 -21.5 -9s-14.5 -13.333 -22.5 -22l-18 -20h-12l-40 39v11l71 89l12 5
c16 -2 44.333 -8.66699 85 -20c37.333 -10 60.333 -15 69 -15c8 0 15.833 3.33301 23.5 10s15.5 14.334 23.5 23.001s13.333 14.667 16 18h12z" />
    <glyph glyph-name="multiply" unicode="&#xd7;" horiz-adv-x="480" 
d="M419 389v-14l-115 -114l115 -116v-12l-62 -53l-117 116l-117 -117l-61 54v11l115 117l-115 114v14l61 52l117 -117l117 117z" />
    <glyph glyph-name="Oslash" unicode="&#xd8;" horiz-adv-x="643" 
d="M589.5 492.5c17.667 -44.333 26.499 -96.501 26.499 -156.501c0 -110.667 -26.667 -196 -80 -256s-128.666 -90 -225.999 -90c-32 0 -60.333 3.33301 -85 10l-57 -119l-85 31l-5 12l57 119c-35.333 27.333 -62 63.833 -80 109.5s-27 99.5 -27 161.5
c0 108.667 26.5 192.334 79.5 251.001s128.167 88 225.5 88c30.667 0 60 -3.66699 88 -11l51 106l83 -30l8 -14l-51 -105c34 -26.667 59.833 -62.167 77.5 -106.5zM437.999 142.499c24 33.667 36 88.832 36 165.499c0 84.667 -11.833 145.167 -35.5 181.5
s-62.834 54.5 -117.501 54.5c-53.333 0 -92 -16.667 -116 -50s-36 -87.666 -36 -162.999c0 -86 11.833 -147.333 35.5 -184s62.834 -55 117.501 -55c53.333 0 92 16.833 116 50.5z" />
    <glyph glyph-name="Ugrave" unicode="&#xd9;" horiz-adv-x="638" 
d="M573 317l-0.999023 -85c0.666992 -76.667 -21.666 -136 -66.999 -178s-110.333 -63 -195 -63c-81.333 0 -143.333 20.333 -186 61s-63 99 -61 175l1 93l-3 324h136l-7 -399c-0.666992 -48.667 9.66602 -84.667 30.999 -108s53.666 -35 96.999 -35
c86.667 0 129.667 45.333 129 136l-7 406h138zM448.001 776l-20.999 -54.999l-13 -4c-80.667 27.333 -152.334 53.333 -215.001 78l-4 12l33 79l13 3c54.667 -32.667 123.667 -70.334 207 -113.001z" />
    <glyph glyph-name="Uacute" unicode="&#xda;" horiz-adv-x="638" 
d="M573 317l-0.999023 -85c0.666992 -76.667 -21.666 -136 -66.999 -178s-110.333 -63 -195 -63c-81.333 0 -143.333 20.333 -186 61s-63 99 -61 175l1 93l-3 324h136l-7 -399c-0.666992 -48.667 9.66602 -84.667 30.999 -108s53.666 -35 96.999 -35
c86.667 0 129.667 45.333 129 136l-7 406h138zM433.001 886l34 -79l-4 -12c-64.667 -25.333 -136.667 -51.333 -216 -78l-12 4l-22 55c82 41.333 151 79 207 113z" />
    <glyph glyph-name="Ucircumflex" unicode="&#xdb;" horiz-adv-x="638" 
d="M573 317l-0.999023 -85c0.666992 -76.667 -21.666 -136 -66.999 -178s-110.333 -63 -195 -63c-81.333 0 -143.333 20.333 -186 61s-63 99 -61 175l1 93l-3 324h136l-7 -399c-0.666992 -48.667 9.66602 -84.667 30.999 -108s53.666 -35 96.999 -35
c86.667 0 129.667 45.333 129 136l-7 406h138zM175.001 781c46 31.333 90.332 66 132.999 104h27c46.667 -40 91.334 -74.667 134.001 -104l-24 -53h-13l-26 15l-84 48c-25.333 -15.333 -62 -36.333 -110 -63h-13z" />
    <glyph glyph-name="Udieresis" unicode="&#xdc;" horiz-adv-x="638" 
d="M573 317l-0.999023 -85c0.666992 -76.667 -21.666 -136 -66.999 -178s-110.333 -63 -195 -63c-81.333 0 -143.333 20.333 -186 61s-63 99 -61 175l1 93l-3 324h136l-7 -399c-0.666992 -48.667 9.66602 -84.667 30.999 -108s53.666 -35 96.999 -35
c86.667 0 129.667 45.333 129 136l-7 406h138zM282.001 845c10.667 -10.667 15.998 -25.667 15.998 -45c0 -20.667 -5.83301 -37 -17.5 -49s-27.5 -18 -47.5 -18c-19.333 0 -34.333 5.33301 -45 16s-16 26 -16 46s5.83301 36 17.5 48s27.834 18 48.501 18
c18.667 0 33.334 -5.33301 44.001 -16zM454.999 845c10.667 -10.667 15.999 -25.667 15.999 -45c0 -20.667 -5.83301 -37 -17.5 -49s-27.167 -18 -46.5 -18s-34.333 5.33301 -45 16s-16 26 -16 46s5.83301 36 17.5 48s27.5 18 47.5 18c18.667 0 33.334 -5.33301 44.001 -16z
" />
    <glyph glyph-name="Thorn" unicode="&#xde;" horiz-adv-x="561" 
d="M486 493c36 -33.333 54.001 -82.668 54.001 -148.001c0 -75.333 -22.833 -133.666 -68.5 -174.999s-110.834 -62 -195.501 -62l-64 -1l3 -107h-137l7 192l-5 349l-1 1h1l-2 102h139l-2 -101h114c68.667 0 121 -16.667 157 -50zM373.501 250.998
c15.667 20.667 23.499 48.667 23.499 84c0 36.667 -9 63.5 -27 80.5s-46 26.167 -84 27.5l-72 -3l-4 -228l94 -4c30.667 8 53.834 22.333 69.501 43z" />
    <glyph glyph-name="germandbls" unicode="&#xdf;" horiz-adv-x="588" 
d="M406 499c34 -8.66699 71.6689 -22.333 113.002 -41l6 -16l-115 -143c39.333 -19.333 69.833 -36.5 91.5 -51.5s37.5 -31 47.5 -48s15 -36.833 15 -59.5c0 -48.667 -17.667 -85.5 -53 -110.5s-80 -37.5 -134 -37.5c-25.333 0 -51.333 2.83301 -78 8.5
s-50.667 13.5 -72 23.5l17 115l10 6c19.333 -16.667 39.166 -29.667 59.499 -39s38.833 -14 55.5 -14c17.333 0 31.333 4.66699 42 14s16 21 16 35c0 12.667 -5.5 24 -16.5 34s-27.333 20 -49 30s-54.167 23.667 -97.5 41l-3 16l106 132c-27.333 12.667 -54 19 -80 19
c-69.333 0 -104 -30.667 -104 -92l-3 -159l5 -162h-126l6 148l-3 173c0 58.667 20.667 105.167 62 139.5s99.666 51.5 174.999 51.5c37.333 0 73 -4.33301 107 -13z" />
    <glyph glyph-name="agrave" unicode="&#xe0;" horiz-adv-x="529" 
d="M152 678l-2 13l48 72l12 1c48.667 -44.667 109 -95.667 181 -153l-32 -50l-12 -1zM504 0h-127l-14 73l-9 29l-102 1l-90 -2l-7 -21l-15 -80h-123l177 505h149zM327 197l-57 193h-8l-67 -193l65 -1z" />
    <glyph glyph-name="aacute" unicode="&#xe1;" horiz-adv-x="529" 
d="M206 561l-31.999 50c77.333 62 137.666 113 180.999 153l13 -1l48 -72l-2 -13c-14.667 -9.33301 -25.667 -16 -33 -20c-83.333 -51.333 -137.333 -84 -162 -98zM504.001 0h-127l-14 73l-9 29l-102 1l-90 -2l-7 -21l-15 -80h-123l177 505h149zM327.001 197l-57 193h-8
l-67 -193l65 -1z" />
    <glyph glyph-name="acircumflex" unicode="&#xe2;" horiz-adv-x="529" 
d="M150 566l-34 51c38 34.667 85 81.667 141 141h29c52 -57.333 98.667 -104.333 140 -141l-33 -51h-13c-44 34.667 -80.333 65.334 -109 92.001c-26 -24.667 -62 -55.334 -108 -92.001h-13zM504 0h-127l-14 73l-9 29l-102 1l-90 -2l-7 -21l-15 -80h-123l177 505h149z
M327 197l-57 193h-8l-67 -193l65 -1z" />
    <glyph glyph-name="atilde" unicode="&#xe3;" horiz-adv-x="529" 
d="M134 581l-40.002 38.999v11l71 89l12 5c16 -2 44.333 -8.66699 85 -20c37.333 -10 60.333 -15 69 -15c8 0 15.833 3.33301 23.5 10s15.5 14.334 23.5 23.001s13.333 14.667 16 18h12l39 -39v-11l-70 -89l-13 -5c-18 2 -45.667 8.33301 -83 19
c-3.33301 0.666992 -14.166 3.5 -32.499 8.5s-31.166 7.5 -38.499 7.5s-14.5 -3 -21.5 -9s-14.5 -13.333 -22.5 -22l-18 -20h-12zM503.998 -0.000976562h-127l-14 73l-9 29l-102 1l-90 -2l-7 -21l-15 -80h-123l177 505h149zM326.998 196.999l-57 193h-8l-67 -193l65 -1z" />
    <glyph glyph-name="adieresis" unicode="&#xe4;" horiz-adv-x="529" 
d="M137 610c-10.667 10.667 -16.002 26 -16.002 46s5.83301 36 17.5 48s27.834 18 48.501 18c18.667 0 33.334 -5.33301 44.001 -16s16 -25.667 16 -45c0 -20.667 -5.83301 -37 -17.5 -49s-27.5 -18 -47.5 -18c-19.333 0 -34.333 5.33301 -45 16zM310.998 610
c-10.667 10.667 -16.001 26 -16.001 46s5.83301 36 17.5 48s27.5 18 47.5 18c18.667 0 33.334 -5.33301 44.001 -16s16 -25.667 16 -45c0 -20.667 -5.83301 -37 -17.5 -49s-27.167 -18 -46.5 -18s-34.333 5.33301 -45 16zM503.997 0h-127l-14 73l-9 29l-102 1l-90 -2l-7 -21
l-15 -80h-123l177 505h149zM326.997 197l-57 193h-8l-67 -193l65 -1z" />
    <glyph glyph-name="aring" unicode="&#xe5;" horiz-adv-x="529" 
d="M198.5 599c-16.333 16 -24.5 39.333 -24.5 70c0 30 8.5 53.333 25.5 70s41.167 25 72.5 25c30.667 0 54 -8 70 -24s24 -38.333 24 -67c0 -31.333 -8.83301 -55.5 -26.5 -72.5s-41.834 -25.5 -72.501 -25.5c-29.333 0 -52.166 8 -68.499 24zM229 670
c0 -26.667 13.667 -40 41 -40s41 12.667 41 38c0 26 -14 39 -42 39c-26.667 0 -40 -12.333 -40 -37zM504 0h-127l-14 73l-9 29l-102 1l-90 -2l-7 -21l-15 -80h-123l177 505h149zM327 197l-57 193h-8l-67 -193l65 -1z" />
    <glyph glyph-name="ae" unicode="&#xe6;" horiz-adv-x="711" 
d="M696 89l-8 -89h-328l-4 69l-13 94l-187 -49l-20 -38l-24 -76h-116l259 505h374l7 -10l-10 -88l-130 6h-72l17 -133l163 42l8 -7l9 -86l-169 -38l13 -98h86l138 5zM331 252l-19 144h-8l-91 -174z" />
    <glyph glyph-name="ccedilla" unicode="&#xe7;" horiz-adv-x="454" 
d="M354 105c21.333 5.33301 40.6689 12.668 58.002 22.001l11 -6l-10 -105c-34 -14 -72 -22 -114 -24l-10 -40l34 -19c14.667 -8 25.167 -16.833 31.5 -26.5s9.5 -20.5 9.5 -32.5c0 -22 -8.66699 -40 -26 -54s-40 -21 -68 -21c-30 0 -57.333 9.33301 -82 28l9 56l6 3
c20 -20 39.667 -30 59 -30c16 0 24 7 24 21c0 4.66699 -1.33301 8.5 -4 11.5s-7 5.83301 -13 8.5l-49 28l16 70c-66.667 8 -117.167 33.5 -151.5 76.5s-51.5 101.833 -51.5 176.5c0 84 22.667 149 68 195s109.666 69 192.999 69c50 0 96.667 -8.66699 140 -26l-22 -106
l-10 -5c-15.333 10.667 -33.333 19 -54 25s-41.334 9 -62.001 9c-40.667 0 -71 -11.833 -91 -35.5s-30 -60.834 -30 -111.501c0 -110 42.333 -165 127 -165c20 0 40.667 2.66699 62 8z" />
    <glyph glyph-name="egrave" unicode="&#xe8;" horiz-adv-x="456" 
d="M129 678l-2 13l48 72l12 1c48.667 -44.667 109 -95.667 181 -153l-32 -50l-12 -1zM420 102l8 -8l-9 -94h-346l5 150l-5 355h351l7 -10l-8 -93l-130 5h-94l-2 -102l90 -1l87 3l7 -9l-8 -95l-95 3h-83l-1 -44l2 -64h88z" />
    <glyph glyph-name="eacute" unicode="&#xe9;" horiz-adv-x="456" 
d="M183 561l-31.999 50c77.333 62 137.666 113 180.999 153l13 -1l48 -72l-2 -13c-14.667 -9.33301 -25.667 -16 -33 -20c-83.333 -51.333 -137.333 -84 -162 -98zM420.001 102l8 -8l-9 -94h-346l5 150l-5 355h351l7 -10l-8 -93l-130 5h-94l-2 -102l90 -1l87 3l7 -9l-8 -95
l-95 3h-83l-1 -44l2 -64h88z" />
    <glyph glyph-name="ecircumflex" unicode="&#xea;" horiz-adv-x="456" 
d="M127 566l-34 51c38 34.667 85 81.667 141 141h29c52 -57.333 98.667 -104.333 140 -141l-33 -51h-13c-44 34.667 -80.333 65.334 -109 92.001c-26 -24.667 -62 -55.334 -108 -92.001h-13zM420 102l8 -8l-9 -94h-346l5 150l-5 355h351l7 -10l-8 -93l-130 5h-94l-2 -102
l90 -1l87 3l7 -9l-8 -95l-95 3h-83l-1 -44l2 -64h88z" />
    <glyph glyph-name="edieresis" unicode="&#xeb;" horiz-adv-x="456" 
d="M114 610c-10.667 10.667 -16.002 26 -16.002 46s5.83301 36 17.5 48s27.834 18 48.501 18c18.667 0 33.334 -5.33301 44.001 -16s16 -25.667 16 -45c0 -20.667 -5.83301 -37 -17.5 -49s-27.5 -18 -47.5 -18c-19.333 0 -34.333 5.33301 -45 16zM287.998 610
c-10.667 10.667 -16.001 26 -16.001 46s5.83301 36 17.5 48s27.5 18 47.5 18c18.667 0 33.334 -5.33301 44.001 -16s16 -25.667 16 -45c0 -20.667 -5.83301 -37 -17.5 -49s-27.167 -18 -46.5 -18s-34.333 5.33301 -45 16zM419.997 102l8 -8l-9 -94h-346l5 150l-5 355h351
l7 -10l-8 -93l-130 5h-94l-2 -102l90 -1l87 3l7 -9l-8 -95l-95 3h-83l-1 -44l2 -64h88z" />
    <glyph glyph-name="igrave" unicode="&#xec;" horiz-adv-x="279" 
d="M261 611l-32 -50l-12 -1l-195 118l-2 13l48 72l12 1c48.667 -44.667 109 -95.667 181 -153zM194 162l5 -162h-126l5 150l-5 355h128z" />
    <glyph glyph-name="iacute" unicode="&#xed;" horiz-adv-x="279" 
d="M238 763l48.001 -72l-2 -13c-14.667 -9.33301 -25.667 -16 -33 -20c-83.333 -51.333 -137.333 -84 -162 -98l-13 1l-32 50c77.333 62 137.666 113 180.999 153zM194.001 162l5 -162h-126l5 150l-5 355h128z" />
    <glyph glyph-name="icircumflex" unicode="&#xee;" horiz-adv-x="279" 
d="M-14 617c38 34.667 85 81.667 141 141h29c52 -57.333 98.667 -104.333 140 -141l-33 -51h-13c-44 34.667 -80.333 65.334 -109 92.001c-26 -24.667 -62 -55.334 -108 -92.001h-13zM194 162l5 -162h-126l5 150l-5 355h128z" />
    <glyph glyph-name="eth" unicode="&#xf0;" horiz-adv-x="593" 
d="M498.5 447.5c41.667 -41 62.499 -99.5 62.499 -175.5c0 -89.333 -23.667 -158 -71 -206s-114.666 -72 -201.999 -72c-50.667 0 -114.667 2 -192 6l6 150l-1 58h-76l-7 10l5 71h77l-4 216l223 4c78 0 137.833 -20.5 179.5 -61.5zM429.999 242
c0 59.333 -9.66602 101.833 -28.999 127.5s-50.333 38.5 -93 38.5c-31.333 0 -60 -1.33301 -86 -4l-2 -115h106l6 -9l-5 -72h-109l-1 -46l2 -65c45.333 -4.66699 75.666 -7 90.999 -7c80 0 120 50.667 120 152z" />
    <glyph glyph-name="ntilde" unicode="&#xf1;" horiz-adv-x="604" 
d="M475 702l-0.00195312 -11.001l-70 -89l-13 -5c-18 2 -45.667 8.33301 -83 19c-3.33301 0.666992 -14.166 3.5 -32.499 8.5s-31.166 7.5 -38.499 7.5s-14.5 -3 -21.5 -9s-14.5 -13.333 -22.5 -22l-18 -20h-12l-40 39v11l71 89l12 5c16 -2 44.333 -8.66699 85 -20
c37.333 -10 60.333 -15 69 -15c8 0 15.833 3.33301 23.5 10s15.5 14.334 23.5 23.001s13.333 14.667 16 18h12zM524.998 159.999l5 -160h-137l-202 313h-7l-1 -136l4 -177h-114l5 148l-5 357h136l202 -313h9l-4 308l116 8z" />
    <glyph glyph-name="ograve" unicode="&#xf2;" horiz-adv-x="560" 
d="M402 611l-32 -50l-12 -1l-195 118l-2 13l48 72l12 1c48.667 -44.667 109 -95.667 181 -153zM466 448c41.333 -43.333 61.999 -104.666 61.999 -183.999c0 -86.667 -22.5 -153.834 -67.5 -201.501s-108.5 -71.5 -190.5 -71.5c-75.333 0 -133.666 22.167 -174.999 66.5
s-62 106.833 -62 187.5c0 85.333 22.333 151.333 67 198s108 70 190 70c76 0 134.667 -21.667 176 -65zM190.499 377.5c-17.667 -22.333 -26.5 -60.833 -26.5 -115.5c0 -44 3.83301 -78.5 11.5 -103.5s20 -42.833 37 -53.5s39.833 -16 68.5 -16c42 0 71.833 11 89.5 33
s26.5 60.667 26.5 116c0 44 -4 78.5 -12 103.5s-20.333 42.833 -37 53.5s-39.667 16 -69 16c-41.333 0 -70.833 -11.167 -88.5 -33.5z" />
    <glyph glyph-name="oacute" unicode="&#xf3;" horiz-adv-x="560" 
d="M379 763l48.001 -72l-2 -13c-14.667 -9.33301 -25.667 -16 -33 -20c-83.333 -51.333 -137.333 -84 -162 -98l-13 1l-32 50c77.333 62 137.666 113 180.999 153zM466.001 448c41.333 -43.333 61.999 -104.666 61.999 -183.999c0 -86.667 -22.5 -153.834 -67.5 -201.501
s-108.5 -71.5 -190.5 -71.5c-75.333 0 -133.666 22.167 -174.999 66.5s-62 106.833 -62 187.5c0 85.333 22.333 151.333 67 198s108 70 190 70c76 0 134.667 -21.667 176 -65zM190.5 377.5c-17.667 -22.333 -26.5 -60.833 -26.5 -115.5c0 -44 3.83301 -78.5 11.5 -103.5
s20 -42.833 37 -53.5s39.833 -16 68.5 -16c42 0 71.833 11 89.5 33s26.5 60.667 26.5 116c0 44 -4 78.5 -12 103.5s-20.333 42.833 -37 53.5s-39.667 16 -69 16c-41.333 0 -70.833 -11.167 -88.5 -33.5z" />
    <glyph glyph-name="ocircumflex" unicode="&#xf4;" horiz-adv-x="560" 
d="M127 617c38 34.667 85 81.667 141 141h29c52 -57.333 98.667 -104.333 140 -141l-33 -51h-13c-44 34.667 -80.333 65.334 -109 92.001c-26 -24.667 -62 -55.334 -108 -92.001h-13zM466 448c41.333 -43.333 61.999 -104.666 61.999 -183.999
c0 -86.667 -22.5 -153.834 -67.5 -201.501s-108.5 -71.5 -190.5 -71.5c-75.333 0 -133.666 22.167 -174.999 66.5s-62 106.833 -62 187.5c0 85.333 22.333 151.333 67 198s108 70 190 70c76 0 134.667 -21.667 176 -65zM190.499 377.5
c-17.667 -22.333 -26.5 -60.833 -26.5 -115.5c0 -44 3.83301 -78.5 11.5 -103.5s20 -42.833 37 -53.5s39.833 -16 68.5 -16c42 0 71.833 11 89.5 33s26.5 60.667 26.5 116c0 44 -4 78.5 -12 103.5s-20.333 42.833 -37 53.5s-39.667 16 -69 16
c-41.333 0 -70.833 -11.167 -88.5 -33.5z" />
    <glyph glyph-name="otilde" unicode="&#xf5;" horiz-adv-x="560" 
d="M456 702l-0.00195312 -11.001l-70 -89l-13 -5c-18 2 -45.667 8.33301 -83 19c-3.33301 0.666992 -14.166 3.5 -32.499 8.5s-31.166 7.5 -38.499 7.5s-14.5 -3 -21.5 -9s-14.5 -13.333 -22.5 -22l-18 -20h-12l-40 39v11l71 89l12 5c16 -2 44.333 -8.66699 85 -20
c37.333 -10 60.333 -15 69 -15c8 0 15.833 3.33301 23.5 10s15.5 14.334 23.5 23.001s13.333 14.667 16 18h12zM465.998 447.999c41.333 -43.333 61.999 -104.666 61.999 -183.999c0 -86.667 -22.5 -153.834 -67.5 -201.501s-108.5 -71.5 -190.5 -71.5
c-75.333 0 -133.666 22.167 -174.999 66.5s-62 106.833 -62 187.5c0 85.333 22.333 151.333 67 198s108 70 190 70c76 0 134.667 -21.667 176 -65zM190.497 377.499c-17.667 -22.333 -26.5 -60.833 -26.5 -115.5c0 -44 3.83301 -78.5 11.5 -103.5s20 -42.833 37 -53.5
s39.833 -16 68.5 -16c42 0 71.833 11 89.5 33s26.5 60.667 26.5 116c0 44 -4 78.5 -12 103.5s-20.333 42.833 -37 53.5s-39.667 16 -69 16c-41.333 0 -70.833 -11.167 -88.5 -33.5z" />
    <glyph glyph-name="divide" unicode="&#xf7;" horiz-adv-x="480" 
d="M463 296l-7 -81h-418l-9 9l7 81h418zM300.236 139.382c10.3096 -10.6035 15.4639 -25.3301 15.4639 -44.1807c0 -20.0283 -5.59668 -35.9326 -16.7891 -47.7139c-11.1924 -11.7822 -26.5078 -17.6729 -45.9473 -17.6729s-34.3135 5.30176 -44.6221 15.9053
s-15.4629 25.625 -15.4629 45.0635c0 19.4395 5.74316 35.0498 17.2305 46.8311c11.4863 11.7822 27.2441 17.6729 47.2725 17.6729c18.2607 0 32.5459 -5.30176 42.8545 -15.9053zM300.236 478.382c10.3096 -10.6035 15.4639 -25.3301 15.4639 -44.1807
c0 -20.0283 -5.59668 -35.9326 -16.7891 -47.7139c-11.1924 -11.7822 -26.5078 -17.6729 -45.9473 -17.6729s-34.3135 5.30176 -44.6221 15.9053s-15.4629 25.625 -15.4629 45.0635c0 19.4395 5.74316 35.0498 17.2305 46.8311
c11.4863 11.7822 27.2441 17.6729 47.2725 17.6729c18.2607 0 32.5459 -5.30176 42.8545 -15.9053z" />
    <glyph glyph-name="oslash" unicode="&#xf8;" horiz-adv-x="560" 
d="M528 264c0 -86.667 -22.501 -153.833 -67.501 -201.5s-108.5 -71.5 -190.5 -71.5c-23.333 0 -46.666 2.66699 -69.999 8l-63 -113l-76 36l-4 12l59 104c-27.333 21.333 -48 49.5 -62 84.5s-21 75.833 -21 122.5c0 85.333 22.333 151.333 67 198s108 70 190 70
c31.333 0 58.333 -3.33301 81 -10l54 95l72 -37l6 -12l-50 -89c50 -42.667 75 -108 75 -196zM370.499 122.001c17.667 22 26.5 60.667 26.5 116c0 44 -4 78.5 -12 103.5s-20.333 42.833 -37 53.5s-39.667 16 -69 16c-41.333 0 -70.833 -11.167 -88.5 -33.5
s-26.5 -60.833 -26.5 -115.5c0 -44 3.83301 -78.5 11.5 -103.5s20 -42.833 37 -53.5s39.833 -16 68.5 -16c42 0 71.833 11 89.5 33z" />
    <glyph glyph-name="ugrave" unicode="&#xf9;" horiz-adv-x="557" 
d="M400 611l-32 -50l-12 -1l-195 118l-2 13l48 72l12 1c48.667 -44.667 109 -95.667 181 -153zM494 248l-0.999023 -77c0.666992 -57.333 -18.166 -101.5 -56.499 -132.5s-93.166 -46.5 -164.499 -46.5c-69.333 0 -122.333 15.5 -159 46.5s-54 75.167 -52 132.5l1 79l-3 255
h126l-6 -316c-0.666992 -32.667 7.16602 -56.667 23.499 -72s41.166 -23 74.499 -23c34 0 59.167 7.83301 75.5 23.5s24.166 39.5 23.499 71.5l-5 316h127z" />
    <glyph glyph-name="uacute" unicode="&#xfa;" horiz-adv-x="557" 
d="M377 763l48.001 -72l-2 -13c-14.667 -9.33301 -25.667 -16 -33 -20c-83.333 -51.333 -137.333 -84 -162 -98l-13 1l-32 50c77.333 62 137.666 113 180.999 153zM494.001 248l-0.999023 -77c0.666992 -57.333 -18.166 -101.5 -56.499 -132.5s-93.166 -46.5 -164.499 -46.5
c-69.333 0 -122.333 15.5 -159 46.5s-54 75.167 -52 132.5l1 79l-3 255h126l-6 -316c-0.666992 -32.667 7.16602 -56.667 23.499 -72s41.166 -23 74.499 -23c34 0 59.167 7.83301 75.5 23.5s24.166 39.5 23.499 71.5l-5 316h127z" />
    <glyph glyph-name="ucircumflex" unicode="&#xfb;" horiz-adv-x="557" 
d="M125 617c38 34.667 85 81.667 141 141h29c52 -57.333 98.667 -104.333 140 -141l-33 -51h-13c-44 34.667 -80.333 65.334 -109 92.001c-26 -24.667 -62 -55.334 -108 -92.001h-13zM494 248l-0.999023 -77c0.666992 -57.333 -18.166 -101.5 -56.499 -132.5
s-93.166 -46.5 -164.499 -46.5c-69.333 0 -122.333 15.5 -159 46.5s-54 75.167 -52 132.5l1 79l-3 255h126l-6 -316c-0.666992 -32.667 7.16602 -56.667 23.499 -72s41.166 -23 74.499 -23c34 0 59.167 7.83301 75.5 23.5s24.166 39.5 23.499 71.5l-5 316h127z" />
    <glyph glyph-name="udieresis" unicode="&#xfc;" horiz-adv-x="557" 
d="M240 706c10.667 -10.667 15.998 -25.667 15.998 -45c0 -20.667 -5.83301 -37 -17.5 -49s-27.5 -18 -47.5 -18c-19.333 0 -34.333 5.33301 -45 16s-16 26 -16 46s5.83301 36 17.5 48s27.834 18 48.501 18c18.667 0 33.334 -5.33301 44.001 -16zM412.998 706
c10.667 -10.667 15.999 -25.667 15.999 -45c0 -20.667 -5.83301 -37 -17.5 -49s-27.167 -18 -46.5 -18s-34.333 5.33301 -45 16s-16 26 -16 46s5.83301 36 17.5 48s27.5 18 47.5 18c18.667 0 33.334 -5.33301 44.001 -16zM493.997 248l-0.999023 -77
c0.666992 -57.333 -18.166 -101.5 -56.499 -132.5s-93.166 -46.5 -164.499 -46.5c-69.333 0 -122.333 15.5 -159 46.5s-54 75.167 -52 132.5l1 79l-3 255h126l-6 -316c-0.666992 -32.667 7.16602 -56.667 23.499 -72s41.166 -23 74.499 -23c34 0 59.167 7.83301 75.5 23.5
s24.166 39.5 23.499 71.5l-5 316h127z" />
    <glyph glyph-name="thorn" unicode="&#xfe;" horiz-adv-x="500" 
d="M428 390.5c30.667 -27 46 -66.5 46 -118.5c0 -60 -19.667 -106.667 -59 -140s-95.333 -50 -168 -50l-50 -1l3 -81h-127l5 150l-4 279l-1 1h1l-1 75h129l-2 -74h95c58 0 102.333 -13.5 133 -40.5zM323 204.5c11.333 13.667 17.001 32.5 17.001 56.5c0 26.667 -7 46 -21 58
s-36.333 18.667 -67 20l-53 -3l-4 -160l76 -3c23.333 7.33301 40.666 17.833 51.999 31.5z" />
    <glyph glyph-name="ydieresis" unicode="&#xff;" horiz-adv-x="497" 
d="M120 610c-10.667 10.667 -16.002 26 -16.002 46s5.83301 36 17.5 48s27.834 18 48.501 18c18.667 0 33.334 -5.33301 44.001 -16s16 -25.667 16 -45c0 -20.667 -5.83301 -37 -17.5 -49s-27.5 -18 -47.5 -18c-19.333 0 -34.333 5.33301 -45 16zM293.998 610
c-10.667 10.667 -16.001 26 -16.001 46s5.83301 36 17.5 48s27.5 18 47.5 18c18.667 0 33.334 -5.33301 44.001 -16s16 -25.667 16 -45c0 -20.667 -5.83301 -37 -17.5 -49s-27.167 -18 -46.5 -18s-34.333 5.33301 -45 16zM298.997 137l5 -137h-126l6 137l-1 25l-171 343h134
l11 -37l85 -177h7l94 172l16 42h130l-189 -340z" />
    <glyph glyph-name="Amacron" unicode="&#x100;" horiz-adv-x="600" 
d="M584 0h-138l-16 84l-17 60l-126 3l-111 -3l-17 -53l-17 -91h-134l218 644h161zM384 249l-76 268h-9l-88 -268l86 -2zM448 830l-6 -74h-280l-9 9l6 74h280z" />
    <glyph glyph-name="amacron" unicode="&#x101;" horiz-adv-x="529" 
d="M132 617l-9 9l6 74h280l9 -9l-6 -74h-280zM504 0h-127l-14 73l-9 29l-102 1l-90 -2l-7 -21l-15 -80h-123l177 505h149zM327 197l-57 193h-8l-67 -193l65 -1z" />
    <glyph glyph-name="Abreve" unicode="&#x102;" horiz-adv-x="600" 
d="M584 0h-138l-16 84l-17 60l-126 3l-111 -3l-17 -53l-17 -91h-134l218 644h161zM384 249l-76 268h-9l-88 -268l86 -2zM451 826c-12 -34 -31.001 -60 -57.001 -78s-57.667 -27 -95 -27c-36 0 -66.833 9 -92.5 27s-44.167 44 -55.5 78l31 43h19
c8.66699 -17.333 21.834 -31 39.501 -41s38.5 -15 62.5 -15c23.333 0 43.5 4.83301 60.5 14.5s29.833 23.5 38.5 41.5h19z" />
    <glyph glyph-name="abreve" unicode="&#x103;" horiz-adv-x="529" 
d="M171.5 605c-24.333 23.333 -41.167 53.333 -50.5 90l33 45h18c8.66699 -24.667 21.5 -43.5 38.5 -56.5s37.5 -19.5 61.5 -19.5s44.5 6.5 61.5 19.5s29.5 31.833 37.5 56.5h18l33 -45c-10 -38 -27.833 -68.333 -53.5 -91s-59.167 -34 -100.5 -34
c-40 0 -72.167 11.667 -96.5 35zM503.999 0h-127l-14 73l-9 29l-102 1l-90 -2l-7 -21l-15 -80h-123l177 505h149zM326.999 197l-57 193h-8l-67 -193l65 -1z" />
    <glyph glyph-name="Aogonek" unicode="&#x104;" horiz-adv-x="600" 
d="M584 0h-138l-16 84l-17 60l-126 3l-111 -3l-17 -53l-17 -91h-134l218 644h161zM384 249l-76 268h-9l-88 -268l86 -2zM508 -67c-12 -12 -18 -22.6689 -18 -32.002c0 -13.333 8 -20 24 -20c18 0 39 9.66699 63 29l7 -1l18 -59c-31.333 -29.333 -66.333 -44 -105 -44
c-26 0 -46.833 6.83301 -62.5 20.5s-23.5 31.834 -23.5 54.501c0 21.333 7.5 41.333 22.5 60s38.5 38.334 70.5 59.001h80c-38.667 -32.667 -64 -55 -76 -67z" />
    <glyph glyph-name="aogonek" unicode="&#x105;" horiz-adv-x="529" 
d="M522 -150c-31.333 -29.333 -66.333 -44.002 -105 -44.002c-26 0 -46.833 6.83301 -62.5 20.5s-23.5 31.834 -23.5 54.501c0 21.333 7.5 41.333 22.5 60s38.5 38.334 70.5 59.001h-47l-14 73l-9 29l-102 1l-90 -2l-7 -21l-15 -80h-123l177 505h149l161 -505
c-38.667 -32.667 -64 -55 -76 -67s-18 -22.667 -18 -32c0 -13.333 8 -20 24 -20c18 0 39 9.66699 63 29l7 -1zM327 196.998l-57 193h-8l-67 -193l65 -1z" />
    <glyph glyph-name="Cacute" unicode="&#x106;" horiz-adv-x="517" 
d="M505 613l-23.999 -113.001l-11 -5c-20 14 -42 25 -66 33s-48.667 12 -74 12c-106 0 -159 -69.667 -159 -209c0 -75.333 13.833 -131.833 41.5 -169.5s68.167 -56.5 121.5 -56.5c24.667 0 50.167 3.83301 76.5 11.5s50.166 18.167 71.499 31.5l12 -7l-11 -115
c-50.667 -23.333 -104 -35 -160 -35c-96 0 -169.167 28 -219.5 84s-75.5 136.333 -75.5 241c0 106.667 26.833 189.334 80.5 248.001s129.5 88 227.5 88c62.667 0 119 -13 169 -39zM427.001 885.999l34 -79l-4 -12c-64.667 -25.333 -136.667 -51.333 -216 -78l-12 4l-22 55
c82 41.333 151 79 207 113z" />
    <glyph glyph-name="cacute" unicode="&#x107;" horiz-adv-x="454" 
d="M368 763l48.001 -72l-2 -13c-14.667 -9.33301 -25.667 -16 -33 -20c-83.333 -51.333 -137.333 -84 -162 -98l-13 1l-32 50c77.333 62 137.666 113 180.999 153zM434.001 486l-21.9971 -105.998l-10 -5c-15.333 10.667 -33.333 19 -54 25s-41.334 9 -62.001 9
c-40.667 0 -71 -11.833 -91 -35.5s-30 -60.834 -30 -111.501c0 -110 42.333 -165 127 -165c20 0 40.667 2.66699 62 8s40.666 12.666 57.999 21.999l11 -6l-10 -105c-39.333 -16 -82.333 -24 -129 -24c-82 0 -144.333 22 -187 66s-64 107.333 -64 190
c0 84 22.667 149 68 195s109.666 69 192.999 69c50 0 96.667 -8.66699 140 -26z" />
    <glyph glyph-name="Ccircumflex" unicode="&#x108;" horiz-adv-x="517" 
d="M505 613l-23.999 -113.001l-11 -5c-20 14 -42 25 -66 33s-48.667 12 -74 12c-106 0 -159 -69.667 -159 -209c0 -75.333 13.833 -131.833 41.5 -169.5s68.167 -56.5 121.5 -56.5c24.667 0 50.167 3.83301 76.5 11.5s50.166 18.167 71.499 31.5l12 -7l-11 -115
c-50.667 -23.333 -104 -35 -160 -35c-96 0 -169.167 28 -219.5 84s-75.5 136.333 -75.5 241c0 106.667 26.833 189.334 80.5 248.001s129.5 88 227.5 88c62.667 0 119 -13 169 -39zM169.001 780.999c46 31.333 90.332 66 132.999 104h27
c46.667 -40 91.334 -74.667 134.001 -104l-24 -53h-13l-26 15l-84 48c-25.333 -15.333 -62 -36.333 -110 -63h-13z" />
    <glyph glyph-name="ccircumflex" unicode="&#x109;" horiz-adv-x="454" 
d="M116 617c38 34.667 85 81.667 141 141h29c52 -57.333 98.667 -104.333 140 -141l-33 -51h-13c-44 34.667 -80.333 65.334 -109 92.001c-26 -24.667 -62 -55.334 -108 -92.001h-13zM434 486l-21.9971 -105.998l-10 -5c-15.333 10.667 -33.333 19 -54 25
s-41.334 9 -62.001 9c-40.667 0 -71 -11.833 -91 -35.5s-30 -60.834 -30 -111.501c0 -110 42.333 -165 127 -165c20 0 40.667 2.66699 62 8s40.666 12.666 57.999 21.999l11 -6l-10 -105c-39.333 -16 -82.333 -24 -129 -24c-82 0 -144.333 22 -187 66s-64 107.333 -64 190
c0 84 22.667 149 68 195s109.666 69 192.999 69c50 0 96.667 -8.66699 140 -26z" />
    <glyph glyph-name="Cdotaccent" unicode="&#x10a;" horiz-adv-x="517" 
d="M505 613l-23.999 -113.001l-11 -5c-20 14 -42 25 -66 33s-48.667 12 -74 12c-106 0 -159 -69.667 -159 -209c0 -75.333 13.833 -131.833 41.5 -169.5s68.167 -56.5 121.5 -56.5c24.667 0 50.167 3.83301 76.5 11.5s50.166 18.167 71.499 31.5l12 -7l-11 -115
c-50.667 -23.333 -104 -35 -160 -35c-96 0 -169.167 28 -219.5 84s-75.5 136.333 -75.5 241c0 106.667 26.833 189.334 80.5 248.001s129.5 88 227.5 88c62.667 0 119 -13 169 -39zM366.501 853.999c11.667 -12 17.499 -28.667 17.499 -50
c0 -22.667 -6.33301 -40.667 -19 -54s-30 -20 -52 -20s-38.833 6 -50.5 18s-17.5 29 -17.5 51s6.5 39.667 19.5 53s30.833 20 53.5 20c20.667 0 36.834 -6 48.501 -18z" />
    <glyph glyph-name="cdotaccent" unicode="&#x10b;" horiz-adv-x="454" 
d="M322.5 715c11.667 -12 17.499 -28.667 17.499 -50c0 -22.667 -6.33301 -40.667 -19 -54s-30 -20 -52 -20s-38.833 6 -50.5 18s-17.5 29 -17.5 51s6.5 39.667 19.5 53s30.833 20 53.5 20c20.667 0 36.834 -6 48.501 -18zM433.999 486l-21.9971 -105.998l-10 -5
c-15.333 10.667 -33.333 19 -54 25s-41.334 9 -62.001 9c-40.667 0 -71 -11.833 -91 -35.5s-30 -60.834 -30 -111.501c0 -110 42.333 -165 127 -165c20 0 40.667 2.66699 62 8s40.666 12.666 57.999 21.999l11 -6l-10 -105c-39.333 -16 -82.333 -24 -129 -24
c-82 0 -144.333 22 -187 66s-64 107.333 -64 190c0 84 22.667 149 68 195s109.666 69 192.999 69c50 0 96.667 -8.66699 140 -26z" />
    <glyph glyph-name="Ccaron" unicode="&#x10c;" horiz-adv-x="517" 
d="M505 613l-23.999 -113.001l-11 -5c-20 14 -42 25 -66 33s-48.667 12 -74 12c-106 0 -159 -69.667 -159 -209c0 -75.333 13.833 -131.833 41.5 -169.5s68.167 -56.5 121.5 -56.5c24.667 0 50.167 3.83301 76.5 11.5s50.166 18.167 71.499 31.5l12 -7l-11 -115
c-50.667 -23.333 -104 -35 -160 -35c-96 0 -169.167 28 -219.5 84s-75.5 136.333 -75.5 241c0 106.667 26.833 189.334 80.5 248.001s129.5 88 227.5 88c62.667 0 119 -13 169 -39zM462.001 821.999c-46 -31.333 -90.332 -66 -132.999 -104h-27
c-46.667 40 -91.334 74.667 -134.001 104l24 53h13l26 -15l84 -48c25.333 15.333 62 36.333 110 63h13z" />
    <glyph glyph-name="ccaron" unicode="&#x10d;" horiz-adv-x="454" 
d="M427 705c-38 -34.667 -85 -81.667 -141 -141h-29c-52 57.333 -98.667 104.333 -140 141l33 51h13c44 -34.667 80.333 -65.334 109 -92.001c26 24.667 62 55.334 108 92.001h13zM434 486l-21.9971 -105.998l-10 -5c-15.333 10.667 -33.333 19 -54 25s-41.334 9 -62.001 9
c-40.667 0 -71 -11.833 -91 -35.5s-30 -60.834 -30 -111.501c0 -110 42.333 -165 127 -165c20 0 40.667 2.66699 62 8s40.666 12.666 57.999 21.999l11 -6l-10 -105c-39.333 -16 -82.333 -24 -129 -24c-82 0 -144.333 22 -187 66s-64 107.333 -64 190
c0 84 22.667 149 68 195s109.666 69 192.999 69c50 0 96.667 -8.66699 140 -26z" />
    <glyph glyph-name="Dcaron" unicode="&#x10e;" horiz-adv-x="655" 
d="M552 570c50 -52 75 -126.667 75 -224c0 -114 -28 -201.333 -84 -262s-136 -91 -240 -91c-31.333 0 -68.833 0.666992 -112.5 2s-81.167 3 -112.5 5l7 192l-7 452l259 4c93.333 0 165 -26 215 -78zM486 315c0 78.667 -12.833 135.833 -38.5 171.5
s-65.834 53.5 -120.501 53.5c-35.333 0 -73 -1.66699 -113 -5l-6 -331l3 -99c46.667 -4.66699 85.334 -7 116.001 -7c106 0 159 72.333 159 217zM475 821.999c-46 -31.333 -90.332 -66 -132.999 -104h-27c-46.667 40 -91.334 74.667 -134.001 104l24 53h13l26 -15l84 -48
c25.333 15.333 62 36.333 110 63h13z" />
    <glyph glyph-name="dcaron" unicode="&#x10f;" horiz-adv-x="570" 
d="M131 705l33 51h13c44 -34.667 80.333 -65.334 109 -92.001c26 24.667 62 55.334 108 92.001h13l34 -51c-38 -34.667 -85 -81.667 -141 -141h-29c-52 57.333 -98.667 104.333 -140 141zM474.5 447.5c41.667 -41 62.5 -99.5 62.5 -175.5c0 -89.333 -23.5 -158 -70.5 -206
s-114.5 -72 -202.5 -72c-51.333 0 -115 2 -191 6l5 150l-5 355l222 4c78 0 137.833 -20.5 179.5 -61.5zM407 242c0 59.333 -9.66699 101.833 -29 127.5s-50.333 38.5 -93 38.5c-31.333 0 -60 -1.33301 -86 -4l-5 -242l2 -65c16 -2 32.333 -3.66699 49 -5s30.667 -2 42 -2
c80 0 120 50.667 120 152z" />
    <glyph glyph-name="Dcroat" unicode="&#x110;" horiz-adv-x="680" 
d="M577 570c50 -52 75 -126.667 75 -224c0 -114 -28 -201.333 -84 -262s-136 -91 -240 -91c-31.333 0 -68.833 0.666992 -112.5 2s-81.167 3 -112.5 5l7 192l-7 452l259 4c93.333 0 165 -26 215 -78zM511 315c0 78.667 -12.833 135.833 -38.5 171.5
s-65.834 53.5 -120.501 53.5c-35.333 0 -73 -1.66699 -113 -5l-6 -331l3 -99c46.667 -4.66699 85.334 -7 116.001 -7c106 0 159 72.333 159 217zM357.534 354.999l-4.17383 -80h-334.621l-5.56543 9l4.17383 81h334.621z" />
    <glyph glyph-name="dcroat" unicode="&#x111;" horiz-adv-x="593" 
d="M498.5 447.5c41.667 -41 62.499 -99.5 62.499 -175.5c0 -89.333 -23.667 -158 -71 -206s-114.666 -72 -201.999 -72c-50.667 0 -114.667 2 -192 6l6 150l-1 58h-76l-7 10l5 71h77l-4 216l223 4c78 0 137.833 -20.5 179.5 -61.5zM429.999 242
c0 59.333 -9.66602 101.833 -28.999 127.5s-50.333 38.5 -93 38.5c-31.333 0 -60 -1.33301 -86 -4l-2 -115h106l6 -9l-5 -72h-109l-1 -46l2 -65c45.333 -4.66699 75.666 -7 90.999 -7c80 0 120 50.667 120 152z" />
    <glyph glyph-name="Emacron" unicode="&#x112;" horiz-adv-x="509" 
d="M483 112l8 -11l-9 -101h-404l7 192l-7 452h408l8 -11l-10 -101l-154 5l-116 -1l-3 -155l111 -2l105 3l8 -10l-9 -101l-114 3l-103 -1l-1 -69l3 -97l113 -1zM429 830l-6 -74h-280l-9 9l6 74h280z" />
    <glyph glyph-name="emacron" unicode="&#x113;" horiz-adv-x="456" 
d="M109 617l-9 9l6 74h280l9 -9l-6 -74h-280zM420 102l8 -8l-9 -94h-346l5 150l-5 355h351l7 -10l-8 -93l-130 5h-94l-2 -102l90 -1l87 3l7 -9l-8 -95l-95 3h-83l-1 -44l2 -64h88z" />
    <glyph glyph-name="Ebreve" unicode="&#x114;" horiz-adv-x="509" 
d="M483 112l8 -11l-9 -101h-404l7 192l-7 452h408l8 -11l-10 -101l-154 5l-116 -1l-3 -155l111 -2l105 3l8 -10l-9 -101l-114 3l-103 -1l-1 -69l3 -97l113 -1zM432 826c-12 -34 -31.001 -60 -57.001 -78s-57.667 -27 -95 -27c-36 0 -66.833 9 -92.5 27s-44.167 44 -55.5 78
l31 43h19c8.66699 -17.333 21.834 -31 39.501 -41s38.5 -15 62.5 -15c23.333 0 43.5 4.83301 60.5 14.5s29.833 23.5 38.5 41.5h19z" />
    <glyph glyph-name="ebreve" unicode="&#x115;" horiz-adv-x="456" 
d="M148.5 605c-24.333 23.333 -41.167 53.333 -50.5 90l33 45h18c8.66699 -24.667 21.5 -43.5 38.5 -56.5s37.5 -19.5 61.5 -19.5s44.5 6.5 61.5 19.5s29.5 31.833 37.5 56.5h18l33 -45c-10 -38 -27.833 -68.333 -53.5 -91s-59.167 -34 -100.5 -34
c-40 0 -72.167 11.667 -96.5 35zM419.999 102l8 -8l-9 -94h-346l5 150l-5 355h351l7 -10l-8 -93l-130 5h-94l-2 -102l90 -1l87 3l7 -9l-8 -95l-95 3h-83l-1 -44l2 -64h88z" />
    <glyph glyph-name="Edotaccent" unicode="&#x116;" horiz-adv-x="509" 
d="M483 112l8 -11l-9 -101h-404l7 192l-7 452h408l8 -11l-10 -101l-154 5l-116 -1l-3 -155l111 -2l105 3l8 -10l-9 -101l-114 3l-103 -1l-1 -69l3 -97l113 -1zM333.5 854c11.667 -12 17.499 -28.667 17.499 -50c0 -22.667 -6.33301 -40.667 -19 -54s-30 -20 -52 -20
s-38.833 6 -50.5 18s-17.5 29 -17.5 51s6.5 39.667 19.5 53s30.833 20 53.5 20c20.667 0 36.834 -6 48.501 -18z" />
    <glyph glyph-name="edotaccent" unicode="&#x117;" horiz-adv-x="456" 
d="M195.5 609c-11.667 12 -17.501 29 -17.501 51s6.5 39.667 19.5 53s30.833 20 53.5 20c20.667 0 36.834 -6 48.501 -18s17.5 -28.667 17.5 -50c0 -22.667 -6.33301 -40.667 -19 -54s-30 -20 -52 -20s-38.833 6 -50.5 18zM419.999 102l8 -8l-9 -94h-346l5 150l-5 355h351
l7 -10l-8 -93l-130 5h-94l-2 -102l90 -1l87 3l7 -9l-8 -95l-95 3h-83l-1 -44l2 -64h88z" />
    <glyph glyph-name="Eogonek" unicode="&#x118;" horiz-adv-x="509" 
d="M483 112l8 -11l-9 -101h-404l7 192l-7 452h408l8 -11l-10 -101l-154 5l-116 -1l-3 -155l111 -2l105 3l8 -10l-9 -101l-114 3l-103 -1l-1 -69l3 -97l113 -1zM292 -197c-18.667 15.333 -28.001 36 -28.001 62c0 22 8.16699 43.833 24.5 65.5s47.5 49.167 93.5 82.5h72
c-44.667 -44.667 -73.5 -75.167 -86.5 -91.5s-19.5 -29.5 -19.5 -39.5c0 -16.667 9.66699 -25 29 -25c20.667 0 45 10 73 30l7 -2l16 -62c-35.333 -28.667 -70.666 -43 -105.999 -43c-31.333 0 -56.333 7.66699 -75 23z" />
    <glyph glyph-name="eogonek" unicode="&#x119;" horiz-adv-x="456" 
d="M445 -182c-35.333 -28.667 -70.667 -43 -106 -43c-31.333 0 -56.333 7.66699 -75 23s-28 36 -28 62c0 20.667 7.33301 41.334 22 62.001s43 46.667 85 78h-270l5 150l-5 355h351l7 -10l-8 -93l-130 5h-94l-2 -102l90 -1l87 3l7 -9l-8 -95l-95 3h-83l-1 -44l2 -64h88
l136 4l8 -8l-8 -86h6l-7 -7v-1h-1c-40.667 -40.667 -67.167 -68.834 -79.5 -84.501s-18.5 -28.5 -18.5 -38.5c0 -16.667 9.66699 -25 29 -25c20.667 0 45 10 73 30l7 -2z" />
    <glyph glyph-name="Ecaron" unicode="&#x11a;" horiz-adv-x="509" 
d="M483 112l8 -11l-9 -101h-404l7 192l-7 452h408l8 -11l-10 -101l-154 5l-116 -1l-3 -155l111 -2l105 3l8 -10l-9 -101l-114 3l-103 -1l-1 -69l3 -97l113 -1zM429 822c-46 -31.333 -90.332 -66 -132.999 -104h-27c-46.667 40 -91.334 74.667 -134.001 104l24 53h13l26 -15
l84 -48c25.333 15.333 62 36.333 110 63h13z" />
    <glyph glyph-name="ecaron" unicode="&#x11b;" horiz-adv-x="456" 
d="M93 705l33 51h13c44 -34.667 80.333 -65.334 109 -92.001c26 24.667 62 55.334 108 92.001h13l34 -51c-38 -34.667 -85 -81.667 -141 -141h-29c-52 57.333 -98.667 104.333 -140 141zM420 102l8 -8l-9 -94h-346l5 150l-5 355h351l7 -10l-8 -93l-130 5h-94l-2 -102l90 -1
l87 3l7 -9l-8 -95l-95 3h-83l-1 -44l2 -64h88z" />
    <glyph glyph-name="Gcircumflex" unicode="&#x11c;" horiz-adv-x="598" 
d="M553 613l-29.001 -122.002l-13 -2c-32.667 18.667 -61.834 32.167 -87.501 40.5s-53.167 12.5 -82.5 12.5c-59.333 0 -102.666 -17.667 -129.999 -53s-41 -93.333 -41 -174c0 -53.333 5.83301 -95.666 17.5 -126.999s29.834 -54.166 54.501 -68.499
s57.334 -21.5 98.001 -21.5c14 0 27.167 1 39.5 3s27.5 5.66699 45.5 11l2 55l-2 102l125 9l-3 -90l3 -157c-80 -26.667 -153.667 -40 -221 -40c-100 0 -175.167 27.333 -225.5 82s-75.5 133 -75.5 235c0 111.333 29.167 196.5 87.5 255.5s141.166 88.5 248.499 88.5
c70 0 133 -13 189 -39zM180.999 780.998c46 31.333 90.332 66 132.999 104h27c46.667 -40 91.334 -74.667 134.001 -104l-24 -53h-13l-26 15l-84 48c-25.333 -15.333 -62 -36.333 -110 -63h-13z" />
    <glyph glyph-name="gcircumflex" unicode="&#x11d;" horiz-adv-x="520" 
d="M120 617c38 34.667 85 81.667 141 141h29c52 -57.333 98.667 -104.333 140 -141l-33 -51h-13c-44 34.667 -80.333 65.334 -109 92.001c-26 -24.667 -62 -55.334 -108 -92.001h-13zM475 484l-33.001 -113.999h-11c-26 14.667 -49.167 25 -69.5 31s-42.833 9 -67.5 9
c-46 0 -79.167 -12.167 -99.5 -36.5s-30.5 -66.5 -30.5 -126.5c0 -40 4.33301 -71.333 13 -94s22.5 -38.834 41.5 -48.501s44.833 -14.5 77.5 -14.5c20 0 41 4 63 12v32l-1 80l115 8l-2 -67v-130c-65.333 -22 -126.666 -33 -183.999 -33c-84 0 -147.333 21.5 -190 64.5
s-64 104.5 -64 184.5c0 88 24.667 155.167 74 201.5s119.333 69.5 210 69.5c56 0 108.667 -9.33301 158 -28z" />
    <glyph glyph-name="Gbreve" unicode="&#x11e;" horiz-adv-x="598" 
d="M553 613l-29.001 -122.002l-13 -2c-32.667 18.667 -61.834 32.167 -87.501 40.5s-53.167 12.5 -82.5 12.5c-59.333 0 -102.666 -17.667 -129.999 -53s-41 -93.333 -41 -174c0 -53.333 5.83301 -95.666 17.5 -126.999s29.834 -54.166 54.501 -68.499
s57.334 -21.5 98.001 -21.5c14 0 27.167 1 39.5 3s27.5 5.66699 45.5 11l2 55l-2 102l125 9l-3 -90l3 -157c-80 -26.667 -153.667 -40 -221 -40c-100 0 -175.167 27.333 -225.5 82s-75.5 133 -75.5 235c0 111.333 29.167 196.5 87.5 255.5s141.166 88.5 248.499 88.5
c70 0 133 -13 189 -39zM476.999 825.998c-12 -34 -31.001 -60 -57.001 -78s-57.667 -27 -95 -27c-36 0 -66.833 9 -92.5 27s-44.167 44 -55.5 78l31 43h19c8.66699 -17.333 21.834 -31 39.501 -41s38.5 -15 62.5 -15c23.333 0 43.5 4.83301 60.5 14.5s29.833 23.5 38.5 41.5
h19z" />
    <glyph glyph-name="gbreve" unicode="&#x11f;" horiz-adv-x="520" 
d="M427 695c-10 -38 -27.834 -68.333 -53.501 -91s-59.167 -34 -100.5 -34c-40 0 -72.167 11.667 -96.5 35s-41.166 53.333 -50.499 90l33 45h18c8.66699 -24.667 21.5 -43.5 38.5 -56.5s37.5 -19.5 61.5 -19.5s44.5 6.5 61.5 19.5s29.5 31.833 37.5 56.5h18zM474.999 484
l-33.001 -113.999h-11c-26 14.667 -49.167 25 -69.5 31s-42.833 9 -67.5 9c-46 0 -79.167 -12.167 -99.5 -36.5s-30.5 -66.5 -30.5 -126.5c0 -40 4.33301 -71.333 13 -94s22.5 -38.834 41.5 -48.501s44.833 -14.5 77.5 -14.5c20 0 41 4 63 12v32l-1 80l115 8l-2 -67v-130
c-65.333 -22 -126.666 -33 -183.999 -33c-84 0 -147.333 21.5 -190 64.5s-64 104.5 -64 184.5c0 88 24.667 155.167 74 201.5s119.333 69.5 210 69.5c56 0 108.667 -9.33301 158 -28z" />
    <glyph glyph-name="Gdotaccent" unicode="&#x120;" horiz-adv-x="598" 
d="M553 613l-29.001 -122.002l-13 -2c-32.667 18.667 -61.834 32.167 -87.501 40.5s-53.167 12.5 -82.5 12.5c-59.333 0 -102.666 -17.667 -129.999 -53s-41 -93.333 -41 -174c0 -53.333 5.83301 -95.666 17.5 -126.999s29.834 -54.166 54.501 -68.499
s57.334 -21.5 98.001 -21.5c14 0 27.167 1 39.5 3s27.5 5.66699 45.5 11l2 55l-2 102l125 9l-3 -90l3 -157c-80 -26.667 -153.667 -40 -221 -40c-100 0 -175.167 27.333 -225.5 82s-75.5 133 -75.5 235c0 111.333 29.167 196.5 87.5 255.5s141.166 88.5 248.499 88.5
c70 0 133 -13 189 -39zM378.499 853.998c11.667 -12 17.499 -28.667 17.499 -50c0 -22.667 -6.33301 -40.667 -19 -54s-30 -20 -52 -20s-38.833 6 -50.5 18s-17.5 29 -17.5 51s6.5 39.667 19.5 53s30.833 20 53.5 20c20.667 0 36.834 -6 48.501 -18z" />
    <glyph glyph-name="gdotaccent" unicode="&#x121;" horiz-adv-x="520" 
d="M326.5 715c11.667 -12 17.499 -28.667 17.499 -50c0 -22.667 -6.33301 -40.667 -19 -54s-30 -20 -52 -20s-38.833 6 -50.5 18s-17.5 29 -17.5 51s6.5 39.667 19.5 53s30.833 20 53.5 20c20.667 0 36.834 -6 48.501 -18zM474.999 484l-33.001 -113.999h-11
c-26 14.667 -49.167 25 -69.5 31s-42.833 9 -67.5 9c-46 0 -79.167 -12.167 -99.5 -36.5s-30.5 -66.5 -30.5 -126.5c0 -40 4.33301 -71.333 13 -94s22.5 -38.834 41.5 -48.501s44.833 -14.5 77.5 -14.5c20 0 41 4 63 12v32l-1 80l115 8l-2 -67v-130
c-65.333 -22 -126.666 -33 -183.999 -33c-84 0 -147.333 21.5 -190 64.5s-64 104.5 -64 184.5c0 88 24.667 155.167 74 201.5s119.333 69.5 210 69.5c56 0 108.667 -9.33301 158 -28z" />
    <glyph glyph-name="Gcommaaccent" unicode="&#x122;" horiz-adv-x="598" 
d="M553 613l-29.001 -122.002l-13 -2c-32.667 18.667 -61.834 32.167 -87.501 40.5s-53.167 12.5 -82.5 12.5c-59.333 0 -102.666 -17.667 -129.999 -53s-41 -93.333 -41 -174c0 -53.333 5.83301 -95.666 17.5 -126.999s29.834 -54.166 54.501 -68.499
s57.334 -21.5 98.001 -21.5c14 0 27.167 1 39.5 3s27.5 5.66699 45.5 11l2 55l-2 102l125 9l-3 -90l3 -157c-80 -26.667 -153.667 -40 -221 -40c-100 0 -175.167 27.333 -225.5 82s-75.5 133 -75.5 235c0 111.333 29.167 196.5 87.5 255.5s141.166 88.5 248.499 88.5
c70 0 133 -13 189 -39zM376.999 -117.002c0 -26.667 -8.83301 -52.666 -26.5 -77.999s-44.834 -51 -81.501 -77l-38 34l-1 9c32.667 28 49 57.333 49 88c0 20.667 -9.66699 38.667 -29 54l1 10c26.667 16 55.334 28.333 86.001 37c26.667 -20.667 40 -46.334 40 -77.001z
" />
    <glyph glyph-name="gcommaaccent" unicode="&#x123;" horiz-adv-x="520" 
d="M475 484l-33.001 -113.999h-11c-26 14.667 -49.167 25 -69.5 31s-42.833 9 -67.5 9c-46 0 -79.167 -12.167 -99.5 -36.5s-30.5 -66.5 -30.5 -126.5c0 -40 4.33301 -71.333 13 -94s22.5 -38.834 41.5 -48.501s44.833 -14.5 77.5 -14.5c20 0 41 4 63 12v32l-1 80l115 8
l-2 -67v-130c-65.333 -22 -126.666 -33 -183.999 -33c-84 0 -147.333 21.5 -190 64.5s-64 104.5 -64 184.5c0 88 24.667 155.167 74 201.5s119.333 69.5 210 69.5c56 0 108.667 -9.33301 158 -28zM339.999 -116.999c0 -26.667 -8.83301 -52.666 -26.5 -77.999
s-44.834 -51 -81.501 -77l-38 34l-1 9c32.667 28 49 57.333 49 88c0 20.667 -9.66699 38.667 -29 54l1 10c26.667 16 55.334 28.333 86.001 37c26.667 -20.667 40 -46.334 40 -77.001z" />
    <glyph glyph-name="Hcircumflex" unicode="&#x124;" horiz-adv-x="696" 
d="M615 204l4 -204h-135l6 192l-1 75l-145 1l-131 -2l-1 -62l5 -204h-135l7 192l-7 452h137l-4 -266l138 -2l135 2l-4 266h138zM203 781c46 31.333 90.332 66 132.999 104h27c46.667 -40 91.334 -74.667 134.001 -104l-24 -53h-13l-26 15l-84 48
c-25.333 -15.333 -62 -36.333 -110 -63h-13z" />
    <glyph glyph-name="hcircumflex" unicode="&#x125;" horiz-adv-x="604" 
d="M182 566l-34 51c38 34.667 85 81.667 141 141h29c52 -57.333 98.667 -104.333 140 -141l-33 -51h-13c-44 34.667 -80.333 65.334 -109 92.001c-26 -24.667 -62 -55.334 -108 -92.001h-13zM526 162l5 -162h-126l5 150l-1 49l-113 1l-101 -2l-1 -36l5 -162h-126l5 150
l-5 355h128l-4 -200l107 -2l104 1l-3 201h128z" />
    <glyph glyph-name="Hbar" unicode="&#x126;" horiz-adv-x="728" 
d="M628 475l-4 -271l5 -204h-135l6 192l-1 75l-145 1l-131 -2l-1 -62l5 -204h-135l6 192l-4 283h-61l-7 7l5 71h62l-1 91h137l-1 -91h267l-1 91h137l-1 -91h66l6 -8l-4 -70h-70zM496 475h-270l-1 -97l138 -2l135 2z" />
    <glyph glyph-name="hbar" unicode="&#x127;" horiz-adv-x="631" 
d="M538 365l-4 -203l4 -162h-126l6 150l-1 49l-113 1l-102 -2l-1 -36l6 -162h-127l6 150l-4 215h-48l-5 7l5 62h47l-1 71h128l-1 -71h206l-1 71h128l-1 -71h57l6 -6l-5 -63h-59zM414 365h-209l-1 -60l108 -2l103 1z" />
    <glyph glyph-name="Imacron" unicode="&#x12a;" horiz-adv-x="295" 
d="M208 204l6 -204h-136l7 192l-7 452h138zM267 830l-7 -74h-225l-9 9l7 74h225z" />
    <glyph glyph-name="imacron" unicode="&#x12b;" horiz-adv-x="279" 
d="M261 691l-7 -74h-225l-9 9l7 74h225zM194 162l5 -162h-126l5 150l-5 355h128z" />
    <glyph glyph-name="Ibreve" unicode="&#x12c;" horiz-adv-x="295" 
d="M208 204l6 -204h-136l7 192l-7 452h138zM297 826c-12 -34 -31.001 -60 -57.001 -78s-57.667 -27 -95 -27c-36 0 -66.833 9 -92.5 27s-44.167 44 -55.5 78l31 43h19c8.66699 -17.333 21.834 -31 39.501 -41s38.5 -15 62.5 -15c23.333 0 43.5 4.83301 60.5 14.5
s29.833 23.5 38.5 41.5h19z" />
    <glyph glyph-name="ibreve" unicode="&#x12d;" horiz-adv-x="279" 
d="M293 695c-10 -38 -27.834 -68.333 -53.501 -91s-59.167 -34 -100.5 -34c-40 0 -72.167 11.667 -96.5 35s-41.166 53.333 -50.499 90l33 45h18c8.66699 -24.667 21.5 -43.5 38.5 -56.5s37.5 -19.5 61.5 -19.5s44.5 6.5 61.5 19.5s29.5 31.833 37.5 56.5h18zM193.999 162
l5 -162h-126l5 150l-5 355h128z" />
    <glyph glyph-name="Iogonek" unicode="&#x12e;" horiz-adv-x="295" 
d="M208 204l6 -204h-136l7 192l-7 452h138zM138 -67c-12 -12 -18 -22.6689 -18 -32.002c0 -13.333 8 -20 24 -20c18 0 39 9.66699 63 29l7 -1l18 -59c-31.333 -29.333 -66.333 -44 -105 -44c-26 0 -46.833 6.83301 -62.5 20.5s-23.5 31.834 -23.5 54.501
c0 21.333 7.5 41.333 22.5 60s38.5 38.334 70.5 59.001h80c-38.667 -32.667 -64 -55 -76 -67z" />
    <glyph glyph-name="iogonek" unicode="&#x12f;" horiz-adv-x="279" 
d="M217 -150c-31.333 -29.333 -66.333 -44.002 -105 -44.002c-26 0 -46.833 6.83301 -62.5 20.5s-23.5 31.834 -23.5 54.501c0 21.333 7.5 41.333 22.5 60s38.5 38.334 70.5 59.001h-46l5 150l-5 355h128l-7 -343l5 -162c-38.667 -32.667 -64 -55 -76 -67
s-18 -22.667 -18 -32c0 -13.333 8 -20 24 -20c18 0 39 9.66699 63 29l7 -1z" />
    <glyph glyph-name="Idotaccent" unicode="&#x130;" horiz-adv-x="295" 
d="M208 204l6 -204h-136l7 192l-7 452h138zM198.5 854c11.667 -12 17.499 -28.667 17.499 -50c0 -22.667 -6.33301 -40.667 -19 -54s-30 -20 -52 -20s-38.833 6 -50.5 18s-17.5 29 -17.5 51s6.5 39.667 19.5 53s30.833 20 53.5 20c20.667 0 36.834 -6 48.501 -18z" />
    <glyph glyph-name="dotlessi" unicode="&#x131;" horiz-adv-x="279" 
d="M194 162l5 -162h-126l5 150l-5 355h128z" />
    <glyph glyph-name="IJ" unicode="&#x132;" horiz-adv-x="630" 
d="M208 204l6 -204h-136l7 192l-7 452h138zM546 212l1.99902 -90.998c0 -38 -6.33301 -70.333 -19 -97s-33.167 -50.334 -61.5 -71.001s-67.166 -40.334 -116.499 -59.001l-41 72v12c41.333 21.333 70.5 42.5 87.5 63.5s25.5 48.167 25.5 81.5v76l-6 345l-106 -3l-10 10
l7 93h245z" />
    <glyph glyph-name="ij" unicode="&#x133;" horiz-adv-x="595" 
d="M201 505l-7 -343l5 -162h-126l5 150l-5 355h128zM511 166l1.00098 -70c0 -45.333 -11.5 -81.666 -34.5 -108.999s-64.167 -52.333 -123.5 -75l-40 63v11c29.333 14.667 50.166 30.167 62.499 46.5s18.5 37.166 18.5 62.499v58l-4 259l-86 -2l-8 8l8 87h211z" />
    <glyph glyph-name="Jcircumflex" unicode="&#x134;" horiz-adv-x="335" 
d="M251 212l1.99902 -90.998c0 -38 -6.33301 -70.333 -19 -97s-33.167 -50.334 -61.5 -71.001s-67.166 -40.334 -116.499 -59.001l-41 72v12c41.333 21.333 70.5 42.5 87.5 63.5s25.5 48.167 25.5 81.5v76l-6 345l-106 -3l-10 10l7 93h245zM1.99902 781.002
c46 31.333 90.332 66 132.999 104h27c46.667 -40 91.334 -74.667 134.001 -104l-24 -53h-13l-26 15l-84 48c-25.333 -15.333 -62 -36.333 -110 -63h-13z" />
    <glyph glyph-name="jcircumflex" unicode="&#x135;" horiz-adv-x="315" 
d="M284 617l-33 -51h-13c-44 34.667 -80.333 65.334 -109 92.001c-26 -24.667 -62 -55.334 -108 -92.001h-13l-34 51c38 34.667 85 81.667 141 141h29c52 -57.333 98.667 -104.333 140 -141zM232 166l1.00098 -70c0 -45.333 -11.5 -81.666 -34.5 -108.999
s-64.167 -52.333 -123.5 -75l-40 63v11c29.333 14.667 50.166 30.167 62.499 46.5s18.5 37.166 18.5 62.499v58l-4 259l-86 -2l-8 8l8 87h211z" />
    <glyph glyph-name="Kcommaaccent" unicode="&#x136;" horiz-adv-x="584" 
d="M593 28l-1.99902 -15c-37.333 -9.33301 -81.333 -17 -132 -23l-16 8c-87.333 116 -165 227.333 -233 334l-2 -128l5 -204h-135l7 192l-7 452h137l-5 -299l181 237l37 62h146l-228 -304c71.333 -99.333 153.666 -203.333 246.999 -312zM373.001 -117
c0 -26.667 -8.83301 -52.666 -26.5 -77.999s-44.834 -51 -81.501 -77l-38 34l-1 9c32.667 28 49 57.333 49 88c0 20.667 -9.66699 38.667 -29 54l1 10c26.667 16 55.334 28.333 86.001 37c26.667 -20.667 40 -46.334 40 -77.001z" />
    <glyph glyph-name="kcommaaccent" unicode="&#x137;" horiz-adv-x="520" 
d="M518 27l-3.00098 -14.999c-45.333 -11.333 -86.666 -18.333 -123.999 -21l-16 7c-66 87.333 -125.667 171.666 -179 252.999l-2 -89l5 -162h-126l5 150l-5 355h128l-5 -228l138 177l31 51l138 1l-183 -239c60.667 -81.333 126.667 -161.333 198 -240zM323.999 -116.999
c0 -26.667 -8.83301 -52.666 -26.5 -77.999s-44.834 -51 -81.501 -77l-38 34l-1 9c32.667 28 49 57.333 49 88c0 20.667 -9.66699 38.667 -29 54l1 10c26.667 16 55.334 28.333 86.001 37c26.667 -20.667 40 -46.334 40 -77.001z" />
    <glyph glyph-name="kgreenlandic" unicode="&#x138;" horiz-adv-x="520" 
d="M518 27l-3.00098 -14.999c-45.333 -11.333 -86.666 -18.333 -123.999 -21l-16 7c-66 87.333 -125.667 171.666 -179 252.999l-2 -89l5 -162h-126l5 150l-5 355h128l-5 -228l138 177l31 51l138 1l-183 -239c60.667 -81.333 126.667 -161.333 198 -240z" />
    <glyph glyph-name="Lacute" unicode="&#x139;" horiz-adv-x="433" 
d="M431 101l-9 -101h-348l7 192l-7 452h138l-8 -440l3 -92h216zM259 886l34 -79l-4 -12c-64.667 -25.333 -136.667 -51.333 -216 -78l-12 4l-22 55c82 41.333 151 79 207 113z" />
    <glyph glyph-name="lacute" unicode="&#x13a;" horiz-adv-x="388" 
d="M69 561l-31.999 50c77.333 62 137.666 113 180.999 153l13 -1l48 -72l-2 -13c-14.667 -9.33301 -25.667 -16 -33 -20c-83.333 -51.333 -137.333 -84 -162 -98zM374.001 94l-8 -94h-297l6 150l-6 355h128l-7 -343l2 -59h175z" />
    <glyph glyph-name="Lcommaaccent" unicode="&#x13b;" horiz-adv-x="433" 
d="M431 101l-9 -101h-348l7 192l-7 452h138l-8 -440l3 -92h216zM308 -117c0 -26.667 -8.83301 -52.666 -26.5 -77.999s-44.834 -51 -81.501 -77l-38 34l-1 9c32.667 28 49 57.333 49 88c0 20.667 -9.66699 38.667 -29 54l1 10c26.667 16 55.334 28.333 86.001 37
c26.667 -20.667 40 -46.334 40 -77.001z" />
    <glyph glyph-name="lcommaaccent" unicode="&#x13c;" horiz-adv-x="388" 
d="M374 94l-8 -94h-297l6 150l-6 355h128l-7 -343l2 -59h175zM297 -117c0 -26.667 -8.83301 -52.666 -26.5 -77.999s-44.834 -51 -81.501 -77l-38 34l-1 9c32.667 28 49 57.333 49 88c0 20.667 -9.66699 38.667 -29 54l1 10c26.667 16 55.334 28.333 86.001 37
c26.667 -20.667 40 -46.334 40 -77.001z" />
    <glyph glyph-name="Lcaron" unicode="&#x13d;" horiz-adv-x="480" 
d="M423 112l8 -11l-9 -101h-348l7 192l-7 452h138l-8 -440l3 -92h216zM332 381l-2 204l95 6l8 -9l-33 -200l-58 -9z" />
    <glyph glyph-name="lcaron" unicode="&#x13e;" horiz-adv-x="421" 
d="M367 103l7 -9l-8 -94h-297l6 150l-6 355h128l-7 -343l2 -59h175zM298 278l-2 204l94 6l8 -9l-32 -200l-59 -9z" />
    <glyph glyph-name="Ldot" unicode="&#x13f;" horiz-adv-x="455" 
d="M431 101l-9 -101h-348l7 192l-7 452h138l-8 -440l3 -92h216zM416.5 441c11.667 -12 17.499 -28.667 17.499 -50c0 -22.667 -6.33301 -40.667 -19 -54s-30 -20 -52 -20s-38.833 6 -50.5 18s-17.5 29 -17.5 51s6.5 39.667 19.5 53s30.833 20 53.5 20
c20.667 0 36.834 -6 48.501 -18z" />
    <glyph glyph-name="ldot" unicode="&#x140;" horiz-adv-x="420" 
d="M367 103l7 -9l-8 -94h-297l6 150l-6 355h128l-7 -343l2 -59h175zM270.5 258c-11.667 12 -17.501 28.667 -17.501 50c0 22.667 6.5 40.667 19.5 54s30.833 20 53.5 20c20.667 0 36.834 -6 48.501 -18s17.5 -28.667 17.5 -50c0 -22.667 -6.33301 -40.667 -19 -54
s-30 -20 -52 -20s-38.833 6 -50.5 18z" />
    <glyph glyph-name="Lslash" unicode="&#x141;" horiz-adv-x="449" 
d="M448 101l-9 -101h-349l8 192l-1 57l-61 -32l-13 6l-24 79l96 49l-5 293h139l-4 -226l101 52l13 -6l24 -78l-140 -72l-2 -110l3 -92h216z" />
    <glyph glyph-name="lslash" unicode="&#x142;" horiz-adv-x="408" 
d="M389 94l-9 -94h-296l6 150l-1 41l-50 -22l-12 7l-20 70l81 36l-4 223h128l-3 -170l82 36l10 -6l20 -70l-114 -51l-2 -82l2 -59h174z" />
    <glyph glyph-name="Nacute" unicode="&#x143;" horiz-adv-x="695" 
d="M610 199l5 -199h-146l-263 436h-8l-1 -214l4 -222h-123l7 190l-6 454h145l263 -436h9l-3 430l125 8zM459 886l34 -79l-4 -12c-64.667 -25.333 -136.667 -51.333 -216 -78l-12 4l-22 55c82 41.333 151 79 207 113z" />
    <glyph glyph-name="nacute" unicode="&#x144;" horiz-adv-x="604" 
d="M398 763l48.001 -72l-2 -13c-14.667 -9.33301 -25.667 -16 -33 -20c-83.333 -51.333 -137.333 -84 -162 -98l-13 1l-32 50c77.333 62 137.666 113 180.999 153zM525.001 160l5 -160h-137l-202 313h-7l-1 -136l4 -177h-114l5 148l-5 357h136l202 -313h9l-4 308l116 8z" />
    <glyph glyph-name="Ncommaaccent" unicode="&#x145;" horiz-adv-x="695" 
d="M610 199l5 -199h-146l-263 436h-8l-1 -214l4 -222h-123l7 190l-6 454h145l263 -436h9l-3 430l125 8zM420 -117c0 -26.667 -8.83301 -52.666 -26.5 -77.999s-44.834 -51 -81.501 -77l-38 34l-1 9c32.667 28 49 57.333 49 88c0 20.667 -9.66699 38.667 -29 54l1 10
c26.667 16 55.334 28.333 86.001 37c26.667 -20.667 40 -46.334 40 -77.001z" />
    <glyph glyph-name="ncommaaccent" unicode="&#x146;" horiz-adv-x="604" 
d="M525 160l5 -160h-137l-202 313h-7l-1 -136l4 -177h-114l5 148l-5 357h136l202 -313h9l-4 308l116 8zM375 -117c0 -26.667 -8.83301 -52.666 -26.5 -77.999s-44.834 -51 -81.501 -77l-38 34l-1 9c32.667 28 49 57.333 49 88c0 20.667 -9.66699 38.667 -29 54l1 10
c26.667 16 55.334 28.333 86.001 37c26.667 -20.667 40 -46.334 40 -77.001z" />
    <glyph glyph-name="Ncaron" unicode="&#x147;" horiz-adv-x="695" 
d="M610 199l5 -199h-146l-263 436h-8l-1 -214l4 -222h-123l7 190l-6 454h145l263 -436h9l-3 430l125 8zM494 822c-46 -31.333 -90.332 -66 -132.999 -104h-27c-46.667 40 -91.334 74.667 -134.001 104l24 53h13l26 -15l84 -48c25.333 15.333 62 36.333 110 63h13z" />
    <glyph glyph-name="ncaron" unicode="&#x148;" horiz-adv-x="604" 
d="M456 705c-38 -34.667 -85 -81.667 -141 -141h-29c-52 57.333 -98.667 104.333 -140 141l33 51h13c44 -34.667 80.333 -65.334 109 -92.001c26 24.667 62 55.334 108 92.001h13zM525 160l5 -160h-137l-202 313h-7l-1 -136l4 -177h-114l5 148l-5 357h136l202 -313h9l-4 308
l116 8z" />
    <glyph glyph-name="Eng" unicode="&#x14a;" horiz-adv-x="695" 
d="M610 199l2.99805 -143.001c0 -37.333 -6.16699 -69.333 -18.5 -96s-32.666 -50.5 -60.999 -71.5s-67.166 -40.833 -116.499 -59.5l-41 72v13c27.333 14 49 27.833 65 41.5s28 28.834 36 45.501l-270 435h-9l-1 -214l5 -222h-124l7 190l-6 454h146l262 -427h9l-4 421
l126 8z" />
    <glyph glyph-name="eng" unicode="&#x14b;" horiz-adv-x="604" 
d="M525 160l2.99902 -119c0 -42.667 -10.167 -77.167 -30.5 -103.5s-56.833 -50.5 -109.5 -72.5l-41 53v11c16.667 10 29.834 20.333 39.501 31s16.167 22.667 19.5 36l-215 317h-8v-136l4 -177h-114l6 148l-6 357h136l202 -299h9l-4 294l116 8z" />
    <glyph glyph-name="Omacron" unicode="&#x14c;" horiz-adv-x="643" 
d="M542.5 570.5c49 -55 73.499 -133.167 73.499 -234.5c0 -110.667 -26.667 -196 -80 -256s-128.666 -90 -225.999 -90c-90 0 -159.5 28.167 -208.5 84.5s-73.5 136.166 -73.5 239.499c0 108.667 26.5 192.334 79.5 251.001s128.167 88 225.5 88
c90.667 0 160.5 -27.5 209.5 -82.5zM204.999 494c-24 -33.333 -36 -87.668 -36 -163.001c0 -86 11.833 -147.333 35.5 -184s62.834 -55 117.501 -55c53.333 0 92 16.833 116 50.5s36 88.834 36 165.501c0 84.667 -11.833 145.167 -35.5 181.5s-62.834 54.5 -117.501 54.5
c-53.333 0 -92 -16.667 -116 -50zM468.999 829.998l-6 -74h-280l-9 9l6 74h280z" />
    <glyph glyph-name="omacron" unicode="&#x14d;" horiz-adv-x="560" 
d="M429 691l-6 -74h-280l-9 9l6 74h280zM466 448c41.333 -43.333 61.999 -104.666 61.999 -183.999c0 -86.667 -22.5 -153.834 -67.5 -201.501s-108.5 -71.5 -190.5 -71.5c-75.333 0 -133.666 22.167 -174.999 66.5s-62 106.833 -62 187.5c0 85.333 22.333 151.333 67 198
s108 70 190 70c76 0 134.667 -21.667 176 -65zM190.499 377.5c-17.667 -22.333 -26.5 -60.833 -26.5 -115.5c0 -44 3.83301 -78.5 11.5 -103.5s20 -42.833 37 -53.5s39.833 -16 68.5 -16c42 0 71.833 11 89.5 33s26.5 60.667 26.5 116c0 44 -4 78.5 -12 103.5
s-20.333 42.833 -37 53.5s-39.667 16 -69 16c-41.333 0 -70.833 -11.167 -88.5 -33.5z" />
    <glyph glyph-name="Obreve" unicode="&#x14e;" horiz-adv-x="643" 
d="M542.5 570.5c49 -55 73.499 -133.167 73.499 -234.5c0 -110.667 -26.667 -196 -80 -256s-128.666 -90 -225.999 -90c-90 0 -159.5 28.167 -208.5 84.5s-73.5 136.166 -73.5 239.499c0 108.667 26.5 192.334 79.5 251.001s128.167 88 225.5 88
c90.667 0 160.5 -27.5 209.5 -82.5zM204.999 494c-24 -33.333 -36 -87.668 -36 -163.001c0 -86 11.833 -147.333 35.5 -184s62.834 -55 117.501 -55c53.333 0 92 16.833 116 50.5s36 88.834 36 165.501c0 84.667 -11.833 145.167 -35.5 181.5s-62.834 54.5 -117.501 54.5
c-53.333 0 -92 -16.667 -116 -50zM471.999 825.998c-12 -34 -31.001 -60 -57.001 -78s-57.667 -27 -95 -27c-36 0 -66.833 9 -92.5 27s-44.167 44 -55.5 78l31 43h19c8.66699 -17.333 21.834 -31 39.501 -41s38.5 -15 62.5 -15c23.333 0 43.5 4.83301 60.5 14.5
s29.833 23.5 38.5 41.5h19z" />
    <glyph glyph-name="obreve" unicode="&#x14f;" horiz-adv-x="560" 
d="M433 695c-10 -38 -27.834 -68.333 -53.501 -91s-59.167 -34 -100.5 -34c-40 0 -72.167 11.667 -96.5 35s-41.166 53.333 -50.499 90l33 45h18c8.66699 -24.667 21.5 -43.5 38.5 -56.5s37.5 -19.5 61.5 -19.5s44.5 6.5 61.5 19.5s29.5 31.833 37.5 56.5h18zM465.999 448
c41.333 -43.333 61.999 -104.666 61.999 -183.999c0 -86.667 -22.5 -153.834 -67.5 -201.501s-108.5 -71.5 -190.5 -71.5c-75.333 0 -133.666 22.167 -174.999 66.5s-62 106.833 -62 187.5c0 85.333 22.333 151.333 67 198s108 70 190 70c76 0 134.667 -21.667 176 -65z
M190.498 377.5c-17.667 -22.333 -26.5 -60.833 -26.5 -115.5c0 -44 3.83301 -78.5 11.5 -103.5s20 -42.833 37 -53.5s39.833 -16 68.5 -16c42 0 71.833 11 89.5 33s26.5 60.667 26.5 116c0 44 -4 78.5 -12 103.5s-20.333 42.833 -37 53.5s-39.667 16 -69 16
c-41.333 0 -70.833 -11.167 -88.5 -33.5z" />
    <glyph glyph-name="Ohungarumlaut" unicode="&#x150;" horiz-adv-x="643" 
d="M542.5 570.5c49 -55 73.499 -133.167 73.499 -234.5c0 -110.667 -26.667 -196 -80 -256s-128.666 -90 -225.999 -90c-90 0 -159.5 28.167 -208.5 84.5s-73.5 136.166 -73.5 239.499c0 108.667 26.5 192.334 79.5 251.001s128.167 88 225.5 88
c90.667 0 160.5 -27.5 209.5 -82.5zM204.999 494c-24 -33.333 -36 -87.668 -36 -163.001c0 -86 11.833 -147.333 35.5 -184s62.834 -55 117.501 -55c53.333 0 92 16.833 116 50.5s36 88.834 36 165.501c0 84.667 -11.833 145.167 -35.5 181.5s-62.834 54.5 -117.501 54.5
c-53.333 0 -92 -16.667 -116 -50zM203.999 768.998l89 114.001l11 2l60 -40l2 -11c-36.667 -36.667 -78 -75.334 -124 -116.001l-12 -3l-42 34zM355.999 764.999c41.333 52 71.667 91.333 91 118l11 2l62 -40l1 -11c-40 -39.333 -81.667 -78 -125 -116l-11 -3l-42 34z" />
    <glyph glyph-name="ohungarumlaut" unicode="&#x151;" horiz-adv-x="560" 
d="M256 766l10 2l61 -44l1 -10c-36.667 -41.333 -84.667 -91.666 -144 -150.999l-12 -3l-41 34c46 59.333 87.667 116.666 125 171.999zM408 766l11 1.99902l61 -44l1 -10c-36.667 -41.333 -84.667 -91.666 -144 -150.999l-12 -3l-41 34c48.667 64.667 90 122 124 172z
M466 447.999c41.333 -43.333 61.999 -104.666 61.999 -183.999c0 -86.667 -22.5 -153.834 -67.5 -201.501s-108.5 -71.5 -190.5 -71.5c-75.333 0 -133.666 22.167 -174.999 66.5s-62 106.833 -62 187.5c0 85.333 22.333 151.333 67 198s108 70 190 70
c76 0 134.667 -21.667 176 -65zM190.499 377.499c-17.667 -22.333 -26.5 -60.833 -26.5 -115.5c0 -44 3.83301 -78.5 11.5 -103.5s20 -42.833 37 -53.5s39.833 -16 68.5 -16c42 0 71.833 11 89.5 33s26.5 60.667 26.5 116c0 44 -4 78.5 -12 103.5s-20.333 42.833 -37 53.5
s-39.667 16 -69 16c-41.333 0 -70.833 -11.167 -88.5 -33.5z" />
    <glyph glyph-name="OE" unicode="&#x152;" horiz-adv-x="869" 
d="M454 650c37.333 -4 64.667 -5.99902 82 -5.99902h309l8 -11l-10 -101l-150 5h-121l-1 -156l107 -2l109 3l8 -10l-10 -101l-116 3l-101 -1v-71l1 -94l112 -2l161 6l8 -11l-9 -101h-305c-24.667 0.666992 -58.667 -1.33301 -102 -6c-44 -4 -78 -6 -102 -6
c-96.667 0 -171.5 28.667 -224.5 86s-79.5 137.666 -79.5 240.999c0 108 28.5 191.833 85.5 251.5s136.5 89.5 238.5 89.5c25.333 0 59.333 -2 102 -6zM210.001 493.501c-27.333 -35 -41.0029 -91.167 -41.0029 -168.5c0 -80.667 13.833 -139.667 41.5 -177
s71.834 -56 132.501 -56c18.667 0 35.334 1.16699 50.001 3.5s25.334 5.5 32.001 9.5c7.33301 3.33301 12.5 8.33301 15.5 15s4.16699 16 3.5 28l-4 341c-0.666992 22.667 -5 37 -13 43c-6 4 -16.833 7.33301 -32.5 10s-33.5 4 -53.5 4c-60 0 -103.667 -17.5 -131 -52.5z
" />
    <glyph glyph-name="oe" unicode="&#x153;" horiz-adv-x="748" 
d="M355.5 512c17.667 -1.33301 29.499 -2.33301 35.499 -3c32 -2.66699 55 -4 69 -4h261l7 -10l-9 -93l-127 5h-97l-1 -102l87 -1l90 3l7 -9l-8 -95l-97 3h-82v-45l1 -63h91l134 4l7 -8l-9 -94h-255c-13.333 0.666992 -29 0.333984 -47 -0.999023s-30.333 -2.33301 -37 -3
c-32 -3.33301 -62 -5 -90 -5c-80.667 0 -143 22.167 -187 66.5s-66 107.166 -66 188.499c0 84.667 23.833 150.5 71.5 197.5s114.167 70.5 199.5 70.5c16.667 0 33.834 -0.666992 51.501 -2zM193.999 375.5c-20 -23.667 -30.001 -63.502 -30.001 -119.502
c0 -60 10.167 -103 30.5 -129s54.166 -39 101.499 -39c32.667 0 54.334 3.66699 65.001 11c5.33301 2.66699 9 6.83398 11 12.501s3 13.834 3 24.501l-4 227c0 20 -3 31.667 -9 35c-5.33301 4 -14.166 7.16699 -26.499 9.5s-26.5 3.5 -42.5 3.5c-46 0 -79 -11.833 -99 -35.5
z" />
    <glyph glyph-name="Racute" unicode="&#x154;" horiz-adv-x="590" 
d="M571 32l-2.00098 -15c-43.333 -15.333 -87.666 -24.333 -132.999 -27l-14 11c-48 82.667 -87 154.667 -117 216h-97v-13l6 -204h-136l7 192l-7 452l247 1c67.333 0 119.333 -16.5 156 -49.5s55 -80.167 55 -141.5c0 -41.333 -10.5 -79.166 -31.5 -113.499
s-50.5 -62.5 -88.5 -84.5c52 -82.667 103.667 -157.334 155 -224.001zM209.999 322l99 -4c56.667 19.333 85 60.333 85 123c0 34 -9.16699 59.5 -27.5 76.5s-46.5 26.167 -84.5 27.5l-68 -4zM392.999 902l48.001 -72l-2 -13c-14.667 -9.33301 -25.667 -16 -33 -20
c-83.333 -51.333 -137.333 -84 -162 -98l-13 1l-32 50c77.333 62 137.666 113 180.999 153z" />
    <glyph glyph-name="racute" unicode="&#x155;" horiz-adv-x="524" 
d="M182 561l-31.999 50c77.333 62 137.666 113 180.999 153l13 -1l48 -72l-2 -13c-14.667 -9.33301 -25.667 -16 -33 -20c-83.333 -51.333 -137.333 -84 -162 -98zM499.001 29l-1.00098 -13.998c-41.333 -12.667 -82 -20.334 -122 -23.001l-18 12
c-37.333 64.667 -66.333 117.667 -87 159h-77v-1l5 -162h-126l5 150l-5 355l218 1c56.667 0 100.5 -13.167 131.5 -39.5s46.5 -63.833 46.5 -112.5c0 -31.333 -8.33301 -60.5 -25 -87.5s-40 -49.5 -70 -67.5c44.667 -64.667 86.334 -121.334 125.001 -170.001zM196 259.002
l74.999 -4c22.667 7.33301 39.334 18 50.001 32s16 32 16 54c0 24 -7 41.833 -21 53.5s-36 18.167 -66 19.5l-51 -2z" />
    <glyph glyph-name="Rcommaaccent" unicode="&#x156;" horiz-adv-x="590" 
d="M571 32l-2.00098 -15c-43.333 -15.333 -87.666 -24.333 -132.999 -27l-14 11c-48 82.667 -87 154.667 -117 216h-97v-13l6 -204h-136l7 192l-7 452l247 1c67.333 0 119.333 -16.5 156 -49.5s55 -80.167 55 -141.5c0 -41.333 -10.5 -79.166 -31.5 -113.499
s-50.5 -62.5 -88.5 -84.5c52 -82.667 103.667 -157.334 155 -224.001zM209.999 322l99 -4c56.667 19.333 85 60.333 85 123c0 34 -9.16699 59.5 -27.5 76.5s-46.5 26.167 -84.5 27.5l-68 -4zM369.999 -117c0 -26.667 -8.83301 -52.666 -26.5 -77.999
s-44.834 -51 -81.501 -77l-38 34l-1 9c32.667 28 49 57.333 49 88c0 20.667 -9.66699 38.667 -29 54l1 10c26.667 16 55.334 28.333 86.001 37c26.667 -20.667 40 -46.334 40 -77.001z" />
    <glyph glyph-name="rcommaaccent" unicode="&#x157;" horiz-adv-x="524" 
d="M499 29l-1.00098 -13.998c-41.333 -12.667 -82 -20.334 -122 -23.001l-18 12c-37.333 64.667 -66.333 117.667 -87 159h-77v-1l5 -162h-126l5 150l-5 355l218 1c56.667 0 100.5 -13.167 131.5 -39.5s46.5 -63.833 46.5 -112.5c0 -31.333 -8.33301 -60.5 -25 -87.5
s-40 -49.5 -70 -67.5c44.667 -64.667 86.334 -121.334 125.001 -170.001zM195.999 259.002l74.999 -4c22.667 7.33301 39.334 18 50.001 32s16 32 16 54c0 24 -7 41.833 -21 53.5s-36 18.167 -66 19.5l-51 -2zM321.998 -116.998c0 -26.667 -8.83301 -52.666 -26.5 -77.999
s-44.834 -51 -81.501 -77l-38 34l-1 9c32.667 28 49 57.333 49 88c0 20.667 -9.66699 38.667 -29 54l1 10c26.667 16 55.334 28.333 86.001 37c26.667 -20.667 40 -46.334 40 -77.001z" />
    <glyph glyph-name="Rcaron" unicode="&#x158;" horiz-adv-x="590" 
d="M571 32l-2.00098 -15c-43.333 -15.333 -87.666 -24.333 -132.999 -27l-14 11c-48 82.667 -87 154.667 -117 216h-97v-13l6 -204h-136l7 192l-7 452l247 1c67.333 0 119.333 -16.5 156 -49.5s55 -80.167 55 -141.5c0 -41.333 -10.5 -79.166 -31.5 -113.499
s-50.5 -62.5 -88.5 -84.5c52 -82.667 103.667 -157.334 155 -224.001zM209.999 322l99 -4c56.667 19.333 85 60.333 85 123c0 34 -9.16699 59.5 -27.5 76.5s-46.5 26.167 -84.5 27.5l-68 -4zM442.999 822c-46 -31.333 -90.332 -66 -132.999 -104h-27
c-46.667 40 -91.334 74.667 -134.001 104l24 53h13l26 -15l84 -48c25.333 15.333 62 36.333 110 63h13z" />
    <glyph glyph-name="rcaron" unicode="&#x159;" horiz-adv-x="524" 
d="M93 705l33 51h13c44 -34.667 80.333 -65.334 109 -92.001c26 24.667 62 55.334 108 92.001h13l34 -51c-38 -34.667 -85 -81.667 -141 -141h-29c-52 57.333 -98.667 104.333 -140 141zM499 29l-1.00098 -13.998c-41.333 -12.667 -82 -20.334 -122 -23.001l-18 12
c-37.333 64.667 -66.333 117.667 -87 159h-77v-1l5 -162h-126l5 150l-5 355l218 1c56.667 0 100.5 -13.167 131.5 -39.5s46.5 -63.833 46.5 -112.5c0 -31.333 -8.33301 -60.5 -25 -87.5s-40 -49.5 -70 -67.5c44.667 -64.667 86.334 -121.334 125.001 -170.001z
M195.999 259.002l74.999 -4c22.667 7.33301 39.334 18 50.001 32s16 32 16 54c0 24 -7 41.833 -21 53.5s-36 18.167 -66 19.5l-51 -2z" />
    <glyph glyph-name="Sacute" unicode="&#x15a;" horiz-adv-x="498" 
d="M448 619l-22.001 -116.999l-20 -8c-22.667 16 -46.167 28.667 -70.5 38s-46.5 14 -66.5 14c-26.667 0 -48 -7.16699 -64 -21.5s-24 -30.833 -24 -49.5c0 -19.333 8.83301 -35.666 26.5 -48.999s45.5 -29 83.5 -47c36.667 -16.667 66.5 -32.167 89.5 -46.5
s42.667 -33.166 59 -56.499s24.5 -52 24.5 -86c0 -36.667 -10 -70.167 -30 -100.5s-48.333 -54.333 -85 -72s-79 -26.5 -127 -26.5c-63.333 0 -127 13.667 -191 41l19 126l15 8c26.667 -23.333 55.834 -41.166 87.501 -53.499s59.834 -18.5 84.501 -18.5
c29.333 0 52.166 7.16699 68.499 21.5s24.5 31.5 24.5 51.5c0 21.333 -8.83301 38.666 -26.5 51.999s-46.167 29.333 -85.5 48c-36 16 -65.333 31 -88 45s-42 32.667 -58 56s-24 51.666 -24 84.999c0 37.333 10 71.166 30 101.499s48 54.166 84 71.499s77 26 123 26
c54.667 0 109 -11 163 -33zM356.999 902.001l48.001 -72l-2 -13c-14.667 -9.33301 -25.667 -16 -33 -20c-83.333 -51.333 -137.333 -84 -162 -98l-13 1l-32 50c77.333 62 137.666 113 180.999 153z" />
    <glyph glyph-name="sacute" unicode="&#x15b;" horiz-adv-x="445" 
d="M327 763l48.001 -72l-2 -13c-14.667 -9.33301 -25.667 -16 -33 -20c-83.333 -51.333 -137.333 -84 -162 -98l-13 1l-32 50c77.333 62 137.666 113 180.999 153zM390.001 487l-18.9971 -111.999l-18 -5c-21.333 16 -42 28 -62 36s-38.333 12 -55 12
c-18.667 0 -33.334 -4.5 -44.001 -13.5s-16 -19.833 -16 -32.5c0 -14 6.66699 -25.5 20 -34.5s34.333 -19.5 63 -31.5c30 -12.667 54.5 -24.334 73.5 -35.001s35.333 -25.5 49 -44.5s20.5 -42.833 20.5 -71.5s-7.5 -55.5 -22.5 -80.5s-37.667 -45.167 -68 -60.5
s-67.833 -23 -112.5 -23c-24 0 -50.167 2.5 -78.5 7.5s-55.833 12.833 -82.5 23.5l17 118l13 9c22 -20 46.667 -36 74 -48s51.666 -18 72.999 -18c18.667 0 33.834 4.66699 45.501 14s17.5 21 17.5 35c0 14.667 -6.83301 26.5 -20.5 35.5s-34.834 19.167 -63.501 30.5
c-30 12.667 -54.5 24.5 -73.5 35.5s-35.333 26.167 -49 45.5s-20.5 43.333 -20.5 72c0 30 8.16699 57.333 24.5 82s39.666 44 69.999 58s65.833 21 106.5 21c48 0 94 -8.33301 138 -25z" />
    <glyph glyph-name="Scircumflex" unicode="&#x15c;" horiz-adv-x="498" 
d="M448 619l-22.001 -116.999l-20 -8c-22.667 16 -46.167 28.667 -70.5 38s-46.5 14 -66.5 14c-26.667 0 -48 -7.16699 -64 -21.5s-24 -30.833 -24 -49.5c0 -19.333 8.83301 -35.666 26.5 -48.999s45.5 -29 83.5 -47c36.667 -16.667 66.5 -32.167 89.5 -46.5
s42.667 -33.166 59 -56.499s24.5 -52 24.5 -86c0 -36.667 -10 -70.167 -30 -100.5s-48.333 -54.333 -85 -72s-79 -26.5 -127 -26.5c-63.333 0 -127 13.667 -191 41l19 126l15 8c26.667 -23.333 55.834 -41.166 87.501 -53.499s59.834 -18.5 84.501 -18.5
c29.333 0 52.166 7.16699 68.499 21.5s24.5 31.5 24.5 51.5c0 21.333 -8.83301 38.666 -26.5 51.999s-46.167 29.333 -85.5 48c-36 16 -65.333 31 -88 45s-42 32.667 -58 56s-24 51.666 -24 84.999c0 37.333 10 71.166 30 101.499s48 54.166 84 71.499s77 26 123 26
c54.667 0 109 -11 163 -33zM104.999 756.001c38 34.667 85 81.667 141 141h29c52 -57.333 98.667 -104.333 140 -141l-33 -51h-13c-44 34.667 -80.333 65.334 -109 92.001c-26 -24.667 -62 -55.334 -108 -92.001h-13z" />
    <glyph glyph-name="scircumflex" unicode="&#x15d;" horiz-adv-x="445" 
d="M75 617c38 34.667 85 81.667 141 141h29c52 -57.333 98.667 -104.333 140 -141l-33 -51h-13c-44 34.667 -80.333 65.334 -109 92.001c-26 -24.667 -62 -55.334 -108 -92.001h-13zM390 487l-18.9971 -111.999l-18 -5c-21.333 16 -42 28 -62 36s-38.333 12 -55 12
c-18.667 0 -33.334 -4.5 -44.001 -13.5s-16 -19.833 -16 -32.5c0 -14 6.66699 -25.5 20 -34.5s34.333 -19.5 63 -31.5c30 -12.667 54.5 -24.334 73.5 -35.001s35.333 -25.5 49 -44.5s20.5 -42.833 20.5 -71.5s-7.5 -55.5 -22.5 -80.5s-37.667 -45.167 -68 -60.5
s-67.833 -23 -112.5 -23c-24 0 -50.167 2.5 -78.5 7.5s-55.833 12.833 -82.5 23.5l17 118l13 9c22 -20 46.667 -36 74 -48s51.666 -18 72.999 -18c18.667 0 33.834 4.66699 45.501 14s17.5 21 17.5 35c0 14.667 -6.83301 26.5 -20.5 35.5s-34.834 19.167 -63.501 30.5
c-30 12.667 -54.5 24.5 -73.5 35.5s-35.333 26.167 -49 45.5s-20.5 43.333 -20.5 72c0 30 8.16699 57.333 24.5 82s39.666 44 69.999 58s65.833 21 106.5 21c48 0 94 -8.33301 138 -25z" />
    <glyph glyph-name="Scedilla" unicode="&#x15e;" horiz-adv-x="498" 
d="M448 619l-22.001 -116.999l-20 -8c-22.667 16 -46.167 28.667 -70.5 38s-46.5 14 -66.5 14c-26.667 0 -48 -7.16699 -64 -21.5s-24 -30.833 -24 -49.5c0 -19.333 8.83301 -35.666 26.5 -48.999s45.5 -29 83.5 -47c36.667 -16.667 66.5 -32.167 89.5 -46.5
s42.667 -33.166 59 -56.499s24.5 -52 24.5 -86c0 -36.667 -10 -70.167 -30 -100.5s-48.333 -54.333 -85 -72s-79 -26.5 -127 -26.5c-63.333 0 -127 13.667 -191 41l19 126l15 8c26.667 -23.333 55.834 -41.166 87.501 -53.499s59.834 -18.5 84.501 -18.5
c29.333 0 52.166 7.16699 68.499 21.5s24.5 31.5 24.5 51.5c0 21.333 -8.83301 38.666 -26.5 51.999s-46.167 29.333 -85.5 48c-36 16 -65.333 31 -88 45s-42 32.667 -58 56s-24 51.666 -24 84.999c0 37.333 10 71.166 30 101.499s48 54.166 84 71.499s77 26 123 26
c54.667 0 109 -11 163 -33zM260.999 -47.999l34 -19c14.667 -8 25.167 -16.833 31.5 -26.5s9.5 -20.5 9.5 -32.5c0 -22 -8.66699 -40 -26 -54s-40 -21 -68 -21c-30 0 -57.333 9.33301 -82 28l9 56l6 3c20 -20 39.667 -30 59 -30c16 0 24 7 24 21
c0 4.66699 -1.33301 8.5 -4 11.5s-7 5.83301 -13 8.5l-49 28l23 101h64z" />
    <glyph glyph-name="scedilla" unicode="&#x15f;" horiz-adv-x="445" 
d="M359 47.5c-28.667 -31 -70.3301 -49.166 -124.997 -54.499l-10 -41l34 -19c14.667 -8 25.167 -16.833 31.5 -26.5s9.5 -20.5 9.5 -32.5c0 -22 -8.66699 -40 -26 -54s-40 -21 -68 -21c-30 0 -57.333 9.33301 -82 28l9 56l6 3c20 -20 39.667 -30 59 -30c16 0 24 7 24 21
c0 4.66699 -1.33301 8.5 -4 11.5s-7 5.83301 -13 8.5l-49 28l15 67c-46.667 3.33301 -90.667 13.333 -132 30l17 118l13 9c22 -20 46.667 -36 74 -48s51.666 -18 72.999 -18c18.667 0 33.834 4.66699 45.501 14s17.5 21 17.5 35c0 14.667 -6.83301 26.5 -20.5 35.5
s-34.834 19.167 -63.501 30.5c-30 12.667 -54.5 24.5 -73.5 35.5s-35.333 26.167 -49 45.5s-20.5 43.333 -20.5 72c0 30 8.16699 57.333 24.5 82s39.666 44 69.999 58s65.833 21 106.5 21c48 0 94 -8.33301 138 -25l-19 -112l-18 -5c-21.333 16 -42 28 -62 36
s-38.333 12 -55 12c-18.667 0 -33.334 -4.5 -44.001 -13.5s-16 -19.833 -16 -32.5c0 -14 6.66699 -25.5 20 -34.5s34.333 -19.5 63 -31.5c30 -12.667 54.5 -24.334 73.5 -35.001s35.333 -25.5 49 -44.5s20.5 -42.833 20.5 -71.5c0 -40.667 -14.333 -76.5 -43 -107.5z" />
    <glyph glyph-name="Scaron" unicode="&#x160;" horiz-adv-x="498" 
d="M448 619l-22.001 -116.999l-20 -8c-22.667 16 -46.167 28.667 -70.5 38s-46.5 14 -66.5 14c-26.667 0 -48 -7.16699 -64 -21.5s-24 -30.833 -24 -49.5c0 -19.333 8.83301 -35.666 26.5 -48.999s45.5 -29 83.5 -47c36.667 -16.667 66.5 -32.167 89.5 -46.5
s42.667 -33.166 59 -56.499s24.5 -52 24.5 -86c0 -36.667 -10 -70.167 -30 -100.5s-48.333 -54.333 -85 -72s-79 -26.5 -127 -26.5c-63.333 0 -127 13.667 -191 41l19 126l15 8c26.667 -23.333 55.834 -41.166 87.501 -53.499s59.834 -18.5 84.501 -18.5
c29.333 0 52.166 7.16699 68.499 21.5s24.5 31.5 24.5 51.5c0 21.333 -8.83301 38.666 -26.5 51.999s-46.167 29.333 -85.5 48c-36 16 -65.333 31 -88 45s-42 32.667 -58 56s-24 51.666 -24 84.999c0 37.333 10 71.166 30 101.499s48 54.166 84 71.499s77 26 123 26
c54.667 0 109 -11 163 -33zM406.999 822.001c-46 -31.333 -90.332 -66 -132.999 -104h-27c-46.667 40 -91.334 74.667 -134.001 104l24 53h13l26 -15l84 -48c25.333 15.333 62 36.333 110 63h13z" />
    <glyph glyph-name="scaron" unicode="&#x161;" horiz-adv-x="445" 
d="M386 705c-38 -34.667 -85 -81.667 -141 -141h-29c-52 57.333 -98.667 104.333 -140 141l33 51h13c44 -34.667 80.333 -65.334 109 -92.001c26 24.667 62 55.334 108 92.001h13zM390 487l-18.9971 -111.999l-18 -5c-21.333 16 -42 28 -62 36s-38.333 12 -55 12
c-18.667 0 -33.334 -4.5 -44.001 -13.5s-16 -19.833 -16 -32.5c0 -14 6.66699 -25.5 20 -34.5s34.333 -19.5 63 -31.5c30 -12.667 54.5 -24.334 73.5 -35.001s35.333 -25.5 49 -44.5s20.5 -42.833 20.5 -71.5s-7.5 -55.5 -22.5 -80.5s-37.667 -45.167 -68 -60.5
s-67.833 -23 -112.5 -23c-24 0 -50.167 2.5 -78.5 7.5s-55.833 12.833 -82.5 23.5l17 118l13 9c22 -20 46.667 -36 74 -48s51.666 -18 72.999 -18c18.667 0 33.834 4.66699 45.501 14s17.5 21 17.5 35c0 14.667 -6.83301 26.5 -20.5 35.5s-34.834 19.167 -63.501 30.5
c-30 12.667 -54.5 24.5 -73.5 35.5s-35.333 26.167 -49 45.5s-20.5 43.333 -20.5 72c0 30 8.16699 57.333 24.5 82s39.666 44 69.999 58s65.833 21 106.5 21c48 0 94 -8.33301 138 -25z" />
    <glyph glyph-name="uni0162" unicode="&#x162;" horiz-adv-x="503" 
d="M489 633l-7.99902 -101.001l-121 6h-40l-5 -334l6 -204h-39l-12 -47l34 -20c14.667 -8 25.167 -16.833 31.5 -26.5s9.5 -20.5 9.5 -32.5c0 -22 -8.66699 -40 -26 -54s-40.333 -21 -69 -21s-56 9.33301 -82 28l10 57l6 2c21.333 -20 40.666 -30 57.999 -30
c7.33301 0 13.333 1.83301 18 5.5s7 8.83398 7 15.501c0 4.66699 -1.33301 8.5 -4 11.5s-7 5.83301 -13 8.5l-49 28l17 75h-33l7 192l-5 346h-40l-123 -6l-9 11l9 101h457z" />
    <glyph glyph-name="uni0163" unicode="&#x163;" horiz-adv-x="446" 
d="M282 406l-3.99902 -244.001l5 -162h-31l-11 -48l34 -19c14.667 -8.66699 25 -17.667 31 -27s9 -20 9 -32c0 -21.333 -8.5 -39 -25.5 -53s-39.167 -21 -66.5 -21c-29.333 0 -56.333 9.33301 -81 28l9 55l7 2c20 -20 39 -30 57 -30c7.33301 0 13.166 1.83301 17.499 5.5
s6.5 8.83398 6.5 15.501c0 5.33301 -1.33301 9.5 -4 12.5s-6.66699 6.16699 -12 9.5l-48 28l16 74h-33l5 150l-3 256h-29l-103 -7l-9 10l8 96h386l7 -10l-7 -96l-103 7h-28z" />
    <glyph glyph-name="Tcaron" unicode="&#x164;" horiz-adv-x="503" 
d="M489 633l-8 -101l-121 6h-40l-5 -334l6 -204h-136l7 192l-5 346h-40l-123 -6l-9 11l9 101h457zM401 822c-46 -31.333 -90.332 -66 -132.999 -104h-27c-46.667 40 -91.334 74.667 -134.001 104l24 53h13l26 -15l84 -48c25.333 15.333 62 36.333 110 63h13z" />
    <glyph glyph-name="tcaron" unicode="&#x165;" horiz-adv-x="446" 
d="M69 705l33 51h13c44 -34.667 80.333 -65.334 109 -92.001c26 24.667 62 55.334 108 92.001h13l34 -51c-38 -34.667 -85 -81.667 -141 -141h-29c-52 57.333 -98.667 104.333 -140 141zM423 495l-7 -96l-102 7h-29l-3 -244l4 -162h-125l5 150l-2 256h-29l-104 -7l-8 10
l7 96h386z" />
    <glyph glyph-name="Tbar" unicode="&#x166;" horiz-adv-x="503" 
d="M320 538l-3 -197h98l9 -9l-5 -65h-103l-1 -63l6 -204h-136l7 192l-1 75h-89l-9 9l6 65h91l-3 197h-40l-123 -6l-9 11l9 101h457l8 -11l-8 -101l-121 6h-40z" />
    <glyph glyph-name="tbar" unicode="&#x167;" horiz-adv-x="446" 
d="M285 406l-2 -151h85l9 -9l-5 -65h-90v-19l4 -162h-125l5 150v31h-83l-8 9l5 65h85l-1 151h-29l-104 -7l-8 10l7 96h386l7 -10l-7 -96l-102 7h-29z" />
    <glyph glyph-name="Umacron" unicode="&#x16a;" horiz-adv-x="638" 
d="M573 317l-0.999023 -85c0.666992 -76.667 -21.666 -136 -66.999 -178s-110.333 -63 -195 -63c-81.333 0 -143.333 20.333 -186 61s-63 99 -61 175l1 93l-3 324h136l-7 -399c-0.666992 -48.667 9.66602 -84.667 30.999 -108s53.666 -35 96.999 -35
c86.667 0 129.667 45.333 129 136l-7 406h138zM468.001 830l-6 -74h-280l-9 9l6 74h280z" />
    <glyph glyph-name="umacron" unicode="&#x16b;" horiz-adv-x="557" 
d="M427 691l-6 -74h-280l-9 9l6 74h280zM494 248l-0.999023 -77c0.666992 -57.333 -18.166 -101.5 -56.499 -132.5s-93.166 -46.5 -164.499 -46.5c-69.333 0 -122.333 15.5 -159 46.5s-54 75.167 -52 132.5l1 79l-3 255h126l-6 -316
c-0.666992 -32.667 7.16602 -56.667 23.499 -72s41.166 -23 74.499 -23c34 0 59.167 7.83301 75.5 23.5s24.166 39.5 23.499 71.5l-5 316h127z" />
    <glyph glyph-name="Ubreve" unicode="&#x16c;" horiz-adv-x="638" 
d="M573 317l-0.999023 -85c0.666992 -76.667 -21.666 -136 -66.999 -178s-110.333 -63 -195 -63c-81.333 0 -143.333 20.333 -186 61s-63 99 -61 175l1 93l-3 324h136l-7 -399c-0.666992 -48.667 9.66602 -84.667 30.999 -108s53.666 -35 96.999 -35
c86.667 0 129.667 45.333 129 136l-7 406h138zM472.001 834c-10 -38 -27.834 -68.333 -53.501 -91s-59.167 -34 -100.5 -34c-40 0 -72.167 11.667 -96.5 35s-41.166 53.333 -50.499 90l33 45h18c8.66699 -24.667 21.5 -43.5 38.5 -56.5s37.5 -19.5 61.5 -19.5
s44.5 6.5 61.5 19.5s29.5 31.833 37.5 56.5h18z" />
    <glyph glyph-name="ubreve" unicode="&#x16d;" horiz-adv-x="557" 
d="M431 695c-10 -38 -27.834 -68.333 -53.501 -91s-59.167 -34 -100.5 -34c-40 0 -72.167 11.667 -96.5 35s-41.166 53.333 -50.499 90l33 45h18c8.66699 -24.667 21.5 -43.5 38.5 -56.5s37.5 -19.5 61.5 -19.5s44.5 6.5 61.5 19.5s29.5 31.833 37.5 56.5h18zM493.999 248
l-0.999023 -77c0.666992 -57.333 -18.166 -101.5 -56.499 -132.5s-93.166 -46.5 -164.499 -46.5c-69.333 0 -122.333 15.5 -159 46.5s-54 75.167 -52 132.5l1 79l-3 255h126l-6 -316c-0.666992 -32.667 7.16602 -56.667 23.499 -72s41.166 -23 74.499 -23
c34 0 59.167 7.83301 75.5 23.5s24.166 39.5 23.499 71.5l-5 316h127z" />
    <glyph glyph-name="Uring" unicode="&#x16e;" horiz-adv-x="638" 
d="M573 317l-0.999023 -85c0.666992 -76.667 -21.666 -136 -66.999 -178s-110.333 -63 -195 -63c-81.333 0 -143.333 20.333 -186 61s-63 99 -61 175l1 93l-3 324h136l-7 -399c-0.666992 -48.667 9.66602 -84.667 30.999 -108s53.666 -35 96.999 -35
c86.667 0 129.667 45.333 129 136l-7 406h138zM392.001 879c16 -16 24 -38.333 24 -67c0 -31.333 -8.83301 -55.5 -26.5 -72.5s-41.834 -25.5 -72.501 -25.5c-29.333 0 -52.166 8 -68.499 24s-24.5 39.333 -24.5 70c0 30 8.5 53.333 25.5 70s41.167 25 72.5 25
c30.667 0 54 -8 70 -24zM279.001 809c0 -26.667 13.667 -40 41 -40s41 12.667 41 38c0 26 -14 39 -42 39c-26.667 0 -40 -12.333 -40 -37z" />
    <glyph glyph-name="uring" unicode="&#x16f;" horiz-adv-x="557" 
d="M351 740c16 -16 24 -38.333 24 -67c0 -31.333 -8.83301 -55.5 -26.5 -72.5s-41.834 -25.5 -72.501 -25.5c-29.333 0 -52.166 8 -68.499 24s-24.5 39.333 -24.5 70c0 30 8.5 53.333 25.5 70s41.167 25 72.5 25c30.667 0 54 -8 70 -24zM238 670
c0 -26.667 13.667 -40 41 -40s41 12.667 41 38c0 26 -14 39 -42 39c-26.667 0 -40 -12.333 -40 -37zM494 248l-0.999023 -77c0.666992 -57.333 -18.166 -101.5 -56.499 -132.5s-93.166 -46.5 -164.499 -46.5c-69.333 0 -122.333 15.5 -159 46.5s-54 75.167 -52 132.5l1 79
l-3 255h126l-6 -316c-0.666992 -32.667 7.16602 -56.667 23.499 -72s41.166 -23 74.499 -23c34 0 59.167 7.83301 75.5 23.5s24.166 39.5 23.499 71.5l-5 316h127z" />
    <glyph glyph-name="Uhungarumlaut" unicode="&#x170;" horiz-adv-x="638" 
d="M573 317l-0.999023 -85c0.666992 -76.667 -21.666 -136 -66.999 -178s-110.333 -63 -195 -63c-81.333 0 -143.333 20.333 -186 61s-63 99 -61 175l1 93l-3 324h136l-7 -399c-0.666992 -48.667 9.66602 -84.667 30.999 -108s53.666 -35 96.999 -35
c86.667 0 129.667 45.333 129 136l-7 406h138zM203.001 769l89 114.001l11 2l60 -40l2 -11c-36.667 -36.667 -78 -75.334 -124 -116.001l-12 -3l-42 34zM355.001 765.001c41.333 52 71.667 91.333 91 118l11 2l62 -40l1 -11c-40 -39.333 -81.667 -78 -125 -116l-11 -3
l-42 34z" />
    <glyph glyph-name="uhungarumlaut" unicode="&#x171;" horiz-adv-x="557" 
d="M254 766l10 2l61 -44l1 -10c-36.667 -41.333 -84.667 -91.666 -144 -150.999l-12 -3l-41 34c46 59.333 87.667 116.666 125 171.999zM406 766l11 1.99902l61 -44l1 -10c-36.667 -41.333 -84.667 -91.666 -144 -150.999l-12 -3l-41 34c48.667 64.667 90 122 124 172z
M494 247.999l-0.999023 -77c0.666992 -57.333 -18.166 -101.5 -56.499 -132.5s-93.166 -46.5 -164.499 -46.5c-69.333 0 -122.333 15.5 -159 46.5s-54 75.167 -52 132.5l1 79l-3 255h126l-6 -316c-0.666992 -32.667 7.16602 -56.667 23.499 -72s41.166 -23 74.499 -23
c34 0 59.167 7.83301 75.5 23.5s24.166 39.5 23.499 71.5l-5 316h127z" />
    <glyph glyph-name="Uogonek" unicode="&#x172;" horiz-adv-x="638" 
d="M573 317l-0.999023 -85c0.666992 -76.667 -21.666 -136 -66.999 -178s-110.333 -63 -195 -63c-81.333 0 -143.333 20.333 -186 61s-63 99 -61 175l1 93l-3 324h136l-7 -399c-0.666992 -48.667 9.66602 -84.667 30.999 -108s53.666 -35 96.999 -35
c86.667 0 129.667 45.333 129 136l-7 406h138zM323.001 -169c-18.667 15.333 -28.001 36 -28.001 62c0 22 8.16699 43.833 24.5 65.5s47.5 49.167 93.5 82.5h72c-44.667 -44.667 -73.5 -75.167 -86.5 -91.5s-19.5 -29.5 -19.5 -39.5c0 -16.667 9.66699 -25 29 -25
c20.667 0 45 10 73 30l7 -2l16 -62c-35.333 -28.667 -70.666 -43 -105.999 -43c-31.333 0 -56.333 7.66699 -75 23z" />
    <glyph glyph-name="uogonek" unicode="&#x173;" horiz-adv-x="557" 
d="M494 248l-0.999023 -77c0.666992 -36.667 -7 -68.167 -23 -94.5s-39.667 -46.5 -71 -60.5c-33.333 -34.667 -55.166 -58.667 -65.499 -72s-15.5 -24.666 -15.5 -33.999c0 -16.667 9.66699 -25 29 -25c20.667 0 45 10 73 30l7 -2l16 -62
c-35.333 -28.667 -70.666 -43 -105.999 -43c-31.333 0 -56.333 7.66699 -75 23s-28 36 -28 62c0 16 4 31.667 12 47s23 32.666 45 51.999h-19c-69.333 0 -122.333 15.5 -159 46.5s-54 75.167 -52 132.5l1 79l-3 255h126l-6 -316
c-0.666992 -32.667 7.16602 -56.667 23.499 -72s41.166 -23 74.499 -23c34 0 59.167 7.83301 75.5 23.5s24.166 39.5 23.499 71.5l-5 316h127z" />
    <glyph glyph-name="Wcircumflex" unicode="&#x174;" horiz-adv-x="903" 
d="M686 0h-142l-96 308h-9l-97 -308h-143l-180 644h133l10 -79l114 -425h9l109 347l-46 157h138l15 -93l116 -411h9l130 416l16 88h126zM299 781c46 31.333 90.332 66 132.999 104h27c46.667 -40 91.334 -74.667 134.001 -104l-24 -53h-13l-26 15l-84 48
c-25.333 -15.333 -62 -36.333 -110 -63h-13z" />
    <glyph glyph-name="wcircumflex" unicode="&#x175;" horiz-adv-x="774" 
d="M214 617c38 34.667 85 81.667 141 141h29c52 -57.333 98.667 -104.333 140 -141l-33 -51h-13c-44 34.667 -80.333 65.334 -109 92.001c-26 -24.667 -62 -55.334 -108 -92.001h-13zM592 0h-136l-71 216h-8l-72 -216h-135l-143 505h126l8 -70l82 -304h8l82 254l-33 120h130
l11 -82l85 -292h8l95 297l14 77h119z" />
    <glyph glyph-name="Ycircumflex" unicode="&#x176;" horiz-adv-x="558" 
d="M333 179l6 -179h-135l6 179l-1 38l-205 427h144l14 -45l109 -245h9l122 241l19 49h139l-225 -422zM130 781c46 31.333 90.332 66 132.999 104h27c46.667 -40 91.334 -74.667 134.001 -104l-24 -53h-13l-26 15l-84 48c-25.333 -15.333 -62 -36.333 -110 -63h-13z" />
    <glyph glyph-name="ycircumflex" unicode="&#x177;" horiz-adv-x="497" 
d="M133 566l-34 51c38 34.667 85 81.667 141 141h29c52 -57.333 98.667 -104.333 140 -141l-33 -51h-13c-44 34.667 -80.333 65.334 -109 92.001c-26 -24.667 -62 -55.334 -108 -92.001h-13zM299 137l5 -137h-126l6 137l-1 25l-171 343h134l11 -37l85 -177h7l94 172l16 42
h130l-189 -340z" />
    <glyph glyph-name="Ydieresis" unicode="&#x178;" horiz-adv-x="558" 
d="M333 179l6 -179h-135l6 179l-1 38l-205 427h144l14 -45l109 -245h9l122 241l19 49h139l-225 -422zM237 845c10.667 -10.667 15.998 -25.667 15.998 -45c0 -20.667 -5.83301 -37 -17.5 -49s-27.5 -18 -47.5 -18c-19.333 0 -34.333 5.33301 -45 16s-16 26 -16 46
s5.83301 36 17.5 48s27.834 18 48.501 18c18.667 0 33.334 -5.33301 44.001 -16zM409.998 845c10.667 -10.667 15.999 -25.667 15.999 -45c0 -20.667 -5.83301 -37 -17.5 -49s-27.167 -18 -46.5 -18s-34.333 5.33301 -45 16s-16 26 -16 46s5.83301 36 17.5 48
s27.5 18 47.5 18c18.667 0 33.334 -5.33301 44.001 -16z" />
    <glyph glyph-name="Zacute" unicode="&#x179;" horiz-adv-x="547" 
d="M510 546l-320 -443h216l109 9l5 -8l-11 -107l-145 3h-257l-77 -4v97l323 447h-204l-109 -9l-6 7l10 107l404 -1l62 1v-99zM386 886l34 -79l-4 -12c-64.667 -25.333 -136.667 -51.333 -216 -78l-12 4l-22 55c82 41.333 151 79 207 113z" />
    <glyph glyph-name="zacute" unicode="&#x17a;" horiz-adv-x="483" 
d="M339 763l48.001 -72l-2 -13c-14.667 -9.33301 -25.667 -16 -33 -20c-83.333 -51.333 -137.333 -84 -162 -98l-13 1l-32 50c77.333 62 137.666 113 180.999 153zM442.001 414l-257 -319h166l95 8l5 -6l-10 -100l-130 3h-207l-68 -3v89l259 323h-161l-92 -9l-5 7l10 100
l111 -2h229l55 1v-92z" />
    <glyph glyph-name="Zdotaccent" unicode="&#x17b;" horiz-adv-x="547" 
d="M510 546l-320 -443h216l109 9l5 -8l-11 -107l-145 3h-257l-77 -4v97l323 447h-204l-109 -9l-6 7l10 107l404 -1l62 1v-99zM325.5 854c11.667 -12 17.499 -28.667 17.499 -50c0 -22.667 -6.33301 -40.667 -19 -54s-30 -20 -52 -20s-38.833 6 -50.5 18s-17.5 29 -17.5 51
s6.5 39.667 19.5 53s30.833 20 53.5 20c20.667 0 36.834 -6 48.501 -18z" />
    <glyph glyph-name="zdotaccent" unicode="&#x17c;" horiz-adv-x="483" 
d="M293.5 715c11.667 -12 17.499 -28.667 17.499 -50c0 -22.667 -6.33301 -40.667 -19 -54s-30 -20 -52 -20s-38.833 6 -50.5 18s-17.5 29 -17.5 51s6.5 39.667 19.5 53s30.833 20 53.5 20c20.667 0 36.834 -6 48.501 -18zM441.999 414l-257 -319h166l95 8l5 -6l-10 -100
l-130 3h-207l-68 -3v89l259 323h-161l-92 -9l-5 7l10 100l111 -2h229l55 1v-92z" />
    <glyph glyph-name="Zcaron" unicode="&#x17d;" horiz-adv-x="547" 
d="M510 546l-320 -443h216l109 9l5 -8l-11 -107l-145 3h-257l-77 -4v97l323 447h-204l-109 -9l-6 7l10 107l404 -1l62 1v-99zM421 822c-46 -31.333 -90.332 -66 -132.999 -104h-27c-46.667 40 -91.334 74.667 -134.001 104l24 53h13l26 -15l84 -48
c25.333 15.333 62 36.333 110 63h13z" />
    <glyph glyph-name="zcaron" unicode="&#x17e;" horiz-adv-x="483" 
d="M398 705c-38 -34.667 -85 -81.667 -141 -141h-29c-52 57.333 -98.667 104.333 -140 141l33 51h13c44 -34.667 80.333 -65.334 109 -92.001c26 24.667 62 55.334 108 92.001h13zM442 414l-257 -319h166l95 8l5 -6l-10 -100l-130 3h-207l-68 -3v89l259 323h-161l-92 -9
l-5 7l10 100l111 -2h229l55 1v-92z" />
    <glyph glyph-name="uni018F" unicode="&#x18f;" horiz-adv-x="630" 
d="M458.5 611.5c46.333 -26.333 81.832 -64.1689 106.499 -113.502s37 -107.666 37 -174.999s-12.167 -126 -36.5 -176s-59.166 -88.5 -104.499 -115.5s-98.333 -40.5 -159 -40.5c-52 0 -97.833 10.167 -137.5 30.5s-70.5 48.833 -92.5 85.5s-33 79.334 -33 128.001
c0 20 2.33301 45 7 75l18 21l402 2c-4.66699 136.667 -66.667 205 -186 205c-64 0 -128.667 -17.333 -194 -52l-14 10l23 112c63.333 28.667 129.333 43 198 43c64 0 119.167 -13.167 165.5 -39.5zM406.999 131.997c26.667 26.667 44.332 64.667 52.999 114l-287 -5l-2 -21
c0 -39.333 12 -70.5 36 -93.5s56 -34.5 96 -34.5c42.667 0 77.334 13.333 104.001 40z" />
    <glyph glyph-name="florin" unicode="&#x192;" horiz-adv-x="316" 
d="M407 611l-19.001 -87.999l-9 -5c-27.333 11.333 -51.666 17 -72.999 17c-22 0 -39.167 -5.66699 -51.5 -17s-20.166 -28.333 -23.499 -51l-11 -82h102l3 -8l-7 -66h-108l-18 -126l-15 -130c-5.33301 -48 -18.333 -87 -39 -117s-54.334 -59.333 -101.001 -88l-54 53l1 10
c26 19.333 45 39.166 57 59.499s20.333 46.833 25 79.5l15 122l16 137h-66l-4 7l7 67h71l8 62c6.66699 56 28.667 98.833 66 128.5s86.666 44.5 147.999 44.5c24.667 0 51.334 -3 80.001 -9z" />
    <glyph glyph-name="Ohorn" unicode="&#x1a0;" horiz-adv-x="678" 
d="M626 601c-17.333 -20 -40.3311 -34.335 -68.998 -43.002c42 -55.333 63 -129.666 63 -222.999c0 -110 -26.5 -195 -79.5 -255s-127.833 -90 -224.5 -90c-90 0 -159.667 28.167 -209 84.5s-74 135.833 -74 238.5c0 71.333 12 132.5 36 183.5s57.833 89.833 101.5 116.5
s94.5 40 152.5 40c25.333 0 47.666 -1.83301 66.999 -5.5s40.666 -8.5 63.999 -14.5c22 -6.66699 38.667 -10 50 -10c30.667 0 46 13.333 46 40c0 24.667 -12 47.334 -36 68.001l1 11c24 16.667 45 25 63 25c19.333 0 36.5 -9.5 51.5 -28.5s22.5 -41.5 22.5 -67.5
c0 -26.667 -8.66699 -50 -26 -70zM443.002 142.498c24 33.667 35.999 88.833 35.999 165.5c0 57.333 -5.16699 103.166 -15.5 137.499s-26.666 59.333 -48.999 75s-51.833 23.5 -88.5 23.5c-53.333 0 -92 -16.667 -116 -50s-36 -87.666 -36 -162.999
c0 -86 12 -147.333 36 -184s63 -55 117 -55c53.333 0 92 16.833 116 50.5z" />
    <glyph glyph-name="ohorn" unicode="&#x1a1;" horiz-adv-x="593" 
d="M542.5 470.5c-15 -17 -34.834 -29.5 -59.501 -37.5c33.333 -42.667 50 -99 50 -169c0 -86.667 -22.5 -153.667 -67.5 -201s-108.5 -71 -190.5 -71c-76 0 -134.667 22 -176 66s-62 106.333 -62 187c0 56 10.167 104.333 30.5 145s48.833 71.5 85.5 92.5
s79.334 31.5 128.001 31.5c33.333 0 70 -5 110 -15c20 -4.66699 34.333 -7 43 -7c24 0 36 10 36 30c0 19.333 -10 37 -30 53l1 9c22.667 16 42 24 58 24c18 0 33.5 -7.83301 46.5 -23.5s19.5 -34.5 19.5 -56.5c0 -21.333 -7.5 -40.5 -22.5 -57.5zM374.499 121
c17.667 22.667 26.501 61.667 26.501 117c0 44 -4 78.667 -12 104s-20.5 43.5 -37.5 54.5s-39.833 16.5 -68.5 16.5c-40.667 0 -69.834 -11.333 -87.501 -34s-26.5 -61.667 -26.5 -117c0 -44 3.83301 -78.667 11.5 -104s20 -43.5 37 -54.5s39.833 -16.5 68.5 -16.5
c41.333 0 70.833 11.333 88.5 34z" />
    <glyph glyph-name="Uhorn" unicode="&#x1af;" horiz-adv-x="648" 
d="M644.5 636.5c-16.333 -20.333 -38.832 -35.835 -67.499 -46.502l-4 -273l-1 -85c0.666992 -76.667 -21.666 -136 -66.999 -178s-110.333 -63 -195 -63c-81.333 0 -143.333 20.333 -186 61s-63 99 -61 175l1 93l-3 324h136l-7 -399
c-0.666992 -48.667 9.66602 -84.667 30.999 -108s53.666 -35 96.999 -35c86.667 0 129.667 45.333 129 136l-7 406h64c41.333 0 62 16.333 62 49c0 21.333 -10.667 41.333 -32 60l3 10c24 17.333 45.667 26 65 26c17.333 0 32.833 -8.16699 46.5 -24.5
s20.5 -36.166 20.5 -59.499c0 -25.333 -8.16699 -48.166 -24.5 -68.499z" />
    <glyph glyph-name="uhorn" unicode="&#x1b0;" horiz-adv-x="565" 
d="M556 499c-14 -17.333 -33.3301 -30.667 -57.9971 -40l-3 -210l-1 -73c0.666992 -59.333 -18.333 -104.833 -57 -136.5s-94 -47.5 -166 -47.5c-68.667 0 -121.334 15.833 -158.001 47.5s-54.334 76.5 -53.001 134.5l2 76l-4 256h127l-6 -315
c-0.666992 -65.333 32 -98 98 -98c33.333 0 58.166 7.66699 74.499 23s24.166 39.333 23.499 72l-6 318h61c34 0 51 12.667 51 38c0 18 -8.66699 33.667 -26 47l2 10c24 15.333 44 23 60 23c16.667 0 30.834 -6.5 42.501 -19.5s17.5 -29.167 17.5 -48.5
c0 -20.667 -7 -39.667 -21 -57z" />
    <glyph glyph-name="uni01C4" unicode="&#x1c4;" horiz-adv-x="1202" 
d="M552 570c50 -52 75 -126.667 75 -224c0 -114 -28 -201.333 -84 -262s-136 -91 -240 -91c-31.333 0 -68.833 0.666992 -112.5 2s-81.167 3 -112.5 5l7 192l-7 452l259 4c93.333 0 165 -26 215 -78zM486 315c0 78.667 -12.833 135.833 -38.5 171.5
s-65.834 53.5 -120.501 53.5c-35.333 0 -73 -1.66699 -113 -5l-6 -331l3 -99c46.667 -4.66699 85.334 -7 116.001 -7c106 0 159 72.333 159 217zM1165 545.999l-320 -443h216l109 9l5 -8l-11 -107l-145 3h-257l-77 -4v97l323 447h-204l-109 -9l-6 7l10 107l404 -1l62 1v-99z
M1076 821.999c-46 -31.333 -90.332 -66 -132.999 -104h-27c-46.667 40 -91.334 74.667 -134.001 104l24 53h13l26 -15l84 -48c25.333 15.333 62 36.333 110 63h13z" />
    <glyph glyph-name="uni01C5" unicode="&#x1c5;" horiz-adv-x="1138" 
d="M552 570c50 -52 75 -126.667 75 -224c0 -114 -28 -201.333 -84 -262s-136 -91 -240 -91c-31.333 0 -68.833 0.666992 -112.5 2s-81.167 3 -112.5 5l7 192l-7 452l259 4c93.333 0 165 -26 215 -78zM486 315c0 78.667 -12.833 135.833 -38.5 171.5
s-65.834 53.5 -120.501 53.5c-35.333 0 -73 -1.66699 -113 -5l-6 -331l3 -99c46.667 -4.66699 85.334 -7 116.001 -7c106 0 159 72.333 159 217zM1053 704.999c-38 -34.667 -85 -81.667 -141 -141h-29c-52 57.333 -98.667 104.333 -140 141l33 51h13
c44 -34.667 80.333 -65.334 109 -92.001c26 24.667 62 55.334 108 92.001h13zM1097 413.999l-257 -319h166l95 8l5 -6l-10 -100l-130 3h-207l-68 -3v89l259 323h-161l-92 -9l-5 7l10 100l111 -2h229l55 1v-92z" />
    <glyph glyph-name="uni01C6" unicode="&#x1c6;" horiz-adv-x="1053" 
d="M658 705l33 51h13c44 -34.667 80.333 -65.334 109 -92.001c26 24.667 62 55.334 108 92.001h13l34 -51c-38 -34.667 -85 -81.667 -141 -141h-29c-52 57.333 -98.667 104.333 -140 141zM474.5 447.5c41.667 -41 62.5 -99.5 62.5 -175.5c0 -89.333 -23.5 -158 -70.5 -206
s-114.5 -72 -202.5 -72c-51.333 0 -115 2 -191 6l5 150l-5 355l222 4c78 0 137.833 -20.5 179.5 -61.5zM1021 97l-10 -100l-130 3h-207l-68 -3v89l259 323h-161l-92 -9l-5 7l10 100l111 -2h229l55 1v-92l-257 -319h166l95 8zM407 242c0 59.333 -9.66699 101.833 -29 127.5
s-50.333 38.5 -93 38.5c-31.333 0 -60 -1.33301 -86 -4l-5 -242l2 -65c16 -2 32.333 -3.66699 49 -5s30.667 -2 42 -2c80 0 120 50.667 120 152z" />
    <glyph glyph-name="uni01C7" unicode="&#x1c7;" horiz-adv-x="759" 
d="M431 101l-9 -101h-348l7 192l-7 452h138l-8 -440l3 -92h216zM675 212l1.99902 -90.998c0 -38 -6.33301 -70.333 -19 -97s-33.167 -50.334 -61.5 -71.001s-67.166 -40.334 -116.499 -59.001l-41 72v12c41.333 21.333 70.5 42.5 87.5 63.5s25.5 48.167 25.5 81.5v76l-6 345
l-106 -3l-10 10l7 93h245z" />
    <glyph glyph-name="uni01C8" unicode="&#x1c8;" horiz-adv-x="739" 
d="M431 101l-9 -101h-348l7 192l-7 452h138l-8 -440l3 -92h216zM656 166l1.00098 -70c0 -45.333 -11.5 -81.666 -34.5 -108.999s-64.167 -52.333 -123.5 -75l-40 63v11c29.333 14.667 50.166 30.167 62.499 46.5s18.5 37.166 18.5 62.499v58l-4 259l-86 -2l-8 8l8 87h211z
" />
    <glyph glyph-name="uni01C9" unicode="&#x1c9;" horiz-adv-x="695" 
d="M367 103l7 -9l-8 -94h-297l6 150l-6 355h128l-7 -343l2 -59h175zM612 166l1.00098 -70c0 -45.333 -11.5 -81.666 -34.5 -108.999s-64.167 -52.333 -123.5 -75l-40 63v11c29.333 14.667 50.166 30.167 62.499 46.5s18.5 37.166 18.5 62.499v58l-4 259l-86 -2l-8 8l8 87
h211z" />
    <glyph glyph-name="uni01CA" unicode="&#x1ca;" horiz-adv-x="1030" 
d="M610 199l5 -199h-146l-263 436h-8l-1 -214l4 -222h-123l7 190l-6 454h145l263 -436h9l-3 430l125 8zM946 212l1.99902 -90.998c0 -38 -6.33301 -70.333 -19 -97s-33.167 -50.334 -61.5 -71.001s-67.166 -40.334 -116.499 -59.001l-41 72v12
c41.333 21.333 70.5 42.5 87.5 63.5s25.5 48.167 25.5 81.5v76l-6 345l-106 -3l-10 10l7 93h245z" />
    <glyph glyph-name="uni01CB" unicode="&#x1cb;" horiz-adv-x="1010" 
d="M610 199l5 -199h-146l-263 436h-8l-1 -214l4 -222h-123l7 190l-6 454h145l263 -436h9l-3 430l125 8zM927 166l1.00098 -70c0 -45.333 -11.5 -81.666 -34.5 -108.999s-64.167 -52.333 -123.5 -75l-40 63v11c29.333 14.667 50.166 30.167 62.499 46.5
s18.5 37.166 18.5 62.499v58l-4 259l-86 -2l-8 8l8 87h211z" />
    <glyph glyph-name="uni01CC" unicode="&#x1cc;" horiz-adv-x="920" 
d="M532 508l-7 -348l5 -160h-137l-202 313h-7l-1 -136l4 -177h-114l5 148l-5 357h136l202 -313h9l-4 308zM836 166l1.00098 -70c0 -45.333 -11.5 -81.666 -34.5 -108.999s-64.167 -52.333 -123.5 -75l-40 63v11c29.333 14.667 50.166 30.167 62.499 46.5
s18.5 37.166 18.5 62.499v58l-4 259l-86 -2l-8 8l8 87h211z" />
    <glyph glyph-name="uni01CD" unicode="&#x1cd;" horiz-adv-x="600" 
d="M584 0h-138l-16 84l-17 60l-126 3l-111 -3l-17 -53l-17 -91h-134l218 644h161zM384 249l-76 268h-9l-88 -268l86 -2zM448 822c-46 -31.333 -90.332 -66 -132.999 -104h-27c-46.667 40 -91.334 74.667 -134.001 104l24 53h13l26 -15l84 -48
c25.333 15.333 62 36.333 110 63h13z" />
    <glyph glyph-name="uni01CE" unicode="&#x1ce;" horiz-adv-x="529" 
d="M116 705l33 51h13c44 -34.667 80.333 -65.334 109 -92.001c26 24.667 62 55.334 108 92.001h13l34 -51c-38 -34.667 -85 -81.667 -141 -141h-29c-52 57.333 -98.667 104.333 -140 141zM504 0h-127l-14 73l-9 29l-102 1l-90 -2l-7 -21l-15 -80h-123l177 505h149zM327 197
l-57 193h-8l-67 -193l65 -1z" />
    <glyph glyph-name="uni01CF" unicode="&#x1cf;" horiz-adv-x="295" 
d="M208 204l6 -204h-136l7 192l-7 452h138zM294 822c-46 -31.333 -90.332 -66 -132.999 -104h-27c-46.667 40 -91.334 74.667 -134.001 104l24 53h13l26 -15l84 -48c25.333 15.333 62 36.333 110 63h13z" />
    <glyph glyph-name="uni01D0" unicode="&#x1d0;" horiz-adv-x="279" 
d="M297 705c-38 -34.667 -85 -81.667 -141 -141h-29c-52 57.333 -98.667 104.333 -140 141l33 51h13c44 -34.667 80.333 -65.334 109 -92.001c26 24.667 62 55.334 108 92.001h13zM194 162l5 -162h-126l5 150l-5 355h128z" />
    <glyph glyph-name="uni01D1" unicode="&#x1d1;" horiz-adv-x="643" 
d="M542.5 570.5c49 -55 73.499 -133.167 73.499 -234.5c0 -110.667 -26.667 -196 -80 -256s-128.666 -90 -225.999 -90c-90 0 -159.5 28.167 -208.5 84.5s-73.5 136.166 -73.5 239.499c0 108.667 26.5 192.334 79.5 251.001s128.167 88 225.5 88
c90.667 0 160.5 -27.5 209.5 -82.5zM204.999 494c-24 -33.333 -36 -87.668 -36 -163.001c0 -86 11.833 -147.333 35.5 -184s62.834 -55 117.501 -55c53.333 0 92 16.833 116 50.5s36 88.834 36 165.501c0 84.667 -11.833 145.167 -35.5 181.5s-62.834 54.5 -117.501 54.5
c-53.333 0 -92 -16.667 -116 -50zM468.999 821.998c-46 -31.333 -90.332 -66 -132.999 -104h-27c-46.667 40 -91.334 74.667 -134.001 104l24 53h13l26 -15l84 -48c25.333 15.333 62 36.333 110 63h13z" />
    <glyph glyph-name="uni01D2" unicode="&#x1d2;" horiz-adv-x="560" 
d="M437 705c-38 -34.667 -85 -81.667 -141 -141h-29c-52 57.333 -98.667 104.333 -140 141l33 51h13c44 -34.667 80.333 -65.334 109 -92.001c26 24.667 62 55.334 108 92.001h13zM466 448c41.333 -43.333 61.999 -104.666 61.999 -183.999
c0 -86.667 -22.5 -153.834 -67.5 -201.501s-108.5 -71.5 -190.5 -71.5c-75.333 0 -133.666 22.167 -174.999 66.5s-62 106.833 -62 187.5c0 85.333 22.333 151.333 67 198s108 70 190 70c76 0 134.667 -21.667 176 -65zM190.499 377.5
c-17.667 -22.333 -26.5 -60.833 -26.5 -115.5c0 -44 3.83301 -78.5 11.5 -103.5s20 -42.833 37 -53.5s39.833 -16 68.5 -16c42 0 71.833 11 89.5 33s26.5 60.667 26.5 116c0 44 -4 78.5 -12 103.5s-20.333 42.833 -37 53.5s-39.667 16 -69 16
c-41.333 0 -70.833 -11.167 -88.5 -33.5z" />
    <glyph glyph-name="uni01D3" unicode="&#x1d3;" horiz-adv-x="638" 
d="M573 317l-0.999023 -85c0.666992 -76.667 -21.666 -136 -66.999 -178s-110.333 -63 -195 -63c-81.333 0 -143.333 20.333 -186 61s-63 99 -61 175l1 93l-3 324h136l-7 -399c-0.666992 -48.667 9.66602 -84.667 30.999 -108s53.666 -35 96.999 -35
c86.667 0 129.667 45.333 129 136l-7 406h138zM468.001 822c-46 -31.333 -90.332 -66 -132.999 -104h-27c-46.667 40 -91.334 74.667 -134.001 104l24 53h13l26 -15l84 -48c25.333 15.333 62 36.333 110 63h13z" />
    <glyph glyph-name="uni01D4" unicode="&#x1d4;" horiz-adv-x="557" 
d="M435 705c-38 -34.667 -85 -81.667 -141 -141h-29c-52 57.333 -98.667 104.333 -140 141l33 51h13c44 -34.667 80.333 -65.334 109 -92.001c26 24.667 62 55.334 108 92.001h13zM494 248l-0.999023 -77c0.666992 -57.333 -18.166 -101.5 -56.499 -132.5
s-93.166 -46.5 -164.499 -46.5c-69.333 0 -122.333 15.5 -159 46.5s-54 75.167 -52 132.5l1 79l-3 255h126l-6 -316c-0.666992 -32.667 7.16602 -56.667 23.499 -72s41.166 -23 74.499 -23c34 0 59.167 7.83301 75.5 23.5s24.166 39.5 23.499 71.5l-5 316h127z" />
    <glyph glyph-name="uni01D5" unicode="&#x1d5;" horiz-adv-x="638" 
d="M573 317l-0.999023 -85c0.666992 -76.667 -21.666 -136 -66.999 -178s-110.333 -63 -195 -63c-81.333 0 -143.333 20.333 -186 61s-63 99 -61 175l1 93l-3 324h136l-7 -399c-0.666992 -48.667 9.66602 -84.667 30.999 -108s53.666 -35 96.999 -35
c86.667 0 129.667 45.333 129 136l-7 406h138zM463.001 971l-8 -75h-265l-9 10l6 75h266zM279.001 823.5c10 -10.333 14.999 -25.167 14.999 -44.5s-5.66699 -35 -17 -47s-26.333 -18 -45 -18c-19.333 0 -34.166 5.33301 -44.499 16s-15.5 25.667 -15.5 45
s5.83301 34.833 17.5 46.5s27.167 17.5 46.5 17.5c18.667 0 33 -5.16699 43 -15.5zM453 823.499c10 -10.333 14.999 -25.167 14.999 -44.5s-5.66699 -35 -17 -47s-26.333 -18 -45 -18c-19.333 0 -34.166 5.33301 -44.499 16s-15.5 25.667 -15.5 45s5.83301 34.833 17.5 46.5
s27.167 17.5 46.5 17.5c18.667 0 33 -5.16699 43 -15.5z" />
    <glyph glyph-name="uni01D6" unicode="&#x1d6;" horiz-adv-x="557" 
d="M422 832l-8 -75h-265l-9 10l6 75h266zM238 684.5c10 -10.333 14.999 -25.167 14.999 -44.5s-5.66699 -35 -17 -47s-26.333 -18 -45 -18c-19.333 0 -34.166 5.33301 -44.499 16s-15.5 25.667 -15.5 45s5.83301 34.833 17.5 46.5s27.167 17.5 46.5 17.5
c18.667 0 33 -5.16699 43 -15.5zM411.999 684.499c10 -10.333 14.999 -25.167 14.999 -44.5s-5.66699 -35 -17 -47s-26.333 -18 -45 -18c-19.333 0 -34.166 5.33301 -44.499 16s-15.5 25.667 -15.5 45s5.83301 34.833 17.5 46.5s27.167 17.5 46.5 17.5
c18.667 0 33 -5.16699 43 -15.5zM493.998 247.998l-0.999023 -77c0.666992 -57.333 -18.166 -101.5 -56.499 -132.5s-93.166 -46.5 -164.499 -46.5c-69.333 0 -122.333 15.5 -159 46.5s-54 75.167 -52 132.5l1 79l-3 255h126l-6 -316
c-0.666992 -32.667 7.16602 -56.667 23.499 -72s41.166 -23 74.499 -23c34 0 59.167 7.83301 75.5 23.5s24.166 39.5 23.499 71.5l-5 316h127z" />
    <glyph glyph-name="uni01D7" unicode="&#x1d7;" horiz-adv-x="638" 
d="M573 317l-0.999023 -85c0.666992 -76.667 -21.666 -136 -66.999 -178s-110.333 -63 -195 -63c-81.333 0 -143.333 20.333 -186 61s-63 99 -61 175l1 93l-3 324h136l-7 -399c-0.666992 -48.667 9.66602 -84.667 30.999 -108s53.666 -35 96.999 -35
c86.667 0 129.667 45.333 129 136l-7 406h138zM425.001 1019l20.001 -83l-7 -12c-96.667 -18 -171.334 -30.667 -224.001 -38l-12 5l-12 59c88.667 26.667 163 51.667 223 75zM279.002 823.5c10 -10.333 14.999 -25.167 14.999 -44.5s-5.66699 -35 -17 -47
s-26.333 -18 -45 -18c-19.333 0 -34.166 5.33301 -44.499 16s-15.5 25.667 -15.5 45s5.83301 34.833 17.5 46.5s27.167 17.5 46.5 17.5c18.667 0 33 -5.16699 43 -15.5zM453.001 823.499c10 -10.333 14.999 -25.167 14.999 -44.5s-5.66699 -35 -17 -47s-26.333 -18 -45 -18
c-19.333 0 -34.166 5.33301 -44.499 16s-15.5 25.667 -15.5 45s5.83301 34.833 17.5 46.5s27.167 17.5 46.5 17.5c18.667 0 33 -5.16699 43 -15.5z" />
    <glyph glyph-name="uni01D8" unicode="&#x1d8;" horiz-adv-x="557" 
d="M384 877l20 -84l-7 -11c-72 -14.667 -147 -27.667 -225 -39l-12 5l-12 60c80.667 24 155.667 48.667 225 74zM237.5 684c10.333 -10.667 15.498 -25.333 15.498 -44c0 -19.333 -5.66699 -35 -17 -47s-26.666 -18 -45.999 -18s-34.166 5.33301 -44.499 16
s-15.5 25.667 -15.5 45s5.83301 34.833 17.5 46.5s27.167 17.5 46.5 17.5c18.667 0 33.167 -5.33301 43.5 -16zM411.498 684.501c10.333 -10.333 15.5 -25.167 15.5 -44.5s-5.66699 -35 -17 -47s-26.666 -18 -45.999 -18c-18.667 0 -33.167 5.33301 -43.5 16
s-15.5 25.667 -15.5 45s5.66699 34.833 17 46.5s26.666 17.5 45.999 17.5c18.667 0 33.167 -5.16699 43.5 -15.5zM493.998 248l-0.999023 -77c0.666992 -57.333 -18.166 -101.5 -56.499 -132.5s-93.166 -46.5 -164.499 -46.5c-69.333 0 -122.333 15.5 -159 46.5
s-54 75.167 -52 132.5l1 79l-3 255h126l-6 -316c-0.666992 -32.667 7.16602 -56.667 23.499 -72s41.166 -23 74.499 -23c34 0 59.167 7.83301 75.5 23.5s24.166 39.5 23.499 71.5l-5 316h127z" />
    <glyph glyph-name="uni01D9" unicode="&#x1d9;" horiz-adv-x="638" 
d="M573 317l-0.999023 -85c0.666992 -76.667 -21.666 -136 -66.999 -178s-110.333 -63 -195 -63c-81.333 0 -143.333 20.333 -186 61s-63 99 -61 175l1 93l-3 324h136l-7 -399c-0.666992 -48.667 9.66602 -84.667 30.999 -108s53.666 -35 96.999 -35
c86.667 0 129.667 45.333 129 136l-7 406h138zM467.001 957c-45.333 -31.333 -89.666 -66.001 -132.999 -104.001h-27c-48.667 40.667 -93.334 75.334 -134.001 104.001l24 53h13l110 -63l110 63h13zM279.001 823.499c10 -10.333 14.999 -25.167 14.999 -44.5
s-5.66699 -35 -17 -47s-26.333 -18 -45 -18c-19.333 0 -34.166 5.33301 -44.499 16s-15.5 25.667 -15.5 45s5.83301 34.833 17.5 46.5s27.167 17.5 46.5 17.5c18.667 0 33 -5.16699 43 -15.5zM453 823.498c10 -10.333 14.999 -25.167 14.999 -44.5s-5.66699 -35 -17 -47
s-26.333 -18 -45 -18c-19.333 0 -34.166 5.33301 -44.499 16s-15.5 25.667 -15.5 45s5.83301 34.833 17.5 46.5s27.167 17.5 46.5 17.5c18.667 0 33 -5.16699 43 -15.5z" />
    <glyph glyph-name="uni01DA" unicode="&#x1da;" horiz-adv-x="557" 
d="M426 818c-45.333 -31.333 -89.666 -66.001 -132.999 -104.001h-27c-48.667 40.667 -93.334 75.334 -134.001 104.001l24 53h13l110 -63l110 63h13zM238 684.499c10 -10.333 14.999 -25.167 14.999 -44.5s-5.66699 -35 -17 -47s-26.333 -18 -45 -18
c-19.333 0 -34.166 5.33301 -44.499 16s-15.5 25.667 -15.5 45s5.83301 34.833 17.5 46.5s27.167 17.5 46.5 17.5c18.667 0 33 -5.16699 43 -15.5zM411.999 684.498c10 -10.333 14.999 -25.167 14.999 -44.5s-5.66699 -35 -17 -47s-26.333 -18 -45 -18
c-19.333 0 -34.166 5.33301 -44.499 16s-15.5 25.667 -15.5 45s5.83301 34.833 17.5 46.5s27.167 17.5 46.5 17.5c18.667 0 33 -5.16699 43 -15.5zM493.998 247.997l-0.999023 -77c0.666992 -57.333 -18.166 -101.5 -56.499 -132.5s-93.166 -46.5 -164.499 -46.5
c-69.333 0 -122.333 15.5 -159 46.5s-54 75.167 -52 132.5l1 79l-3 255h126l-6 -316c-0.666992 -32.667 7.16602 -56.667 23.499 -72s41.166 -23 74.499 -23c34 0 59.167 7.83301 75.5 23.5s24.166 39.5 23.499 71.5l-5 316h127z" />
    <glyph glyph-name="uni01DB" unicode="&#x1db;" horiz-adv-x="638" 
d="M573 317l-0.999023 -85c0.666992 -76.667 -21.666 -136 -66.999 -178s-110.333 -63 -195 -63c-81.333 0 -143.333 20.333 -186 61s-63 99 -61 175l1 93l-3 324h136l-7 -399c-0.666992 -48.667 9.66602 -84.667 30.999 -108s53.666 -35 96.999 -35
c86.667 0 129.667 45.333 129 136l-7 406h138zM445.001 950l-11.001 -59l-13 -5c-55.333 7.33301 -130.333 20 -225 38l-6 12l20 83l11 6c68.667 -26 143.334 -51 224.001 -75zM279 823.5c10 -10.333 14.999 -25.167 14.999 -44.5s-5.66699 -35 -17 -47s-26.333 -18 -45 -18
c-19.333 0 -34.166 5.33301 -44.499 16s-15.5 25.667 -15.5 45s5.83301 34.833 17.5 46.5s27.167 17.5 46.5 17.5c18.667 0 33 -5.16699 43 -15.5zM452.999 823.499c10 -10.333 14.999 -25.167 14.999 -44.5s-5.66699 -35 -17 -47s-26.333 -18 -45 -18
c-19.333 0 -34.166 5.33301 -44.499 16s-15.5 25.667 -15.5 45s5.83301 34.833 17.5 46.5s27.167 17.5 46.5 17.5c18.667 0 33 -5.16699 43 -15.5z" />
    <glyph glyph-name="uni01DC" unicode="&#x1dc;" horiz-adv-x="557" 
d="M155 782l-6 11.001l20 84l11 5c72 -26.667 146.667 -51.334 224 -74.001l-11 -60l-13 -5c-81.333 12 -156.333 25 -225 39zM146.5 591.001c-10.333 10.667 -15.501 25.666 -15.501 44.999s5.83301 34.833 17.5 46.5s27.167 17.5 46.5 17.5c18.667 0 33 -5.16699 43 -15.5
s15 -25.166 15 -44.499s-5.66699 -35 -17 -47s-26.333 -18 -45 -18c-19.333 0 -34.166 5.33301 -44.499 16zM320.499 591c-10.333 10.667 -15.501 25.666 -15.501 44.999s5.83301 34.833 17.5 46.5s27.167 17.5 46.5 17.5c18.667 0 33 -5.16699 43 -15.5
s15 -25.166 15 -44.499s-5.66699 -35 -17 -47s-26.333 -18 -45 -18c-19.333 0 -34.166 5.33301 -44.499 16zM493.998 247.999l-0.999023 -77c0.666992 -57.333 -18.166 -101.5 -56.499 -132.5s-93.166 -46.5 -164.499 -46.5c-69.333 0 -122.333 15.5 -159 46.5
s-54 75.167 -52 132.5l1 79l-3 255h126l-6 -316c-0.666992 -32.667 7.16602 -56.667 23.499 -72s41.166 -23 74.499 -23c34 0 59.167 7.83301 75.5 23.5s24.166 39.5 23.499 71.5l-5 316h127z" />
    <glyph glyph-name="Gcaron" unicode="&#x1e6;" horiz-adv-x="598" 
d="M553 613l-29.001 -122.002l-13 -2c-32.667 18.667 -61.834 32.167 -87.501 40.5s-53.167 12.5 -82.5 12.5c-59.333 0 -102.666 -17.667 -129.999 -53s-41 -93.333 -41 -174c0 -53.333 5.83301 -95.666 17.5 -126.999s29.834 -54.166 54.501 -68.499
s57.334 -21.5 98.001 -21.5c14 0 27.167 1 39.5 3s27.5 5.66699 45.5 11l2 55l-2 102l125 9l-3 -90l3 -157c-80 -26.667 -153.667 -40 -221 -40c-100 0 -175.167 27.333 -225.5 82s-75.5 133 -75.5 235c0 111.333 29.167 196.5 87.5 255.5s141.166 88.5 248.499 88.5
c70 0 133 -13 189 -39zM473.999 821.998c-46 -31.333 -90.332 -66 -132.999 -104h-27c-46.667 40 -91.334 74.667 -134.001 104l24 53h13l26 -15l84 -48c25.333 15.333 62 36.333 110 63h13z" />
    <glyph glyph-name="gcaron" unicode="&#x1e7;" horiz-adv-x="520" 
d="M431 705c-38 -34.667 -85 -81.667 -141 -141h-29c-52 57.333 -98.667 104.333 -140 141l33 51h13c44 -34.667 80.333 -65.334 109 -92.001c26 24.667 62 55.334 108 92.001h13zM475 484l-33.001 -113.999h-11c-26 14.667 -49.167 25 -69.5 31s-42.833 9 -67.5 9
c-46 0 -79.167 -12.167 -99.5 -36.5s-30.5 -66.5 -30.5 -126.5c0 -40 4.33301 -71.333 13 -94s22.5 -38.834 41.5 -48.501s44.833 -14.5 77.5 -14.5c20 0 41 4 63 12v32l-1 80l115 8l-2 -67v-130c-65.333 -22 -126.666 -33 -183.999 -33c-84 0 -147.333 21.5 -190 64.5
s-64 104.5 -64 184.5c0 88 24.667 155.167 74 201.5s119.333 69.5 210 69.5c56 0 108.667 -9.33301 158 -28z" />
    <glyph glyph-name="uni01EA" unicode="&#x1ea;" horiz-adv-x="643" 
d="M542.5 570.5c49 -55 73.499 -133.167 73.499 -234.5c0 -110.667 -26.667 -196 -80 -256s-128.666 -90 -225.999 -90c-90 0 -159.5 28.167 -208.5 84.5s-73.5 136.166 -73.5 239.499c0 108.667 26.5 192.334 79.5 251.001s128.167 88 225.5 88
c90.667 0 160.5 -27.5 209.5 -82.5zM204.999 494c-24 -33.333 -36 -87.668 -36 -163.001c0 -86 11.833 -147.333 35.5 -184s62.834 -55 117.501 -55c53.333 0 92 16.833 116 50.5s36 88.834 36 165.501c0 84.667 -11.833 145.167 -35.5 181.5s-62.834 54.5 -117.501 54.5
c-53.333 0 -92 -16.667 -116 -50zM310.999 -174.002c-18.667 15.333 -28.001 36 -28.001 62c0 22 8.16699 43.833 24.5 65.5s47.5 49.167 93.5 82.5h72c-44.667 -44.667 -73.5 -75.167 -86.5 -91.5s-19.5 -29.5 -19.5 -39.5c0 -16.667 9.66699 -25 29 -25
c20.667 0 45 10 73 30l7 -2l16 -62c-35.333 -28.667 -70.666 -43 -105.999 -43c-31.333 0 -56.333 7.66699 -75 23z" />
    <glyph glyph-name="uni01EB" unicode="&#x1eb;" horiz-adv-x="560" 
d="M494 108.5c-22.667 -42.333 -55.6699 -73.1699 -99.0029 -92.5029c-33.333 -34.667 -55.166 -58.667 -65.499 -72s-15.5 -24.666 -15.5 -33.999c0 -16.667 9.66699 -25 29 -25c20.667 0 45 10 73 30l7 -2l16 -62c-35.333 -28.667 -70.666 -43 -105.999 -43
c-31.333 0 -56.333 7.66699 -75 23s-28 36 -28 62c0 16 4 31.5 12 46.5s22.667 32.167 44 51.5h-16c-75.333 0 -133.666 22.167 -174.999 66.5s-62 106.833 -62 187.5c0 85.333 22.333 151.333 67 198s108 70 190 70c76 0 134.667 -21.667 176 -65s62 -104.666 62 -183.999
c0 -61.333 -11.333 -113.166 -34 -155.499zM175.497 158.496c7.66699 -25 20 -42.833 37 -53.5s39.833 -16 68.5 -16c42 0 71.833 11 89.5 33s26.5 60.667 26.5 116c0 44 -4 78.5 -12 103.5s-20.333 42.833 -37 53.5s-39.667 16 -69 16
c-41.333 0 -70.833 -11.167 -88.5 -33.5s-26.5 -60.833 -26.5 -115.5c0 -44 3.83301 -78.5 11.5 -103.5z" />
    <glyph glyph-name="Aringacute" unicode="&#x1fa;" horiz-adv-x="600" 
d="M215 796l-13 58.999c82.667 26.667 156.667 53.334 222 80.001l12 -5l22 -83l-6 -12c-60.667 -13.333 -135.667 -28 -225 -44zM584 -0.000976562l-138 -0.000976562l-16 82l-17 59l-126 3l-111 -3l-17 -52l-17 -89h-134l220 620c-11.333 16.667 -17 37 -17 61
c0 30.667 8.5 54.334 25.5 71.001s41.167 25 72.5 25c30.667 0 54 -8 70 -24s24 -38.333 24 -67c0 -25.333 -6.33301 -47 -19 -65zM266 682.998c0 -26.667 13.667 -40 41 -40s41 12.667 41 38c0 26 -14 39 -42 39c-26.667 0 -40 -12.333 -40 -37zM383 243.998l-75 261h-9
l-88 -261l86 -2z" />
    <glyph glyph-name="aringacute" unicode="&#x1fb;" horiz-adv-x="529" 
d="M179 784l-13.002 58c98.667 33.333 172.334 60 221.001 80l13 -5l21 -83l-5 -11c-61.333 -14 -136.666 -28.667 -225.999 -44zM200.498 739c17 16.667 41.167 25 72.5 25c30.667 0 54 -8 70 -24s24 -38.333 24 -67c0 -31.333 -8.83301 -55.5 -26.5 -72.5
s-41.834 -25.5 -72.501 -25.5c-29.333 0 -52.166 8 -68.499 24s-24.5 39.333 -24.5 70c0 30 8.5 53.333 25.5 70zM269.998 707c-26.667 0 -40 -12.333 -40 -37c0 -26.667 13.667 -40 41 -40s41 12.667 41 38c0 26 -14 39 -42 39zM503.998 0h-127l-14 73l-9 29l-102 1l-90 -2
l-7 -21l-15 -80h-123l177 505h149zM326.998 197l-57 193h-8l-67 -193l65 -1z" />
    <glyph glyph-name="AEacute" unicode="&#x1fc;" horiz-adv-x="822" 
d="M814 101l-9 -101h-389l-5 84l-17 137l-212 -56l-35 -74l-30 -91h-135l310 644h440l9 -11l-11 -101l-155 5h-88l22 -181l194 50l10 -8l11 -95l-203 -48l18 -149h102l165 6zM382 323l-24 194h-9l-109 -231zM614 886l34 -79l-4 -12
c-64.667 -25.333 -136.667 -51.333 -216 -78l-12 4l-22 55c82 41.333 151 79 207 113z" />
    <glyph glyph-name="aeacute" unicode="&#x1fd;" horiz-adv-x="711" 
d="M353 561l-31.999 50c77.333 62 137.666 113 180.999 153l13 -1l48 -72l-2 -13c-14.667 -9.33301 -25.667 -16 -33 -20c-83.333 -51.333 -137.333 -84 -162 -98zM696.001 89l-8 -89h-328l-4 69l-13 94l-187 -49l-20 -38l-24 -76h-116l259 505h374l7 -10l-10 -88l-130 6
h-72l17 -133l163 42l8 -7l9 -86l-169 -38l13 -98h86l138 5zM331.001 252l-19 144h-8l-91 -174z" />
    <glyph glyph-name="Oslashacute" unicode="&#x1fe;" horiz-adv-x="643" 
d="M589.5 492.5c17.667 -44.333 26.499 -96.501 26.499 -156.501c0 -110.667 -26.667 -196 -80 -256s-128.666 -90 -225.999 -90c-32 0 -60.333 3.33301 -85 10l-57 -119l-85 31l-5 12l57 119c-35.333 27.333 -62 63.833 -80 109.5s-27 99.5 -27 161.5
c0 108.667 26.5 192.334 79.5 251.001s128.167 88 225.5 88c30.667 0 60 -3.66699 88 -11l51 106l83 -30l8 -14l-51 -105c34 -26.667 59.833 -62.167 77.5 -106.5zM437.999 142.499c24 33.667 36 88.832 36 165.499c0 84.667 -11.833 145.167 -35.5 181.5
s-62.834 54.5 -117.501 54.5c-53.333 0 -92 -16.667 -116 -50s-36 -87.666 -36 -162.999c0 -86 11.833 -147.333 35.5 -184s62.834 -55 117.501 -55c53.333 0 92 16.833 116 50.5zM432.999 886.997l34 -79l-4 -12c-64.667 -25.333 -136.667 -51.333 -216 -78l-12 4l-22 55
c82 41.333 151 79 207 113z" />
    <glyph glyph-name="oslashacute" unicode="&#x1ff;" horiz-adv-x="560" 
d="M200 563l-31.999 50c77.333 62 137.666 113 180.999 153l13 -1l48 -72l-2 -13c-14.667 -9.33301 -25.667 -16 -33 -20c-83.333 -51.333 -137.333 -84 -162 -98zM528.001 264c0 -86.667 -22.501 -153.833 -67.501 -201.5s-108.5 -71.5 -190.5 -71.5
c-23.333 0 -46.666 2.66699 -69.999 8l-63 -113l-76 36l-4 12l59 104c-27.333 21.333 -48 49.5 -62 84.5s-21 75.833 -21 122.5c0 85.333 22.333 151.333 67 198s108 70 190 70c31.333 0 58.333 -3.33301 81 -10l54 95l72 -37l6 -12l-50 -89c50 -42.667 75 -108 75 -196z
M370.5 122.001c17.667 22 26.5 60.667 26.5 116c0 44 -4 78.5 -12 103.5s-20.333 42.833 -37 53.5s-39.667 16 -69 16c-41.333 0 -70.833 -11.167 -88.5 -33.5s-26.5 -60.833 -26.5 -115.5c0 -44 3.83301 -78.5 11.5 -103.5s20 -42.833 37 -53.5s39.833 -16 68.5 -16
c42 0 71.833 11 89.5 33z" />
    <glyph glyph-name="uni0200" unicode="&#x200;" horiz-adv-x="600" 
d="M584 0h-138l-16 84l-17 60l-126 3l-111 -3l-17 -53l-17 -91h-134l218 644h161zM384 249l-76 268h-9l-88 -268l86 -2zM238 715l-11 3l-126 116l2 11l62 40l10 -2c13.333 -18 35.333 -46 66 -84l39 -50zM393 715l-12 3.00098c-43.333 38 -85 76.667 -125 116l2 11l61 40
l11 -2c23.333 -32.667 58.333 -77.334 105 -134.001z" />
    <glyph glyph-name="uni0201" unicode="&#x201;" horiz-adv-x="529" 
d="M226 563c-65.333 65.333 -113.667 115.667 -145 151l1 10l62 44l10 -2c34 -50 75.333 -107.333 124 -172l-41 -34zM377.999 563.001c-65.333 65.333 -113.667 115.667 -145 151l1 10l62 44l10 -2c34 -50 75.333 -107.333 124 -172l-41 -34zM503.998 0.00195312h-127
l-14 73l-9 29l-102 1l-90 -2l-7 -21l-15 -80h-123l177 505h149zM326.998 197.002l-57 193h-8l-67 -193l65 -1z" />
    <glyph glyph-name="uni0202" unicode="&#x202;" horiz-adv-x="600" 
d="M584 0h-138l-16 84l-17 60l-126 3l-111 -3l-17 -53l-17 -91h-134l218 644h161zM384 249l-76 268h-9l-88 -268l86 -2zM150 770c10 38 27.834 68.333 53.501 91s59.167 34 100.5 34c40 0 72.167 -11.667 96.5 -35s41.166 -53.333 50.499 -90l-33 -45h-18
c-8.66699 24.667 -21.5 43.5 -38.5 56.5s-37.5 19.5 -61.5 19.5s-44.5 -6.5 -61.5 -19.5s-29.5 -31.833 -37.5 -56.5h-18z" />
    <glyph glyph-name="uni0203" unicode="&#x203;" horiz-adv-x="529" 
d="M153 587l-32.999 45c10 38 27.833 68.333 53.5 91s59.167 34 100.5 34c40 0 72.167 -11.667 96.5 -35s41.166 -53.333 50.499 -90l-33 -45h-18c-8.66699 24.667 -21.5 43.5 -38.5 56.5s-37.5 19.5 -61.5 19.5s-44.5 -6.5 -61.5 -19.5s-29.5 -31.833 -37.5 -56.5h-18z
M504.001 0h-127l-14 73l-9 29l-102 1l-90 -2l-7 -21l-15 -80h-123l177 505h149zM327.001 197l-57 193h-8l-67 -193l65 -1z" />
    <glyph glyph-name="uni0204" unicode="&#x204;" horiz-adv-x="509" 
d="M483 112l8 -11l-9 -101h-404l7 192l-7 452h408l8 -11l-10 -101l-154 5l-116 -1l-3 -155l111 -2l105 3l8 -10l-9 -101l-114 3l-103 -1l-1 -69l3 -97l113 -1zM219 715l-11 3l-126 116l2 11l62 40l10 -2c13.333 -18 35.333 -46 66 -84l39 -50zM374 715l-12 3.00098
c-43.333 38 -85 76.667 -125 116l2 11l61 40l11 -2c23.333 -32.667 58.333 -77.334 105 -134.001z" />
    <glyph glyph-name="uni0205" unicode="&#x205;" horiz-adv-x="456" 
d="M203 563c-65.333 65.333 -113.667 115.667 -145 151l1 10l62 44l10 -2c34 -50 75.333 -107.333 124 -172l-41 -34zM354.999 563.001c-65.333 65.333 -113.667 115.667 -145 151l1 10l62 44l10 -2c34 -50 75.333 -107.333 124 -172l-41 -34zM419.998 102.002l8 -8l-9 -94
h-346l5 150l-5 355h351l7 -10l-8 -93l-130 5h-94l-2 -102l90 -1l87 3l7 -9l-8 -95l-95 3h-83l-1 -44l2 -64h88z" />
    <glyph glyph-name="uni0206" unicode="&#x206;" horiz-adv-x="509" 
d="M483 112l8 -11l-9 -101h-404l7 192l-7 452h408l8 -11l-10 -101l-154 5l-116 -1l-3 -155l111 -2l105 3l8 -10l-9 -101l-114 3l-103 -1l-1 -69l3 -97l113 -1zM131 770c10 38 27.834 68.333 53.501 91s59.167 34 100.5 34c40 0 72.167 -11.667 96.5 -35
s41.166 -53.333 50.499 -90l-33 -45h-18c-8.66699 24.667 -21.5 43.5 -38.5 56.5s-37.5 19.5 -61.5 19.5s-44.5 -6.5 -61.5 -19.5s-29.5 -31.833 -37.5 -56.5h-18z" />
    <glyph glyph-name="uni0207" unicode="&#x207;" horiz-adv-x="456" 
d="M130 587l-32.999 45c10 38 27.833 68.333 53.5 91s59.167 34 100.5 34c40 0 72.167 -11.667 96.5 -35s41.166 -53.333 50.499 -90l-33 -45h-18c-8.66699 24.667 -21.5 43.5 -38.5 56.5s-37.5 19.5 -61.5 19.5s-44.5 -6.5 -61.5 -19.5s-29.5 -31.833 -37.5 -56.5h-18z
M420.001 102l8 -8l-9 -94h-346l5 150l-5 355h351l7 -10l-8 -93l-130 5h-94l-2 -102l90 -1l87 3l7 -9l-8 -95l-95 3h-83l-1 -44l2 -64h88z" />
    <glyph glyph-name="uni0208" unicode="&#x208;" horiz-adv-x="295" 
d="M208 204l6 -204h-136l7 192l-7 452h138zM84 715l-11 3l-126 116l2 11l62 40l10 -2c13.333 -18 35.333 -46 66 -84l39 -50zM239 715l-12 3.00098c-43.333 38 -85 76.667 -125 116l2 11l61 40l11 -2c23.333 -32.667 58.333 -77.334 105 -134.001z" />
    <glyph glyph-name="uni0209" unicode="&#x209;" horiz-adv-x="279" 
d="M24 766l-9.99902 1.99902l-62 -44l-1 -10c31.333 -35.333 79.666 -85.666 144.999 -150.999l11 -3l41 34c-48.667 64.667 -90 122 -124 172zM176.001 765.999l-9.99902 1.99902l-62 -44l-1 -10c31.333 -35.333 79.666 -85.666 144.999 -150.999l11 -3l41 34
c-48.667 64.667 -90 122 -124 172zM194.002 161.998l5 -162h-126l5 150l-5 355h128z" />
    <glyph glyph-name="uni020A" unicode="&#x20a;" horiz-adv-x="295" 
d="M208 204l6 -204h-136l7 192l-7 452h138zM-4 770c10 38 27.834 68.333 53.501 91s59.167 34 100.5 34c40 0 72.167 -11.667 96.5 -35s41.166 -53.333 50.499 -90l-33 -45h-18c-8.66699 24.667 -21.5 43.5 -38.5 56.5s-37.5 19.5 -61.5 19.5s-44.5 -6.5 -61.5 -19.5
s-29.5 -31.833 -37.5 -56.5h-18z" />
    <glyph glyph-name="uni020B" unicode="&#x20b;" horiz-adv-x="279" 
d="M-10 632c10 38 27.834 68.333 53.501 91s59.167 34 100.5 34c40 0 72.167 -11.667 96.5 -35s41.166 -53.333 50.499 -90l-33 -45h-18c-8.66699 24.667 -21.5 43.5 -38.5 56.5s-37.5 19.5 -61.5 19.5s-44.5 -6.5 -61.5 -19.5s-29.5 -31.833 -37.5 -56.5h-18zM194.001 162
l5 -162h-126l5 150l-5 355h128z" />
    <glyph glyph-name="uni020C" unicode="&#x20c;" horiz-adv-x="643" 
d="M542.5 570.5c49 -55 73.499 -133.167 73.499 -234.5c0 -110.667 -26.667 -196 -80 -256s-128.666 -90 -225.999 -90c-90 0 -159.5 28.167 -208.5 84.5s-73.5 136.166 -73.5 239.499c0 108.667 26.5 192.334 79.5 251.001s128.167 88 225.5 88
c90.667 0 160.5 -27.5 209.5 -82.5zM204.999 494c-24 -33.333 -36 -87.668 -36 -163.001c0 -86 11.833 -147.333 35.5 -184s62.834 -55 117.501 -55c53.333 0 92 16.833 116 50.5s36 88.834 36 165.501c0 84.667 -11.833 145.167 -35.5 181.5s-62.834 54.5 -117.501 54.5
c-53.333 0 -92 -16.667 -116 -50zM258.999 714.998l-11 3l-126 116l2 11l62 40l10 -2c13.333 -18 35.333 -46 66 -84l39 -50zM413.999 714.998l-12 3.00098c-43.333 38 -85 76.667 -125 116l2 11l61 40l11 -2c23.333 -32.667 58.333 -77.334 105 -134.001z" />
    <glyph glyph-name="uni020D" unicode="&#x20d;" horiz-adv-x="560" 
d="M165 766l-9.99902 1.99902l-62 -44l-1 -10c31.333 -35.333 79.666 -85.666 144.999 -150.999l11 -3l41 34c-48.667 64.667 -90 122 -124 172zM317.001 765.999l-9.99902 1.99902l-62 -44l-1 -10c31.333 -35.333 79.666 -85.666 144.999 -150.999l11 -3l41 34
c-48.667 64.667 -90 122 -124 172zM466.002 447.998c41.333 -43.333 61.999 -104.666 61.999 -183.999c0 -86.667 -22.5 -153.834 -67.5 -201.501s-108.5 -71.5 -190.5 -71.5c-75.333 0 -133.666 22.167 -174.999 66.5s-62 106.833 -62 187.5
c0 85.333 22.333 151.333 67 198s108 70 190 70c76 0 134.667 -21.667 176 -65zM190.501 377.498c-17.667 -22.333 -26.5 -60.833 -26.5 -115.5c0 -44 3.83301 -78.5 11.5 -103.5s20 -42.833 37 -53.5s39.833 -16 68.5 -16c42 0 71.833 11 89.5 33s26.5 60.667 26.5 116
c0 44 -4 78.5 -12 103.5s-20.333 42.833 -37 53.5s-39.667 16 -69 16c-41.333 0 -70.833 -11.167 -88.5 -33.5z" />
    <glyph glyph-name="uni020E" unicode="&#x20e;" horiz-adv-x="643" 
d="M542.5 570.5c49 -55 73.499 -133.167 73.499 -234.5c0 -110.667 -26.667 -196 -80 -256s-128.666 -90 -225.999 -90c-90 0 -159.5 28.167 -208.5 84.5s-73.5 136.166 -73.5 239.499c0 108.667 26.5 192.334 79.5 251.001s128.167 88 225.5 88
c90.667 0 160.5 -27.5 209.5 -82.5zM204.999 494c-24 -33.333 -36 -87.668 -36 -163.001c0 -86 11.833 -147.333 35.5 -184s62.834 -55 117.501 -55c53.333 0 92 16.833 116 50.5s36 88.834 36 165.501c0 84.667 -11.833 145.167 -35.5 181.5s-62.834 54.5 -117.501 54.5
c-53.333 0 -92 -16.667 -116 -50zM170.999 769.998c10 38 27.834 68.333 53.501 91s59.167 34 100.5 34c40 0 72.167 -11.667 96.5 -35s41.166 -53.333 50.499 -90l-33 -45h-18c-8.66699 24.667 -21.5 43.5 -38.5 56.5s-37.5 19.5 -61.5 19.5s-44.5 -6.5 -61.5 -19.5
s-29.5 -31.833 -37.5 -56.5h-18z" />
    <glyph glyph-name="uni020F" unicode="&#x20f;" horiz-adv-x="560" 
d="M131 632c10 38 27.834 68.333 53.501 91s59.167 34 100.5 34c40 0 72.167 -11.667 96.5 -35s41.166 -53.333 50.499 -90l-33 -45h-18c-8.66699 24.667 -21.5 43.5 -38.5 56.5s-37.5 19.5 -61.5 19.5s-44.5 -6.5 -61.5 -19.5s-29.5 -31.833 -37.5 -56.5h-18zM466.001 448
c41.333 -43.333 61.999 -104.666 61.999 -183.999c0 -86.667 -22.5 -153.834 -67.5 -201.501s-108.5 -71.5 -190.5 -71.5c-75.333 0 -133.666 22.167 -174.999 66.5s-62 106.833 -62 187.5c0 85.333 22.333 151.333 67 198s108 70 190 70c76 0 134.667 -21.667 176 -65z
M190.5 377.5c-17.667 -22.333 -26.5 -60.833 -26.5 -115.5c0 -44 3.83301 -78.5 11.5 -103.5s20 -42.833 37 -53.5s39.833 -16 68.5 -16c42 0 71.833 11 89.5 33s26.5 60.667 26.5 116c0 44 -4 78.5 -12 103.5s-20.333 42.833 -37 53.5s-39.667 16 -69 16
c-41.333 0 -70.833 -11.167 -88.5 -33.5z" />
    <glyph glyph-name="uni0210" unicode="&#x210;" horiz-adv-x="590" 
d="M571 32l-2.00098 -15c-43.333 -15.333 -87.666 -24.333 -132.999 -27l-14 11c-48 82.667 -87 154.667 -117 216h-97v-13l6 -204h-136l7 192l-7 452l247 1c67.333 0 119.333 -16.5 156 -49.5s55 -80.167 55 -141.5c0 -41.333 -10.5 -79.166 -31.5 -113.499
s-50.5 -62.5 -88.5 -84.5c52 -82.667 103.667 -157.334 155 -224.001zM209.999 322l99 -4c56.667 19.333 85 60.333 85 123c0 34 -9.16699 59.5 -27.5 76.5s-46.5 26.167 -84.5 27.5l-68 -4zM232.999 715l-11 3l-126 116l2 11l62 40l10 -2c13.333 -18 35.333 -46 66 -84
l39 -50zM387.999 715l-12 3.00098c-43.333 38 -85 76.667 -125 116l2 11l61 40l11 -2c23.333 -32.667 58.333 -77.334 105 -134.001z" />
    <glyph glyph-name="uni0211" unicode="&#x211;" horiz-adv-x="524" 
d="M203 563c-65.333 65.333 -113.667 115.667 -145 151l1 10l62 44l10 -2c34 -50 75.333 -107.333 124 -172l-41 -34zM354.999 563.001c-65.333 65.333 -113.667 115.667 -145 151l1 10l62 44l10 -2c34 -50 75.333 -107.333 124 -172l-41 -34zM498.998 29.002
l-1.00098 -13.998c-41.333 -12.667 -82 -20.334 -122 -23.001l-18 12c-37.333 64.667 -66.333 117.667 -87 159h-77v-1l5 -162h-126l5 150l-5 355l218 1c56.667 0 100.5 -13.167 131.5 -39.5s46.5 -63.833 46.5 -112.5c0 -31.333 -8.33301 -60.5 -25 -87.5
s-40 -49.5 -70 -67.5c44.667 -64.667 86.334 -121.334 125.001 -170.001zM195.997 259.004l74.999 -4c22.667 7.33301 39.334 18 50.001 32s16 32 16 54c0 24 -7 41.833 -21 53.5s-36 18.167 -66 19.5l-51 -2z" />
    <glyph glyph-name="uni0212" unicode="&#x212;" horiz-adv-x="590" 
d="M571 32l-2.00098 -15c-43.333 -15.333 -87.666 -24.333 -132.999 -27l-14 11c-48 82.667 -87 154.667 -117 216h-97v-13l6 -204h-136l7 192l-7 452l247 1c67.333 0 119.333 -16.5 156 -49.5s55 -80.167 55 -141.5c0 -41.333 -10.5 -79.166 -31.5 -113.499
s-50.5 -62.5 -88.5 -84.5c52 -82.667 103.667 -157.334 155 -224.001zM209.999 322l99 -4c56.667 19.333 85 60.333 85 123c0 34 -9.16699 59.5 -27.5 76.5s-46.5 26.167 -84.5 27.5l-68 -4zM144.999 770c10 38 27.834 68.333 53.501 91s59.167 34 100.5 34
c40 0 72.167 -11.667 96.5 -35s41.166 -53.333 50.499 -90l-33 -45h-18c-8.66699 24.667 -21.5 43.5 -38.5 56.5s-37.5 19.5 -61.5 19.5s-44.5 -6.5 -61.5 -19.5s-29.5 -31.833 -37.5 -56.5h-18z" />
    <glyph glyph-name="uni0213" unicode="&#x213;" horiz-adv-x="524" 
d="M129 587l-32.999 45c10 38 27.833 68.333 53.5 91s59.167 34 100.5 34c40 0 72.167 -11.667 96.5 -35s41.166 -53.333 50.499 -90l-33 -45h-18c-8.66699 24.667 -21.5 43.5 -38.5 56.5s-37.5 19.5 -61.5 19.5s-44.5 -6.5 -61.5 -19.5s-29.5 -31.833 -37.5 -56.5h-18z
M499.001 29l-1.00098 -13.998c-41.333 -12.667 -82 -20.334 -122 -23.001l-18 12c-37.333 64.667 -66.333 117.667 -87 159h-77v-1l5 -162h-126l5 150l-5 355l218 1c56.667 0 100.5 -13.167 131.5 -39.5s46.5 -63.833 46.5 -112.5c0 -31.333 -8.33301 -60.5 -25 -87.5
s-40 -49.5 -70 -67.5c44.667 -64.667 86.334 -121.334 125.001 -170.001zM196 259.002l74.999 -4c22.667 7.33301 39.334 18 50.001 32s16 32 16 54c0 24 -7 41.833 -21 53.5s-36 18.167 -66 19.5l-51 -2z" />
    <glyph glyph-name="uni0214" unicode="&#x214;" horiz-adv-x="638" 
d="M573 317l-0.999023 -85c0.666992 -76.667 -21.666 -136 -66.999 -178s-110.333 -63 -195 -63c-81.333 0 -143.333 20.333 -186 61s-63 99 -61 175l1 93l-3 324h136l-7 -399c-0.666992 -48.667 9.66602 -84.667 30.999 -108s53.666 -35 96.999 -35
c86.667 0 129.667 45.333 129 136l-7 406h138zM258.001 715l-11 3l-126 116l2 11l62 40l10 -2c13.333 -18 35.333 -46 66 -84l39 -50zM413.001 715l-12 3.00098c-43.333 38 -85 76.667 -125 116l2 11l61 40l11 -2c23.333 -32.667 58.333 -77.334 105 -134.001z" />
    <glyph glyph-name="uni0215" unicode="&#x215;" horiz-adv-x="557" 
d="M163 766l-9.99902 1.99902l-62 -44l-1 -10c31.333 -35.333 79.666 -85.666 144.999 -150.999l11 -3l41 34c-48.667 64.667 -90 122 -124 172zM315.001 765.999l-9.99902 1.99902l-62 -44l-1 -10c31.333 -35.333 79.666 -85.666 144.999 -150.999l11 -3l41 34
c-48.667 64.667 -90 122 -124 172zM494.002 247.998l-0.999023 -77c0.666992 -57.333 -18.166 -101.5 -56.499 -132.5s-93.166 -46.5 -164.499 -46.5c-69.333 0 -122.333 15.5 -159 46.5s-54 75.167 -52 132.5l1 79l-3 255h126l-6 -316
c-0.666992 -32.667 7.16602 -56.667 23.499 -72s41.166 -23 74.499 -23c34 0 59.167 7.83301 75.5 23.5s24.166 39.5 23.499 71.5l-5 316h127z" />
    <glyph glyph-name="uni0216" unicode="&#x216;" horiz-adv-x="638" 
d="M573 317l-0.999023 -85c0.666992 -76.667 -21.666 -136 -66.999 -178s-110.333 -63 -195 -63c-81.333 0 -143.333 20.333 -186 61s-63 99 -61 175l1 93l-3 324h136l-7 -399c-0.666992 -48.667 9.66602 -84.667 30.999 -108s53.666 -35 96.999 -35
c86.667 0 129.667 45.333 129 136l-7 406h138zM170.001 770c10 38 27.834 68.333 53.501 91s59.167 34 100.5 34c40 0 72.167 -11.667 96.5 -35s41.166 -53.333 50.499 -90l-33 -45h-18c-8.66699 24.667 -21.5 43.5 -38.5 56.5s-37.5 19.5 -61.5 19.5
s-44.5 -6.5 -61.5 -19.5s-29.5 -31.833 -37.5 -56.5h-18z" />
    <glyph glyph-name="uni0217" unicode="&#x217;" horiz-adv-x="557" 
d="M129 632c10 38 27.834 68.333 53.501 91s59.167 34 100.5 34c40 0 72.167 -11.667 96.5 -35s41.166 -53.333 50.499 -90l-33 -45h-18c-8.66699 24.667 -21.5 43.5 -38.5 56.5s-37.5 19.5 -61.5 19.5s-44.5 -6.5 -61.5 -19.5s-29.5 -31.833 -37.5 -56.5h-18zM494.001 248
l-0.999023 -77c0.666992 -57.333 -18.166 -101.5 -56.499 -132.5s-93.166 -46.5 -164.499 -46.5c-69.333 0 -122.333 15.5 -159 46.5s-54 75.167 -52 132.5l1 79l-3 255h126l-6 -316c-0.666992 -32.667 7.16602 -56.667 23.499 -72s41.166 -23 74.499 -23
c34 0 59.167 7.83301 75.5 23.5s24.166 39.5 23.499 71.5l-5 316h127z" />
    <glyph glyph-name="Scommaaccent" unicode="&#x218;" horiz-adv-x="498" 
d="M448 619l-22.001 -116.999l-20 -8c-22.667 16 -46.167 28.667 -70.5 38s-46.5 14 -66.5 14c-26.667 0 -48 -7.16699 -64 -21.5s-24 -30.833 -24 -49.5c0 -19.333 8.83301 -35.666 26.5 -48.999s45.5 -29 83.5 -47c36.667 -16.667 66.5 -32.167 89.5 -46.5
s42.667 -33.166 59 -56.499s24.5 -52 24.5 -86c0 -36.667 -10 -70.167 -30 -100.5s-48.333 -54.333 -85 -72s-79 -26.5 -127 -26.5c-63.333 0 -127 13.667 -191 41l19 126l15 8c26.667 -23.333 55.834 -41.166 87.501 -53.499s59.834 -18.5 84.501 -18.5
c29.333 0 52.166 7.16699 68.499 21.5s24.5 31.5 24.5 51.5c0 21.333 -8.83301 38.666 -26.5 51.999s-46.167 29.333 -85.5 48c-36 16 -65.333 31 -88 45s-42 32.667 -58 56s-24 51.666 -24 84.999c0 37.333 10 71.166 30 101.499s48 54.166 84 71.499s77 26 123 26
c54.667 0 109 -11 163 -33zM314.999 -116.999c0 -26.667 -8.83301 -52.666 -26.5 -77.999s-44.834 -51 -81.501 -77l-38 34l-1 9c32.667 28 49 57.333 49 88c0 20.667 -9.66699 38.667 -29 54l1 10c26.667 16 55.334 28.333 86.001 37c26.667 -20.667 40 -46.334 40 -77.001
z" />
    <glyph glyph-name="scommaaccent" unicode="&#x219;" horiz-adv-x="445" 
d="M390 487l-18.9971 -111.999l-18 -5c-21.333 16 -42 28 -62 36s-38.333 12 -55 12c-18.667 0 -33.334 -4.5 -44.001 -13.5s-16 -19.833 -16 -32.5c0 -14 6.66699 -25.5 20 -34.5s34.333 -19.5 63 -31.5c30 -12.667 54.5 -24.334 73.5 -35.001s35.333 -25.5 49 -44.5
s20.5 -42.833 20.5 -71.5s-7.5 -55.5 -22.5 -80.5s-37.667 -45.167 -68 -60.5s-67.833 -23 -112.5 -23c-24 0 -50.167 2.5 -78.5 7.5s-55.833 12.833 -82.5 23.5l17 118l13 9c22 -20 46.667 -36 74 -48s51.666 -18 72.999 -18c18.667 0 33.834 4.66699 45.501 14
s17.5 21 17.5 35c0 14.667 -6.83301 26.5 -20.5 35.5s-34.834 19.167 -63.501 30.5c-30 12.667 -54.5 24.5 -73.5 35.5s-35.333 26.167 -49 45.5s-20.5 43.333 -20.5 72c0 30 8.16699 57.333 24.5 82s39.666 44 69.999 58s65.833 21 106.5 21c48 0 94 -8.33301 138 -25z
M278.003 -116.999c0 -26.667 -8.83301 -52.666 -26.5 -77.999s-44.834 -51 -81.501 -77l-38 34l-1 9c32.667 28 49 57.333 49 88c0 20.667 -9.66699 38.667 -29 54l1 10c26.667 16 55.334 28.333 86.001 37c26.667 -20.667 40 -46.334 40 -77.001z" />
    <glyph glyph-name="uni021A" unicode="&#x21a;" horiz-adv-x="503" 
d="M489 633l-8 -101l-121 6h-40l-5 -334l6 -204h-136l7 192l-5 346h-40l-123 -6l-9 11l9 101h457zM324 -117c0 -26.667 -8.83301 -52.666 -26.5 -77.999s-44.834 -51 -81.501 -77l-38 34l-1 9c32.667 28 49 57.333 49 88c0 20.667 -9.66699 38.667 -29 54l1 10
c26.667 16 55.334 28.333 86.001 37c26.667 -20.667 40 -46.334 40 -77.001z" />
    <glyph glyph-name="uni021B" unicode="&#x21b;" horiz-adv-x="446" 
d="M423 495l-7 -96l-102 7h-29l-3 -244l4 -162h-125l5 150l-2 256h-29l-104 -7l-8 10l7 96h386zM298 -117c0 -26.667 -8.83301 -52.666 -26.5 -77.999s-44.834 -51 -81.501 -77l-38 34l-1 9c32.667 28 49 57.333 49 88c0 20.667 -9.66699 38.667 -29 54l1 10
c26.667 16 55.334 28.333 86.001 37c26.667 -20.667 40 -46.334 40 -77.001z" />
    <glyph glyph-name="uni022A" unicode="&#x22a;" horiz-adv-x="643" 
d="M542.5 570.5c49 -55 73.499 -133.167 73.499 -234.5c0 -110.667 -26.667 -196 -80 -256s-128.666 -90 -225.999 -90c-90 0 -159.5 28.167 -208.5 84.5s-73.5 136.166 -73.5 239.499c0 108.667 26.5 192.334 79.5 251.001s128.167 88 225.5 88
c90.667 0 160.5 -27.5 209.5 -82.5zM204.999 494c-24 -33.333 -36 -87.668 -36 -163.001c0 -86 11.833 -147.333 35.5 -184s62.834 -55 117.501 -55c53.333 0 92 16.833 116 50.5s36 88.834 36 165.501c0 84.667 -11.833 145.167 -35.5 181.5s-62.834 54.5 -117.501 54.5
c-53.333 0 -92 -16.667 -116 -50zM463.999 970.998l-8 -75h-265l-9 10l6 75h266zM279.999 823.498c10 -10.333 14.999 -25.167 14.999 -44.5s-5.66699 -35 -17 -47s-26.333 -18 -45 -18c-19.333 0 -34.166 5.33301 -44.499 16s-15.5 25.667 -15.5 45
s5.83301 34.833 17.5 46.5s27.167 17.5 46.5 17.5c18.667 0 33 -5.16699 43 -15.5zM453.998 823.497c10 -10.333 14.999 -25.167 14.999 -44.5s-5.66699 -35 -17 -47s-26.333 -18 -45 -18c-19.333 0 -34.166 5.33301 -44.499 16s-15.5 25.667 -15.5 45
s5.83301 34.833 17.5 46.5s27.167 17.5 46.5 17.5c18.667 0 33 -5.16699 43 -15.5z" />
    <glyph glyph-name="uni022B" unicode="&#x22b;" horiz-adv-x="560" 
d="M424 832l-8 -75h-265l-9 10l6 75h266zM240 684.5c10 -10.333 14.999 -25.167 14.999 -44.5s-5.66699 -35 -17 -47s-26.333 -18 -45 -18c-19.333 0 -34.166 5.33301 -44.499 16s-15.5 25.667 -15.5 45s5.83301 34.833 17.5 46.5s27.167 17.5 46.5 17.5
c18.667 0 33 -5.16699 43 -15.5zM413.999 684.499c10 -10.333 14.999 -25.167 14.999 -44.5s-5.66699 -35 -17 -47s-26.333 -18 -45 -18c-19.333 0 -34.166 5.33301 -44.499 16s-15.5 25.667 -15.5 45s5.83301 34.833 17.5 46.5s27.167 17.5 46.5 17.5
c18.667 0 33 -5.16699 43 -15.5zM465.998 447.998c41.333 -43.333 61.999 -104.666 61.999 -183.999c0 -86.667 -22.5 -153.834 -67.5 -201.501s-108.5 -71.5 -190.5 -71.5c-75.333 0 -133.666 22.167 -174.999 66.5s-62 106.833 -62 187.5c0 85.333 22.333 151.333 67 198
s108 70 190 70c76 0 134.667 -21.667 176 -65zM190.497 377.498c-17.667 -22.333 -26.5 -60.833 -26.5 -115.5c0 -44 3.83301 -78.5 11.5 -103.5s20 -42.833 37 -53.5s39.833 -16 68.5 -16c42 0 71.833 11 89.5 33s26.5 60.667 26.5 116c0 44 -4 78.5 -12 103.5
s-20.333 42.833 -37 53.5s-39.667 16 -69 16c-41.333 0 -70.833 -11.167 -88.5 -33.5z" />
    <glyph glyph-name="uni022C" unicode="&#x22c;" horiz-adv-x="643" 
d="M542.5 570.5c49 -55 73.499 -133.167 73.499 -234.5c0 -110.667 -26.667 -196 -80 -256s-128.666 -90 -225.999 -90c-90 0 -159.5 28.167 -208.5 84.5s-73.5 136.166 -73.5 239.499c0 108.667 26.5 192.334 79.5 251.001s128.167 88 225.5 88
c90.667 0 160.5 -27.5 209.5 -82.5zM204.999 494c-24 -33.333 -36 -87.668 -36 -163.001c0 -86 11.833 -147.333 35.5 -184s62.834 -55 117.501 -55c53.333 0 92 16.833 116 50.5s36 88.834 36 165.501c0 84.667 -11.833 145.167 -35.5 181.5s-62.834 54.5 -117.501 54.5
c-53.333 0 -92 -16.667 -116 -50zM475.999 824.998l0.000976562 -10.999l-63 -89l-12 -4c-16 2.66699 -39.333 9 -70 19c-31.333 10 -50.666 15 -57.999 15s-14.5 -3.33301 -21.5 -10s-13.833 -14.334 -20.5 -23.001l-13 -17h-11l-39 39v12l62 87l13 5
c16 -2.66699 39.333 -9 70 -19c31.333 -10 50.666 -15 57.999 -15s14.166 3 20.499 9s12.833 13.333 19.5 22s11.667 15 15 19h11zM442 989.999l-7 -74h-225l-9 9l7 74h225z" />
    <glyph glyph-name="uni022D" unicode="&#x22d;" horiz-adv-x="560" 
d="M402 852l-7 -74h-225l-9 9l7 74h225zM436 686l0.000976562 -10.999l-63 -89l-12 -4c-16 2.66699 -39.333 9 -70 19c-31.333 10 -50.666 15 -57.999 15s-14.5 -3.33301 -21.5 -10s-13.833 -14.334 -20.5 -23.001l-13 -17h-11l-39 39v12l62 87l13 5
c16 -2.66699 39.333 -9 70 -19c31.333 -10 50.666 -15 57.999 -15s14.166 3 20.499 9s12.833 13.333 19.5 22s11.667 15 15 19h11zM466.001 448.001c41.333 -43.333 61.999 -104.666 61.999 -183.999c0 -86.667 -22.5 -153.834 -67.5 -201.501s-108.5 -71.5 -190.5 -71.5
c-75.333 0 -133.666 22.167 -174.999 66.5s-62 106.833 -62 187.5c0 85.333 22.333 151.333 67 198s108 70 190 70c76 0 134.667 -21.667 176 -65zM190.5 377.501c-17.667 -22.333 -26.5 -60.833 -26.5 -115.5c0 -44 3.83301 -78.5 11.5 -103.5s20 -42.833 37 -53.5
s39.833 -16 68.5 -16c42 0 71.833 11 89.5 33s26.5 60.667 26.5 116c0 44 -4 78.5 -12 103.5s-20.333 42.833 -37 53.5s-39.667 16 -69 16c-41.333 0 -70.833 -11.167 -88.5 -33.5z" />
    <glyph glyph-name="uni0230" unicode="&#x230;" horiz-adv-x="643" 
d="M542.5 570.5c49 -55 73.499 -133.167 73.499 -234.5c0 -110.667 -26.667 -196 -80 -256s-128.666 -90 -225.999 -90c-90 0 -159.5 28.167 -208.5 84.5s-73.5 136.166 -73.5 239.499c0 108.667 26.5 192.334 79.5 251.001s128.167 88 225.5 88
c90.667 0 160.5 -27.5 209.5 -82.5zM204.999 494c-24 -33.333 -36 -87.668 -36 -163.001c0 -86 11.833 -147.333 35.5 -184s62.834 -55 117.501 -55c53.333 0 92 16.833 116 50.5s36 88.834 36 165.501c0 84.667 -11.833 145.167 -35.5 181.5s-62.834 54.5 -117.501 54.5
c-53.333 0 -92 -16.667 -116 -50zM373.499 835.998c11.667 -12 17.499 -28.667 17.499 -50c0 -22.667 -6.33301 -40.667 -19 -54s-30 -20 -52 -20s-38.833 6 -50.5 18s-17.5 29 -17.5 51s6.5 39.667 19.5 53s30.833 20 53.5 20c20.667 0 36.834 -6 48.501 -18z
M441.998 966.998l-7 -74h-225l-9 9l7 74h225z" />
    <glyph glyph-name="uni0231" unicode="&#x231;" horiz-adv-x="560" 
d="M402 828l-7 -74h-225l-9 9l7 74h225zM333.5 697c11.667 -12 17.499 -28.667 17.499 -50c0 -22.667 -6.33301 -40.667 -19 -54s-30 -20 -52 -20s-38.833 6 -50.5 18s-17.5 29 -17.5 51s6.5 39.667 19.5 53s30.833 20 53.5 20c20.667 0 36.834 -6 48.501 -18zM465.999 448
c41.333 -43.333 61.999 -104.666 61.999 -183.999c0 -86.667 -22.5 -153.834 -67.5 -201.501s-108.5 -71.5 -190.5 -71.5c-75.333 0 -133.666 22.167 -174.999 66.5s-62 106.833 -62 187.5c0 85.333 22.333 151.333 67 198s108 70 190 70c76 0 134.667 -21.667 176 -65z
M190.498 377.5c-17.667 -22.333 -26.5 -60.833 -26.5 -115.5c0 -44 3.83301 -78.5 11.5 -103.5s20 -42.833 37 -53.5s39.833 -16 68.5 -16c42 0 71.833 11 89.5 33s26.5 60.667 26.5 116c0 44 -4 78.5 -12 103.5s-20.333 42.833 -37 53.5s-39.667 16 -69 16
c-41.333 0 -70.833 -11.167 -88.5 -33.5z" />
    <glyph glyph-name="uni0232" unicode="&#x232;" horiz-adv-x="558" 
d="M333 179l6 -179h-135l6 179l-1 38l-205 427h144l14 -45l109 -245h9l122 241l19 49h139l-225 -422zM423 830l-6 -74h-280l-9 9l6 74h280z" />
    <glyph glyph-name="uni0233" unicode="&#x233;" horiz-adv-x="497" 
d="M115 617l-9 9l6 74h280l9 -9l-6 -74h-280zM299 137l5 -137h-126l6 137l-1 25l-171 343h134l11 -37l85 -177h7l94 172l16 42h130l-189 -340z" />
    <glyph glyph-name="uni0237" unicode="&#x237;" horiz-adv-x="315" 
d="M232 166l1.00098 -70c0 -45.333 -11.5 -81.666 -34.5 -108.999s-64.167 -52.333 -123.5 -75l-40 63v11c29.333 14.667 50.166 30.167 62.499 46.5s18.5 37.166 18.5 62.499v58l-4 259l-86 -2l-8 8l8 87h211z" />
    </font>
</defs>
</svg>
