<?xml version="1.0" standalone="no"?>
<!DOCTYPE svg PUBLIC "-//W3C//DTD SVG 1.1//EN" "http://www.w3.org/Graphics/SVG/1.1/DTD/svg11.dtd" >
<svg>
<metadata>
Created by FontForge 20090914 at Thu Nov 12 13:26:58 2020
 By www-data
Copyright 2013 The Alegreya Sans Project Authors (https://github.com/huertatipografica/Alegreya-Sans)
</metadata>
<defs>
<font id="AlegreyaSansSC-Thin" horiz-adv-x="0" >
  <font-face 
    font-family="Alegreya Sans SC Thin"
    font-weight="250"
    font-stretch="normal"
    units-per-em="1000"
    panose-1="0 0 3 0 0 0 0 0 0 0"
    ascent="800"
    descent="-200"
    x-height="491"
    cap-height="637"
    bbox="-401 -265 1223 949.777"
    underline-thickness="20"
    underline-position="-170"
    unicode-range="U+000D-U+FB02"
  />
<missing-glyph horiz-adv-x="180" 
 />
    <glyph glyph-name="Idieresis" unicode="&#xa8;I" horiz-adv-x="240" 
d="M130 0h-20v637h20v-637zM84.5 794.5c3.66699 -3.66699 5.5 -8.5 5.5 -14.5s-1.83301 -10.833 -5.5 -14.5s-8.5 -5.5 -14.5 -5.5s-10.833 1.83301 -14.5 5.5s-5.5 8.5 -5.5 14.5s1.83301 10.833 5.5 14.5s8.5 5.5 14.5 5.5s10.833 -1.83301 14.5 -5.5zM184.5 794.5
c3.66699 -3.66699 5.5 -8.5 5.5 -14.5s-1.83301 -10.833 -5.5 -14.5s-8.5 -5.5 -14.5 -5.5s-10.833 1.83301 -14.5 5.5s-5.5 8.5 -5.5 14.5s1.83301 10.833 5.5 14.5s8.5 5.5 14.5 5.5s10.833 -1.83301 14.5 -5.5z" />
    <glyph glyph-name="Odieresis" unicode="&#xa8;O" horiz-adv-x="627" 
d="M511.5 561c45 -54 67.499 -131.333 67.499 -232c0 -107.333 -23.333 -189.833 -70 -247.5s-113.667 -86.5 -201 -86.5c-83.333 0 -147.5 27.833 -192.5 83.5s-67.5 135.167 -67.5 238.5c0 104.667 23.333 185 70 241s113.334 84 200.001 84c84 0 148.5 -27 193.5 -81z
M132.499 543c-43 -52.667 -64.499 -128 -64.499 -226c0 -96.667 20.667 -171.167 62 -223.5s100.666 -78.5 177.999 -78.5c80.667 0 142.667 27.167 186 81.5s65 131.833 65 232.5c0 94 -20.833 166.333 -62.5 217s-101.167 76 -178.5 76
c-80.667 0 -142.5 -26.333 -185.5 -79zM258.5 794.5c3.66699 -3.66699 5.5 -8.5 5.5 -14.5s-1.83301 -10.833 -5.5 -14.5s-8.5 -5.5 -14.5 -5.5s-10.833 1.83301 -14.5 5.5s-5.5 8.5 -5.5 14.5s1.83301 10.833 5.5 14.5s8.5 5.5 14.5 5.5s10.833 -1.83301 14.5 -5.5z
M398.5 794.5c3.66699 -3.66699 5.5 -8.5 5.5 -14.5s-1.83301 -10.833 -5.5 -14.5s-8.5 -5.5 -14.5 -5.5s-10.833 1.83301 -14.5 5.5s-5.5 8.5 -5.5 14.5s1.83301 10.833 5.5 14.5s8.5 5.5 14.5 5.5s10.833 -1.83301 14.5 -5.5z" />
    <glyph glyph-name="Yacute" unicode="&#xb4;Y" horiz-adv-x="495" 
d="M248 245v-245h-20v246l-202 391h26l11 -26l173 -334h5l188 334l11 26h26zM348 834l6.99902 -11.999l-2 -5c-44.667 -25.333 -102.667 -56.333 -174 -93l-5 3l-7 15c60.667 29.333 119.334 60.666 176.001 93.999z" />
    <glyph glyph-name="idieresis" unicode="&#xa8;i" horiz-adv-x="237" 
d="M64.5 648.5c3.66699 -3.66699 5.5 -8.5 5.5 -14.5s-1.83301 -10.833 -5.5 -14.5s-8.5 -5.5 -14.5 -5.5s-10.833 1.83301 -14.5 5.5s-5.5 8.5 -5.5 14.5s1.83301 10.833 5.5 14.5s8.5 5.5 14.5 5.5s10.833 -1.83301 14.5 -5.5zM204.5 648.5
c3.66699 -3.66699 5.5 -8.5 5.5 -14.5s-1.83301 -10.833 -5.5 -14.5s-8.5 -5.5 -14.5 -5.5s-10.833 1.83301 -14.5 5.5s-5.5 8.5 -5.5 14.5s1.83301 10.833 5.5 14.5s8.5 5.5 14.5 5.5s10.833 -1.83301 14.5 -5.5zM128 0h-20v491h20v-491z" />
    <glyph glyph-name="odieresis" unicode="&#xa8;o" horiz-adv-x="553" 
d="M222.5 648.5c3.66699 -3.66699 5.5 -8.5 5.5 -14.5s-1.83301 -10.833 -5.5 -14.5s-8.5 -5.5 -14.5 -5.5s-10.833 1.83301 -14.5 5.5s-5.5 8.5 -5.5 14.5s1.83301 10.833 5.5 14.5s8.5 5.5 14.5 5.5s10.833 -1.83301 14.5 -5.5zM362.5 648.5
c3.66699 -3.66699 5.5 -8.5 5.5 -14.5s-1.83301 -10.833 -5.5 -14.5s-8.5 -5.5 -14.5 -5.5s-10.833 1.83301 -14.5 5.5s-5.5 8.5 -5.5 14.5s1.83301 10.833 5.5 14.5s8.5 5.5 14.5 5.5s10.833 -1.83301 14.5 -5.5zM439.5 432.5c37 -41.667 55.5 -101.166 55.5 -178.499
c0 -82.667 -19.333 -146.334 -58 -191.001s-93.667 -67 -165 -67c-68.667 0 -121.5 21.5 -158.5 64.5s-55.5 104.167 -55.5 183.5c0 80.667 19.167 142.667 57.5 186s93.5 65 165.5 65c68.667 0 121.5 -20.833 158.5 -62.5zM130.5 416.001
c-34.333 -39.333 -51.5 -96.334 -51.5 -171.001s16.667 -131.667 50 -171s81 -59 143 -59c65.333 0 115.5 20.333 150.5 61s52.5 99.334 52.5 176.001c0 72 -16.833 127.167 -50.5 165.5s-81.834 57.5 -144.501 57.5c-65.333 0 -115.166 -19.667 -149.499 -59z" />
    <glyph glyph-name="yacute" unicode="&#xb4;y" horiz-adv-x="447" 
d="M188 558l-11 12.999c46 38.667 94.667 84.334 146 137.001l5 -1l10 -10l-1 -5c-46 -46 -94 -91 -144 -135zM226 185.999v-186h-20v187l-166 304h25l9 -21l140 -253h4l152 253l10 21h25z" />
    <glyph glyph-name="Itilde" unicode="&#x7e;I" horiz-adv-x="240" 
d="M130 0h-20v637h20v-637zM244 802l-0.000976562 -3.99902l-47 -47l-6 -2c-10.667 1.33301 -34.667 8 -72 20c-36 12 -57.667 18 -65 18c-3.33301 0 -7.66602 -2.33301 -12.999 -7s-11 -10.334 -17 -17.001l-16 -16h-3l-9 11v4l47 47l6 2c10.667 -1.33301 34.667 -8 72 -20
c36 -12 57.667 -18 65 -18c3.33301 0 7.33301 2 12 6s9.66699 9 15 15l19 19h3z" />
    <glyph glyph-name="itilde" unicode="&#x7e;i" horiz-adv-x="237" 
d="M244 656l-0.000976562 -3.99902l-47 -47l-6 -2c-10.667 1.33301 -34.667 8 -72 20c-36 12 -57.667 18 -65 18c-3.33301 0 -7.66602 -2.33301 -12.999 -7s-11 -10.334 -17 -17.001l-16 -16h-3l-9 11v4l47 47l6 2c10.667 -1.33301 34.667 -8 72 -20
c36 -12 57.667 -18 65 -18c3.33301 0 7.33301 2 12 6s9.66699 9 15 15l19 19h3zM127.999 0.000976562h-20v491h20v-491z" />
    <glyph glyph-name="Utilde" unicode="&#x7e;U" horiz-adv-x="612" 
d="M526 229c2 -73.333 -16.334 -130.5 -55.001 -171.5s-93.667 -61.5 -165 -61.5s-125.833 20 -163.5 60s-56.5 97.667 -56.5 173v408h20v-408c-0.666992 -68.667 16.333 -121.334 51 -158.001s84.334 -55 149.001 -55s114.167 18.333 148.5 55s51.5 89.334 51.5 158.001
v408h20v-408zM448.999 805v-4l-52 -47l-6 -2c-13.333 1.33301 -40.333 8 -81 20c-4 1.33301 -15.667 4.66602 -35 9.99902s-32.666 8 -39.999 8c-3.33301 0 -7.66602 -2 -12.999 -6s-11 -9.33301 -17 -16l-21 -19h-4l-9 11v4l52 47l6 2c13.333 -1.33301 40.333 -8 81 -20
c4 -1.33301 15.667 -4.66602 35 -9.99902s32.666 -8 39.999 -8c3.33301 0 7.66602 2 12.999 6s11 9.33301 17 16l21 19h4z" />
    <glyph glyph-name="utilde" unicode="&#x7e;u" horiz-adv-x="541" 
d="M413 659v-4l-52 -47l-6 -2c-13.333 1.33301 -40.333 8 -81 20c-4 1.33301 -15.667 4.66602 -35 9.99902s-32.666 8 -39.999 8c-3.33301 0 -7.66602 -2 -12.999 -6s-11 -9.33301 -17 -16l-21 -19h-4l-9 11v4l52 47l6 2c13.333 -1.33301 40.333 -8 81 -20
c4 -1.33301 15.667 -4.66602 35 -9.99902s32.666 -8 39.999 -8c3.33301 0 7.66602 2 12.999 6s11 9.33301 17 16l21 19h4zM452 176c1.33301 -56.667 -14.002 -100.667 -46.002 -132s-77.333 -47 -136 -47c-59.333 0 -104.5 15.5 -135.5 46.5s-46.167 75.167 -45.5 132.5
l1 72v243h21l-2 -314c-0.666992 -52 12.833 -91.833 40.5 -119.5s67.834 -41.5 120.501 -41.5s92.834 13.833 120.501 41.5s41.5 67.5 41.5 119.5v314h20v-315z" />
    <glyph glyph-name="uni1EBC" unicode="&#x7e;E" horiz-adv-x="454" 
d="M425 16l-4 -16h-311v637h308l3 -4l-4 -16h-287v-277h238l3 -4l-4 -16h-237v-300h292zM405 805v-4l-52 -47l-6 -2c-13.333 1.33301 -40.333 8 -81 20c-4 1.33301 -15.667 4.66602 -35 9.99902s-32.666 8 -39.999 8c-3.33301 0 -7.66602 -2 -12.999 -6
s-11 -9.33301 -17 -16l-21 -19h-4l-9 11v4l52 47l6 2c13.333 -1.33301 40.333 -8 81 -20c4 -1.33301 15.667 -4.66602 35 -9.99902s32.666 -8 39.999 -8c3.33301 0 7.66602 2 12.999 6s11 9.33301 17 16l21 19h4z" />
    <glyph glyph-name="uni1EBD" unicode="&#x7e;e" horiz-adv-x="412" 
d="M376 659v-4l-52 -47l-6 -2c-13.333 1.33301 -40.333 8 -81 20c-4 1.33301 -15.667 4.66602 -35 9.99902s-32.666 8 -39.999 8c-3.33301 0 -7.66602 -2 -12.999 -6s-11 -9.33301 -17 -16l-21 -19h-4l-9 11v4l52 47l6 2c13.333 -1.33301 40.333 -8 81 -20
c4 -1.33301 15.667 -4.66602 35 -9.99902s32.666 -8 39.999 -8c3.33301 0 7.66602 2 12.999 6s11 9.33301 17 16l21 19h4zM370 16l-4 -16h-258v491h256l3 -4l-4 -16l-235 1v-208h195l2 -4l-3 -16h-194v-225h239z" />
    <glyph glyph-name="uni1EF8" unicode="&#x7e;Y" horiz-adv-x="495" 
d="M248 245v-245h-20v246l-202 391h26l11 -26l173 -334h5l188 334l11 26h26zM378 805v-4l-52 -47l-6 -2c-13.333 1.33301 -40.333 8 -81 20c-4 1.33301 -15.667 4.66602 -35 9.99902s-32.666 8 -39.999 8c-3.33301 0 -7.66602 -2 -12.999 -6s-11 -9.33301 -17 -16l-21 -19
h-4l-9 11v4l52 47l6 2c13.333 -1.33301 40.333 -8 81 -20c4 -1.33301 15.667 -4.66602 35 -9.99902s32.666 -8 39.999 -8c3.33301 0 7.66602 2 12.999 6s11 9.33301 17 16l21 19h4z" />
    <glyph glyph-name="uni1EF9" unicode="&#x7e;y" horiz-adv-x="447" 
d="M96 603l-9 11v4l52 47l6 2c13.333 -1.33301 40.333 -8 81 -20c4 -1.33301 15.667 -4.66602 35 -9.99902s32.666 -8 39.999 -8c3.33301 0 7.66602 2 12.999 6s11 9.33301 17 16l21 19h4l9 -11v-4l-52 -47l-6 -2c-13.333 1.33301 -40.333 8 -81 20
c-4 1.33301 -15.667 4.66602 -35 9.99902s-32.666 8 -39.999 8c-3.33301 0 -7.66602 -2 -12.999 -6s-11 -9.33301 -17 -16l-21 -19h-4zM226 186v-186h-20v187l-166 304h25l9 -21l140 -253h4l152 253l10 21h25z" />
    <glyph glyph-name="Gtilde" unicode="&#x7e;G" horiz-adv-x="603" 
d="M432.5 627c31 -9.33301 61.168 -22.668 90.501 -40.001l-6 -18h-7c-58 34.667 -113.667 52 -167 52c-88 0 -155.833 -26.667 -203.5 -80s-71.5 -129.666 -71.5 -228.999c0 -95.333 20.667 -168.666 62 -219.999s100.333 -77 177 -77c31.333 0 60.166 2.16699 86.499 6.5
s60.5 12.166 102.5 23.499v201l20 2v-218c-44 -12.667 -80.5 -21.5 -109.5 -26.5s-61.833 -7.83301 -98.5 -8.5c-83.333 0 -147.5 27.5 -192.5 82.5s-67.5 133.5 -67.5 235.5c0 105.333 25.5 186.333 76.5 243s123.833 85 218.5 85c28.667 0 58.5 -4.66699 89.5 -14z
M464.001 804.998v-4l-52 -47l-6 -2c-13.333 1.33301 -40.333 8 -81 20c-4 1.33301 -15.667 4.66602 -35 9.99902s-32.666 8 -39.999 8c-3.33301 0 -7.66602 -2 -12.999 -6s-11 -9.33301 -17 -16l-21 -19h-4l-9 11v4l52 47l6 2c13.333 -1.33301 40.333 -8 81 -20
c4 -1.33301 15.667 -4.66602 35 -9.99902s32.666 -8 39.999 -8c3.33301 0 7.66602 2 12.999 6s11 9.33301 17 16l21 19h4z" />
    <glyph glyph-name="gtilde" unicode="&#x7e;g" horiz-adv-x="532" 
d="M423 659v-4l-52 -47l-6 -2c-13.333 1.33301 -40.333 8 -81 20c-4 1.33301 -15.667 4.66602 -35 9.99902s-32.666 8 -39.999 8c-3.33301 0 -7.66602 -2 -12.999 -6s-11 -9.33301 -17 -16l-21 -19h-4l-9 11v4l52 47l6 2c13.333 -1.33301 40.333 -8 81 -20
c4 -1.33301 15.667 -4.66602 35 -9.99902s32.666 -8 39.999 -8c3.33301 0 7.66602 2 12.999 6s11 9.33301 17 16l21 19h4zM375 483.5c25.333 -7 50.001 -17.166 74.001 -30.499l-6 -18h-5c-49.333 26.667 -95 40 -137 40c-71.333 0 -126.166 -20.167 -164.499 -60.5
s-57.5 -98.5 -57.5 -174.5c0 -72.667 16.667 -128.334 50 -167.001s81 -58 143 -58c25.333 0 48.666 1.5 69.999 4.5s48.666 8.83301 81.999 17.5v146l20 2v-162c-37.333 -10 -68 -16.833 -92 -20.5s-50.667 -5.5 -80 -5.5c-68.667 0 -121.5 21 -158.5 63
s-55.5 102.333 -55.5 181c0 81.333 21 143.833 63 187.5s102 65.5 180 65.5c24 0 48.667 -3.5 74 -10.5z" />
    <glyph glyph-name=".notdef" horiz-adv-x="180" 
 />
    <glyph glyph-name="nonmarkingreturn" unicode="&#xd;" horiz-adv-x="180" 
 />
    <glyph glyph-name="space" unicode=" " horiz-adv-x="180" 
 />
    <glyph glyph-name="exclam" unicode="!" horiz-adv-x="225" 
d="M128 498l-8 -363h-15l-4 5l8 358l3 3h13zM125 16c0 -5.33301 -1.66699 -9.83301 -5 -13.5s-8 -5.5 -14 -5.5c-5.33301 0 -9.83301 1.83301 -13.5 5.5s-5.5 8.16699 -5.5 13.5c0 6 1.83301 10.667 5.5 14s8.16699 5 13.5 5c12.667 0 19 -6.33301 19 -19z" />
    <glyph glyph-name="quotedbl" unicode="&#x22;" horiz-adv-x="222" 
d="M79 486l-12 -144l-17 -2l-3 4l12 144l17 2zM176 486l-12 -144l-17 -2l-3 4l12 144l17 2z" />
    <glyph glyph-name="numbersign" unicode="#" horiz-adv-x="480" 
d="M330 374l-32 -129h121l3 -3l-2 -17h-127l-49 -193h-16l-3 4l48 189h-118l-49 -193h-16l-3 4l48 189h-112l-3 3l2 17h118l33 129h-112l-3 3l2 17h118l46 181h16l2 -5l-44 -176h118l46 181h16l2 -5l-44 -176h121l3 -3l-2 -17h-128zM311 374h-119l-32 -129h118z" />
    <glyph glyph-name="dollar" unicode="$" horiz-adv-x="404" 
d="M301 38c-26.667 -24.667 -60.6631 -38.335 -101.996 -41.002l-11 -121h-15l-4 4l10 117c-20.667 1.33301 -41.334 5 -62.001 11s-39.334 14.333 -56.001 25l1 19l5 1c16 -11.333 34.167 -20.166 54.5 -26.499s40.166 -9.83301 59.499 -10.5l19 225
c-28 12.667 -50.333 24.167 -67 34.5s-30.834 23.333 -42.501 39s-17.5 34.5 -17.5 56.5s6.33301 42.333 19 61s30.167 33.5 52.5 44.5s47.833 16.5 76.5 16.5l13 147h16l4 -5l-12 -143c28 -2.66699 55.333 -9.66699 82 -21l-4 -18l-6 -1c-24.667 12 -49.334 19 -74.001 21
l-19 -218c38.667 -18 68.334 -36.167 89.001 -54.5s31 -43.166 31 -74.499c0 -34 -13.333 -63.333 -40 -88zM120.004 310.999c18 -14.667 45.333 -30.334 82 -47.001l17 210c-26 0 -48.5 -5.16699 -67.5 -15.5s-33.5 -23.666 -43.5 -39.999s-15 -32.833 -15 -49.5
c0 -24 9 -43.333 27 -58zM288.004 52.999c22 21.333 32.999 45.332 32.999 71.999c0 24.667 -8.66699 44.834 -26 60.501s-42.666 31.167 -75.999 46.5l-18 -215c36 2.66699 65 14.667 87 36z" />
    <glyph glyph-name="percent" unicode="%" horiz-adv-x="792" 
d="M623 664l3 -8l-485 -746l-9 4l-4 9l485 746zM288 594c23.333 -29.333 35 -71.333 35 -126c0 -55.333 -11.833 -97.833 -35.5 -127.5s-57.5 -44.5 -101.5 -44.5s-77.667 14.667 -101 44s-35 71.333 -35 126c0 55.333 11.833 97.833 35.5 127.5s57.834 44.5 102.501 44.5
c43.333 0 76.666 -14.667 99.999 -44zM98.5 580c-20.333 -26 -30.5 -63.333 -30.5 -112c0 -49.333 10.333 -87.166 31 -113.499s50.334 -39.5 89.001 -39.5c37.333 0 66.166 13 86.499 39s30.5 63.333 30.5 112c0 49.333 -10.167 87.166 -30.5 113.499
s-49.833 39.5 -88.5 39.5c-38 0 -67.167 -13 -87.5 -39zM707 295c23.333 -29.333 35 -71.333 35 -126c0 -55.333 -11.833 -97.833 -35.5 -127.5s-57.5 -44.5 -101.5 -44.5s-77.667 14.667 -101 44s-35 71.333 -35 126c0 55.333 11.833 97.833 35.5 127.5
s57.834 44.5 102.501 44.5c43.333 0 76.666 -14.667 99.999 -44zM517.5 281c-20.333 -26 -30.5 -63.333 -30.5 -112c0 -49.333 10.333 -87.166 31 -113.499s50.334 -39.5 89.001 -39.5c37.333 0 66.166 13 86.499 39s30.5 63.333 30.5 112
c0 49.333 -10.167 87.166 -30.5 113.499s-49.833 39.5 -88.5 39.5c-38 0 -67.167 -13 -87.5 -39z" />
    <glyph glyph-name="ampersand" unicode="&#x26;" horiz-adv-x="786" 
d="M838 357c-12.667 -30 -27.334 -51.8359 -44.001 -65.5029s-39.334 -21.5 -68.001 -23.5c-22.667 0 -64 6.66699 -124 20c2 -59.333 -8.66699 -111.5 -32 -156.5s-57.166 -79.833 -101.499 -104.5s-96.5 -37 -156.5 -37c-50.667 0 -95.334 11.333 -134.001 34
s-68.667 54.5 -90 95.5s-32 88.5 -32 142.5c0 44.667 7.83301 84.834 23.5 120.501s37 63.334 64 83.001s56.167 29.5 87.5 29.5c30.667 0 55.334 -7.5 74.001 -22.5s28 -34.5 28 -58.5c0 -20.667 -6.33301 -40.667 -19 -60c69.333 47.333 131.333 102 186 164
s96.667 126.333 126 193h4c3.33301 -6 6 -12.667 8 -20c-32.667 -70 -77.667 -136.667 -135 -200s-122.5 -119.166 -195.5 -167.499s-148.833 -85.166 -227.5 -110.499c9.33301 -62 34.666 -111.167 75.999 -147.5s93.333 -54.5 156 -54.5c56 0 104.833 11.667 146.5 35
s73.334 56.333 95.001 99s31.167 91.667 28.5 147c-40.667 8.66699 -68 13 -82 13c-23.333 0 -42.833 -6.16699 -58.5 -18.5s-28.167 -31.833 -37.5 -58.5l-5 -2l-13 10c12.667 30 27.334 51.833 44.001 65.5s39.334 21.5 68.001 23.5c11.333 0 26.833 -1.83301 46.5 -5.5
s39.5 -7.83398 59.5 -12.501c22 -4.66699 44.167 -9 66.5 -13s40.166 -6 53.499 -6c23.333 0 42.833 6.16699 58.5 18.5s28.167 31.833 37.5 58.5l5 2zM153 448.497c-24 -17.667 -42.832 -42.667 -56.499 -75s-20.5 -69.5 -20.5 -111.5c0 -13.333 0.333008 -23 1 -29
c66 22 130 52.333 192 91c18 14.667 30 30 36 46s8.33301 31.333 7 46c-0.666992 18 -8.33398 32.333 -23.001 43s-33.667 16 -57 16c-28.667 0 -55 -8.83301 -79 -26.5z" />
    <glyph glyph-name="quotesingle" unicode="'" horiz-adv-x="125" 
d="M79 486l-12 -144l-17 -2l-3 4l12 144l17 2z" />
    <glyph glyph-name="parenleft" unicode="(" horiz-adv-x="281" 
d="M275 652v-4c-58 -41.333 -99 -91.333 -123 -150s-36.333 -138 -37 -238c0.666992 -100 13 -179.333 37 -238s65 -108.667 123 -150v-4l-9 -11h-4c-40.667 29.333 -73 62 -97 98s-41.5 78.333 -52.5 127s-16.833 108 -17.5 178c0.666992 70 6.5 129.333 17.5 178
s28.5 91 52.5 127s56.333 68.667 97 98h4z" />
    <glyph glyph-name="parenright" unicode=")" horiz-adv-x="311" 
d="M14 -132v4c58 41.333 99 91.333 123 150s36.333 138 37 238c-0.666992 100 -13 179.333 -37 238s-65 108.667 -123 150v4l9 11h4c40.667 -29.333 73 -62 97 -98s41.5 -78.333 52.5 -127s16.833 -108 17.5 -178c-0.666992 -70 -6.5 -129.333 -17.5 -178
s-28.5 -91 -52.5 -127s-56.333 -68.667 -97 -98h-4z" />
    <glyph glyph-name="asterisk" unicode="*" horiz-adv-x="364" 
d="M199 713l-11 -113l-14 -2l-3 5l5 109c7.33301 2 14.333 3 21 3zM151 583l-3 -14l-5 -1l-102 38c0 9.33301 1 16.333 3 21l3 2zM327 597l-1 -2l-111 -25l-5 13l3 4l104 29c4 -4.66699 7.33301 -11 10 -19zM211 542l60 -90c-5.33301 -7.33301 -10.333 -12.333 -15 -15h-3
l-58 98l11 9zM168 536l-1 -6l-67 -85c-6.66699 2 -13 5.33301 -19 10l-1 3l76 85z" />
    <glyph glyph-name="plus" unicode="+" horiz-adv-x="480" 
d="M250 468v-188h188l3 -3l-2 -17h-189v-189l-17 -2l-3 3v188h-188l-3 3l2 17h189v189l17 2z" />
    <glyph glyph-name="comma" unicode="," horiz-adv-x="230" 
d="M149 -7c0 -13.333 -5.66602 -28.001 -16.999 -44.001s-27.666 -32.333 -48.999 -49l-10 11l1 3c17.333 12.667 30.666 25.834 39.999 39.501s14 26.5 14 38.5c0 13.333 -10 24.666 -30 33.999v4c3.33301 4.66699 7.66602 8.33398 12.999 11.001
c25.333 -11.333 38 -27.333 38 -48z" />
    <glyph glyph-name="hyphen" unicode="-" horiz-adv-x="311" 
d="M280 277v-16l-245 -33l-4 4v16l245 33z" />
    <glyph glyph-name="period" unicode="." horiz-adv-x="230" 
d="M129.5 32.5c3.66699 -3.66699 5.5 -8.5 5.5 -14.5s-1.83301 -10.833 -5.5 -14.5s-8.5 -5.5 -14.5 -5.5s-10.833 1.83301 -14.5 5.5s-5.5 8.5 -5.5 14.5s1.83301 10.833 5.5 14.5s8.5 5.5 14.5 5.5s10.833 -1.83301 14.5 -5.5z" />
    <glyph glyph-name="slash" unicode="/" horiz-adv-x="291" 
d="M270 670l-204 -780h-16l-3 4l204 781h16z" />
    <glyph glyph-name="zero" unicode="0" horiz-adv-x="535" 
d="M425.5 430c36.333 -43.333 54.501 -105.667 54.501 -187c0 -79.333 -18.333 -140.333 -55 -183s-89.334 -64 -158.001 -64c-68 0 -120.333 21.167 -157 63.5s-55 102.833 -55 181.5c0 82 18.333 144.833 55 188.5s89.667 65.5 159 65.5c68 0 120.167 -21.667 156.5 -65z
M125.001 414.999c-33.333 -40 -50.001 -97.333 -50.001 -172c0 -73.333 16.667 -129.5 50 -168.5s81.333 -58.5 144 -58.5c61.333 0 108.5 19.333 141.5 58s49.5 94.334 49.5 167.001c0 75.333 -16.667 133.166 -50 173.499s-81 60.5 -143 60.5
c-61.333 0 -108.666 -20 -141.999 -60z" />
    <glyph glyph-name="one" unicode="1" horiz-adv-x="328" 
d="M186 489v-489h-20v466l-146 -45l-5 3v16l167 53z" />
    <glyph glyph-name="two" unicode="2" horiz-adv-x="439" 
d="M298 464c21.333 -18.667 32 -42.3311 32 -70.998c0 -26.667 -9.83301 -57.334 -29.5 -92.001s-50.167 -76.667 -91.5 -126l-126 -152l2 -3h237l78 1l3 -4l-4 -18l-82 1h-222l-38 -1l-2 2v16l140 171c39.333 48 68.333 87.833 87 119.5s28 59.5 28 83.5
c0 23.333 -8.5 42.666 -25.5 57.999s-40.5 23 -70.5 23c-26.667 0 -52 -6.66699 -76 -20s-45.667 -32.333 -65 -57h-4l-4 17c19.333 24.667 42 44.167 68 58.5s53.333 21.5 82 21.5c34 0 61.667 -9.33301 83 -28z" />
    <glyph glyph-name="three" unicode="3" horiz-adv-x="392" 
d="M270.5 460.5c24.333 -21.667 36.498 -50.167 36.498 -85.5c0 -30.667 -9.66699 -59.834 -29 -87.501s-45 -48.834 -77 -63.501v-3c44 -9.33301 77.667 -26.833 101 -52.5s35 -57.834 35 -96.501c0 -33.333 -8.66699 -63 -26 -89s-41.5 -46.167 -72.5 -60.5
s-66.5 -21.5 -106.5 -21.5c-29.333 0 -58.333 2.66699 -87 8l-3 17l3 3c28.667 -5.33301 57.667 -8 87 -8c55.333 0 100 13.833 134 41.5s51 64.167 51 109.5c0 41.333 -14.667 73.833 -44 97.5s-71.333 36.834 -126 39.501h-47l-3 3l1 17h43
c20.667 0 42.334 6.33301 65.001 19s41.667 30 57 52s23 46 23 72c0 30 -10 54.167 -30 72.5s-46.333 27.5 -79 27.5c-22.667 0 -44.667 -5.16699 -66 -15.5s-42.666 -26.166 -63.999 -47.499h-4l-4 18c23.333 22.667 46 39.334 68 50.001s45.333 16 70 16
c38 0 69.167 -10.833 93.5 -32.5z" />
    <glyph glyph-name="four" unicode="4" horiz-adv-x="457" 
d="M421 115l-4 -17l-71 1h-34v-191l-2 -3l-16 -3l-2 3v194h-215l-42 -1l-3 4v17l260 372h20v-372h105zM292 119v333h-4l-232 -333h236z" />
    <glyph glyph-name="five" unicode="5" horiz-adv-x="403" 
d="M349 490l-1.99902 -17.998l-3 -2l-41 1h-195l-6 -206l66 -15c61.333 -14 106.333 -34 135 -60s43 -59.333 43 -100c0 -37.333 -9.33301 -70.333 -28 -99s-45 -50.834 -79 -66.501s-73.333 -23.5 -118 -23.5c-23.333 0 -47.666 2.33301 -72.999 7l-4 17l3 3
c27.333 -4.66699 52.333 -7 75 -7c61.333 0 110.666 15.5 147.999 46.5s56 72.167 56 123.5c0 34.667 -13.333 63.167 -40 85.5s-68.334 40.166 -125.001 53.499l-74 17l-4 5l5 232l9 8l49 -1h136l65 1z" />
    <glyph glyph-name="six" unicode="6" horiz-adv-x="456" 
d="M361 293c27.333 -28 41.002 -67.667 41.002 -119c0 -58 -15 -102.5 -45 -133.5s-73.333 -46.5 -130 -46.5c-53.333 0 -94.5 18.333 -123.5 55s-43.5 89 -43.5 157c0 89.333 26.167 167.5 78.5 234.5s126.166 117.5 221.499 151.5h4l9 -11v-4
c-81.333 -29.333 -146.333 -69.5 -195 -120.5s-79.334 -110.833 -92.001 -179.5l2 -2c48.667 40 101.667 60 159 60c48.667 0 86.667 -14 114 -42zM342.002 55.5c26.667 27.667 40.001 67.167 40.001 118.5c0 45.333 -12 80.166 -36 104.499s-57.333 36.5 -100 36.5
c-57.333 0 -112 -22.667 -164 -68c-1.33301 -17.333 -2 -31 -2 -41c0 -61.333 12.667 -108.666 38 -141.999s61.666 -50 108.999 -50c50 0 88.333 13.833 115 41.5z" />
    <glyph glyph-name="seven" unicode="7" horiz-adv-x="401" 
d="M96 491h238l36 1l1 -18l-223 -493l-35 -86l-19 6l-1 4l256 566h-259l-58 -1l-4 5l3 17z" />
    <glyph glyph-name="eight" unicode="8" horiz-adv-x="455" 
d="M334 553.5c24.667 -23.667 36.999 -56.1631 36.999 -97.4961c0 -38.667 -11 -69.5 -33 -92.5s-51.667 -41.833 -89 -56.5v-3c30 -12 54.667 -23.667 74 -35s35.5 -26.666 48.5 -45.999s19.5 -43.333 19.5 -72c0 -46.667 -15.667 -84.167 -47 -112.5s-73 -42.5 -125 -42.5
c-50 0 -89.833 13.5 -119.5 40.5s-44.5 62.833 -44.5 107.5c0 41.333 13.167 74.666 39.5 99.999s59.833 45.666 100.5 60.999v3c-35.333 15.333 -63 33.666 -83 54.999s-30 49.666 -30 84.999c0 43.333 14 77.666 42 102.999s64.333 38 109 38
c42.667 0 76.334 -11.833 101.001 -35.5zM137.999 536.504c-24 -21.667 -36 -51.167 -36 -88.5c0 -34.667 10.167 -61.167 30.5 -79.5s50.166 -35.833 89.499 -52.5c38.667 12.667 69.834 29.667 93.501 51s35.5 51.333 35.5 90c0 34.667 -10.5 62 -31.5 82
s-49.833 30 -86.5 30c-39.333 0 -71 -10.833 -95 -32.5zM114.499 238.004c-26.333 -22.667 -39.499 -54.333 -39.499 -95c0 -38 13 -68.667 39 -92s61 -35 105 -35c46 0 82.833 12.167 110.5 36.5s41.5 56.5 41.5 96.5c0 27.333 -6.83301 50 -20.5 68s-29.834 32 -48.501 42
s-46 22.333 -82 37c-44 -16 -79.167 -35.333 -105.5 -58z" />
    <glyph glyph-name="nine" unicode="9" horiz-adv-x="456" 
d="M95 199c-27.333 28 -41.002 67.667 -41.002 119c0 58 15 102.5 45 133.5s73.333 46.5 130 46.5c53.333 0 94.5 -18.333 123.5 -55s43.5 -89 43.5 -157c0 -89.333 -26.167 -167.5 -78.5 -234.5s-126.166 -117.5 -221.499 -151.5h-4l-9 11v4
c81.333 29.333 146.333 69.5 195 120.5s79.334 110.833 92.001 179.5l-2 2c-48.667 -40 -101.667 -60 -159 -60c-48.667 0 -86.667 14 -114 42zM113.998 436.5c-26.667 -27.667 -40.001 -67.167 -40.001 -118.5c0 -45.333 12 -80.166 36 -104.499s57.333 -36.5 100 -36.5
c57.333 0 112 22.667 164 68c1.33301 17.333 2 31 2 41c0 61.333 -12.667 108.666 -38 141.999s-61.666 50 -108.999 50c-50 0 -88.333 -13.833 -115 -41.5z" />
    <glyph glyph-name="colon" unicode=":" horiz-adv-x="230" 
d="M125.5 32.5c3.66699 -3.66699 5.5 -8.5 5.5 -14.5s-1.83301 -10.833 -5.5 -14.5s-8.5 -5.5 -14.5 -5.5s-10.833 1.83301 -14.5 5.5s-5.5 8.5 -5.5 14.5s1.83301 10.833 5.5 14.5s8.5 5.5 14.5 5.5s10.833 -1.83301 14.5 -5.5zM125.5 309.5
c3.66699 -3.66699 5.5 -8.5 5.5 -14.5s-1.83301 -10.833 -5.5 -14.5s-8.5 -5.5 -14.5 -5.5s-10.833 1.83301 -14.5 5.5s-5.5 8.5 -5.5 14.5s1.83301 10.833 5.5 14.5s8.5 5.5 14.5 5.5s10.833 -1.83301 14.5 -5.5z" />
    <glyph glyph-name="semicolon" unicode=";" horiz-adv-x="230" 
d="M145 -7c0 -13.333 -5.66602 -28.001 -16.999 -44.001s-27.666 -32.333 -48.999 -49l-10 11l1 3c17.333 12.667 30.666 25.834 39.999 39.501s14 26.5 14 38.5c0 13.333 -10 24.666 -30 33.999v4c3.33301 4.66699 7.66602 8.33398 12.999 11.001
c25.333 -11.333 38 -27.333 38 -48zM125.501 309.499c3.66699 -3.66699 5.5 -8.5 5.5 -14.5s-1.83301 -10.833 -5.5 -14.5s-8.5 -5.5 -14.5 -5.5s-10.833 1.83301 -14.5 5.5s-5.5 8.5 -5.5 14.5s1.83301 10.833 5.5 14.5s8.5 5.5 14.5 5.5s10.833 -1.83301 14.5 -5.5z" />
    <glyph glyph-name="less" unicode="&#x3c;" horiz-adv-x="480" 
d="M439 441l-3 -5l-370 -164v-4l374 -153l-6 -15l-4 -2l-390 160v22l3 4l389 171z" />
    <glyph glyph-name="equal" unicode="=" horiz-adv-x="480" 
d="M441 349l-2 -17h-397l-3 3l2 17h397zM441 205l-2 -17h-397l-3 3l2 17h397z" />
    <glyph glyph-name="greater" unicode="&#x3e;" horiz-adv-x="480" 
d="M437 284l3 -4v-22l-390 -160l-4 2l-6 15l374 153v4l-370 164l-3 5l7 14z" />
    <glyph glyph-name="question" unicode="?" horiz-adv-x="271" 
d="M197.5 457.5c33.667 -21.667 50.499 -50.833 50.499 -87.5c0 -20.667 -5.66699 -40.167 -17 -58.5s-28 -34.5 -50 -48.5l-83 -54v-2l3 -75l-17 -1l-2 4l-5 76l4 8l87 57c18.667 12 33.334 26 44.001 42s16 32.667 16 50c0 32.667 -16 58.667 -48 78
s-77.667 30.333 -137 33l-2 3l6 14l5 2c63.333 -5.33301 111.833 -18.833 145.5 -40.5zM107.499 27.501c3.66699 -3.66699 5.5 -8.16699 5.5 -13.5s-1.83301 -9.66602 -5.5 -12.999s-8.16699 -5 -13.5 -5s-9.66602 1.66699 -12.999 5s-5 7.66602 -5 12.999
s1.66699 9.83301 5 13.5s7.66602 5.5 12.999 5.5s9.83301 -1.83301 13.5 -5.5z" />
    <glyph glyph-name="at" unicode="@" horiz-adv-x="805" 
d="M611 553c48.667 -26 86.167 -62.1621 112.5 -108.495s39.5 -99.833 39.5 -160.5c0 -88 -25.667 -156.5 -77 -205.5s-125.666 -76.5 -222.999 -82.5l36 276v-1h-5c-30 -56.667 -62.333 -108.667 -97 -156s-69.667 -87 -105 -119h-11
c-18 13.333 -31.167 30.666 -39.5 51.999s-12.5 51 -12.5 89c0 56.667 8.83301 108.667 26.5 156s43.667 85.666 78 114.999s75.166 45.666 122.499 48.999h4l65 -5l13 7l5 -3l-46 -350l-8 -90c82.667 8 145.667 34.833 189 80.5s65 108.167 65 187.5
c0 57.333 -12.167 107.666 -36.5 150.999s-59.333 77 -105 101s-99.167 36 -160.5 36c-74.667 0 -140.5 -16 -197.5 -48s-101.167 -76.5 -132.5 -133.5s-47 -122.5 -47 -196.5s15.833 -138 47.5 -192s76.667 -95.333 135 -124s126.166 -43 203.499 -43l1 -4l-13 -16
c-78 1.33301 -146.667 17.666 -206 48.999s-105.5 75 -138.5 131s-49.5 121 -49.5 195c0 79.333 16.5 149.5 49.5 210.5s79.5 108.167 139.5 141.5s129.333 50 208 50c64.667 0 121.334 -13 170.001 -39zM333 64.0049c24 26.667 51.667 63.667 83 111s62 101 92 161l3 26
l7 70l-60 5c-42 -0.666992 -78.833 -14.834 -110.5 -42.501s-56 -64 -73 -109s-25.5 -93.167 -25.5 -144.5c0 -27.333 2.33301 -49.666 7 -66.999s10.167 -30 16.5 -38s11.833 -12 16.5 -12c5.33301 0 20 13.333 44 40z" />
    <glyph glyph-name="A" unicode="A" horiz-adv-x="554" 
d="M526 0h-23l-13 43l-63 170h-302l-68 -170l-14 -43h-24l254 637h20zM284 603h-4l-147 -370h287z" />
    <glyph glyph-name="B" unicode="B" horiz-adv-x="492" 
d="M408.5 284.5c25.667 -26.333 38.5 -62.5 38.5 -108.5c0 -56.667 -19.667 -100.667 -59 -132s-95.666 -47 -168.999 -47c-38.667 0 -75 1 -109 3v637l123 2c52.667 0 93.167 -12.833 121.5 -38.5s42.5 -62.167 42.5 -109.5c0 -40 -8.33301 -73.167 -25 -99.5
s-40.334 -45.5 -71.001 -57.5c46 -6.66699 81.833 -23.167 107.5 -49.5zM130 618v-275l130 -3c37.333 7.33301 66 24 86 50s30 59.667 30 101c0 38.667 -12.333 69.5 -37 92.5s-57.667 34.5 -99 34.5h-110zM372 59c36.667 28 55 66.999 55 116.999
c0 42.667 -13.667 76.334 -41 101.001s-66.333 39 -117 43h-139v-300c26 -2 54.333 -3 85 -3c68 0 120.333 14 157 42z" />
    <glyph glyph-name="C" unicode="C" horiz-adv-x="523" 
d="M406 625.5c30.667 -10.333 58.333 -24.833 83 -43.5l-7 -17h-7c-22.667 18 -47.834 31.833 -75.501 41.5s-56.5 14.5 -86.5 14.5c-79.333 0 -140 -26.333 -182 -79s-63 -128 -63 -226c0 -96.667 20 -171 60 -223s97.667 -78 173 -78c32 0 63.833 5.83301 95.5 17.5
s60.834 28.167 87.501 49.5l7 -2l-2 -18c-28 -21.333 -58.333 -37.833 -91 -49.5s-64.667 -17.5 -96 -17.5c-82 0 -144.833 27.833 -188.5 83.5s-65.5 135.167 -65.5 238.5c0 104 22.833 184 68.5 240s111.167 84 196.5 84c31.333 0 62.333 -5.16699 93 -15.5z" />
    <glyph glyph-name="D" unicode="D" horiz-adv-x="637" 
d="M517 563.5c48 -52.333 72.001 -127.167 72.001 -224.5c0 -110.667 -24.833 -195.667 -74.5 -255s-120.834 -89 -213.501 -89c-22.667 0 -52.667 0.5 -90 1.5s-71 2.16699 -101 3.5v637l201 5c89.333 0 158 -26.167 206 -78.5zM499.501 98.999
c46.333 56 69.5029 136 69.5029 240c0 91.333 -22.333 161.333 -67 210s-108.334 73 -191.001 73c-20.667 0 -48.834 -0.5 -84.501 -1.5s-67.834 -2.16699 -96.501 -3.5v-597c28 -1.33301 58.5 -2.5 91.5 -3.5s59.5 -1.5 79.5 -1.5c86 0 152.167 28 198.5 84z" />
    <glyph glyph-name="E" unicode="E" horiz-adv-x="454" 
d="M425 16l-4 -16h-311v637h308l3 -4l-4 -16h-287v-277h238l3 -4l-4 -16h-237v-300h292z" />
    <glyph glyph-name="F" unicode="F" horiz-adv-x="411" 
d="M130 330h227l3 -4l-4 -16h-226v-310h-20v637h297l3 -4l-4 -16h-276v-287z" />
    <glyph glyph-name="G" unicode="G" horiz-adv-x="603" 
d="M432.5 627c31 -9.33301 61.168 -22.668 90.501 -40.001l-6 -18h-7c-58 34.667 -113.667 52 -167 52c-88 0 -155.833 -26.667 -203.5 -80s-71.5 -129.666 -71.5 -228.999c0 -95.333 20.667 -168.666 62 -219.999s100.333 -77 177 -77c31.333 0 60.166 2.16699 86.499 6.5
s60.5 12.166 102.5 23.499v201l20 2v-218c-44 -12.667 -80.5 -21.5 -109.5 -26.5s-61.833 -7.83301 -98.5 -8.5c-83.333 0 -147.5 27.5 -192.5 82.5s-67.5 133.5 -67.5 235.5c0 105.333 25.5 186.333 76.5 243s123.833 85 218.5 85c28.667 0 58.5 -4.66699 89.5 -14z" />
    <glyph glyph-name="H" unicode="H" horiz-adv-x="670" 
d="M560 637v-637h-20v314h-410v-314h-20v637h20v-303h410v303h20z" />
    <glyph glyph-name="I" unicode="I" horiz-adv-x="240" 
d="M130 0h-20v637h20v-637z" />
    <glyph glyph-name="J" unicode="J" horiz-adv-x="268" 
d="M160 115c0 -46.667 -9.83301 -86.167 -29.5 -118.5s-52.834 -63.833 -99.501 -94.5l-11 11v6c42.667 28 73.334 57 92.001 87s28 65.667 28 107v504h-128l-4 4l3 16h149v-522z" />
    <glyph glyph-name="K" unicode="K" horiz-adv-x="507" 
d="M130 0h-20v637h20v-637zM186 340c97.333 -117.333 201.333 -229.001 312 -335.001v-4c-2 -2 -6.66699 -4.66699 -14 -8l-4 1c-122 118.667 -229 233.334 -321 344.001v3l249 249l43 47h31z" />
    <glyph glyph-name="L" unicode="L" horiz-adv-x="398" 
d="M393 16l-4 -16h-280v637h20v-617h261z" />
    <glyph glyph-name="M" unicode="M" horiz-adv-x="781" 
d="M705 0h-21l-20 195l-44 394h-5l-214 -508h-25l-210 508h-5l-43 -394l-21 -195h-21l70 637h23l40 -99l177 -428h4l187 439l37 88h23z" />
    <glyph glyph-name="N" unicode="N" horiz-adv-x="670" 
d="M559 176l-1 -176h-19l-404 595h-4l-1 -396v-199h-20v190l1 447h19l404 -595h4l2 594l20 2z" />
    <glyph glyph-name="O" unicode="O" horiz-adv-x="627" 
d="M511.5 561c45 -54 67.499 -131.333 67.499 -232c0 -107.333 -23.333 -189.833 -70 -247.5s-113.667 -86.5 -201 -86.5c-83.333 0 -147.5 27.833 -192.5 83.5s-67.5 135.167 -67.5 238.5c0 104.667 23.333 185 70 241s113.334 84 200.001 84c84 0 148.5 -27 193.5 -81z
M132.499 543c-43 -52.667 -64.499 -128 -64.499 -226c0 -96.667 20.667 -171.167 62 -223.5s100.666 -78.5 177.999 -78.5c80.667 0 142.667 27.167 186 81.5s65 131.833 65 232.5c0 94 -20.833 166.333 -62.5 217s-101.167 76 -178.5 76
c-80.667 0 -142.5 -26.333 -185.5 -79z" />
    <glyph glyph-name="P" unicode="P" horiz-adv-x="484" 
d="M385 592.5c31.333 -31 47.001 -75.167 47.001 -132.5c0 -68 -18.333 -120.167 -55 -156.5s-89.334 -54.5 -158.001 -54.5h-89v-249h-20v637l141 2c58 0 102.667 -15.5 134 -46.5zM369.501 326.5c28.333 33.667 42.5 78.167 42.5 133.5
c0 49.333 -13.333 87.666 -40 114.999s-64.667 42 -114 44l-128 -1v-349h119c52 4.66699 92.167 23.834 120.5 57.501z" />
    <glyph glyph-name="Q" unicode="Q" horiz-adv-x="628" 
d="M533.5 -109.5c63 -28.333 128.166 -46.5029 195.499 -54.5029v-6l-8 -12h-5c-68 8.66699 -134.833 28.334 -200.5 59.001s-125.5 70.334 -179.5 119.001c-6 -0.666992 -15.333 -1 -28 -1c-83.333 0 -147.5 27.833 -192.5 83.5s-67.5 135.167 -67.5 238.5
c0 104.667 23.333 185 70 241s113.334 84 200.001 84c84 0 148.5 -27 193.5 -81s67.5 -131.333 67.5 -232c0 -96 -18.667 -172.167 -56 -228.5s-91 -90.166 -161 -101.499c51.333 -44 108.5 -80.167 171.5 -108.5zM129.999 93.4971c41.333 -52.333 100.667 -78.5 178 -78.5
c80.667 0 142.667 27.167 186 81.5s65 131.833 65 232.5c0 94 -20.833 166.333 -62.5 217s-101.167 76 -178.5 76c-80.667 0 -142.5 -26.333 -185.5 -79s-64.5 -128 -64.5 -226c0 -96.667 20.667 -171.167 62 -223.5z" />
    <glyph glyph-name="R" unicode="R" horiz-adv-x="518" 
d="M466 5l-0.00195312 -3.99902c-3.33301 -3.33301 -7.33301 -6 -12 -8l-6 2c-71.333 93.333 -132.666 182.666 -183.999 267.999h-134v-263h-20v637l141 2c58 0 102.667 -15 134 -45s47 -73.333 47 -130c0 -49.333 -12.667 -90.833 -38 -124.5
s-61.666 -57.834 -108.999 -72.501c52 -85.333 112.333 -172.666 181 -261.999zM129.998 283.001l142 0.000976562c44.667 11.333 79.167 32.666 103.5 63.999s36.5 70.333 36.5 117c0 49.333 -13.333 87.333 -40 114s-64.667 40 -114 40h-128v-335z" />
    <glyph glyph-name="S" unicode="S" horiz-adv-x="445" 
d="M368 611l-4.00391 -17.998l-7 -1c-18.667 9.33301 -38 16.333 -58 21s-38.333 7 -55 7c-32 0 -60 -6.83301 -84 -20.5s-42.333 -31.334 -55 -53.001s-19 -43.834 -19 -66.501c0 -23.333 6.33301 -43.5 19 -60.5s28.167 -31 46.5 -42s43.833 -24.5 76.5 -40.5
c36 -18 64.5 -33.667 85.5 -47s39 -30.5 54 -51.5s22.5 -46.5 22.5 -76.5c0 -29.333 -8 -56.833 -24 -82.5s-38.167 -46 -66.5 -61s-60.166 -22.5 -95.499 -22.5c-26 0 -52.667 4 -80 12s-51.333 19.667 -72 35l1 19l5 2c20 -16 43 -28 69 -36s51.333 -12 76 -12
c32.667 0 61.834 7 87.501 21s45.334 32.167 59.001 54.5s20.5 45.833 20.5 70.5c0 25.333 -6.66699 47 -20 65s-29.5 33 -48.5 45s-45.167 26 -78.5 42c-35.333 17.333 -63.166 32.5 -83.499 45.5s-37.666 29.667 -51.999 50s-21.5 44.833 -21.5 73.5s7.66699 55 23 79
s36.666 43 63.999 57s58.333 21 93 21c40 0 80.667 -9.66699 122 -29z" />
    <glyph glyph-name="T" unicode="T" horiz-adv-x="475" 
d="M447 633l-4 -16h-195v-617h-20v617h-197l-3 4l4 16h412z" />
    <glyph glyph-name="U" unicode="U" horiz-adv-x="612" 
d="M526 229c2 -73.333 -16.334 -130.5 -55.001 -171.5s-93.667 -61.5 -165 -61.5s-125.833 20 -163.5 60s-56.5 97.667 -56.5 173v408h20v-408c-0.666992 -68.667 16.333 -121.334 51 -158.001s84.334 -55 149.001 -55s114.167 18.333 148.5 55s51.5 89.334 51.5 158.001
v408h20v-408z" />
    <glyph glyph-name="V" unicode="V" horiz-adv-x="538" 
d="M273 0h-20l-233 637h23l13 -43l206 -560h4l223 560l14 43h24z" />
    <glyph glyph-name="W" unicode="W" horiz-adv-x="884" 
d="M622 0h-20l-156 438h-4l-170 -438h-20l-229 637h23l13 -43l202 -560h4l169 437l-60 166h22l13 -43l202 -560h4l219 560l14 43h23z" />
    <glyph glyph-name="X" unicode="X" horiz-adv-x="570" 
d="M298 330l231 -330h-27l-24 38l-193 276l-193 -278l-22 -36h-27l229 330l-215 307h28l22 -35l178 -256l174 251l24 40h27z" />
    <glyph glyph-name="Y" unicode="Y" horiz-adv-x="495" 
d="M248 245v-245h-20v246l-202 391h26l11 -26l173 -334h5l188 334l11 26h26z" />
    <glyph glyph-name="Z" unicode="Z" horiz-adv-x="507" 
d="M460 620l-401 -600h331l68 1l4 -5l-3 -16h-391l-36 -1v18l401 600h-320l-58 -1l-4 5l3 17l65 -1h304l37 1v-18z" />
    <glyph glyph-name="bracketleft" unicode="[" horiz-adv-x="281" 
d="M267 642v-15l-130 -9v-723l130 -9v-15l-4 -4l-146 10v759l146 10z" />
    <glyph glyph-name="backslash" unicode="\" horiz-adv-x="291" 
d="M21 670l3 5h16l204 -781l-3 -4h-16z" />
    <glyph glyph-name="bracketright" unicode="]" horiz-adv-x="281" 
d="M14 -129v15l130 9v723l-130 9v15l4 4l146 -10v-759l-146 -10z" />
    <glyph glyph-name="asciicircum" unicode="^" horiz-adv-x="407" 
d="M382 121l-2 -4l-15 -5l-153 350h-4l-164 -346l-5 -3l-14 7l171 364l4 3h22z" />
    <glyph glyph-name="underscore" unicode="_" horiz-adv-x="455" 
d="M470 -89l-2 -17h-480l-3 3l2 17h480z" />
    <glyph glyph-name="grave" unicode="`" horiz-adv-x="390" 
d="M276 532l-11 -12.999l-5 -1c-50 44 -98 89 -144 135l-1 5l10 10l5 1c51.333 -52.667 100 -98.334 146 -137.001z" />
    <glyph glyph-name="a" unicode="a" horiz-adv-x="494" 
d="M452 0h-23l-10 35l-49 126h-248l-53 -126l-12 -35h-23l207 491h21zM252 461h-3l-119 -281h232z" />
    <glyph glyph-name="b" unicode="b" horiz-adv-x="444" 
d="M357.5 219c21 -20 31.501 -47.666 31.501 -82.999c0 -44 -16.333 -78 -49 -102s-79.334 -36 -140.001 -36c-42 0 -72.667 0.666992 -92 2v491l105 1c43.333 0 76.833 -9.83301 100.5 -29.5s35.5 -47.834 35.5 -84.501c0 -60 -26.333 -100.333 -79 -121
c37.333 -5.33301 66.5 -18 87.5 -38zM128.001 473.001v-207.999l106 -2c30 5.33301 53 17.833 69 37.5s24 45.167 24 76.5c0 29.333 -10 52.666 -30 69.999s-47 26 -81 26h-88zM323.501 47.502c29.667 21 44.499 50.5 44.499 88.5c0 32 -10.833 57.333 -32.5 76
s-53.167 29.667 -94.5 33l-113 -1v-225c22 -2 45 -3 69 -3c54.667 0 96.834 10.5 126.501 31.5z" />
    <glyph glyph-name="c" unicode="c" horiz-adv-x="467" 
d="M353 482.5c25.333 -7.66699 48.0029 -18.499 68.0029 -32.499l-6 -18h-6c-18.667 13.333 -39.334 23.833 -62.001 31.5s-46 11.5 -70 11.5c-64.667 0 -113.834 -19.833 -147.501 -59.5s-50.5 -96.834 -50.5 -171.501c0 -74 16.167 -130.667 48.5 -170
s78.833 -59 139.5 -59c26 0 52 4.5 78 13.5s49.667 21.5 71 37.5l6 -2l-2 -18c-22.667 -16 -47.334 -28.333 -74.001 -37s-52.667 -13 -78 -13c-68 0 -120 21.333 -156 64s-54 104 -54 184s18.833 141.667 56.5 185s91.834 65 162.501 65
c25.333 0 50.666 -3.83301 75.999 -11.5z" />
    <glyph glyph-name="d" unicode="d" horiz-adv-x="561" 
d="M444 434.5c39.333 -40.333 59.002 -98.167 59.002 -173.5c0 -84.667 -20.5 -150 -61.5 -196s-99.5 -69 -175.5 -69c-19.333 0 -44.333 0.333008 -75 1s-58.334 1.66699 -83.001 3v491l167 4c73.333 0 129.666 -20.167 168.999 -60.5zM427.002 78.499
c37.333 42.333 56.001 102.833 56.001 181.5c0 69.333 -18 122.5 -54 159.5s-87.667 55.5 -155 55.5l-146 -4v-452c22 -1.33301 46.5 -2.33301 73.5 -3s48.833 -1 65.5 -1c69.333 0 122.666 21.167 159.999 63.5z" />
    <glyph glyph-name="e" unicode="e" horiz-adv-x="412" 
d="M370 16l-4 -16h-258v491h256l3 -4l-4 -16l-235 1v-208h195l2 -4l-3 -16h-194v-225h239z" />
    <glyph glyph-name="f" unicode="f" horiz-adv-x="369" 
d="M122 255h103l82 1l3 -4l-3 -16h-185v-236h-20v491h247l2 -4l-3 -16l-226 1v-217z" />
    <glyph glyph-name="g" unicode="g" horiz-adv-x="532" 
d="M375 483.5c25.333 -7 50.001 -17.166 74.001 -30.499l-6 -18h-5c-49.333 26.667 -95 40 -137 40c-71.333 0 -126.166 -20.167 -164.499 -60.5s-57.5 -98.5 -57.5 -174.5c0 -72.667 16.667 -128.334 50 -167.001s81 -58 143 -58c25.333 0 48.666 1.5 69.999 4.5
s48.666 8.83301 81.999 17.5v146l20 2v-162c-37.333 -10 -68 -16.833 -92 -20.5s-50.667 -5.5 -80 -5.5c-68.667 0 -121.5 21 -158.5 63s-55.5 102.333 -55.5 181c0 81.333 21 143.833 63 187.5s102 65.5 180 65.5c24 0 48.667 -3.5 74 -10.5z" />
    <glyph glyph-name="h" unicode="h" horiz-adv-x="588" 
d="M480 491v-491h-20v240h-332v-240h-20v491h20v-232h332v232h20z" />
    <glyph glyph-name="i" unicode="i" horiz-adv-x="237" 
d="M128 0h-20v491h20v-491z" />
    <glyph glyph-name="j" unicode="j" horiz-adv-x="261" 
d="M153 89c0 -36.667 -7 -67.5 -21 -92.5s-38 -49.167 -72 -72.5l-12 11v5c30.667 20.667 52.5 42.5 65.5 65.5s19.5 50.5 19.5 82.5v384h-102l-3 3l3 16h122v-402z" />
    <glyph glyph-name="k" unicode="k" horiz-adv-x="457" 
d="M128 0h-20v491h20v-491zM177 262c78.667 -90 163.333 -175.668 254 -257.001l-1 -4c-1.33301 -1.33301 -6.33301 -3.66602 -15 -6.99902l-4 2c-98 90.667 -184.667 178.667 -260 264v3l202 191l35 37h29z" />
    <glyph glyph-name="l" unicode="l" horiz-adv-x="365" 
d="M342 16l-3 -16h-232v491h20v-472h213z" />
    <glyph glyph-name="m" unicode="m" horiz-adv-x="678" 
d="M598 0h-20l-16 150l-36 297h-4l-173 -385h-23l-170 385h-4l-35 -296l-16 -151h-21l57 491h24l32 -76l143 -324h3l150 332l31 68h23z" />
    <glyph glyph-name="n" unicode="n" horiz-adv-x="588" 
d="M479 137l-1 -137h-20l-326 451h-3l-1 -297v-154h-20v146l1 345h20l326 -451h4l1 450l20 2z" />
    <glyph glyph-name="o" unicode="o" horiz-adv-x="553" 
d="M439.5 432.5c37 -41.667 55.5 -101.166 55.5 -178.499c0 -82.667 -19.333 -146.334 -58 -191.001s-93.667 -67 -165 -67c-68.667 0 -121.5 21.5 -158.5 64.5s-55.5 104.167 -55.5 183.5c0 80.667 19.167 142.667 57.5 186s93.5 65 165.5 65
c68.667 0 121.5 -20.833 158.5 -62.5zM130.5 416.001c-34.333 -39.333 -51.5 -96.334 -51.5 -171.001s16.667 -131.667 50 -171s81 -59 143 -59c65.333 0 115.5 20.333 150.5 61s52.5 99.334 52.5 176.001c0 72 -16.833 127.167 -50.5 165.5s-81.834 57.5 -144.501 57.5
c-65.333 0 -115.166 -19.667 -149.499 -59z" />
    <glyph glyph-name="p" unicode="p" horiz-adv-x="437" 
d="M338 456.5c26 -23.667 39.001 -57.833 39.001 -102.5c0 -52.667 -15.333 -93.167 -46 -121.5s-74.334 -42.5 -131.001 -42.5h-72v-190h-20v491l119 1c48 0 85 -11.833 111 -35.5zM322.001 253.001c22.667 25.333 34 58.667 34 100c0 37.333 -10.667 66.333 -32 87
s-52.333 32 -93 34l-103 -1v-264h97c42 4 74.333 18.667 97 44z" />
    <glyph glyph-name="q" unicode="q" horiz-adv-x="554" 
d="M458.5 -82c51 -21.333 103.833 -35 158.5 -41v-5c-3.33301 -6.66699 -6 -11 -8 -13h-4c-55.333 6.66699 -109.833 22 -163.5 46s-102.167 54.667 -145.5 92c-5.33301 -0.666992 -13.333 -1 -24 -1c-68.667 0 -121.5 21.5 -158.5 64.5s-55.5 104.167 -55.5 183.5
c0 80.667 19.167 142.667 57.5 186s93.5 65 165.5 65c68.667 0 121.5 -20.833 158.5 -62.5s55.5 -101.167 55.5 -178.5c0 -72.667 -15 -130.834 -45 -174.501s-73.333 -70.167 -130 -79.5c41.333 -33.333 87.5 -60.666 138.5 -81.999zM129 74
c33.333 -39.333 81 -59.001 143 -59.001c65.333 0 115.5 20.333 150.5 61s52.5 99.334 52.5 176.001c0 72 -16.833 127.167 -50.5 165.5s-81.834 57.5 -144.501 57.5c-65.333 0 -115.166 -19.667 -149.499 -59s-51.5 -96.333 -51.5 -171s16.667 -131.667 50 -171z" />
    <glyph glyph-name="r" unicode="r" horiz-adv-x="466" 
d="M405 5v-4.00293l-14 -7l-6 3c-56.667 70 -106 138 -148 204h-109v-201h-20v491l119 1c48 0 85 -11.667 111 -35s39 -56.666 39 -99.999c0 -37.333 -10.333 -69.166 -31 -95.499s-50 -45.166 -88 -56.499c42 -66 91 -132.667 147 -200zM128 219.997l115 -1.00098
c36.667 8.66699 64.667 24.834 84 48.501s29 53.167 29 88.5c0 36.667 -10.667 65 -32 85s-52.333 31 -93 33l-103 -1v-253z" />
    <glyph glyph-name="s" unicode="s" horiz-adv-x="404" 
d="M324 471l-4.00488 -18.002l-6 -1c-30 14.667 -61.333 22 -94 22c-26 0 -48.667 -5.16699 -68 -15.5s-34 -23.666 -44 -39.999s-15 -32.833 -15 -49.5c0 -17.333 5.16699 -32.333 15.5 -45s22.833 -23.334 37.5 -32.001s35.334 -19 62.001 -31
c28.667 -12.667 51.834 -24.334 69.501 -35.001s32.667 -24.167 45 -40.5s18.5 -36.166 18.5 -59.499c0 -22.667 -6.5 -44 -19.5 -64s-31.333 -35.833 -55 -47.5s-50.167 -17.5 -79.5 -17.5c-21.333 0 -43.333 3.16699 -66 9.5s-42.667 15.166 -60 26.499l1 19l5 1
c16.667 -12 35.834 -21.167 57.501 -27.5s42.5 -9.5 62.5 -9.5c26.667 0 50.167 5.16699 70.5 15.5s36 23.833 47 40.5s16.5 34.334 16.5 53.001s-5.33301 34.834 -16 48.501s-23.667 25 -39 34s-36.666 19.833 -63.999 32.5c-28.667 13.333 -51.334 25 -68.001 35
s-31 22.833 -43 38.5s-18 34.834 -18 57.501c0 22 6.33301 42.333 19 61s30.334 33.5 53.001 44.5s48.334 16.5 77.001 16.5c34.667 0 68.667 -7.33301 102 -22z" />
    <glyph glyph-name="t" unicode="t" horiz-adv-x="428" 
d="M387 487l-3 -16l-83 1h-76v-472h-20v472h-74l-86 -1l-3 4l3 16h340z" />
    <glyph glyph-name="u" unicode="u" horiz-adv-x="541" 
d="M452 176c1.33301 -56.667 -14.002 -100.667 -46.002 -132s-77.333 -47 -136 -47c-59.333 0 -104.5 15.5 -135.5 46.5s-46.167 75.167 -45.5 132.5l1 72v243h21l-2 -314c-0.666992 -52 12.833 -91.833 40.5 -119.5s67.834 -41.5 120.501 -41.5s92.834 13.833 120.501 41.5
s41.5 67.5 41.5 119.5v314h20v-315z" />
    <glyph glyph-name="v" unicode="v" horiz-adv-x="481" 
d="M246 0h-21l-190 491h23l11 -35l166 -426h3l180 426l12 35h23z" />
    <glyph glyph-name="w" unicode="w" horiz-adv-x="763" 
d="M532 0h-21l-126 331h-3l-137 -331h-21l-186 491h23l10 -35l163 -425h3l137 332l-49 128h22l11 -36l162 -424h4l176 425l12 35h22z" />
    <glyph glyph-name="x" unicode="x" horiz-adv-x="504" 
d="M259 254l189 -254h-27l-20 30l-155 208l-156 -209l-18 -29h-26l187 254l-176 237h28l18 -28l143 -193l141 189l19 32h27z" />
    <glyph glyph-name="y" unicode="y" horiz-adv-x="447" 
d="M226 186v-186h-20v187l-166 304h25l9 -21l140 -253h4l152 253l10 21h25z" />
    <glyph glyph-name="z" unicode="z" horiz-adv-x="455" 
d="M398 474l-326 -455h267l57 1l4 -4l-3 -16h-321l-31 -1v17l326 456h-259l-49 -1l-3 4l3 17l55 -1h249l31 1v-18z" />
    <glyph glyph-name="braceleft" unicode="{" horiz-adv-x="281" 
d="M260 648l3 -3.00195l-4 -17c-18 3.33301 -31 5 -39 5c-24 0 -41.833 -7 -53.5 -21s-17.5 -36 -17.5 -66c0 -19.333 3.33301 -53 10 -101c6 -38.667 9 -68 9 -88c0 -51.333 -22 -85.666 -66 -102.999v-2c44 -17.333 66 -51.666 66 -102.999c0 -20 -3 -49.333 -9 -88
c-6.66699 -48 -10 -81.667 -10 -101c0 -30 5.83301 -52 17.5 -66s29.5 -21 53.5 -21c8 0 21 1.66699 39 5l4 -17l-3 -3c-12 -3.33301 -24.333 -5 -37 -5c-62.667 0 -94 35.667 -94 107c0 21.333 3.33301 56 10 104c6 38.667 9 67 9 85c0 28.667 -7.5 50.667 -22.5 66
s-38.833 25 -71.5 29v18c32.667 4 56.5 13.667 71.5 29s22.5 37.333 22.5 66c0 18 -3 46.333 -9 85c-6.66699 48 -10 82.667 -10 104c0 71.333 31.333 107 94 107c12.667 0 25 -1.66699 37 -5z" />
    <glyph glyph-name="bar" unicode="|" horiz-adv-x="320" 
d="M170 789v-1054h-17l-3 4v1050l18 2z" />
    <glyph glyph-name="braceright" unicode="}" horiz-adv-x="281" 
d="M21 -142l-3 3.00098l4 17c18 -3.33301 31 -5 39 -5c24 0 41.833 7 53.5 21s17.5 36 17.5 66c0 19.333 -3.33301 53 -10 101c-6 38.667 -9 68 -9 88c0 52 22 86.333 66 103v2c-44 17.333 -66 51.666 -66 102.999c0 20 3 49.333 9 88c6.66699 48 10 81.667 10 101
c0 30 -5.83301 52 -17.5 66s-29.5 21 -53.5 21c-8 0 -21 -1.66699 -39 -5l-4 17l3 3c12 3.33301 24.333 5 37 5c62.667 0 94 -35.667 94 -107c0 -21.333 -3.33301 -56 -10 -104c-6 -38.667 -9 -67 -9 -85c0 -28.667 7.5 -50.667 22.5 -66s38.833 -25 71.5 -29v-18
c-32.667 -4 -56.5 -13.667 -71.5 -29s-22.5 -37.333 -22.5 -66c0 -18 3 -46.333 9 -85c6.66699 -48 10 -82.667 10 -104c0 -71.333 -31.333 -107 -94 -107c-12.667 0 -25 1.66699 -37 5z" />
    <glyph glyph-name="asciitilde" unicode="~" horiz-adv-x="480" 
d="M131 272.5c-6 -4.33301 -15.333 -11.833 -28 -22.5l-19 -17h-6l-7 9v5l64 53l6 3c10.667 -1.33301 26.667 -4.83301 48 -10.5s36.333 -9.5 45 -11.5c52.667 -15.333 85.667 -23 99 -23c5.33301 0 11.333 2.5 18 7.5s14.667 11.667 24 20l21 18.5h6l7 -10v-4l-65 -54
l-6 -2c-15.333 1.33301 -49 9.33301 -101 24c-48.667 14 -78.667 21 -90 21c-4.66699 0 -10 -2.16699 -16 -6.5z" />
    <glyph glyph-name="uni00A0" unicode="&#xa0;" horiz-adv-x="180" 
 />
    <glyph glyph-name="exclamdown" unicode="&#xa1;" horiz-adv-x="225" 
d="M100 482c0 5.33301 1.66699 9.83301 5 13.5s8 5.5 14 5.5c5.33301 0 9.83301 -1.83301 13.5 -5.5s5.5 -8.16699 5.5 -13.5c0 -6 -1.83301 -10.667 -5.5 -14s-8.16699 -5 -13.5 -5c-12.667 0 -19 6.33301 -19 19zM97 0l8 363h15l4 -5l-8 -358l-3 -3h-13z" />
    <glyph glyph-name="cent" unicode="&#xa2;" horiz-adv-x="384" 
d="M361 102l-2.00098 -18c-17.333 -12.667 -37.666 -23 -60.999 -31s-47 -12 -71 -12h-13l-14 -155h-15l-4 4l13 154c-44 8.66699 -78.833 33 -104.5 73s-38.5 90.333 -38.5 151c0 47.333 7.33301 88.666 22 123.999s35.334 62.666 62.001 81.999s57.667 29 93 29h5l13 147
h16l4 -5l-12 -144c18.667 -2.66699 37.167 -7.5 55.5 -14.5s34.166 -15.5 47.499 -25.5l-7 -17h-6c-12 8.66699 -26.167 16.334 -42.5 23.001s-32.833 11.334 -49.5 14.001l-36 -420h12c22 0 44.333 3.83301 67 11.5s42.667 18.167 60 31.5zM104.499 131.5
c22.333 -36.333 52.833 -58.833 91.5 -67.5l35 419h-3c-47.333 0 -85.333 -19.5 -114 -58.5s-43 -91.167 -43 -156.5c0 -54.667 11.167 -100.167 33.5 -136.5z" />
    <glyph glyph-name="sterling" unicode="&#xa3;" horiz-adv-x="384" 
d="M346 16l-3.00098 -16.0029h-307l-4 4l3 14c22.667 2.66699 40 13.834 52 33.501s18 45.834 18 78.501v178h-67l-4 4l3 16h68v119c0 46.667 10.5 82.334 31.5 107.001s51.833 37 92.5 37c30 0 63 -6.33301 99 -19l-2 -19l-3 -2c-27.333 13.333 -57.666 20 -90.999 20
c-71.333 0 -107 -41.333 -107 -124v-119h140l3 -4l-3 -16h-140v-178c0 -49.333 -13.333 -85.333 -40 -108v-2h188l69 1z" />
    <glyph glyph-name="currency" unicode="&#xa4;" horiz-adv-x="436" 
d="M370 520l-1.00195 -5l-64 -64c21.333 -24.667 32 -52.667 32 -84c0 -15.333 -2.83301 -30.166 -8.5 -44.499s-13.5 -27.166 -23.5 -38.499l66 -66l-1 -5l-10 -10l-5 1l-65 65c-11.333 -10 -24.166 -17.833 -38.499 -23.5s-29.166 -8.5 -44.499 -8.5
s-30.166 2.83301 -44.499 8.5s-27.166 13.5 -38.499 23.5l-66 -66l-5 1l-10 10l1 5l65 65c-10 11.333 -17.833 24.166 -23.5 38.499s-8.5 29.166 -8.5 44.499c0 31.333 10.667 59.333 32 84l-66 66l1 5l9 9h5l66 -66c11.333 10 24.166 17.833 38.499 23.5
s29.166 8.5 44.499 8.5c30 0 57.667 -10.333 83 -31l65 65l5 -1zM129.498 444.5c-21.667 -21.667 -32.5 -47.5 -32.5 -77.5s10.833 -55.833 32.5 -77.5s47.5 -32.5 77.5 -32.5s55.833 10.833 77.5 32.5s32.5 47.5 32.5 77.5s-10.833 55.833 -32.5 77.5
s-47.5 32.5 -77.5 32.5s-55.833 -10.833 -77.5 -32.5z" />
    <glyph glyph-name="yen" unicode="&#xa5;" horiz-adv-x="434" 
d="M415 150l3 -3l-2 -17h-190v-130h-20v130h-187l-3 3l2 17h188v37l-40 73h-147l-3 3l2 17h137l-115 211h25l9 -21l140 -253h4l152 253l10 21h25l-124 -211h134l3 -3l-2 -17h-147l-43 -74v-36h189z" />
    <glyph glyph-name="brokenbar" unicode="&#xa6;" horiz-adv-x="320" 
d="M170 789v-421l-17 -2l-3 3v420l18 2zM170 155v-420h-17l-3 4v418l17 3z" />
    <glyph glyph-name="section" unicode="&#xa7;" horiz-adv-x="407" 
d="M328.5 162.5c-15.667 -21 -38.501 -39.5 -68.501 -55.5c28 -30 42 -60.333 42 -91c0 -21.333 -6.16699 -41.333 -18.5 -60s-29.333 -33.5 -51 -44.5s-46.167 -16.5 -73.5 -16.5c-20 0 -40.167 3.16699 -60.5 9.5s-38.166 14.833 -53.499 25.5l3 17l5 3
c31.333 -23.333 66.666 -35 105.999 -35c37.333 0 67.166 10 89.499 30s33.5 43.333 33.5 70c0 24 -9 46.167 -27 66.5s-44.333 44.166 -79 71.499c-38.667 30.667 -67.667 57.167 -87 79.5s-29 47.833 -29 76.5c0 24.667 8.16699 47.834 24.5 69.501s38.833 40.5 67.5 56.5
c-28 29.333 -42 59 -42 89c0 20.667 5.83301 40 17.5 58s27.834 32.167 48.501 42.5s44 15.5 70 15.5c29.333 0 60 -6.66699 92 -20l-5 -19l-6 -1c-27.333 13.333 -55 20 -83 20c-23.333 0 -43.666 -4.66699 -60.999 -14s-30.5 -21.5 -39.5 -36.5s-13.5 -30.5 -13.5 -46.5
c0 -22.667 8.66699 -43.5 26 -62.5s43 -41.833 77 -68.5c38.667 -30 68.167 -56.833 88.5 -80.5s30.5 -50.5 30.5 -80.5c0 -24.667 -7.83301 -47.5 -23.5 -68.5zM310.499 171c14.333 18.667 21.5 38.333 21.5 59c0 26 -9.16699 49.5 -27.5 70.5s-45.5 45.5 -81.5 73.5
c-23.333 17.333 -42.333 33 -57 47c-27.333 -14.667 -48.5 -32 -63.5 -52s-22.5 -40.333 -22.5 -61c0 -24 8.83301 -45.833 26.5 -65.5s44.5 -43.5 80.5 -71.5c31.333 -24.667 51 -41 59 -49c28.667 14 50.167 30.333 64.5 49z" />
    <glyph glyph-name="dieresis" unicode="&#xa8;" horiz-adv-x="390" 
d="M138.5 609.5c3.66699 -3.66699 5.5 -8.5 5.5 -14.5s-1.83301 -10.833 -5.5 -14.5s-8.5 -5.5 -14.5 -5.5s-10.833 1.83301 -14.5 5.5s-5.5 8.5 -5.5 14.5s1.83301 10.833 5.5 14.5s8.5 5.5 14.5 5.5s10.833 -1.83301 14.5 -5.5zM278.5 609.5
c3.66699 -3.66699 5.5 -8.5 5.5 -14.5s-1.83301 -10.833 -5.5 -14.5s-8.5 -5.5 -14.5 -5.5s-10.833 1.83301 -14.5 5.5s-5.5 8.5 -5.5 14.5s1.83301 10.833 5.5 14.5s8.5 5.5 14.5 5.5s10.833 -1.83301 14.5 -5.5z" />
    <glyph glyph-name="copyright" unicode="&#xa9;" horiz-adv-x="682" 
d="M493 560c44 -25.333 78.167 -61 102.5 -107s36.5 -99.333 36.5 -160s-12.167 -114 -36.5 -160s-58.5 -81.667 -102.5 -107s-95 -38 -153 -38s-109 12.667 -153 38s-78 61 -102 107s-36 99.333 -36 160s12 114 36 160s58 81.667 102 107s95 38 153 38s109 -12.667 153 -38
zM197.5 542.5c-41 -23.667 -72.667 -57 -95 -100s-33.5 -92.833 -33.5 -149.5s11.167 -106.5 33.5 -149.5s54 -76.333 95 -100s88.5 -35.5 142.5 -35.5s101.5 11.833 142.5 35.5s72.833 57 95.5 100s34 92.833 34 149.5s-11.333 106.5 -34 149.5s-54.5 76.333 -95.5 100
s-88.5 35.5 -142.5 35.5s-101.5 -11.833 -142.5 -35.5zM447 436l-5.00098 -17.998h-5c-24 18 -53.333 27 -88 27c-42 0 -74.167 -12.833 -96.5 -38.5s-33.5 -62.834 -33.5 -111.501s10.833 -85.834 32.5 -111.501s52.5 -38.5 92.5 -38.5c16.667 0 33.834 2.83301 51.501 8.5
s33.5 13.5 47.5 23.5l4 -1l-2 -19c-34.667 -21.333 -68.667 -32 -102 -32c-46.667 0 -82.334 14.667 -107.001 44s-37 71.333 -37 126s12.833 96.667 38.5 126s62.834 44 111.501 44c35.333 0 68 -9.66699 98 -29z" />
    <glyph glyph-name="ordfeminine" unicode="&#xaa;" horiz-adv-x="296" 
d="M209 624.5c14 -13 21.002 -31.1641 21.002 -54.4971c0 -18 -1 -46 -3 -84l-3 -85c0 -23.333 7.66699 -35 23 -35c9.33301 0 18 3 26 9l4 -2l-3 -16c-8.66699 -6 -19.334 -9 -32.001 -9s-22 3.66699 -28 11s-9.33301 19.666 -10 36.999h-2
c-12.667 -14.667 -26.5 -26.334 -41.5 -35.001s-29.5 -13.334 -43.5 -14.001c-24.667 0 -43.667 6.33301 -57 19s-20 30.667 -20 54c0 16 4.83301 29.5 14.5 40.5s23.5 18.5 41.5 22.5l112 24l2 59c0 19.333 -5.33301 34 -16 44s-26.334 15 -47.001 15
c-28 0 -58.333 -13.333 -91 -40l-4 1l-4 15c34 28.667 67.667 43 101 43c26 0 46 -6.5 60 -19.5zM103.002 467.003c-28 -6 -41.999 -21.334 -41.999 -46.001c0 -17.333 5 -31 15 -41s24.333 -15 43 -15c13.333 0 27.666 4.83301 42.999 14.5s29.333 22.834 42 39.501l3 72z
" />
    <glyph glyph-name="guillemotleft" unicode="&#xab;" horiz-adv-x="360" 
d="M216 217v11l155 168l12 -9v-6l-145 -158l145 -158v-6l-12 -9zM70 217v11l155 168l12 -9v-6l-145 -158l145 -158v-6l-12 -9z" />
    <glyph glyph-name="logicalnot" unicode="&#xac;" horiz-adv-x="480" 
d="M416 274v-203l-17 -2l-3 3v188h-358l-3 3l2 17h373z" />
    <glyph glyph-name="uni00AD" unicode="&#xad;" horiz-adv-x="311" 
d="M280 277v-16l-245 -33l-4 4v16l245 33z" />
    <glyph glyph-name="registered" unicode="&#xae;" horiz-adv-x="432" 
d="M345 654c32 -32 48 -74.667 48 -128s-16 -96.166 -48 -128.499s-74.667 -48.5 -128 -48.5s-96.166 16.167 -128.499 48.5s-48.5 75.166 -48.5 128.499s16.167 96 48.5 128s75.166 48 128.499 48s96 -16 128 -48zM331 411.5c28.667 29 43 67.167 43 114.5
s-14.333 85.333 -43 114s-66.667 43 -114 43s-85.5 -14.333 -114.5 -43s-43.5 -66.667 -43.5 -114s14.5 -85.5 43.5 -114.5s67.167 -43.5 114.5 -43.5s85.333 14.5 114 43.5zM267.5 538c-7 -10.667 -17.167 -18.666 -30.5 -23.999c17.333 -27.333 35 -51.666 53 -72.999v-3
c-2 -0.666992 -5.5 -1.33398 -10.5 -2.00098s-8.5 -1.33398 -10.5 -2.00098l-3 2c-15.333 20 -32.333 44.667 -51 74h-35v-13l1 -60h-22v192h59c40 0 60 -18.333 60 -55c0 -13.333 -3.5 -25.333 -10.5 -36zM180 530.001l40 -2.00098c24 8 36 22.667 36 44
c0 12 -3.66699 21.333 -11 28s-18 10.334 -32 11.001l-32 -1z" />
    <glyph glyph-name="macron" unicode="&#xaf;" horiz-adv-x="390" 
d="M341 604l-2 -17h-287l-3 3l2 17h287z" />
    <glyph glyph-name="degree" unicode="&#xb0;" horiz-adv-x="294" 
d="M232.5 607c23.667 -23.333 35.5 -51.666 35.5 -84.999s-11.833 -61.5 -35.5 -84.5s-52.167 -34.5 -85.5 -34.5c-34 0 -62.833 11.5 -86.5 34.5s-35.5 51.167 -35.5 84.5s11.833 61.666 35.5 84.999s52.5 35 86.5 35c33.333 0 61.833 -11.667 85.5 -35zM75.5 592
c-20.333 -20 -30.5 -43.333 -30.5 -70s10.167 -49.834 30.5 -69.501s44.166 -29.5 71.499 -29.5s51 9.83301 71 29.5s30 42.834 30 69.501s-10 50 -30 70s-43.667 30 -71 30s-51.166 -10 -71.499 -30z" />
    <glyph glyph-name="plusminus" unicode="&#xb1;" horiz-adv-x="480" 
d="M250 468v-188h188l3 -3l-2 -17h-189v-189l-17 -2l-3 3v188h-188l-3 3l2 17h189v189l17 2zM441 -48l-2 -17h-397l-3 3l2 17h397z" />
    <glyph glyph-name="uni00B2" unicode="&#xb2;" horiz-adv-x="336" 
d="M233 681c16.667 -14 24.999 -32.001 24.999 -54.001c0 -19.333 -7 -40.5 -21 -63.5s-37.667 -54.833 -71 -95.5l-94 -116l2 -2h175l61 1l2 -4l-3 -17l-65 1h-169l-29 -1l-2 2v15l107 131c31.333 38.667 53.5 68.334 66.5 89.001s19.5 39.667 19.5 57
c0 16.667 -6.33301 30.667 -19 42s-30 17 -52 17c-20 0 -39.167 -5 -57.5 -15s-34.833 -24 -49.5 -42h-3l-4 17c14.667 18.667 32 33.167 52 43.5s41.333 15.5 64 15.5c26.667 0 48.334 -7 65.001 -21z" />
    <glyph glyph-name="uni00B3" unicode="&#xb3;" horiz-adv-x="293" 
d="M195 682c16.667 -14 24.999 -32.332 24.999 -54.999c0 -18.667 -6.33301 -36.667 -19 -54s-29.667 -30.666 -51 -39.999v-2c28.667 -6 50.667 -17 66 -33s23 -36 23 -60c0 -32 -13 -58.167 -39 -78.5s-59.667 -30.5 -101 -30.5c-20.667 0 -40.667 2 -60 6l-2 16l2 2
c21.333 -3.33301 41.333 -5 60 -5c36 0 65 8.16699 87 24.5s33 38.166 33 65.499c0 24.667 -9.33301 44.167 -28 58.5s-45.667 22.166 -81 23.499h-33l-2 2l1 15h29c13.333 0 27.333 3.83301 42 11.5s27 18.167 37 31.5s15 28 15 44c0 18 -6.5 32.5 -19.5 43.5
s-30.167 16.5 -51.5 16.5c-28 0 -56.667 -13 -86 -39h-3l-4 17c30 27.333 61.667 41 95 41c26.667 0 48.334 -7 65.001 -21z" />
    <glyph glyph-name="acute" unicode="&#xb4;" horiz-adv-x="390" 
d="M266 668l10 -10.001l-1 -5c-46 -46 -94 -91 -144 -135l-5 1l-11 13c46 38.667 94.667 84.334 146 137.001z" />
    <glyph glyph-name="uni00B5" unicode="&#xb5;" horiz-adv-x="678" 
d="M598 0h-20l-16 150l-36 297h-4l-173 -385h-23l-170 385h-4l-35 -296l-16 -151h-21l57 491h24l32 -76l143 -324h3l150 332l31 68h23z" />
    <glyph glyph-name="paragraph" unicode="&#xb6;" horiz-adv-x="447" 
d="M411 633l-3 -15.999h-81v-495c0 -37.333 -10 -71.333 -30 -102s-51.333 -60 -94 -88l-10 11v6c38.667 25.333 67.334 51.833 86.001 79.5s28 57.5 28 89.5v499h-71c-52.667 -2.66699 -93.167 -18 -121.5 -46s-42.5 -66.667 -42.5 -116
c0 -50.667 15.167 -91.834 45.5 -123.501s74.166 -52.5 131.499 -62.5l-4 -20c-62 10 -109.667 32.333 -143 67s-50 81 -50 139s16.5 102.833 49.5 134.5s80.167 47.5 141.5 47.5h164z" />
    <glyph glyph-name="periodcentered" unicode="&#xb7;" horiz-adv-x="230" 
d="M129.5 252.5c3.66699 -3.66699 5.5 -8.5 5.5 -14.5s-1.83301 -10.833 -5.5 -14.5s-8.5 -5.5 -14.5 -5.5s-10.833 1.83301 -14.5 5.5s-5.5 8.5 -5.5 14.5s1.83301 10.833 5.5 14.5s8.5 5.5 14.5 5.5s10.833 -1.83301 14.5 -5.5z" />
    <glyph glyph-name="cedilla" unicode="&#xb8;" horiz-adv-x="390" 
d="M189 -55l31.0049 -19.999c11.333 -7.33301 19.666 -14.833 24.999 -22.5s8 -16.834 8 -27.501c0 -16 -5.83301 -28.833 -17.5 -38.5s-25.834 -14.5 -42.501 -14.5c-24.667 0 -44.334 11 -59.001 33l6 18h4c6.66699 -10.667 13.667 -18.5 21 -23.5
s16.666 -7.5 27.999 -7.5c12 0 21.667 2.83301 29 8.5s11 13.834 11 24.501c0 7.33301 -1.83301 13.166 -5.5 17.499s-9.83398 9.5 -18.501 15.5l-44 28l25 75h20z" />
    <glyph glyph-name="uni00B9" unicode="&#xb9;" horiz-adv-x="240" 
d="M138 701v-370h-20v348l-98 -27l-4 2v16l119 35z" />
    <glyph glyph-name="ordmasculine" unicode="&#xba;" horiz-adv-x="329" 
d="M257.5 605c21.667 -26 32.5 -61.667 32.5 -107c0 -47.333 -11.333 -84.5 -34 -111.5s-54 -40.5 -94 -40.5c-38.667 0 -68.834 13 -90.501 39s-32.5 61.667 -32.5 107c0 47.333 11.333 84.5 34 111.5s54 40.5 94 40.5c38.667 0 68.834 -13 90.501 -39zM88 590.5
c-18.667 -23 -28 -55.5 -28 -97.5c0 -40.667 9 -72.167 27 -94.5s43 -33.5 75 -33.5c33.333 0 59.5 11.5 78.5 34.5s28.5 55.5 28.5 97.5c0 40 -9.16699 71.333 -27.5 94s-43.5 34 -75.5 34c-33.333 0 -59.333 -11.5 -78 -34.5z" />
    <glyph glyph-name="guillemotright" unicode="&#xbb;" horiz-adv-x="360" 
d="M290 229v-11l-155 -168l-12 9v6l145 158l-145 158v6l12 9zM144 229v-11l-155 -168l-12 9v6l145 158l-145 158v6l12 9z" />
    <glyph glyph-name="onequarter" unicode="&#xbc;" horiz-adv-x="621" 
d="M138 638v-370h-20v348l-98 -27l-4 2v16l119 35zM490 664l3 -8l-485 -746l-9 4l-4 9l485 746zM581 134l-3 -16l-50 1h-19l1 -117l-2 -2l-16 -2l-2 2v119h-140l-31 -1l-3 3v15l174 233h19v-232h69zM490 137v200h-3l-149 -200h152z" />
    <glyph glyph-name="onehalf" unicode="&#xbd;" horiz-adv-x="622" 
d="M138 638v-370h-20v348l-98 -27l-4 2v16l119 35zM490 664l3 -8l-485 -746l-9 4l-4 9l485 746zM519 350c16.667 -14 24.999 -32.001 24.999 -54.001c0 -19.333 -7 -40.5 -21 -63.5s-37.667 -54.833 -71 -95.5l-94 -116l2 -2h175l61 1l2 -4l-3 -17l-65 1h-169l-29 -1l-2 2
v15l107 131c31.333 38.667 53.5 68.334 66.5 89.001s19.5 39.667 19.5 57c0 16.667 -6.33301 30.667 -19 42s-30 17 -52 17c-20 0 -39.167 -5 -57.5 -15s-34.833 -24 -49.5 -42h-3l-4 17c14.667 18.667 32 33.167 52 43.5s41.333 15.5 64 15.5
c26.667 0 48.334 -7 65.001 -21z" />
    <glyph glyph-name="threequarters" unicode="&#xbe;" horiz-adv-x="674" 
d="M195 619c16.667 -14 24.999 -32.332 24.999 -54.999c0 -18.667 -6.33301 -36.667 -19 -54s-29.667 -30.666 -51 -39.999v-2c28.667 -6 50.667 -17 66 -33s23 -36 23 -60c0 -32 -13 -58.167 -39 -78.5s-59.667 -30.5 -101 -30.5c-20.667 0 -40.667 2 -60 6l-2 16l2 2
c21.333 -3.33301 41.333 -5 60 -5c36 0 65 8.16699 87 24.5s33 38.166 33 65.499c0 24.667 -9.33301 44.167 -28 58.5s-45.667 22.166 -81 23.499h-33l-2 2l1 15h29c13.333 0 27.333 3.83301 42 11.5s27 18.167 37 31.5s15 28 15 44c0 18 -6.5 32.5 -19.5 43.5
s-30.167 16.5 -51.5 16.5c-28 0 -56.667 -13 -86 -39h-3l-4 17c30 27.333 61.667 41 95 41c26.667 0 48.334 -7 65.001 -21zM542.999 664.001l3 -8l-485 -746l-9 4l-4 9l485 746zM633.999 134.001l-3 -16l-50 1h-19l1 -117l-2 -2l-16 -2l-2 2v119h-140l-31 -1l-3 3v15
l174 233h19v-232h69zM542.999 137.001v200h-3l-149 -200h152z" />
    <glyph glyph-name="questiondown" unicode="&#xbf;" horiz-adv-x="271" 
d="M163.5 466.5c-3.66699 3.66699 -5.5 8.16699 -5.5 13.5s1.83301 9.66602 5.5 12.999s8.16699 5 13.5 5s9.66602 -1.66699 12.999 -5s5 -7.66602 5 -12.999s-1.66699 -9.83301 -5 -13.5s-7.66602 -5.5 -12.999 -5.5s-9.83301 1.83301 -13.5 5.5zM73.5 36.5
c-33.667 21.667 -50.499 50.833 -50.499 87.5c0 20.667 5.66699 40.167 17 58.5s28 34.5 50 48.5l83 54v2l-3 75l17 1l2 -4l5 -76l-4 -8l-87 -57c-18.667 -12 -33.334 -26 -44.001 -42s-16 -32.667 -16 -50c0 -32.667 16 -58.667 48 -78s77.667 -30.333 137 -33l2 -3l-6 -14
l-5 -2c-63.333 5.33301 -111.833 18.833 -145.5 40.5z" />
    <glyph glyph-name="Agrave" unicode="&#xc0;" horiz-adv-x="554" 
d="M526 0h-23l-13 43l-63 170h-302l-68 -170l-14 -43h-24l254 637h20zM284 603h-4l-147 -370h287zM369 742l-7.00098 -15.001l-5 -3c-71.333 36.667 -129.333 67.667 -174 93l-2 5l7 12l5 2c56.667 -33.333 115.334 -64.666 176.001 -93.999z" />
    <glyph glyph-name="Aacute" unicode="&#xc1;" horiz-adv-x="554" 
d="M526 0h-23l-13 43l-63 170h-302l-68 -170l-14 -43h-24l254 637h20zM284 603h-4l-147 -370h287zM386 834l6.99902 -11.999l-2 -5c-44.667 -25.333 -102.667 -56.333 -174 -93l-5 3l-7 15c60.667 29.333 119.334 60.666 176.001 93.999z" />
    <glyph glyph-name="Acircumflex" unicode="&#xc2;" horiz-adv-x="554" 
d="M526 0h-23l-13 43l-63 170h-302l-68 -170l-14 -43h-24l254 637h20zM284 603h-4l-147 -370h287zM170 752c31.333 22 64.002 47.333 98.002 76h16c44 -34.667 77.333 -60 100 -76l-7 -14h-5c-30.667 21.333 -62.334 44.666 -95.001 69.999
c-32.667 -25.333 -64.334 -48.666 -95.001 -69.999h-5z" />
    <glyph glyph-name="Atilde" unicode="&#xc3;" horiz-adv-x="554" 
d="M526 0h-23l-13 43l-63 170h-302l-68 -170l-14 -43h-24l254 637h20zM284 603h-4l-147 -370h287zM416 805v-4l-52 -47l-6 -2c-13.333 1.33301 -40.333 8 -81 20c-4 1.33301 -15.667 4.66602 -35 9.99902s-32.666 8 -39.999 8c-3.33301 0 -7.66602 -2 -12.999 -6
s-11 -9.33301 -17 -16l-21 -19h-4l-9 11v4l52 47l6 2c13.333 -1.33301 40.333 -8 81 -20c4 -1.33301 15.667 -4.66602 35 -9.99902s32.666 -8 39.999 -8c3.33301 0 7.66602 2 12.999 6s11 9.33301 17 16l21 19h4z" />
    <glyph glyph-name="Adieresis" unicode="&#xc4;" horiz-adv-x="554" 
d="M526 0h-23l-13 43l-63 170h-302l-68 -170l-14 -43h-24l254 637h20zM284 603h-4l-147 -370h287zM221.5 794.5c3.66699 -3.66699 5.5 -8.5 5.5 -14.5s-1.83301 -10.833 -5.5 -14.5s-8.5 -5.5 -14.5 -5.5s-10.833 1.83301 -14.5 5.5s-5.5 8.5 -5.5 14.5
s1.83301 10.833 5.5 14.5s8.5 5.5 14.5 5.5s10.833 -1.83301 14.5 -5.5zM361.5 794.5c3.66699 -3.66699 5.5 -8.5 5.5 -14.5s-1.83301 -10.833 -5.5 -14.5s-8.5 -5.5 -14.5 -5.5s-10.833 1.83301 -14.5 5.5s-5.5 8.5 -5.5 14.5s1.83301 10.833 5.5 14.5s8.5 5.5 14.5 5.5
s10.833 -1.83301 14.5 -5.5z" />
    <glyph glyph-name="Aring" unicode="&#xc5;" horiz-adv-x="554" 
d="M526 0h-23l-13 43l-63 170h-302l-68 -170l-14 -43h-24l254 637h20zM284 603h-4l-147 -370h287zM327 832c12.667 -14 19 -30.332 19 -48.999c0 -20.667 -7.16699 -37.334 -21.5 -50.001s-30.833 -19 -49.5 -19s-35 6.5 -49 19.5s-21 29.833 -21 50.5
c0 20 6.5 36.5 19.5 49.5s29.833 19.5 50.5 19.5c22 0 39.333 -7 52 -21zM238.5 819.501c-9 -9 -13.5 -20.833 -13.5 -35.5c0 -15.333 4.83301 -27.5 14.5 -36.5s21.5 -13.5 35.5 -13.5s26 4.33301 36 13s15 20.667 15 36c0 14 -4.5 25.833 -13.5 35.5
s-21.5 14.5 -37.5 14.5c-15.333 0 -27.5 -4.5 -36.5 -13.5z" />
    <glyph glyph-name="AE" unicode="&#xc6;" horiz-adv-x="791" 
d="M766 16l-4 -16h-304l-5 43l-42 247l-261 -43l-117 -204l-21 -43h-27l368 637h301l3 -4l-5 -16h-275l51 -304l236 39l3 -3l-3 -17l-233 -38l46 -274h287zM408 310l-50 292h-3l-191 -332z" />
    <glyph glyph-name="Ccedilla" unicode="&#xc7;" horiz-adv-x="523" 
d="M406 625.5c30.667 -10.333 58.333 -24.833 83 -43.5l-7 -17h-7c-22.667 18 -47.834 31.833 -75.501 41.5s-56.5 14.5 -86.5 14.5c-79.333 0 -140 -26.333 -182 -79s-63 -128 -63 -226c0 -96.667 20 -171 60 -223s97.667 -78 173 -78c32 0 63.833 5.83301 95.5 17.5
s60.834 28.167 87.501 49.5l7 -2l-2 -18c-28 -21.333 -58.333 -37.833 -91 -49.5s-64.667 -17.5 -96 -17.5c-82 0 -144.833 27.833 -188.5 83.5s-65.5 135.167 -65.5 238.5c0 104 22.833 184 68.5 240s111.167 84 196.5 84c31.333 0 62.333 -5.16699 93 -15.5zM300.999 -55
l31.0049 -19.999c11.333 -7.33301 19.666 -14.833 24.999 -22.5s8 -16.834 8 -27.501c0 -16 -5.83301 -28.833 -17.5 -38.5s-25.834 -14.5 -42.501 -14.5c-24.667 0 -44.334 11 -59.001 33l6 18h4c6.66699 -10.667 13.667 -18.5 21 -23.5s16.666 -7.5 27.999 -7.5
c12 0 21.667 2.83301 29 8.5s11 13.834 11 24.501c0 7.33301 -1.83301 13.166 -5.5 17.499s-9.83398 9.5 -18.501 15.5l-44 28l25 75h20z" />
    <glyph glyph-name="Egrave" unicode="&#xc8;" horiz-adv-x="454" 
d="M425 16l-4 -16h-311v637h308l3 -4l-4 -16h-287v-277h238l3 -4l-4 -16h-237v-300h292zM358 742l-7.00098 -15.001l-5 -3c-71.333 36.667 -129.333 67.667 -174 93l-2 5l7 12l5 2c56.667 -33.333 115.334 -64.666 176.001 -93.999z" />
    <glyph glyph-name="Eacute" unicode="&#xc9;" horiz-adv-x="454" 
d="M425 16l-4 -16h-311v637h308l3 -4l-4 -16h-287v-277h238l3 -4l-4 -16h-237v-300h292zM375 834l6.99902 -11.999l-2 -5c-44.667 -25.333 -102.667 -56.333 -174 -93l-5 3l-7 15c60.667 29.333 119.334 60.666 176.001 93.999z" />
    <glyph glyph-name="Ecircumflex" unicode="&#xca;" horiz-adv-x="454" 
d="M425 16l-4 -16h-311v637h308l3 -4l-4 -16h-287v-277h238l3 -4l-4 -16h-237v-300h292zM159 752c31.333 22 64.002 47.333 98.002 76h16c44 -34.667 77.333 -60 100 -76l-7 -14h-5c-30.667 21.333 -62.334 44.666 -95.001 69.999
c-32.667 -25.333 -64.334 -48.666 -95.001 -69.999h-5z" />
    <glyph glyph-name="Edieresis" unicode="&#xcb;" horiz-adv-x="454" 
d="M425 16l-4 -16h-311v637h308l3 -4l-4 -16h-287v-277h238l3 -4l-4 -16h-237v-300h292zM210.5 794.5c3.66699 -3.66699 5.5 -8.5 5.5 -14.5s-1.83301 -10.833 -5.5 -14.5s-8.5 -5.5 -14.5 -5.5s-10.833 1.83301 -14.5 5.5s-5.5 8.5 -5.5 14.5s1.83301 10.833 5.5 14.5
s8.5 5.5 14.5 5.5s10.833 -1.83301 14.5 -5.5zM350.5 794.5c3.66699 -3.66699 5.5 -8.5 5.5 -14.5s-1.83301 -10.833 -5.5 -14.5s-8.5 -5.5 -14.5 -5.5s-10.833 1.83301 -14.5 5.5s-5.5 8.5 -5.5 14.5s1.83301 10.833 5.5 14.5s8.5 5.5 14.5 5.5s10.833 -1.83301 14.5 -5.5z
" />
    <glyph glyph-name="Igrave" unicode="&#xcc;" horiz-adv-x="240" 
d="M130 0h-20v637h20v-637zM212 742l-7.00098 -15.001l-5 -3c-71.333 36.667 -129.333 67.667 -174 93l-2 5l7 12l5 2c56.667 -33.333 115.334 -64.666 176.001 -93.999z" />
    <glyph glyph-name="Iacute" unicode="&#xcd;" horiz-adv-x="240" 
d="M130 0h-20v637h20v-637zM229 834l6.99902 -11.999l-2 -5c-44.667 -25.333 -102.667 -56.333 -174 -93l-5 3l-7 15c60.667 29.333 119.334 60.666 176.001 93.999z" />
    <glyph glyph-name="Icircumflex" unicode="&#xce;" horiz-adv-x="240" 
d="M130 0h-20v637h20v-637zM13 752c31.333 22 64.002 47.333 98.002 76h16c44 -34.667 77.333 -60 100 -76l-7 -14h-5c-30.667 21.333 -62.334 44.666 -95.001 69.999c-32.667 -25.333 -64.334 -48.666 -95.001 -69.999h-5z" />
    <glyph glyph-name="Eth" unicode="&#xd0;" horiz-adv-x="654" 
d="M534 563.5c48 -52.333 72.001 -127.167 72.001 -224.5c0 -110.667 -24.833 -195.667 -74.5 -255s-120.834 -89 -213.501 -89c-22.667 0 -52.667 0.5 -90 1.5s-71 2.16699 -101 3.5v637l201 5c89.333 0 158 -26.167 206 -78.5zM516.501 98.999
c46.333 56 69.5029 136 69.5029 240c0 91.333 -22.333 161.333 -67 210s-108.334 73 -191.001 73c-20.667 0 -48.834 -0.5 -84.501 -1.5s-67.834 -2.16699 -96.501 -3.5v-597c28 -1.33301 58.5 -2.5 91.5 -3.5s59.5 -1.5 79.5 -1.5c86 0 152.167 28 198.5 84z
M321.191 335.999l-1.2002 -17h-310.187l-1.80078 3l1.2002 17h310.188z" />
    <glyph glyph-name="Ntilde" unicode="&#xd1;" horiz-adv-x="670" 
d="M559 176l-1 -176h-19l-404 595h-4l-1 -396v-199h-20v190l1 447h19l404 -595h4l2 594l20 2zM470 805v-4l-52 -47l-6 -2c-13.333 1.33301 -40.333 8 -81 20c-4 1.33301 -15.667 4.66602 -35 9.99902s-32.666 8 -39.999 8c-3.33301 0 -7.66602 -2 -12.999 -6
s-11 -9.33301 -17 -16l-21 -19h-4l-9 11v4l52 47l6 2c13.333 -1.33301 40.333 -8 81 -20c4 -1.33301 15.667 -4.66602 35 -9.99902s32.666 -8 39.999 -8c3.33301 0 7.66602 2 12.999 6s11 9.33301 17 16l21 19h4z" />
    <glyph glyph-name="Ograve" unicode="&#xd2;" horiz-adv-x="627" 
d="M511.5 561c45 -54 67.499 -131.333 67.499 -232c0 -107.333 -23.333 -189.833 -70 -247.5s-113.667 -86.5 -201 -86.5c-83.333 0 -147.5 27.833 -192.5 83.5s-67.5 135.167 -67.5 238.5c0 104.667 23.333 185 70 241s113.334 84 200.001 84c84 0 148.5 -27 193.5 -81z
M132.499 543c-43 -52.667 -64.499 -128 -64.499 -226c0 -96.667 20.667 -171.167 62 -223.5s100.666 -78.5 177.999 -78.5c80.667 0 142.667 27.167 186 81.5s65 131.833 65 232.5c0 94 -20.833 166.333 -62.5 217s-101.167 76 -178.5 76
c-80.667 0 -142.5 -26.333 -185.5 -79zM406 742l-7.00098 -15.001l-5 -3c-71.333 36.667 -129.333 67.667 -174 93l-2 5l7 12l5 2c56.667 -33.333 115.334 -64.666 176.001 -93.999z" />
    <glyph glyph-name="Oacute" unicode="&#xd3;" horiz-adv-x="627" 
d="M511.5 561c45 -54 67.499 -131.333 67.499 -232c0 -107.333 -23.333 -189.833 -70 -247.5s-113.667 -86.5 -201 -86.5c-83.333 0 -147.5 27.833 -192.5 83.5s-67.5 135.167 -67.5 238.5c0 104.667 23.333 185 70 241s113.334 84 200.001 84c84 0 148.5 -27 193.5 -81z
M132.499 543c-43 -52.667 -64.499 -128 -64.499 -226c0 -96.667 20.667 -171.167 62 -223.5s100.666 -78.5 177.999 -78.5c80.667 0 142.667 27.167 186 81.5s65 131.833 65 232.5c0 94 -20.833 166.333 -62.5 217s-101.167 76 -178.5 76
c-80.667 0 -142.5 -26.333 -185.5 -79zM423 834l6.99902 -11.999l-2 -5c-44.667 -25.333 -102.667 -56.333 -174 -93l-5 3l-7 15c60.667 29.333 119.334 60.666 176.001 93.999z" />
    <glyph glyph-name="Ocircumflex" unicode="&#xd4;" horiz-adv-x="627" 
d="M511.5 561c45 -54 67.499 -131.333 67.499 -232c0 -107.333 -23.333 -189.833 -70 -247.5s-113.667 -86.5 -201 -86.5c-83.333 0 -147.5 27.833 -192.5 83.5s-67.5 135.167 -67.5 238.5c0 104.667 23.333 185 70 241s113.334 84 200.001 84c84 0 148.5 -27 193.5 -81z
M132.499 543c-43 -52.667 -64.499 -128 -64.499 -226c0 -96.667 20.667 -171.167 62 -223.5s100.666 -78.5 177.999 -78.5c80.667 0 142.667 27.167 186 81.5s65 131.833 65 232.5c0 94 -20.833 166.333 -62.5 217s-101.167 76 -178.5 76
c-80.667 0 -142.5 -26.333 -185.5 -79zM207 752c31.333 22 64.002 47.333 98.002 76h16c44 -34.667 77.333 -60 100 -76l-7 -14h-5c-30.667 21.333 -62.334 44.666 -95.001 69.999c-32.667 -25.333 -64.334 -48.666 -95.001 -69.999h-5z" />
    <glyph glyph-name="Otilde" unicode="&#xd5;" horiz-adv-x="627" 
d="M511.5 561c45 -54 67.499 -131.333 67.499 -232c0 -107.333 -23.333 -189.833 -70 -247.5s-113.667 -86.5 -201 -86.5c-83.333 0 -147.5 27.833 -192.5 83.5s-67.5 135.167 -67.5 238.5c0 104.667 23.333 185 70 241s113.334 84 200.001 84c84 0 148.5 -27 193.5 -81z
M132.499 543c-43 -52.667 -64.499 -128 -64.499 -226c0 -96.667 20.667 -171.167 62 -223.5s100.666 -78.5 177.999 -78.5c80.667 0 142.667 27.167 186 81.5s65 131.833 65 232.5c0 94 -20.833 166.333 -62.5 217s-101.167 76 -178.5 76
c-80.667 0 -142.5 -26.333 -185.5 -79zM453 805v-4l-52 -47l-6 -2c-13.333 1.33301 -40.333 8 -81 20c-4 1.33301 -15.667 4.66602 -35 9.99902s-32.666 8 -39.999 8c-3.33301 0 -7.66602 -2 -12.999 -6s-11 -9.33301 -17 -16l-21 -19h-4l-9 11v4l52 47l6 2
c13.333 -1.33301 40.333 -8 81 -20c4 -1.33301 15.667 -4.66602 35 -9.99902s32.666 -8 39.999 -8c3.33301 0 7.66602 2 12.999 6s11 9.33301 17 16l21 19h4z" />
    <glyph glyph-name="multiply" unicode="&#xd7;" horiz-adv-x="480" 
d="M387 407v-4l-133 -133l133 -133v-4l-13 -11l-134 134l-134 -134l-13 11v4l133 133l-133 133v4l13 11l134 -134l134 134z" />
    <glyph glyph-name="Oslash" unicode="&#xd8;" horiz-adv-x="627" 
d="M547 503.5c21.333 -47.667 32 -105.833 32 -174.5c0 -107.333 -23.333 -189.833 -70 -247.5s-113.667 -86.5 -201 -86.5c-48 0 -90 9.33301 -126 28l-51 -110l-16 3l-2 4l52 113c-38 25.333 -67 62 -87 110s-30 106 -30 174c0 104.667 23.333 185 70 241
s113.334 84 200.001 84c44 0 83 -7.66699 117 -23l42 90l16 -3l2 -5l-42 -91c41.333 -23.333 72.666 -58.833 93.999 -106.5zM95 154.501c18 -45 44.333 -79.167 79 -102.5l253 548c-30 14.667 -66.333 22 -109 22c-80.667 0 -142.5 -26.333 -185.5 -79
s-64.5 -128 -64.5 -226c0 -63.333 9 -117.5 27 -162.5zM494 96.501c43.333 54.333 65 131.833 65 232.5c0 64 -9.83301 118.167 -29.5 162.5s-48.167 77.5 -85.5 99.5l-253 -549c33.333 -18 72.333 -27 117 -27c80.667 0 142.667 27.167 186 81.5z" />
    <glyph glyph-name="Ugrave" unicode="&#xd9;" horiz-adv-x="612" 
d="M526 229c2 -73.333 -16.334 -130.5 -55.001 -171.5s-93.667 -61.5 -165 -61.5s-125.833 20 -163.5 60s-56.5 97.667 -56.5 173v408h20v-408c-0.666992 -68.667 16.333 -121.334 51 -158.001s84.334 -55 149.001 -55s114.167 18.333 148.5 55s51.5 89.334 51.5 158.001
v408h20v-408zM401.999 742l-7.00098 -15.001l-5 -3c-71.333 36.667 -129.333 67.667 -174 93l-2 5l7 12l5 2c56.667 -33.333 115.334 -64.666 176.001 -93.999z" />
    <glyph glyph-name="Uacute" unicode="&#xda;" horiz-adv-x="612" 
d="M526 229c2 -73.333 -16.334 -130.5 -55.001 -171.5s-93.667 -61.5 -165 -61.5s-125.833 20 -163.5 60s-56.5 97.667 -56.5 173v408h20v-408c-0.666992 -68.667 16.333 -121.334 51 -158.001s84.334 -55 149.001 -55s114.167 18.333 148.5 55s51.5 89.334 51.5 158.001
v408h20v-408zM418.999 834l6.99902 -11.999l-2 -5c-44.667 -25.333 -102.667 -56.333 -174 -93l-5 3l-7 15c60.667 29.333 119.334 60.666 176.001 93.999z" />
    <glyph glyph-name="Ucircumflex" unicode="&#xdb;" horiz-adv-x="612" 
d="M526 229c2 -73.333 -16.334 -130.5 -55.001 -171.5s-93.667 -61.5 -165 -61.5s-125.833 20 -163.5 60s-56.5 97.667 -56.5 173v408h20v-408c-0.666992 -68.667 16.333 -121.334 51 -158.001s84.334 -55 149.001 -55s114.167 18.333 148.5 55s51.5 89.334 51.5 158.001
v408h20v-408zM202.999 752c31.333 22 64.002 47.333 98.002 76h16c44 -34.667 77.333 -60 100 -76l-7 -14h-5c-30.667 21.333 -62.334 44.666 -95.001 69.999c-32.667 -25.333 -64.334 -48.666 -95.001 -69.999h-5z" />
    <glyph glyph-name="Udieresis" unicode="&#xdc;" horiz-adv-x="612" 
d="M526 229c2 -73.333 -16.334 -130.5 -55.001 -171.5s-93.667 -61.5 -165 -61.5s-125.833 20 -163.5 60s-56.5 97.667 -56.5 173v408h20v-408c-0.666992 -68.667 16.333 -121.334 51 -158.001s84.334 -55 149.001 -55s114.167 18.333 148.5 55s51.5 89.334 51.5 158.001
v408h20v-408zM254.499 794.5c3.66699 -3.66699 5.5 -8.5 5.5 -14.5s-1.83301 -10.833 -5.5 -14.5s-8.5 -5.5 -14.5 -5.5s-10.833 1.83301 -14.5 5.5s-5.5 8.5 -5.5 14.5s1.83301 10.833 5.5 14.5s8.5 5.5 14.5 5.5s10.833 -1.83301 14.5 -5.5zM394.499 794.5
c3.66699 -3.66699 5.5 -8.5 5.5 -14.5s-1.83301 -10.833 -5.5 -14.5s-8.5 -5.5 -14.5 -5.5s-10.833 1.83301 -14.5 5.5s-5.5 8.5 -5.5 14.5s1.83301 10.833 5.5 14.5s8.5 5.5 14.5 5.5s10.833 -1.83301 14.5 -5.5z" />
    <glyph glyph-name="Thorn" unicode="&#xde;" horiz-adv-x="487" 
d="M385 469.5c31.333 -31 47.001 -75.167 47.001 -132.5c0 -68 -18.333 -120.167 -55 -156.5s-89.334 -54.5 -158.001 -54.5h-89v-126h-20v637h20v-123l121 2c58 0 102.667 -15.5 134 -46.5zM370.001 205c28 32.667 42 76.667 42 132c0 49.333 -13.333 87.666 -40 114.999
s-64.667 42 -114 44l-128 -1v-349h119c52.667 6.66699 93 26.334 121 59.001z" />
    <glyph glyph-name="germandbls" unicode="&#xdf;" horiz-adv-x="526" 
d="M435 451l3 -8.99707l-157 -176c62 -7.33301 109.333 -22.5 142 -45.5s49 -54.167 49 -93.5c0 -38 -13.833 -69.167 -41.5 -93.5s-62.5 -36.5 -104.5 -36.5c-22 0 -44.833 3.16699 -68.5 9.5s-44.5 15.166 -62.5 26.499l3 19l4 1c16.667 -12 36.334 -21.167 59.001 -27.5
s44 -9.5 64 -9.5c37.333 0 67.833 10.667 91.5 32s35.5 47.666 35.5 78.999c0 69.333 -65.333 110.333 -196 123l-3 12l158 178c-48 22.667 -95.333 34 -142 34c-48 0 -86.667 -12.833 -116 -38.5s-44 -59.834 -44 -102.501v-333h-20v333c0 48 16.667 86.667 50 116
s76.666 44 129.999 44c50 0 105.333 -14 166 -42z" />
    <glyph glyph-name="agrave" unicode="&#xe0;" horiz-adv-x="494" 
d="M172 692l-1 5.00098l10 10l5 1c51.333 -52.667 100 -98.334 146 -137.001l-11 -13l-5 -1c-50 44 -98 89 -144 135zM452 0.000976562h-23l-10 35l-49 126h-248l-53 -126l-12 -35h-23l207 491h21zM252 461.001h-3l-119 -281h232z" />
    <glyph glyph-name="aacute" unicode="&#xe1;" horiz-adv-x="494" 
d="M213 558l-11 12.999c46 38.667 94.667 84.334 146 137.001l5 -1l10 -10l-1 -5c-46 -46 -94 -91 -144 -135zM452 -0.000976562h-23l-10 35l-49 126h-248l-53 -126l-12 -35h-23l207 491h21zM252 460.999h-3l-119 -281h232z" />
    <glyph glyph-name="acircumflex" unicode="&#xe2;" horiz-adv-x="494" 
d="M150 559l-9 12c25.333 28.667 59 70.667 101 126h18c42 -55.333 75.667 -97.333 101 -126l-9 -12h-5c-32 35.333 -64 74.333 -96 117c-32 -42.667 -64 -81.667 -96 -117h-5zM452 0h-23l-10 35l-49 126h-248l-53 -126l-12 -35h-23l207 491h21zM252 461h-3l-119 -281h232z
" />
    <glyph glyph-name="atilde" unicode="&#xe3;" horiz-adv-x="494" 
d="M121 603l-9 11v4l52 47l6 2c13.333 -1.33301 40.333 -8 81 -20c4 -1.33301 15.667 -4.66602 35 -9.99902s32.666 -8 39.999 -8c3.33301 0 7.66602 2 12.999 6s11 9.33301 17 16l21 19h4l9 -11v-4l-52 -47l-6 -2c-13.333 1.33301 -40.333 8 -81 20
c-4 1.33301 -15.667 4.66602 -35 9.99902s-32.666 8 -39.999 8c-3.33301 0 -7.66602 -2 -12.999 -6s-11 -9.33301 -17 -16l-21 -19h-4zM452 0h-23l-10 35l-49 126h-248l-53 -126l-12 -35h-23l207 491h21zM252 461h-3l-119 -281h232z" />
    <glyph glyph-name="adieresis" unicode="&#xe4;" horiz-adv-x="494" 
d="M166.5 619.5c-3.66699 3.66699 -5.5 8.5 -5.5 14.5s1.83301 10.833 5.5 14.5s8.5 5.5 14.5 5.5s10.833 -1.83301 14.5 -5.5s5.5 -8.5 5.5 -14.5s-1.83301 -10.833 -5.5 -14.5s-8.5 -5.5 -14.5 -5.5s-10.833 1.83301 -14.5 5.5zM306.5 619.5
c-3.66699 3.66699 -5.5 8.5 -5.5 14.5s1.83301 10.833 5.5 14.5s8.5 5.5 14.5 5.5s10.833 -1.83301 14.5 -5.5s5.5 -8.5 5.5 -14.5s-1.83301 -10.833 -5.5 -14.5s-8.5 -5.5 -14.5 -5.5s-10.833 1.83301 -14.5 5.5zM452 0h-23l-10 35l-49 126h-248l-53 -126l-12 -35h-23
l207 491h21zM252 461h-3l-119 -281h232z" />
    <glyph glyph-name="aring" unicode="&#xe5;" horiz-adv-x="494" 
d="M200 587.5c-14 13 -21 29.834 -21 50.501c0 20 6.5 36.5 19.5 49.5s29.833 19.5 50.5 19.5c22 0 39.333 -7 52 -21s19 -30.333 19 -49c0 -20.667 -7.16699 -37.334 -21.5 -50.001s-30.833 -19 -49.5 -19s-35 6.5 -49 19.5zM212.5 673.501
c-9 -9 -13.5 -20.833 -13.5 -35.5c0 -15.333 4.83301 -27.5 14.5 -36.5s21.5 -13.5 35.5 -13.5s26 4.33301 36 13s15 20.667 15 36c0 14 -4.5 25.833 -13.5 35.5s-21.5 14.5 -37.5 14.5c-15.333 0 -27.5 -4.5 -36.5 -13.5zM452 0.000976562h-23l-10 35l-49 126h-248
l-53 -126l-12 -35h-23l207 491h21zM252 461.001h-3l-119 -281h232z" />
    <glyph glyph-name="ae" unicode="&#xe6;" horiz-adv-x="688" 
d="M649 16l-3 -16h-252l-5 35l-33 186l-214 -35l-92 -151l-17 -35h-26l300 491h251l3 -4l-4 -16l-224 1l40 -229l192 30l3 -2l-2 -17l-190 -29l36 -206h235zM352 240l-39 220h-3l-154 -252z" />
    <glyph glyph-name="ccedilla" unicode="&#xe7;" horiz-adv-x="467" 
d="M276 -4l-15.9932 -50.999l31 -20c11.333 -7.33301 19.666 -14.833 24.999 -22.5s8 -16.834 8 -27.501c0 -16 -5.83301 -28.833 -17.5 -38.5s-25.834 -14.5 -42.501 -14.5c-24.667 0 -44.334 11 -59.001 33l6 18h4c6.66699 -10.667 13.667 -18.5 21 -23.5
s16.666 -7.5 27.999 -7.5c12 0 21.667 2.83301 29 8.5s11 13.834 11 24.501c0 7.33301 -1.83301 13.166 -5.5 17.499s-9.83398 9.5 -18.501 15.5l-44 28l20 60c-64 2.66699 -113 25.334 -147 68.001s-51 102.667 -51 180c0 80 18.833 141.667 56.5 185s91.834 65 162.501 65
c25.333 0 50.666 -3.83301 75.999 -11.5s48 -18.5 68 -32.5l-6 -18h-6c-18.667 13.333 -39.334 23.833 -62.001 31.5s-46 11.5 -70 11.5c-64.667 0 -113.834 -19.833 -147.501 -59.5s-50.5 -96.834 -50.5 -171.501c0 -74 16.167 -130.667 48.5 -170s78.833 -59 139.5 -59
c26 0 52 4.5 78 13.5s49.667 21.5 71 37.5l6 -2l-2 -18c-46 -31.333 -94 -48 -144 -50z" />
    <glyph glyph-name="egrave" unicode="&#xe8;" horiz-adv-x="412" 
d="M158 692l-1 5.00098l10 10l5 1c51.333 -52.667 100 -98.334 146 -137.001l-11 -13l-5 -1c-50 44 -98 89 -144 135zM370 16.001l-4 -16h-258v491h256l3 -4l-4 -16l-235 1v-208h195l2 -4l-3 -16h-194v-225h239z" />
    <glyph glyph-name="eacute" unicode="&#xe9;" horiz-adv-x="412" 
d="M199 558l-11 12.999c46 38.667 94.667 84.334 146 137.001l5 -1l10 -10l-1 -5c-46 -46 -94 -91 -144 -135zM370 15.999l-4 -16h-258v491h256l3 -4l-4 -16l-235 1v-208h195l2 -4l-3 -16h-194v-225h239z" />
    <glyph glyph-name="ecircumflex" unicode="&#xea;" horiz-adv-x="412" 
d="M136 559l-9 12c25.333 28.667 59 70.667 101 126h18c42 -55.333 75.667 -97.333 101 -126l-9 -12h-5c-32 35.333 -64 74.333 -96 117c-32 -42.667 -64 -81.667 -96 -117h-5zM370 16l-4 -16h-258v491h256l3 -4l-4 -16l-235 1v-208h195l2 -4l-3 -16h-194v-225h239z" />
    <glyph glyph-name="edieresis" unicode="&#xeb;" horiz-adv-x="412" 
d="M152.5 619.5c-3.66699 3.66699 -5.5 8.5 -5.5 14.5s1.83301 10.833 5.5 14.5s8.5 5.5 14.5 5.5s10.833 -1.83301 14.5 -5.5s5.5 -8.5 5.5 -14.5s-1.83301 -10.833 -5.5 -14.5s-8.5 -5.5 -14.5 -5.5s-10.833 1.83301 -14.5 5.5zM292.5 619.5
c-3.66699 3.66699 -5.5 8.5 -5.5 14.5s1.83301 10.833 5.5 14.5s8.5 5.5 14.5 5.5s10.833 -1.83301 14.5 -5.5s5.5 -8.5 5.5 -14.5s-1.83301 -10.833 -5.5 -14.5s-8.5 -5.5 -14.5 -5.5s-10.833 1.83301 -14.5 5.5zM370 16l-4 -16h-258v491h256l3 -4l-4 -16l-235 1v-208h195
l2 -4l-3 -16h-194v-225h239z" />
    <glyph glyph-name="igrave" unicode="&#xec;" horiz-adv-x="237" 
d="M200 571l-11 -12.999l-5 -1c-50 44 -98 89 -144 135l-1 5l10 10l5 1c51.333 -52.667 100 -98.334 146 -137.001zM128 0.000976562h-20v491h20v-491z" />
    <glyph glyph-name="iacute" unicode="&#xed;" horiz-adv-x="237" 
d="M222 707l10 -10.001l-1 -5c-46 -46 -94 -91 -144 -135l-5 1l-11 13c46 38.667 94.667 84.334 146 137.001zM128 -0.000976562h-20v491h20v-491z" />
    <glyph glyph-name="icircumflex" unicode="&#xee;" horiz-adv-x="237" 
d="M10 571c25.333 28.667 59 70.667 101 126h18c42 -55.333 75.667 -97.333 101 -126l-9 -12h-5c-32 35.333 -64 74.333 -96 117c-32 -42.667 -64 -81.667 -96 -117h-5zM128 0h-20v491h20v-491z" />
    <glyph glyph-name="eth" unicode="&#xf0;" horiz-adv-x="570" 
d="M453 434.5c39.333 -40.333 59.002 -98.167 59.002 -173.5c0 -84.667 -20.5 -150 -61.5 -196s-99.5 -69 -175.5 -69c-19.333 0 -44.333 0.333008 -75 1s-58.334 1.66699 -83.001 3v234h-100l-2 3l1 17h101v237l167 4c73.333 0 129.666 -20.167 168.999 -60.5z
M436.002 78.499c37.333 42.333 56.001 102.833 56.001 181.5c0 69.333 -18 122.5 -54 159.5s-87.667 55.5 -155 55.5l-146 -4v-217h149l2 -3l-1 -17h-150v-215c22 -1.33301 46.5 -2.33301 73.5 -3s48.833 -1 65.5 -1c69.333 0 122.666 21.167 159.999 63.5z" />
    <glyph glyph-name="ntilde" unicode="&#xf1;" horiz-adv-x="588" 
d="M431 659v-4l-52 -47l-6 -2c-13.333 1.33301 -40.333 8 -81 20c-4 1.33301 -15.667 4.66602 -35 9.99902s-32.666 8 -39.999 8c-3.33301 0 -7.66602 -2 -12.999 -6s-11 -9.33301 -17 -16l-21 -19h-4l-9 11v4l52 47l6 2c13.333 -1.33301 40.333 -8 81 -20
c4 -1.33301 15.667 -4.66602 35 -9.99902s32.666 -8 39.999 -8c3.33301 0 7.66602 2 12.999 6s11 9.33301 17 16l21 19h4zM479 137l-1 -137h-20l-326 451h-3l-1 -297v-154h-20v146l1 345h20l326 -451h4l1 450l20 2z" />
    <glyph glyph-name="ograve" unicode="&#xf2;" horiz-adv-x="553" 
d="M359 571l-11 -12.999l-5 -1c-50 44 -98 89 -144 135l-1 5l10 10l5 1c51.333 -52.667 100 -98.334 146 -137.001zM439.5 432.501c37 -41.667 55.5 -101.166 55.5 -178.499c0 -82.667 -19.333 -146.334 -58 -191.001s-93.667 -67 -165 -67
c-68.667 0 -121.5 21.5 -158.5 64.5s-55.5 104.167 -55.5 183.5c0 80.667 19.167 142.667 57.5 186s93.5 65 165.5 65c68.667 0 121.5 -20.833 158.5 -62.5zM130.5 416.002c-34.333 -39.333 -51.5 -96.334 -51.5 -171.001s16.667 -131.667 50 -171s81 -59 143 -59
c65.333 0 115.5 20.333 150.5 61s52.5 99.334 52.5 176.001c0 72 -16.833 127.167 -50.5 165.5s-81.834 57.5 -144.501 57.5c-65.333 0 -115.166 -19.667 -149.499 -59z" />
    <glyph glyph-name="oacute" unicode="&#xf3;" horiz-adv-x="553" 
d="M380 707l10 -10.001l-1 -5c-46 -46 -94 -91 -144 -135l-5 1l-11 13c46 38.667 94.667 84.334 146 137.001zM439.5 432.499c37 -41.667 55.5 -101.166 55.5 -178.499c0 -82.667 -19.333 -146.334 -58 -191.001s-93.667 -67 -165 -67c-68.667 0 -121.5 21.5 -158.5 64.5
s-55.5 104.167 -55.5 183.5c0 80.667 19.167 142.667 57.5 186s93.5 65 165.5 65c68.667 0 121.5 -20.833 158.5 -62.5zM130.5 416c-34.333 -39.333 -51.5 -96.334 -51.5 -171.001s16.667 -131.667 50 -171s81 -59 143 -59c65.333 0 115.5 20.333 150.5 61
s52.5 99.334 52.5 176.001c0 72 -16.833 127.167 -50.5 165.5s-81.834 57.5 -144.501 57.5c-65.333 0 -115.166 -19.667 -149.499 -59z" />
    <glyph glyph-name="ocircumflex" unicode="&#xf4;" horiz-adv-x="553" 
d="M168 571c25.333 28.667 59 70.667 101 126h18c42 -55.333 75.667 -97.333 101 -126l-9 -12h-5c-32 35.333 -64 74.333 -96 117c-32 -42.667 -64 -81.667 -96 -117h-5zM439.5 432.5c37 -41.667 55.5 -101.166 55.5 -178.499c0 -82.667 -19.333 -146.334 -58 -191.001
s-93.667 -67 -165 -67c-68.667 0 -121.5 21.5 -158.5 64.5s-55.5 104.167 -55.5 183.5c0 80.667 19.167 142.667 57.5 186s93.5 65 165.5 65c68.667 0 121.5 -20.833 158.5 -62.5zM130.5 416.001c-34.333 -39.333 -51.5 -96.334 -51.5 -171.001s16.667 -131.667 50 -171
s81 -59 143 -59c65.333 0 115.5 20.333 150.5 61s52.5 99.334 52.5 176.001c0 72 -16.833 127.167 -50.5 165.5s-81.834 57.5 -144.501 57.5c-65.333 0 -115.166 -19.667 -149.499 -59z" />
    <glyph glyph-name="otilde" unicode="&#xf5;" horiz-adv-x="553" 
d="M417 659v-4l-52 -47l-6 -2c-13.333 1.33301 -40.333 8 -81 20c-4 1.33301 -15.667 4.66602 -35 9.99902s-32.666 8 -39.999 8c-3.33301 0 -7.66602 -2 -12.999 -6s-11 -9.33301 -17 -16l-21 -19h-4l-9 11v4l52 47l6 2c13.333 -1.33301 40.333 -8 81 -20
c4 -1.33301 15.667 -4.66602 35 -9.99902s32.666 -8 39.999 -8c3.33301 0 7.66602 2 12.999 6s11 9.33301 17 16l21 19h4zM439.5 432.5c37 -41.667 55.5 -101.166 55.5 -178.499c0 -82.667 -19.333 -146.334 -58 -191.001s-93.667 -67 -165 -67
c-68.667 0 -121.5 21.5 -158.5 64.5s-55.5 104.167 -55.5 183.5c0 80.667 19.167 142.667 57.5 186s93.5 65 165.5 65c68.667 0 121.5 -20.833 158.5 -62.5zM130.5 416.001c-34.333 -39.333 -51.5 -96.334 -51.5 -171.001s16.667 -131.667 50 -171s81 -59 143 -59
c65.333 0 115.5 20.333 150.5 61s52.5 99.334 52.5 176.001c0 72 -16.833 127.167 -50.5 165.5s-81.834 57.5 -144.501 57.5c-65.333 0 -115.166 -19.667 -149.499 -59z" />
    <glyph glyph-name="divide" unicode="&#xf7;" horiz-adv-x="480" 
d="M456 277l-2 -17h-397l-3 3l2 17h397zM278.5 102.5c3.66699 -3.66699 5.5 -8.5 5.5 -14.5s-1.83301 -10.833 -5.5 -14.5s-8.5 -5.5 -14.5 -5.5s-10.833 1.83301 -14.5 5.5s-5.5 8.5 -5.5 14.5s1.83301 10.833 5.5 14.5s8.5 5.5 14.5 5.5s10.833 -1.83301 14.5 -5.5z
M278.5 465.5c3.66699 -3.66699 5.5 -8.5 5.5 -14.5s-1.83301 -10.833 -5.5 -14.5s-8.5 -5.5 -14.5 -5.5s-10.833 1.83301 -14.5 5.5s-5.5 8.5 -5.5 14.5s1.83301 10.833 5.5 14.5s8.5 5.5 14.5 5.5s10.833 -1.83301 14.5 -5.5z" />
    <glyph glyph-name="oslash" unicode="&#xf8;" horiz-adv-x="553" 
d="M468 390.5c18 -37 26.998 -82.499 26.998 -136.499c0 -82.667 -19.333 -146.334 -58 -191.001s-93.667 -67 -165 -67c-33.333 0 -62.666 5 -87.999 15l-44 -98l-16 3l-2 4l44 99c-35.333 18 -62.166 46 -80.499 84s-27.5 85 -27.5 141c0 80.667 19.167 142.667 57.5 186
s93.5 65 165.5 65c34 0 64 -5 90 -15l31 70l15 -2l2 -5l-31 -71c35.333 -17.333 62 -44.5 80 -81.5zM102.998 115.501c16 -35 39.666 -61.167 70.999 -78.5l188 424c-24.667 9.33301 -52 14 -82 14c-65.333 0 -115.166 -19.667 -149.499 -59s-51.5 -96.333 -51.5 -171
c0 -51.333 8 -94.5 24 -129.5zM422.497 76.001c35 40.667 52.499 99.333 52.499 176c0 50 -8.16699 92 -24.5 126s-40.166 59 -71.499 75l-188 -424c24.667 -9.33301 51.667 -14 81 -14c65.333 0 115.5 20.333 150.5 61z" />
    <glyph glyph-name="ugrave" unicode="&#xf9;" horiz-adv-x="541" 
d="M355 571l-11 -12.999l-5 -1c-50 44 -98 89 -144 135l-1 5l10 10l5 1c51.333 -52.667 100 -98.334 146 -137.001zM452 176.001c1.33301 -56.667 -14.002 -100.667 -46.002 -132s-77.333 -47 -136 -47c-59.333 0 -104.5 15.5 -135.5 46.5s-46.167 75.167 -45.5 132.5l1 72
v243h21l-2 -314c-0.666992 -52 12.833 -91.833 40.5 -119.5s67.834 -41.5 120.501 -41.5s92.834 13.833 120.501 41.5s41.5 67.5 41.5 119.5v314h20v-315z" />
    <glyph glyph-name="uacute" unicode="&#xfa;" horiz-adv-x="541" 
d="M376 707l10 -10.001l-1 -5c-46 -46 -94 -91 -144 -135l-5 1l-11 13c46 38.667 94.667 84.334 146 137.001zM452 175.999c1.33301 -56.667 -14.002 -100.667 -46.002 -132s-77.333 -47 -136 -47c-59.333 0 -104.5 15.5 -135.5 46.5s-46.167 75.167 -45.5 132.5l1 72v243
h21l-2 -314c-0.666992 -52 12.833 -91.833 40.5 -119.5s67.834 -41.5 120.501 -41.5s92.834 13.833 120.501 41.5s41.5 67.5 41.5 119.5v314h20v-315z" />
    <glyph glyph-name="ucircumflex" unicode="&#xfb;" horiz-adv-x="541" 
d="M164 571c25.333 28.667 59 70.667 101 126h18c42 -55.333 75.667 -97.333 101 -126l-9 -12h-5c-32 35.333 -64 74.333 -96 117c-32 -42.667 -64 -81.667 -96 -117h-5zM452 176c1.33301 -56.667 -14.002 -100.667 -46.002 -132s-77.333 -47 -136 -47
c-59.333 0 -104.5 15.5 -135.5 46.5s-46.167 75.167 -45.5 132.5l1 72v243h21l-2 -314c-0.666992 -52 12.833 -91.833 40.5 -119.5s67.834 -41.5 120.501 -41.5s92.834 13.833 120.501 41.5s41.5 67.5 41.5 119.5v314h20v-315z" />
    <glyph glyph-name="udieresis" unicode="&#xfc;" horiz-adv-x="541" 
d="M218.5 648.5c3.66699 -3.66699 5.5 -8.5 5.5 -14.5s-1.83301 -10.833 -5.5 -14.5s-8.5 -5.5 -14.5 -5.5s-10.833 1.83301 -14.5 5.5s-5.5 8.5 -5.5 14.5s1.83301 10.833 5.5 14.5s8.5 5.5 14.5 5.5s10.833 -1.83301 14.5 -5.5zM358.5 648.5
c3.66699 -3.66699 5.5 -8.5 5.5 -14.5s-1.83301 -10.833 -5.5 -14.5s-8.5 -5.5 -14.5 -5.5s-10.833 1.83301 -14.5 5.5s-5.5 8.5 -5.5 14.5s1.83301 10.833 5.5 14.5s8.5 5.5 14.5 5.5s10.833 -1.83301 14.5 -5.5zM452 176c1.33301 -56.667 -14.002 -100.667 -46.002 -132
s-77.333 -47 -136 -47c-59.333 0 -104.5 15.5 -135.5 46.5s-46.167 75.167 -45.5 132.5l1 72v243h21l-2 -314c-0.666992 -52 12.833 -91.833 40.5 -119.5s67.834 -41.5 120.501 -41.5s92.834 13.833 120.501 41.5s41.5 67.5 41.5 119.5v314h20v-315z" />
    <glyph glyph-name="thorn" unicode="&#xfe;" horiz-adv-x="440" 
d="M338 362.5c26 -23.667 39.001 -57.833 39.001 -102.5c0 -52.667 -15.333 -93.167 -46 -121.5s-74.334 -42.5 -131.001 -42.5h-72v-96h-20v491h20v-94l99 1c48 0 85 -11.833 111 -35.5zM322.501 159.501c22.333 25 33.5 58.167 33.5 99.5c0 37.333 -10.667 66.5 -32 87.5
s-52.333 32.167 -93 33.5l-103 -1v-264h97c42.667 4.66699 75.167 19.5 97.5 44.5z" />
    <glyph glyph-name="ydieresis" unicode="&#xff;" horiz-adv-x="447" 
d="M141.5 619.5c-3.66699 3.66699 -5.5 8.5 -5.5 14.5s1.83301 10.833 5.5 14.5s8.5 5.5 14.5 5.5s10.833 -1.83301 14.5 -5.5s5.5 -8.5 5.5 -14.5s-1.83301 -10.833 -5.5 -14.5s-8.5 -5.5 -14.5 -5.5s-10.833 1.83301 -14.5 5.5zM281.5 619.5
c-3.66699 3.66699 -5.5 8.5 -5.5 14.5s1.83301 10.833 5.5 14.5s8.5 5.5 14.5 5.5s10.833 -1.83301 14.5 -5.5s5.5 -8.5 5.5 -14.5s-1.83301 -10.833 -5.5 -14.5s-8.5 -5.5 -14.5 -5.5s-10.833 1.83301 -14.5 5.5zM226 186v-186h-20v187l-166 304h25l9 -21l140 -253h4
l152 253l10 21h25z" />
    <glyph glyph-name="Amacron" unicode="&#x100;" horiz-adv-x="554" 
d="M526 0h-23l-13 43l-63 170h-302l-68 -170l-14 -43h-24l254 637h20zM284 603h-4l-147 -370h287zM423 789l-2 -17h-287l-3 3l2 17h287z" />
    <glyph glyph-name="amacron" unicode="&#x101;" horiz-adv-x="494" 
d="M108 626l-3 3l2 17h287l3 -3l-2 -17h-287zM452 0h-23l-10 35l-49 126h-248l-53 -126l-12 -35h-23l207 491h21zM252 461h-3l-119 -281h232z" />
    <glyph glyph-name="Abreve" unicode="&#x102;" horiz-adv-x="554" 
d="M526 0h-23l-13 43l-63 170h-302l-68 -170l-14 -43h-24l254 637h20zM284 603h-4l-147 -370h287zM378 802c-7.33301 -24 -19.833 -42.333 -37.5 -55s-39.167 -19 -64.5 -19s-46.666 6.33301 -63.999 19s-29.333 31 -36 55l13 11h5c5.33301 -21.333 14.833 -37.5 28.5 -48.5
s31.5 -16.5 53.5 -16.5s40.167 5.5 54.5 16.5s24.166 27.167 29.499 48.5h5z" />
    <glyph glyph-name="abreve" unicode="&#x103;" horiz-adv-x="494" 
d="M184.5 586.5c-16.333 17 -27.833 43.5 -34.5 79.5l13 13h5c4.66699 -33.333 13.667 -58 27 -74s32 -24 56 -24s42.667 8 56 24s22.333 40.667 27 74h5l13 -13c-6.66699 -36 -18.167 -62.5 -34.5 -79.5s-38.5 -25.5 -66.5 -25.5s-50.167 8.5 -66.5 25.5zM452 0h-23l-10 35
l-49 126h-248l-53 -126l-12 -35h-23l207 491h21zM252 461h-3l-119 -281h232z" />
    <glyph glyph-name="Aogonek" unicode="&#x104;" horiz-adv-x="554" 
d="M526 0h-23l-13 43l-63 170h-302l-68 -170l-14 -43h-24l254 637h20zM284 603h-4l-147 -370h287zM461 -107.5c-9.33301 -17.667 -14.001 -31.167 -14.001 -40.5c0 -8.66699 2.33301 -15.167 7 -19.5s11 -6.5 19 -6.5c18.667 0 33.334 14 44.001 42h2l15 -11
c-7.33301 -17.333 -16.166 -30 -26.499 -38s-22.5 -12 -36.5 -12c-13.333 0 -24 3.83301 -32 11.5s-12 18.167 -12 31.5c0 12.667 5.16699 28.5 15.5 47.5s32.166 53.167 65.499 102.5h18c-34 -54 -55.667 -89.833 -65 -107.5z" />
    <glyph glyph-name="aogonek" unicode="&#x105;" horiz-adv-x="494" 
d="M460 -143c-7.33301 -17.333 -16.167 -30 -26.5 -38s-22.5 -12 -36.5 -12c-13.333 0 -24 3.83301 -32 11.5s-12 18.167 -12 31.5c0 12.667 5.16699 28.5 15.5 47.5s32.166 53.167 65.499 102.5h-5l-10 35l-49 126h-248l-53 -126l-12 -35h-23l207 491h21l190 -491
c-34 -54 -55.667 -89.833 -65 -107.5s-14 -31.167 -14 -40.5c0 -8.66699 2.33301 -15.167 7 -19.5s11 -6.5 19 -6.5c18.667 0 33.334 14 44.001 42h2zM251.999 461h-3l-119 -281h232z" />
    <glyph glyph-name="Cacute" unicode="&#x106;" horiz-adv-x="523" 
d="M406 625.5c30.667 -10.333 58.333 -24.833 83 -43.5l-7 -17h-7c-22.667 18 -47.834 31.833 -75.501 41.5s-56.5 14.5 -86.5 14.5c-79.333 0 -140 -26.333 -182 -79s-63 -128 -63 -226c0 -96.667 20 -171 60 -223s97.667 -78 173 -78c32 0 63.833 5.83301 95.5 17.5
s60.834 28.167 87.501 49.5l7 -2l-2 -18c-28 -21.333 -58.333 -37.833 -91 -49.5s-64.667 -17.5 -96 -17.5c-82 0 -144.833 27.833 -188.5 83.5s-65.5 135.167 -65.5 238.5c0 104 22.833 184 68.5 240s111.167 84 196.5 84c31.333 0 62.333 -5.16699 93 -15.5zM421.999 834
l6.99902 -11.999l-2 -5c-44.667 -25.333 -102.667 -56.333 -174 -93l-5 3l-7 15c60.667 29.333 119.334 60.666 176.001 93.999z" />
    <glyph glyph-name="cacute" unicode="&#x107;" horiz-adv-x="467" 
d="M359 707l10 -10.001l-1 -5c-46 -46 -94 -91 -144 -135l-5 1l-11 13c46 38.667 94.667 84.334 146 137.001zM353 482.499c25.333 -7.66699 48.0029 -18.499 68.0029 -32.499l-6 -18h-6c-18.667 13.333 -39.334 23.833 -62.001 31.5s-46 11.5 -70 11.5
c-64.667 0 -113.834 -19.833 -147.501 -59.5s-50.5 -96.834 -50.5 -171.501c0 -74 16.167 -130.667 48.5 -170s78.833 -59 139.5 -59c26 0 52 4.5 78 13.5s49.667 21.5 71 37.5l6 -2l-2 -18c-22.667 -16 -47.334 -28.333 -74.001 -37s-52.667 -13 -78 -13
c-68 0 -120 21.333 -156 64s-54 104 -54 184s18.833 141.667 56.5 185s91.834 65 162.501 65c25.333 0 50.666 -3.83301 75.999 -11.5z" />
    <glyph glyph-name="Ccircumflex" unicode="&#x108;" horiz-adv-x="523" 
d="M406 625.5c30.667 -10.333 58.333 -24.833 83 -43.5l-7 -17h-7c-22.667 18 -47.834 31.833 -75.501 41.5s-56.5 14.5 -86.5 14.5c-79.333 0 -140 -26.333 -182 -79s-63 -128 -63 -226c0 -96.667 20 -171 60 -223s97.667 -78 173 -78c32 0 63.833 5.83301 95.5 17.5
s60.834 28.167 87.501 49.5l7 -2l-2 -18c-28 -21.333 -58.333 -37.833 -91 -49.5s-64.667 -17.5 -96 -17.5c-82 0 -144.833 27.833 -188.5 83.5s-65.5 135.167 -65.5 238.5c0 104 22.833 184 68.5 240s111.167 84 196.5 84c31.333 0 62.333 -5.16699 93 -15.5zM205.999 752
c31.333 22 64.002 47.333 98.002 76h16c44 -34.667 77.333 -60 100 -76l-7 -14h-5c-30.667 21.333 -62.334 44.666 -95.001 69.999c-32.667 -25.333 -64.334 -48.666 -95.001 -69.999h-5z" />
    <glyph glyph-name="ccircumflex" unicode="&#x109;" horiz-adv-x="467" 
d="M147 571c25.333 28.667 59 70.667 101 126h18c42 -55.333 75.667 -97.333 101 -126l-9 -12h-5c-32 35.333 -64 74.333 -96 117c-32 -42.667 -64 -81.667 -96 -117h-5zM353 482.5c25.333 -7.66699 48.0029 -18.499 68.0029 -32.499l-6 -18h-6
c-18.667 13.333 -39.334 23.833 -62.001 31.5s-46 11.5 -70 11.5c-64.667 0 -113.834 -19.833 -147.501 -59.5s-50.5 -96.834 -50.5 -171.501c0 -74 16.167 -130.667 48.5 -170s78.833 -59 139.5 -59c26 0 52 4.5 78 13.5s49.667 21.5 71 37.5l6 -2l-2 -18
c-22.667 -16 -47.334 -28.333 -74.001 -37s-52.667 -13 -78 -13c-68 0 -120 21.333 -156 64s-54 104 -54 184s18.833 141.667 56.5 185s91.834 65 162.501 65c25.333 0 50.666 -3.83301 75.999 -11.5z" />
    <glyph glyph-name="Cdotaccent" unicode="&#x10a;" horiz-adv-x="523" 
d="M406 625.5c30.667 -10.333 58.333 -24.833 83 -43.5l-7 -17h-7c-22.667 18 -47.834 31.833 -75.501 41.5s-56.5 14.5 -86.5 14.5c-79.333 0 -140 -26.333 -182 -79s-63 -128 -63 -226c0 -96.667 20 -171 60 -223s97.667 -78 173 -78c32 0 63.833 5.83301 95.5 17.5
s60.834 28.167 87.501 49.5l7 -2l-2 -18c-28 -21.333 -58.333 -37.833 -91 -49.5s-64.667 -17.5 -96 -17.5c-82 0 -144.833 27.833 -188.5 83.5s-65.5 135.167 -65.5 238.5c0 104 22.833 184 68.5 240s111.167 84 196.5 84c31.333 0 62.333 -5.16699 93 -15.5z
M327.499 810.5c3.66699 -3.66699 5.5 -8.5 5.5 -14.5s-1.83301 -10.833 -5.5 -14.5s-8.5 -5.5 -14.5 -5.5s-10.833 1.83301 -14.5 5.5s-5.5 8.5 -5.5 14.5s1.83301 10.833 5.5 14.5s8.5 5.5 14.5 5.5s10.833 -1.83301 14.5 -5.5z" />
    <glyph glyph-name="cdotaccent" unicode="&#x10b;" horiz-adv-x="467" 
d="M271.5 664.5c3.66699 -3.66699 5.5 -8.5 5.5 -14.5s-1.83301 -10.833 -5.5 -14.5s-8.5 -5.5 -14.5 -5.5s-10.833 1.83301 -14.5 5.5s-5.5 8.5 -5.5 14.5s1.83301 10.833 5.5 14.5s8.5 5.5 14.5 5.5s10.833 -1.83301 14.5 -5.5zM353 482.5
c25.333 -7.66699 48.0029 -18.499 68.0029 -32.499l-6 -18h-6c-18.667 13.333 -39.334 23.833 -62.001 31.5s-46 11.5 -70 11.5c-64.667 0 -113.834 -19.833 -147.501 -59.5s-50.5 -96.834 -50.5 -171.501c0 -74 16.167 -130.667 48.5 -170s78.833 -59 139.5 -59
c26 0 52 4.5 78 13.5s49.667 21.5 71 37.5l6 -2l-2 -18c-22.667 -16 -47.334 -28.333 -74.001 -37s-52.667 -13 -78 -13c-68 0 -120 21.333 -156 64s-54 104 -54 184s18.833 141.667 56.5 185s91.834 65 162.501 65c25.333 0 50.666 -3.83301 75.999 -11.5z" />
    <glyph glyph-name="Ccaron" unicode="&#x10c;" horiz-adv-x="523" 
d="M406 625.5c30.667 -10.333 58.333 -24.833 83 -43.5l-7 -17h-7c-22.667 18 -47.834 31.833 -75.501 41.5s-56.5 14.5 -86.5 14.5c-79.333 0 -140 -26.333 -182 -79s-63 -128 -63 -226c0 -96.667 20 -171 60 -223s97.667 -78 173 -78c32 0 63.833 5.83301 95.5 17.5
s60.834 28.167 87.501 49.5l7 -2l-2 -18c-28 -21.333 -58.333 -37.833 -91 -49.5s-64.667 -17.5 -96 -17.5c-82 0 -144.833 27.833 -188.5 83.5s-65.5 135.167 -65.5 238.5c0 104 22.833 184 68.5 240s111.167 84 196.5 84c31.333 0 62.333 -5.16699 93 -15.5zM419.999 805
c-31.333 -22 -64.002 -47.333 -98.002 -76h-16c-44 34.667 -77.333 60 -100 76l7 14h5c30.667 -21.333 62.334 -44.666 95.001 -69.999c32.667 25.333 64.334 48.666 95.001 69.999h5z" />
    <glyph glyph-name="ccaron" unicode="&#x10d;" horiz-adv-x="467" 
d="M367 685c-25.333 -28.667 -59 -70.667 -101 -126h-18c-42 55.333 -75.667 97.333 -101 126l9 12h5c32 -35.333 64 -74.333 96 -117c32 42.667 64 81.667 96 117h5zM353 482.5c25.333 -7.66699 48.0029 -18.499 68.0029 -32.499l-6 -18h-6
c-18.667 13.333 -39.334 23.833 -62.001 31.5s-46 11.5 -70 11.5c-64.667 0 -113.834 -19.833 -147.501 -59.5s-50.5 -96.834 -50.5 -171.501c0 -74 16.167 -130.667 48.5 -170s78.833 -59 139.5 -59c26 0 52 4.5 78 13.5s49.667 21.5 71 37.5l6 -2l-2 -18
c-22.667 -16 -47.334 -28.333 -74.001 -37s-52.667 -13 -78 -13c-68 0 -120 21.333 -156 64s-54 104 -54 184s18.833 141.667 56.5 185s91.834 65 162.501 65c25.333 0 50.666 -3.83301 75.999 -11.5z" />
    <glyph glyph-name="Dcaron" unicode="&#x10e;" horiz-adv-x="637" 
d="M517 563.5c48 -52.333 72.001 -127.167 72.001 -224.5c0 -110.667 -24.833 -195.667 -74.5 -255s-120.834 -89 -213.501 -89c-22.667 0 -52.667 0.5 -90 1.5s-71 2.16699 -101 3.5v637l201 5c89.333 0 158 -26.167 206 -78.5zM499.501 98.999
c46.333 56 69.5029 136 69.5029 240c0 91.333 -22.333 161.333 -67 210s-108.334 73 -191.001 73c-20.667 0 -48.834 -0.5 -84.501 -1.5s-67.834 -2.16699 -96.501 -3.5v-597c28 -1.33301 58.5 -2.5 91.5 -3.5s59.5 -1.5 79.5 -1.5c86 0 152.167 28 198.5 84z
M426.004 804.999c-31.333 -22 -64.002 -47.333 -98.002 -76h-16c-44 34.667 -77.333 60 -100 76l7 14h5c30.667 -21.333 62.334 -44.666 95.001 -69.999c32.667 25.333 64.334 48.666 95.001 69.999h5z" />
    <glyph glyph-name="dcaron" unicode="&#x10f;" horiz-adv-x="561" 
d="M272 559c-42 55.333 -75.667 97.333 -101 126l9 12h5c32 -35.333 64 -74.333 96 -117c32 42.667 64 81.667 96 117h5l9 -12c-25.333 -28.667 -59 -70.667 -101 -126h-18zM444 434.5c39.333 -40.333 59.002 -98.167 59.002 -173.5c0 -84.667 -20.5 -150 -61.5 -196
s-99.5 -69 -175.5 -69c-19.333 0 -44.333 0.333008 -75 1s-58.334 1.66699 -83.001 3v491l167 4c73.333 0 129.666 -20.167 168.999 -60.5zM427.002 78.499c37.333 42.333 56.001 102.833 56.001 181.5c0 69.333 -18 122.5 -54 159.5s-87.667 55.5 -155 55.5l-146 -4v-452
c22 -1.33301 46.5 -2.33301 73.5 -3s48.833 -1 65.5 -1c69.333 0 122.666 21.167 159.999 63.5z" />
    <glyph glyph-name="Dcroat" unicode="&#x110;" horiz-adv-x="654" 
d="M534 563.5c48 -52.333 72.001 -127.167 72.001 -224.5c0 -110.667 -24.833 -195.667 -74.5 -255s-120.834 -89 -213.501 -89c-22.667 0 -52.667 0.5 -90 1.5s-71 2.16699 -101 3.5v637l201 5c89.333 0 158 -26.167 206 -78.5zM516.501 98.999
c46.333 56 69.5029 136 69.5029 240c0 91.333 -22.333 161.333 -67 210s-108.334 73 -191.001 73c-20.667 0 -48.834 -0.5 -84.501 -1.5s-67.834 -2.16699 -96.501 -3.5v-597c28 -1.33301 58.5 -2.5 91.5 -3.5s59.5 -1.5 79.5 -1.5c86 0 152.167 28 198.5 84z
M321.191 335.999l-1.2002 -17h-310.187l-1.80078 3l1.2002 17h310.188z" />
    <glyph glyph-name="dcroat" unicode="&#x111;" horiz-adv-x="570" 
d="M453 434.5c39.333 -40.333 59.002 -98.167 59.002 -173.5c0 -84.667 -20.5 -150 -61.5 -196s-99.5 -69 -175.5 -69c-19.333 0 -44.333 0.333008 -75 1s-58.334 1.66699 -83.001 3v234h-100l-2 3l1 17h101v237l167 4c73.333 0 129.666 -20.167 168.999 -60.5z
M436.002 78.499c37.333 42.333 56.001 102.833 56.001 181.5c0 69.333 -18 122.5 -54 159.5s-87.667 55.5 -155 55.5l-146 -4v-217h149l2 -3l-1 -17h-150v-215c22 -1.33301 46.5 -2.33301 73.5 -3s48.833 -1 65.5 -1c69.333 0 122.666 21.167 159.999 63.5z" />
    <glyph glyph-name="Emacron" unicode="&#x112;" horiz-adv-x="454" 
d="M425 16l-4 -16h-311v637h308l3 -4l-4 -16h-287v-277h238l3 -4l-4 -16h-237v-300h292zM412 789l-2 -17h-287l-3 3l2 17h287z" />
    <glyph glyph-name="emacron" unicode="&#x113;" horiz-adv-x="412" 
d="M383 643l-2 -17h-287l-3 3l2 17h287zM370 16l-4 -16h-258v491h256l3 -4l-4 -16l-235 1v-208h195l2 -4l-3 -16h-194v-225h239z" />
    <glyph glyph-name="Ebreve" unicode="&#x114;" horiz-adv-x="454" 
d="M425 16l-4 -16h-311v637h308l3 -4l-4 -16h-287v-277h238l3 -4l-4 -16h-237v-300h292zM367 802c-7.33301 -24 -19.833 -42.333 -37.5 -55s-39.167 -19 -64.5 -19s-46.666 6.33301 -63.999 19s-29.333 31 -36 55l13 11h5c5.33301 -21.333 14.833 -37.5 28.5 -48.5
s31.5 -16.5 53.5 -16.5s40.167 5.5 54.5 16.5s24.166 27.167 29.499 48.5h5z" />
    <glyph glyph-name="ebreve" unicode="&#x115;" horiz-adv-x="412" 
d="M170.5 586.5c-16.333 17 -27.833 43.5 -34.5 79.5l13 13h5c4.66699 -33.333 13.667 -58 27 -74s32 -24 56 -24s42.667 8 56 24s22.333 40.667 27 74h5l13 -13c-6.66699 -36 -18.167 -62.5 -34.5 -79.5s-38.5 -25.5 -66.5 -25.5s-50.167 8.5 -66.5 25.5zM370 16l-4 -16
h-258v491h256l3 -4l-4 -16l-235 1v-208h195l2 -4l-3 -16h-194v-225h239z" />
    <glyph glyph-name="Edotaccent" unicode="&#x116;" horiz-adv-x="454" 
d="M425 16l-4 -16h-311v637h308l3 -4l-4 -16h-287v-277h238l3 -4l-4 -16h-237v-300h292zM280.5 810.5c3.66699 -3.66699 5.5 -8.5 5.5 -14.5s-1.83301 -10.833 -5.5 -14.5s-8.5 -5.5 -14.5 -5.5s-10.833 1.83301 -14.5 5.5s-5.5 8.5 -5.5 14.5s1.83301 10.833 5.5 14.5
s8.5 5.5 14.5 5.5s10.833 -1.83301 14.5 -5.5z" />
    <glyph glyph-name="edotaccent" unicode="&#x117;" horiz-adv-x="412" 
d="M222.5 635.5c-3.66699 3.66699 -5.5 8.5 -5.5 14.5s1.83301 10.833 5.5 14.5s8.5 5.5 14.5 5.5s10.833 -1.83301 14.5 -5.5s5.5 -8.5 5.5 -14.5s-1.83301 -10.833 -5.5 -14.5s-8.5 -5.5 -14.5 -5.5s-10.833 1.83301 -14.5 5.5zM370 16l-4 -16h-258v491h256l3 -4l-4 -16
l-235 1v-208h195l2 -4l-3 -16h-194v-225h239z" />
    <glyph glyph-name="Eogonek" unicode="&#x118;" horiz-adv-x="454" 
d="M425 16l-4 -16h-311v637h308l3 -4l-4 -16h-287v-277h238l3 -4l-4 -16h-237v-300h292zM278 -182.5c-11.333 10.333 -16.999 24.5 -16.999 42.5c0 11.333 2.16699 22.166 6.5 32.499s13.333 25 27 44l50.5 67.5c9.33301 12 13.666 17.333 12.999 16h24l-61 -79
c-16 -21.333 -26.5 -37.166 -31.5 -47.499s-7.5 -20.5 -7.5 -30.5c0 -26.667 14.333 -40 43 -40c27.333 0 53 17.333 77 52h2l11 -16c-28 -38 -58.667 -57 -92 -57c-18.667 0 -33.667 5.16699 -45 15.5z" />
    <glyph glyph-name="eogonek" unicode="&#x119;" horiz-adv-x="412" 
d="M377 -143c-28 -38 -58.667 -57.001 -92 -57.001c-18.667 0 -33.667 5.16699 -45 15.5s-17 24.5 -17 42.5c0 16 4.83301 32 14.5 48s32.5 47.333 68.5 94h-198v491h256l3 -4l-4 -16l-235 1v-208h195l2 -4l-3 -16h-194v-225h239l3 -3l-4 -16h-36
c-37.333 -46.667 -61 -78.167 -71 -94.5s-15 -31.166 -15 -44.499c0 -26.667 14.333 -40 43 -40c27.333 0 53 17.333 77 52h2z" />
    <glyph glyph-name="Ecaron" unicode="&#x11a;" horiz-adv-x="454" 
d="M425 16l-4 -16h-311v637h308l3 -4l-4 -16h-287v-277h238l3 -4l-4 -16h-237v-300h292zM373 805c-31.333 -22 -64.002 -47.333 -98.002 -76h-16c-44 34.667 -77.333 60 -100 76l7 14h5c30.667 -21.333 62.334 -44.666 95.001 -69.999
c32.667 25.333 64.334 48.666 95.001 69.999h5z" />
    <glyph glyph-name="ecaron" unicode="&#x11b;" horiz-adv-x="412" 
d="M228 559c-42 55.333 -75.667 97.333 -101 126l9 12h5c32 -35.333 64 -74.333 96 -117c32 42.667 64 81.667 96 117h5l9 -12c-25.333 -28.667 -59 -70.667 -101 -126h-18zM370 16l-4 -16h-258v491h256l3 -4l-4 -16l-235 1v-208h195l2 -4l-3 -16h-194v-225h239z" />
    <glyph glyph-name="Gcircumflex" unicode="&#x11c;" horiz-adv-x="603" 
d="M432.5 627c31 -9.33301 61.168 -22.668 90.501 -40.001l-6 -18h-7c-58 34.667 -113.667 52 -167 52c-88 0 -155.833 -26.667 -203.5 -80s-71.5 -129.666 -71.5 -228.999c0 -95.333 20.667 -168.666 62 -219.999s100.333 -77 177 -77c31.333 0 60.166 2.16699 86.499 6.5
s60.5 12.166 102.5 23.499v201l20 2v-218c-44 -12.667 -80.5 -21.5 -109.5 -26.5s-61.833 -7.83301 -98.5 -8.5c-83.333 0 -147.5 27.5 -192.5 82.5s-67.5 133.5 -67.5 235.5c0 105.333 25.5 186.333 76.5 243s123.833 85 218.5 85c28.667 0 58.5 -4.66699 89.5 -14z
M218.001 751.998c31.333 22 64.002 47.333 98.002 76h16c44 -34.667 77.333 -60 100 -76l-7 -14h-5c-30.667 21.333 -62.334 44.666 -95.001 69.999c-32.667 -25.333 -64.334 -48.666 -95.001 -69.999h-5z" />
    <glyph glyph-name="gcircumflex" unicode="&#x11d;" horiz-adv-x="532" 
d="M174 571c25.333 28.667 59 70.667 101 126h18c42 -55.333 75.667 -97.333 101 -126l-9 -12h-5c-32 35.333 -64 74.333 -96 117c-32 -42.667 -64 -81.667 -96 -117h-5zM375 483.5c25.333 -7 50.001 -17.166 74.001 -30.499l-6 -18h-5c-49.333 26.667 -95 40 -137 40
c-71.333 0 -126.166 -20.167 -164.499 -60.5s-57.5 -98.5 -57.5 -174.5c0 -72.667 16.667 -128.334 50 -167.001s81 -58 143 -58c25.333 0 48.666 1.5 69.999 4.5s48.666 8.83301 81.999 17.5v146l20 2v-162c-37.333 -10 -68 -16.833 -92 -20.5s-50.667 -5.5 -80 -5.5
c-68.667 0 -121.5 21 -158.5 63s-55.5 102.333 -55.5 181c0 81.333 21 143.833 63 187.5s102 65.5 180 65.5c24 0 48.667 -3.5 74 -10.5z" />
    <glyph glyph-name="Gbreve" unicode="&#x11e;" horiz-adv-x="603" 
d="M432.5 627c31 -9.33301 61.168 -22.668 90.501 -40.001l-6 -18h-7c-58 34.667 -113.667 52 -167 52c-88 0 -155.833 -26.667 -203.5 -80s-71.5 -129.666 -71.5 -228.999c0 -95.333 20.667 -168.666 62 -219.999s100.333 -77 177 -77c31.333 0 60.166 2.16699 86.499 6.5
s60.5 12.166 102.5 23.499v201l20 2v-218c-44 -12.667 -80.5 -21.5 -109.5 -26.5s-61.833 -7.83301 -98.5 -8.5c-83.333 0 -147.5 27.5 -192.5 82.5s-67.5 133.5 -67.5 235.5c0 105.333 25.5 186.333 76.5 243s123.833 85 218.5 85c28.667 0 58.5 -4.66699 89.5 -14z
M426.001 801.998c-7.33301 -24 -19.833 -42.333 -37.5 -55s-39.167 -19 -64.5 -19s-46.666 6.33301 -63.999 19s-29.333 31 -36 55l13 11h5c5.33301 -21.333 14.833 -37.5 28.5 -48.5s31.5 -16.5 53.5 -16.5s40.167 5.5 54.5 16.5s24.166 27.167 29.499 48.5h5z" />
    <glyph glyph-name="gbreve" unicode="&#x11f;" horiz-adv-x="532" 
d="M385 666c-6.66699 -36 -18.167 -62.5 -34.5 -79.5s-38.5 -25.5 -66.5 -25.5s-50.167 8.5 -66.5 25.5s-27.833 43.5 -34.5 79.5l13 13h5c4.66699 -33.333 13.667 -58 27 -74s32 -24 56 -24s42.667 8 56 24s22.333 40.667 27 74h5zM375 483.5
c25.333 -7 50.001 -17.166 74.001 -30.499l-6 -18h-5c-49.333 26.667 -95 40 -137 40c-71.333 0 -126.166 -20.167 -164.499 -60.5s-57.5 -98.5 -57.5 -174.5c0 -72.667 16.667 -128.334 50 -167.001s81 -58 143 -58c25.333 0 48.666 1.5 69.999 4.5
s48.666 8.83301 81.999 17.5v146l20 2v-162c-37.333 -10 -68 -16.833 -92 -20.5s-50.667 -5.5 -80 -5.5c-68.667 0 -121.5 21 -158.5 63s-55.5 102.333 -55.5 181c0 81.333 21 143.833 63 187.5s102 65.5 180 65.5c24 0 48.667 -3.5 74 -10.5z" />
    <glyph glyph-name="Gdotaccent" unicode="&#x120;" horiz-adv-x="603" 
d="M432.5 627c31 -9.33301 61.168 -22.668 90.501 -40.001l-6 -18h-7c-58 34.667 -113.667 52 -167 52c-88 0 -155.833 -26.667 -203.5 -80s-71.5 -129.666 -71.5 -228.999c0 -95.333 20.667 -168.666 62 -219.999s100.333 -77 177 -77c31.333 0 60.166 2.16699 86.499 6.5
s60.5 12.166 102.5 23.499v201l20 2v-218c-44 -12.667 -80.5 -21.5 -109.5 -26.5s-61.833 -7.83301 -98.5 -8.5c-83.333 0 -147.5 27.5 -192.5 82.5s-67.5 133.5 -67.5 235.5c0 105.333 25.5 186.333 76.5 243s123.833 85 218.5 85c28.667 0 58.5 -4.66699 89.5 -14z
M339.501 810.498c3.66699 -3.66699 5.5 -8.5 5.5 -14.5s-1.83301 -10.833 -5.5 -14.5s-8.5 -5.5 -14.5 -5.5s-10.833 1.83301 -14.5 5.5s-5.5 8.5 -5.5 14.5s1.83301 10.833 5.5 14.5s8.5 5.5 14.5 5.5s10.833 -1.83301 14.5 -5.5z" />
    <glyph glyph-name="gdotaccent" unicode="&#x121;" horiz-adv-x="532" 
d="M298.5 664.5c3.66699 -3.66699 5.5 -8.5 5.5 -14.5s-1.83301 -10.833 -5.5 -14.5s-8.5 -5.5 -14.5 -5.5s-10.833 1.83301 -14.5 5.5s-5.5 8.5 -5.5 14.5s1.83301 10.833 5.5 14.5s8.5 5.5 14.5 5.5s10.833 -1.83301 14.5 -5.5zM375 483.5
c25.333 -7 50.001 -17.166 74.001 -30.499l-6 -18h-5c-49.333 26.667 -95 40 -137 40c-71.333 0 -126.166 -20.167 -164.499 -60.5s-57.5 -98.5 -57.5 -174.5c0 -72.667 16.667 -128.334 50 -167.001s81 -58 143 -58c25.333 0 48.666 1.5 69.999 4.5
s48.666 8.83301 81.999 17.5v146l20 2v-162c-37.333 -10 -68 -16.833 -92 -20.5s-50.667 -5.5 -80 -5.5c-68.667 0 -121.5 21 -158.5 63s-55.5 102.333 -55.5 181c0 81.333 21 143.833 63 187.5s102 65.5 180 65.5c24 0 48.667 -3.5 74 -10.5z" />
    <glyph glyph-name="Gcommaaccent" unicode="&#x122;" horiz-adv-x="603" 
d="M432.5 627c31 -9.33301 61.168 -22.668 90.501 -40.001l-6 -18h-7c-58 34.667 -113.667 52 -167 52c-88 0 -155.833 -26.667 -203.5 -80s-71.5 -129.666 -71.5 -228.999c0 -95.333 20.667 -168.666 62 -219.999s100.333 -77 177 -77c31.333 0 60.166 2.16699 86.499 6.5
s60.5 12.166 102.5 23.499v201l20 2v-218c-44 -12.667 -80.5 -21.5 -109.5 -26.5s-61.833 -7.83301 -98.5 -8.5c-83.333 0 -147.5 27.5 -192.5 82.5s-67.5 133.5 -67.5 235.5c0 105.333 25.5 186.333 76.5 243s123.833 85 218.5 85c28.667 0 58.5 -4.66699 89.5 -14z
M350.001 -118.002c0 -13.333 -5.66602 -28.001 -16.999 -44.001s-27.666 -32.333 -48.999 -49l-10 11l1 3c17.333 12.667 30.666 25.834 39.999 39.501s14 26.5 14 38.5c0 13.333 -10 24.666 -30 33.999v4c3.33301 4.66699 7.66602 8.33398 12.999 11.001
c25.333 -11.333 38 -27.333 38 -48z" />
    <glyph glyph-name="gcommaaccent" unicode="&#x123;" horiz-adv-x="532" 
d="M375 483.5c25.333 -7 50.001 -17.166 74.001 -30.499l-6 -18h-5c-49.333 26.667 -95 40 -137 40c-71.333 0 -126.166 -20.167 -164.499 -60.5s-57.5 -98.5 -57.5 -174.5c0 -72.667 16.667 -128.334 50 -167.001s81 -58 143 -58c25.333 0 48.666 1.5 69.999 4.5
s48.666 8.83301 81.999 17.5v146l20 2v-162c-37.333 -10 -68 -16.833 -92 -20.5s-50.667 -5.5 -80 -5.5c-68.667 0 -121.5 21 -158.5 63s-55.5 102.333 -55.5 181c0 81.333 21 143.833 63 187.5s102 65.5 180 65.5c24 0 48.667 -3.5 74 -10.5zM306.001 -117.999
c0 -13.333 -5.66602 -28.001 -16.999 -44.001s-27.666 -32.333 -48.999 -49l-10 11l1 3c17.333 12.667 30.666 25.834 39.999 39.501s14 26.5 14 38.5c0 13.333 -10 24.666 -30 33.999v4c3.33301 4.66699 7.66602 8.33398 12.999 11.001c25.333 -11.333 38 -27.333 38 -48z
" />
    <glyph glyph-name="Hcircumflex" unicode="&#x124;" horiz-adv-x="670" 
d="M560 637v-637h-20v314h-410v-314h-20v637h20v-303h410v303h20zM228 752c31.333 22 64.002 47.333 98.002 76h16c44 -34.667 77.333 -60 100 -76l-7 -14h-5c-30.667 21.333 -62.334 44.666 -95.001 69.999c-32.667 -25.333 -64.334 -48.666 -95.001 -69.999h-5z" />
    <glyph glyph-name="hcircumflex" unicode="&#x125;" horiz-adv-x="588" 
d="M193 559l-9 12c25.333 28.667 59 70.667 101 126h18c42 -55.333 75.667 -97.333 101 -126l-9 -12h-5c-32 35.333 -64 74.333 -96 117c-32 -42.667 -64 -81.667 -96 -117h-5zM480 491v-491h-20v240h-332v-240h-20v491h20v-232h332v232h20z" />
    <glyph glyph-name="Hbar" unicode="&#x126;" horiz-adv-x="700" 
d="M643 484h-68v-484h-20v314h-410v-314h-20v484h-66l-4 3l2 17h68v133h20v-133h410v133h20v-133h66l4 -3zM555 484h-410v-150h410v150z" />
    <glyph glyph-name="hbar" unicode="&#x127;" horiz-adv-x="610" 
d="M548 364h-57v-364h-20v240h-332v-240h-20v364h-53l-3 3l2 15h54v109h20v-109h332v109h20v-109h55l4 -2zM471 364h-332v-105h332v105z" />
    <glyph glyph-name="Imacron" unicode="&#x12a;" horiz-adv-x="240" 
d="M130 0h-20v637h20v-637zM226 789l-2 -17h-207l-3 3l2 17h207z" />
    <glyph glyph-name="imacron" unicode="&#x12b;" horiz-adv-x="237" 
d="M226 643l-2 -17h-207l-3 3l2 17h207zM128 0h-20v491h20v-491z" />
    <glyph glyph-name="Ibreve" unicode="&#x12c;" horiz-adv-x="240" 
d="M130 0h-20v637h20v-637zM221 802c-7.33301 -24 -19.833 -42.333 -37.5 -55s-39.167 -19 -64.5 -19s-46.666 6.33301 -63.999 19s-29.333 31 -36 55l13 11h5c5.33301 -21.333 14.833 -37.5 28.5 -48.5s31.5 -16.5 53.5 -16.5s40.167 5.5 54.5 16.5
s24.166 27.167 29.499 48.5h5z" />
    <glyph glyph-name="ibreve" unicode="&#x12d;" horiz-adv-x="237" 
d="M221 666c-6.66699 -36 -18.167 -62.5 -34.5 -79.5s-38.5 -25.5 -66.5 -25.5s-50.167 8.5 -66.5 25.5s-27.833 43.5 -34.5 79.5l13 13h5c4.66699 -33.333 13.667 -58 27 -74s32 -24 56 -24s42.667 8 56 24s22.333 40.667 27 74h5zM128 0h-20v491h20v-491z" />
    <glyph glyph-name="Iogonek" unicode="&#x12e;" horiz-adv-x="240" 
d="M130 0h-20v637h20v-637zM65 -107.5c-9.33301 -17.667 -14.001 -31.167 -14.001 -40.5c0 -8.66699 2.33301 -15.167 7 -19.5s11 -6.5 19 -6.5c18.667 0 33.334 14 44.001 42h2l15 -11c-7.33301 -17.333 -16.166 -30 -26.499 -38s-22.5 -12 -36.5 -12
c-13.333 0 -24 3.83301 -32 11.5s-12 18.167 -12 31.5c0 12.667 5.16699 28.5 15.5 47.5s32.166 53.167 65.499 102.5h18c-34 -54 -55.667 -89.833 -65 -107.5z" />
    <glyph glyph-name="iogonek" unicode="&#x12f;" horiz-adv-x="237" 
d="M136 -143c-7.33301 -17.333 -16.167 -30 -26.5 -38s-22.5 -12 -36.5 -12c-13.333 0 -24 3.83301 -32 11.5s-12 18.167 -12 31.5c0 12.667 5.16699 28.5 15.5 47.5s32.166 53.167 65.499 102.5h-2v491h20v-491c-34 -54 -55.667 -89.833 -65 -107.5s-14 -31.167 -14 -40.5
c0 -8.66699 2.33301 -15.167 7 -19.5s11 -6.5 19 -6.5c18.667 0 33.334 14 44.001 42h2z" />
    <glyph glyph-name="Idotaccent" unicode="&#x130;" horiz-adv-x="240" 
d="M130 0h-20v637h20v-637zM134.5 810.5c3.66699 -3.66699 5.5 -8.5 5.5 -14.5s-1.83301 -10.833 -5.5 -14.5s-8.5 -5.5 -14.5 -5.5s-10.833 1.83301 -14.5 5.5s-5.5 8.5 -5.5 14.5s1.83301 10.833 5.5 14.5s8.5 5.5 14.5 5.5s10.833 -1.83301 14.5 -5.5z" />
    <glyph glyph-name="dotlessi" unicode="&#x131;" horiz-adv-x="237" 
d="M128 0h-20v491h20v-491z" />
    <glyph glyph-name="IJ" unicode="&#x132;" horiz-adv-x="508" 
d="M130 0h-20v637h20v-637zM400 115c0 -46.667 -9.83301 -86.167 -29.5 -118.5s-52.834 -63.833 -99.501 -94.5l-11 11v6c42.667 28 73.334 57 92.001 87s28 65.667 28 107v504h-128l-4 4l3 16h149v-522z" />
    <glyph glyph-name="ij" unicode="&#x133;" horiz-adv-x="498" 
d="M128 491v-491h-20v491h20zM390 89c0 -36.667 -7 -67.5 -21 -92.5s-38 -49.167 -72 -72.5l-12 11v5c30.667 20.667 52.5 42.5 65.5 65.5s19.5 50.5 19.5 82.5v384h-102l-3 3l3 16h122v-402z" />
    <glyph glyph-name="Jcircumflex" unicode="&#x134;" horiz-adv-x="268" 
d="M160 115c0 -46.667 -9.83301 -86.167 -29.5 -118.5s-52.834 -63.833 -99.501 -94.5l-11 11v6c42.667 28 73.334 57 92.001 87s28 65.667 28 107v504h-128l-4 4l3 16h149v-522zM1 752c31.333 22 64.002 47.333 98.002 76h16c44 -34.667 77.333 -60 100 -76l-7 -14h-5
c-30.667 21.333 -62.334 44.666 -95.001 69.999c-32.667 -25.333 -64.334 -48.666 -95.001 -69.999h-5z" />
    <glyph glyph-name="jcircumflex" unicode="&#x135;" horiz-adv-x="261" 
d="M204 571l-9 -12h-5c-32 35.333 -64 74.333 -96 117c-32 -42.667 -64 -81.667 -96 -117h-5l-9 12c25.333 28.667 59 70.667 101 126h18c42 -55.333 75.667 -97.333 101 -126zM153 89c0 -36.667 -7 -67.5 -21 -92.5s-38 -49.167 -72 -72.5l-12 11v5
c30.667 20.667 52.5 42.5 65.5 65.5s19.5 50.5 19.5 82.5v384h-102l-3 3l3 16h122v-402z" />
    <glyph glyph-name="Kcommaaccent" unicode="&#x136;" horiz-adv-x="507" 
d="M130 0h-20v637h20v-637zM186 340c97.333 -117.333 201.333 -229.001 312 -335.001v-4c-2 -2 -6.66699 -4.66699 -14 -8l-4 1c-122 118.667 -229 233.334 -321 344.001v3l249 249l43 47h31zM312 -118.001c0 -13.333 -5.66602 -28.001 -16.999 -44.001
s-27.666 -32.333 -48.999 -49l-10 11l1 3c17.333 12.667 30.666 25.834 39.999 39.501s14 26.5 14 38.5c0 13.333 -10 24.666 -30 33.999v4c3.33301 4.66699 7.66602 8.33398 12.999 11.001c25.333 -11.333 38 -27.333 38 -48z" />
    <glyph glyph-name="kcommaaccent" unicode="&#x137;" horiz-adv-x="457" 
d="M128 0h-20v491h20v-491zM177 262c78.667 -90 163.333 -175.668 254 -257.001l-1 -4c-1.33301 -1.33301 -6.33301 -3.66602 -15 -6.99902l-4 2c-98 90.667 -184.667 178.667 -260 264v3l202 191l35 37h29zM262.999 -118.001c0 -13.333 -5.66602 -28.001 -16.999 -44.001
s-27.666 -32.333 -48.999 -49l-10 11l1 3c17.333 12.667 30.666 25.834 39.999 39.501s14 26.5 14 38.5c0 13.333 -10 24.666 -30 33.999v4c3.33301 4.66699 7.66602 8.33398 12.999 11.001c25.333 -11.333 38 -27.333 38 -48z" />
    <glyph glyph-name="kgreenlandic" unicode="&#x138;" horiz-adv-x="457" 
d="M128 0h-20v491h20v-491zM177 262c78.667 -90 163.333 -175.668 254 -257.001l-1 -4c-1.33301 -1.33301 -6.33301 -3.66602 -15 -6.99902l-4 2c-98 90.667 -184.667 178.667 -260 264v3l202 191l35 37h29z" />
    <glyph glyph-name="Lacute" unicode="&#x139;" horiz-adv-x="398" 
d="M393 16l-4 -16h-280v637h20v-617h261zM228 834l6.99902 -11.999l-2 -5c-44.667 -25.333 -102.667 -56.333 -174 -93l-5 3l-7 15c60.667 29.333 119.334 60.666 176.001 93.999z" />
    <glyph glyph-name="lacute" unicode="&#x13a;" horiz-adv-x="365" 
d="M224 692c-46 -46 -94 -91.001 -144 -135.001l-5 1l-11 13c46 38.667 94.667 84.334 146 137.001l5 -1l10 -10zM342 15.999l-3 -16h-232v491h20v-472h213z" />
    <glyph glyph-name="Lcommaaccent" unicode="&#x13b;" horiz-adv-x="398" 
d="M393 16l-4 -16h-280v637h20v-617h261zM274 -118c0 -13.333 -5.66602 -28.001 -16.999 -44.001s-27.666 -32.333 -48.999 -49l-10 11l1 3c17.333 12.667 30.666 25.834 39.999 39.501s14 26.5 14 38.5c0 13.333 -10 24.666 -30 33.999v4
c3.33301 4.66699 7.66602 8.33398 12.999 11.001c25.333 -11.333 38 -27.333 38 -48z" />
    <glyph glyph-name="lcommaaccent" unicode="&#x13c;" horiz-adv-x="365" 
d="M342 16l-3 -16h-232v491h20v-472h213zM261 -118c0 -13.333 -5.66602 -28.001 -16.999 -44.001s-27.666 -32.333 -48.999 -49l-10 11l1 3c17.333 12.667 30.666 25.834 39.999 39.501s14 26.5 14 38.5c0 13.333 -10 24.666 -30 33.999v4
c3.33301 4.66699 7.66602 8.33398 12.999 11.001c25.333 -11.333 38 -27.333 38 -48z" />
    <glyph glyph-name="Lcaron" unicode="&#x13d;" horiz-adv-x="409" 
d="M393 16l-4 -16h-280v637h20v-617h261zM326 429l-3 4l12 144l17 2l3 -4l-12 -144z" />
    <glyph glyph-name="lcaron" unicode="&#x13e;" horiz-adv-x="385" 
d="M342 16l-3 -16h-232v491h20v-472h213zM290 314l-3 4l12 144l17 2l3 -4l-12 -144z" />
    <glyph glyph-name="Ldot" unicode="&#x13f;" horiz-adv-x="398" 
d="M393 16l-4 -16h-280v637h20v-617h261zM323.5 381.5c3.66699 -3.66699 5.5 -8.5 5.5 -14.5s-1.83301 -10.833 -5.5 -14.5s-8.5 -5.5 -14.5 -5.5s-10.833 1.83301 -14.5 5.5s-5.5 8.5 -5.5 14.5s1.83301 10.833 5.5 14.5s8.5 5.5 14.5 5.5s10.833 -1.83301 14.5 -5.5z" />
    <glyph glyph-name="ldot" unicode="&#x140;" horiz-adv-x="375" 
d="M342 16l-3 -16h-232v491h20v-472h213zM233.5 250.5c-3.66699 3.66699 -5.5 8.5 -5.5 14.5s1.83301 10.833 5.5 14.5s8.5 5.5 14.5 5.5s10.833 -1.83301 14.5 -5.5s5.5 -8.5 5.5 -14.5s-1.83301 -10.833 -5.5 -14.5s-8.5 -5.5 -14.5 -5.5s-10.833 1.83301 -14.5 5.5z" />
    <glyph glyph-name="Lslash" unicode="&#x141;" horiz-adv-x="408" 
d="M403 16l-4 -16h-280v333l-86 -47l-5 3l-6 15l97 53v280h20v-270l160 87l5 -2l6 -15l-171 -93v-324h261z" />
    <glyph glyph-name="lslash" unicode="&#x142;" horiz-adv-x="384" 
d="M360 16l-3 -16h-232v257l-79 -40l-5 3l-5 14l89 45v212h20v-202l120 61l4 -1l6 -15l-130 -66v-249h213z" />
    <glyph glyph-name="Nacute" unicode="&#x143;" horiz-adv-x="670" 
d="M559 176l-1 -176h-19l-404 595h-4l-1 -396v-199h-20v190l1 447h19l404 -595h4l2 594l20 2zM440 834l6.99902 -11.999l-2 -5c-44.667 -25.333 -102.667 -56.333 -174 -93l-5 3l-7 15c60.667 29.333 119.334 60.666 176.001 93.999z" />
    <glyph glyph-name="nacute" unicode="&#x144;" horiz-adv-x="588" 
d="M394 707l10 -10.001l-1 -5c-46 -46 -94 -91 -144 -135l-5 1l-11 13c46 38.667 94.667 84.334 146 137.001zM479 136.999l-1 -137h-20l-326 451h-3l-1 -297v-154h-20v146l1 345h20l326 -451h4l1 450l20 2z" />
    <glyph glyph-name="Ncommaaccent" unicode="&#x145;" horiz-adv-x="670" 
d="M559 176l-1 -176h-19l-404 595h-4l-1 -396v-199h-20v190l1 447h19l404 -595h4l2 594l20 2zM368 -118c0 -13.333 -5.66602 -28.001 -16.999 -44.001s-27.666 -32.333 -48.999 -49l-10 11l1 3c17.333 12.667 30.666 25.834 39.999 39.501s14 26.5 14 38.5
c0 13.333 -10 24.666 -30 33.999v4c3.33301 4.66699 7.66602 8.33398 12.999 11.001c25.333 -11.333 38 -27.333 38 -48z" />
    <glyph glyph-name="ncommaaccent" unicode="&#x146;" horiz-adv-x="588" 
d="M479 137l-1 -137h-20l-326 451h-3l-1 -297v-154h-20v146l1 345h20l326 -451h4l1 450l20 2zM329 -118c0 -13.333 -5.66602 -28.001 -16.999 -44.001s-27.666 -32.333 -48.999 -49l-10 11l1 3c17.333 12.667 30.666 25.834 39.999 39.501s14 26.5 14 38.5
c0 13.333 -10 24.666 -30 33.999v4c3.33301 4.66699 7.66602 8.33398 12.999 11.001c25.333 -11.333 38 -27.333 38 -48z" />
    <glyph glyph-name="Ncaron" unicode="&#x147;" horiz-adv-x="670" 
d="M559 176l-1 -176h-19l-404 595h-4l-1 -396v-199h-20v190l1 447h19l404 -595h4l2 594l20 2zM438 805c-31.333 -22 -64.002 -47.333 -98.002 -76h-16c-44 34.667 -77.333 60 -100 76l7 14h5c30.667 -21.333 62.334 -44.666 95.001 -69.999
c32.667 25.333 64.334 48.666 95.001 69.999h5z" />
    <glyph glyph-name="ncaron" unicode="&#x148;" horiz-adv-x="588" 
d="M402 685c-25.333 -28.667 -59 -70.667 -101 -126h-18c-42 55.333 -75.667 97.333 -101 126l9 12h5c32 -35.333 64 -74.333 96 -117c32 42.667 64 81.667 96 117h5zM479 137l-1 -137h-20l-326 451h-3l-1 -297v-154h-20v146l1 345h20l326 -451h4l1 450l20 2z" />
    <glyph glyph-name="Eng" unicode="&#x14a;" horiz-adv-x="670" 
d="M559 176l-1.00098 -137.001c0 -39.333 -9.66699 -72.666 -29 -99.999s-52.666 -55 -99.999 -83l-11 11v6c38 22.667 66 44 84 64s29 42.667 33 68l-400 590h-4l-1 -396v-199h-20v190l1 447h19l404 -595h4l2 594l20 2z" />
    <glyph glyph-name="eng" unicode="&#x14b;" horiz-adv-x="588" 
d="M478 137l-0.000976562 -102c0 -33.333 -5.83301 -61.333 -17.5 -84s-31.834 -44.667 -60.501 -66l-10 11v5c20.667 16 36.334 32 47.001 48s17.334 34 20.001 54l-325 448h-4v-451h-20l1 146v345h20l326 -451h5v450l20 2z" />
    <glyph glyph-name="Omacron" unicode="&#x14c;" horiz-adv-x="627" 
d="M511.5 561c45 -54 67.499 -131.333 67.499 -232c0 -107.333 -23.333 -189.833 -70 -247.5s-113.667 -86.5 -201 -86.5c-83.333 0 -147.5 27.833 -192.5 83.5s-67.5 135.167 -67.5 238.5c0 104.667 23.333 185 70 241s113.334 84 200.001 84c84 0 148.5 -27 193.5 -81z
M132.499 543c-43 -52.667 -64.499 -128 -64.499 -226c0 -96.667 20.667 -171.167 62 -223.5s100.666 -78.5 177.999 -78.5c80.667 0 142.667 27.167 186 81.5s65 131.833 65 232.5c0 94 -20.833 166.333 -62.5 217s-101.167 76 -178.5 76
c-80.667 0 -142.5 -26.333 -185.5 -79zM460 789l-2 -17h-287l-3 3l2 17h287z" />
    <glyph glyph-name="omacron" unicode="&#x14d;" horiz-adv-x="553" 
d="M424 643l-2 -17h-287l-3 3l2 17h287zM439.5 432.5c37 -41.667 55.5 -101.166 55.5 -178.499c0 -82.667 -19.333 -146.334 -58 -191.001s-93.667 -67 -165 -67c-68.667 0 -121.5 21.5 -158.5 64.5s-55.5 104.167 -55.5 183.5c0 80.667 19.167 142.667 57.5 186
s93.5 65 165.5 65c68.667 0 121.5 -20.833 158.5 -62.5zM130.5 416.001c-34.333 -39.333 -51.5 -96.334 -51.5 -171.001s16.667 -131.667 50 -171s81 -59 143 -59c65.333 0 115.5 20.333 150.5 61s52.5 99.334 52.5 176.001c0 72 -16.833 127.167 -50.5 165.5
s-81.834 57.5 -144.501 57.5c-65.333 0 -115.166 -19.667 -149.499 -59z" />
    <glyph glyph-name="Obreve" unicode="&#x14e;" horiz-adv-x="627" 
d="M511.5 561c45 -54 67.499 -131.333 67.499 -232c0 -107.333 -23.333 -189.833 -70 -247.5s-113.667 -86.5 -201 -86.5c-83.333 0 -147.5 27.833 -192.5 83.5s-67.5 135.167 -67.5 238.5c0 104.667 23.333 185 70 241s113.334 84 200.001 84c84 0 148.5 -27 193.5 -81z
M132.499 543c-43 -52.667 -64.499 -128 -64.499 -226c0 -96.667 20.667 -171.167 62 -223.5s100.666 -78.5 177.999 -78.5c80.667 0 142.667 27.167 186 81.5s65 131.833 65 232.5c0 94 -20.833 166.333 -62.5 217s-101.167 76 -178.5 76
c-80.667 0 -142.5 -26.333 -185.5 -79zM415 802c-7.33301 -24 -19.833 -42.333 -37.5 -55s-39.167 -19 -64.5 -19s-46.666 6.33301 -63.999 19s-29.333 31 -36 55l13 11h5c5.33301 -21.333 14.833 -37.5 28.5 -48.5s31.5 -16.5 53.5 -16.5s40.167 5.5 54.5 16.5
s24.166 27.167 29.499 48.5h5z" />
    <glyph glyph-name="obreve" unicode="&#x14f;" horiz-adv-x="553" 
d="M379 666c-6.66699 -36 -18.167 -62.5 -34.5 -79.5s-38.5 -25.5 -66.5 -25.5s-50.167 8.5 -66.5 25.5s-27.833 43.5 -34.5 79.5l13 13h5c4.66699 -33.333 13.667 -58 27 -74s32 -24 56 -24s42.667 8 56 24s22.333 40.667 27 74h5zM439.5 432.5
c37 -41.667 55.5 -101.166 55.5 -178.499c0 -82.667 -19.333 -146.334 -58 -191.001s-93.667 -67 -165 -67c-68.667 0 -121.5 21.5 -158.5 64.5s-55.5 104.167 -55.5 183.5c0 80.667 19.167 142.667 57.5 186s93.5 65 165.5 65c68.667 0 121.5 -20.833 158.5 -62.5z
M130.5 416.001c-34.333 -39.333 -51.5 -96.334 -51.5 -171.001s16.667 -131.667 50 -171s81 -59 143 -59c65.333 0 115.5 20.333 150.5 61s52.5 99.334 52.5 176.001c0 72 -16.833 127.167 -50.5 165.5s-81.834 57.5 -144.501 57.5c-65.333 0 -115.166 -19.667 -149.499 -59
z" />
    <glyph glyph-name="Ohungarumlaut" unicode="&#x150;" horiz-adv-x="627" 
d="M511.5 561c45 -54 67.499 -131.333 67.499 -232c0 -107.333 -23.333 -189.833 -70 -247.5s-113.667 -86.5 -201 -86.5c-83.333 0 -147.5 27.833 -192.5 83.5s-67.5 135.167 -67.5 238.5c0 104.667 23.333 185 70 241s113.334 84 200.001 84c84 0 148.5 -27 193.5 -81z
M132.499 543c-43 -52.667 -64.499 -128 -64.499 -226c0 -96.667 20.667 -171.167 62 -223.5s100.666 -78.5 177.999 -78.5c80.667 0 142.667 27.167 186 81.5s65 131.833 65 232.5c0 94 -20.833 166.333 -62.5 217s-101.167 76 -178.5 76
c-80.667 0 -142.5 -26.333 -185.5 -79zM249 757c50 46.667 79.666 74.667 88.999 84l5 -1l10 -10l-1 -5c-23.333 -23.333 -60.666 -58.333 -111.999 -105l-5 1l-11 13zM378.999 757c50 46.667 79.666 74.667 88.999 84l5 -1l10 -10l-1 -5
c-23.333 -23.333 -60.666 -58.333 -111.999 -105l-5 1l-11 13z" />
    <glyph glyph-name="ohungarumlaut" unicode="&#x151;" horiz-adv-x="553" 
d="M304 706l5 -1l10 -10l-1 -5c-46.667 -46 -94.667 -91 -144 -135l-5 1l-11 13c51.333 45.333 100 91 146 137zM434 706l4.99902 -1.00098l10 -10l-1 -5l-144 -135l-5 1l-11 13c50.667 44.667 99.334 90.334 146.001 137.001zM439.499 432.499
c37 -41.667 55.5 -101.166 55.5 -178.499c0 -82.667 -19.333 -146.334 -58 -191.001s-93.667 -67 -165 -67c-68.667 0 -121.5 21.5 -158.5 64.5s-55.5 104.167 -55.5 183.5c0 80.667 19.167 142.667 57.5 186s93.5 65 165.5 65c68.667 0 121.5 -20.833 158.5 -62.5z
M130.499 416c-34.333 -39.333 -51.5 -96.334 -51.5 -171.001s16.667 -131.667 50 -171s81 -59 143 -59c65.333 0 115.5 20.333 150.5 61s52.5 99.334 52.5 176.001c0 72 -16.833 127.167 -50.5 165.5s-81.834 57.5 -144.501 57.5c-65.333 0 -115.166 -19.667 -149.499 -59z
" />
    <glyph glyph-name="OE" unicode="&#x152;" horiz-adv-x="833" 
d="M434 643c33.333 -4 59 -6 77 -6h286l3 -4l-4 -16h-287v-277h238l3 -4l-4 -16h-237v-300h292l3 -4l-4 -16h-289c-20.667 0 -49.667 -2 -87 -6c-34.667 -4 -60 -6 -76 -6c-95.333 0 -169.166 28.833 -221.499 86.5s-78.5 138.5 -78.5 242.5c0 104.667 27 186.167 81 244.5
s130.333 87.5 229 87.5c17.333 0 42.666 -2 75.999 -6zM144 547c-50.667 -54.667 -76.002 -131.667 -76.002 -231c0 -97.333 24.333 -173 73 -227s119.334 -81 212.001 -81c30 0 66 3.33301 108 10c11.333 2 18.833 4.66699 22.5 8s5.5 9 5.5 17l-2 543c0 12 -1 20 -3 24
s-5.66699 6.66699 -11 8c-41.333 7.33301 -79.666 11 -114.999 11c-92 0 -163.333 -27.333 -214 -82z" />
    <glyph glyph-name="oe" unicode="&#x153;" horiz-adv-x="722" 
d="M375 496c23.333 -3.33301 44.666 -5 63.999 -5h236l2 -4l-3 -16l-235 1v-208h194l3 -4l-4 -16h-193v-225h239l2 -3l-3 -16h-238c-22 -0 -45.667 -1.66699 -71 -5c-29.333 -2.66699 -50.666 -4 -63.999 -4c-78 0 -138.5 22.167 -181.5 66.5s-64.5 106.5 -64.5 186.5
c0 80.667 22.167 143.5 66.5 188.5s107.166 67.5 188.499 67.5c14.667 0 35.334 -1.33301 62.001 -4zM140 419c-40.667 -41.333 -61.002 -99.666 -61.002 -174.999c0 -74.667 19.5 -132.334 58.5 -173.001s95.833 -61 170.5 -61c14.667 0 30.334 0.833008 47.001 2.5
s30.334 3.5 41.001 5.5c9.33301 1.33301 15.5 3.33301 18.5 6s4.5 7.33398 4.5 14.001l-2 409c0 9.33301 -0.666992 15.666 -2 18.999s-4.33301 5.33301 -9 6l-38.5 5c-20.333 2.66699 -38.833 4 -55.5 4c-74 0 -131.333 -20.667 -172 -62z" />
    <glyph glyph-name="Racute" unicode="&#x154;" horiz-adv-x="518" 
d="M466 5l-0.00195312 -3.99902c-3.33301 -3.33301 -7.33301 -6 -12 -8l-6 2c-71.333 93.333 -132.666 182.666 -183.999 267.999h-134v-263h-20v637l141 2c58 0 102.667 -15 134 -45s47 -73.333 47 -130c0 -49.333 -12.667 -90.833 -38 -124.5
s-61.666 -57.834 -108.999 -72.501c52 -85.333 112.333 -172.666 181 -261.999zM129.998 283.001l142 0.000976562c44.667 11.333 79.167 32.666 103.5 63.999s36.5 70.333 36.5 117c0 49.333 -13.333 87.333 -40 114s-64.667 40 -114 40h-128v-335zM360.998 853.002
l10 -10.001l-1 -5c-46 -46 -94 -91 -144 -135l-5 1l-11 13c46 38.667 94.667 84.334 146 137.001z" />
    <glyph glyph-name="racute" unicode="&#x155;" horiz-adv-x="466" 
d="M176 558l-11 12.999c46 38.667 94.667 84.334 146 137.001l5 -1l10 -10l-1 -5c-46 -46 -94 -91 -144 -135zM405 4.99902v-4.00293l-14 -7l-6 3c-56.667 70 -106 138 -148 204h-109v-201h-20v491l119 1c48 0 85 -11.667 111 -35s39 -56.666 39 -99.999
c0 -37.333 -10.333 -69.166 -31 -95.499s-50 -45.166 -88 -56.499c42 -66 91 -132.667 147 -200zM128 219.996l115 -1.00098c36.667 8.66699 64.667 24.834 84 48.501s29 53.167 29 88.5c0 36.667 -10.667 65 -32 85s-52.333 31 -93 33l-103 -1v-253z" />
    <glyph glyph-name="Rcommaaccent" unicode="&#x156;" horiz-adv-x="518" 
d="M466 5l-0.00195312 -3.99902c-3.33301 -3.33301 -7.33301 -6 -12 -8l-6 2c-71.333 93.333 -132.666 182.666 -183.999 267.999h-134v-263h-20v637l141 2c58 0 102.667 -15 134 -45s47 -73.333 47 -130c0 -49.333 -12.667 -90.833 -38 -124.5
s-61.666 -57.834 -108.999 -72.501c52 -85.333 112.333 -172.666 181 -261.999zM129.998 283.001l142 0.000976562c44.667 11.333 79.167 32.666 103.5 63.999s36.5 70.333 36.5 117c0 49.333 -13.333 87.333 -40 114s-64.667 40 -114 40h-128v-335zM296.998 -117.998
c0 -13.333 -5.66602 -28.001 -16.999 -44.001s-27.666 -32.333 -48.999 -49l-10 11l1 3c17.333 12.667 30.666 25.834 39.999 39.501s14 26.5 14 38.5c0 13.333 -10 24.666 -30 33.999v4c3.33301 4.66699 7.66602 8.33398 12.999 11.001c25.333 -11.333 38 -27.333 38 -48z
" />
    <glyph glyph-name="rcommaaccent" unicode="&#x157;" horiz-adv-x="466" 
d="M405 5v-4.00293l-14 -7l-6 3c-56.667 70 -106 138 -148 204h-109v-201h-20v491l119 1c48 0 85 -11.667 111 -35s39 -56.666 39 -99.999c0 -37.333 -10.333 -69.166 -31 -95.499s-50 -45.166 -88 -56.499c42 -66 91 -132.667 147 -200zM128 219.997l115 -1.00098
c36.667 8.66699 64.667 24.834 84 48.501s29 53.167 29 88.5c0 36.667 -10.667 65 -32 85s-52.333 31 -93 33l-103 -1v-253zM252 -118.004c0 -13.333 -5.66602 -28.001 -16.999 -44.001s-27.666 -32.333 -48.999 -49l-10 11l1 3c17.333 12.667 30.666 25.834 39.999 39.501
s14 26.5 14 38.5c0 13.333 -10 24.666 -30 33.999v4c3.33301 4.66699 7.66602 8.33398 12.999 11.001c25.333 -11.333 38 -27.333 38 -48z" />
    <glyph glyph-name="Rcaron" unicode="&#x158;" horiz-adv-x="518" 
d="M466 5l-0.00195312 -3.99902c-3.33301 -3.33301 -7.33301 -6 -12 -8l-6 2c-71.333 93.333 -132.666 182.666 -183.999 267.999h-134v-263h-20v637l141 2c58 0 102.667 -15 134 -45s47 -73.333 47 -130c0 -49.333 -12.667 -90.833 -38 -124.5
s-61.666 -57.834 -108.999 -72.501c52 -85.333 112.333 -172.666 181 -261.999zM129.998 283.001l142 0.000976562c44.667 11.333 79.167 32.666 103.5 63.999s36.5 70.333 36.5 117c0 49.333 -13.333 87.333 -40 114s-64.667 40 -114 40h-128v-335zM365.998 805.002
c-31.333 -22 -64.002 -47.333 -98.002 -76h-16c-44 34.667 -77.333 60 -100 76l7 14h5c30.667 -21.333 62.334 -44.666 95.001 -69.999c32.667 25.333 64.334 48.666 95.001 69.999h5z" />
    <glyph glyph-name="rcaron" unicode="&#x159;" horiz-adv-x="466" 
d="M205 559c-42 55.333 -75.667 97.333 -101 126l9 12h5c32 -35.333 64 -74.333 96 -117c32 42.667 64 81.667 96 117h5l9 -12c-25.333 -28.667 -59 -70.667 -101 -126h-18zM405 5v-4.00293l-14 -7l-6 3c-56.667 70 -106 138 -148 204h-109v-201h-20v491l119 1
c48 0 85 -11.667 111 -35s39 -56.666 39 -99.999c0 -37.333 -10.333 -69.166 -31 -95.499s-50 -45.166 -88 -56.499c42 -66 91 -132.667 147 -200zM128 219.997l115 -1.00098c36.667 8.66699 64.667 24.834 84 48.501s29 53.167 29 88.5c0 36.667 -10.667 65 -32 85
s-52.333 31 -93 33l-103 -1v-253z" />
    <glyph glyph-name="Sacute" unicode="&#x15a;" horiz-adv-x="445" 
d="M368 611l-4.00391 -17.998l-7 -1c-18.667 9.33301 -38 16.333 -58 21s-38.333 7 -55 7c-32 0 -60 -6.83301 -84 -20.5s-42.333 -31.334 -55 -53.001s-19 -43.834 -19 -66.501c0 -23.333 6.33301 -43.5 19 -60.5s28.167 -31 46.5 -42s43.833 -24.5 76.5 -40.5
c36 -18 64.5 -33.667 85.5 -47s39 -30.5 54 -51.5s22.5 -46.5 22.5 -76.5c0 -29.333 -8 -56.833 -24 -82.5s-38.167 -46 -66.5 -61s-60.166 -22.5 -95.499 -22.5c-26 0 -52.667 4 -80 12s-51.333 19.667 -72 35l1 19l5 2c20 -16 43 -28 69 -36s51.333 -12 76 -12
c32.667 0 61.834 7 87.501 21s45.334 32.167 59.001 54.5s20.5 45.833 20.5 70.5c0 25.333 -6.66699 47 -20 65s-29.5 33 -48.5 45s-45.167 26 -78.5 42c-35.333 17.333 -63.166 32.5 -83.499 45.5s-37.666 29.667 -51.999 50s-21.5 44.833 -21.5 73.5s7.66699 55 23 79
s36.666 43 63.999 57s58.333 21 93 21c40 0 80.667 -9.66699 122 -29zM334.996 853.002l10 -10.001l-1 -5c-46 -46 -94 -91 -144 -135l-5 1l-11 13c46 38.667 94.667 84.334 146 137.001z" />
    <glyph glyph-name="sacute" unicode="&#x15b;" horiz-adv-x="404" 
d="M297 707l10 -10.001l-1 -5c-46 -46 -94 -91 -144 -135l-5 1l-11 13c46 38.667 94.667 84.334 146 137.001zM324 470.999l-4.00488 -18.002l-6 -1c-30 14.667 -61.333 22 -94 22c-26 0 -48.667 -5.16699 -68 -15.5s-34 -23.666 -44 -39.999s-15 -32.833 -15 -49.5
c0 -17.333 5.16699 -32.333 15.5 -45s22.833 -23.334 37.5 -32.001s35.334 -19 62.001 -31c28.667 -12.667 51.834 -24.334 69.501 -35.001s32.667 -24.167 45 -40.5s18.5 -36.166 18.5 -59.499c0 -22.667 -6.5 -44 -19.5 -64s-31.333 -35.833 -55 -47.5
s-50.167 -17.5 -79.5 -17.5c-21.333 0 -43.333 3.16699 -66 9.5s-42.667 15.166 -60 26.499l1 19l5 1c16.667 -12 35.834 -21.167 57.501 -27.5s42.5 -9.5 62.5 -9.5c26.667 0 50.167 5.16699 70.5 15.5s36 23.833 47 40.5s16.5 34.334 16.5 53.001
s-5.33301 34.834 -16 48.501s-23.667 25 -39 34s-36.666 19.833 -63.999 32.5c-28.667 13.333 -51.334 25 -68.001 35s-31 22.833 -43 38.5s-18 34.834 -18 57.501c0 22 6.33301 42.333 19 61s30.334 33.5 53.001 44.5s48.334 16.5 77.001 16.5
c34.667 0 68.667 -7.33301 102 -22z" />
    <glyph glyph-name="Scircumflex" unicode="&#x15c;" horiz-adv-x="445" 
d="M368 611l-4.00391 -17.998l-7 -1c-18.667 9.33301 -38 16.333 -58 21s-38.333 7 -55 7c-32 0 -60 -6.83301 -84 -20.5s-42.333 -31.334 -55 -53.001s-19 -43.834 -19 -66.501c0 -23.333 6.33301 -43.5 19 -60.5s28.167 -31 46.5 -42s43.833 -24.5 76.5 -40.5
c36 -18 64.5 -33.667 85.5 -47s39 -30.5 54 -51.5s22.5 -46.5 22.5 -76.5c0 -29.333 -8 -56.833 -24 -82.5s-38.167 -46 -66.5 -61s-60.166 -22.5 -95.499 -22.5c-26 0 -52.667 4 -80 12s-51.333 19.667 -72 35l1 19l5 2c20 -16 43 -28 69 -36s51.333 -12 76 -12
c32.667 0 61.834 7 87.501 21s45.334 32.167 59.001 54.5s20.5 45.833 20.5 70.5c0 25.333 -6.66699 47 -20 65s-29.5 33 -48.5 45s-45.167 26 -78.5 42c-35.333 17.333 -63.166 32.5 -83.499 45.5s-37.666 29.667 -51.999 50s-21.5 44.833 -21.5 73.5s7.66699 55 23 79
s36.666 43 63.999 57s58.333 21 93 21c40 0 80.667 -9.66699 122 -29zM122.996 717.002c25.333 28.667 59 70.667 101 126h18c42 -55.333 75.667 -97.333 101 -126l-9 -12h-5c-32 35.333 -64 74.333 -96 117c-32 -42.667 -64 -81.667 -96 -117h-5z" />
    <glyph glyph-name="scircumflex" unicode="&#x15d;" horiz-adv-x="404" 
d="M85 571c25.333 28.667 59 70.667 101 126h18c42 -55.333 75.667 -97.333 101 -126l-9 -12h-5c-32 35.333 -64 74.333 -96 117c-32 -42.667 -64 -81.667 -96 -117h-5zM324 471l-4.00488 -18.002l-6 -1c-30 14.667 -61.333 22 -94 22c-26 0 -48.667 -5.16699 -68 -15.5
s-34 -23.666 -44 -39.999s-15 -32.833 -15 -49.5c0 -17.333 5.16699 -32.333 15.5 -45s22.833 -23.334 37.5 -32.001s35.334 -19 62.001 -31c28.667 -12.667 51.834 -24.334 69.501 -35.001s32.667 -24.167 45 -40.5s18.5 -36.166 18.5 -59.499
c0 -22.667 -6.5 -44 -19.5 -64s-31.333 -35.833 -55 -47.5s-50.167 -17.5 -79.5 -17.5c-21.333 0 -43.333 3.16699 -66 9.5s-42.667 15.166 -60 26.499l1 19l5 1c16.667 -12 35.834 -21.167 57.501 -27.5s42.5 -9.5 62.5 -9.5c26.667 0 50.167 5.16699 70.5 15.5
s36 23.833 47 40.5s16.5 34.334 16.5 53.001s-5.33301 34.834 -16 48.501s-23.667 25 -39 34s-36.666 19.833 -63.999 32.5c-28.667 13.333 -51.334 25 -68.001 35s-31 22.833 -43 38.5s-18 34.834 -18 57.501c0 22 6.33301 42.333 19 61s30.334 33.5 53.001 44.5
s48.334 16.5 77.001 16.5c34.667 0 68.667 -7.33301 102 -22z" />
    <glyph glyph-name="Scedilla" unicode="&#x15e;" horiz-adv-x="445" 
d="M368 611l-4.00391 -17.998l-7 -1c-18.667 9.33301 -38 16.333 -58 21s-38.333 7 -55 7c-32 0 -60 -6.83301 -84 -20.5s-42.333 -31.334 -55 -53.001s-19 -43.834 -19 -66.501c0 -23.333 6.33301 -43.5 19 -60.5s28.167 -31 46.5 -42s43.833 -24.5 76.5 -40.5
c36 -18 64.5 -33.667 85.5 -47s39 -30.5 54 -51.5s22.5 -46.5 22.5 -76.5c0 -29.333 -8 -56.833 -24 -82.5s-38.167 -46 -66.5 -61s-60.166 -22.5 -95.499 -22.5c-26 0 -52.667 4 -80 12s-51.333 19.667 -72 35l1 19l5 2c20 -16 43 -28 69 -36s51.333 -12 76 -12
c32.667 0 61.834 7 87.501 21s45.334 32.167 59.001 54.5s20.5 45.833 20.5 70.5c0 25.333 -6.66699 47 -20 65s-29.5 33 -48.5 45s-45.167 26 -78.5 42c-35.333 17.333 -63.166 32.5 -83.499 45.5s-37.666 29.667 -51.999 50s-21.5 44.833 -21.5 73.5s7.66699 55 23 79
s36.666 43 63.999 57s58.333 21 93 21c40 0 80.667 -9.66699 122 -29zM212.996 -54.998l31.0049 -19.999c11.333 -7.33301 19.666 -14.833 24.999 -22.5s8 -16.834 8 -27.501c0 -16 -5.83301 -28.833 -17.5 -38.5s-25.834 -14.5 -42.501 -14.5
c-24.667 0 -44.334 11 -59.001 33l6 18h4c6.66699 -10.667 13.667 -18.5 21 -23.5s16.666 -7.5 27.999 -7.5c12 0 21.667 2.83301 29 8.5s11 13.834 11 24.501c0 7.33301 -1.83301 13.166 -5.5 17.499s-9.83398 9.5 -18.501 15.5l-44 28l25 75h20z" />
    <glyph glyph-name="scedilla" unicode="&#x15f;" horiz-adv-x="404" 
d="M303 39.5c-25.333 -24.333 -58.333 -38.1699 -99 -41.5029l-17 -53l31 -20c11.333 -7.33301 19.666 -14.833 24.999 -22.5s8 -16.834 8 -27.501c0 -16 -5.83301 -28.833 -17.5 -38.5s-25.834 -14.5 -42.501 -14.5c-24.667 0 -44.334 11 -59.001 33l6 18h4
c6.66699 -10.667 13.667 -18.5 21 -23.5s16.666 -7.5 27.999 -7.5c12 0 21.667 2.83301 29 8.5s11 13.834 11 24.501c0 7.33301 -1.83301 13.166 -5.5 17.499s-9.83398 9.5 -18.501 15.5l-44 28l20 61c-20.667 0.666992 -42 4 -64 10s-41.333 14.667 -58 26l1 19l5 1
c16.667 -12 35.834 -21.167 57.501 -27.5s42.5 -9.5 62.5 -9.5c26.667 0 50.167 5.16699 70.5 15.5s36 23.833 47 40.5s16.5 34.334 16.5 53.001s-5.33301 34.834 -16 48.501s-23.667 25 -39 34s-36.666 19.833 -63.999 32.5c-28.667 13.333 -51.334 25 -68.001 35
s-31 22.833 -43 38.5s-18 34.834 -18 57.501c0 22 6.33301 42.333 19 61s30.334 33.5 53.001 44.5s48.334 16.5 77.001 16.5c34.667 0 68.667 -7.33301 102 -22l-4 -18l-6 -1c-30 14.667 -61.333 22 -94 22c-26 0 -48.667 -5.16699 -68 -15.5s-34 -23.666 -44 -39.999
s-15 -32.833 -15 -49.5c0 -17.333 5.16699 -32.333 15.5 -45s22.833 -23.334 37.5 -32.001s35.334 -19 62.001 -31c28.667 -12.667 51.834 -24.334 69.501 -35.001s32.667 -24.167 45 -40.5s18.5 -36.166 18.5 -59.499c0 -33.333 -12.667 -62.166 -38 -86.499z" />
    <glyph glyph-name="Scaron" unicode="&#x160;" horiz-adv-x="445" 
d="M368 611l-4.00391 -17.998l-7 -1c-18.667 9.33301 -38 16.333 -58 21s-38.333 7 -55 7c-32 0 -60 -6.83301 -84 -20.5s-42.333 -31.334 -55 -53.001s-19 -43.834 -19 -66.501c0 -23.333 6.33301 -43.5 19 -60.5s28.167 -31 46.5 -42s43.833 -24.5 76.5 -40.5
c36 -18 64.5 -33.667 85.5 -47s39 -30.5 54 -51.5s22.5 -46.5 22.5 -76.5c0 -29.333 -8 -56.833 -24 -82.5s-38.167 -46 -66.5 -61s-60.166 -22.5 -95.499 -22.5c-26 0 -52.667 4 -80 12s-51.333 19.667 -72 35l1 19l5 2c20 -16 43 -28 69 -36s51.333 -12 76 -12
c32.667 0 61.834 7 87.501 21s45.334 32.167 59.001 54.5s20.5 45.833 20.5 70.5c0 25.333 -6.66699 47 -20 65s-29.5 33 -48.5 45s-45.167 26 -78.5 42c-35.333 17.333 -63.166 32.5 -83.499 45.5s-37.666 29.667 -51.999 50s-21.5 44.833 -21.5 73.5s7.66699 55 23 79
s36.666 43 63.999 57s58.333 21 93 21c40 0 80.667 -9.66699 122 -29zM339.996 805.002c-31.333 -22 -64.002 -47.333 -98.002 -76h-16c-44 34.667 -77.333 60 -100 76l7 14h5c30.667 -21.333 62.334 -44.666 95.001 -69.999c32.667 25.333 64.334 48.666 95.001 69.999h5z
" />
    <glyph glyph-name="scaron" unicode="&#x161;" horiz-adv-x="404" 
d="M305 685c-25.333 -28.667 -59 -70.667 -101 -126h-18c-42 55.333 -75.667 97.333 -101 126l9 12h5c32 -35.333 64 -74.333 96 -117c32 42.667 64 81.667 96 117h5zM324 471l-4.00488 -18.002l-6 -1c-30 14.667 -61.333 22 -94 22c-26 0 -48.667 -5.16699 -68 -15.5
s-34 -23.666 -44 -39.999s-15 -32.833 -15 -49.5c0 -17.333 5.16699 -32.333 15.5 -45s22.833 -23.334 37.5 -32.001s35.334 -19 62.001 -31c28.667 -12.667 51.834 -24.334 69.501 -35.001s32.667 -24.167 45 -40.5s18.5 -36.166 18.5 -59.499
c0 -22.667 -6.5 -44 -19.5 -64s-31.333 -35.833 -55 -47.5s-50.167 -17.5 -79.5 -17.5c-21.333 0 -43.333 3.16699 -66 9.5s-42.667 15.166 -60 26.499l1 19l5 1c16.667 -12 35.834 -21.167 57.501 -27.5s42.5 -9.5 62.5 -9.5c26.667 0 50.167 5.16699 70.5 15.5
s36 23.833 47 40.5s16.5 34.334 16.5 53.001s-5.33301 34.834 -16 48.501s-23.667 25 -39 34s-36.666 19.833 -63.999 32.5c-28.667 13.333 -51.334 25 -68.001 35s-31 22.833 -43 38.5s-18 34.834 -18 57.501c0 22 6.33301 42.333 19 61s30.334 33.5 53.001 44.5
s48.334 16.5 77.001 16.5c34.667 0 68.667 -7.33301 102 -22z" />
    <glyph glyph-name="uni0162" unicode="&#x162;" horiz-adv-x="475" 
d="M447 633l-3.99512 -15.999h-195v-617l-19 -55l31 -20c11.333 -7.33301 19.666 -14.833 24.999 -22.5s8 -16.834 8 -27.501c0 -16 -5.83301 -28.833 -17.5 -38.5s-25.834 -14.5 -42.501 -14.5c-24.667 0 -44.334 11 -59.001 33l6 18h4
c6.66699 -10.667 13.667 -18.5 21 -23.5s16.666 -7.5 27.999 -7.5c12 0 21.667 2.83301 29 8.5s11 13.834 11 24.501c0 7.33301 -1.83301 13.166 -5.5 17.499s-9.83398 9.5 -18.501 15.5l-44 28l23 64v617h-197l-3 4l4 16h412z" />
    <glyph glyph-name="uni0163" unicode="&#x163;" horiz-adv-x="428" 
d="M387 487l-2.99512 -15.999l-83 1h-76v-472l-17 -55l31 -20c11.333 -7.33301 19.666 -14.833 24.999 -22.5s8 -16.834 8 -27.501c0 -16 -5.83301 -28.833 -17.5 -38.5s-25.834 -14.5 -42.501 -14.5c-24.667 0 -44.334 11 -59.001 33l6 18h4
c6.66699 -10.667 13.667 -18.5 21 -23.5s16.666 -7.5 27.999 -7.5c12 0 21.667 2.83301 29 8.5s11 13.834 11 24.501c0 7.33301 -1.83301 13.166 -5.5 17.499s-9.83398 9.5 -18.501 15.5l-44 28l21 64v472h-74l-86 -1l-3 4l3 16h340z" />
    <glyph glyph-name="Tcaron" unicode="&#x164;" horiz-adv-x="475" 
d="M447 633l-4 -16h-195v-617h-20v617h-197l-3 4l4 16h412zM349 805c-31.333 -22 -64.002 -47.333 -98.002 -76h-16c-44 34.667 -77.333 60 -100 76l7 14h5c30.667 -21.333 62.334 -44.666 95.001 -69.999c32.667 25.333 64.334 48.666 95.001 69.999h5z" />
    <glyph glyph-name="tcaron" unicode="&#x165;" horiz-adv-x="428" 
d="M205 559c-42 55.333 -75.667 97.333 -101 126l9 12h5c32 -35.333 64 -74.333 96 -117c32 42.667 64 81.667 96 117h5l9 -12c-25.333 -28.667 -59 -70.667 -101 -126h-18zM387 487l-3 -16l-83 1h-76v-472h-20v472h-74l-86 -1l-3 4l3 16h340z" />
    <glyph glyph-name="Tbar" unicode="&#x166;" horiz-adv-x="475" 
d="M248 350h104l3 -3l-2 -17h-105v-330h-20v330h-97l-3 3l2 17h98v267h-197l-3 4l4 16h412l3 -4l-4 -16h-195v-267z" />
    <glyph glyph-name="tbar" unicode="&#x167;" horiz-adv-x="428" 
d="M225 472v-212h100l3 -3l-2 -17h-101v-240h-20v240h-101l-3 3l2 17h102v212h-74l-86 -1l-3 4l3 16h340l2 -4l-3 -16l-83 1h-76z" />
    <glyph glyph-name="Umacron" unicode="&#x16a;" horiz-adv-x="612" 
d="M526 229c2 -73.333 -16.334 -130.5 -55.001 -171.5s-93.667 -61.5 -165 -61.5s-125.833 20 -163.5 60s-56.5 97.667 -56.5 173v408h20v-408c-0.666992 -68.667 16.333 -121.334 51 -158.001s84.334 -55 149.001 -55s114.167 18.333 148.5 55s51.5 89.334 51.5 158.001
v408h20v-408zM455.999 789l-2 -17h-287l-3 3l2 17h287z" />
    <glyph glyph-name="umacron" unicode="&#x16b;" horiz-adv-x="541" 
d="M420 643l-2 -17h-287l-3 3l2 17h287zM452 176c1.33301 -56.667 -14.002 -100.667 -46.002 -132s-77.333 -47 -136 -47c-59.333 0 -104.5 15.5 -135.5 46.5s-46.167 75.167 -45.5 132.5l1 72v243h21l-2 -314c-0.666992 -52 12.833 -91.833 40.5 -119.5
s67.834 -41.5 120.501 -41.5s92.834 13.833 120.501 41.5s41.5 67.5 41.5 119.5v314h20v-315z" />
    <glyph glyph-name="Ubreve" unicode="&#x16c;" horiz-adv-x="612" 
d="M526 229c2 -73.333 -16.334 -130.5 -55.001 -171.5s-93.667 -61.5 -165 -61.5s-125.833 20 -163.5 60s-56.5 97.667 -56.5 173v408h20v-408c-0.666992 -68.667 16.333 -121.334 51 -158.001s84.334 -55 149.001 -55s114.167 18.333 148.5 55s51.5 89.334 51.5 158.001
v408h20v-408zM410.999 812c-6.66699 -36 -18.167 -62.5 -34.5 -79.5s-38.5 -25.5 -66.5 -25.5s-50.167 8.5 -66.5 25.5s-27.833 43.5 -34.5 79.5l13 13h5c4.66699 -33.333 13.667 -58 27 -74s32 -24 56 -24s42.667 8 56 24s22.333 40.667 27 74h5z" />
    <glyph glyph-name="ubreve" unicode="&#x16d;" horiz-adv-x="541" 
d="M375 666c-6.66699 -36 -18.167 -62.5 -34.5 -79.5s-38.5 -25.5 -66.5 -25.5s-50.167 8.5 -66.5 25.5s-27.833 43.5 -34.5 79.5l13 13h5c4.66699 -33.333 13.667 -58 27 -74s32 -24 56 -24s42.667 8 56 24s22.333 40.667 27 74h5zM452 176
c1.33301 -56.667 -14.002 -100.667 -46.002 -132s-77.333 -47 -136 -47c-59.333 0 -104.5 15.5 -135.5 46.5s-46.167 75.167 -45.5 132.5l1 72v243h21l-2 -314c-0.666992 -52 12.833 -91.833 40.5 -119.5s67.834 -41.5 120.501 -41.5s92.834 13.833 120.501 41.5
s41.5 67.5 41.5 119.5v314h20v-315z" />
    <glyph glyph-name="Uring" unicode="&#x16e;" horiz-adv-x="612" 
d="M526 229c2 -73.333 -16.334 -130.5 -55.001 -171.5s-93.667 -61.5 -165 -61.5s-125.833 20 -163.5 60s-56.5 97.667 -56.5 173v408h20v-408c-0.666992 -68.667 16.333 -121.334 51 -158.001s84.334 -55 149.001 -55s114.167 18.333 148.5 55s51.5 89.334 51.5 158.001
v408h20v-408zM359.999 832c12.667 -14 19 -30.332 19 -48.999c0 -20.667 -7.16699 -37.334 -21.5 -50.001s-30.833 -19 -49.5 -19s-35 6.5 -49 19.5s-21 29.833 -21 50.5c0 20 6.5 36.5 19.5 49.5s29.833 19.5 50.5 19.5c22 0 39.333 -7 52 -21zM271.499 819.501
c-9 -9 -13.5 -20.833 -13.5 -35.5c0 -15.333 4.83301 -27.5 14.5 -36.5s21.5 -13.5 35.5 -13.5s26 4.33301 36 13s15 20.667 15 36c0 14 -4.5 25.833 -13.5 35.5s-21.5 14.5 -37.5 14.5c-15.333 0 -27.5 -4.5 -36.5 -13.5z" />
    <glyph glyph-name="uring" unicode="&#x16f;" horiz-adv-x="541" 
d="M324 686c12.667 -14 19 -30.332 19 -48.999c0 -20.667 -7.16699 -37.334 -21.5 -50.001s-30.833 -19 -49.5 -19s-35 6.5 -49 19.5s-21 29.833 -21 50.5c0 20 6.5 36.5 19.5 49.5s29.833 19.5 50.5 19.5c22 0 39.333 -7 52 -21zM235.5 673.501
c-9 -9 -13.5 -20.833 -13.5 -35.5c0 -15.333 4.83301 -27.5 14.5 -36.5s21.5 -13.5 35.5 -13.5s26 4.33301 36 13s15 20.667 15 36c0 14 -4.5 25.833 -13.5 35.5s-21.5 14.5 -37.5 14.5c-15.333 0 -27.5 -4.5 -36.5 -13.5zM452 176.001
c1.33301 -56.667 -14.002 -100.667 -46.002 -132s-77.333 -47 -136 -47c-59.333 0 -104.5 15.5 -135.5 46.5s-46.167 75.167 -45.5 132.5l1 72v243h21l-2 -314c-0.666992 -52 12.833 -91.833 40.5 -119.5s67.834 -41.5 120.501 -41.5s92.834 13.833 120.501 41.5
s41.5 67.5 41.5 119.5v314h20v-315z" />
    <glyph glyph-name="Uhungarumlaut" unicode="&#x170;" horiz-adv-x="612" 
d="M526 229c2 -73.333 -16.334 -130.5 -55.001 -171.5s-93.667 -61.5 -165 -61.5s-125.833 20 -163.5 60s-56.5 97.667 -56.5 173v408h20v-408c-0.666992 -68.667 16.333 -121.334 51 -158.001s84.334 -55 149.001 -55s114.167 18.333 148.5 55s51.5 89.334 51.5 158.001
v408h20v-408zM244.999 757c50 46.667 79.666 74.667 88.999 84l5 -1l10 -10l-1 -5c-23.333 -23.333 -60.666 -58.333 -111.999 -105l-5 1l-11 13zM374.998 757c50 46.667 79.666 74.667 88.999 84l5 -1l10 -10l-1 -5c-23.333 -23.333 -60.666 -58.333 -111.999 -105l-5 1
l-11 13z" />
    <glyph glyph-name="uhungarumlaut" unicode="&#x171;" horiz-adv-x="541" 
d="M300 706l5 -1.00098l10 -10l-1 -5c-46.667 -46 -94.667 -91 -144 -135l-5 1l-11 13c51.333 44.667 100 90.334 146 137.001zM430 705.999l5 -1l10 -10l-1 -5l-144 -135l-5 1l-11 13c51.333 45.333 100 91 146 137zM452 175.999
c1.33301 -56.667 -14.002 -100.667 -46.002 -132s-77.333 -47 -136 -47c-59.333 0 -104.5 15.5 -135.5 46.5s-46.167 75.167 -45.5 132.5l1 72v243h21l-2 -314c-0.666992 -52 12.833 -91.833 40.5 -119.5s67.834 -41.5 120.501 -41.5s92.834 13.833 120.501 41.5
s41.5 67.5 41.5 119.5v314h20v-315z" />
    <glyph glyph-name="Uogonek" unicode="&#x172;" horiz-adv-x="612" 
d="M526 229c2 -73.333 -16.334 -130.5 -55.001 -171.5s-93.667 -61.5 -165 -61.5s-125.833 20 -163.5 60s-56.5 97.667 -56.5 173v408h20v-408c-0.666992 -68.667 16.333 -121.334 51 -158.001s84.334 -55 149.001 -55s114.167 18.333 148.5 55s51.5 89.334 51.5 158.001
v408h20v-408zM322.999 -176.5c-11.333 10.333 -16.999 24.5 -16.999 42.5c0 11.333 2.16699 22.166 6.5 32.499s13.333 25 27 44l50.5 67.5c9.33301 12 13.666 17.333 12.999 16h24l-61 -79c-16 -21.333 -26.5 -37.166 -31.5 -47.499s-7.5 -20.5 -7.5 -30.5
c0 -26.667 14.333 -40 43 -40c27.333 0 53 17.333 77 52h2l11 -16c-28 -38 -58.667 -57 -92 -57c-18.667 0 -33.667 5.16699 -45 15.5z" />
    <glyph glyph-name="uogonek" unicode="&#x173;" horiz-adv-x="541" 
d="M402 -118l10.999 -16c-28 -38 -58.667 -57 -92 -57c-18.667 0 -33.667 5.16699 -45 15.5s-17 24.5 -17 42.5c0 16 4.66699 31.667 14 47s31.666 46 66.999 92c-20.667 -6 -44 -9 -70 -9c-59.333 0 -104.5 15.5 -135.5 46.5s-46.167 75.167 -45.5 132.5l1 72v243h21
l-2 -314c-0.666992 -52 12.833 -91.833 40.5 -119.5s67.834 -41.5 120.501 -41.5s92.834 13.833 120.501 41.5s41.5 67.5 41.5 119.5v314h20v-315c0.666992 -36 -5.33301 -67.167 -18 -93.5s-32 -46.833 -58 -61.5c-24 -29.333 -43.667 -54.333 -59 -75s-25.333 -36 -30 -46
s-7 -20 -7 -30c0 -26.667 14.333 -40 43 -40c27.333 0 53 17.333 77 52h2z" />
    <glyph glyph-name="Wcircumflex" unicode="&#x174;" horiz-adv-x="884" 
d="M622 0h-20l-156 438h-4l-170 -438h-20l-229 637h23l13 -43l202 -560h4l169 437l-60 166h22l13 -43l202 -560h4l219 560l14 43h23zM327 752c31.333 22 64.002 47.333 98.002 76h16c44 -34.667 77.333 -60 100 -76l-7 -14h-5c-30.667 21.333 -62.334 44.666 -95.001 69.999
c-32.667 -25.333 -64.334 -48.666 -95.001 -69.999h-5z" />
    <glyph glyph-name="wcircumflex" unicode="&#x175;" horiz-adv-x="763" 
d="M247 571c25.333 28.667 59 70.667 101 126h18c42 -55.333 75.667 -97.333 101 -126l-9 -12h-5c-32 35.333 -64 74.333 -96 117c-32 -42.667 -64 -81.667 -96 -117h-5zM532 0h-21l-126 331h-3l-137 -331h-21l-186 491h23l10 -35l163 -425h3l137 332l-49 128h22l11 -36
l162 -424h4l176 425l12 35h22z" />
    <glyph glyph-name="Ycircumflex" unicode="&#x176;" horiz-adv-x="495" 
d="M248 245v-245h-20v246l-202 391h26l11 -26l173 -334h5l188 334l11 26h26zM132 752c31.333 22 64.002 47.333 98.002 76h16c44 -34.667 77.333 -60 100 -76l-7 -14h-5c-30.667 21.333 -62.334 44.666 -95.001 69.999c-32.667 -25.333 -64.334 -48.666 -95.001 -69.999h-5z
" />
    <glyph glyph-name="ycircumflex" unicode="&#x177;" horiz-adv-x="447" 
d="M125 559l-9 12c25.333 28.667 59 70.667 101 126h18c42 -55.333 75.667 -97.333 101 -126l-9 -12h-5c-32 35.333 -64 74.333 -96 117c-32 -42.667 -64 -81.667 -96 -117h-5zM226 186v-186h-20v187l-166 304h25l9 -21l140 -253h4l152 253l10 21h25z" />
    <glyph glyph-name="Ydieresis" unicode="&#x178;" horiz-adv-x="495" 
d="M248 245v-245h-20v246l-202 391h26l11 -26l173 -334h5l188 334l11 26h26zM183.5 794.5c3.66699 -3.66699 5.5 -8.5 5.5 -14.5s-1.83301 -10.833 -5.5 -14.5s-8.5 -5.5 -14.5 -5.5s-10.833 1.83301 -14.5 5.5s-5.5 8.5 -5.5 14.5s1.83301 10.833 5.5 14.5
s8.5 5.5 14.5 5.5s10.833 -1.83301 14.5 -5.5zM323.5 794.5c3.66699 -3.66699 5.5 -8.5 5.5 -14.5s-1.83301 -10.833 -5.5 -14.5s-8.5 -5.5 -14.5 -5.5s-10.833 1.83301 -14.5 5.5s-5.5 8.5 -5.5 14.5s1.83301 10.833 5.5 14.5s8.5 5.5 14.5 5.5s10.833 -1.83301 14.5 -5.5z
" />
    <glyph glyph-name="Zacute" unicode="&#x179;" horiz-adv-x="507" 
d="M460 620l-401 -600h331l68 1l4 -5l-3 -16h-391l-36 -1v18l401 600h-320l-58 -1l-4 5l3 17l65 -1h304l37 1v-18zM363 834l6.99902 -11.999l-2 -5c-44.667 -25.333 -102.667 -56.333 -174 -93l-5 3l-7 15c60.667 29.333 119.334 60.666 176.001 93.999z" />
    <glyph glyph-name="zacute" unicode="&#x17a;" horiz-adv-x="455" 
d="M330 707l10 -10.001l-1 -5c-46 -46 -94 -91 -144 -135l-5 1l-11 13c46 38.667 94.667 84.334 146 137.001zM398 473.999l-326 -455h267l57 1l4 -4l-3 -16h-321l-31 -1v17l326 456h-259l-49 -1l-3 4l3 17l55 -1h249l31 1v-18z" />
    <glyph glyph-name="Zdotaccent" unicode="&#x17b;" horiz-adv-x="507" 
d="M460 620l-401 -600h331l68 1l4 -5l-3 -16h-391l-36 -1v18l401 600h-320l-58 -1l-4 5l3 17l65 -1h304l37 1v-18zM268.5 810.5c3.66699 -3.66699 5.5 -8.5 5.5 -14.5s-1.83301 -10.833 -5.5 -14.5s-8.5 -5.5 -14.5 -5.5s-10.833 1.83301 -14.5 5.5s-5.5 8.5 -5.5 14.5
s1.83301 10.833 5.5 14.5s8.5 5.5 14.5 5.5s10.833 -1.83301 14.5 -5.5z" />
    <glyph glyph-name="zdotaccent" unicode="&#x17c;" horiz-adv-x="455" 
d="M242.5 664.5c3.66699 -3.66699 5.5 -8.5 5.5 -14.5s-1.83301 -10.833 -5.5 -14.5s-8.5 -5.5 -14.5 -5.5s-10.833 1.83301 -14.5 5.5s-5.5 8.5 -5.5 14.5s1.83301 10.833 5.5 14.5s8.5 5.5 14.5 5.5s10.833 -1.83301 14.5 -5.5zM398 474l-326 -455h267l57 1l4 -4l-3 -16
h-321l-31 -1v17l326 456h-259l-49 -1l-3 4l3 17l55 -1h249l31 1v-18z" />
    <glyph glyph-name="Zcaron" unicode="&#x17d;" horiz-adv-x="507" 
d="M460 620l-401 -600h331l68 1l4 -5l-3 -16h-391l-36 -1v18l401 600h-320l-58 -1l-4 5l3 17l65 -1h304l37 1v-18zM361 805c-31.333 -22 -64.002 -47.333 -98.002 -76h-16c-44 34.667 -77.333 60 -100 76l7 14h5c30.667 -21.333 62.334 -44.666 95.001 -69.999
c32.667 25.333 64.334 48.666 95.001 69.999h5z" />
    <glyph glyph-name="zcaron" unicode="&#x17e;" horiz-adv-x="455" 
d="M338 685c-25.333 -28.667 -59 -70.667 -101 -126h-18c-42 55.333 -75.667 97.333 -101 126l9 12h5c32 -35.333 64 -74.333 96 -117c32 42.667 64 81.667 96 117h5zM398 474l-326 -455h267l57 1l4 -4l-3 -16h-321l-31 -1v17l326 456h-259l-49 -1l-3 4l3 17l55 -1h249l31 1
v-18z" />
    <glyph glyph-name="uni018F" unicode="&#x18f;" horiz-adv-x="615" 
d="M497.5 558c46.333 -55.333 69.5 -133.334 69.5 -234.001c0 -66.667 -10.667 -124.667 -32 -174s-51.833 -87.5 -91.5 -114.5s-86.167 -40.5 -139.5 -40.5c-46.667 0 -88 9.5 -124 28.5s-64 45.5 -84 79.5s-30 73.333 -30 118c0 15.333 1 29.333 3 42l7 9l469 6
c1.33301 20 2 35.333 2 46c0 94.667 -21.5 167.834 -64.5 219.501s-103.5 77.5 -181.5 77.5c-36 0 -71.5 -5.33301 -106.5 -16s-64.5 -25 -88.5 -43l-7 2l2 19c28.667 18.667 60.5 33 95.5 43s70.167 15 105.5 15c84 0 149.167 -27.667 195.5 -83zM464.5 79.999
c42.333 42.667 68.5 101.667 78.5 177l-457 -5l-1 -32c0 -40 9.16699 -75.5 27.5 -106.5s44 -55 77 -72s71.167 -25.5 114.5 -25.5c64.667 0 118.167 21.333 160.5 64z" />
    <glyph glyph-name="florin" unicode="&#x192;" horiz-adv-x="235" 
d="M330 603l-5 -19l-3 -2c-15.333 6 -33 9 -53 9c-66.667 0 -105 -38.333 -115 -115l-14 -111h114l3 -4l-2 -16h-117l-38 -304c-4.66699 -43.333 -13.667 -77.666 -27 -102.999s-37.333 -54.333 -72 -87l-12 10l1 5c31.333 30.667 53 57.667 65 81s20.333 54 25 92l18 146
l20 160h-63l-4 4l2 16h67l14 111c4.66699 43.333 18.667 76.666 42 99.999s54 35 92 35c16 0 36.667 -2.66699 62 -8z" />
    <glyph glyph-name="Ohorn" unicode="&#x1a0;" horiz-adv-x="630" 
d="M554.5 484c16.333 -44 24.499 -96.667 24.499 -158c0 -105.333 -23.5 -186.833 -70.5 -244.5s-113.5 -86.5 -199.5 -86.5c-84 0 -148.5 27.667 -193.5 83s-67.5 134.333 -67.5 237c0 104 23 184.5 69 241.5s111 85.5 195 85.5c24.667 0 45.834 -2 63.501 -6
s37.167 -9.66699 58.5 -17c2.66699 -0.666992 9.83398 -2.83398 21.501 -6.50098s22.5 -5.5 32.5 -5.5c16 0 29.5 4.66699 40.5 14s16.5 21 16.5 35c0 22.667 -10.667 45.667 -32 69l2 5c5.33301 3.33301 9.33301 5 12 5c8.66699 0 17.167 -8.66699 25.5 -26
s12.5 -34.666 12.5 -51.999c0 -22 -7.5 -39.333 -22.5 -52s-34.833 -18.667 -59.5 -18c31.333 -24.667 55.166 -59 71.499 -103zM493.499 96.5c43.667 54.333 65.5 130.834 65.5 229.501c0 96 -20.667 169.333 -62 220s-101.333 76 -180 76c-80 0 -141.5 -26.333 -184.5 -79
s-64.5 -128.334 -64.5 -227.001c0 -96.667 20.833 -171 62.5 -223s101.167 -78 178.5 -78c79.333 0 140.833 27.167 184.5 81.5z" />
    <glyph glyph-name="ohorn" unicode="&#x1a1;" horiz-adv-x="556" 
d="M495 251c0 -81.333 -19.3301 -144.168 -57.9971 -188.501s-93.334 -66.5 -164.001 -66.5c-68.667 0 -121.667 21.333 -159 64s-56 103.334 -56 182.001c0 80.667 18.833 143 56.5 187s91.167 66 160.5 66c20 0 37.5 -1.5 52.5 -4.5s31.5 -7.5 49.5 -13.5
c19.333 -6 33.666 -9 42.999 -9c13.333 0 24.333 3.5 33 10.5s13 15.833 13 26.5c0 8.66699 -2.33301 17.667 -7 27s-11 18 -19 26l1 5c4.66699 2.66699 8.66699 4 12 4c7.33301 0 14.666 -6.66699 21.999 -20s11 -26.666 11 -39.999c0 -17.333 -6.16699 -31 -18.5 -41
s-28.5 -15 -48.5 -15c50.667 -38.667 76 -105.334 76 -200.001zM422.503 75.998c35 40.667 52.5 98.6689 52.5 174.002c0 73.333 -16.833 129.166 -50.5 167.499s-82.167 57.5 -145.5 57.5c-64.667 0 -114.167 -19.833 -148.5 -59.5s-51.5 -96.834 -51.5 -171.501
c0 -74 16.667 -130.667 50 -170s81.333 -59 144 -59c64.667 0 114.5 20.333 149.5 61z" />
    <glyph glyph-name="Uhorn" unicode="&#x1af;" horiz-adv-x="622" 
d="M526 229c2 -73.333 -16.335 -130.5 -55.002 -171.5s-93.667 -61.5 -165 -61.5s-125.833 20 -163.5 60s-56.5 97.667 -56.5 173v408h20v-408c-0.666992 -68.667 16.333 -121.334 51 -158.001s84.334 -55 149.001 -55s114.167 18.333 148.5 55s51.5 89.334 51.5 158.001
v408h10c20.667 0 37.334 4.83301 50.001 14.5s19 22.5 19 38.5c0 18.667 -11.333 39 -34 61l2 5c5.33301 3.33301 9.33301 5 12 5c4 0 9.16699 -3.33301 15.5 -10s12 -15.5 17 -26.5s7.5 -22.5 7.5 -34.5c0 -20.667 -7.16699 -37.5 -21.5 -50.5s-33.5 -20.5 -57.5 -22.5
v-388z" />
    <glyph glyph-name="uhorn" unicode="&#x1b0;" horiz-adv-x="550" 
d="M452 240l-0.000976562 -62c2 -57.333 -13 -101.833 -45 -133.5s-77.667 -47.5 -137 -47.5c-58.667 0 -103.5 15.5 -134.5 46.5s-46.5 75.5 -46.5 133.5v314h21l-1 -313c0 -52 13.833 -91.833 41.5 -119.5s67.834 -41.5 120.501 -41.5c52 0 91.833 13.833 119.5 41.5
s41.5 67.167 41.5 118.5v314h10c16.667 0 30.167 3.66699 40.5 11s15.5 17 15.5 29c0 15.333 -9.33301 31 -28 47l2 4c4.66699 3.33301 8.66699 5 12 5c6 0 13.167 -5.66699 21.5 -17s12.5 -24 12.5 -38c0 -16 -5.83301 -29.167 -17.5 -39.5s-27.5 -16.5 -47.5 -18.5z" />
    <glyph glyph-name="uni01C4" unicode="&#x1c4;" horiz-adv-x="1144" 
d="M517 563.5c48 -52.333 72.001 -127.167 72.001 -224.5c0 -110.667 -24.833 -195.667 -74.5 -255s-120.834 -89 -213.501 -89c-22.667 0 -52.667 0.5 -90 1.5s-71 2.16699 -101 3.5v637l201 5c89.333 0 158 -26.167 206 -78.5zM499.501 98.999
c46.333 56 69.5029 136 69.5029 240c0 91.333 -22.333 161.333 -67 210s-108.334 73 -191.001 73c-20.667 0 -48.834 -0.5 -84.501 -1.5s-67.834 -2.16699 -96.501 -3.5v-597c28 -1.33301 58.5 -2.5 91.5 -3.5s59.5 -1.5 79.5 -1.5c86 0 152.167 28 198.5 84zM1097 619.999
l-401 -600h331l68 1l4 -5l-3 -16h-391l-36 -1v18l401 600h-320l-58 -1l-4 5l3 17l65 -1h304l37 1v-18zM998.004 804.999c-31.333 -22 -64.002 -47.333 -98.002 -76h-16c-44 34.667 -77.333 60 -100 76l7 14h5c30.667 -21.333 62.334 -44.666 95.001 -69.999
c32.667 25.333 64.334 48.666 95.001 69.999h5z" />
    <glyph glyph-name="uni01C5" unicode="&#x1c5;" horiz-adv-x="1092" 
d="M517 563.5c48 -52.333 72.001 -127.167 72.001 -224.5c0 -110.667 -24.833 -195.667 -74.5 -255s-120.834 -89 -213.501 -89c-22.667 0 -52.667 0.5 -90 1.5s-71 2.16699 -101 3.5v637l201 5c89.333 0 158 -26.167 206 -78.5zM499.501 98.999
c46.333 56 69.5029 136 69.5029 240c0 91.333 -22.333 161.333 -67 210s-108.334 73 -191.001 73c-20.667 0 -48.834 -0.5 -84.501 -1.5s-67.834 -2.16699 -96.501 -3.5v-597c28 -1.33301 58.5 -2.5 91.5 -3.5s59.5 -1.5 79.5 -1.5c86 0 152.167 28 198.5 84z
M975.004 684.999c-25.333 -28.667 -59 -70.667 -101 -126h-18c-42 55.333 -75.667 97.333 -101 126l9 12h5c32 -35.333 64 -74.333 96 -117c32 42.667 64 81.667 96 117h5zM1035 473.999l-326 -455h267l57 1l4 -4l-3 -16h-321l-31 -1v17l326 456h-259l-49 -1l-3 4l3 17
l55 -1h249l31 1v-18z" />
    <glyph glyph-name="uni01C6" unicode="&#x1c6;" horiz-adv-x="1016" 
d="M780 559c-42 55.333 -75.667 97.333 -101 126l9 12h5c32 -35.333 64 -74.333 96 -117c32 42.667 64 81.667 96 117h5l9 -12c-25.333 -28.667 -59 -70.667 -101 -126h-18zM444 434.5c39.333 -40.333 59.002 -98.167 59.002 -173.5c0 -84.667 -20.5 -150 -61.5 -196
s-99.5 -69 -175.5 -69c-19.333 0 -44.333 0.333008 -75 1s-58.334 1.66699 -83.001 3v491l167 4c73.333 0 129.666 -20.167 168.999 -60.5zM961.002 15.999l-3 -16h-321l-31 -1v17l326 456h-259l-49 -1l-3 4l3 17l55 -1h249l31 1v-18l-326 -455h267l57 1zM427.002 78.499
c37.333 42.333 56.001 102.833 56.001 181.5c0 69.333 -18 122.5 -54 159.5s-87.667 55.5 -155 55.5l-146 -4v-452c22 -1.33301 46.5 -2.33301 73.5 -3s48.833 -1 65.5 -1c69.333 0 122.666 21.167 159.999 63.5z" />
    <glyph glyph-name="uni01C7" unicode="&#x1c7;" horiz-adv-x="666" 
d="M393 16l-4 -16h-280v637h20v-617h261zM558 115c0 -46.667 -9.83301 -86.167 -29.5 -118.5s-52.834 -63.833 -99.501 -94.5l-11 11v6c42.667 28 73.334 57 92.001 87s28 65.667 28 107v504h-128l-4 4l3 16h149v-522z" />
    <glyph glyph-name="uni01C8" unicode="&#x1c8;" horiz-adv-x="659" 
d="M393 16l-4 -16h-280v637h20v-617h261zM551 89c0 -36.667 -7 -67.5 -21 -92.5s-38 -49.167 -72 -72.5l-12 11v5c30.667 20.667 52.5 42.5 65.5 65.5s19.5 50.5 19.5 82.5v384h-102l-3 3l3 16h122v-402z" />
    <glyph glyph-name="uni01C9" unicode="&#x1c9;" horiz-adv-x="626" 
d="M340 19l2 -3l-3 -16h-232v491h20v-472h213zM518 89c0 -36.667 -7 -67.5 -21 -92.5s-38 -49.167 -72 -72.5l-12 11v5c30.667 20.667 52.5 42.5 65.5 65.5s19.5 50.5 19.5 82.5v384h-102l-3 3l3 16h122v-402z" />
    <glyph glyph-name="uni01CA" unicode="&#x1ca;" horiz-adv-x="938" 
d="M559 176l-1 -176h-19l-404 595h-4l-1 -396v-199h-20v190l1 447h19l404 -595h4l2 594l20 2zM830 115c0 -46.667 -9.83301 -86.167 -29.5 -118.5s-52.834 -63.833 -99.501 -94.5l-11 11v6c42.667 28 73.334 57 92.001 87s28 65.667 28 107v504h-128l-4 4l3 16h149v-522z
" />
    <glyph glyph-name="uni01CB" unicode="&#x1cb;" horiz-adv-x="931" 
d="M559 176l-1 -176h-19l-404 595h-4l-1 -396v-199h-20v190l1 447h19l404 -595h4l2 594l20 2zM823 89c0 -36.667 -7 -67.5 -21 -92.5s-38 -49.167 -72 -72.5l-12 11v5c30.667 20.667 52.5 42.5 65.5 65.5s19.5 50.5 19.5 82.5v384h-102l-3 3l3 16h122v-402z" />
    <glyph glyph-name="uni01CC" unicode="&#x1cc;" horiz-adv-x="849" 
d="M460 490l20 2l-1 -355l-1 -137h-20l-326 451h-3l-1 -297v-154h-20v146l1 345h20l326 -451h4zM741 89c0 -36.667 -7 -67.5 -21 -92.5s-38 -49.167 -72 -72.5l-12 11v5c30.667 20.667 52.5 42.5 65.5 65.5s19.5 50.5 19.5 82.5v384h-102l-3 3l3 16h122v-402z" />
    <glyph glyph-name="uni01CD" unicode="&#x1cd;" horiz-adv-x="554" 
d="M526 0h-23l-13 43l-63 170h-302l-68 -170l-14 -43h-24l254 637h20zM284 603h-4l-147 -370h287zM384 805c-31.333 -22 -64.002 -47.333 -98.002 -76h-16c-44 34.667 -77.333 60 -100 76l7 14h5c30.667 -21.333 62.334 -44.666 95.001 -69.999
c32.667 25.333 64.334 48.666 95.001 69.999h5z" />
    <glyph glyph-name="uni01CE" unicode="&#x1ce;" horiz-adv-x="494" 
d="M242 559c-42 55.333 -75.667 97.333 -101 126l9 12h5c32 -35.333 64 -74.333 96 -117c32 42.667 64 81.667 96 117h5l9 -12c-25.333 -28.667 -59 -70.667 -101 -126h-18zM452 0h-23l-10 35l-49 126h-248l-53 -126l-12 -35h-23l207 491h21zM252 461h-3l-119 -281h232z" />
    <glyph glyph-name="uni01CF" unicode="&#x1cf;" horiz-adv-x="240" 
d="M130 0h-20v637h20v-637zM227 805c-31.333 -22 -64.002 -47.333 -98.002 -76h-16c-44 34.667 -77.333 60 -100 76l7 14h5c30.667 -21.333 62.334 -44.666 95.001 -69.999c32.667 25.333 64.334 48.666 95.001 69.999h5z" />
    <glyph glyph-name="uni01D0" unicode="&#x1d0;" horiz-adv-x="237" 
d="M230 685c-25.333 -28.667 -59 -70.667 -101 -126h-18c-42 55.333 -75.667 97.333 -101 126l9 12h5c32 -35.333 64 -74.333 96 -117c32 42.667 64 81.667 96 117h5zM128 0h-20v491h20v-491z" />
    <glyph glyph-name="uni01D1" unicode="&#x1d1;" horiz-adv-x="627" 
d="M511.5 561c45 -54 67.499 -131.333 67.499 -232c0 -107.333 -23.333 -189.833 -70 -247.5s-113.667 -86.5 -201 -86.5c-83.333 0 -147.5 27.833 -192.5 83.5s-67.5 135.167 -67.5 238.5c0 104.667 23.333 185 70 241s113.334 84 200.001 84c84 0 148.5 -27 193.5 -81z
M132.499 543c-43 -52.667 -64.499 -128 -64.499 -226c0 -96.667 20.667 -171.167 62 -223.5s100.666 -78.5 177.999 -78.5c80.667 0 142.667 27.167 186 81.5s65 131.833 65 232.5c0 94 -20.833 166.333 -62.5 217s-101.167 76 -178.5 76
c-80.667 0 -142.5 -26.333 -185.5 -79zM421 805c-31.333 -22 -64.002 -47.333 -98.002 -76h-16c-44 34.667 -77.333 60 -100 76l7 14h5c30.667 -21.333 62.334 -44.666 95.001 -69.999c32.667 25.333 64.334 48.666 95.001 69.999h5z" />
    <glyph glyph-name="uni01D2" unicode="&#x1d2;" horiz-adv-x="553" 
d="M388 685c-25.333 -28.667 -59 -70.667 -101 -126h-18c-42 55.333 -75.667 97.333 -101 126l9 12h5c32 -35.333 64 -74.333 96 -117c32 42.667 64 81.667 96 117h5zM439.5 432.5c37 -41.667 55.5 -101.166 55.5 -178.499c0 -82.667 -19.333 -146.334 -58 -191.001
s-93.667 -67 -165 -67c-68.667 0 -121.5 21.5 -158.5 64.5s-55.5 104.167 -55.5 183.5c0 80.667 19.167 142.667 57.5 186s93.5 65 165.5 65c68.667 0 121.5 -20.833 158.5 -62.5zM130.5 416.001c-34.333 -39.333 -51.5 -96.334 -51.5 -171.001s16.667 -131.667 50 -171
s81 -59 143 -59c65.333 0 115.5 20.333 150.5 61s52.5 99.334 52.5 176.001c0 72 -16.833 127.167 -50.5 165.5s-81.834 57.5 -144.501 57.5c-65.333 0 -115.166 -19.667 -149.499 -59z" />
    <glyph glyph-name="uni01D3" unicode="&#x1d3;" horiz-adv-x="612" 
d="M526 229c2 -73.333 -16.334 -130.5 -55.001 -171.5s-93.667 -61.5 -165 -61.5s-125.833 20 -163.5 60s-56.5 97.667 -56.5 173v408h20v-408c-0.666992 -68.667 16.333 -121.334 51 -158.001s84.334 -55 149.001 -55s114.167 18.333 148.5 55s51.5 89.334 51.5 158.001
v408h20v-408zM416.999 805c-31.333 -22 -64.002 -47.333 -98.002 -76h-16c-44 34.667 -77.333 60 -100 76l7 14h5c30.667 -21.333 62.334 -44.666 95.001 -69.999c32.667 25.333 64.334 48.666 95.001 69.999h5z" />
    <glyph glyph-name="uni01D4" unicode="&#x1d4;" horiz-adv-x="541" 
d="M384 685c-25.333 -28.667 -59 -70.667 -101 -126h-18c-42 55.333 -75.667 97.333 -101 126l9 12h5c32 -35.333 64 -74.333 96 -117c32 42.667 64 81.667 96 117h5zM452 176c1.33301 -56.667 -14.002 -100.667 -46.002 -132s-77.333 -47 -136 -47
c-59.333 0 -104.5 15.5 -135.5 46.5s-46.167 75.167 -45.5 132.5l1 72v243h21l-2 -314c-0.666992 -52 12.833 -91.833 40.5 -119.5s67.834 -41.5 120.501 -41.5s92.834 13.833 120.501 41.5s41.5 67.5 41.5 119.5v314h20v-315z" />
    <glyph glyph-name="uni01D5" unicode="&#x1d5;" horiz-adv-x="612" 
d="M526 229c2 -73.333 -16.334 -130.5 -55.001 -171.5s-93.667 -61.5 -165 -61.5s-125.833 20 -163.5 60s-56.5 97.667 -56.5 173v408h20v-408c-0.666992 -68.667 16.333 -121.334 51 -158.001s84.334 -55 149.001 -55s114.167 18.333 148.5 55s51.5 89.334 51.5 158.001
v408h20v-408zM413.999 873l-2 -17h-200l-3 3l2 17h200zM253.499 774.5c3.66699 -3.66699 5.5 -8.5 5.5 -14.5s-1.83301 -10.833 -5.5 -14.5s-8.5 -5.5 -14.5 -5.5s-10.833 1.83301 -14.5 5.5s-5.5 8.5 -5.5 14.5s1.83301 10.833 5.5 14.5s8.5 5.5 14.5 5.5
s10.833 -1.83301 14.5 -5.5zM393.499 774.5c3.66699 -3.66699 5.5 -8.5 5.5 -14.5s-1.83301 -10.833 -5.5 -14.5s-8.5 -5.5 -14.5 -5.5s-10.833 1.83301 -14.5 5.5s-5.5 8.5 -5.5 14.5s1.83301 10.833 5.5 14.5s8.5 5.5 14.5 5.5s10.833 -1.83301 14.5 -5.5z" />
    <glyph glyph-name="uni01D6" unicode="&#x1d6;" horiz-adv-x="541" 
d="M378 727l-2 -17h-200l-3 3l2 17h200zM217.5 628.5c3.66699 -3.66699 5.5 -8.5 5.5 -14.5s-1.83301 -10.833 -5.5 -14.5s-8.5 -5.5 -14.5 -5.5s-10.833 1.83301 -14.5 5.5s-5.5 8.5 -5.5 14.5s1.83301 10.833 5.5 14.5s8.5 5.5 14.5 5.5s10.833 -1.83301 14.5 -5.5z
M357.5 628.5c3.66699 -3.66699 5.5 -8.5 5.5 -14.5s-1.83301 -10.833 -5.5 -14.5s-8.5 -5.5 -14.5 -5.5s-10.833 1.83301 -14.5 5.5s-5.5 8.5 -5.5 14.5s1.83301 10.833 5.5 14.5s8.5 5.5 14.5 5.5s10.833 -1.83301 14.5 -5.5zM452 176
c1.33301 -56.667 -14.002 -100.667 -46.002 -132s-77.333 -47 -136 -47c-59.333 0 -104.5 15.5 -135.5 46.5s-46.167 75.167 -45.5 132.5l1 72v243h21l-2 -314c-0.666992 -52 12.833 -91.833 40.5 -119.5s67.834 -41.5 120.501 -41.5s92.834 13.833 120.501 41.5
s41.5 67.5 41.5 119.5v314h20v-315z" />
    <glyph glyph-name="uni01D7" unicode="&#x1d7;" horiz-adv-x="612" 
d="M526 229c2 -73.333 -16.334 -130.5 -55.001 -171.5s-93.667 -61.5 -165 -61.5s-125.833 20 -163.5 60s-56.5 97.667 -56.5 173v408h20v-408c-0.666992 -68.667 16.333 -121.334 51 -158.001s84.334 -55 149.001 -55s114.167 18.333 148.5 55s51.5 89.334 51.5 158.001
v408h20v-408zM405.999 908l4.99902 -13.001l-3 -5c-53.333 -19.333 -115.666 -39.666 -186.999 -60.999l-5 4l-4 16c62 17.333 125.333 38 190 62zM253.498 774.499c3.66699 -3.66699 5.5 -8.5 5.5 -14.5s-1.83301 -10.833 -5.5 -14.5s-8.5 -5.5 -14.5 -5.5
s-10.833 1.83301 -14.5 5.5s-5.5 8.5 -5.5 14.5s1.83301 10.833 5.5 14.5s8.5 5.5 14.5 5.5s10.833 -1.83301 14.5 -5.5zM393.498 774.499c3.66699 -3.66699 5.5 -8.5 5.5 -14.5s-1.83301 -10.833 -5.5 -14.5s-8.5 -5.5 -14.5 -5.5s-10.833 1.83301 -14.5 5.5
s-5.5 8.5 -5.5 14.5s1.83301 10.833 5.5 14.5s8.5 5.5 14.5 5.5s10.833 -1.83301 14.5 -5.5z" />
    <glyph glyph-name="uni01D8" unicode="&#x1d8;" horiz-adv-x="541" 
d="M368 762l4.99902 -13.001l-3 -5c-53.333 -19.333 -115.666 -39.666 -186.999 -60.999l-5 4l-4 16c62 17.333 125.333 38 190 62zM215.499 628.499c3.66699 -3.66699 5.5 -8.5 5.5 -14.5s-1.83301 -10.833 -5.5 -14.5s-8.5 -5.5 -14.5 -5.5s-10.833 1.83301 -14.5 5.5
s-5.5 8.5 -5.5 14.5s1.83301 10.833 5.5 14.5s8.5 5.5 14.5 5.5s10.833 -1.83301 14.5 -5.5zM355.499 628.499c3.66699 -3.66699 5.5 -8.5 5.5 -14.5s-1.83301 -10.833 -5.5 -14.5s-8.5 -5.5 -14.5 -5.5s-10.833 1.83301 -14.5 5.5s-5.5 8.5 -5.5 14.5
s1.83301 10.833 5.5 14.5s8.5 5.5 14.5 5.5s10.833 -1.83301 14.5 -5.5zM451.999 175.999c1.33301 -56.667 -14.002 -100.667 -46.002 -132s-77.333 -47 -136 -47c-59.333 0 -104.5 15.5 -135.5 46.5s-46.167 75.167 -45.5 132.5l1 72v243h21l-2 -314
c-0.666992 -52 12.833 -91.833 40.5 -119.5s67.834 -41.5 120.501 -41.5s92.834 13.833 120.501 41.5s41.5 67.5 41.5 119.5v314h20v-315z" />
    <glyph glyph-name="uni01D9" unicode="&#x1d9;" horiz-adv-x="612" 
d="M526 229c2 -73.333 -16.334 -130.5 -55.001 -171.5s-93.667 -61.5 -165 -61.5s-125.833 20 -163.5 60s-56.5 97.667 -56.5 173v408h20v-408c-0.666992 -68.667 16.333 -121.334 51 -158.001s84.334 -55 149.001 -55s114.167 18.333 148.5 55s51.5 89.334 51.5 158.001
v408h20v-408zM416.999 889c-31.333 -22 -64.002 -47.333 -98.002 -76h-16c-44 34.667 -77.333 60 -100 76l7 14h5c30.667 -21.333 62.334 -44.666 95.001 -69.999c32.667 25.333 64.334 48.666 95.001 69.999h5zM253.497 774.5c3.66699 -3.66699 5.5 -8.5 5.5 -14.5
s-1.83301 -10.833 -5.5 -14.5s-8.5 -5.5 -14.5 -5.5s-10.833 1.83301 -14.5 5.5s-5.5 8.5 -5.5 14.5s1.83301 10.833 5.5 14.5s8.5 5.5 14.5 5.5s10.833 -1.83301 14.5 -5.5zM393.497 774.5c3.66699 -3.66699 5.5 -8.5 5.5 -14.5s-1.83301 -10.833 -5.5 -14.5
s-8.5 -5.5 -14.5 -5.5s-10.833 1.83301 -14.5 5.5s-5.5 8.5 -5.5 14.5s1.83301 10.833 5.5 14.5s8.5 5.5 14.5 5.5s10.833 -1.83301 14.5 -5.5z" />
    <glyph glyph-name="uni01DA" unicode="&#x1da;" horiz-adv-x="541" 
d="M381 743c-31.333 -22 -64.002 -47.333 -98.002 -76h-16c-44 34.667 -77.333 60 -100 76l7 14h5c30.667 -21.333 62.334 -44.666 95.001 -69.999c32.667 25.333 64.334 48.666 95.001 69.999h5zM217.498 628.5c3.66699 -3.66699 5.5 -8.5 5.5 -14.5
s-1.83301 -10.833 -5.5 -14.5s-8.5 -5.5 -14.5 -5.5s-10.833 1.83301 -14.5 5.5s-5.5 8.5 -5.5 14.5s1.83301 10.833 5.5 14.5s8.5 5.5 14.5 5.5s10.833 -1.83301 14.5 -5.5zM357.498 628.5c3.66699 -3.66699 5.5 -8.5 5.5 -14.5s-1.83301 -10.833 -5.5 -14.5
s-8.5 -5.5 -14.5 -5.5s-10.833 1.83301 -14.5 5.5s-5.5 8.5 -5.5 14.5s1.83301 10.833 5.5 14.5s8.5 5.5 14.5 5.5s10.833 -1.83301 14.5 -5.5zM451.998 176c1.33301 -56.667 -14.002 -100.667 -46.002 -132s-77.333 -47 -136 -47c-59.333 0 -104.5 15.5 -135.5 46.5
s-46.167 75.167 -45.5 132.5l1 72v243h21l-2 -314c-0.666992 -52 12.833 -91.833 40.5 -119.5s67.834 -41.5 120.501 -41.5s92.834 13.833 120.501 41.5s41.5 67.5 41.5 119.5v314h20v-315z" />
    <glyph glyph-name="uni01DB" unicode="&#x1db;" horiz-adv-x="612" 
d="M526 229c2 -73.333 -16.334 -130.5 -55.001 -171.5s-93.667 -61.5 -165 -61.5s-125.833 20 -163.5 60s-56.5 97.667 -56.5 173v408h20v-408c-0.666992 -68.667 16.333 -121.334 51 -158.001s84.334 -55 149.001 -55s114.167 18.333 148.5 55s51.5 89.334 51.5 158.001
v408h20v-408zM410.999 859l-4.00098 -15.999l-5 -4c-71.333 21.333 -133.666 41.666 -186.999 60.999l-3 5l5 13l4 3c64.667 -24 128 -44.667 190 -62zM253.498 774.501c3.66699 -3.66699 5.5 -8.5 5.5 -14.5s-1.83301 -10.833 -5.5 -14.5s-8.5 -5.5 -14.5 -5.5
s-10.833 1.83301 -14.5 5.5s-5.5 8.5 -5.5 14.5s1.83301 10.833 5.5 14.5s8.5 5.5 14.5 5.5s10.833 -1.83301 14.5 -5.5zM393.498 774.501c3.66699 -3.66699 5.5 -8.5 5.5 -14.5s-1.83301 -10.833 -5.5 -14.5s-8.5 -5.5 -14.5 -5.5s-10.833 1.83301 -14.5 5.5
s-5.5 8.5 -5.5 14.5s1.83301 10.833 5.5 14.5s8.5 5.5 14.5 5.5s10.833 -1.83301 14.5 -5.5z" />
    <glyph glyph-name="uni01DC" unicode="&#x1dc;" horiz-adv-x="541" 
d="M179 744l-3.00098 5.00098l5 13l4 3c64.667 -24 128 -44.667 190 -62l-4 -16l-5 -4c-71.333 21.333 -133.666 41.666 -186.999 60.999zM188.499 599.501c-3.66699 3.66699 -5.5 8.5 -5.5 14.5s1.83301 10.833 5.5 14.5s8.5 5.5 14.5 5.5s10.833 -1.83301 14.5 -5.5
s5.5 -8.5 5.5 -14.5s-1.83301 -10.833 -5.5 -14.5s-8.5 -5.5 -14.5 -5.5s-10.833 1.83301 -14.5 5.5zM328.499 599.501c-3.66699 3.66699 -5.5 8.5 -5.5 14.5s1.83301 10.833 5.5 14.5s8.5 5.5 14.5 5.5s10.833 -1.83301 14.5 -5.5s5.5 -8.5 5.5 -14.5
s-1.83301 -10.833 -5.5 -14.5s-8.5 -5.5 -14.5 -5.5s-10.833 1.83301 -14.5 5.5zM451.999 176.001c1.33301 -56.667 -14.002 -100.667 -46.002 -132s-77.333 -47 -136 -47c-59.333 0 -104.5 15.5 -135.5 46.5s-46.167 75.167 -45.5 132.5l1 72v243h21l-2 -314
c-0.666992 -52 12.833 -91.833 40.5 -119.5s67.834 -41.5 120.501 -41.5s92.834 13.833 120.501 41.5s41.5 67.5 41.5 119.5v314h20v-315z" />
    <glyph glyph-name="Gcaron" unicode="&#x1e6;" horiz-adv-x="603" 
d="M432.5 627c31 -9.33301 61.168 -22.668 90.501 -40.001l-6 -18h-7c-58 34.667 -113.667 52 -167 52c-88 0 -155.833 -26.667 -203.5 -80s-71.5 -129.666 -71.5 -228.999c0 -95.333 20.667 -168.666 62 -219.999s100.333 -77 177 -77c31.333 0 60.166 2.16699 86.499 6.5
s60.5 12.166 102.5 23.499v201l20 2v-218c-44 -12.667 -80.5 -21.5 -109.5 -26.5s-61.833 -7.83301 -98.5 -8.5c-83.333 0 -147.5 27.5 -192.5 82.5s-67.5 133.5 -67.5 235.5c0 105.333 25.5 186.333 76.5 243s123.833 85 218.5 85c28.667 0 58.5 -4.66699 89.5 -14z
M432.001 804.998c-31.333 -22 -64.002 -47.333 -98.002 -76h-16c-44 34.667 -77.333 60 -100 76l7 14h5c30.667 -21.333 62.334 -44.666 95.001 -69.999c32.667 25.333 64.334 48.666 95.001 69.999h5z" />
    <glyph glyph-name="gcaron" unicode="&#x1e7;" horiz-adv-x="532" 
d="M394 685c-25.333 -28.667 -59 -70.667 -101 -126h-18c-42 55.333 -75.667 97.333 -101 126l9 12h5c32 -35.333 64 -74.333 96 -117c32 42.667 64 81.667 96 117h5zM375 483.5c25.333 -7 50.001 -17.166 74.001 -30.499l-6 -18h-5c-49.333 26.667 -95 40 -137 40
c-71.333 0 -126.166 -20.167 -164.499 -60.5s-57.5 -98.5 -57.5 -174.5c0 -72.667 16.667 -128.334 50 -167.001s81 -58 143 -58c25.333 0 48.666 1.5 69.999 4.5s48.666 8.83301 81.999 17.5v146l20 2v-162c-37.333 -10 -68 -16.833 -92 -20.5s-50.667 -5.5 -80 -5.5
c-68.667 0 -121.5 21 -158.5 63s-55.5 102.333 -55.5 181c0 81.333 21 143.833 63 187.5s102 65.5 180 65.5c24 0 48.667 -3.5 74 -10.5z" />
    <glyph glyph-name="uni01EA" unicode="&#x1ea;" horiz-adv-x="627" 
d="M511.5 561c45 -54 67.499 -131.333 67.499 -232c0 -107.333 -23.333 -189.833 -70 -247.5s-113.667 -86.5 -201 -86.5c-83.333 0 -147.5 27.833 -192.5 83.5s-67.5 135.167 -67.5 238.5c0 104.667 23.333 185 70 241s113.334 84 200.001 84c84 0 148.5 -27 193.5 -81z
M132.499 543c-43 -52.667 -64.499 -128 -64.499 -226c0 -96.667 20.667 -171.167 62 -223.5s100.666 -78.5 177.999 -78.5c80.667 0 142.667 27.167 186 81.5s65 131.833 65 232.5c0 94 -20.833 166.333 -62.5 217s-101.167 76 -178.5 76
c-80.667 0 -142.5 -26.333 -185.5 -79zM321 -182.5c-11.333 10.333 -16.999 24.5 -16.999 42.5c0 11.333 2.16699 22.166 6.5 32.499s13.333 25 27 44l50.5 67.5c9.33301 12 13.666 17.333 12.999 16h24l-61 -79c-16 -21.333 -26.5 -37.166 -31.5 -47.499
s-7.5 -20.5 -7.5 -30.5c0 -26.667 14.333 -40 43 -40c27.333 0 53 17.333 77 52h2l11 -16c-28 -38 -58.667 -57 -92 -57c-18.667 0 -33.667 5.16699 -45 15.5z" />
    <glyph glyph-name="uni01EB" unicode="&#x1eb;" horiz-adv-x="553" 
d="M466.5 107c-19 -39.333 -47.166 -68.333 -84.499 -87l-57.5 -74.5c-15 -20.333 -24.833 -35.5 -29.5 -45.5s-7 -20 -7 -30c0 -26.667 14.333 -40 43 -40c27.333 0 53 17.333 77 52h2l11 -16c-28 -38 -58.667 -57 -92 -57c-18.667 0 -33.667 5.16699 -45 15.5
s-17 24.5 -17 42.5c0 16 4.66699 31.667 14 47s31.666 46 66.999 92c-22 -6.66699 -47.333 -10 -76 -10c-68.667 0 -121.5 21.5 -158.5 64.5s-55.5 104.167 -55.5 183.5c0 80.667 19.167 142.667 57.5 186s93.5 65 165.5 65c68.667 0 121.5 -20.833 158.5 -62.5
s55.5 -101.167 55.5 -178.5c0 -58.667 -9.5 -107.667 -28.5 -147zM129.001 74c33.333 -39.333 81 -59.001 143 -59.001c65.333 0 115.5 20.333 150.5 61s52.5 99.334 52.5 176.001c0 72 -16.833 127.167 -50.5 165.5s-81.834 57.5 -144.501 57.5
c-65.333 0 -115.166 -19.667 -149.499 -59s-51.5 -96.333 -51.5 -171s16.667 -131.667 50 -171z" />
    <glyph glyph-name="Aringacute" unicode="&#x1fa;" horiz-adv-x="554" 
d="M210 777l-5 16c62 17.333 125.333 38 190 62l5 -3l4 -13l-2 -5c-49.333 -18 -112 -38.333 -188 -61zM526 0h-23.001l-13 43l-63 170h-302l-68 -170l-14 -43h-24l247 619c-14.667 4 -27.167 12 -37.5 24s-15.5 26.667 -15.5 44c0 20 6.5 36.5 19.5 49.5
s29.833 19.5 50.5 19.5c22 0 39.333 -7 52 -21s19 -30.333 19 -49c0 -17.333 -5.16699 -32 -15.5 -44s-23.166 -19.667 -38.499 -23zM247.499 650.5c9.66699 -9 21.5 -13.5 35.5 -13.5s26 4.33301 36 13s15 20.667 15 36c0 14 -4.5 25.833 -13.5 35.5s-21.5 14.5 -37.5 14.5
c-15.333 0 -27.5 -4.5 -36.5 -13.5s-13.5 -20.833 -13.5 -35.5c0 -15.333 4.83301 -27.5 14.5 -36.5zM283.999 603h-4l-147 -370h287z" />
    <glyph glyph-name="aringacute" unicode="&#x1fb;" horiz-adv-x="494" 
d="M176 728l-5 16c62 17.333 125.333 38 190 62l5 -3l4 -13l-2 -5c-49.333 -18 -112 -38.333 -188 -61zM198.5 687.5c13 13 29.833 19.501 50.5 19.501c22 0 39.333 -7 52 -21s19 -30.333 19 -49c0 -20.667 -7.16699 -37.334 -21.5 -50.001s-30.833 -19 -49.5 -19
s-35 6.5 -49 19.5s-21 29.833 -21 50.5c0 20 6.5 36.5 19.5 49.5zM286.5 672.501c-9 9.66699 -21.5 14.5 -37.5 14.5c-15.333 0 -27.5 -4.5 -36.5 -13.5s-13.5 -20.833 -13.5 -35.5c0 -15.333 4.83301 -27.5 14.5 -36.5s21.5 -13.5 35.5 -13.5s26 4.33301 36 13
s15 20.667 15 36c0 14 -4.5 25.833 -13.5 35.5zM452 0.000976562h-23l-10 35l-49 126h-248l-53 -126l-12 -35h-23l207 491h21zM252 461.001h-3l-119 -281h232z" />
    <glyph glyph-name="AEacute" unicode="&#x1fc;" horiz-adv-x="791" 
d="M766 16l-4 -16h-304l-5 43l-42 247l-261 -43l-117 -204l-21 -43h-27l368 637h301l3 -4l-5 -16h-275l51 -304l236 39l3 -3l-3 -17l-233 -38l46 -274h287zM408 310l-50 292h-3l-191 -332zM602 834l6.99902 -11.999l-2 -5c-44.667 -25.333 -102.667 -56.333 -174 -93l-5 3
l-7 15c60.667 29.333 119.334 60.666 176.001 93.999z" />
    <glyph glyph-name="aeacute" unicode="&#x1fd;" horiz-adv-x="688" 
d="M367 558l-11 12.999c46 38.667 94.667 84.334 146 137.001l5 -1l10 -10l-1 -5c-46 -46 -94 -91 -144 -135zM649 15.999l-3 -16h-252l-5 35l-33 186l-214 -35l-92 -151l-17 -35h-26l300 491h251l3 -4l-4 -16l-224 1l40 -229l192 30l3 -2l-2 -17l-190 -29l36 -206h235z
M352 239.999l-39 220h-3l-154 -252z" />
    <glyph glyph-name="Oslashacute" unicode="&#x1fe;" horiz-adv-x="627" 
d="M547 503.5c21.333 -47.667 32 -105.833 32 -174.5c0 -107.333 -23.333 -189.833 -70 -247.5s-113.667 -86.5 -201 -86.5c-48 0 -90 9.33301 -126 28l-51 -110l-16 3l-2 4l52 113c-38 25.333 -67 62 -87 110s-30 106 -30 174c0 104.667 23.333 185 70 241
s113.334 84 200.001 84c44 0 83 -7.66699 117 -23l42 90l16 -3l2 -5l-42 -91c41.333 -23.333 72.666 -58.833 93.999 -106.5zM95 154.501c18 -45 44.333 -79.167 79 -102.5l253 548c-30 14.667 -66.333 22 -109 22c-80.667 0 -142.5 -26.333 -185.5 -79
s-64.5 -128 -64.5 -226c0 -63.333 9 -117.5 27 -162.5zM494 96.501c43.333 54.333 65 131.833 65 232.5c0 64 -9.83301 118.167 -29.5 162.5s-48.167 77.5 -85.5 99.5l-253 -549c33.333 -18 72.333 -27 117 -27c80.667 0 142.667 27.167 186 81.5zM421 834.001
l6.99902 -11.999l-2 -5c-44.667 -25.333 -102.667 -56.333 -174 -93l-5 3l-7 15c60.667 29.333 119.334 60.666 176.001 93.999z" />
    <glyph glyph-name="oslashacute" unicode="&#x1ff;" horiz-adv-x="553" 
d="M218 558l-11 12.999c46 38.667 94.667 84.334 146 137.001l5 -1l10 -10l-1 -5c-46 -46 -94 -91 -144 -135zM468 390.499c18 -37 26.998 -82.499 26.998 -136.499c0 -82.667 -19.333 -146.334 -58 -191.001s-93.667 -67 -165 -67c-33.333 0 -62.666 5 -87.999 15l-44 -98
l-16 3l-2 4l44 99c-35.333 18 -62.166 46 -80.499 84s-27.5 85 -27.5 141c0 80.667 19.167 142.667 57.5 186s93.5 65 165.5 65c34 0 64 -5 90 -15l31 70l15 -2l2 -5l-31 -71c35.333 -17.333 62 -44.5 80 -81.5zM102.998 115.5c16 -35 39.666 -61.167 70.999 -78.5l188 424
c-24.667 9.33301 -52 14 -82 14c-65.333 0 -115.166 -19.667 -149.499 -59s-51.5 -96.333 -51.5 -171c0 -51.333 8 -94.5 24 -129.5zM422.497 76c35 40.667 52.499 99.333 52.499 176c0 50 -8.16699 92 -24.5 126s-40.166 59 -71.499 75l-188 -424
c24.667 -9.33301 51.667 -14 81 -14c65.333 0 115.5 20.333 150.5 61z" />
    <glyph glyph-name="uni0200" unicode="&#x200;" horiz-adv-x="554" 
d="M526 0h-23l-13 43l-63 170h-302l-68 -170l-14 -43h-24l254 637h20zM284 603h-4l-147 -370h287zM226 721l-5.00098 -1c-51.333 46.667 -88.666 81.667 -111.999 105l-1 5l10 10l5 1c9.33301 -9.33301 39 -37.333 89 -84l25 -23zM355.999 721l-5.00098 -1
c-51.333 46.667 -88.666 81.667 -111.999 105l-1 5l10 10l5 1c9.33301 -9.33301 39 -37.333 89 -84l25 -23z" />
    <glyph glyph-name="uni0201" unicode="&#x201;" horiz-adv-x="494" 
d="M86 690l-1.00098 5.00098l10 10l5 1c46.667 -46.667 95.334 -92.334 146.001 -137.001l-11 -13l-5 -1zM215.999 690.001l-1.00098 5.00098l10 10l5 1c46.667 -46.667 95.334 -92.334 146.001 -137.001l-11 -13l-5 -1zM451.998 0.00195312h-23l-10 35l-49 126h-248
l-53 -126l-12 -35h-23l207 491h21zM251.998 461.002h-3l-119 -281h232z" />
    <glyph glyph-name="uni0202" unicode="&#x202;" horiz-adv-x="554" 
d="M526 0h-23l-13 43l-63 170h-302l-68 -170l-14 -43h-24l254 637h20zM284 603h-4l-147 -370h287zM176 730c6.66699 36 18.167 62.5 34.5 79.5s38.5 25.5 66.5 25.5s50.167 -8.5 66.5 -25.5s27.833 -43.5 34.5 -79.5l-13 -13h-5c-4.66699 33.333 -13.667 58 -27 74
s-32 24 -56 24s-42.667 -8 -56 -24s-22.333 -40.667 -27 -74h-5z" />
    <glyph glyph-name="uni0203" unicode="&#x203;" horiz-adv-x="494" 
d="M163 571l-13 13c6.66699 36 18.167 62.5 34.5 79.5s38.5 25.5 66.5 25.5s50.167 -8.5 66.5 -25.5s27.833 -43.5 34.5 -79.5l-13 -13h-5c-4.66699 33.333 -13.667 58 -27 74s-32 24 -56 24s-42.667 -8 -56 -24s-22.333 -40.667 -27 -74h-5zM452 0h-23l-10 35l-49 126h-248
l-53 -126l-12 -35h-23l207 491h21zM252 461h-3l-119 -281h232z" />
    <glyph glyph-name="uni0204" unicode="&#x204;" horiz-adv-x="454" 
d="M425 16l-4 -16h-311v637h308l3 -4l-4 -16h-287v-277h238l3 -4l-4 -16h-237v-300h292zM215 721l-5.00098 -1c-51.333 46.667 -88.666 81.667 -111.999 105l-1 5l10 10l5 1c9.33301 -9.33301 39 -37.333 89 -84l25 -23zM344.999 721l-5.00098 -1
c-51.333 46.667 -88.666 81.667 -111.999 105l-1 5l10 10l5 1c9.33301 -9.33301 39 -37.333 89 -84l25 -23z" />
    <glyph glyph-name="uni0205" unicode="&#x205;" horiz-adv-x="412" 
d="M216 555l-144 135l-1 5l10 10l5 1c46 -46 94.667 -91.667 146 -137l-11 -13zM202 690l-1.00098 5.00098l10 10l5 1c46.667 -46.667 95.334 -92.334 146.001 -137.001l-11 -13l-5 -1c-49.333 44 -97.333 89 -144 135zM369.999 16.001l-4 -16h-258v491h256l3 -4l-4 -16
l-235 1v-208h195l2 -4l-3 -16h-194v-225h239z" />
    <glyph glyph-name="uni0206" unicode="&#x206;" horiz-adv-x="454" 
d="M425 16l-4 -16h-311v637h308l3 -4l-4 -16h-287v-277h238l3 -4l-4 -16h-237v-300h292zM165 730c6.66699 36 18.167 62.5 34.5 79.5s38.5 25.5 66.5 25.5s50.167 -8.5 66.5 -25.5s27.833 -43.5 34.5 -79.5l-13 -13h-5c-4.66699 33.333 -13.667 58 -27 74s-32 24 -56 24
s-42.667 -8 -56 -24s-22.333 -40.667 -27 -74h-5z" />
    <glyph glyph-name="uni0207" unicode="&#x207;" horiz-adv-x="412" 
d="M149 571l-13 13c6.66699 36 18.167 62.5 34.5 79.5s38.5 25.5 66.5 25.5s50.167 -8.5 66.5 -25.5s27.833 -43.5 34.5 -79.5l-13 -13h-5c-4.66699 33.333 -13.667 58 -27 74s-32 24 -56 24s-42.667 -8 -56 -24s-22.333 -40.667 -27 -74h-5zM370 16l-4 -16h-258v491h256
l3 -4l-4 -16l-235 1v-208h195l2 -4l-3 -16h-194v-225h239z" />
    <glyph glyph-name="uni0208" unicode="&#x208;" horiz-adv-x="240" 
d="M130 0h-20v637h20v-637zM69 721l-5.00098 -1c-51.333 46.667 -88.666 81.667 -111.999 105l-1 5l10 10l5 1c9.33301 -9.33301 39 -37.333 89 -84l25 -23zM198.999 721l-5.00098 -1c-51.333 46.667 -88.666 81.667 -111.999 105l-1 5l10 10l5 1
c9.33301 -9.33301 39 -37.333 89 -84l25 -23z" />
    <glyph glyph-name="uni0209" unicode="&#x209;" horiz-adv-x="237" 
d="M-31 706l-5 -1.00098l-10 -10l1 -5l144 -135l5 1l11 13c-51.333 44.667 -100 90.334 -146 137.001zM99 705.999l-4.99902 -1.00098l-10 -10l1 -5l144 -135l5 1l11 13c-50.667 44.667 -99.334 90.334 -146.001 137.001zM128.001 -0.00195312h-20v491h20v-491z" />
    <glyph glyph-name="uni020A" unicode="&#x20a;" horiz-adv-x="240" 
d="M130 0h-20v637h20v-637zM19 730c6.66699 36 18.167 62.5 34.5 79.5s38.5 25.5 66.5 25.5s50.167 -8.5 66.5 -25.5s27.833 -43.5 34.5 -79.5l-13 -13h-5c-4.66699 33.333 -13.667 58 -27 74s-32 24 -56 24s-42.667 -8 -56 -24s-22.333 -40.667 -27 -74h-5z" />
    <glyph glyph-name="uni020B" unicode="&#x20b;" horiz-adv-x="237" 
d="M19 584c6.66699 36 18.167 62.5 34.5 79.5s38.5 25.5 66.5 25.5s50.167 -8.5 66.5 -25.5s27.833 -43.5 34.5 -79.5l-13 -13h-5c-4.66699 33.333 -13.667 58 -27 74s-32 24 -56 24s-42.667 -8 -56 -24s-22.333 -40.667 -27 -74h-5zM128 0h-20v491h20v-491z" />
    <glyph glyph-name="uni020C" unicode="&#x20c;" horiz-adv-x="627" 
d="M511.5 561c45 -54 67.499 -131.333 67.499 -232c0 -107.333 -23.333 -189.833 -70 -247.5s-113.667 -86.5 -201 -86.5c-83.333 0 -147.5 27.833 -192.5 83.5s-67.5 135.167 -67.5 238.5c0 104.667 23.333 185 70 241s113.334 84 200.001 84c84 0 148.5 -27 193.5 -81z
M132.499 543c-43 -52.667 -64.499 -128 -64.499 -226c0 -96.667 20.667 -171.167 62 -223.5s100.666 -78.5 177.999 -78.5c80.667 0 142.667 27.167 186 81.5s65 131.833 65 232.5c0 94 -20.833 166.333 -62.5 217s-101.167 76 -178.5 76
c-80.667 0 -142.5 -26.333 -185.5 -79zM263 721l-5.00098 -1c-51.333 46.667 -88.666 81.667 -111.999 105l-1 5l10 10l5 1c9.33301 -9.33301 39 -37.333 89 -84l25 -23zM392.999 721l-5.00098 -1c-51.333 46.667 -88.666 81.667 -111.999 105l-1 5l10 10l5 1
c9.33301 -9.33301 39 -37.333 89 -84l25 -23z" />
    <glyph glyph-name="uni020D" unicode="&#x20d;" horiz-adv-x="553" 
d="M127 706l-4.99902 -1.00098l-10 -10l1 -5l144 -135l5 1l11 13c-50.667 44.667 -99.334 90.334 -146.001 137.001zM257.001 705.999l-4.99902 -1.00098l-10 -10l1 -5l144 -135l5 1l11 13c-50.667 44.667 -99.334 90.334 -146.001 137.001zM439.502 432.498
c37 -41.667 55.5 -101.166 55.5 -178.499c0 -82.667 -19.333 -146.334 -58 -191.001s-93.667 -67 -165 -67c-68.667 0 -121.5 21.5 -158.5 64.5s-55.5 104.167 -55.5 183.5c0 80.667 19.167 142.667 57.5 186s93.5 65 165.5 65c68.667 0 121.5 -20.833 158.5 -62.5z
M130.502 415.999c-34.333 -39.333 -51.5 -96.334 -51.5 -171.001s16.667 -131.667 50 -171s81 -59 143 -59c65.333 0 115.5 20.333 150.5 61s52.5 99.334 52.5 176.001c0 72 -16.833 127.167 -50.5 165.5s-81.834 57.5 -144.501 57.5
c-65.333 0 -115.166 -19.667 -149.499 -59z" />
    <glyph glyph-name="uni020E" unicode="&#x20e;" horiz-adv-x="627" 
d="M511.5 561c45 -54 67.499 -131.333 67.499 -232c0 -107.333 -23.333 -189.833 -70 -247.5s-113.667 -86.5 -201 -86.5c-83.333 0 -147.5 27.833 -192.5 83.5s-67.5 135.167 -67.5 238.5c0 104.667 23.333 185 70 241s113.334 84 200.001 84c84 0 148.5 -27 193.5 -81z
M132.499 543c-43 -52.667 -64.499 -128 -64.499 -226c0 -96.667 20.667 -171.167 62 -223.5s100.666 -78.5 177.999 -78.5c80.667 0 142.667 27.167 186 81.5s65 131.833 65 232.5c0 94 -20.833 166.333 -62.5 217s-101.167 76 -178.5 76
c-80.667 0 -142.5 -26.333 -185.5 -79zM213 730c6.66699 36 18.167 62.5 34.5 79.5s38.5 25.5 66.5 25.5s50.167 -8.5 66.5 -25.5s27.833 -43.5 34.5 -79.5l-13 -13h-5c-4.66699 33.333 -13.667 58 -27 74s-32 24 -56 24s-42.667 -8 -56 -24s-22.333 -40.667 -27 -74h-5z
" />
    <glyph glyph-name="uni020F" unicode="&#x20f;" horiz-adv-x="553" 
d="M177 584c6.66699 36 18.167 62.5 34.5 79.5s38.5 25.5 66.5 25.5s50.167 -8.5 66.5 -25.5s27.833 -43.5 34.5 -79.5l-13 -13h-5c-4.66699 33.333 -13.667 58 -27 74s-32 24 -56 24s-42.667 -8 -56 -24s-22.333 -40.667 -27 -74h-5zM439.5 432.5
c37 -41.667 55.5 -101.166 55.5 -178.499c0 -82.667 -19.333 -146.334 -58 -191.001s-93.667 -67 -165 -67c-68.667 0 -121.5 21.5 -158.5 64.5s-55.5 104.167 -55.5 183.5c0 80.667 19.167 142.667 57.5 186s93.5 65 165.5 65c68.667 0 121.5 -20.833 158.5 -62.5z
M130.5 416.001c-34.333 -39.333 -51.5 -96.334 -51.5 -171.001s16.667 -131.667 50 -171s81 -59 143 -59c65.333 0 115.5 20.333 150.5 61s52.5 99.334 52.5 176.001c0 72 -16.833 127.167 -50.5 165.5s-81.834 57.5 -144.501 57.5c-65.333 0 -115.166 -19.667 -149.499 -59
z" />
    <glyph glyph-name="uni0210" unicode="&#x210;" horiz-adv-x="518" 
d="M466 5l-0.00195312 -3.99902c-3.33301 -3.33301 -7.33301 -6 -12 -8l-6 2c-71.333 93.333 -132.666 182.666 -183.999 267.999h-134v-263h-20v637l141 2c58 0 102.667 -15 134 -45s47 -73.333 47 -130c0 -49.333 -12.667 -90.833 -38 -124.5
s-61.666 -57.834 -108.999 -72.501c52 -85.333 112.333 -172.666 181 -261.999zM129.998 283.001l142 0.000976562c44.667 11.333 79.167 32.666 103.5 63.999s36.5 70.333 36.5 117c0 49.333 -13.333 87.333 -40 114s-64.667 40 -114 40h-128v-335zM207.998 721.002
l-5.00098 -1c-51.333 46.667 -88.666 81.667 -111.999 105l-1 5l10 10l5 1c9.33301 -9.33301 39 -37.333 89 -84l25 -23zM337.997 721.002l-5.00098 -1c-51.333 46.667 -88.666 81.667 -111.999 105l-1 5l10 10l5 1c9.33301 -9.33301 39 -37.333 89 -84l25 -23z" />
    <glyph glyph-name="uni0211" unicode="&#x211;" horiz-adv-x="466" 
d="M193 555l-144.001 135.001l-1 5l10 10l5 1c46.667 -46.667 95.334 -92.334 146.001 -137.001l-11 -13zM178.999 690.001l-1 5.00098l10 10l5 1c46 -46.667 94.667 -92.334 146 -137.001l-11 -13l-5 -1zM404.999 5.00195v-4.00293l-14 -7l-6 3
c-56.667 70 -106 138 -148 204h-109v-201h-20v491l119 1c48 0 85 -11.667 111 -35s39 -56.666 39 -99.999c0 -37.333 -10.333 -69.166 -31 -95.499s-50 -45.166 -88 -56.499c42 -66 91 -132.667 147 -200zM127.999 219.999l115 -1.00098
c36.667 8.66699 64.667 24.834 84 48.501s29 53.167 29 88.5c0 36.667 -10.667 65 -32 85s-52.333 31 -93 33l-103 -1v-253z" />
    <glyph glyph-name="uni0212" unicode="&#x212;" horiz-adv-x="518" 
d="M466 5l-0.00195312 -3.99902c-3.33301 -3.33301 -7.33301 -6 -12 -8l-6 2c-71.333 93.333 -132.666 182.666 -183.999 267.999h-134v-263h-20v637l141 2c58 0 102.667 -15 134 -45s47 -73.333 47 -130c0 -49.333 -12.667 -90.833 -38 -124.5
s-61.666 -57.834 -108.999 -72.501c52 -85.333 112.333 -172.666 181 -261.999zM129.998 283.001l142 0.000976562c44.667 11.333 79.167 32.666 103.5 63.999s36.5 70.333 36.5 117c0 49.333 -13.333 87.333 -40 114s-64.667 40 -114 40h-128v-335zM157.998 730.002
c6.66699 36 18.167 62.5 34.5 79.5s38.5 25.5 66.5 25.5s50.167 -8.5 66.5 -25.5s27.833 -43.5 34.5 -79.5l-13 -13h-5c-4.66699 33.333 -13.667 58 -27 74s-32 24 -56 24s-42.667 -8 -56 -24s-22.333 -40.667 -27 -74h-5z" />
    <glyph glyph-name="uni0213" unicode="&#x213;" horiz-adv-x="466" 
d="M126 571l-13 13c6.66699 36 18.167 62.5 34.5 79.5s38.5 25.5 66.5 25.5s50.167 -8.5 66.5 -25.5s27.833 -43.5 34.5 -79.5l-13 -13h-5c-4.66699 33.333 -13.667 58 -27 74s-32 24 -56 24s-42.667 -8 -56 -24s-22.333 -40.667 -27 -74h-5zM405 5v-4.00293l-14 -7l-6 3
c-56.667 70 -106 138 -148 204h-109v-201h-20v491l119 1c48 0 85 -11.667 111 -35s39 -56.666 39 -99.999c0 -37.333 -10.333 -69.166 -31 -95.499s-50 -45.166 -88 -56.499c42 -66 91 -132.667 147 -200zM128 219.997l115 -1.00098c36.667 8.66699 64.667 24.834 84 48.501
s29 53.167 29 88.5c0 36.667 -10.667 65 -32 85s-52.333 31 -93 33l-103 -1v-253z" />
    <glyph glyph-name="uni0214" unicode="&#x214;" horiz-adv-x="612" 
d="M526 229c2 -73.333 -16.334 -130.5 -55.001 -171.5s-93.667 -61.5 -165 -61.5s-125.833 20 -163.5 60s-56.5 97.667 -56.5 173v408h20v-408c-0.666992 -68.667 16.333 -121.334 51 -158.001s84.334 -55 149.001 -55s114.167 18.333 148.5 55s51.5 89.334 51.5 158.001
v408h20v-408zM258.999 721l-5.00098 -1c-51.333 46.667 -88.666 81.667 -111.999 105l-1 5l10 10l5 1c9.33301 -9.33301 39 -37.333 89 -84l25 -23zM388.998 721l-5.00098 -1c-51.333 46.667 -88.666 81.667 -111.999 105l-1 5l10 10l5 1
c9.33301 -9.33301 39 -37.333 89 -84l25 -23z" />
    <glyph glyph-name="uni0215" unicode="&#x215;" horiz-adv-x="541" 
d="M123 706l-5 -1.00098l-10 -10l1 -5l144 -135l5 1l11 13c-51.333 44.667 -100 90.334 -146 137.001zM253 705.999l-4.99902 -1.00098l-10 -10l1 -5l144 -135l5 1l11 13c-50.667 44.667 -99.334 90.334 -146.001 137.001zM452.001 175.998
c1.33301 -56.667 -14.002 -100.667 -46.002 -132s-77.333 -47 -136 -47c-59.333 0 -104.5 15.5 -135.5 46.5s-46.167 75.167 -45.5 132.5l1 72v243h21l-2 -314c-0.666992 -52 12.833 -91.833 40.5 -119.5s67.834 -41.5 120.501 -41.5s92.834 13.833 120.501 41.5
s41.5 67.5 41.5 119.5v314h20v-315z" />
    <glyph glyph-name="uni0216" unicode="&#x216;" horiz-adv-x="612" 
d="M526 229c2 -73.333 -16.334 -130.5 -55.001 -171.5s-93.667 -61.5 -165 -61.5s-125.833 20 -163.5 60s-56.5 97.667 -56.5 173v408h20v-408c-0.666992 -68.667 16.333 -121.334 51 -158.001s84.334 -55 149.001 -55s114.167 18.333 148.5 55s51.5 89.334 51.5 158.001
v408h20v-408zM208.999 730c6.66699 36 18.167 62.5 34.5 79.5s38.5 25.5 66.5 25.5s50.167 -8.5 66.5 -25.5s27.833 -43.5 34.5 -79.5l-13 -13h-5c-4.66699 33.333 -13.667 58 -27 74s-32 24 -56 24s-42.667 -8 -56 -24s-22.333 -40.667 -27 -74h-5z" />
    <glyph glyph-name="uni0217" unicode="&#x217;" horiz-adv-x="541" 
d="M173 584c6.66699 36 18.167 62.5 34.5 79.5s38.5 25.5 66.5 25.5s50.167 -8.5 66.5 -25.5s27.833 -43.5 34.5 -79.5l-13 -13h-5c-4.66699 33.333 -13.667 58 -27 74s-32 24 -56 24s-42.667 -8 -56 -24s-22.333 -40.667 -27 -74h-5zM452 176
c1.33301 -56.667 -14.002 -100.667 -46.002 -132s-77.333 -47 -136 -47c-59.333 0 -104.5 15.5 -135.5 46.5s-46.167 75.167 -45.5 132.5l1 72v243h21l-2 -314c-0.666992 -52 12.833 -91.833 40.5 -119.5s67.834 -41.5 120.501 -41.5s92.834 13.833 120.501 41.5
s41.5 67.5 41.5 119.5v314h20v-315z" />
    <glyph glyph-name="Scommaaccent" unicode="&#x218;" horiz-adv-x="445" 
d="M368 611l-4.00391 -17.998l-7 -1c-18.667 9.33301 -38 16.333 -58 21s-38.333 7 -55 7c-32 0 -60 -6.83301 -84 -20.5s-42.333 -31.334 -55 -53.001s-19 -43.834 -19 -66.501c0 -23.333 6.33301 -43.5 19 -60.5s28.167 -31 46.5 -42s43.833 -24.5 76.5 -40.5
c36 -18 64.5 -33.667 85.5 -47s39 -30.5 54 -51.5s22.5 -46.5 22.5 -76.5c0 -29.333 -8 -56.833 -24 -82.5s-38.167 -46 -66.5 -61s-60.166 -22.5 -95.499 -22.5c-26 0 -52.667 4 -80 12s-51.333 19.667 -72 35l1 19l5 2c20 -16 43 -28 69 -36s51.333 -12 76 -12
c32.667 0 61.834 7 87.501 21s45.334 32.167 59.001 54.5s20.5 45.833 20.5 70.5c0 25.333 -6.66699 47 -20 65s-29.5 33 -48.5 45s-45.167 26 -78.5 42c-35.333 17.333 -63.166 32.5 -83.499 45.5s-37.666 29.667 -51.999 50s-21.5 44.833 -21.5 73.5s7.66699 55 23 79
s36.666 43 63.999 57s58.333 21 93 21c40 0 80.667 -9.66699 122 -29zM251.996 -117.998c0 -13.333 -5.66602 -28.001 -16.999 -44.001s-27.666 -32.333 -48.999 -49l-10 11l1 3c17.333 12.667 30.666 25.834 39.999 39.501s14 26.5 14 38.5c0 13.333 -10 24.666 -30 33.999
v4c3.33301 4.66699 7.66602 8.33398 12.999 11.001c25.333 -11.333 38 -27.333 38 -48z" />
    <glyph glyph-name="scommaaccent" unicode="&#x219;" horiz-adv-x="404" 
d="M324 471l-4.00488 -18.002l-6 -1c-30 14.667 -61.333 22 -94 22c-26 0 -48.667 -5.16699 -68 -15.5s-34 -23.666 -44 -39.999s-15 -32.833 -15 -49.5c0 -17.333 5.16699 -32.333 15.5 -45s22.833 -23.334 37.5 -32.001s35.334 -19 62.001 -31
c28.667 -12.667 51.834 -24.334 69.501 -35.001s32.667 -24.167 45 -40.5s18.5 -36.166 18.5 -59.499c0 -22.667 -6.5 -44 -19.5 -64s-31.333 -35.833 -55 -47.5s-50.167 -17.5 -79.5 -17.5c-21.333 0 -43.333 3.16699 -66 9.5s-42.667 15.166 -60 26.499l1 19l5 1
c16.667 -12 35.834 -21.167 57.501 -27.5s42.5 -9.5 62.5 -9.5c26.667 0 50.167 5.16699 70.5 15.5s36 23.833 47 40.5s16.5 34.334 16.5 53.001s-5.33301 34.834 -16 48.501s-23.667 25 -39 34s-36.666 19.833 -63.999 32.5c-28.667 13.333 -51.334 25 -68.001 35
s-31 22.833 -43 38.5s-18 34.834 -18 57.501c0 22 6.33301 42.333 19 61s30.334 33.5 53.001 44.5s48.334 16.5 77.001 16.5c34.667 0 68.667 -7.33301 102 -22zM225.995 -118.002c0 -13.333 -5.66602 -28.001 -16.999 -44.001s-27.666 -32.333 -48.999 -49l-10 11l1 3
c17.333 12.667 30.666 25.834 39.999 39.501s14 26.5 14 38.5c0 13.333 -10 24.666 -30 33.999v4c3.33301 4.66699 7.66602 8.33398 12.999 11.001c25.333 -11.333 38 -27.333 38 -48z" />
    <glyph glyph-name="uni021A" unicode="&#x21a;" horiz-adv-x="475" 
d="M447 633l-4 -16h-195v-617h-20v617h-197l-3 4l4 16h412zM268 -118c0 -13.333 -5.66602 -28.001 -16.999 -44.001s-27.666 -32.333 -48.999 -49l-10 11l1 3c17.333 12.667 30.666 25.834 39.999 39.501s14 26.5 14 38.5c0 13.333 -10 24.666 -30 33.999v4
c3.33301 4.66699 7.66602 8.33398 12.999 11.001c25.333 -11.333 38 -27.333 38 -48z" />
    <glyph glyph-name="uni021B" unicode="&#x21b;" horiz-adv-x="428" 
d="M387 487l-3 -16l-83 1h-76v-472h-20v472h-74l-86 -1l-3 4l3 16h340zM252 -118c0 -13.333 -5.66602 -28.001 -16.999 -44.001s-27.666 -32.333 -48.999 -49l-10 11l1 3c17.333 12.667 30.666 25.834 39.999 39.501s14 26.5 14 38.5c0 13.333 -10 24.666 -30 33.999v4
c3.33301 4.66699 7.66602 8.33398 12.999 11.001c25.333 -11.333 38 -27.333 38 -48z" />
    <glyph glyph-name="uni022A" unicode="&#x22a;" horiz-adv-x="627" 
d="M511.5 561c45 -54 67.499 -131.333 67.499 -232c0 -107.333 -23.333 -189.833 -70 -247.5s-113.667 -86.5 -201 -86.5c-83.333 0 -147.5 27.833 -192.5 83.5s-67.5 135.167 -67.5 238.5c0 104.667 23.333 185 70 241s113.334 84 200.001 84c84 0 148.5 -27 193.5 -81z
M132.499 543c-43 -52.667 -64.499 -128 -64.499 -226c0 -96.667 20.667 -171.167 62 -223.5s100.666 -78.5 177.999 -78.5c80.667 0 142.667 27.167 186 81.5s65 131.833 65 232.5c0 94 -20.833 166.333 -62.5 217s-101.167 76 -178.5 76
c-80.667 0 -142.5 -26.333 -185.5 -79zM418 873l-2 -17h-200l-3 3l2 17h200zM257.5 774.5c3.66699 -3.66699 5.5 -8.5 5.5 -14.5s-1.83301 -10.833 -5.5 -14.5s-8.5 -5.5 -14.5 -5.5s-10.833 1.83301 -14.5 5.5s-5.5 8.5 -5.5 14.5s1.83301 10.833 5.5 14.5
s8.5 5.5 14.5 5.5s10.833 -1.83301 14.5 -5.5zM397.5 774.5c3.66699 -3.66699 5.5 -8.5 5.5 -14.5s-1.83301 -10.833 -5.5 -14.5s-8.5 -5.5 -14.5 -5.5s-10.833 1.83301 -14.5 5.5s-5.5 8.5 -5.5 14.5s1.83301 10.833 5.5 14.5s8.5 5.5 14.5 5.5s10.833 -1.83301 14.5 -5.5z
" />
    <glyph glyph-name="uni022B" unicode="&#x22b;" horiz-adv-x="553" 
d="M382 727l-2 -17h-200l-3 3l2 17h200zM221.5 628.5c3.66699 -3.66699 5.5 -8.5 5.5 -14.5s-1.83301 -10.833 -5.5 -14.5s-8.5 -5.5 -14.5 -5.5s-10.833 1.83301 -14.5 5.5s-5.5 8.5 -5.5 14.5s1.83301 10.833 5.5 14.5s8.5 5.5 14.5 5.5s10.833 -1.83301 14.5 -5.5z
M361.5 628.5c3.66699 -3.66699 5.5 -8.5 5.5 -14.5s-1.83301 -10.833 -5.5 -14.5s-8.5 -5.5 -14.5 -5.5s-10.833 1.83301 -14.5 5.5s-5.5 8.5 -5.5 14.5s1.83301 10.833 5.5 14.5s8.5 5.5 14.5 5.5s10.833 -1.83301 14.5 -5.5zM439.5 432.5
c37 -41.667 55.5 -101.166 55.5 -178.499c0 -82.667 -19.333 -146.334 -58 -191.001s-93.667 -67 -165 -67c-68.667 0 -121.5 21.5 -158.5 64.5s-55.5 104.167 -55.5 183.5c0 80.667 19.167 142.667 57.5 186s93.5 65 165.5 65c68.667 0 121.5 -20.833 158.5 -62.5z
M130.5 416.001c-34.333 -39.333 -51.5 -96.334 -51.5 -171.001s16.667 -131.667 50 -171s81 -59 143 -59c65.333 0 115.5 20.333 150.5 61s52.5 99.334 52.5 176.001c0 72 -16.833 127.167 -50.5 165.5s-81.834 57.5 -144.501 57.5c-65.333 0 -115.166 -19.667 -149.499 -59
z" />
    <glyph glyph-name="uni022C" unicode="&#x22c;" horiz-adv-x="627" 
d="M511.5 561c45 -54 67.499 -131.333 67.499 -232c0 -107.333 -23.333 -189.833 -70 -247.5s-113.667 -86.5 -201 -86.5c-83.333 0 -147.5 27.833 -192.5 83.5s-67.5 135.167 -67.5 238.5c0 104.667 23.333 185 70 241s113.334 84 200.001 84c84 0 148.5 -27 193.5 -81z
M132.499 543c-43 -52.667 -64.499 -128 -64.499 -226c0 -96.667 20.667 -171.167 62 -223.5s100.666 -78.5 177.999 -78.5c80.667 0 142.667 27.167 186 81.5s65 131.833 65 232.5c0 94 -20.833 166.333 -62.5 217s-101.167 76 -178.5 76
c-80.667 0 -142.5 -26.333 -185.5 -79zM438 782l-0.000976562 -3.99902l-47 -47l-6 -2c-10.667 1.33301 -34.667 8 -72 20c-36 12 -57.667 18 -65 18c-3.33301 0 -7.66602 -2.33301 -12.999 -7s-11 -10.334 -17 -17.001l-16 -16h-3l-9 11v4l47 47l6 2
c10.667 -1.33301 34.667 -8 72 -20c36 -12 57.667 -18 65 -18c3.33301 0 7.33301 2 12 6s9.66699 9 15 15l19 19h3zM419.999 881.001l-2 -17h-207l-3 3l2 17h207z" />
    <glyph glyph-name="uni022D" unicode="&#x22d;" horiz-adv-x="553" 
d="M384 735l-2 -17h-207l-3 3l2 17h207zM402 636l-0.000976562 -3.99902l-47 -47l-6 -2c-10.667 1.33301 -34.667 8 -72 20c-36 12 -57.667 18 -65 18c-3.33301 0 -7.66602 -2.33301 -12.999 -7s-11 -10.334 -17 -17.001l-16 -16h-3l-9 11v4l47 47l6 2
c10.667 -1.33301 34.667 -8 72 -20c36 -12 57.667 -18 65 -18c3.33301 0 7.33301 2 12 6s9.66699 9 15 15l19 19h3zM439.499 432.501c37 -41.667 55.5 -101.166 55.5 -178.499c0 -82.667 -19.333 -146.334 -58 -191.001s-93.667 -67 -165 -67
c-68.667 0 -121.5 21.5 -158.5 64.5s-55.5 104.167 -55.5 183.5c0 80.667 19.167 142.667 57.5 186s93.5 65 165.5 65c68.667 0 121.5 -20.833 158.5 -62.5zM130.499 416.002c-34.333 -39.333 -51.5 -96.334 -51.5 -171.001s16.667 -131.667 50 -171s81 -59 143 -59
c65.333 0 115.5 20.333 150.5 61s52.5 99.334 52.5 176.001c0 72 -16.833 127.167 -50.5 165.5s-81.834 57.5 -144.501 57.5c-65.333 0 -115.166 -19.667 -149.499 -59z" />
    <glyph glyph-name="uni0230" unicode="&#x230;" horiz-adv-x="627" 
d="M511.5 561c45 -54 67.499 -131.333 67.499 -232c0 -107.333 -23.333 -189.833 -70 -247.5s-113.667 -86.5 -201 -86.5c-83.333 0 -147.5 27.833 -192.5 83.5s-67.5 135.167 -67.5 238.5c0 104.667 23.333 185 70 241s113.334 84 200.001 84c84 0 148.5 -27 193.5 -81z
M132.499 543c-43 -52.667 -64.499 -128 -64.499 -226c0 -96.667 20.667 -171.167 62 -223.5s100.666 -78.5 177.999 -78.5c80.667 0 142.667 27.167 186 81.5s65 131.833 65 232.5c0 94 -20.833 166.333 -62.5 217s-101.167 76 -178.5 76
c-80.667 0 -142.5 -26.333 -185.5 -79zM328.5 774.5c3.66699 -3.66699 5.5 -8.5 5.5 -14.5s-1.83301 -10.833 -5.5 -14.5s-8.5 -5.5 -14.5 -5.5s-10.833 1.83301 -14.5 5.5s-5.5 8.5 -5.5 14.5s1.83301 10.833 5.5 14.5s8.5 5.5 14.5 5.5s10.833 -1.83301 14.5 -5.5z
M420 852l-2 -17h-207l-3 3l2 17h207z" />
    <glyph glyph-name="uni0231" unicode="&#x231;" horiz-adv-x="553" 
d="M384 706l-2 -17h-207l-3 3l2 17h207zM292.5 628.5c3.66699 -3.66699 5.5 -8.5 5.5 -14.5s-1.83301 -10.833 -5.5 -14.5s-8.5 -5.5 -14.5 -5.5s-10.833 1.83301 -14.5 5.5s-5.5 8.5 -5.5 14.5s1.83301 10.833 5.5 14.5s8.5 5.5 14.5 5.5s10.833 -1.83301 14.5 -5.5z
M439.5 432.5c37 -41.667 55.5 -101.166 55.5 -178.499c0 -82.667 -19.333 -146.334 -58 -191.001s-93.667 -67 -165 -67c-68.667 0 -121.5 21.5 -158.5 64.5s-55.5 104.167 -55.5 183.5c0 80.667 19.167 142.667 57.5 186s93.5 65 165.5 65
c68.667 0 121.5 -20.833 158.5 -62.5zM130.5 416.001c-34.333 -39.333 -51.5 -96.334 -51.5 -171.001s16.667 -131.667 50 -171s81 -59 143 -59c65.333 0 115.5 20.333 150.5 61s52.5 99.334 52.5 176.001c0 72 -16.833 127.167 -50.5 165.5s-81.834 57.5 -144.501 57.5
c-65.333 0 -115.166 -19.667 -149.499 -59z" />
    <glyph glyph-name="uni0232" unicode="&#x232;" horiz-adv-x="495" 
d="M248 245v-245h-20v246l-202 391h26l11 -26l173 -334h5l188 334l11 26h26zM385 789l-2 -17h-287l-3 3l2 17h287z" />
    <glyph glyph-name="uni0233" unicode="&#x233;" horiz-adv-x="447" 
d="M83 626l-3 3l2 17h287l3 -3l-2 -17h-287zM226 186v-186h-20v187l-166 304h25l9 -21l140 -253h4l152 253l10 21h25z" />
    <glyph glyph-name="uni0237" unicode="&#x237;" horiz-adv-x="261" 
d="M153 89c0 -36.667 -7 -67.5 -21 -92.5s-38 -49.167 -72 -72.5l-12 11v5c30.667 20.667 52.5 42.5 65.5 65.5s19.5 50.5 19.5 82.5v384h-102l-3 3l3 16h122v-402z" />
    </font>
</defs>
</svg>
