<?xml version="1.0" standalone="no"?>
<!DOCTYPE svg PUBLIC "-//W3C//DTD SVG 1.1//EN" "http://www.w3.org/Graphics/SVG/1.1/DTD/svg11.dtd" >
<svg>
<metadata>
Created by FontForge 20090914 at Thu Nov 12 13:27:18 2020
 By www-data
Copyright 2013 The Alegreya Sans Project Authors (https://github.com/huertatipografica/Alegreya-Sans)
</metadata>
<defs>
<font id="AlegreyaSansSC-ThinItalic" horiz-adv-x="0" >
  <font-face 
    font-family="Alegreya Sans SC Thin"
    font-weight="250"
    font-style="italic"
    font-stretch="normal"
    units-per-em="1000"
    panose-1="0 0 3 0 0 0 0 0 0 0"
    ascent="800"
    descent="-200"
    x-height="491"
    cap-height="637"
    bbox="-363 -265 1184 955.999"
    underline-thickness="20"
    underline-position="-170"
    slope="-7"
    unicode-range="U+000D-U+FB02"
  />
<missing-glyph horiz-adv-x="180" 
 />
    <glyph glyph-name="Idieresis" unicode="&#xa8;I" horiz-adv-x="235" 
d="M125 195l-25 -195h-20l25 195l55 442h20zM149.5 795.5c3.66699 -3.66699 5.5 -8.5 5.5 -14.5s-1.83301 -10.833 -5.5 -14.5s-8.5 -5.5 -14.5 -5.5s-10.833 1.83301 -14.5 5.5s-5.5 8.5 -5.5 14.5s1.83301 10.833 5.5 14.5s8.5 5.5 14.5 5.5s10.833 -1.83301 14.5 -5.5z
M251.5 795.5c3.66699 -3.66699 5.5 -8.5 5.5 -14.5s-1.83301 -10.833 -5.5 -14.5s-8.5 -5.5 -14.5 -5.5s-10.833 1.83301 -14.5 5.5s-5.5 8.5 -5.5 14.5s1.83301 10.833 5.5 14.5s8.5 5.5 14.5 5.5s10.833 -1.83301 14.5 -5.5z" />
    <glyph glyph-name="Odieresis" unicode="&#xa8;O" horiz-adv-x="599" 
d="M513.5 577c36.333 -43.333 54.501 -105.335 54.501 -186.002c0 -81.333 -11.833 -151.666 -35.5 -210.999s-58 -105 -103 -137s-99.167 -48 -162.5 -48c-68 0 -120.167 22.333 -156.5 67s-54.5 108.334 -54.5 191.001c0 80.667 11.667 150.167 35 208.5
s57.5 103 102.5 134s98.833 46.5 161.5 46.5c69.333 0 122.166 -21.667 158.499 -65zM205.001 577.998c-41.333 -29.333 -73 -71.5 -95 -126.5s-33 -120.167 -33 -195.5c0 -76.667 16.5 -136 49.5 -178s80.167 -63 141.5 -63c58 0 108 15.167 150 45.5s74 73.333 96 129
s33 121.5 33 197.5c0 75.333 -16.333 133.333 -49 174s-80.667 61 -144 61c-58 0 -107.667 -14.667 -149 -44zM307.501 795.498c3.66699 -3.66699 5.5 -8.5 5.5 -14.5s-1.83301 -10.833 -5.5 -14.5s-8.5 -5.5 -14.5 -5.5s-10.833 1.83301 -14.5 5.5s-5.5 8.5 -5.5 14.5
s1.83301 10.833 5.5 14.5s8.5 5.5 14.5 5.5s10.833 -1.83301 14.5 -5.5zM457.501 795.498c3.66699 -3.66699 5.5 -8.5 5.5 -14.5s-1.83301 -10.833 -5.5 -14.5s-8.5 -5.5 -14.5 -5.5s-10.833 1.83301 -14.5 5.5s-5.5 8.5 -5.5 14.5s1.83301 10.833 5.5 14.5
s8.5 5.5 14.5 5.5s10.833 -1.83301 14.5 -5.5z" />
    <glyph glyph-name="Yacute" unicode="&#xb4;Y" horiz-adv-x="469" 
d="M238 247l-7 -52l-24 -195h-20l24 195l7 50l-141 392h25l7 -26l120 -334h5l218 334l14 26h26zM392 834l6.99902 -11.999l-2 -5c-44.667 -25.333 -102.667 -56.333 -174 -93l-5 3l-7 15c60.667 29.333 119.334 60.666 176.001 93.999z" />
    <glyph glyph-name="idieresis" unicode="&#xa8;i" horiz-adv-x="233" 
d="M128.5 649.5c3.66699 -3.66699 5.5 -8.5 5.5 -14.5s-1.83301 -10.833 -5.5 -14.5s-8.5 -5.5 -14.5 -5.5s-10.833 1.83301 -14.5 5.5s-5.5 8.5 -5.5 14.5s1.83301 10.833 5.5 14.5s8.5 5.5 14.5 5.5s10.833 -1.83301 14.5 -5.5zM230.5 649.5
c3.66699 -3.66699 5.5 -8.5 5.5 -14.5s-1.83301 -10.833 -5.5 -14.5s-8.5 -5.5 -14.5 -5.5s-10.833 1.83301 -14.5 5.5s-5.5 8.5 -5.5 14.5s1.83301 10.833 5.5 14.5s8.5 5.5 14.5 5.5s10.833 -1.83301 14.5 -5.5zM118 151l-20 -151h-20l20 150l42 341h20z" />
    <glyph glyph-name="odieresis" unicode="&#xa8;o" horiz-adv-x="533" 
d="M254.5 649.5c3.66699 -3.66699 5.5 -8.5 5.5 -14.5s-1.83301 -10.833 -5.5 -14.5s-8.5 -5.5 -14.5 -5.5s-10.833 1.83301 -14.5 5.5s-5.5 8.5 -5.5 14.5s1.83301 10.833 5.5 14.5s8.5 5.5 14.5 5.5s10.833 -1.83301 14.5 -5.5zM404.5 649.5
c3.66699 -3.66699 5.5 -8.5 5.5 -14.5s-1.83301 -10.833 -5.5 -14.5s-8.5 -5.5 -14.5 -5.5s-10.833 1.83301 -14.5 5.5s-5.5 8.5 -5.5 14.5s1.83301 10.833 5.5 14.5s8.5 5.5 14.5 5.5s10.833 -1.83301 14.5 -5.5zM435.5 443c31 -34.667 46.499 -83.332 46.499 -145.999
c0 -94 -21.667 -167.667 -65 -221s-103.666 -80 -180.999 -80c-57.333 0 -101.5 17.667 -132.5 53s-46.5 85 -46.5 149c0 93.333 21.5 166.166 64.5 218.499s103.5 78.5 181.5 78.5c57.333 0 101.5 -17.333 132.5 -52zM136.999 403.002c-38.667 -48 -58 -115.667 -58 -203
c0 -59.333 13.333 -104.833 40 -136.5s65.334 -47.5 116.001 -47.5c70.667 0 126 24.5 166 73.5s60 117.167 60 204.5c0 58.667 -13.667 103.5 -41 134.5s-67 46.5 -119 46.5c-70.667 0 -125.334 -24 -164.001 -72z" />
    <glyph glyph-name="yacute" unicode="&#xb4;y" horiz-adv-x="428" 
d="M197 558l-11 12.999c46 38.667 94.667 84.334 146 137.001l5 -1l10 -10l-1 -5c-46 -46 -94 -91 -144 -135zM212 184.999l-4 -36l-20 -149h-20l20 149l5 40l-120 302h25l6 -21l100 -253h4l176 253l12 21h25z" />
    <glyph glyph-name="Itilde" unicode="&#x7e;I" horiz-adv-x="235" 
d="M125 195l-25 -195h-20l25 195l55 442h20zM309 792l-0.000976562 -3.99902l-47 -47l-6 -2c-10.667 1.33301 -34.667 8 -72 20c-36 12 -57.667 18 -65 18c-3.33301 0 -7.66602 -2.33301 -12.999 -7s-11 -10.334 -17 -17.001l-16 -16h-3l-9 11v4l47 47l6 2
c10.667 -1.33301 34.667 -8 72 -20c36 -12 57.667 -18 65 -18c3.33301 0 7.33301 2 12 6s9.66699 9 15 15l19 19h3z" />
    <glyph glyph-name="itilde" unicode="&#x7e;i" horiz-adv-x="233" 
d="M288 646l-0.000976562 -3.99902l-47 -47l-6 -2c-10.667 1.33301 -34.667 8 -72 20c-36 12 -57.667 18 -65 18c-3.33301 0 -7.66602 -2.33301 -12.999 -7s-11 -10.334 -17 -17.001l-16 -16h-3l-9 11v4l47 47l6 2c10.667 -1.33301 34.667 -8 72 -20
c36 -12 57.667 -18 65 -18c3.33301 0 7.33301 2 12 6s9.66699 9 15 15l19 19h3zM117.999 151.001l-20 -151h-20l20 150l42 341h20z" />
    <glyph glyph-name="Utilde" unicode="&#x7e;U" horiz-adv-x="583" 
d="M510 312l-10.001 -83.001c-7.33301 -74 -31.5 -131.333 -72.5 -172s-94.833 -61 -161.5 -61c-59.333 0 -105 15.5 -137 46.5s-48 75.5 -48 133.5c0 19.333 1.33301 37 4 53l13 93l40 315h20l-53 -408c-2.66699 -22.667 -4 -39 -4 -49
c0 -52.667 14.167 -93.167 42.5 -121.5s68.833 -42.5 121.5 -42.5c60.667 0 109.334 18.333 146.001 55s59.667 89.334 69 158.001l51 408h20zM498.999 804.999v-4l-52 -47l-6 -2c-13.333 1.33301 -40.333 8 -81 20c-4 1.33301 -15.667 4.66602 -35 9.99902
s-32.666 8 -39.999 8c-3.33301 0 -7.66602 -2 -12.999 -6s-11 -9.33301 -17 -16l-21 -19h-4l-9 11v4l52 47l6 2c13.333 -1.33301 40.333 -8 81 -20c4 -1.33301 15.667 -4.66602 35 -9.99902s32.666 -8 39.999 -8c3.33301 0 7.66602 2 12.999 6s11 9.33301 17 16l21 19h4z
" />
    <glyph glyph-name="utilde" unicode="&#x7e;u" horiz-adv-x="522" 
d="M449 659v-4l-52 -47l-6 -2c-13.333 1.33301 -40.333 8 -81 20c-4 1.33301 -15.667 4.66602 -35 9.99902s-32.666 8 -39.999 8c-3.33301 0 -7.66602 -2 -12.999 -6s-11 -9.33301 -17 -16l-21 -19h-4l-9 11v4l52 47l6 2c13.333 -1.33301 40.333 -8 81 -20
c4 -1.33301 15.667 -4.66602 35 -9.99902s32.666 -8 39.999 -8c3.33301 0 7.66602 2 12.999 6s11 9.33301 17 16l21 19h4zM436 240l-8.00098 -64c-6 -56.667 -25.833 -100.667 -59.5 -132s-78.5 -47 -134.5 -47c-50 0 -88.333 12.167 -115 36.5s-40 59.5 -40 105.5
c0 12 1 24.333 3 37l11 72l30 243h21l-42 -314c-1.33301 -8 -2 -19.333 -2 -34c0 -41.333 11.5 -72.833 34.5 -94.5s56.5 -32.5 100.5 -32.5c49.333 0 88.833 13.833 118.5 41.5s47.834 67.5 54.501 119.5l40 314h20z" />
    <glyph glyph-name="uni1EBC" unicode="&#x7e;E" horiz-adv-x="432" 
d="M143 340h223l3 -4l-6 -16h-222l-16 -125l-22 -175h273l3 -4l-6 -16h-293l25 195l55 442h291l2 -4l-6 -16h-269zM468 805v-4l-52 -47l-6 -2c-13.333 1.33301 -40.333 8 -81 20c-4 1.33301 -15.667 4.66602 -35 9.99902s-32.666 8 -39.999 8
c-3.33301 0 -7.66602 -2 -12.999 -6s-11 -9.33301 -17 -16l-21 -19h-4l-9 11v4l52 47l6 2c13.333 -1.33301 40.333 -8 81 -20c4 -1.33301 15.667 -4.66602 35 -9.99902s32.666 -8 39.999 -8c3.33301 0 7.66602 2 12.999 6s11 9.33301 17 16l21 19h4z" />
    <glyph glyph-name="uni1EBD" unicode="&#x7e;e" horiz-adv-x="397" 
d="M418 659v-4l-52 -47l-6 -2c-13.333 1.33301 -40.333 8 -81 20c-4 1.33301 -15.667 4.66602 -35 9.99902s-32.666 8 -39.999 8c-3.33301 0 -7.66602 -2 -12.999 -6s-11 -9.33301 -17 -16l-21 -19h-4l-9 11v4l52 47l6 2c13.333 -1.33301 40.333 -8 81 -20
c4 -1.33301 15.667 -4.66602 35 -9.99902s32.666 -8 39.999 -8c3.33301 0 7.66602 2 12.999 6s11 9.33301 17 16l21 19h4zM387 487l-6 -16l-223 1l-27 -208h185l2 -4l-5 -16h-184l-12 -93l-17 -132h227l3 -3l-6 -16h-246l19 150l43 341h244z" />
    <glyph glyph-name="uni1EF8" unicode="&#x7e;Y" horiz-adv-x="469" 
d="M238 247l-7 -52l-24 -195h-20l24 195l7 50l-141 392h25l7 -26l120 -334h5l218 334l14 26h26zM442 805v-4l-52 -47l-6 -2c-13.333 1.33301 -40.333 8 -81 20c-4 1.33301 -15.667 4.66602 -35 9.99902s-32.666 8 -39.999 8c-3.33301 0 -7.66602 -2 -12.999 -6
s-11 -9.33301 -17 -16l-21 -19h-4l-9 11v4l52 47l6 2c13.333 -1.33301 40.333 -8 81 -20c4 -1.33301 15.667 -4.66602 35 -9.99902s32.666 -8 39.999 -8c3.33301 0 7.66602 2 12.999 6s11 9.33301 17 16l21 19h4z" />
    <glyph glyph-name="uni1EF9" unicode="&#x7e;y" horiz-adv-x="428" 
d="M134 603l-9 11v4l52 47l6 2c13.333 -1.33301 40.333 -8 81 -20c4 -1.33301 15.667 -4.66602 35 -9.99902s32.666 -8 39.999 -8c3.33301 0 7.66602 2 12.999 6s11 9.33301 17 16l21 19h4l9 -11v-4l-52 -47l-6 -2c-13.333 1.33301 -40.333 8 -81 20
c-4 1.33301 -15.667 4.66602 -35 9.99902s-32.666 8 -39.999 8c-3.33301 0 -7.66602 -2 -12.999 -6s-11 -9.33301 -17 -16l-21 -19h-4zM212 185l-4 -36l-20 -149h-20l20 149l5 40l-120 302h25l6 -21l100 -253h4l176 253l12 21h25z" />
    <glyph glyph-name="Gtilde" unicode="&#x7e;G" horiz-adv-x="575" 
d="M461.5 627c28.333 -9.33301 55.1689 -22.667 80.502 -40l-8 -18h-7c-50.667 34.667 -101.334 52 -152.001 52c-62.667 0 -116.5 -14.667 -161.5 -44s-79.333 -71.666 -103 -126.999s-35.5 -121.333 -35.5 -198c0 -76 16.333 -134.5 49 -175.5s80 -61.5 142 -61.5
c29.333 0 56.833 2.16699 82.5 6.5s58.5 12.166 98.5 23.499l15 113l10 89l20 2l-10 -91l-17 -128c-44.667 -13.333 -80.667 -22.333 -108 -27s-57.666 -7 -90.999 -7c-68.667 0 -121 22 -157 66s-54 106.667 -54 188s12.833 151.333 38.5 210s62.667 103.5 111 134.5
s106.166 46.5 173.499 46.5c27.333 0 55.166 -4.66699 83.499 -14zM501.003 804.999v-4l-52 -47l-6 -2c-13.333 1.33301 -40.333 8 -81 20c-4 1.33301 -15.667 4.66602 -35 9.99902s-32.666 8 -39.999 8c-3.33301 0 -7.66602 -2 -12.999 -6s-11 -9.33301 -17 -16l-21 -19h-4
l-9 11v4l52 47l6 2c13.333 -1.33301 40.333 -8 81 -20c4 -1.33301 15.667 -4.66602 35 -9.99902s32.666 -8 39.999 -8c3.33301 0 7.66602 2 12.999 6s11 9.33301 17 16l21 19h4z" />
    <glyph glyph-name="gtilde" unicode="&#x7e;g" horiz-adv-x="513" 
d="M455 659v-4l-52 -47l-6 -2c-13.333 1.33301 -40.333 8 -81 20c-4 1.33301 -15.667 4.66602 -35 9.99902s-32.666 8 -39.999 8c-3.33301 0 -7.66602 -2 -12.999 -6s-11 -9.33301 -17 -16l-21 -19h-4l-9 11v4l52 47l6 2c13.333 -1.33301 40.333 -8 81 -20
c4 -1.33301 15.667 -4.66602 35 -9.99902s32.666 -8 39.999 -8c3.33301 0 7.66602 2 12.999 6s11 9.33301 17 16l21 19h4zM460 453l-8.00098 -17.998h-5c-44 26.667 -85.667 40 -125 40c-77.333 0 -137.333 -24.167 -180 -72.5s-64 -116.5 -64 -204.5
c0 -58.667 13.667 -103.834 41 -135.501s66.333 -47.5 117 -47.5c24 0 46.333 1.66699 67 5s47.334 9.33301 80.001 18l10 84l9 61l20 2l-9 -62l-12 -100c-37.333 -10 -67.333 -16.833 -90 -20.5s-47.667 -5.5 -75 -5.5c-57.333 0 -101.5 17.167 -132.5 51.5
s-46.5 83.166 -46.5 146.499c0 95.333 23 169 69 221s111.333 78 196 78c46.667 0 92.667 -13.667 138 -41z" />
    <glyph glyph-name=".notdef" horiz-adv-x="180" 
 />
    <glyph glyph-name="nonmarkingreturn" unicode="&#xd;" horiz-adv-x="161" 
 />
    <glyph glyph-name="space" unicode=" " horiz-adv-x="161" 
 />
    <glyph glyph-name="exclam" unicode="!" horiz-adv-x="224" 
d="M160 498l-53 -363h-14l-4 5l52 358l3 3h13zM99 16c0 -5.33301 -1.66699 -9.83301 -5 -13.5s-8 -5.5 -14 -5.5c-5.33301 0 -9.83301 1.83301 -13.5 5.5s-5.5 8.16699 -5.5 13.5c0 6 1.83301 10.667 5.5 14s8.16699 5 13.5 5c12.667 0 19 -6.33301 19 -19z" />
    <glyph glyph-name="quotedbl" unicode="&#x22;" horiz-adv-x="222" 
d="M111 488l-30 -144l-17 -2l-2 4l29 144l18 2zM208 488l-30 -144l-17 -2l-2 4l29 144l18 2z" />
    <glyph glyph-name="numbersign" unicode="#" horiz-adv-x="480" 
d="M330 374l-32 -129h121l3 -3l-2 -17h-127l-49 -193h-16l-3 4l48 189h-118l-49 -193h-16l-3 4l48 189h-112l-3 3l2 17h118l33 129h-112l-3 3l2 17h118l46 181h16l2 -5l-44 -176h118l46 181h16l2 -5l-44 -176h121l3 -3l-2 -17h-128zM311 374h-119l-32 -129h118z" />
    <glyph glyph-name="dollar" unicode="$" horiz-adv-x="392" 
d="M343 471l-6.99609 -18l-6 -1c-24 12.667 -51.667 19.667 -83 21l-31 -218c33.333 -16.667 59.166 -33.667 77.499 -51s27.5 -40.666 27.5 -69.999c0 -34 -13.167 -64 -39.5 -90s-59.833 -41.333 -100.5 -46l-18 -122h-15l-4 4l17 117h-2
c-20.667 0 -41.834 3.16699 -63.501 9.5s-40.167 15.166 -55.5 26.499l2 20l5 1c15.333 -12 33.166 -21.167 53.499 -27.5s40.166 -9.5 59.499 -9.5h3l31 225c-34.667 17.333 -61 34.666 -79 51.999s-27 40.333 -27 69c0 33.333 13 62.5 39 87.5s59.667 38.833 101 41.5
l20 138h16l4 -5l-18 -132c34 -1.33301 65 -8.66602 93 -21.999zM130.504 307.5c15 -14.333 37.167 -28.832 66.5 -43.499l29 208c-35.333 -3.33301 -63.833 -15.833 -85.5 -37.5s-32.5 -45.834 -32.5 -72.501c0 -22 7.5 -40.167 22.5 -54.5zM278.504 189.501
c-15 14.333 -36.834 28.832 -65.501 43.499l-29 -214c34.667 4.66699 62.834 18.334 84.501 41.001s32.5 47.667 32.5 75c0 22 -7.5 40.167 -22.5 54.5z" />
    <glyph glyph-name="percent" unicode="%" horiz-adv-x="799" 
d="M679 664l2 -8l-577 -746l-8 4l-3 9l576 746zM327.5 603c19.667 -23.333 29.5 -57 29.5 -101c0 -64 -14.167 -114.333 -42.5 -151s-68.5 -55 -120.5 -55c-38 0 -66.833 11.667 -86.5 35s-29.5 57 -29.5 101c0 64 14.5 114.333 43.5 151s69.167 55 120.5 55
c37.333 0 65.833 -11.667 85.5 -35zM134 570.5c-24.667 -32.333 -37 -77.166 -37 -134.499c0 -39.333 8.66699 -69.333 26 -90s42.666 -31 75.999 -31c44 0 78.333 16.167 103 48.5s37 77.166 37 134.499c0 39.333 -8.66699 69.333 -26 90s-42.666 31 -75.999 31
c-44 0 -78.333 -16.167 -103 -48.5zM713.5 304c19.667 -23.333 29.5 -57 29.5 -101c0 -64 -14.167 -114.333 -42.5 -151s-68.5 -55 -120.5 -55c-38 0 -66.833 11.667 -86.5 35s-29.5 57 -29.5 101c0 64 14.5 114.333 43.5 151s69.167 55 120.5 55
c37.333 0 65.833 -11.667 85.5 -35zM520 271.5c-24.667 -32.333 -37 -77.166 -37 -134.499c0 -39.333 8.66699 -69.333 26 -90s42.666 -31 75.999 -31c44 0 78.333 16.167 103 48.5s37 77.166 37 134.499c0 39.333 -8.66699 69.333 -26 90s-42.666 31 -75.999 31
c-44 0 -78.333 -16.167 -103 -48.5z" />
    <glyph glyph-name="ampersand" unicode="&#x26;" horiz-adv-x="762" 
d="M829 357c-12.667 -30 -27.1602 -51.835 -43.4932 -65.502s-38.5 -21.5 -66.5 -23.5c-22.667 0 -63.334 6.66699 -122.001 20c2 -59.333 -8.5 -111.5 -31.5 -156.5s-56.333 -79.833 -100 -104.5s-94.834 -37 -153.501 -37c-49.333 0 -93 11.333 -131 34
s-67.333 54.5 -88 95.5s-31 88.167 -31 141.5c0 45.333 7.83301 85.666 23.5 120.999s36.667 63 63 83s54.833 30 85.5 30c30 0 54.167 -7.5 72.5 -22.5s27.5 -34.5 27.5 -58.5c0 -20.667 -6 -40.667 -18 -60c68 48 128.667 102.833 182 164.5
s94.666 125.834 123.999 192.501h4c3.33301 -6 6 -12.667 8 -20c-32 -70 -76.333 -136.667 -133 -200s-120.834 -119.166 -192.501 -167.499s-146.167 -85.5 -223.5 -111.5c9.33301 -61.333 34.166 -110.166 74.499 -146.499s91.166 -54.5 152.499 -54.5
c55.333 0 103.5 11.667 144.5 35s72 56.333 93 99s30.167 91.667 27.5 147c-39.333 8.66699 -66 13 -80 13c-22.667 0 -41.667 -6.16699 -57 -18.5s-27.666 -31.833 -36.999 -58.5l-5 -2l-13 10c12.667 30 27.167 51.833 43.5 65.5s38.5 21.5 66.5 23.5
c16 0 50.667 -6 104 -18c4.66699 -0.666992 21.167 -4 49.5 -10s51.166 -9 68.499 -9c22.667 0 41.667 6.16699 57 18.5s27.666 31.833 36.999 58.5l5 2zM158.007 447.998c-23.333 -18 -41.832 -43.167 -55.499 -75.5s-20.5 -69.5 -20.5 -111.5
c0 -12.667 0.333008 -22 1 -28c65.333 22.667 127.666 53 186.999 91c18 14.667 30 30 36 46s8.33301 31.333 7 46c-0.666992 18 -8.16699 32.333 -22.5 43s-32.833 16 -55.5 16c-28 0 -53.667 -9 -77 -27z" />
    <glyph glyph-name="quotesingle" unicode="'" horiz-adv-x="125" 
d="M111 488l-30 -144l-17 -2l-2 4l29 144l18 2z" />
    <glyph glyph-name="parenleft" unicode="(" horiz-adv-x="280" 
d="M318 652l-1 -4c-84 -56 -140.833 -126.833 -170.5 -212.5s-44.5 -182.5 -44.5 -290.5c0 -63.333 9.5 -116.5 28.5 -159.5s49.5 -80.833 91.5 -113.5l-1 -4l-10 -11h-4c-44 36 -75.833 76 -95.5 120s-29.5 99 -29.5 165c0 113.333 15.667 214 47 302s90.333 161 177 219h4
z" />
    <glyph glyph-name="parenright" unicode=")" horiz-adv-x="314" 
d="M-27 -132l1 4c84 56 140.833 126.833 170.5 212.5s44.5 182.5 44.5 290.5c0 63.333 -9.5 116.5 -28.5 159.5s-49.5 80.833 -91.5 113.5l1 4l10 11h4c44 -36 75.833 -76 95.5 -120s29.5 -99 29.5 -165c0 -113.333 -15.667 -214 -47 -302s-90.333 -161 -177 -219h-4z" />
    <glyph glyph-name="asterisk" unicode="*" horiz-adv-x="365" 
d="M241 713l-11 -113l-14 -2l-3 5l5 109c6.66699 2 13.667 3 21 3zM193 583l-3 -14l-5 -1l-102 38c0 9.33301 1 16.333 3 21l3 2zM369 597l-1 -2l-111 -25l-5 13l3 4l104 29c4 -4.66699 7.33301 -11 10 -19zM253 542l60 -90c-4.66699 -6.66699 -9.66699 -11.667 -15 -15h-3
l-58 98l11 9zM210 536l-1 -6l-67 -85c-6.66699 2 -13 5.33301 -19 10l-1 3l76 85z" />
    <glyph glyph-name="plus" unicode="+" horiz-adv-x="478" 
d="M279 468l-23 -188h187l3 -3l-4 -17h-189l-23 -189l-17 -2l-3 3l23 188h-187l-3 3l4 17h189l23 189l17 2z" />
    <glyph glyph-name="comma" unicode="," horiz-adv-x="230" 
d="M121 -7c0 -13.333 -5.66602 -28.001 -16.999 -44.001s-27.666 -32.333 -48.999 -49l-10 11l1 3c17.333 12.667 30.666 25.834 39.999 39.501s14 26.5 14 38.5c0 13.333 -10 24.666 -30 33.999v4c3.33301 4.66699 7.66602 8.33398 12.999 11.001
c25.333 -11.333 38 -27.333 38 -48z" />
    <glyph glyph-name="hyphen" unicode="-" horiz-adv-x="312" 
d="M286 277l-1 -16l-250 -33l-3 4l2 16l249 33z" />
    <glyph glyph-name="period" unicode="." horiz-adv-x="230" 
d="M103.5 32.5c3.66699 -3.66699 5.5 -8.5 5.5 -14.5s-1.83301 -10.833 -5.5 -14.5s-8.5 -5.5 -14.5 -5.5s-10.833 1.83301 -14.5 5.5s-5.5 8.5 -5.5 14.5s1.83301 10.833 5.5 14.5s8.5 5.5 14.5 5.5s10.833 -1.83301 14.5 -5.5z" />
    <glyph glyph-name="slash" unicode="/" horiz-adv-x="291" 
d="M297 670l-258 -780h-16l-3 4l258 781h16z" />
    <glyph glyph-name="zero" unicode="0" horiz-adv-x="539" 
d="M439.5 441.5c32.333 -35.667 48.5 -86.832 48.5 -153.499c0 -92.667 -21.167 -164.5 -63.5 -215.5s-102.5 -76.5 -180.5 -76.5c-60 0 -106.333 17.5 -139 52.5s-49 84.833 -49 149.5c0 93.333 21.167 166.166 63.5 218.499s102.833 78.5 181.5 78.5
c60 0 106.167 -17.833 138.5 -53.5zM135 403.002c-39.333 -48 -59.001 -114.666 -59.001 -199.999c0 -60 14.5 -106.167 43.5 -138.5s71.167 -48.5 126.5 -48.5c70.667 0 125.334 23.5 164.001 70.5s58 112.5 58 196.5c0 61.333 -14.5 108.666 -43.5 141.999
s-70.833 50 -125.5 50c-70 0 -124.667 -24 -164 -72z" />
    <glyph glyph-name="one" unicode="1" horiz-adv-x="328" 
d="M218 489l-34 -283l-26 -206h-20l25 201l32 265l-151 -45l-5 3l2 16l174 53z" />
    <glyph glyph-name="two" unicode="2" horiz-adv-x="439" 
d="M322 467c19.333 -16.667 29 -38.001 29 -64.001c0 -28 -11.333 -58.833 -34 -92.5s-59.667 -77.834 -111 -132.501l-145 -155l2 -3h234l78 1l2 -4l-6 -18l-82 1h-222l-38 -1l-2 2l2 16l162 174c50.667 54.667 86.667 96.834 108 126.501s32 56.834 32 81.501
c0 20.667 -7.66699 38 -23 52s-36.666 21 -63.999 21c-26 0 -52 -6.66699 -78 -20s-50 -32.333 -72 -57h-4l-2 17c22 24.667 46.667 44.167 74 58.5s55.333 21.5 84 21.5c31.333 0 56.666 -8.33301 75.999 -25z" />
    <glyph glyph-name="three" unicode="3" horiz-adv-x="392" 
d="M293.5 464c21.667 -19.333 32.4971 -44.6689 32.4971 -76.002c0 -32.667 -11.667 -64 -35 -94s-53.333 -53.333 -90 -70l-1 -3c38.667 -8.66699 68.167 -24.334 88.5 -47.001s30.5 -51 30.5 -85c0 -36 -9.83301 -68.333 -29.5 -97s-46.667 -51 -81 -67
s-73.166 -24 -116.499 -24c-29.333 0 -58 2.66699 -86 8l-1 17l3 3c28.667 -5.33301 57.334 -8 86.001 -8c40 0 75.5 7 106.5 21s55.167 33.667 72.5 59s26 54.333 26 87c0 36.667 -13.167 65.334 -39.5 86.001s-64.5 32.334 -114.5 35.001h-47l-3 3l3 16h43
c22 0 46 7 72 21s47.833 33 65.5 57s26.5 50 26.5 78c0 26.667 -9 48 -27 64s-41.667 24 -71 24c-22.667 0 -45.167 -5.16699 -67.5 -15.5s-45.833 -26.166 -70.5 -47.499h-4l-1 19c26.667 22 51.334 38.333 74.001 49s46 16 70 16c35.333 0 63.833 -9.66699 85.5 -29z" />
    <glyph glyph-name="four" unicode="4" horiz-adv-x="458" 
d="M408 115l-6 -17l-71 1h-34l-24 -191l-2 -3l-16 -3l-2 3l24 194h-215l-42 -1l-3 4l2 17l303 372h22l-45 -372h105zM279 119l41 333h-4l-271 -333h234z" />
    <glyph glyph-name="five" unicode="5" horiz-adv-x="403" 
d="M377 490l-4 -17.998l-4 -2l-41 1h-195l-27 -206l64 -15c55.333 -12.667 96.166 -31 122.499 -55s39.5 -54.667 39.5 -92c0 -38.667 -10.333 -73.334 -31 -104.001s-49.667 -54.667 -87 -72s-80 -26 -128 -26c-22.667 0 -46.667 2.33301 -72 7l-2 17l4 3
c26 -4.66699 50.667 -7 74 -7c43.333 0 81.833 7.66699 115.5 23s59.834 36.666 78.501 63.999s28 58.333 28 93c0 31.333 -12.333 57.5 -37 78.5s-62.667 37.833 -114 50.5l-72 17l-3 5l29 232l10 8l49 -1h136l65 1z" />
    <glyph glyph-name="six" unicode="6" horiz-adv-x="455" 
d="M197 451c-52.667 -52.667 -88.334 -110.001 -107.001 -172.001l3 -3c48.667 39.333 101 59 157 59c46 0 82 -12.333 108 -37s39 -60 39 -106c0 -29.333 -5.66699 -59 -17 -89s-31.166 -55.667 -59.499 -77s-66.166 -32 -113.499 -32c-50 0 -88 15.333 -114 46
s-39 74 -39 130c0 49.333 10.667 100.5 32 153.5s58.166 103.833 110.499 152.5s121.833 87.334 208.5 116.001h4l7 -11v-4c-93.333 -31.333 -166.333 -73.333 -219 -126zM82 246.999c-5.33301 -23.333 -7.99902 -48.001 -7.99902 -74.001
c0 -50.667 11.333 -89.834 34 -117.501s56 -41.5 100 -41.5c42 0 75.667 9.33301 101 28s43 41.334 53 68.001s15 53.334 15 80.001c0 40 -11.167 70.833 -33.5 92.5s-53.833 32.5 -94.5 32.5c-58.667 0 -114.334 -22.667 -167.001 -68z" />
    <glyph glyph-name="seven" unicode="7" horiz-adv-x="401" 
d="M128 491h238l37 1l-2 -18l-283 -493l-46 -86l-20 6v4l325 566h-257l-58 -1l-3 5l5 17z" />
    <glyph glyph-name="eight" unicode="8" horiz-adv-x="456" 
d="M363 557.5c23.333 -21 35.0049 -50.832 35.0049 -89.499c0 -42 -12.833 -75.5 -38.5 -100.5s-58.834 -45.167 -99.501 -60.5v-3c27.333 -12 49.666 -23.333 66.999 -34s31.5 -24.834 42.5 -42.501s16.5 -39.834 16.5 -66.501c0 -31.333 -7.66699 -59.5 -23 -84.5
s-37 -44.667 -65 -59s-60 -21.5 -96 -21.5c-47.333 0 -84.833 12.167 -112.5 36.5s-41.5 57.166 -41.5 98.499c0 78 52.667 136 158 174v3c-32.667 14.667 -57.334 31.834 -74.001 51.501s-25 46.167 -25 79.5c0 44.667 15.167 80.834 45.5 108.501
s69.166 41.5 116.499 41.5c39.333 0 70.666 -10.5 93.999 -31.5zM165.505 533.001c-26.333 -24 -39.5 -55.333 -39.5 -94c0 -32 9 -56.5 27 -73.5s44.667 -33.5 80 -49.5c42.667 13.333 77.5 31.666 104.5 54.999s40.5 55.333 40.5 96c0 32.667 -9.66699 57.834 -29 75.501
s-46.333 26.5 -81 26.5c-42 0 -76.167 -12 -102.5 -36zM113.505 235.001c-30.333 -24 -45.501 -58.3311 -45.501 -102.998c0 -36 12 -64.333 36 -85s57 -31 99 -31c48.667 0 88 13.5 118 40.5s45 61.167 45 102.5c0 25.333 -6 46.166 -18 62.499
s-26.167 29.166 -42.5 38.499s-41.5 21.333 -75.5 36c-47.333 -16.667 -86.166 -37 -116.499 -61z" />
    <glyph glyph-name="nine" unicode="9" horiz-adv-x="455" 
d="M263 41c52.667 52.667 88.334 110.001 107.001 172.001l-3 3c-48.667 -39.333 -101 -59 -157 -59c-46 0 -82 12.333 -108 37s-39 60 -39 106c0 29.333 5.66699 59 17 89s31.166 55.667 59.499 77s66.166 32 113.499 32c50 0 88 -15.333 114 -46s39 -74 39 -130
c0 -49.333 -10.667 -100.5 -32 -153.5s-58.166 -103.833 -110.499 -152.5s-121.833 -87.334 -208.5 -116.001h-4l-7 11v4c93.333 31.333 166.333 73.333 219 126zM378 245.001c5.33301 23.333 7.99902 48.001 7.99902 74.001c0 50.667 -11.333 89.834 -34 117.501
s-56 41.5 -100 41.5c-42 0 -75.667 -9.33301 -101 -28s-43 -41.334 -53 -68.001s-15 -53.334 -15 -80.001c0 -40 11.167 -70.833 33.5 -92.5s53.833 -32.5 94.5 -32.5c58.667 0 114.334 22.667 167.001 68z" />
    <glyph glyph-name="colon" unicode=":" horiz-adv-x="229" 
d="M103.5 32.5c3.66699 -3.66699 5.5 -8.5 5.5 -14.5s-1.83301 -10.833 -5.5 -14.5s-8.5 -5.5 -14.5 -5.5s-10.833 1.83301 -14.5 5.5s-5.5 8.5 -5.5 14.5s1.83301 10.833 5.5 14.5s8.5 5.5 14.5 5.5s10.833 -1.83301 14.5 -5.5zM137.5 309.5
c3.66699 -3.66699 5.5 -8.5 5.5 -14.5s-1.83301 -10.833 -5.5 -14.5s-8.5 -5.5 -14.5 -5.5s-10.833 1.83301 -14.5 5.5s-5.5 8.5 -5.5 14.5s1.83301 10.833 5.5 14.5s8.5 5.5 14.5 5.5s10.833 -1.83301 14.5 -5.5z" />
    <glyph glyph-name="semicolon" unicode=";" horiz-adv-x="230" 
d="M120 -7c0 -13.333 -5.66602 -28.001 -16.999 -44.001s-27.666 -32.333 -48.999 -49l-10 11l1 3c17.333 12.667 30.666 25.834 39.999 39.501s14 26.5 14 38.5c0 13.333 -10 24.666 -30 33.999v4c3.33301 4.66699 7.66602 8.33398 12.999 11.001
c25.333 -11.333 38 -27.333 38 -48zM136.501 309.499c3.66699 -3.66699 5.5 -8.5 5.5 -14.5s-1.83301 -10.833 -5.5 -14.5s-8.5 -5.5 -14.5 -5.5s-10.833 1.83301 -14.5 5.5s-5.5 8.5 -5.5 14.5s1.83301 10.833 5.5 14.5s8.5 5.5 14.5 5.5s10.833 -1.83301 14.5 -5.5z" />
    <glyph glyph-name="less" unicode="&#x3c;" horiz-adv-x="500" 
d="M457 441l-3 -5l-390 -164l-1 -4l355 -153l-8 -15l-4 -2l-370 160l3 22l3 4l410 171z" />
    <glyph glyph-name="equal" unicode="=" horiz-adv-x="479" 
d="M460 349l-2 -17h-397l-3 3l2 17h397zM442 205l-2 -17h-397l-3 3l2 17h397z" />
    <glyph glyph-name="greater" unicode="&#x3e;" horiz-adv-x="501" 
d="M473 284l2 -4l-3 -22l-409 -160l-4 2l-4 15l393 153v4l-350 164l-2 5l9 14z" />
    <glyph glyph-name="question" unicode="?" horiz-adv-x="270" 
d="M219 461c31.333 -20 47 -46.333 47 -79c0 -22.667 -6.83301 -44.334 -20.5 -65.001s-33.5 -38.667 -59.5 -54l-90 -54l-1 -2l-6 -75l-17 -1l-1 4l4 76l4 8l94 57c22.667 13.333 40.5 28.833 53.5 46.5s19.5 36.834 19.5 57.501c0 28.667 -14.833 51.5 -44.5 68.5
s-72.167 27.167 -127.5 30.5l-2 3l8 14l5 2c58 -4.66699 102.667 -17 134 -37zM80.5 27.5c3.66699 -3.66699 5.5 -8.16699 5.5 -13.5s-1.83301 -9.66602 -5.5 -12.999s-8.16699 -5 -13.5 -5s-9.66602 1.66699 -12.999 5s-5 7.66602 -5 12.999s1.66699 9.83301 5 13.5
s7.66602 5.5 12.999 5.5s9.83301 -1.83301 13.5 -5.5z" />
    <glyph glyph-name="at" unicode="@" horiz-adv-x="805" 
d="M611 553c48.667 -26 86.167 -62.1621 112.5 -108.495s39.5 -99.833 39.5 -160.5c0 -88 -25.667 -156.5 -77 -205.5s-125.666 -76.5 -222.999 -82.5l36 276v-1h-5c-30 -56.667 -62.333 -108.667 -97 -156s-69.667 -87 -105 -119h-11
c-18 13.333 -31.167 30.666 -39.5 51.999s-12.5 51 -12.5 89c0 56.667 8.83301 108.667 26.5 156s43.667 85.666 78 114.999s75.166 45.666 122.499 48.999h4l65 -5l13 7l5 -3l-46 -350l-8 -90c82.667 8 145.667 34.833 189 80.5s65 108.167 65 187.5
c0 57.333 -12.167 107.666 -36.5 150.999s-59.333 77 -105 101s-99.167 36 -160.5 36c-74.667 0 -140.5 -16 -197.5 -48s-101.167 -76.5 -132.5 -133.5s-47 -122.5 -47 -196.5s15.833 -138 47.5 -192s76.667 -95.333 135 -124s126.166 -43 203.499 -43l1 -4l-13 -16
c-78 1.33301 -146.667 17.666 -206 48.999s-105.5 75 -138.5 131s-49.5 121 -49.5 195c0 79.333 16.5 149.5 49.5 210.5s79.5 108.167 139.5 141.5s129.333 50 208 50c64.667 0 121.334 -13 170.001 -39zM333 64.0049c24 26.667 51.667 63.667 83 111s62 101 92 161l3 26
l7 70l-60 5c-42 -0.666992 -78.833 -14.834 -110.5 -42.501s-56 -64 -73 -109s-25.5 -93.167 -25.5 -144.5c0 -27.333 2.33301 -49.666 7 -66.999s10.167 -30 16.5 -38s11.833 -12 16.5 -12c5.33301 0 20 13.333 44 40z" />
    <glyph glyph-name="A" unicode="A" horiz-adv-x="524" 
d="M470 0h-23l-6 43l-37 170h-283l-85 -170l-20 -43h-24l319 637h21zM318 603h-3l-184 -370h268z" />
    <glyph glyph-name="B" unicode="B" horiz-adv-x="471" 
d="M391.5 290.5c21 -23 31.5 -53.834 31.5 -92.501c0 -63.333 -20.667 -112.666 -62 -147.999s-100.333 -53 -177 -53c-37.333 0 -72 1 -104 3l25 195l56 442l116 2c44 0 78 -11 102 -33s36 -53 36 -93c0 -44.667 -9.66699 -82.167 -29 -112.5s-47 -52.5 -83 -66.5
c38 -6 67.5 -20.5 88.5 -43.5zM144 342.999l121.001 -3.00098c41.333 8.66699 73.166 27.834 95.499 57.501s33.5 66.5 33.5 110.5c0 34 -10 60.833 -30 80.5s-47.333 29.5 -82 29.5h-103zM344.001 63.998c38.667 31.333 58 74.999 58 130.999
c0 36.667 -11.167 65.834 -33.5 87.501s-54.5 34.167 -96.5 37.5h-131l-16 -125l-22 -175c25.333 -2 51.333 -3 78 -3c70 0 124.333 15.667 163 47z" />
    <glyph glyph-name="C" unicode="C" horiz-adv-x="497" 
d="M437 625.5c28 -10.333 52.333 -24.832 73 -43.499l-9 -17h-7c-39.333 37.333 -88 56 -146 56c-57.333 0 -106.5 -14.833 -147.5 -44.5s-72.167 -72 -93.5 -127s-32 -120.5 -32 -196.5c0 -76.667 15.833 -135.5 47.5 -176.5s77.834 -61.5 138.501 -61.5
c30 0 60.667 5.83301 92 17.5s60.666 28.167 87.999 49.5l7 -2l-4 -18c-29.333 -21.333 -60 -37.833 -92 -49.5s-62.667 -17.5 -92 -17.5c-66.667 0 -117.5 22.167 -152.5 66.5s-52.5 107.5 -52.5 189.5c0 80.667 11.667 150.167 35 208.5s57 103.166 101 134.499
s97 47 159 47c30 0 59 -5.16699 87 -15.5z" />
    <glyph glyph-name="D" unicode="D" horiz-adv-x="609" 
d="M520 577.5c39.333 -43 58.999 -104.498 58.999 -184.498c0 -80.667 -12.5 -150.834 -37.5 -210.501s-61.5 -105.834 -109.5 -138.501s-105.333 -49 -172 -49c-21.333 0 -49.666 0.5 -84.999 1.5s-67 2.16699 -95 3.5l25 195l55 442l190 5c74 0 130.667 -21.5 170 -64.5z
M421.499 61.002c44.333 30.667 78.168 74.167 101.501 130.5s35 122.5 35 198.5c0 74.667 -18 132 -54 172s-88 60 -156 60c-20 0 -46.833 -0.5 -80.5 -1.5s-63.5 -2.16699 -89.5 -3.5l-53 -422l-23 -176l56 -2l105 -2c61.333 0 114.166 15.333 158.499 46z" />
    <glyph glyph-name="E" unicode="E" horiz-adv-x="432" 
d="M143 340h223l3 -4l-6 -16h-222l-16 -125l-22 -175h273l3 -4l-6 -16h-293l25 195l55 442h291l2 -4l-6 -16h-269z" />
    <glyph glyph-name="F" unicode="F" horiz-adv-x="394" 
d="M142 330h214l2 -4l-6 -16h-213l-14 -115l-25 -195h-20l25 195l55 442h281l3 -4l-6 -16h-260z" />
    <glyph glyph-name="G" unicode="G" horiz-adv-x="575" 
d="M461.5 627c28.333 -9.33301 55.1689 -22.667 80.502 -40l-8 -18h-7c-50.667 34.667 -101.334 52 -152.001 52c-62.667 0 -116.5 -14.667 -161.5 -44s-79.333 -71.666 -103 -126.999s-35.5 -121.333 -35.5 -198c0 -76 16.333 -134.5 49 -175.5s80 -61.5 142 -61.5
c29.333 0 56.833 2.16699 82.5 6.5s58.5 12.166 98.5 23.499l15 113l10 89l20 2l-10 -91l-17 -128c-44.667 -13.333 -80.667 -22.333 -108 -27s-57.666 -7 -90.999 -7c-68.667 0 -121 22 -157 66s-54 106.667 -54 188s12.833 151.333 38.5 210s62.667 103.5 111 134.5
s106.166 46.5 173.499 46.5c27.333 0 55.166 -4.66699 83.499 -14z" />
    <glyph glyph-name="H" unicode="H" horiz-adv-x="640" 
d="M585 637l-55 -442l-25 -195h-20l25 195l15 119h-385l-15 -119l-25 -195h-20l25 195l55 442h20l-38 -303h385l38 303h20z" />
    <glyph glyph-name="I" unicode="I" horiz-adv-x="235" 
d="M125 195l-25 -195h-20l25 195l55 442h20z" />
    <glyph glyph-name="J" unicode="J" horiz-adv-x="260" 
d="M147 212l-12.002 -97c-6 -46.667 -20.667 -86.167 -44 -118.5s-59.666 -63.833 -108.999 -94.5l-9 11v6c45.333 28 79.333 57.333 102 88s36.334 66.667 41.001 108l11 93l51 409h-125l-4 4l5 16h146z" />
    <glyph glyph-name="K" unicode="K" horiz-adv-x="483" 
d="M125 195l-25 -195h-20l25 195l56 442h20zM198 339c77.333 -118 160.001 -229.332 248.001 -333.999v-4c-2.66699 -2.66699 -7.33398 -5.33398 -14.001 -8.00098l-4 1c-99.333 119.333 -185.333 234.333 -258 345v3l265 248l47 47h32z" />
    <glyph glyph-name="L" unicode="L" horiz-adv-x="382" 
d="M351 16l-6 -16h-264l25 195l55 442h20l-55 -442l-22 -175h244z" />
    <glyph glyph-name="M" unicode="M" horiz-adv-x="742" 
d="M640 0h-21l6 195l8 394h-4l-265 -508h-25l-133 508h-4l-90 -394l-44 -195h-21l146 637h23l26 -99l110 -428h4l231 439l46 88h24z" />
    <glyph glyph-name="N" unicode="N" horiz-adv-x="640" 
d="M526 176l-23 -176h-19l-304 595h-4l-51 -396l-25 -199h-20l24 190l57 447h19l304 -595h4l77 594l20 2z" />
    <glyph glyph-name="O" unicode="O" horiz-adv-x="599" 
d="M513.5 577c36.333 -43.333 54.501 -105.335 54.501 -186.002c0 -81.333 -11.833 -151.666 -35.5 -210.999s-58 -105 -103 -137s-99.167 -48 -162.5 -48c-68 0 -120.167 22.333 -156.5 67s-54.5 108.334 -54.5 191.001c0 80.667 11.667 150.167 35 208.5
s57.5 103 102.5 134s98.833 46.5 161.5 46.5c69.333 0 122.166 -21.667 158.499 -65zM205.001 577.998c-41.333 -29.333 -73 -71.5 -95 -126.5s-33 -120.167 -33 -195.5c0 -76.667 16.5 -136 49.5 -178s80.167 -63 141.5 -63c58 0 108 15.167 150 45.5s74 73.333 96 129
s33 121.5 33 197.5c0 75.333 -16.333 133.333 -49 174s-80.667 61 -144 61c-58 0 -107.667 -14.667 -149 -44z" />
    <glyph glyph-name="P" unicode="P" horiz-adv-x="464" 
d="M405 600c26 -26 39 -63.001 39 -111.001c0 -75.333 -20 -134.166 -60 -176.499s-96.667 -63.5 -170 -63.5h-82l-7 -54l-25 -195h-20l25 195l55 442l133 2c48.667 0 86 -13 112 -39zM376.5 335.499c31.667 39 47.501 88.833 47.501 149.5
c0 41.333 -10.833 73.5 -32.5 96.5s-52.834 35.5 -93.501 37.5l-120 -1l-44 -349h112c55.333 5.33301 98.833 27.5 130.5 66.5z" />
    <glyph glyph-name="Q" unicode="Q" horiz-adv-x="592" 
d="M475 -110c58.667 -28 121 -46.002 187 -54.002l-1 -6c-6 -8 -9.33301 -12 -10 -12h-4c-67.333 8.66699 -131.333 28.334 -192 59.001s-115 70.334 -163 119.001c-5.33301 -0.666992 -13.666 -1 -24.999 -1c-68 0 -120.167 22.333 -156.5 67s-54.5 108.334 -54.5 191.001
c0 80.667 11.667 150.167 35 208.5s57.5 103 102.5 134s98.833 46.5 161.5 46.5c69.333 0 122.166 -21.667 158.499 -65s54.5 -105.333 54.5 -186c0 -111.333 -21.833 -201.333 -65.5 -270s-105.167 -109.334 -184.5 -122.001c46 -44.667 98.333 -81 157 -109zM126.5 77.998
c33 -42 80.167 -63 141.5 -63c58 0 108 15.167 150 45.5s74 73.333 96 129s33 121.5 33 197.5c0 75.333 -16.333 133.333 -49 174s-80.667 61 -144 61c-58 0 -107.667 -14.667 -149 -44s-73 -71.5 -95 -126.5s-33 -120.167 -33 -195.5c0 -76.667 16.5 -136 49.5 -178z" />
    <glyph glyph-name="R" unicode="R" horiz-adv-x="494" 
d="M402 348.5c-28.667 -39 -69.334 -66.499 -122.001 -82.499c40 -89.333 85.667 -176.333 137 -261l-1 -4c-3.33301 -3.33301 -7.66602 -6 -12.999 -8l-5 2c-54 91.333 -100.667 180.666 -140 267.999h-125l-8 -68l-25 -195h-20l25 195l55 442l133 2
c48.667 0 86.167 -12.833 112.5 -38.5s39.5 -62.167 39.5 -109.5c0 -56 -14.333 -103.5 -43 -142.5zM136 283.001h134c49.333 13.333 87.5 37.833 114.5 73.5s40.5 79.5 40.5 131.5c0 40 -10.833 71.333 -32.5 94s-53.167 35 -94.5 37l-120 -1z" />
    <glyph glyph-name="S" unicode="S" horiz-adv-x="423" 
d="M398 611l-5.99414 -18.0049l-7 -1c-30.667 18.667 -65.334 28 -104.001 28c-32 0 -60.667 -6.83301 -86 -20.5s-45 -31.5 -59 -53.5s-21 -45 -21 -69c0 -22 5.33301 -41.333 16 -58s23.5 -30.834 38.5 -42.501s35.833 -25.5 62.5 -41.5
c29.333 -17.333 52.666 -32.666 69.999 -45.999s32 -30.166 44 -50.499s18 -44.166 18 -71.499c0 -30.667 -8.83301 -59.167 -26.5 -85.5s-41.667 -47.166 -72 -62.499s-63.5 -23 -99.5 -23c-24.667 0 -49.334 4 -74.001 12s-46 19.667 -64 35l3 19l6 2
c17.333 -16 37.666 -28 60.999 -36s46.666 -12 69.999 -12c33.333 0 63.5 7 90.5 21s48 32.333 63 55s22.5 47 22.5 73c0 23.333 -5.5 43.833 -16.5 61.5s-24.333 32.5 -40 44.5s-37.167 26.333 -64.5 43c-28.667 18 -51.334 33.333 -68.001 46
s-30.834 28.834 -42.501 48.501s-17.5 42.834 -17.5 69.501c0 30 8.33301 57.333 25 82s39.334 44.167 68.001 58.5s60.667 21.5 96 21.5c40.667 0 78.667 -9.66699 114 -29z" />
    <glyph glyph-name="T" unicode="T" horiz-adv-x="450" 
d="M474 633l-6 -16h-183l-54 -422l-24 -195h-20l24 195l54 422h-185l-3 4l6 16h388z" />
    <glyph glyph-name="U" unicode="U" horiz-adv-x="583" 
d="M510 312l-10.001 -83.001c-7.33301 -74 -31.5 -131.333 -72.5 -172s-94.833 -61 -161.5 -61c-59.333 0 -105 15.5 -137 46.5s-48 75.5 -48 133.5c0 19.333 1.33301 37 4 53l13 93l40 315h20l-53 -408c-2.66699 -22.667 -4 -39 -4 -49
c0 -52.667 14.167 -93.167 42.5 -121.5s68.833 -42.5 121.5 -42.5c60.667 0 109.334 18.333 146.001 55s59.667 89.334 69 158.001l51 408h20z" />
    <glyph glyph-name="V" unicode="V" horiz-adv-x="508" 
d="M232 0h-22l-139 637h23l7 -43l122 -560h4l280 560l18 43h24z" />
    <glyph glyph-name="W" unicode="W" horiz-adv-x="834" 
d="M559 0h-20l-91 438h-4l-213 -438h-22l-135 637h23l7 -43l119 -560h4l213 437l-36 166h22l7 -43l118 -560h4l276 560l19 43h23z" />
    <glyph glyph-name="X" unicode="X" horiz-adv-x="537" 
d="M290 329l173 -329h-25l-16 38l-148 276l-215 -278l-25 -36h-27l257 331l-161 306h26l16 -35l134 -256l195 251l27 40h27z" />
    <glyph glyph-name="Y" unicode="Y" horiz-adv-x="469" 
d="M238 247l-7 -52l-24 -195h-20l24 195l7 50l-141 392h25l7 -26l120 -334h5l218 334l14 26h26z" />
    <glyph glyph-name="Z" unicode="Z" horiz-adv-x="482" 
d="M487 620l-453 -600h310l65 1l4 -5l-6 -16h-368l-34 -1l2 18l453 600h-300l-55 -1l-4 5l6 17l61 -1h286l35 1z" />
    <glyph glyph-name="bracketleft" unicode="[" horiz-adv-x="282" 
d="M315 642l-2 -15l-131 -9l-88 -723l128 -9l-1 -15l-5 -4l-145 10l47 380l47 379l147 10z" />
    <glyph glyph-name="backslash" unicode="\" horiz-adv-x="360" 
d="M84 670l3 5h16l204 -781l-3 -4h-16z" />
    <glyph glyph-name="bracketright" unicode="]" horiz-adv-x="282" 
d="M-26 -129l2 15l131 9l88 723l-128 9l1 15l5 4l145 -10l-47 -380l-47 -379l-147 -10z" />
    <glyph glyph-name="asciicircum" unicode="^" horiz-adv-x="407" 
d="M369 121l-2 -4l-16 -5l-110 350h-4l-207 -346l-5 -3l-13 7l216 364l4 3h22z" />
    <glyph glyph-name="underscore" unicode="_" horiz-adv-x="455" 
d="M431 -89l-4 -17h-480l-2 3l4 17h480z" />
    <glyph glyph-name="grave" unicode="`" horiz-adv-x="405" 
d="M329 532l-11 -12.999l-5 -1c-50 44 -98 89 -144 135l-1 5l10 10l5 1c51.333 -52.667 100 -98.334 146 -137.001z" />
    <glyph glyph-name="a" unicode="a" horiz-adv-x="473" 
d="M404 0h-23l-6 35l-30 126h-234l-66 -126l-16 -35h-23l257 491h22zM272 461h-3l-148 -281h219z" />
    <glyph glyph-name="b" unicode="b" horiz-adv-x="428" 
d="M339 223c17.333 -18 26.0029 -41.999 26.0029 -71.999c0 -48.667 -17.333 -86.334 -52 -113.001s-83.334 -40 -146.001 -40c-40.667 0 -70.334 0.666992 -89.001 2l20 150l43 341l99 1c37.333 0 66.333 -8.83301 87 -26.5s31 -42.167 31 -73.5
c0 -33.333 -8 -61.333 -24 -84s-38.667 -39.667 -68 -51c31.333 -4.66699 55.666 -16 72.999 -34zM132.003 265.001l101 -1.99902c32 6 57 20.167 75 42.5s27 50.166 27 83.499c0 26 -8.16699 46.5 -24.5 61.5s-39.5 22.5 -69.5 22.5h-82zM297.003 51.502
c31.333 23.667 46.999 56.167 46.999 97.5c0 28.667 -9.16699 51 -27.5 67s-45.166 25.667 -80.499 29l-106 -1l-12 -93l-18 -132c21.333 -2 43.333 -3 66 -3c56 0 99.667 11.833 131 35.5z" />
    <glyph glyph-name="c" unicode="c" horiz-adv-x="448" 
d="M371.5 482.5c23.667 -7.66699 44.167 -18.499 61.5 -32.499l-8 -18h-6c-15.333 13.333 -33.5 23.833 -54.5 31.5s-42.833 11.5 -65.5 11.5c-70 0 -124.167 -24.333 -162.5 -73s-57.5 -116.667 -57.5 -204c0 -58.667 13 -103.834 39 -135.501s63.667 -47.5 113 -47.5
c24.667 0 50 4.5 76 13.5s50.333 21.5 73 37.5l5 -2l-4 -18c-24 -16 -48.833 -28.333 -74.5 -37s-50.5 -13 -74.5 -13c-56 0 -99 17.333 -129 52s-45 84 -45 148c0 93.333 21 166.333 63 219s101.667 79 179 79c24 0 47.833 -3.83301 71.5 -11.5z" />
    <glyph glyph-name="d" unicode="d" horiz-adv-x="543" 
d="M441.5 443.5c33.667 -34.333 50.499 -82.5 50.499 -144.5c0 -94 -23 -168 -69 -222s-110.333 -81 -193 -81c-18.667 0 -42.667 0.333008 -72 1s-55.666 1.66699 -78.999 3l19 150l43 341l157 4c62 0 109.833 -17.167 143.5 -51.5zM407.999 90.5
c42 50.333 63.001 119.167 63.001 206.5c0 57.333 -15 101.333 -45 132s-73 46 -129 46l-138 -4l-41 -320l-17 -132c21.333 -1.33301 44.666 -2.33301 69.999 -3s46 -1 62 -1c74.667 0 133 25.167 175 75.5z" />
    <glyph glyph-name="e" unicode="e" horiz-adv-x="397" 
d="M131 264h185l2 -4l-5 -16h-184l-12 -93l-17 -132h227l3 -3l-6 -16h-246l19 150l43 341h244l3 -4l-6 -16l-223 1z" />
    <glyph glyph-name="f" unicode="f" horiz-adv-x="356" 
d="M125 255h98l77 1l2 -4l-5 -16h-174l-11 -85l-20 -151h-20l20 150l43 341h235l1 -4l-5 -16l-213 1z" />
    <glyph glyph-name="g" unicode="g" horiz-adv-x="513" 
d="M460 453l-8.00098 -17.998h-5c-44 26.667 -85.667 40 -125 40c-77.333 0 -137.333 -24.167 -180 -72.5s-64 -116.5 -64 -204.5c0 -58.667 13.667 -103.834 41 -135.501s66.333 -47.5 117 -47.5c24 0 46.333 1.66699 67 5s47.334 9.33301 80.001 18l10 84l9 61l20 2
l-9 -62l-12 -100c-37.333 -10 -67.333 -16.833 -90 -20.5s-47.667 -5.5 -75 -5.5c-57.333 0 -101.5 17.167 -132.5 51.5s-46.5 83.166 -46.5 146.499c0 95.333 23 169 69 221s111.333 78 196 78c46.667 0 92.667 -13.667 138 -41z" />
    <glyph glyph-name="h" unicode="h" horiz-adv-x="566" 
d="M494 491l-42 -340l-20 -151h-20l20 150l11 90h-314l-11 -89l-20 -151h-20l20 150l42 341h20l-29 -232h314l29 232h20z" />
    <glyph glyph-name="i" unicode="i" horiz-adv-x="233" 
d="M118 151l-20 -151h-20l20 150l42 341h20z" />
    <glyph glyph-name="j" unicode="j" horiz-adv-x="261" 
d="M137 163l-9 -74c-4.66699 -36.667 -15.5 -67.5 -32.5 -92.5s-43.833 -49.167 -80.5 -72.5l-9 13v5c32 21.333 56 43.5 72 66.5s26 50.167 30 81.5l8 70l39 312h-102l-3 3l5 16h122z" />
    <glyph glyph-name="k" unicode="k" horiz-adv-x="439" 
d="M118 151l-20 -151h-20l20 150l42 341h20zM178 261c62 -88.667 131.667 -174.001 209 -256.001l-2 -4c-2 -1.33301 -7.33301 -3.66602 -16 -6.99902l-3 2c-80.667 89.333 -152 177.333 -214 264v3l216 191l38 37h28z" />
    <glyph glyph-name="l" unicode="l" horiz-adv-x="354" 
d="M305 16l-5 -16h-221l20 150l43 341h20l-43 -340l-17 -132h202z" />
    <glyph glyph-name="m" unicode="m" horiz-adv-x="650" 
d="M544 0h-20l5 150l2 297h-4l-211 -385h-23l-111 385h-4l-71 -296l-35 -151h-21l116 491h24l21 -76l94 -324h3l184 332l37 68h23z" />
    <glyph glyph-name="n" unicode="n" horiz-adv-x="566" 
d="M449 137l-19 -137h-20l-252 451h-2l-39 -297l-19 -154h-20l19 146l44 345h20l252 -451h4l57 450l20 2z" />
    <glyph glyph-name="o" unicode="o" horiz-adv-x="533" 
d="M435.5 443c31 -34.667 46.499 -83.332 46.499 -145.999c0 -94 -21.667 -167.667 -65 -221s-103.666 -80 -180.999 -80c-57.333 0 -101.5 17.667 -132.5 53s-46.5 85 -46.5 149c0 93.333 21.5 166.166 64.5 218.499s103.5 78.5 181.5 78.5
c57.333 0 101.5 -17.333 132.5 -52zM136.999 403.002c-38.667 -48 -58 -115.667 -58 -203c0 -59.333 13.333 -104.833 40 -136.5s65.334 -47.5 116.001 -47.5c70.667 0 126 24.5 166 73.5s60 117.167 60 204.5c0 58.667 -13.667 103.5 -41 134.5s-67 46.5 -119 46.5
c-70.667 0 -125.334 -24 -164.001 -72z" />
    <glyph glyph-name="p" unicode="p" horiz-adv-x="424" 
d="M348 460.5c22.667 -21 33.999 -50.166 33.999 -87.499c0 -54.667 -17 -98.834 -51 -132.501s-80.333 -50.5 -139 -50.5h-69l-5 -39l-19 -151h-20l19 150l43 341l112 1c40.667 0 72.334 -10.5 95.001 -31.5zM321.999 259.001c25.333 28.667 38 65.999 38 111.999
c0 32 -8.83301 56.667 -26.5 74s-43.5 27 -77.5 29l-97 -1l-34 -264h92c44.667 4.66699 79.667 21.334 105 50.001z" />
    <glyph glyph-name="q" unicode="q" horiz-adv-x="527" 
d="M401.5 -83c45.667 -21.333 93.5 -34.999 143.5 -40.999l-1 -5l-8 -12h-4c-51.333 6.66699 -100.833 22 -148.5 46s-90.167 54.667 -127.5 92c-4 -0.666992 -10.667 -1 -20 -1c-57.333 0 -101.5 17.667 -132.5 53s-46.5 85 -46.5 149c0 93.333 21.5 166.166 64.5 218.499
s103.5 78.5 181.5 78.5c57.333 0 101.5 -17.333 132.5 -52s46.5 -83.334 46.5 -146.001c0 -84.667 -17.5 -153 -52.5 -205s-84.833 -83 -149.5 -93c35.333 -33.333 75.833 -60.666 121.5 -81.999zM401 89.501c40 49 60 117.167 60 204.5c0 58.667 -13.667 103.5 -41 134.5
s-67 46.5 -119 46.5c-70.667 0 -125.334 -24 -164.001 -72s-58 -115.667 -58 -203c0 -59.333 13.333 -104.833 40 -136.5s65.334 -47.5 116.001 -47.5c70.667 0 126 24.5 166 73.5z" />
    <glyph glyph-name="r" unicode="r" horiz-adv-x="450" 
d="M347 268.5c-23.333 -29.667 -56.333 -50.832 -99 -63.499c34 -68.667 72.333 -135.334 115 -200.001v-4l-15 -7l-6 3c-44.667 71.333 -83 139.333 -115 204h-103l-6 -50l-19 -151h-20l19 150l43 341l110 1c41.333 0 73.5 -10.167 96.5 -30.5s34.5 -48.833 34.5 -85.5
c0 -42 -11.667 -77.833 -35 -107.5zM127 222.002l108 -1c40 10 71 28.167 93 54.5s33 58.833 33 97.5c0 30.667 -9 54.667 -27 72s-44.333 27 -79 29l-96 -1z" />
    <glyph glyph-name="s" unicode="s" horiz-adv-x="387" 
d="M338 471l-7 -17.999l-6 -1c-25.333 14 -54 21 -86 21c-26 0 -49 -5.33301 -69 -16s-35.333 -24.5 -46 -41.5s-16 -34.833 -16 -53.5c0 -23.333 8 -42.166 24 -56.499s40.333 -29.5 73 -45.5c24 -12 43.333 -22.833 58 -32.5s27.167 -22.167 37.5 -37.5s15.5 -34 15.5 -56
c0 -24 -6.83301 -46.5 -20.5 -67.5s-32.667 -37.833 -57 -50.5s-51.5 -19 -81.5 -19c-20.667 0 -41.667 3.16699 -63 9.5s-39.333 15.166 -54 26.499l2 20l5 1c14.667 -12 32 -21.167 52 -27.5s39.667 -9.5 59 -9.5c26 0 49.667 5.66699 71 17s37.833 26.166 49.5 44.499
s17.5 37.166 17.5 56.499c0 24 -8.16699 43 -24.5 57s-40.833 29.333 -73.5 46c-24.667 12.667 -44.167 23.834 -58.5 33.501s-26.5 22 -36.5 37s-15 33.167 -15 54.5c0 23.333 6.5 44.833 19.5 64.5s31 35.5 54 47.5s49.167 18 78.5 18c34 0 66.667 -7.33301 98 -22z" />
    <glyph glyph-name="t" unicode="t" horiz-adv-x="411" 
d="M403 487l-5 -16l-80 1h-70l-41 -321l-19 -151h-20l19 150l41 322h-72l-81 -1l-2 4l5 16h324z" />
    <glyph glyph-name="u" unicode="u" horiz-adv-x="522" 
d="M436 240l-8.00098 -64c-6 -56.667 -25.833 -100.667 -59.5 -132s-78.5 -47 -134.5 -47c-50 0 -88.333 12.167 -115 36.5s-40 59.5 -40 105.5c0 12 1 24.333 3 37l11 72l30 243h21l-42 -314c-1.33301 -8 -2 -19.333 -2 -34c0 -41.333 11.5 -72.833 34.5 -94.5
s56.5 -32.5 100.5 -32.5c49.333 0 88.833 13.833 118.5 41.5s47.834 67.5 54.501 119.5l40 314h20z" />
    <glyph glyph-name="v" unicode="v" horiz-adv-x="460" 
d="M207 0h-21l-118 491h23l5 -35l103 -426h2l225 426l17 35h23z" />
    <glyph glyph-name="w" unicode="w" horiz-adv-x="728" 
d="M481 0h-21l-80 331h-3l-170 -331h-21l-115 491h23l4 -35l101 -425h2l172 332l-30 128h22l6 -36l100 -424h4l220 425l16 35h22z" />
    <glyph glyph-name="x" unicode="x" horiz-adv-x="483" 
d="M253 252l147 -252h-25l-16 30l-121 207l-172 -208l-21 -29h-27l209 257l-136 234h27l14 -28l110 -192l156 188l23 32h28z" />
    <glyph glyph-name="y" unicode="y" horiz-adv-x="428" 
d="M212 185l-4 -36l-20 -149h-20l20 149l5 40l-120 302h25l6 -21l100 -253h4l176 253l12 21h25z" />
    <glyph glyph-name="z" unicode="z" horiz-adv-x="436" 
d="M412 474l-366 -455h252l56 1l3 -4l-5 -16h-305l-30 -1l2 17l367 456h-245l-47 -1l-3 4l5 17l53 -1h236l30 1z" />
    <glyph glyph-name="braceleft" unicode="{" horiz-adv-x="282" 
d="M308 648l2.99902 -2.99902l-6 -17c-18 3.33301 -31 5 -39 5c-29.333 0 -50.666 -10.5 -63.999 -31.5s-20 -57.167 -20 -108.5l1 -95c0 -40.667 -6.66699 -72.167 -20 -94.5s-33.666 -38.833 -60.999 -49.5v-2c36 -14.667 54 -43.667 54 -87
c0 -12.667 -1.83301 -26.834 -5.5 -42.501s-9.16699 -37.167 -16.5 -64.5c-8 -31.333 -13.833 -55.166 -17.5 -71.499s-5.5 -31.5 -5.5 -45.5c0 -45.333 20.667 -68 62 -68c8 0 21.333 1.66699 40 5l2 -17l-4 -3c-12 -3.33301 -24.667 -5 -38 -5
c-26.667 0 -47 7.33301 -61 22s-21 36.334 -21 65.001c0 13.333 1.66699 28.166 5 44.499s7 32.166 11 47.499l8 31c7.33301 25.333 12.666 45.5 15.999 60.5s5 28.167 5 39.5c0 24 -6.66699 42.667 -20 56s-34.333 21.666 -63 24.999l2 18
c38 4.66699 65.5 17.334 82.5 38.001s25.5 54 25.5 100l-1 94c0 56 9.16699 96.5 27.5 121.5s45.833 37.5 82.5 37.5c12.667 0 24.667 -1.66699 36 -5z" />
    <glyph glyph-name="bar" unicode="|" horiz-adv-x="321" 
d="M240 789l-62 -504l-68 -550h-17l-2 4l67 546l62 504l18 2z" />
    <glyph glyph-name="braceright" unicode="}" horiz-adv-x="282" 
d="M-20 -142l-2.99902 2.99902l6 17c18 -3.33301 31 -5 39 -5c29.333 0 50.666 10.5 63.999 31.5s20 57.167 20 108.5l-1 95c0 40.667 6.66699 72.167 20 94.5s33.666 38.833 60.999 49.5v2c-36 15.333 -54 44.333 -54 87c0 12.667 1.83301 26.834 5.5 42.501
s9.16699 37.167 16.5 64.5c8 31.333 13.833 55.166 17.5 71.499s5.5 31.5 5.5 45.5c0 45.333 -20.667 68 -62 68c-8 0 -21.333 -1.66699 -40 -5l-2 17l4 3c12 3.33301 24.667 5 38 5c26.667 0 47 -7.33301 61 -22s21 -36.334 21 -65.001
c0 -13.333 -1.66699 -28.166 -5 -44.499s-7 -32.166 -11 -47.499l-8 -31c-7.33301 -25.333 -12.666 -45.5 -15.999 -60.5s-5 -28.167 -5 -39.5c0 -24 6.66699 -42.667 20 -56s34.333 -21.666 63 -24.999l-2 -18c-38 -4.66699 -65.5 -17.334 -82.5 -38.001
s-25.5 -54 -25.5 -100l1 -94c0 -56 -9.16699 -96.5 -27.5 -121.5s-45.833 -37.5 -82.5 -37.5c-12.667 0 -24.667 1.66699 -36 5z" />
    <glyph glyph-name="asciitilde" unicode="~" horiz-adv-x="481" 
d="M131 272.5c-6 -4.33301 -15.333 -11.833 -28 -22.5l-19 -17h-6l-7 9v5l64 53l6 3c10.667 -1.33301 26.667 -4.83301 48 -10.5s36.333 -9.5 45 -11.5c52.667 -15.333 85.667 -23 99 -23c5.33301 0 11.333 2.5 18 7.5s14.667 11.667 24 20l21 18.5h6l7 -10v-4l-65 -54
l-6 -2c-15.333 1.33301 -49 9.33301 -101 24c-48.667 14 -78.667 21 -90 21c-4.66699 0 -10 -2.16699 -16 -6.5z" />
    <glyph glyph-name="uni00A0" unicode="&#xa0;" horiz-adv-x="161" 
 />
    <glyph glyph-name="exclamdown" unicode="&#xa1;" horiz-adv-x="224" 
d="M125 482c0 5.33301 1.66699 9.83301 5 13.5s8 5.5 14 5.5c5.33301 0 9.83301 -1.83301 13.5 -5.5s5.5 -8.16699 5.5 -13.5c0 -6 -1.83301 -10.667 -5.5 -14s-8.16699 -5 -13.5 -5c-12.667 0 -19 6.33301 -19 19zM64 0l53 363h14l4 -5l-52 -358l-3 -3h-13z" />
    <glyph glyph-name="cent" unicode="&#xa2;" horiz-adv-x="380" 
d="M345 476l-5.99902 -14.002l-5 -3c-26.667 15.333 -49.334 23 -68.001 23c-8 0 -14 -0.333008 -18 -1l-73 -419c43.333 8.66699 81 42 113 100h6l8 -11c-19.333 -33.333 -39.333 -58.166 -60 -74.499s-44 -27.166 -70 -32.499l-28 -158h-15l-4 4l27 151h-5
c-19.333 3.33301 -35.5 9 -48.5 17s-23.5 22.5 -31.5 43.5s-12 50.833 -12 89.5c0 81.333 14.667 149.333 44 204s73 88.667 131 102l26 153h16l5 -5l-26 -145c13.333 1.33301 23.333 2 30 2l59 -19zM226.001 476.998c-48 -11.333 -85.167 -42.168 -111.5 -92.501
s-39.5 -115.166 -39.5 -194.499c0 -45.333 6.66699 -78.333 20 -99s33 -31 59 -31h1z" />
    <glyph glyph-name="sterling" unicode="&#xa3;" horiz-adv-x="384" 
d="M371 572l-4.99805 -19l-3 -2c-26 13.333 -55.667 20 -89 20c-70.667 0 -111.334 -41.333 -122.001 -124l-15 -119h126l2 -4l-5 -16h-125l-22 -178c-6 -49.333 -23.667 -85.333 -53 -108v-2h188l69 1l3 -5l-5 -16h-307l-3 4l5 14
c22.667 3.33301 41.167 14.666 55.5 33.999s23.5 45.333 27.5 78l22 178h-67l-3 4l5 16h67l15 119c6 46.667 21 82.334 45 107.001s56.333 37 97 37c29.333 0 61.666 -6.33301 96.999 -19z" />
    <glyph glyph-name="currency" unicode="&#xa4;" horiz-adv-x="436" 
d="M417 520l-1.00098 -5l-72 -64c14.667 -20 22 -43.667 22 -71c0 -18 -3.83301 -35.333 -11.5 -52s-18.167 -31.334 -31.5 -44.001l58 -66l-1 -5l-12 -10l-5 1l-57 65c-25.333 -21.333 -54 -32 -86 -32c-15.333 0 -30 2.83301 -44 8.5s-26 13.5 -36 23.5l-74 -66l-5 1
l-8 10l1 5l73 65c-6.66699 8.66699 -12 19.334 -16 32.001s-6 25.667 -6 39c0 35.333 14.333 67.333 43 96l-58 66l2 5l10 9h5l58 -66c25.333 21.333 54 32 86 32c30.667 0 57.334 -10.333 80.001 -31l73 65l5 -1zM188.499 460.5c-19 -11 -34.333 -25.833 -46 -44.5
s-17.5 -38.667 -17.5 -60c0 -27.333 9.33301 -50.666 28 -69.999s41.667 -29 69 -29c21.333 0 41.5 5.5 60.5 16.5s34.333 25.833 46 44.5s17.5 38.667 17.5 60c0 27.333 -9.33301 50.666 -28 69.999s-41.667 29 -69 29c-21.333 0 -41.5 -5.5 -60.5 -16.5z" />
    <glyph glyph-name="yen" unicode="&#xa5;" horiz-adv-x="458" 
d="M433 280l3 -3l-5 -17h-153l-52 -75l-4 -35h195l3 -3l-5 -17h-196l-17 -130h-20l17 130h-181l-2 3l4 17h182l5 39l-29 71h-144l-2 3l4 17h134l-86 211h25l6 -21l103 -253h4l179 253l13 21h25l-147 -211h141z" />
    <glyph glyph-name="brokenbar" unicode="&#xa6;" horiz-adv-x="321" 
d="M240 789l-52 -421l-17 -2l-3 3l52 420l18 2zM162 155l-52 -420h-17l-2 4l51 418l17 3z" />
    <glyph glyph-name="section" unicode="&#xa7;" horiz-adv-x="383" 
d="M363 620l-5.99902 -19l-6 -1c-27.333 13.333 -54.666 20 -81.999 20c-24.667 0 -46.334 -5.16699 -65.001 -15.5s-33 -23.5 -43 -39.5s-15 -32.333 -15 -49c0 -20.667 7.16699 -39.834 21.5 -57.501s36.833 -39.834 67.5 -66.501
c33.333 -29.333 58.666 -55.166 75.999 -77.499s26 -47.166 26 -74.499c0 -52.667 -35.333 -97 -106 -133c22.667 -27.333 34 -54.666 34 -81.999c0 -22.667 -7 -44 -21 -64s-33 -36 -57 -48s-50.333 -18 -79 -18c-20 0 -39.667 3.16699 -59 9.5s-36.333 14.833 -51 25.5
l5 17l6 3c28.667 -23.333 62.667 -35 102 -35c26 0 49.167 5.16699 69.5 15.5s36 23.666 47 39.999s16.5 33.5 16.5 51.5c0 22.667 -7.5 43.334 -22.5 62.001s-38.167 41.667 -69.5 69c-32.667 28 -57.5 52.667 -74.5 74s-25.5 45.333 -25.5 72s9.5 51.667 28.5 75
s44.833 43.666 77.5 60.999c-22 26.667 -33 53.334 -33 80.001c0 22 6.66699 42.667 20 62s31.333 34.666 54 45.999s47.667 17 75 17c29.333 0 59 -6.66699 89 -20zM294.001 302.5c-15.333 19 -39.001 42.5 -71.001 70.5c-24 21.333 -41.333 37.333 -52 48
c-31.333 -16 -55.666 -34.5 -72.999 -55.5s-26 -42.5 -26 -64.5s7.5 -42.333 22.5 -61s38.5 -41.667 70.5 -69c28 -24.667 45.667 -41 53 -49c66 31.333 99 70 99 116c0 24 -7.66699 45.5 -23 64.5z" />
    <glyph glyph-name="dieresis" unicode="&#xa8;" horiz-adv-x="401" 
d="M184.5 610.5c3.66699 -3.66699 5.5 -8.5 5.5 -14.5s-1.83301 -10.833 -5.5 -14.5s-8.5 -5.5 -14.5 -5.5s-10.833 1.83301 -14.5 5.5s-5.5 8.5 -5.5 14.5s1.83301 10.833 5.5 14.5s8.5 5.5 14.5 5.5s10.833 -1.83301 14.5 -5.5zM334.5 610.5
c3.66699 -3.66699 5.5 -8.5 5.5 -14.5s-1.83301 -10.833 -5.5 -14.5s-8.5 -5.5 -14.5 -5.5s-10.833 1.83301 -14.5 5.5s-5.5 8.5 -5.5 14.5s1.83301 10.833 5.5 14.5s8.5 5.5 14.5 5.5s10.833 -1.83301 14.5 -5.5z" />
    <glyph glyph-name="copyright" unicode="&#xa9;" horiz-adv-x="688" 
d="M504 560c44 -25.333 78.167 -61 102.5 -107s36.5 -99.333 36.5 -160s-12.167 -114 -36.5 -160s-58.5 -81.667 -102.5 -107s-95 -38 -153 -38s-109 12.667 -153 38s-78 61 -102 107s-36 99.333 -36 160s12 114 36 160s58 81.667 102 107s95 38 153 38s109 -12.667 153 -38
zM208.5 542.5c-41 -23.667 -72.667 -57 -95 -100s-33.5 -92.833 -33.5 -149.5s11.167 -106.5 33.5 -149.5s54 -76.333 95 -100s88.5 -35.5 142.5 -35.5s101.5 11.833 142.5 35.5s72.833 57 95.5 100s34 92.833 34 149.5s-11.333 106.5 -34 149.5s-54.5 76.333 -95.5 100
s-88.5 35.5 -142.5 35.5s-101.5 -11.833 -142.5 -35.5zM458 436l-5.00098 -17.998h-5c-24 18 -53.333 27 -88 27c-42 0 -74.167 -12.833 -96.5 -38.5s-33.5 -62.834 -33.5 -111.501s10.833 -85.834 32.5 -111.501s52.5 -38.5 92.5 -38.5c16.667 0 33.834 2.83301 51.501 8.5
s33.5 13.5 47.5 23.5l4 -1l-2 -19c-34.667 -21.333 -68.667 -32 -102 -32c-46.667 0 -82.334 14.667 -107.001 44s-37 71.333 -37 126s12.833 96.667 38.5 126s62.834 44 111.501 44c35.333 0 68 -9.66699 98 -29z" />
    <glyph glyph-name="ordfeminine" unicode="&#xaa;" horiz-adv-x="299" 
d="M285 643l-30 -225.001l-5 -68l-23 -3l22 169h-4c-38 -71.333 -80.333 -127.666 -127 -168.999h-8c-14 8.66699 -23.833 20 -29.5 34s-8.5 33.667 -8.5 59c0 54.667 13.167 101.167 39.5 139.5s62.833 59.5 109.5 63.5h3l43 -4l14 6zM145 395.499
c14.667 16.333 32 39.333 52 69s39.333 63.167 58 100.5l2 16l4 41l-40 3c-39.333 -0.666992 -70.833 -18.5 -94.5 -53.5s-35.5 -77.167 -35.5 -126.5c0 -24.667 3 -43.167 9 -55.5s11.667 -18.5 17 -18.5c4 0 13.333 8.16699 28 24.5z" />
    <glyph glyph-name="guillemotleft" unicode="&#xab;" horiz-adv-x="360" 
d="M212 220l2 11l175 165l11 -9l-1 -6l-164 -158l126 -158l-1 -6l-13 -9zM66 220l2 11l175 165l11 -9l-1 -6l-164 -158l126 -158l-1 -6l-13 -9z" />
    <glyph glyph-name="logicalnot" unicode="&#xac;" horiz-adv-x="480" 
d="M422 274l-25 -203l-17 -2l-3 3l23 188h-358l-2 3l4 17h373z" />
    <glyph glyph-name="uni00AD" unicode="&#xad;" horiz-adv-x="312" 
d="M286 277l-1 -16l-250 -33l-3 4l2 16l249 33z" />
    <glyph glyph-name="registered" unicode="&#xae;" horiz-adv-x="432" 
d="M345 654c32 -32 48 -74.667 48 -128s-16 -96.166 -48 -128.499s-74.667 -48.5 -128 -48.5s-96.166 16.167 -128.499 48.5s-48.5 75.166 -48.5 128.499s16.167 96 48.5 128s75.166 48 128.499 48s96 -16 128 -48zM331 411.5c28.667 29 43 67.167 43 114.5
s-14.333 85.333 -43 114s-66.667 43 -114 43s-85.5 -14.333 -114.5 -43s-43.5 -66.667 -43.5 -114s14.5 -85.5 43.5 -114.5s67.167 -43.5 114.5 -43.5s85.333 14.5 114 43.5zM267.5 538c-7 -10.667 -17.167 -18.666 -30.5 -23.999c17.333 -27.333 35 -51.666 53 -72.999v-3
c-2 -0.666992 -5.5 -1.33398 -10.5 -2.00098s-8.5 -1.33398 -10.5 -2.00098l-3 2c-15.333 20 -32.333 44.667 -51 74h-35v-13l1 -60h-22v192h59c40 0 60 -18.333 60 -55c0 -13.333 -3.5 -25.333 -10.5 -36zM180 530.001l40 -2.00098c24 8 36 22.667 36 44
c0 12 -3.66699 21.333 -11 28s-18 10.334 -32 11.001l-32 -1z" />
    <glyph glyph-name="macron" unicode="&#xaf;" horiz-adv-x="389" 
d="M386 604l-2 -17h-287l-3 3l2 17h287z" />
    <glyph glyph-name="degree" unicode="&#xb0;" horiz-adv-x="295" 
d="M275.5 611c20.333 -20.667 30.499 -46.333 30.499 -77c0 -24 -6.33301 -46 -19 -66s-29.5 -35.833 -50.5 -47.5s-43.5 -17.5 -67.5 -17.5c-31.333 0 -57.166 10.167 -77.499 30.5s-30.5 45.833 -30.5 76.5c0 24 6.33301 46 19 66s29.667 36 51 48s44 18 68 18
c30.667 0 56.167 -10.333 76.5 -31zM140.499 607.001c-17.667 -10 -32.002 -23.5 -43.002 -40.5s-16.5 -34.833 -16.5 -53.5c0 -24.667 8.83301 -45.834 26.5 -63.501s39.167 -26.5 64.5 -26.5c18.667 0 36.834 5 54.501 15s31.834 23.333 42.501 40s16 34.334 16 53.001
c0 25.333 -8.66699 46.833 -26 64.5s-38.333 26.5 -63 26.5c-19.333 0 -37.833 -5 -55.5 -15z" />
    <glyph glyph-name="plusminus" unicode="&#xb1;" horiz-adv-x="479" 
d="M279 468l-23 -188h187l3 -3l-4 -17h-189l-23 -189l-17 -2l-3 3l23 188h-187l-3 3l4 17h189l23 189l17 2zM406 -48l-2 -17h-397l-3 3l2 17h397z" />
    <glyph glyph-name="uni00B2" unicode="&#xb2;" horiz-adv-x="336" 
d="M285.5 683.5c15 -12.333 22.501 -28.5 22.501 -48.5c0 -20.667 -8.16699 -42.5 -24.5 -65.5s-45.5 -56.833 -87.5 -101.5l-108 -116l2 -2h175l61 1l1 -4l-5 -17l-65 1h-169l-29 -1l-2 2l2 15l123 131c40 42.667 67.5 74.167 82.5 94.5s22.5 39.5 22.5 57.5
c0 15.333 -5.66699 28 -17 38s-27 15 -47 15s-39.833 -5 -59.5 -15s-37.834 -24 -54.501 -42h-3l-2 17c16.667 18.667 35.667 33.167 57 43.5s43.333 15.5 66 15.5c24 0 43.5 -6.16699 58.5 -18.5z" />
    <glyph glyph-name="uni00B3" unicode="&#xb3;" horiz-adv-x="294" 
d="M248.5 684.5c15 -12.333 22.5 -28.834 22.5 -49.501c0 -20 -7.66699 -39.333 -23 -58s-35.333 -33.334 -60 -44.001v-2c25.333 -5.33301 44.833 -15.166 58.5 -29.499s20.5 -32.166 20.5 -53.499c0 -34.667 -14.667 -63.167 -44 -85.5s-66.333 -33.5 -111 -33.5
c-20.667 0 -40.334 2 -59.001 6v16l2 2c21.333 -3.33301 41.333 -5 60 -5c38.667 0 70.334 9 95.001 27s37 42 37 72c0 22 -8.66699 39.333 -26 52s-42 19.667 -74 21h-33l-2 2l3 15h29c14 0 29.333 4.16699 46 12.5s30.667 19.666 42 33.999s17 29.833 17 46.5
s-5.83301 29.834 -17.5 39.501s-27.167 14.5 -46.5 14.5c-28.667 0 -59 -13 -91 -39h-3l-2 17c34 27.333 67.333 41 100 41c24.667 0 44.5 -6.16699 59.5 -18.5z" />
    <glyph glyph-name="acute" unicode="&#xb4;" horiz-adv-x="375" 
d="M304 668l10 -10.001l-1 -5c-46 -46 -94 -91 -144 -135l-5 1l-11 13c46 38.667 94.667 84.334 146 137.001z" />
    <glyph glyph-name="uni00B5" unicode="&#xb5;" horiz-adv-x="650" 
d="M544 0h-20l5 150l2 297h-4l-211 -385h-23l-111 385h-4l-71 -296l-35 -151h-21l116 491h24l21 -76l94 -324h3l184 332l37 68h23z" />
    <glyph glyph-name="paragraph" unicode="&#xb6;" horiz-adv-x="448" 
d="M462 633l-4.99902 -16.002h-81l-55 -449l-6 -46c-4.66699 -37.333 -18.834 -71.333 -42.501 -102s-58.5 -60 -104.5 -88l-9 11l1 6c42 25.333 74 51.833 96 79.5s35 57.5 39 89.5l5 40l56 459h-71c-58.667 -3.33301 -104.334 -21.166 -137.001 -53.499
s-49 -76.166 -49 -131.499c0 -44 13.333 -79.833 40 -107.5s65.334 -46.167 116.001 -55.5l-6 -20c-54.667 9.33301 -96.667 29 -126 59s-44 70 -44 120c0 65.333 19 116.5 57 153.5s91 55.5 159 55.5h164z" />
    <glyph glyph-name="periodcentered" unicode="&#xb7;" horiz-adv-x="230" 
d="M130.5 252.5c3.66699 -3.66699 5.5 -8.5 5.5 -14.5s-1.83301 -10.833 -5.5 -14.5s-8.5 -5.5 -14.5 -5.5s-10.833 1.83301 -14.5 5.5s-5.5 8.5 -5.5 14.5s1.83301 10.833 5.5 14.5s8.5 5.5 14.5 5.5s10.833 -1.83301 14.5 -5.5z" />
    <glyph glyph-name="cedilla" unicode="&#xb8;" horiz-adv-x="388" 
d="M143 -55l31.0049 -19.999c11.333 -7.33301 19.666 -14.833 24.999 -22.5s8 -16.834 8 -27.501c0 -16 -5.83301 -28.833 -17.5 -38.5s-25.834 -14.5 -42.501 -14.5c-24.667 0 -44.334 11 -59.001 33l6 18h4c6.66699 -10.667 13.667 -18.5 21 -23.5
s16.666 -7.5 27.999 -7.5c12 0 21.667 2.83301 29 8.5s11 13.834 11 24.501c0 7.33301 -1.83301 13.166 -5.5 17.499s-9.83398 9.5 -18.501 15.5l-43 28l24 75h20z" />
    <glyph glyph-name="uni00B9" unicode="&#xb9;" horiz-adv-x="240" 
d="M197 701l-30 -240l-16 -130h-20l16 126l27 222l-101 -27l-4 2l2 16l123 35z" />
    <glyph glyph-name="ordmasculine" unicode="&#xba;" horiz-adv-x="282" 
d="M210 644c22.667 -2 39.333 -10.332 50 -24.999s16 -36.667 16 -66c0 -59.333 -12 -108 -36 -146s-56.667 -58.333 -98 -61h-4c-23.333 1.33301 -40.333 9.5 -51 24.5s-16 37.833 -16 68.5c0 59.333 12.167 108.166 36.5 146.499s57.5 57.833 99.5 58.5h3z
M122.499 574.001c-21 -34.667 -31.5 -79 -31.5 -133c0 -26.667 4.16699 -46.167 12.5 -58.5s21.5 -18.5 39.5 -18.5c33.333 0 60.5 17.5 81.5 52.5s31.5 79.5 31.5 133.5c0 26 -4 45.167 -12 57.5s-21 18.5 -39 18.5c-34 0 -61.5 -17.333 -82.5 -52z" />
    <glyph glyph-name="guillemotright" unicode="&#xbb;" horiz-adv-x="360" 
d="M293 226l-2 -11l-175 -165l-11 9l1 6l164 158l-126 158l1 6l13 9zM147 226l-2 -11l-175 -165l-11 9l1 6l164 158l-126 158l1 6l13 9z" />
    <glyph glyph-name="onequarter" unicode="&#xbc;" horiz-adv-x="654" 
d="M189 638l-30 -240l-16 -130h-20l16 126l27 222l-101 -27l-4 2l2 16l123 35zM577 664l2 -8l-577 -746l-8 4l-3 9l576 746zM603 134l-5 -16l-50 1h-19l-13 -117l-3 -2l-16 -2l-2 2l15 119h-140l-31 -1l-3 3l2 15l203 233h19l-29 -232h69zM512 137l25 200h-3l-174 -200h152z
" />
    <glyph glyph-name="onehalf" unicode="&#xbd;" horiz-adv-x="655" 
d="M189 638l-30 -240l-16 -130h-20l16 126l27 222l-101 -27l-4 2l2 16l123 35zM577 664l2 -8l-577 -746l-8 4l-3 9l576 746zM563.5 352.5c15 -12.333 22.501 -28.5 22.501 -48.5c0 -20.667 -8.16699 -42.5 -24.5 -65.5s-45.5 -56.833 -87.5 -101.5l-108 -116l2 -2h175l61 1
l1 -4l-5 -17l-65 1h-169l-29 -1l-2 2l2 15l123 131c40 42.667 67.5 74.167 82.5 94.5s22.5 39.5 22.5 57.5c0 15.333 -5.66699 28 -17 38s-27 15 -47 15s-39.833 -5 -59.5 -15s-37.834 -24 -54.501 -42h-3l-2 17c16.667 18.667 35.667 33.167 57 43.5s43.333 15.5 66 15.5
c24 0 43.5 -6.16699 58.5 -18.5z" />
    <glyph glyph-name="threequarters" unicode="&#xbe;" horiz-adv-x="689" 
d="M240.5 621.5c15 -12.333 22.5 -28.834 22.5 -49.501c0 -20 -7.66699 -39.333 -23 -58s-35.333 -33.334 -60 -44.001v-2c25.333 -5.33301 44.833 -15.166 58.5 -29.499s20.5 -32.166 20.5 -53.499c0 -34.667 -14.667 -63.167 -44 -85.5s-66.333 -33.5 -111 -33.5
c-20.667 0 -40.334 2 -59.001 6v16l2 2c21.333 -3.33301 41.333 -5 60 -5c38.667 0 70.334 9 95.001 27s37 42 37 72c0 22 -8.66699 39.333 -26 52s-42 19.667 -74 21h-33l-2 2l3 15h29c14 0 29.333 4.16699 46 12.5s30.667 19.666 42 33.999s17 29.833 17 46.5
s-5.83301 29.834 -17.5 39.501s-27.167 14.5 -46.5 14.5c-28.667 0 -59 -13 -91 -39h-3l-2 17c34 27.333 67.333 41 100 41c24.667 0 44.5 -6.16699 59.5 -18.5zM612 663.999l2 -8l-577 -746l-8 4l-3 9l576 746zM638 133.999l-5 -16l-50 1h-19l-13 -117l-3 -2l-16 -2l-2 2
l15 119h-140l-31 -1l-3 3l2 15l203 233h19l-29 -232h69zM547 136.999l25 200h-3l-174 -200h152z" />
    <glyph glyph-name="questiondown" unicode="&#xbf;" horiz-adv-x="270" 
d="M189.5 466.5c-3.66699 3.66699 -5.5 8.16699 -5.5 13.5s1.83301 9.66602 5.5 12.999s8.16699 5 13.5 5s9.66602 -1.66699 12.999 -5s5 -7.66602 5 -12.999s-1.66699 -9.83301 -5 -13.5s-7.66602 -5.5 -12.999 -5.5s-9.83301 1.83301 -13.5 5.5zM51 33
c-31.333 20 -47 46.333 -47 79c0 22.667 6.83301 44.334 20.5 65.001s33.5 38.667 59.5 54l90 54l1 2l6 75l17 1l1 -4l-4 -76l-4 -8l-94 -57c-22.667 -13.333 -40.5 -28.833 -53.5 -46.5s-19.5 -36.834 -19.5 -57.501c0 -28.667 14.833 -51.5 44.5 -68.5
s72.167 -27.167 127.5 -30.5l2 -3l-8 -14l-5 -2c-58 4.66699 -102.667 17 -134 37z" />
    <glyph glyph-name="Agrave" unicode="&#xc0;" horiz-adv-x="524" 
d="M470 0h-23l-6 43l-37 170h-283l-85 -170l-20 -43h-24l319 637h21zM318 603h-3l-184 -370h268zM413 742l-7.00098 -15.001l-5 -3c-71.333 36.667 -129.333 67.667 -174 93l-2 5l7 12l5 2c56.667 -33.333 115.334 -64.666 176.001 -93.999z" />
    <glyph glyph-name="Aacute" unicode="&#xc1;" horiz-adv-x="524" 
d="M470 0h-23l-6 43l-37 170h-283l-85 -170l-20 -43h-24l319 637h21zM318 603h-3l-184 -370h268zM426 834l6.99902 -11.999l-2 -5c-44.667 -25.333 -102.667 -56.333 -174 -93l-5 3l-7 15c60.667 29.333 119.334 60.666 176.001 93.999z" />
    <glyph glyph-name="Acircumflex" unicode="&#xc2;" horiz-adv-x="524" 
d="M470 0h-23l-6 43l-37 170h-283l-85 -170l-20 -43h-24l319 637h21zM318 603h-3l-184 -370h268zM225 743c24.667 16 59.665 41.333 104.998 76h16c34.667 -30 65.334 -55.333 92.001 -76l-8 -14h-5c-26.667 19.333 -55.667 42.666 -87 69.999
c-31.333 -23.333 -65.666 -46.666 -102.999 -69.999h-5z" />
    <glyph glyph-name="Atilde" unicode="&#xc3;" horiz-adv-x="524" 
d="M470 0h-23l-6 43l-37 170h-283l-85 -170l-20 -43h-24l319 637h21zM318 603h-3l-184 -370h268zM476 805v-4l-52 -47l-6 -2c-13.333 1.33301 -40.333 8 -81 20c-4 1.33301 -15.667 4.66602 -35 9.99902s-32.666 8 -39.999 8c-3.33301 0 -7.66602 -2 -12.999 -6
s-11 -9.33301 -17 -16l-21 -19h-4l-9 11v4l52 47l6 2c13.333 -1.33301 40.333 -8 81 -20c4 -1.33301 15.667 -4.66602 35 -9.99902s32.666 -8 39.999 -8c3.33301 0 7.66602 2 12.999 6s11 9.33301 17 16l21 19h4z" />
    <glyph glyph-name="Adieresis" unicode="&#xc4;" horiz-adv-x="524" 
d="M470 0h-23l-6 43l-37 170h-283l-85 -170l-20 -43h-24l319 637h21zM318 603h-3l-184 -370h268zM276.5 795.5c3.66699 -3.66699 5.5 -8.5 5.5 -14.5s-1.83301 -10.833 -5.5 -14.5s-8.5 -5.5 -14.5 -5.5s-10.833 1.83301 -14.5 5.5s-5.5 8.5 -5.5 14.5
s1.83301 10.833 5.5 14.5s8.5 5.5 14.5 5.5s10.833 -1.83301 14.5 -5.5zM426.5 795.5c3.66699 -3.66699 5.5 -8.5 5.5 -14.5s-1.83301 -10.833 -5.5 -14.5s-8.5 -5.5 -14.5 -5.5s-10.833 1.83301 -14.5 5.5s-5.5 8.5 -5.5 14.5s1.83301 10.833 5.5 14.5s8.5 5.5 14.5 5.5
s10.833 -1.83301 14.5 -5.5z" />
    <glyph glyph-name="Aring" unicode="&#xc5;" horiz-adv-x="524" 
d="M470 0h-23l-6 43l-37 170h-283l-85 -170l-20 -43h-24l319 637h21zM318 603h-3l-184 -370h268zM388 832c12.667 -14 19 -30.332 19 -48.999c0 -20.667 -7.16699 -37.334 -21.5 -50.001s-30.833 -19 -49.5 -19s-35 6.5 -49 19.5s-21 29.833 -21 50.5
c0 20 6.5 36.5 19.5 49.5s29.833 19.5 50.5 19.5c22 0 39.333 -7 52 -21zM299.5 819.501c-9 -9 -13.5 -20.833 -13.5 -35.5c0 -15.333 4.83301 -27.5 14.5 -36.5s21.5 -13.5 35.5 -13.5s26 4.33301 36 13s15 20.667 15 36c0 14 -4.5 25.833 -13.5 35.5
s-21.5 14.5 -37.5 14.5c-15.333 0 -27.5 -4.5 -36.5 -13.5z" />
    <glyph glyph-name="AE" unicode="&#xc6;" horiz-adv-x="744" 
d="M695 16l-6 -16h-286v43l-8 247l-249 -43l-135 -204l-26 -43h-27l426 637h285l2 -4l-7 -16h-258l9 -304l227 39l2 -3l-5 -17l-224 -38l8 -274h271zM394 310l-9 292h-3l-220 -332z" />
    <glyph glyph-name="Ccedilla" unicode="&#xc7;" horiz-adv-x="497" 
d="M437 625.5c28 -10.333 52.333 -24.832 73 -43.499l-9 -17h-7c-39.333 37.333 -88 56 -146 56c-57.333 0 -106.5 -14.833 -147.5 -44.5s-72.167 -72 -93.5 -127s-32 -120.5 -32 -196.5c0 -76.667 15.833 -135.5 47.5 -176.5s77.834 -61.5 138.501 -61.5
c30 0 60.667 5.83301 92 17.5s60.666 28.167 87.999 49.5l7 -2l-4 -18c-29.333 -21.333 -60 -37.833 -92 -49.5s-62.667 -17.5 -92 -17.5c-66.667 0 -117.5 22.167 -152.5 66.5s-52.5 107.5 -52.5 189.5c0 80.667 11.667 150.167 35 208.5s57 103.166 101 134.499
s97 47 159 47c30 0 59 -5.16699 87 -15.5zM268 -54.999l31.0049 -19.999c11.333 -7.33301 19.666 -14.833 24.999 -22.5s8 -16.834 8 -27.501c0 -16 -5.83301 -28.833 -17.5 -38.5s-25.834 -14.5 -42.501 -14.5c-24.667 0 -44.334 11 -59.001 33l6 18h4
c6.66699 -10.667 13.667 -18.5 21 -23.5s16.666 -7.5 27.999 -7.5c12 0 21.667 2.83301 29 8.5s11 13.834 11 24.501c0 7.33301 -1.83301 13.166 -5.5 17.499s-9.83398 9.5 -18.501 15.5l-43 28l24 75h20z" />
    <glyph glyph-name="Egrave" unicode="&#xc8;" horiz-adv-x="432" 
d="M143 340h223l3 -4l-6 -16h-222l-16 -125l-22 -175h273l3 -4l-6 -16h-293l25 195l55 442h291l2 -4l-6 -16h-269zM405 742l-7.00098 -15.001l-5 -3c-71.333 36.667 -129.333 67.667 -174 93l-2 5l7 12l5 2c56.667 -33.333 115.334 -64.666 176.001 -93.999z" />
    <glyph glyph-name="Eacute" unicode="&#xc9;" horiz-adv-x="432" 
d="M143 340h223l3 -4l-6 -16h-222l-16 -125l-22 -175h273l3 -4l-6 -16h-293l25 195l55 442h291l2 -4l-6 -16h-269zM418 834l6.99902 -11.999l-2 -5c-44.667 -25.333 -102.667 -56.333 -174 -93l-5 3l-7 15c60.667 29.333 119.334 60.666 176.001 93.999z" />
    <glyph glyph-name="Ecircumflex" unicode="&#xca;" horiz-adv-x="432" 
d="M143 340h223l3 -4l-6 -16h-222l-16 -125l-22 -175h273l3 -4l-6 -16h-293l25 195l55 442h291l2 -4l-6 -16h-269zM217 743c24.667 16 59.665 41.333 104.998 76h16c34.667 -30 65.334 -55.333 92.001 -76l-8 -14h-5c-26.667 19.333 -55.667 42.666 -87 69.999
c-31.333 -23.333 -65.666 -46.666 -102.999 -69.999h-5z" />
    <glyph glyph-name="Edieresis" unicode="&#xcb;" horiz-adv-x="432" 
d="M143 340h223l3 -4l-6 -16h-222l-16 -125l-22 -175h273l3 -4l-6 -16h-293l25 195l55 442h291l2 -4l-6 -16h-269zM268.5 795.5c3.66699 -3.66699 5.5 -8.5 5.5 -14.5s-1.83301 -10.833 -5.5 -14.5s-8.5 -5.5 -14.5 -5.5s-10.833 1.83301 -14.5 5.5s-5.5 8.5 -5.5 14.5
s1.83301 10.833 5.5 14.5s8.5 5.5 14.5 5.5s10.833 -1.83301 14.5 -5.5zM418.5 795.5c3.66699 -3.66699 5.5 -8.5 5.5 -14.5s-1.83301 -10.833 -5.5 -14.5s-8.5 -5.5 -14.5 -5.5s-10.833 1.83301 -14.5 5.5s-5.5 8.5 -5.5 14.5s1.83301 10.833 5.5 14.5s8.5 5.5 14.5 5.5
s10.833 -1.83301 14.5 -5.5z" />
    <glyph glyph-name="Igrave" unicode="&#xcc;" horiz-adv-x="235" 
d="M125 195l-25 -195h-20l25 195l55 442h20zM262 742l-7.00098 -15.001l-5 -3c-71.333 36.667 -129.333 67.667 -174 93l-2 5l7 12l5 2c56.667 -33.333 115.334 -64.666 176.001 -93.999z" />
    <glyph glyph-name="Iacute" unicode="&#xcd;" horiz-adv-x="235" 
d="M125 195l-25 -195h-20l25 195l55 442h20zM275 834l6.99902 -11.999l-2 -5c-44.667 -25.333 -102.667 -56.333 -174 -93l-5 3l-7 15c60.667 29.333 119.334 60.666 176.001 93.999z" />
    <glyph glyph-name="Icircumflex" unicode="&#xce;" horiz-adv-x="235" 
d="M125 195l-25 -195h-20l25 195l55 442h20zM74 743c24.667 16 59.665 41.333 104.998 76h16c34.667 -30 65.334 -55.333 92.001 -76l-8 -14h-5c-26.667 19.333 -55.667 42.666 -87 69.999c-31.333 -23.333 -65.666 -46.666 -102.999 -69.999h-5z" />
    <glyph glyph-name="Eth" unicode="&#xd0;" horiz-adv-x="630" 
d="M540 577.5c39.333 -43 58.999 -104.498 58.999 -184.498c0 -80.667 -12.5 -150.834 -37.5 -210.501s-61.5 -105.834 -109.5 -138.501s-105.333 -49 -172 -49c-21.333 0 -49.666 0.5 -84.999 1.5s-67 2.16699 -95 3.5l25 195l55 442l190 5c74 0 130.667 -21.5 170 -64.5z
M441.499 61.002c44.333 30.667 78.168 74.167 101.501 130.5s35 122.5 35 198.5c0 74.667 -18 132 -54 172s-88 60 -156 60c-20 0 -46.833 -0.5 -80.5 -1.5s-63.5 -2.16699 -89.5 -3.5l-53 -422l-23 -176l56 -2l105 -2c61.333 0 114.166 15.333 158.499 46zM344.589 336.002
l-2.40039 -17h-310.188l-1.19922 3l2.39941 17h310.188z" />
    <glyph glyph-name="Ntilde" unicode="&#xd1;" horiz-adv-x="640" 
d="M526 176l-23 -176h-19l-304 595h-4l-51 -396l-25 -199h-20l24 190l57 447h19l304 -595h4l77 594l20 2zM528 805v-4l-52 -47l-6 -2c-13.333 1.33301 -40.333 8 -81 20c-4 1.33301 -15.667 4.66602 -35 9.99902s-32.666 8 -39.999 8c-3.33301 0 -7.66602 -2 -12.999 -6
s-11 -9.33301 -17 -16l-21 -19h-4l-9 11v4l52 47l6 2c13.333 -1.33301 40.333 -8 81 -20c4 -1.33301 15.667 -4.66602 35 -9.99902s32.666 -8 39.999 -8c3.33301 0 7.66602 2 12.999 6s11 9.33301 17 16l21 19h4z" />
    <glyph glyph-name="Ograve" unicode="&#xd2;" horiz-adv-x="599" 
d="M513.5 577c36.333 -43.333 54.501 -105.335 54.501 -186.002c0 -81.333 -11.833 -151.666 -35.5 -210.999s-58 -105 -103 -137s-99.167 -48 -162.5 -48c-68 0 -120.167 22.333 -156.5 67s-54.5 108.334 -54.5 191.001c0 80.667 11.667 150.167 35 208.5
s57.5 103 102.5 134s98.833 46.5 161.5 46.5c69.333 0 122.166 -21.667 158.499 -65zM205.001 577.998c-41.333 -29.333 -73 -71.5 -95 -126.5s-33 -120.167 -33 -195.5c0 -76.667 16.5 -136 49.5 -178s80.167 -63 141.5 -63c58 0 108 15.167 150 45.5s74 73.333 96 129
s33 121.5 33 197.5c0 75.333 -16.333 133.333 -49 174s-80.667 61 -144 61c-58 0 -107.667 -14.667 -149 -44zM444.001 741.998l-7.00098 -15.001l-5 -3c-71.333 36.667 -129.333 67.667 -174 93l-2 5l7 12l5 2c56.667 -33.333 115.334 -64.666 176.001 -93.999z" />
    <glyph glyph-name="Oacute" unicode="&#xd3;" horiz-adv-x="599" 
d="M513.5 577c36.333 -43.333 54.501 -105.335 54.501 -186.002c0 -81.333 -11.833 -151.666 -35.5 -210.999s-58 -105 -103 -137s-99.167 -48 -162.5 -48c-68 0 -120.167 22.333 -156.5 67s-54.5 108.334 -54.5 191.001c0 80.667 11.667 150.167 35 208.5
s57.5 103 102.5 134s98.833 46.5 161.5 46.5c69.333 0 122.166 -21.667 158.499 -65zM205.001 577.998c-41.333 -29.333 -73 -71.5 -95 -126.5s-33 -120.167 -33 -195.5c0 -76.667 16.5 -136 49.5 -178s80.167 -63 141.5 -63c58 0 108 15.167 150 45.5s74 73.333 96 129
s33 121.5 33 197.5c0 75.333 -16.333 133.333 -49 174s-80.667 61 -144 61c-58 0 -107.667 -14.667 -149 -44zM457.001 833.998l6.99902 -11.999l-2 -5c-44.667 -25.333 -102.667 -56.333 -174 -93l-5 3l-7 15c60.667 29.333 119.334 60.666 176.001 93.999z" />
    <glyph glyph-name="Ocircumflex" unicode="&#xd4;" horiz-adv-x="599" 
d="M513.5 577c36.333 -43.333 54.501 -105.335 54.501 -186.002c0 -81.333 -11.833 -151.666 -35.5 -210.999s-58 -105 -103 -137s-99.167 -48 -162.5 -48c-68 0 -120.167 22.333 -156.5 67s-54.5 108.334 -54.5 191.001c0 80.667 11.667 150.167 35 208.5
s57.5 103 102.5 134s98.833 46.5 161.5 46.5c69.333 0 122.166 -21.667 158.499 -65zM205.001 577.998c-41.333 -29.333 -73 -71.5 -95 -126.5s-33 -120.167 -33 -195.5c0 -76.667 16.5 -136 49.5 -178s80.167 -63 141.5 -63c58 0 108 15.167 150 45.5s74 73.333 96 129
s33 121.5 33 197.5c0 75.333 -16.333 133.333 -49 174s-80.667 61 -144 61c-58 0 -107.667 -14.667 -149 -44zM256.001 742.998c24.667 16 59.665 41.333 104.998 76h16c34.667 -30 65.334 -55.333 92.001 -76l-8 -14h-5c-26.667 19.333 -55.667 42.666 -87 69.999
c-31.333 -23.333 -65.666 -46.666 -102.999 -69.999h-5z" />
    <glyph glyph-name="Otilde" unicode="&#xd5;" horiz-adv-x="599" 
d="M513.5 577c36.333 -43.333 54.501 -105.335 54.501 -186.002c0 -81.333 -11.833 -151.666 -35.5 -210.999s-58 -105 -103 -137s-99.167 -48 -162.5 -48c-68 0 -120.167 22.333 -156.5 67s-54.5 108.334 -54.5 191.001c0 80.667 11.667 150.167 35 208.5
s57.5 103 102.5 134s98.833 46.5 161.5 46.5c69.333 0 122.166 -21.667 158.499 -65zM205.001 577.998c-41.333 -29.333 -73 -71.5 -95 -126.5s-33 -120.167 -33 -195.5c0 -76.667 16.5 -136 49.5 -178s80.167 -63 141.5 -63c58 0 108 15.167 150 45.5s74 73.333 96 129
s33 121.5 33 197.5c0 75.333 -16.333 133.333 -49 174s-80.667 61 -144 61c-58 0 -107.667 -14.667 -149 -44zM507.001 804.998v-4l-52 -47l-6 -2c-13.333 1.33301 -40.333 8 -81 20c-4 1.33301 -15.667 4.66602 -35 9.99902s-32.666 8 -39.999 8
c-3.33301 0 -7.66602 -2 -12.999 -6s-11 -9.33301 -17 -16l-21 -19h-4l-9 11v4l52 47l6 2c13.333 -1.33301 40.333 -8 81 -20c4 -1.33301 15.667 -4.66602 35 -9.99902s32.666 -8 39.999 -8c3.33301 0 7.66602 2 12.999 6s11 9.33301 17 16l21 19h4z" />
    <glyph glyph-name="multiply" unicode="&#xd7;" horiz-adv-x="481" 
d="M410 407l-1 -4l-149 -133l116 -133v-4l-14 -11l-118 134l-150 -134l-12 11v4l150 133l-117 133l1 4l14 11l117 -134l151 134z" />
    <glyph glyph-name="Oslash" unicode="&#xd8;" horiz-adv-x="600" 
d="M568 391c0 -81.333 -11.833 -151.667 -35.5 -211s-58 -105 -103 -137s-99.167 -48 -162.5 -48c-40.667 0 -75.667 8 -105 24l-60 -106l-15 3l-2 4l61 109c-29.333 20.667 -51.666 50 -66.999 88s-23 83.333 -23 136c0 80.667 11.667 150.167 35 208.5s57.5 103 102.5 134
s98.833 46.5 161.5 46.5c47.333 0 86.666 -10 117.999 -30l55 97l16 -3l1 -5l-56 -100c52.667 -42.667 79 -112.667 79 -210zM97.5 129.999c13.667 -35.333 33.499 -62.667 59.499 -82l306 545c-29.333 19.333 -65.666 29 -108.999 29c-58 0 -107.667 -14.667 -149 -44
s-73 -71.5 -95 -126.5s-33 -120.167 -33 -195.5c0 -48.667 6.83301 -90.667 20.5 -126zM417.999 60.498c42 30.333 74 73.333 96 129s33 121.5 33 197.5c0 91.333 -23 156.333 -69 195l-306 -544c27.333 -15.333 59.333 -23 96 -23c58 0 108 15.167 150 45.5z" />
    <glyph glyph-name="Ugrave" unicode="&#xd9;" horiz-adv-x="583" 
d="M510 312l-10.001 -83.001c-7.33301 -74 -31.5 -131.333 -72.5 -172s-94.833 -61 -161.5 -61c-59.333 0 -105 15.5 -137 46.5s-48 75.5 -48 133.5c0 19.333 1.33301 37 4 53l13 93l40 315h20l-53 -408c-2.66699 -22.667 -4 -39 -4 -49
c0 -52.667 14.167 -93.167 42.5 -121.5s68.833 -42.5 121.5 -42.5c60.667 0 109.334 18.333 146.001 55s59.667 89.334 69 158.001l51 408h20zM435.999 741.999l-7.00098 -15.001l-5 -3c-71.333 36.667 -129.333 67.667 -174 93l-2 5l7 12l5 2
c56.667 -33.333 115.334 -64.666 176.001 -93.999z" />
    <glyph glyph-name="Uacute" unicode="&#xda;" horiz-adv-x="583" 
d="M510 312l-10.001 -83.001c-7.33301 -74 -31.5 -131.333 -72.5 -172s-94.833 -61 -161.5 -61c-59.333 0 -105 15.5 -137 46.5s-48 75.5 -48 133.5c0 19.333 1.33301 37 4 53l13 93l40 315h20l-53 -408c-2.66699 -22.667 -4 -39 -4 -49
c0 -52.667 14.167 -93.167 42.5 -121.5s68.833 -42.5 121.5 -42.5c60.667 0 109.334 18.333 146.001 55s59.667 89.334 69 158.001l51 408h20zM448.999 833.999l6.99902 -11.999l-2 -5c-44.667 -25.333 -102.667 -56.333 -174 -93l-5 3l-7 15
c60.667 29.333 119.334 60.666 176.001 93.999z" />
    <glyph glyph-name="Ucircumflex" unicode="&#xdb;" horiz-adv-x="583" 
d="M510 312l-10.001 -83.001c-7.33301 -74 -31.5 -131.333 -72.5 -172s-94.833 -61 -161.5 -61c-59.333 0 -105 15.5 -137 46.5s-48 75.5 -48 133.5c0 19.333 1.33301 37 4 53l13 93l40 315h20l-53 -408c-2.66699 -22.667 -4 -39 -4 -49
c0 -52.667 14.167 -93.167 42.5 -121.5s68.833 -42.5 121.5 -42.5c60.667 0 109.334 18.333 146.001 55s59.667 89.334 69 158.001l51 408h20zM247.999 742.999c24.667 16 59.665 41.333 104.998 76h16c34.667 -30 65.334 -55.333 92.001 -76l-8 -14h-5
c-26.667 19.333 -55.667 42.666 -87 69.999c-31.333 -23.333 -65.666 -46.666 -102.999 -69.999h-5z" />
    <glyph glyph-name="Udieresis" unicode="&#xdc;" horiz-adv-x="583" 
d="M510 312l-10.001 -83.001c-7.33301 -74 -31.5 -131.333 -72.5 -172s-94.833 -61 -161.5 -61c-59.333 0 -105 15.5 -137 46.5s-48 75.5 -48 133.5c0 19.333 1.33301 37 4 53l13 93l40 315h20l-53 -408c-2.66699 -22.667 -4 -39 -4 -49
c0 -52.667 14.167 -93.167 42.5 -121.5s68.833 -42.5 121.5 -42.5c60.667 0 109.334 18.333 146.001 55s59.667 89.334 69 158.001l51 408h20zM304.499 795.499c3.66699 -3.66699 5.5 -8.5 5.5 -14.5s-1.83301 -10.833 -5.5 -14.5s-8.5 -5.5 -14.5 -5.5
s-10.833 1.83301 -14.5 5.5s-5.5 8.5 -5.5 14.5s1.83301 10.833 5.5 14.5s8.5 5.5 14.5 5.5s10.833 -1.83301 14.5 -5.5zM454.499 795.499c3.66699 -3.66699 5.5 -8.5 5.5 -14.5s-1.83301 -10.833 -5.5 -14.5s-8.5 -5.5 -14.5 -5.5s-10.833 1.83301 -14.5 5.5
s-5.5 8.5 -5.5 14.5s1.83301 10.833 5.5 14.5s8.5 5.5 14.5 5.5s10.833 -1.83301 14.5 -5.5z" />
    <glyph glyph-name="Thorn" unicode="&#xde;" horiz-adv-x="467" 
d="M390 477c26 -26 39 -63.001 39 -111.001c0 -75.333 -20 -134.166 -60 -176.499s-96.667 -63.5 -170 -63.5h-83l-16 -126h-20l25 195l55 442h20l-15 -123l113 2c48.667 0 86 -13 112 -39zM361.5 212.499c31.667 39 47.501 88.833 47.501 149.5
c0 41.333 -10.833 73.5 -32.5 96.5s-52.834 35.5 -93.501 37.5l-121 -1l-37 -300l-6 -49h112c55.333 5.33301 98.833 27.5 130.5 66.5z" />
    <glyph glyph-name="germandbls" unicode="&#xdf;" horiz-adv-x="508" 
d="M447 451l1.99902 -8.99707l-168 -174c108 -16.667 162 -59.334 162 -128.001c0 -27.333 -7 -51.833 -21 -73.5s-33.167 -38.667 -57.5 -51s-50.833 -18.5 -79.5 -18.5c-21.333 0 -42.833 3.16699 -64.5 9.5s-40.167 15.166 -55.5 26.499l6 19l4 1
c14 -12 31.5 -21.167 52.5 -27.5s40.833 -9.5 59.5 -9.5c25.333 0 48.333 5.5 69 16.5s37 25.667 49 44s18 38.5 18 60.5c0 32 -14.833 57.5 -44.5 76.5s-72.167 31.167 -127.5 36.5l-2 12l173 178c-42.667 22.667 -86 34 -130 34c-45.333 0 -83.666 -12.833 -114.999 -38.5
s-49.666 -59.834 -54.999 -102.501l-22 -182l-20 -151h-20l19 146l23 187c6.66699 48 27.667 86.667 63 116s78.666 44 129.999 44c47.333 0 98 -14 152 -42z" />
    <glyph glyph-name="agrave" unicode="&#xe0;" horiz-adv-x="473" 
d="M173 692l-1 5.00098l10 10l5 1c51.333 -52.667 100 -98.334 146 -137.001l-11 -13l-5 -1c-50 44 -98 89 -144 135zM404 0.000976562h-23l-6 35l-30 126h-234l-66 -126l-16 -35h-23l257 491h22zM272 461.001h-3l-148 -281h219z" />
    <glyph glyph-name="aacute" unicode="&#xe1;" horiz-adv-x="473" 
d="M224 558l-11 12.999c46 38.667 94.667 84.334 146 137.001l5 -1l10 -10l-1 -5c-46 -46 -94 -91 -144 -135zM404 -0.000976562h-23l-6 35l-30 126h-234l-66 -126l-16 -35h-23l257 491h22zM272 460.999h-3l-148 -281h219z" />
    <glyph glyph-name="acircumflex" unicode="&#xe2;" horiz-adv-x="473" 
d="M180 559l-8 12c28 27.333 66.333 69.333 115 126h18c32.667 -52 61.667 -94 87 -126l-11 -12h-5c-26 33.333 -53 72.333 -81 117c-39.333 -45.333 -76 -84.333 -110 -117h-5zM404 0h-23l-6 35l-30 126h-234l-66 -126l-16 -35h-23l257 491h22zM272 461h-3l-148 -281h219z
" />
    <glyph glyph-name="atilde" unicode="&#xe3;" horiz-adv-x="473" 
d="M430 659v-4l-52 -47l-6 -2c-13.333 1.33301 -40.333 8 -81 20c-4 1.33301 -15.667 4.66602 -35 9.99902s-32.666 8 -39.999 8c-3.33301 0 -7.66602 -2 -12.999 -6s-11 -9.33301 -17 -16l-21 -19h-4l-9 11v4l52 47l6 2c13.333 -1.33301 40.333 -8 81 -20
c4 -1.33301 15.667 -4.66602 35 -9.99902s32.666 -8 39.999 -8c3.33301 0 7.66602 2 12.999 6s11 9.33301 17 16l21 19h4zM285 491l119 -491h-23l-6 35l-30 126h-234l-66 -126l-16 -35h-23l257 491h22zM272 461h-3l-148 -281h219z" />
    <glyph glyph-name="adieresis" unicode="&#xe4;" horiz-adv-x="473" 
d="M201.5 620.5c-3.66699 3.66699 -5.5 8.5 -5.5 14.5s1.83301 10.833 5.5 14.5s8.5 5.5 14.5 5.5s10.833 -1.83301 14.5 -5.5s5.5 -8.5 5.5 -14.5s-1.83301 -10.833 -5.5 -14.5s-8.5 -5.5 -14.5 -5.5s-10.833 1.83301 -14.5 5.5zM351.5 620.5
c-3.66699 3.66699 -5.5 8.5 -5.5 14.5s1.83301 10.833 5.5 14.5s8.5 5.5 14.5 5.5s10.833 -1.83301 14.5 -5.5s5.5 -8.5 5.5 -14.5s-1.83301 -10.833 -5.5 -14.5s-8.5 -5.5 -14.5 -5.5s-10.833 1.83301 -14.5 5.5zM404 0h-23l-6 35l-30 126h-234l-66 -126l-16 -35h-23
l257 491h22zM272 461h-3l-148 -281h219z" />
    <glyph glyph-name="aring" unicode="&#xe5;" horiz-adv-x="473" 
d="M241 587.5c-14 13 -21 29.834 -21 50.501c0 20 6.5 36.5 19.5 49.5s29.833 19.5 50.5 19.5c22 0 39.333 -7 52 -21s19 -30.333 19 -49c0 -20.667 -7.16699 -37.334 -21.5 -50.001s-30.833 -19 -49.5 -19s-35 6.5 -49 19.5zM253.5 673.501
c-9 -9 -13.5 -20.833 -13.5 -35.5c0 -15.333 4.83301 -27.5 14.5 -36.5s21.5 -13.5 35.5 -13.5s26 4.33301 36 13s15 20.667 15 36c0 14 -4.5 25.833 -13.5 35.5s-21.5 14.5 -37.5 14.5c-15.333 0 -27.5 -4.5 -36.5 -13.5zM404 0.000976562h-23l-6 35l-30 126h-234l-66 -126
l-16 -35h-23l257 491h22zM272 461.001h-3l-148 -281h219z" />
    <glyph glyph-name="ae" unicode="&#xe6;" horiz-adv-x="656" 
d="M592 16l-5 -16h-241l2 35l-8 186l-207 -35l-107 -151l-21 -35h-26l348 491h240l2 -4l-6 -16l-213 1l9 -229l186 30l2 -2l-4 -17l-184 -29l8 -206h224zM339 240l-10 220h-3l-178 -251z" />
    <glyph glyph-name="ccedilla" unicode="&#xe7;" horiz-adv-x="448" 
d="M371.5 482.5c23.667 -7.66699 44.1719 -18.499 61.5049 -32.499l-8 -18h-6c-15.333 13.333 -33.5 23.833 -54.5 31.5s-42.833 11.5 -65.5 11.5c-70 0 -124.167 -24.333 -162.5 -73s-57.5 -116.667 -57.5 -204c0 -58.667 13 -103.834 39 -135.501s63.667 -47.5 113 -47.5
c24.667 0 50 4.5 76 13.5s50.333 21.5 73 37.5l5 -2l-4 -18c-42 -29.333 -86.667 -45.666 -134 -48.999l-18 -56l31 -20c11.333 -7.33301 19.666 -14.833 24.999 -22.5s8 -16.834 8 -27.501c0 -16 -5.83301 -28.833 -17.5 -38.5s-25.834 -14.5 -42.501 -14.5
c-24.667 0 -44.334 11 -59.001 33l6 18h4c6.66699 -10.667 13.667 -18.5 21 -23.5s16.666 -7.5 27.999 -7.5c12 0 21.667 2.83301 29 8.5s11 13.834 11 24.501c0 7.33301 -1.83301 13.166 -5.5 17.499s-9.83398 9.5 -18.501 15.5l-43 28l20 64
c-54 0.666992 -95.5 18.5 -124.5 53.5s-43.5 83.833 -43.5 146.5c0 93.333 21 166.333 63 219s101.667 79 179 79c24 0 47.833 -3.83301 71.5 -11.5z" />
    <glyph glyph-name="egrave" unicode="&#xe8;" horiz-adv-x="397" 
d="M161 692l-1 5.00098l10 10l5 1c51.333 -52.667 100 -98.334 146 -137.001l-11 -13l-5 -1c-50 44 -98 89 -144 135zM131 264.001h185l2 -4l-5 -16h-184l-12 -93l-17 -132h227l3 -3l-6 -16h-246l19 150l43 341h244l3 -4l-6 -16l-223 1z" />
    <glyph glyph-name="eacute" unicode="&#xe9;" horiz-adv-x="397" 
d="M212 558l-11 12.999c46 38.667 94.667 84.334 146 137.001l5 -1l10 -10l-1 -5c-46 -46 -94 -91 -144 -135zM131 263.999h185l2 -4l-5 -16h-184l-12 -93l-17 -132h227l3 -3l-6 -16h-246l19 150l43 341h244l3 -4l-6 -16l-223 1z" />
    <glyph glyph-name="ecircumflex" unicode="&#xea;" horiz-adv-x="397" 
d="M168 559l-8 12c28 27.333 66.333 69.333 115 126h18c32.667 -52 61.667 -94 87 -126l-11 -12h-5c-26 33.333 -53 72.333 -81 117c-39.333 -45.333 -76 -84.333 -110 -117h-5zM131 264h185l2 -4l-5 -16h-184l-12 -93l-17 -132h227l3 -3l-6 -16h-246l19 150l43 341h244
l3 -4l-6 -16l-223 1z" />
    <glyph glyph-name="edieresis" unicode="&#xeb;" horiz-adv-x="397" 
d="M189.5 620.5c-3.66699 3.66699 -5.5 8.5 -5.5 14.5s1.83301 10.833 5.5 14.5s8.5 5.5 14.5 5.5s10.833 -1.83301 14.5 -5.5s5.5 -8.5 5.5 -14.5s-1.83301 -10.833 -5.5 -14.5s-8.5 -5.5 -14.5 -5.5s-10.833 1.83301 -14.5 5.5zM339.5 620.5
c-3.66699 3.66699 -5.5 8.5 -5.5 14.5s1.83301 10.833 5.5 14.5s8.5 5.5 14.5 5.5s10.833 -1.83301 14.5 -5.5s5.5 -8.5 5.5 -14.5s-1.83301 -10.833 -5.5 -14.5s-8.5 -5.5 -14.5 -5.5s-10.833 1.83301 -14.5 5.5zM131 264h185l2 -4l-5 -16h-184l-12 -93l-17 -132h227l3 -3
l-6 -16h-246l19 150l43 341h244l3 -4l-6 -16l-223 1z" />
    <glyph glyph-name="igrave" unicode="&#xec;" horiz-adv-x="233" 
d="M207 571l-11 -12.999l-5 -1c-50 44 -98 89 -144 135l-1 5l10 10l5 1c51.333 -52.667 100 -98.334 146 -137.001zM118 151.001l-20 -151h-20l20 150l42 341h20z" />
    <glyph glyph-name="iacute" unicode="&#xed;" horiz-adv-x="233" 
d="M238 707l10 -10.001l-1 -5c-46 -46 -94 -91 -144 -135l-5 1l-11 13c46 38.667 94.667 84.334 146 137.001zM118 150.999l-20 -151h-20l20 150l42 341h20z" />
    <glyph glyph-name="icircumflex" unicode="&#xee;" horiz-adv-x="233" 
d="M46 571c28 27.333 66.333 69.333 115 126h18c32.667 -52 61.667 -94 87 -126l-11 -12h-5c-26 33.333 -53 72.333 -81 117c-39.333 -45.333 -76 -84.333 -110 -117h-5zM118 151l-20 -151h-20l20 150l42 341h20z" />
    <glyph glyph-name="eth" unicode="&#xf0;" horiz-adv-x="543" 
d="M441.5 443.5c33.667 -34.333 50.499 -82.5 50.499 -144.5c0 -94 -23 -168 -69 -222s-110.333 -81 -193 -81c-18.667 0 -42.667 0.333008 -72 1s-55.666 1.66699 -78.999 3l19 150l11 84h-98l-2 3l3 17h99l30 237l157 4c62 0 109.833 -17.167 143.5 -51.5zM407.999 90.5
c42 50.333 63.001 119.167 63.001 206.5c0 57.333 -15 101.333 -45 132s-73 46 -129 46l-138 -4l-28 -217h138l2 -3l-3 -17h-140l-10 -83l-17 -132c21.333 -1.33301 44.666 -2.33301 69.999 -3s46 -1 62 -1c74.667 0 133 25.167 175 75.5z" />
    <glyph glyph-name="ntilde" unicode="&#xf1;" horiz-adv-x="566" 
d="M471 659v-4l-52 -47l-6 -2c-13.333 1.33301 -40.333 8 -81 20c-4 1.33301 -15.667 4.66602 -35 9.99902s-32.666 8 -39.999 8c-3.33301 0 -7.66602 -2 -12.999 -6s-11 -9.33301 -17 -16l-21 -19h-4l-9 11v4l52 47l6 2c13.333 -1.33301 40.333 -8 81 -20
c4 -1.33301 15.667 -4.66602 35 -9.99902s32.666 -8 39.999 -8c3.33301 0 7.66602 2 12.999 6s11 9.33301 17 16l21 19h4zM449 137l-19 -137h-20l-252 451h-2l-39 -297l-19 -154h-20l19 146l44 345h20l252 -451h4l57 450l20 2z" />
    <glyph glyph-name="ograve" unicode="&#xf2;" horiz-adv-x="533" 
d="M357 571l-11 -12.999l-5 -1c-50 44 -98 89 -144 135l-1 5l10 10l5 1c51.333 -52.667 100 -98.334 146 -137.001zM435.5 443.001c31 -34.667 46.499 -83.332 46.499 -145.999c0 -94 -21.667 -167.667 -65 -221s-103.666 -80 -180.999 -80
c-57.333 0 -101.5 17.667 -132.5 53s-46.5 85 -46.5 149c0 93.333 21.5 166.166 64.5 218.499s103.5 78.5 181.5 78.5c57.333 0 101.5 -17.333 132.5 -52zM136.999 403.003c-38.667 -48 -58 -115.667 -58 -203c0 -59.333 13.333 -104.833 40 -136.5
s65.334 -47.5 116.001 -47.5c70.667 0 126 24.5 166 73.5s60 117.167 60 204.5c0 58.667 -13.667 103.5 -41 134.5s-67 46.5 -119 46.5c-70.667 0 -125.334 -24 -164.001 -72z" />
    <glyph glyph-name="oacute" unicode="&#xf3;" horiz-adv-x="533" 
d="M388 707l10 -10.001l-1 -5c-46 -46 -94 -91 -144 -135l-5 1l-11 13c46 38.667 94.667 84.334 146 137.001zM435.5 442.999c31 -34.667 46.499 -83.332 46.499 -145.999c0 -94 -21.667 -167.667 -65 -221s-103.666 -80 -180.999 -80c-57.333 0 -101.5 17.667 -132.5 53
s-46.5 85 -46.5 149c0 93.333 21.5 166.166 64.5 218.499s103.5 78.5 181.5 78.5c57.333 0 101.5 -17.333 132.5 -52zM136.999 403.001c-38.667 -48 -58 -115.667 -58 -203c0 -59.333 13.333 -104.833 40 -136.5s65.334 -47.5 116.001 -47.5c70.667 0 126 24.5 166 73.5
s60 117.167 60 204.5c0 58.667 -13.667 103.5 -41 134.5s-67 46.5 -119 46.5c-70.667 0 -125.334 -24 -164.001 -72z" />
    <glyph glyph-name="ocircumflex" unicode="&#xf4;" horiz-adv-x="533" 
d="M196 571c28 27.333 66.333 69.333 115 126h18c32.667 -52 61.667 -94 87 -126l-11 -12h-5c-26 33.333 -53 72.333 -81 117c-39.333 -45.333 -76 -84.333 -110 -117h-5zM435.5 443c31 -34.667 46.499 -83.332 46.499 -145.999c0 -94 -21.667 -167.667 -65 -221
s-103.666 -80 -180.999 -80c-57.333 0 -101.5 17.667 -132.5 53s-46.5 85 -46.5 149c0 93.333 21.5 166.166 64.5 218.499s103.5 78.5 181.5 78.5c57.333 0 101.5 -17.333 132.5 -52zM136.999 403.002c-38.667 -48 -58 -115.667 -58 -203
c0 -59.333 13.333 -104.833 40 -136.5s65.334 -47.5 116.001 -47.5c70.667 0 126 24.5 166 73.5s60 117.167 60 204.5c0 58.667 -13.667 103.5 -41 134.5s-67 46.5 -119 46.5c-70.667 0 -125.334 -24 -164.001 -72z" />
    <glyph glyph-name="otilde" unicode="&#xf5;" horiz-adv-x="533" 
d="M454 659v-4l-52 -47l-6 -2c-13.333 1.33301 -40.333 8 -81 20c-4 1.33301 -15.667 4.66602 -35 9.99902s-32.666 8 -39.999 8c-3.33301 0 -7.66602 -2 -12.999 -6s-11 -9.33301 -17 -16l-21 -19h-4l-9 11v4l52 47l6 2c13.333 -1.33301 40.333 -8 81 -20
c4 -1.33301 15.667 -4.66602 35 -9.99902s32.666 -8 39.999 -8c3.33301 0 7.66602 2 12.999 6s11 9.33301 17 16l21 19h4zM435.5 443c31 -34.667 46.499 -83.332 46.499 -145.999c0 -94 -21.667 -167.667 -65 -221s-103.666 -80 -180.999 -80
c-57.333 0 -101.5 17.667 -132.5 53s-46.5 85 -46.5 149c0 93.333 21.5 166.166 64.5 218.499s103.5 78.5 181.5 78.5c57.333 0 101.5 -17.333 132.5 -52zM136.999 403.002c-38.667 -48 -58 -115.667 -58 -203c0 -59.333 13.333 -104.833 40 -136.5
s65.334 -47.5 116.001 -47.5c70.667 0 126 24.5 166 73.5s60 117.167 60 204.5c0 58.667 -13.667 103.5 -41 134.5s-67 46.5 -119 46.5c-70.667 0 -125.334 -24 -164.001 -72z" />
    <glyph glyph-name="divide" unicode="&#xf7;" horiz-adv-x="479" 
d="M445 277l-2 -17h-397l-3 3l2 17h397zM237.5 102.5c3.66699 -3.66699 5.5 -8.5 5.5 -14.5s-1.83301 -10.833 -5.5 -14.5s-8.5 -5.5 -14.5 -5.5s-10.833 1.83301 -14.5 5.5s-5.5 8.5 -5.5 14.5s1.83301 10.833 5.5 14.5s8.5 5.5 14.5 5.5s10.833 -1.83301 14.5 -5.5z
M281.5 465.5c3.66699 -3.66699 5.5 -8.5 5.5 -14.5s-1.83301 -10.833 -5.5 -14.5s-8.5 -5.5 -14.5 -5.5s-10.833 1.83301 -14.5 5.5s-5.5 8.5 -5.5 14.5s1.83301 10.833 5.5 14.5s8.5 5.5 14.5 5.5s10.833 -1.83301 14.5 -5.5z" />
    <glyph glyph-name="oslash" unicode="&#xf8;" horiz-adv-x="533" 
d="M461.5 403.5c13.667 -29.667 20.498 -65.166 20.498 -106.499c0 -94 -21.667 -167.667 -65 -221s-103.666 -80 -180.999 -80c-33.333 0 -62 6 -86 18l-52 -94l-16 6l-2 4l52 94c-50 34 -75 92 -75 174c0 93.333 21.5 166.166 64.5 218.499s103.5 78.5 181.5 78.5
c30 0 56.667 -5 80 -15l44 80l16 -5l2 -5l-44 -79c26.667 -15.333 46.834 -37.833 60.501 -67.5zM141.998 42.001l231.001 420c-20 8.66699 -44 13 -72 13c-70.667 0 -125.334 -24 -164.001 -72s-58 -115.667 -58 -203c0 -75.333 21 -128 63 -158zM400.999 89.501
c40 49 60.001 117.167 60.001 204.5c0 76.667 -23.333 129.667 -70 159l-232 -421c21.333 -10.667 46.666 -16 75.999 -16c70.667 0 126 24.5 166 73.5z" />
    <glyph glyph-name="ugrave" unicode="&#xf9;" horiz-adv-x="522" 
d="M352 571l-11 -12.999l-5 -1c-50 44 -98 89 -144 135l-1 5l10 10l5 1c51.333 -52.667 100 -98.334 146 -137.001zM436 240.001l-8.00098 -64c-6 -56.667 -25.833 -100.667 -59.5 -132s-78.5 -47 -134.5 -47c-50 0 -88.333 12.167 -115 36.5s-40 59.5 -40 105.5
c0 12 1 24.333 3 37l11 72l30 243h21l-42 -314c-1.33301 -8 -2 -19.333 -2 -34c0 -41.333 11.5 -72.833 34.5 -94.5s56.5 -32.5 100.5 -32.5c49.333 0 88.833 13.833 118.5 41.5s47.834 67.5 54.501 119.5l40 314h20z" />
    <glyph glyph-name="uacute" unicode="&#xfa;" horiz-adv-x="522" 
d="M383 707l10 -10.001l-1 -5c-46 -46 -94 -91 -144 -135l-5 1l-11 13c46 38.667 94.667 84.334 146 137.001zM436 239.999l-8.00098 -64c-6 -56.667 -25.833 -100.667 -59.5 -132s-78.5 -47 -134.5 -47c-50 0 -88.333 12.167 -115 36.5s-40 59.5 -40 105.5
c0 12 1 24.333 3 37l11 72l30 243h21l-42 -314c-1.33301 -8 -2 -19.333 -2 -34c0 -41.333 11.5 -72.833 34.5 -94.5s56.5 -32.5 100.5 -32.5c49.333 0 88.833 13.833 118.5 41.5s47.834 67.5 54.501 119.5l40 314h20z" />
    <glyph glyph-name="ucircumflex" unicode="&#xfb;" horiz-adv-x="522" 
d="M191 571c28 27.333 66.333 69.333 115 126h18c32.667 -52 61.667 -94 87 -126l-11 -12h-5c-26 33.333 -53 72.333 -81 117c-39.333 -45.333 -76 -84.333 -110 -117h-5zM436 240l-8.00098 -64c-6 -56.667 -25.833 -100.667 -59.5 -132s-78.5 -47 -134.5 -47
c-50 0 -88.333 12.167 -115 36.5s-40 59.5 -40 105.5c0 12 1 24.333 3 37l11 72l30 243h21l-42 -314c-1.33301 -8 -2 -19.333 -2 -34c0 -41.333 11.5 -72.833 34.5 -94.5s56.5 -32.5 100.5 -32.5c49.333 0 88.833 13.833 118.5 41.5s47.834 67.5 54.501 119.5l40 314h20z
" />
    <glyph glyph-name="udieresis" unicode="&#xfc;" horiz-adv-x="522" 
d="M249.5 649.5c3.66699 -3.66699 5.5 -8.5 5.5 -14.5s-1.83301 -10.833 -5.5 -14.5s-8.5 -5.5 -14.5 -5.5s-10.833 1.83301 -14.5 5.5s-5.5 8.5 -5.5 14.5s1.83301 10.833 5.5 14.5s8.5 5.5 14.5 5.5s10.833 -1.83301 14.5 -5.5zM399.5 649.5
c3.66699 -3.66699 5.5 -8.5 5.5 -14.5s-1.83301 -10.833 -5.5 -14.5s-8.5 -5.5 -14.5 -5.5s-10.833 1.83301 -14.5 5.5s-5.5 8.5 -5.5 14.5s1.83301 10.833 5.5 14.5s8.5 5.5 14.5 5.5s10.833 -1.83301 14.5 -5.5zM436 240l-8.00098 -64
c-6 -56.667 -25.833 -100.667 -59.5 -132s-78.5 -47 -134.5 -47c-50 0 -88.333 12.167 -115 36.5s-40 59.5 -40 105.5c0 12 1 24.333 3 37l11 72l30 243h21l-42 -314c-1.33301 -8 -2 -19.333 -2 -34c0 -41.333 11.5 -72.833 34.5 -94.5s56.5 -32.5 100.5 -32.5
c49.333 0 88.833 13.833 118.5 41.5s47.834 67.5 54.501 119.5l40 314h20z" />
    <glyph glyph-name="thorn" unicode="&#xfe;" horiz-adv-x="426" 
d="M339 366.5c22.667 -21 33.999 -50.166 33.999 -87.499c0 -54.667 -17 -98.834 -51 -132.501s-80.333 -50.5 -139 -50.5h-72l-13 -96h-20l20 150l43 341h20l-12 -94l95 1c40.667 0 72.334 -10.5 95.001 -31.5zM312.999 165.001c25.333 28.667 38 65.999 38 111.999
c0 32 -8.83301 56.667 -26.5 74s-43.5 27 -77.5 29l-100 -1l-29 -228l-5 -36h95c44.667 4.66699 79.667 21.334 105 50.001z" />
    <glyph glyph-name="ydieresis" unicode="&#xff;" horiz-adv-x="428" 
d="M174.5 620.5c-3.66699 3.66699 -5.5 8.5 -5.5 14.5s1.83301 10.833 5.5 14.5s8.5 5.5 14.5 5.5s10.833 -1.83301 14.5 -5.5s5.5 -8.5 5.5 -14.5s-1.83301 -10.833 -5.5 -14.5s-8.5 -5.5 -14.5 -5.5s-10.833 1.83301 -14.5 5.5zM324.5 620.5
c-3.66699 3.66699 -5.5 8.5 -5.5 14.5s1.83301 10.833 5.5 14.5s8.5 5.5 14.5 5.5s10.833 -1.83301 14.5 -5.5s5.5 -8.5 5.5 -14.5s-1.83301 -10.833 -5.5 -14.5s-8.5 -5.5 -14.5 -5.5s-10.833 1.83301 -14.5 5.5zM212 185l-4 -36l-20 -149h-20l20 149l5 40l-120 302h25
l6 -21l100 -253h4l176 253l12 21h25z" />
    <glyph glyph-name="Amacron" unicode="&#x100;" horiz-adv-x="524" 
d="M470 0h-23l-6 43l-37 170h-283l-85 -170l-20 -43h-24l319 637h21zM318 603h-3l-184 -370h268zM483 789l-2 -17h-287l-3 3l2 17h287z" />
    <glyph glyph-name="amacron" unicode="&#x101;" horiz-adv-x="473" 
d="M438 643l-2 -17h-287l-3 3l2 17h287zM285 491l119 -491h-23l-6 35l-30 126h-234l-66 -126l-16 -35h-23l257 491h22zM272 461h-3l-148 -281h219z" />
    <glyph glyph-name="Abreve" unicode="&#x102;" horiz-adv-x="524" 
d="M470 0h-23l-6 43l-37 170h-283l-85 -170l-20 -43h-24l319 637h21zM318 603h-3l-184 -370h268zM434 802c-10.667 -24 -25.332 -42.333 -43.999 -55s-40.334 -19 -65.001 -19s-45.167 6.33301 -61.5 19s-26.5 31 -30.5 55l14 11h5c2.66699 -21.333 10.167 -37.5 22.5 -48.5
s29.5 -16.5 51.5 -16.5c44 0 74.333 21.667 91 65h5z" />
    <glyph glyph-name="abreve" unicode="&#x103;" horiz-adv-x="473" 
d="M214 586.5c-14 17 -22.3311 43.5 -24.998 79.5l15 13h5c0.666992 -33.333 6.66699 -58 18 -74s29 -24 53 -24c23.333 0 42.666 8 57.999 24s27.333 40.667 36 74h5l12 -13c-10.667 -36 -25.334 -62.5 -44.001 -79.5s-42 -25.5 -70 -25.5s-49 8.5 -63 25.5zM404.002 0h-23
l-6 35l-30 126h-234l-66 -126l-16 -35h-23l257 491h22zM272.002 461h-3l-148 -281h219z" />
    <glyph glyph-name="Aogonek" unicode="&#x104;" horiz-adv-x="524" 
d="M470 0h-23l-6 43l-37 170h-283l-85 -170l-20 -43h-24l319 637h21zM318 603h-3l-184 -370h268zM407.5 -85.5c-15.667 -22.333 -25.3301 -37.501 -28.9971 -45.501s-5.5 -15.667 -5.5 -23s2.16699 -13 6.5 -17s10.166 -6 17.499 -6c9.33301 0 17.666 3.16699 24.999 9.5
s15.333 16.833 24 31.5h2l13 -13c-11.333 -17.333 -21.833 -29.666 -31.5 -36.999s-20.834 -11 -33.501 -11c-13.333 0 -24 3.5 -32 10.5s-12 16.833 -12 29.5c0 9.33301 2.33301 19 7 29s13.5 24.333 26.5 43s34.5 47 64.5 85h20z" />
    <glyph glyph-name="aogonek" unicode="&#x105;" horiz-adv-x="473" 
d="M382 -136l13.0039 -13.001c-11.333 -17.333 -21.833 -29.666 -31.5 -36.999s-20.834 -11 -33.501 -11c-13.333 0 -24 3.5 -32 10.5s-12 16.833 -12 29.5c0 9.33301 2.33301 19 7 29s13.5 24.333 26.5 43s34.5 47 64.5 85h-3l-6 35l-30 126h-234l-66 -126l-16 -35h-23
l257 491h22l119 -491l-62.5 -85.5c-15.667 -22.333 -25.334 -37.5 -29.001 -45.5s-5.5 -15.667 -5.5 -23s2.16699 -13 6.5 -17s10.166 -6 17.499 -6c9.33301 0 17.666 3.16699 24.999 9.5s15.333 16.833 24 31.5h2zM272.004 460.999h-3l-148 -281h219z" />
    <glyph glyph-name="Cacute" unicode="&#x106;" horiz-adv-x="497" 
d="M437 625.5c28 -10.333 52.333 -24.832 73 -43.499l-9 -17h-7c-39.333 37.333 -88 56 -146 56c-57.333 0 -106.5 -14.833 -147.5 -44.5s-72.167 -72 -93.5 -127s-32 -120.5 -32 -196.5c0 -76.667 15.833 -135.5 47.5 -176.5s77.834 -61.5 138.501 -61.5
c30 0 60.667 5.83301 92 17.5s60.666 28.167 87.999 49.5l7 -2l-4 -18c-29.333 -21.333 -60 -37.833 -92 -49.5s-62.667 -17.5 -92 -17.5c-66.667 0 -117.5 22.167 -152.5 66.5s-52.5 107.5 -52.5 189.5c0 80.667 11.667 150.167 35 208.5s57 103.166 101 134.499
s97 47 159 47c30 0 59 -5.16699 87 -15.5zM442 834.001l6.99902 -11.999l-2 -5c-44.667 -25.333 -102.667 -56.333 -174 -93l-5 3l-7 15c60.667 29.333 119.334 60.666 176.001 93.999z" />
    <glyph glyph-name="cacute" unicode="&#x107;" horiz-adv-x="448" 
d="M361 707l10 -10.001l-1 -5c-46 -46 -94 -91 -144 -135l-5 1l-11 13c46 38.667 94.667 84.334 146 137.001zM371.5 482.499c23.667 -7.66699 44.167 -18.499 61.5 -32.499l-8 -18h-6c-15.333 13.333 -33.5 23.833 -54.5 31.5s-42.833 11.5 -65.5 11.5
c-70 0 -124.167 -24.333 -162.5 -73s-57.5 -116.667 -57.5 -204c0 -58.667 13 -103.834 39 -135.501s63.667 -47.5 113 -47.5c24.667 0 50 4.5 76 13.5s50.333 21.5 73 37.5l5 -2l-4 -18c-24 -16 -48.833 -28.333 -74.5 -37s-50.5 -13 -74.5 -13c-56 0 -99 17.333 -129 52
s-45 84 -45 148c0 93.333 21 166.333 63 219s101.667 79 179 79c24 0 47.833 -3.83301 71.5 -11.5z" />
    <glyph glyph-name="Ccircumflex" unicode="&#x108;" horiz-adv-x="497" 
d="M437 625.5c28 -10.333 52.333 -24.832 73 -43.499l-9 -17h-7c-39.333 37.333 -88 56 -146 56c-57.333 0 -106.5 -14.833 -147.5 -44.5s-72.167 -72 -93.5 -127s-32 -120.5 -32 -196.5c0 -76.667 15.833 -135.5 47.5 -176.5s77.834 -61.5 138.501 -61.5
c30 0 60.667 5.83301 92 17.5s60.666 28.167 87.999 49.5l7 -2l-4 -18c-29.333 -21.333 -60 -37.833 -92 -49.5s-62.667 -17.5 -92 -17.5c-66.667 0 -117.5 22.167 -152.5 66.5s-52.5 107.5 -52.5 189.5c0 80.667 11.667 150.167 35 208.5s57 103.166 101 134.499
s97 47 159 47c30 0 59 -5.16699 87 -15.5zM241 743.001c24.667 16 59.665 41.333 104.998 76h16c34.667 -30 65.334 -55.333 92.001 -76l-8 -14h-5c-26.667 19.333 -55.667 42.666 -87 69.999c-31.333 -23.333 -65.666 -46.666 -102.999 -69.999h-5z" />
    <glyph glyph-name="ccircumflex" unicode="&#x109;" horiz-adv-x="448" 
d="M169 571c28 27.333 66.333 69.333 115 126h18c32.667 -52 61.667 -94 87 -126l-11 -12h-5c-26 33.333 -53 72.333 -81 117c-39.333 -45.333 -76 -84.333 -110 -117h-5zM371.5 482.5c23.667 -7.66699 44.167 -18.499 61.5 -32.499l-8 -18h-6
c-15.333 13.333 -33.5 23.833 -54.5 31.5s-42.833 11.5 -65.5 11.5c-70 0 -124.167 -24.333 -162.5 -73s-57.5 -116.667 -57.5 -204c0 -58.667 13 -103.834 39 -135.501s63.667 -47.5 113 -47.5c24.667 0 50 4.5 76 13.5s50.333 21.5 73 37.5l5 -2l-4 -18
c-24 -16 -48.833 -28.333 -74.5 -37s-50.5 -13 -74.5 -13c-56 0 -99 17.333 -129 52s-45 84 -45 148c0 93.333 21 166.333 63 219s101.667 79 179 79c24 0 47.833 -3.83301 71.5 -11.5z" />
    <glyph glyph-name="Cdotaccent" unicode="&#x10a;" horiz-adv-x="497" 
d="M437 625.5c28 -10.333 52.333 -24.832 73 -43.499l-9 -17h-7c-39.333 37.333 -88 56 -146 56c-57.333 0 -106.5 -14.833 -147.5 -44.5s-72.167 -72 -93.5 -127s-32 -120.5 -32 -196.5c0 -76.667 15.833 -135.5 47.5 -176.5s77.834 -61.5 138.501 -61.5
c30 0 60.667 5.83301 92 17.5s60.666 28.167 87.999 49.5l7 -2l-4 -18c-29.333 -21.333 -60 -37.833 -92 -49.5s-62.667 -17.5 -92 -17.5c-66.667 0 -117.5 22.167 -152.5 66.5s-52.5 107.5 -52.5 189.5c0 80.667 11.667 150.167 35 208.5s57 103.166 101 134.499
s97 47 159 47c30 0 59 -5.16699 87 -15.5zM369.5 810.501c3.66699 -3.66699 5.5 -8.5 5.5 -14.5s-1.83301 -10.833 -5.5 -14.5s-8.5 -5.5 -14.5 -5.5s-10.833 1.83301 -14.5 5.5s-5.5 8.5 -5.5 14.5s1.83301 10.833 5.5 14.5s8.5 5.5 14.5 5.5s10.833 -1.83301 14.5 -5.5z
" />
    <glyph glyph-name="cdotaccent" unicode="&#x10b;" horiz-adv-x="448" 
d="M304.5 664.5c3.66699 -3.66699 5.5 -8.5 5.5 -14.5s-1.83301 -10.833 -5.5 -14.5s-8.5 -5.5 -14.5 -5.5s-10.833 1.83301 -14.5 5.5s-5.5 8.5 -5.5 14.5s1.83301 10.833 5.5 14.5s8.5 5.5 14.5 5.5s10.833 -1.83301 14.5 -5.5zM371.5 482.5
c23.667 -7.66699 44.167 -18.499 61.5 -32.499l-8 -18h-6c-15.333 13.333 -33.5 23.833 -54.5 31.5s-42.833 11.5 -65.5 11.5c-70 0 -124.167 -24.333 -162.5 -73s-57.5 -116.667 -57.5 -204c0 -58.667 13 -103.834 39 -135.501s63.667 -47.5 113 -47.5
c24.667 0 50 4.5 76 13.5s50.333 21.5 73 37.5l5 -2l-4 -18c-24 -16 -48.833 -28.333 -74.5 -37s-50.5 -13 -74.5 -13c-56 0 -99 17.333 -129 52s-45 84 -45 148c0 93.333 21 166.333 63 219s101.667 79 179 79c24 0 47.833 -3.83301 71.5 -11.5z" />
    <glyph glyph-name="Ccaron" unicode="&#x10c;" horiz-adv-x="497" 
d="M437 625.5c28 -10.333 52.333 -24.832 73 -43.499l-9 -17h-7c-39.333 37.333 -88 56 -146 56c-57.333 0 -106.5 -14.833 -147.5 -44.5s-72.167 -72 -93.5 -127s-32 -120.5 -32 -196.5c0 -76.667 15.833 -135.5 47.5 -176.5s77.834 -61.5 138.501 -61.5
c30 0 60.667 5.83301 92 17.5s60.666 28.167 87.999 49.5l7 -2l-4 -18c-29.333 -21.333 -60 -37.833 -92 -49.5s-62.667 -17.5 -92 -17.5c-66.667 0 -117.5 22.167 -152.5 66.5s-52.5 107.5 -52.5 189.5c0 80.667 11.667 150.167 35 208.5s57 103.166 101 134.499
s97 47 159 47c30 0 59 -5.16699 87 -15.5zM461 805.001c-24.667 -16 -59.665 -41.333 -104.998 -76h-16c-34.667 30 -65.334 55.333 -92.001 76l8 14h5c26.667 -19.333 55.667 -42.666 87 -69.999c31.333 23.333 65.666 46.666 102.999 69.999h5z" />
    <glyph glyph-name="ccaron" unicode="&#x10d;" horiz-adv-x="448" 
d="M397 685c-28 -27.333 -66.333 -69.333 -115 -126h-18c-32.667 52 -61.667 94 -87 126l11 12h5c26 -33.333 53 -72.333 81 -117c39.333 45.333 76 84.333 110 117h5zM371.5 482.5c23.667 -7.66699 44.167 -18.499 61.5 -32.499l-8 -18h-6
c-15.333 13.333 -33.5 23.833 -54.5 31.5s-42.833 11.5 -65.5 11.5c-70 0 -124.167 -24.333 -162.5 -73s-57.5 -116.667 -57.5 -204c0 -58.667 13 -103.834 39 -135.501s63.667 -47.5 113 -47.5c24.667 0 50 4.5 76 13.5s50.333 21.5 73 37.5l5 -2l-4 -18
c-24 -16 -48.833 -28.333 -74.5 -37s-50.5 -13 -74.5 -13c-56 0 -99 17.333 -129 52s-45 84 -45 148c0 93.333 21 166.333 63 219s101.667 79 179 79c24 0 47.833 -3.83301 71.5 -11.5z" />
    <glyph glyph-name="Dcaron" unicode="&#x10e;" horiz-adv-x="609" 
d="M520 577.5c39.333 -43 58.999 -104.498 58.999 -184.498c0 -80.667 -12.5 -150.834 -37.5 -210.501s-61.5 -105.834 -109.5 -138.501s-105.333 -49 -172 -49c-21.333 0 -49.666 0.5 -84.999 1.5s-67 2.16699 -95 3.5l25 195l55 442l190 5c74 0 130.667 -21.5 170 -64.5z
M421.499 61.002c44.333 30.667 78.168 74.167 101.501 130.5s35 122.5 35 198.5c0 74.667 -18 132 -54 172s-88 60 -156 60c-20 0 -46.833 -0.5 -80.5 -1.5s-63.5 -2.16699 -89.5 -3.5l-53 -422l-23 -176l56 -2l105 -2c61.333 0 114.166 15.333 158.499 46zM460.001 805.002
c-24.667 -16 -59.665 -41.333 -104.998 -76h-16c-34.667 30 -65.334 55.333 -92.001 76l8 14h5c26.667 -19.333 55.667 -42.666 87 -69.999c31.333 23.333 65.666 46.666 102.999 69.999h5z" />
    <glyph glyph-name="dcaron" unicode="&#x10f;" horiz-adv-x="543" 
d="M285 559c-32.667 52 -61.667 94 -87 126l11 12h5c26 -33.333 53 -72.333 81 -117c39.333 45.333 76 84.333 110 117h5l8 -12c-28 -27.333 -66.333 -69.333 -115 -126h-18zM441.5 443.5c33.667 -34.333 50.499 -82.5 50.499 -144.5c0 -94 -23 -168 -69 -222
s-110.333 -81 -193 -81c-18.667 0 -42.667 0.333008 -72 1s-55.666 1.66699 -78.999 3l19 150l43 341l157 4c62 0 109.833 -17.167 143.5 -51.5zM407.999 90.5c42 50.333 63.001 119.167 63.001 206.5c0 57.333 -15 101.333 -45 132s-73 46 -129 46l-138 -4l-41 -320
l-17 -132c21.333 -1.33301 44.666 -2.33301 69.999 -3s46 -1 62 -1c74.667 0 133 25.167 175 75.5z" />
    <glyph glyph-name="Dcroat" unicode="&#x110;" horiz-adv-x="630" 
d="M540 577.5c39.333 -43 58.999 -104.498 58.999 -184.498c0 -80.667 -12.5 -150.834 -37.5 -210.501s-61.5 -105.834 -109.5 -138.501s-105.333 -49 -172 -49c-21.333 0 -49.666 0.5 -84.999 1.5s-67 2.16699 -95 3.5l25 195l55 442l190 5c74 0 130.667 -21.5 170 -64.5z
M441.499 61.002c44.333 30.667 78.168 74.167 101.501 130.5s35 122.5 35 198.5c0 74.667 -18 132 -54 172s-88 60 -156 60c-20 0 -46.833 -0.5 -80.5 -1.5s-63.5 -2.16699 -89.5 -3.5l-53 -422l-23 -176l56 -2l105 -2c61.333 0 114.166 15.333 158.499 46zM344.589 336.002
l-2.40039 -17h-310.188l-1.19922 3l2.39941 17h310.188z" />
    <glyph glyph-name="dcroat" unicode="&#x111;" horiz-adv-x="543" 
d="M441.5 443.5c33.667 -34.333 50.499 -82.5 50.499 -144.5c0 -94 -23 -168 -69 -222s-110.333 -81 -193 -81c-18.667 0 -42.667 0.333008 -72 1s-55.666 1.66699 -78.999 3l19 150l11 84h-98l-2 3l3 17h99l30 237l157 4c62 0 109.833 -17.167 143.5 -51.5zM407.999 90.5
c42 50.333 63.001 119.167 63.001 206.5c0 57.333 -15 101.333 -45 132s-73 46 -129 46l-138 -4l-28 -217h138l2 -3l-3 -17h-140l-10 -83l-17 -132c21.333 -1.33301 44.666 -2.33301 69.999 -3s46 -1 62 -1c74.667 0 133 25.167 175 75.5z" />
    <glyph glyph-name="Emacron" unicode="&#x112;" horiz-adv-x="432" 
d="M143 340h223l3 -4l-6 -16h-222l-16 -125l-22 -175h273l3 -4l-6 -16h-293l25 195l55 442h291l2 -4l-6 -16h-269zM475 789l-2 -17h-287l-3 3l2 17h287z" />
    <glyph glyph-name="emacron" unicode="&#x113;" horiz-adv-x="397" 
d="M426 643l-2 -17h-287l-3 3l2 17h287zM387 487l-6 -16l-223 1l-27 -208h185l2 -4l-5 -16h-184l-12 -93l-17 -132h227l3 -3l-6 -16h-246l19 150l43 341h244z" />
    <glyph glyph-name="Ebreve" unicode="&#x114;" horiz-adv-x="432" 
d="M143 340h223l3 -4l-6 -16h-222l-16 -125l-22 -175h273l3 -4l-6 -16h-293l25 195l55 442h291l2 -4l-6 -16h-269zM426 802c-10.667 -24 -25.332 -42.333 -43.999 -55s-40.334 -19 -65.001 -19s-45.167 6.33301 -61.5 19s-26.5 31 -30.5 55l14 11h5
c2.66699 -21.333 10.167 -37.5 22.5 -48.5s29.5 -16.5 51.5 -16.5c44 0 74.333 21.667 91 65h5z" />
    <glyph glyph-name="ebreve" unicode="&#x115;" horiz-adv-x="397" 
d="M202 586.5c-14 17 -22.3311 43.5 -24.998 79.5l15 13h5c0.666992 -33.333 6.66699 -58 18 -74s29 -24 53 -24c23.333 0 42.666 8 57.999 24s27.333 40.667 36 74h5l12 -13c-10.667 -36 -25.334 -62.5 -44.001 -79.5s-42 -25.5 -70 -25.5s-49 8.5 -63 25.5zM131.002 264
h185l2 -4l-5 -16h-184l-12 -93l-17 -132h227l3 -3l-6 -16h-246l19 150l43 341h244l3 -4l-6 -16l-223 1z" />
    <glyph glyph-name="Edotaccent" unicode="&#x116;" horiz-adv-x="432" 
d="M143 340h223l3 -4l-6 -16h-222l-16 -125l-22 -175h273l3 -4l-6 -16h-293l25 195l55 442h291l2 -4l-6 -16h-269zM345.5 810.5c3.66699 -3.66699 5.5 -8.5 5.5 -14.5s-1.83301 -10.833 -5.5 -14.5s-8.5 -5.5 -14.5 -5.5s-10.833 1.83301 -14.5 5.5s-5.5 8.5 -5.5 14.5
s1.83301 10.833 5.5 14.5s8.5 5.5 14.5 5.5s10.833 -1.83301 14.5 -5.5z" />
    <glyph glyph-name="edotaccent" unicode="&#x117;" horiz-adv-x="397" 
d="M266.5 635.5c-3.66699 3.66699 -5.5 8.5 -5.5 14.5s1.83301 10.833 5.5 14.5s8.5 5.5 14.5 5.5s10.833 -1.83301 14.5 -5.5s5.5 -8.5 5.5 -14.5s-1.83301 -10.833 -5.5 -14.5s-8.5 -5.5 -14.5 -5.5s-10.833 1.83301 -14.5 5.5zM131 264h185l2 -4l-5 -16h-184l-12 -93
l-17 -132h227l3 -3l-6 -16h-246l19 150l43 341h244l3 -4l-6 -16l-223 1z" />
    <glyph glyph-name="Eogonek" unicode="&#x118;" horiz-adv-x="432" 
d="M143 340h223l3 -4l-6 -16h-222l-16 -125l-22 -175h273l3 -4l-6 -16h-293l25 195l55 442h291l2 -4l-6 -16h-269zM262.5 -190.5c-11.667 11.667 -17.5 27.502 -17.5 47.502c0 13.333 3.5 26.166 10.5 38.499s23.833 36.5 50.5 72.5l31 42h24
c-12 -14.667 -21.333 -27.334 -28 -38.001c-29.333 -38.667 -47.833 -64.167 -55.5 -76.5s-11.5 -24.5 -11.5 -36.5c0 -14 3.83301 -25.167 11.5 -33.5s18.5 -12.5 32.5 -12.5s28 4.5 42 13.5s27 21.833 39 38.5h2l11 -16c-29.333 -38 -61 -57 -95 -57
c-19.333 0 -34.833 5.83301 -46.5 17.5z" />
    <glyph glyph-name="eogonek" unicode="&#x119;" horiz-adv-x="397" 
d="M131 264h185l2 -4l-5 -16h-184l-12 -93l-17 -132h227l3 -3l-6 -16h-73l-12 -16c-30.667 -40 -50.167 -66.833 -58.5 -80.5s-12.5 -26.5 -12.5 -38.5c0 -14 3.83301 -25.167 11.5 -33.5s18.5 -12.5 32.5 -12.5s28 4.5 42 13.5s27 21.833 39 38.5h2l11 -16
c-29.333 -38 -61 -57 -95 -57c-19.333 0 -34.833 5.83301 -46.5 17.5s-17.5 27.5 -17.5 47.5c0 13.333 3.66699 26.333 11 39s24.333 37 51 73c4 6 10 14.333 18 25h-149l19 150l43 341h244l3 -4l-6 -16l-223 1z" />
    <glyph glyph-name="Ecaron" unicode="&#x11a;" horiz-adv-x="432" 
d="M143 340h223l3 -4l-6 -16h-222l-16 -125l-22 -175h273l3 -4l-6 -16h-293l25 195l55 442h291l2 -4l-6 -16h-269zM437 805c-24.667 -16 -59.665 -41.333 -104.998 -76h-16c-34.667 30 -65.334 55.333 -92.001 76l8 14h5c26.667 -19.333 55.667 -42.666 87 -69.999
c31.333 23.333 65.666 46.666 102.999 69.999h5z" />
    <glyph glyph-name="ecaron" unicode="&#x11b;" horiz-adv-x="397" 
d="M255 559c-32.667 52 -61.667 94 -87 126l11 12h5c26 -33.333 53 -72.333 81 -117c39.333 45.333 76 84.333 110 117h5l8 -12c-28 -27.333 -66.333 -69.333 -115 -126h-18zM387 487l-6 -16l-223 1l-27 -208h185l2 -4l-5 -16h-184l-12 -93l-17 -132h227l3 -3l-6 -16h-246
l19 150l43 341h244z" />
    <glyph glyph-name="Gcircumflex" unicode="&#x11c;" horiz-adv-x="575" 
d="M461.5 627c28.333 -9.33301 55.1689 -22.667 80.502 -40l-8 -18h-7c-50.667 34.667 -101.334 52 -152.001 52c-62.667 0 -116.5 -14.667 -161.5 -44s-79.333 -71.666 -103 -126.999s-35.5 -121.333 -35.5 -198c0 -76 16.333 -134.5 49 -175.5s80 -61.5 142 -61.5
c29.333 0 56.833 2.16699 82.5 6.5s58.5 12.166 98.5 23.499l15 113l10 89l20 2l-10 -91l-17 -128c-44.667 -13.333 -80.667 -22.333 -108 -27s-57.666 -7 -90.999 -7c-68.667 0 -121 22 -157 66s-54 106.667 -54 188s12.833 151.333 38.5 210s62.667 103.5 111 134.5
s106.166 46.5 173.499 46.5c27.333 0 55.166 -4.66699 83.499 -14zM250.003 742.999c24.667 16 59.665 41.333 104.998 76h16c34.667 -30 65.334 -55.333 92.001 -76l-8 -14h-5c-26.667 19.333 -55.667 42.666 -87 69.999c-31.333 -23.333 -65.666 -46.666 -102.999 -69.999
h-5z" />
    <glyph glyph-name="gcircumflex" unicode="&#x11d;" horiz-adv-x="513" 
d="M197 571c28 27.333 66.333 69.333 115 126h18c32.667 -52 61.667 -94 87 -126l-11 -12h-5c-26 33.333 -53 72.333 -81 117c-39.333 -45.333 -76 -84.333 -110 -117h-5zM460 453l-8.00098 -17.998h-5c-44 26.667 -85.667 40 -125 40
c-77.333 0 -137.333 -24.167 -180 -72.5s-64 -116.5 -64 -204.5c0 -58.667 13.667 -103.834 41 -135.501s66.333 -47.5 117 -47.5c24 0 46.333 1.66699 67 5s47.334 9.33301 80.001 18l10 84l9 61l20 2l-9 -62l-12 -100c-37.333 -10 -67.333 -16.833 -90 -20.5
s-47.667 -5.5 -75 -5.5c-57.333 0 -101.5 17.167 -132.5 51.5s-46.5 83.166 -46.5 146.499c0 95.333 23 169 69 221s111.333 78 196 78c46.667 0 92.667 -13.667 138 -41z" />
    <glyph glyph-name="Gbreve" unicode="&#x11e;" horiz-adv-x="575" 
d="M461.5 627c28.333 -9.33301 55.1689 -22.667 80.502 -40l-8 -18h-7c-50.667 34.667 -101.334 52 -152.001 52c-62.667 0 -116.5 -14.667 -161.5 -44s-79.333 -71.666 -103 -126.999s-35.5 -121.333 -35.5 -198c0 -76 16.333 -134.5 49 -175.5s80 -61.5 142 -61.5
c29.333 0 56.833 2.16699 82.5 6.5s58.5 12.166 98.5 23.499l15 113l10 89l20 2l-10 -91l-17 -128c-44.667 -13.333 -80.667 -22.333 -108 -27s-57.666 -7 -90.999 -7c-68.667 0 -121 22 -157 66s-54 106.667 -54 188s12.833 151.333 38.5 210s62.667 103.5 111 134.5
s106.166 46.5 173.499 46.5c27.333 0 55.166 -4.66699 83.499 -14zM459.003 801.999c-10.667 -24 -25.332 -42.333 -43.999 -55s-40.334 -19 -65.001 -19s-45.167 6.33301 -61.5 19s-26.5 31 -30.5 55l14 11h5c2.66699 -21.333 10.167 -37.5 22.5 -48.5
s29.5 -16.5 51.5 -16.5c44 0 74.333 21.667 91 65h5z" />
    <glyph glyph-name="gbreve" unicode="&#x11f;" horiz-adv-x="513" 
d="M416 666c-10.667 -36 -25.332 -62.5 -43.999 -79.5s-42 -25.5 -70 -25.5s-49 8.5 -63 25.5s-22.333 43.5 -25 79.5l15 13h5c0.666992 -33.333 6.66699 -58 18 -74s29 -24 53 -24c23.333 0 42.666 8 57.999 24s27.333 40.667 36 74h5zM460.002 453l-8.00098 -17.998h-5
c-44 26.667 -85.667 40 -125 40c-77.333 0 -137.333 -24.167 -180 -72.5s-64 -116.5 -64 -204.5c0 -58.667 13.667 -103.834 41 -135.501s66.333 -47.5 117 -47.5c24 0 46.333 1.66699 67 5s47.334 9.33301 80.001 18l10 84l9 61l20 2l-9 -62l-12 -100
c-37.333 -10 -67.333 -16.833 -90 -20.5s-47.667 -5.5 -75 -5.5c-57.333 0 -101.5 17.167 -132.5 51.5s-46.5 83.166 -46.5 146.499c0 95.333 23 169 69 221s111.333 78 196 78c46.667 0 92.667 -13.667 138 -41z" />
    <glyph glyph-name="Gdotaccent" unicode="&#x120;" horiz-adv-x="575" 
d="M461.5 627c28.333 -9.33301 55.1689 -22.667 80.502 -40l-8 -18h-7c-50.667 34.667 -101.334 52 -152.001 52c-62.667 0 -116.5 -14.667 -161.5 -44s-79.333 -71.666 -103 -126.999s-35.5 -121.333 -35.5 -198c0 -76 16.333 -134.5 49 -175.5s80 -61.5 142 -61.5
c29.333 0 56.833 2.16699 82.5 6.5s58.5 12.166 98.5 23.499l15 113l10 89l20 2l-10 -91l-17 -128c-44.667 -13.333 -80.667 -22.333 -108 -27s-57.666 -7 -90.999 -7c-68.667 0 -121 22 -157 66s-54 106.667 -54 188s12.833 151.333 38.5 210s62.667 103.5 111 134.5
s106.166 46.5 173.499 46.5c27.333 0 55.166 -4.66699 83.499 -14zM378.503 810.499c3.66699 -3.66699 5.5 -8.5 5.5 -14.5s-1.83301 -10.833 -5.5 -14.5s-8.5 -5.5 -14.5 -5.5s-10.833 1.83301 -14.5 5.5s-5.5 8.5 -5.5 14.5s1.83301 10.833 5.5 14.5s8.5 5.5 14.5 5.5
s10.833 -1.83301 14.5 -5.5z" />
    <glyph glyph-name="gdotaccent" unicode="&#x121;" horiz-adv-x="513" 
d="M332.5 664.5c3.66699 -3.66699 5.5 -8.5 5.5 -14.5s-1.83301 -10.833 -5.5 -14.5s-8.5 -5.5 -14.5 -5.5s-10.833 1.83301 -14.5 5.5s-5.5 8.5 -5.5 14.5s1.83301 10.833 5.5 14.5s8.5 5.5 14.5 5.5s10.833 -1.83301 14.5 -5.5zM460 453l-8.00098 -17.998h-5
c-44 26.667 -85.667 40 -125 40c-77.333 0 -137.333 -24.167 -180 -72.5s-64 -116.5 -64 -204.5c0 -58.667 13.667 -103.834 41 -135.501s66.333 -47.5 117 -47.5c24 0 46.333 1.66699 67 5s47.334 9.33301 80.001 18l10 84l9 61l20 2l-9 -62l-12 -100
c-37.333 -10 -67.333 -16.833 -90 -20.5s-47.667 -5.5 -75 -5.5c-57.333 0 -101.5 17.167 -132.5 51.5s-46.5 83.166 -46.5 146.499c0 95.333 23 169 69 221s111.333 78 196 78c46.667 0 92.667 -13.667 138 -41z" />
    <glyph glyph-name="Gcommaaccent" unicode="&#x122;" horiz-adv-x="575" 
d="M461.5 627c28.333 -9.33301 55.1689 -22.667 80.502 -40l-8 -18h-7c-50.667 34.667 -101.334 52 -152.001 52c-62.667 0 -116.5 -14.667 -161.5 -44s-79.333 -71.666 -103 -126.999s-35.5 -121.333 -35.5 -198c0 -76 16.333 -134.5 49 -175.5s80 -61.5 142 -61.5
c29.333 0 56.833 2.16699 82.5 6.5s58.5 12.166 98.5 23.499l15 113l10 89l20 2l-10 -91l-17 -128c-44.667 -13.333 -80.667 -22.333 -108 -27s-57.666 -7 -90.999 -7c-68.667 0 -121 22 -157 66s-54 106.667 -54 188s12.833 151.333 38.5 210s62.667 103.5 111 134.5
s106.166 46.5 173.499 46.5c27.333 0 55.166 -4.66699 83.499 -14zM354.003 -117.001c0 -13.333 -5.66602 -28.001 -16.999 -44.001s-27.666 -32.333 -48.999 -49l-10 11l1 3c17.333 12.667 30.666 25.834 39.999 39.501s14 26.5 14 38.5c0 13.333 -10 24.666 -30 33.999v4
c3.33301 4.66699 7.66602 8.33398 12.999 11.001c25.333 -11.333 38 -27.333 38 -48z" />
    <glyph glyph-name="gcommaaccent" unicode="&#x123;" horiz-adv-x="513" 
d="M460 453l-8.00098 -17.998h-5c-44 26.667 -85.667 40 -125 40c-77.333 0 -137.333 -24.167 -180 -72.5s-64 -116.5 -64 -204.5c0 -58.667 13.667 -103.834 41 -135.501s66.333 -47.5 117 -47.5c24 0 46.333 1.66699 67 5s47.334 9.33301 80.001 18l10 84l9 61l20 2
l-9 -62l-12 -100c-37.333 -10 -67.333 -16.833 -90 -20.5s-47.667 -5.5 -75 -5.5c-57.333 0 -101.5 17.167 -132.5 51.5s-46.5 83.166 -46.5 146.499c0 95.333 23 169 69 221s111.333 78 196 78c46.667 0 92.667 -13.667 138 -41zM303.999 -116.998
c0 -13.333 -5.66602 -28.001 -16.999 -44.001s-27.666 -32.333 -48.999 -49l-10 11l1 3c17.333 12.667 30.666 25.834 39.999 39.501s14 26.5 14 38.5c0 13.333 -10 24.666 -30 33.999v4c3.33301 4.66699 7.66602 8.33398 12.999 11.001c25.333 -11.333 38 -27.333 38 -48z
" />
    <glyph glyph-name="Hcircumflex" unicode="&#x124;" horiz-adv-x="640" 
d="M585 637l-55 -442l-25 -195h-20l25 195l15 119h-385l-15 -119l-25 -195h-20l25 195l55 442h20l-38 -303h385l38 303h20zM277 743c24.667 16 59.665 41.333 104.998 76h16c34.667 -30 65.334 -55.333 92.001 -76l-8 -14h-5c-26.667 19.333 -55.667 42.666 -87 69.999
c-31.333 -23.333 -65.666 -46.666 -102.999 -69.999h-5z" />
    <glyph glyph-name="hcircumflex" unicode="&#x125;" horiz-adv-x="566" 
d="M221 559l-8 12c28 27.333 66.333 69.333 115 126h18c32.667 -52 61.667 -94 87 -126l-11 -12h-5c-26 33.333 -53 72.333 -81 117c-39.333 -45.333 -76 -84.333 -110 -117h-5zM494 491l-42 -340l-20 -151h-20l20 150l11 90h-314l-11 -89l-20 -151h-20l20 150l42 341h20
l-29 -232h314l29 232h20z" />
    <glyph glyph-name="Hbar" unicode="&#x126;" horiz-adv-x="661" 
d="M638 484h-63l-36 -289l-25 -195h-20l25 195l15 119h-385l-15 -119l-25 -195h-20l25 195l36 289h-63l-3 3l2 17h66l17 133h20l-17 -133h385l17 133h20l-17 -133h60l3 -3zM555 484h-385l-19 -150h385z" />
    <glyph glyph-name="hbar" unicode="&#x127;" horiz-adv-x="566" 
d="M530 364h-52l-26 -213l-20 -151h-20l20 150l11 90h-314l-11 -89l-20 -151h-20l20 150l26 214h-53l-3 3l4 15h55l13 109h20l-13 -109h314l13 109h20l-13 -109h49l4 -2zM458 364h-314l-13 -105h314z" />
    <glyph glyph-name="Imacron" unicode="&#x12a;" horiz-adv-x="235" 
d="M125 195l-25 -195h-20l25 195l55 442h20zM292 789l-2 -17h-207l-3 3l2 17h207z" />
    <glyph glyph-name="imacron" unicode="&#x12b;" horiz-adv-x="233" 
d="M271 643l-2 -17h-207l-3 3l2 17h207zM118 151l-20 -151h-20l20 150l42 341h20z" />
    <glyph glyph-name="Ibreve" unicode="&#x12c;" horiz-adv-x="235" 
d="M125 195l-25 -195h-20l25 195l55 442h20zM283 802c-10.667 -24 -25.332 -42.333 -43.999 -55s-40.334 -19 -65.001 -19s-45.167 6.33301 -61.5 19s-26.5 31 -30.5 55l14 11h5c2.66699 -21.333 10.167 -37.5 22.5 -48.5s29.5 -16.5 51.5 -16.5c44 0 74.333 21.667 91 65h5
z" />
    <glyph glyph-name="ibreve" unicode="&#x12d;" horiz-adv-x="233" 
d="M265 666c-10.667 -36 -25.332 -62.5 -43.999 -79.5s-42 -25.5 -70 -25.5s-49 8.5 -63 25.5s-22.333 43.5 -25 79.5l15 13h5c0.666992 -33.333 6.66699 -58 18 -74s29 -24 53 -24c23.333 0 42.666 8 57.999 24s27.333 40.667 36 74h5zM118.002 151l-20 -151h-20l20 150
l42 341h20z" />
    <glyph glyph-name="Iogonek" unicode="&#x12e;" horiz-adv-x="235" 
d="M125 195l-25 -195h-20l25 195l55 442h20zM37.5 -85.5c-15.667 -22.333 -25.3301 -37.501 -28.9971 -45.501s-5.5 -15.667 -5.5 -23s2.16699 -13 6.5 -17s10.166 -6 17.499 -6c9.33301 0 17.666 3.16699 24.999 9.5s15.333 16.833 24 31.5h2l13 -13
c-11.333 -17.333 -21.833 -29.666 -31.5 -36.999s-20.834 -11 -33.501 -11c-13.333 0 -24 3.5 -32 10.5s-12 16.833 -12 29.5c0 9.33301 2.33301 19 7 29s13.5 24.333 26.5 43s34.5 47 64.5 85h20z" />
    <glyph glyph-name="iogonek" unicode="&#x12f;" horiz-adv-x="233" 
d="M160 491l-41.9961 -340.001l-20 -151l-62.5 -85.5c-15.667 -22.333 -25.334 -37.5 -29.001 -45.5s-5.5 -15.667 -5.5 -23s2.16699 -13 6.5 -17s10.166 -6 17.499 -6c9.33301 0 17.666 3.16699 24.999 9.5s15.333 16.833 24 31.5h2l13 -13
c-11.333 -17.333 -21.833 -29.666 -31.5 -36.999s-20.834 -11 -33.501 -11c-13.333 0 -24 3.5 -32 10.5s-12 16.833 -12 29.5c0 9.33301 2.33301 19 7 29s13.5 24.333 26.5 43s34.5 47 64.5 85l20 150l42 341h20z" />
    <glyph glyph-name="Idotaccent" unicode="&#x130;" horiz-adv-x="235" 
d="M125 195l-25 -195h-20l25 195l55 442h20zM202.5 810.5c3.66699 -3.66699 5.5 -8.5 5.5 -14.5s-1.83301 -10.833 -5.5 -14.5s-8.5 -5.5 -14.5 -5.5s-10.833 1.83301 -14.5 5.5s-5.5 8.5 -5.5 14.5s1.83301 10.833 5.5 14.5s8.5 5.5 14.5 5.5s10.833 -1.83301 14.5 -5.5z
" />
    <glyph glyph-name="dotlessi" unicode="&#x131;" horiz-adv-x="233" 
d="M118 151l-20 -151h-20l20 150l42 341h20z" />
    <glyph glyph-name="IJ" unicode="&#x132;" horiz-adv-x="495" 
d="M125 195l-25 -195h-20l25 195l55 442h20zM382 212l-12.002 -97c-6 -46.667 -20.667 -86.167 -44 -118.5s-59.666 -63.833 -108.999 -94.5l-9 11v6c45.333 28 79.333 57.333 102 88s36.334 66.667 41.001 108l11 93l51 409h-125l-4 4l5 16h146z" />
    <glyph glyph-name="ij" unicode="&#x133;" horiz-adv-x="494" 
d="M140 491h20l-42 -340l-20 -151h-20l20 150zM370 163l-9 -74c-4.66699 -36.667 -15.5 -67.5 -32.5 -92.5s-43.833 -49.167 -80.5 -72.5l-9 13v5c32 21.333 56 43.5 72 66.5s26 50.167 30 81.5l8 70l39 312h-102l-3 3l5 16h122z" />
    <glyph glyph-name="Jcircumflex" unicode="&#x134;" horiz-adv-x="260" 
d="M147 212l-12.002 -97c-6 -46.667 -20.667 -86.167 -44 -118.5s-59.666 -63.833 -108.999 -94.5l-9 11v6c45.333 28 79.333 57.333 102 88s36.334 66.667 41.001 108l11 93l51 409h-125l-4 4l5 16h146zM36.998 743c24.667 16 59.665 41.333 104.998 76h16
c34.667 -30 65.334 -55.333 92.001 -76l-8 -14h-5c-26.667 19.333 -55.667 42.666 -87 69.999c-31.333 -23.333 -65.666 -46.666 -102.999 -69.999h-5z" />
    <glyph glyph-name="jcircumflex" unicode="&#x135;" horiz-adv-x="261" 
d="M248 571l-11 -12h-5c-26 33.333 -53 72.333 -81 117c-39.333 -45.333 -76 -84.333 -110 -117h-5l-8 12c28 27.333 66.333 69.333 115 126h18c32.667 -52 61.667 -94 87 -126zM137 163l-9 -74c-4.66699 -36.667 -15.5 -67.5 -32.5 -92.5s-43.833 -49.167 -80.5 -72.5
l-9 13v5c32 21.333 56 43.5 72 66.5s26 50.167 30 81.5l8 70l39 312h-102l-3 3l5 16h122z" />
    <glyph glyph-name="Kcommaaccent" unicode="&#x136;" horiz-adv-x="483" 
d="M125 195l-25 -195h-20l25 195l56 442h20zM198 339c77.333 -118 160.001 -229.332 248.001 -333.999v-4c-2.66699 -2.66699 -7.33398 -5.33398 -14.001 -8.00098l-4 1c-99.333 119.333 -185.333 234.333 -258 345v3l265 248l47 47h32zM300.001 -116.999
c0 -13.333 -5.66602 -28.001 -16.999 -44.001s-27.666 -32.333 -48.999 -49l-10 11l1 3c17.333 12.667 30.666 25.834 39.999 39.501s14 26.5 14 38.5c0 13.333 -10 24.666 -30 33.999v4c3.33301 4.66699 7.66602 8.33398 12.999 11.001c25.333 -11.333 38 -27.333 38 -48z
" />
    <glyph glyph-name="kcommaaccent" unicode="&#x137;" horiz-adv-x="439" 
d="M118 151l-20 -151h-20l20 150l42 341h20zM178 261c62 -88.667 131.667 -174.001 209 -256.001l-2 -4c-2 -1.33301 -7.33301 -3.66602 -16 -6.99902l-3 2c-80.667 89.333 -152 177.333 -214 264v3l216 191l38 37h28zM244 -117.001
c0 -13.333 -5.66602 -28.001 -16.999 -44.001s-27.666 -32.333 -48.999 -49l-10 11l1 3c17.333 12.667 30.666 25.834 39.999 39.501s14 26.5 14 38.5c0 13.333 -10 24.666 -30 33.999v4c3.33301 4.66699 7.66602 8.33398 12.999 11.001c25.333 -11.333 38 -27.333 38 -48z
" />
    <glyph glyph-name="kgreenlandic" unicode="&#x138;" horiz-adv-x="439" 
d="M118 151l-20 -151h-20l20 150l42 341h20zM178 261c62 -88.667 131.667 -174.001 209 -256.001l-2 -4c-2 -1.33301 -7.33301 -3.66602 -16 -6.99902l-3 2c-80.667 89.333 -152 177.333 -214 264v3l216 191l38 37h28z" />
    <glyph glyph-name="Lacute" unicode="&#x139;" horiz-adv-x="382" 
d="M351 16l-6 -16h-264l25 195l55 442h20l-55 -442l-22 -175h244zM280 834l6.99902 -11.999l-2 -5c-44.667 -25.333 -102.667 -56.333 -174 -93l-5 3l-7 15c60.667 29.333 119.334 60.666 176.001 93.999z" />
    <glyph glyph-name="lacute" unicode="&#x13a;" horiz-adv-x="354" 
d="M102 558l-11 12.999c46 38.667 94.667 84.334 146 137.001l5 -1l10 -10l-1 -5c-46 -46 -94 -91 -144 -135zM305 15.999l-5 -16h-221l20 150l43 341h20l-43 -340l-17 -132h202z" />
    <glyph glyph-name="Lcommaaccent" unicode="&#x13b;" horiz-adv-x="382" 
d="M351 16l-6 -16h-264l25 195l55 442h20l-55 -442l-22 -175h244zM236 -117c0 -13.333 -5.66602 -28.001 -16.999 -44.001s-27.666 -32.333 -48.999 -49l-10 11l1 3c17.333 12.667 30.666 25.834 39.999 39.501s14 26.5 14 38.5c0 13.333 -10 24.666 -30 33.999v4
c3.33301 4.66699 7.66602 8.33398 12.999 11.001c25.333 -11.333 38 -27.333 38 -48z" />
    <glyph glyph-name="lcommaaccent" unicode="&#x13c;" horiz-adv-x="354" 
d="M305 16l-5 -16h-221l20 150l43 341h20l-43 -340l-17 -132h202zM236 -117c0 -13.333 -5.66602 -28.001 -16.999 -44.001s-27.666 -32.333 -48.999 -49l-10 11l1 3c17.333 12.667 30.666 25.834 39.999 39.501s14 26.5 14 38.5c0 13.333 -10 24.666 -30 33.999v4
c3.33301 4.66699 7.66602 8.33398 12.999 11.001c25.333 -11.333 38 -27.333 38 -48z" />
    <glyph glyph-name="Lcaron" unicode="&#x13d;" horiz-adv-x="425" 
d="M351 16l-6 -16h-264l25 195l55 442h20l-55 -442l-22 -175h244zM394 586l-29 -144l-18 -2l-2 4l29 144l18 2z" />
    <glyph glyph-name="lcaron" unicode="&#x13e;" horiz-adv-x="379" 
d="M304 19l1 -3l-5 -16h-221l20 150l43 341h20l-43 -340l-17 -132h202zM344 462l-29 -144l-18 -2l-2 4l29 144l18 2z" />
    <glyph glyph-name="Ldot" unicode="&#x13f;" horiz-adv-x="382" 
d="M351 16l-6 -16h-264l25 195l55 442h20l-55 -442l-22 -175h244zM314.5 381.5c3.66699 -3.66699 5.5 -8.5 5.5 -14.5s-1.83301 -10.833 -5.5 -14.5s-8.5 -5.5 -14.5 -5.5s-10.833 1.83301 -14.5 5.5s-5.5 8.5 -5.5 14.5s1.83301 10.833 5.5 14.5s8.5 5.5 14.5 5.5
s10.833 -1.83301 14.5 -5.5z" />
    <glyph glyph-name="ldot" unicode="&#x140;" horiz-adv-x="364" 
d="M305 16l-5 -16h-221l20 150l43 341h20l-43 -340l-17 -132h202zM234.5 250.5c-3.66699 3.66699 -5.5 8.5 -5.5 14.5s1.83301 10.833 5.5 14.5s8.5 5.5 14.5 5.5s10.833 -1.83301 14.5 -5.5s5.5 -8.5 5.5 -14.5s-1.83301 -10.833 -5.5 -14.5s-8.5 -5.5 -14.5 -5.5
s-10.833 1.83301 -14.5 5.5z" />
    <glyph glyph-name="Lslash" unicode="&#x141;" horiz-adv-x="387" 
d="M357 16l-6 -16h-264l25 195l17 140l-90 -49l-5 3l-3 15l101 54l35 279h20l-33 -267l157 84l5 -2l4 -15l-169 -91l-41 -326h244z" />
    <glyph glyph-name="lslash" unicode="&#x142;" horiz-adv-x="361" 
d="M313 16l-5 -16h-221l20 150l13 107l-83 -40l-5 3l-1 14l92 43l27 214h20l-26 -204l134 63l4 -1l1 -15l-141 -67l-15 -116l-17 -132h202z" />
    <glyph glyph-name="Nacute" unicode="&#x143;" horiz-adv-x="640" 
d="M526 176l-23 -176h-19l-304 595h-4l-51 -396l-25 -199h-20l24 190l57 447h19l304 -595h4l77 594l20 2zM478 834l6.99902 -11.999l-2 -5c-44.667 -25.333 -102.667 -56.333 -174 -93l-5 3l-7 15c60.667 29.333 119.334 60.666 176.001 93.999z" />
    <glyph glyph-name="nacute" unicode="&#x144;" horiz-adv-x="566" 
d="M405 707l10 -10.001l-1 -5c-46 -46 -94 -91 -144 -135l-5 1l-11 13c46 38.667 94.667 84.334 146 137.001zM449 136.999l-19 -137h-20l-252 451h-2l-39 -297l-19 -154h-20l19 146l44 345h20l252 -451h4l57 450l20 2z" />
    <glyph glyph-name="Ncommaaccent" unicode="&#x145;" horiz-adv-x="640" 
d="M526 176l-23 -176h-19l-304 595h-4l-51 -396l-25 -199h-20l24 190l57 447h19l304 -595h4l77 594l20 2zM327 -117c0 -13.333 -5.66602 -28.001 -16.999 -44.001s-27.666 -32.333 -48.999 -49l-10 11l1 3c17.333 12.667 30.666 25.834 39.999 39.501s14 26.5 14 38.5
c0 13.333 -10 24.666 -30 33.999v4c3.33301 4.66699 7.66602 8.33398 12.999 11.001c25.333 -11.333 38 -27.333 38 -48z" />
    <glyph glyph-name="ncommaaccent" unicode="&#x146;" horiz-adv-x="566" 
d="M449 137l-19 -137h-20l-252 451h-2l-39 -297l-19 -154h-20l19 146l44 345h20l252 -451h4l57 450l20 2zM288 -117c0 -13.333 -5.66602 -28.001 -16.999 -44.001s-27.666 -32.333 -48.999 -49l-10 11l1 3c17.333 12.667 30.666 25.834 39.999 39.501s14 26.5 14 38.5
c0 13.333 -10 24.666 -30 33.999v4c3.33301 4.66699 7.66602 8.33398 12.999 11.001c25.333 -11.333 38 -27.333 38 -48z" />
    <glyph glyph-name="Ncaron" unicode="&#x147;" horiz-adv-x="640" 
d="M526 176l-23 -176h-19l-304 595h-4l-51 -396l-25 -199h-20l24 190l57 447h19l304 -595h4l77 594l20 2zM497 805c-24.667 -16 -59.665 -41.333 -104.998 -76h-16c-34.667 30 -65.334 55.333 -92.001 76l8 14h5c26.667 -19.333 55.667 -42.666 87 -69.999
c31.333 23.333 65.666 46.666 102.999 69.999h5z" />
    <glyph glyph-name="ncaron" unicode="&#x148;" horiz-adv-x="566" 
d="M441 685c-28 -27.333 -66.333 -69.333 -115 -126h-18c-32.667 52 -61.667 94 -87 126l11 12h5c26 -33.333 53 -72.333 81 -117c39.333 45.333 76 84.333 110 117h5zM449 137l-19 -137h-20l-252 451h-2l-39 -297l-19 -154h-20l19 146l44 345h20l252 -451h4l57 450l20 2z
" />
    <glyph glyph-name="Eng" unicode="&#x14a;" horiz-adv-x="648" 
d="M531 176l-18 -137c-4.66699 -39.333 -17.834 -72.666 -39.501 -99.999s-57.167 -55 -106.5 -83l-10 11l1 6c38.667 22 67.834 43.167 87.501 63.5s33.5 43.166 41.5 68.499l-309 590h-4l-49 -396l-24 -199h-20l23 190l56 447h19l311 -595h4l75 594l20 2z" />
    <glyph glyph-name="eng" unicode="&#x14b;" horiz-adv-x="566" 
d="M448 137l-13 -102.001c-4.66699 -34 -14 -62.167 -28 -84.5s-36 -44.166 -66 -65.499l-8 11l1 5c20.667 15.333 37 31 49 47s20.667 34.333 26 55l-251 448h-3l-38 -297l-19 -154h-20l20 146l43 345h20l252 -451h5l56 450l20 2z" />
    <glyph glyph-name="Omacron" unicode="&#x14c;" horiz-adv-x="599" 
d="M513.5 577c36.333 -43.333 54.501 -105.335 54.501 -186.002c0 -81.333 -11.833 -151.666 -35.5 -210.999s-58 -105 -103 -137s-99.167 -48 -162.5 -48c-68 0 -120.167 22.333 -156.5 67s-54.5 108.334 -54.5 191.001c0 80.667 11.667 150.167 35 208.5
s57.5 103 102.5 134s98.833 46.5 161.5 46.5c69.333 0 122.166 -21.667 158.499 -65zM205.001 577.998c-41.333 -29.333 -73 -71.5 -95 -126.5s-33 -120.167 -33 -195.5c0 -76.667 16.5 -136 49.5 -178s80.167 -63 141.5 -63c58 0 108 15.167 150 45.5s74 73.333 96 129
s33 121.5 33 197.5c0 75.333 -16.333 133.333 -49 174s-80.667 61 -144 61c-58 0 -107.667 -14.667 -149 -44zM514.001 788.998l-2 -17h-287l-3 3l2 17h287z" />
    <glyph glyph-name="omacron" unicode="&#x14d;" horiz-adv-x="533" 
d="M462 643l-2 -17h-287l-3 3l2 17h287zM435.5 443c31 -34.667 46.499 -83.332 46.499 -145.999c0 -94 -21.667 -167.667 -65 -221s-103.666 -80 -180.999 -80c-57.333 0 -101.5 17.667 -132.5 53s-46.5 85 -46.5 149c0 93.333 21.5 166.166 64.5 218.499
s103.5 78.5 181.5 78.5c57.333 0 101.5 -17.333 132.5 -52zM136.999 403.002c-38.667 -48 -58 -115.667 -58 -203c0 -59.333 13.333 -104.833 40 -136.5s65.334 -47.5 116.001 -47.5c70.667 0 126 24.5 166 73.5s60 117.167 60 204.5c0 58.667 -13.667 103.5 -41 134.5
s-67 46.5 -119 46.5c-70.667 0 -125.334 -24 -164.001 -72z" />
    <glyph glyph-name="Obreve" unicode="&#x14e;" horiz-adv-x="599" 
d="M513.5 577c36.333 -43.333 54.501 -105.335 54.501 -186.002c0 -81.333 -11.833 -151.666 -35.5 -210.999s-58 -105 -103 -137s-99.167 -48 -162.5 -48c-68 0 -120.167 22.333 -156.5 67s-54.5 108.334 -54.5 191.001c0 80.667 11.667 150.167 35 208.5
s57.5 103 102.5 134s98.833 46.5 161.5 46.5c69.333 0 122.166 -21.667 158.499 -65zM205.001 577.998c-41.333 -29.333 -73 -71.5 -95 -126.5s-33 -120.167 -33 -195.5c0 -76.667 16.5 -136 49.5 -178s80.167 -63 141.5 -63c58 0 108 15.167 150 45.5s74 73.333 96 129
s33 121.5 33 197.5c0 75.333 -16.333 133.333 -49 174s-80.667 61 -144 61c-58 0 -107.667 -14.667 -149 -44zM465.001 801.998c-10.667 -24 -25.332 -42.333 -43.999 -55s-40.334 -19 -65.001 -19s-45.167 6.33301 -61.5 19s-26.5 31 -30.5 55l14 11h5
c2.66699 -21.333 10.167 -37.5 22.5 -48.5s29.5 -16.5 51.5 -16.5c44 0 74.333 21.667 91 65h5z" />
    <glyph glyph-name="obreve" unicode="&#x14f;" horiz-adv-x="533" 
d="M415 666c-10.667 -36 -25.332 -62.5 -43.999 -79.5s-42 -25.5 -70 -25.5s-49 8.5 -63 25.5s-22.333 43.5 -25 79.5l15 13h5c0.666992 -33.333 6.66699 -58 18 -74s29 -24 53 -24c23.333 0 42.666 8 57.999 24s27.333 40.667 36 74h5zM435.502 443
c31 -34.667 46.499 -83.332 46.499 -145.999c0 -94 -21.667 -167.667 -65 -221s-103.666 -80 -180.999 -80c-57.333 0 -101.5 17.667 -132.5 53s-46.5 85 -46.5 149c0 93.333 21.5 166.166 64.5 218.499s103.5 78.5 181.5 78.5c57.333 0 101.5 -17.333 132.5 -52z
M137.001 403.002c-38.667 -48 -58 -115.667 -58 -203c0 -59.333 13.333 -104.833 40 -136.5s65.334 -47.5 116.001 -47.5c70.667 0 126 24.5 166 73.5s60 117.167 60 204.5c0 58.667 -13.667 103.5 -41 134.5s-67 46.5 -119 46.5c-70.667 0 -125.334 -24 -164.001 -72z" />
    <glyph glyph-name="Ohungarumlaut" unicode="&#x150;" horiz-adv-x="599" 
d="M513.5 577c36.333 -43.333 54.501 -105.335 54.501 -186.002c0 -81.333 -11.833 -151.666 -35.5 -210.999s-58 -105 -103 -137s-99.167 -48 -162.5 -48c-68 0 -120.167 22.333 -156.5 67s-54.5 108.334 -54.5 191.001c0 80.667 11.667 150.167 35 208.5
s57.5 103 102.5 134s98.833 46.5 161.5 46.5c69.333 0 122.166 -21.667 158.499 -65zM205.001 577.998c-41.333 -29.333 -73 -71.5 -95 -126.5s-33 -120.167 -33 -195.5c0 -76.667 16.5 -136 49.5 -178s80.167 -63 141.5 -63c58 0 108 15.167 150 45.5s74 73.333 96 129
s33 121.5 33 197.5c0 75.333 -16.333 133.333 -49 174s-80.667 61 -144 61c-58 0 -107.667 -14.667 -149 -44zM293.001 756.998c50 46.667 79.666 74.667 88.999 84l5 -1l10 -10l-1 -5c-23.333 -23.333 -60.666 -58.333 -111.999 -105l-5 1l-11 13zM423 756.998
c50 46.667 79.666 74.667 88.999 84l5 -1l10 -10l-1 -5c-23.333 -23.333 -60.666 -58.333 -111.999 -105l-5 1l-11 13z" />
    <glyph glyph-name="ohungarumlaut" unicode="&#x151;" horiz-adv-x="533" 
d="M354 706l5 -1l10 -10l-1 -5c-46.667 -46 -94.667 -91 -144 -135l-5 1l-11 13c51.333 45.333 100 91 146 137zM484 706l4.99902 -1.00098l10 -10l-1 -5c-46.667 -46 -94.667 -91 -144 -135l-5 1l-11 13c50.667 44.667 99.334 90.334 146.001 137.001zM435.499 442.999
c31 -34.667 46.499 -83.332 46.499 -145.999c0 -94 -21.667 -167.667 -65 -221s-103.666 -80 -180.999 -80c-57.333 0 -101.5 17.667 -132.5 53s-46.5 85 -46.5 149c0 93.333 21.5 166.166 64.5 218.499s103.5 78.5 181.5 78.5c57.333 0 101.5 -17.333 132.5 -52z
M136.998 403.001c-38.667 -48 -58 -115.667 -58 -203c0 -59.333 13.333 -104.833 40 -136.5s65.334 -47.5 116.001 -47.5c70.667 0 126 24.5 166 73.5s60 117.167 60 204.5c0 58.667 -13.667 103.5 -41 134.5s-67 46.5 -119 46.5c-70.667 0 -125.334 -24 -164.001 -72z" />
    <glyph glyph-name="OE" unicode="&#x152;" horiz-adv-x="789" 
d="M465 643c30.667 -4 55.001 -5.99902 73.001 -5.99902h269l3 -4l-6 -16h-270l-34 -277h222l2 -4l-6 -16h-222l-16 -132l-21 -168h274l3 -4l-6 -16h-273c-19.333 0 -47 -2 -83 -6c-34.667 -4 -59 -6 -73 -6c-78.667 0 -139.167 24 -181.5 72s-63.5 114.667 -63.5 200
c0 79.333 13.5 148.166 40.5 206.499s66 103.333 117 135s111.5 47.5 181.5 47.5c17.333 0 40.666 -2 69.999 -6zM223.001 584.501c-47.333 -29.667 -83.668 -72.168 -109.001 -127.501s-38 -120.333 -38 -195c0 -80.667 19.833 -143.167 59.5 -187.5
s97.5 -66.5 173.5 -66.5c28 0 62 3.33301 102 10c11.333 2 19 4.66699 23 8s6.66699 9 8 17l66 543c0.666992 5.33301 1 11.333 1 18c0 5.33301 -0.666992 8.83301 -2 10.5s-4 2.83398 -8 3.50098c-39.333 7.33301 -75 11 -107 11
c-65.333 0 -121.666 -14.833 -168.999 -44.5z" />
    <glyph glyph-name="oe" unicode="&#x153;" horiz-adv-x="691" 
d="M393 496c22 -3.33301 42.667 -5 62 -5h224l2 -4l-5 -16l-223 1l-27 -208h184l3 -4l-6 -16h-183l-12 -99l-17 -126h227l2 -3l-5 -16h-226c-20.667 -0 -42.667 -1.66699 -66 -5c-28 -2.66699 -48.333 -4 -61 -4c-66 0 -117.167 18.667 -153.5 56s-54.5 89.333 -54.5 156
c0 92 24 164.5 72 217.5s115.333 79.5 202 79.5c14 0 34.333 -1.33301 61 -4zM146 407.5c-44.667 -49 -67.001 -116.502 -67.001 -202.502c0 -62 16 -110 48 -144s79.333 -51 142 -51c28 0 56.333 2.66699 85 8c8.66699 1.33301 14.5 3.33301 17.5 6
s5.16699 7.33398 6.5 14.001l50 409c0.666992 3.33301 1 7.66602 1 12.999c0 4 -0.666992 6.83301 -2 8.5s-3.66602 2.83398 -6.99902 3.50098c-5.33301 0.666992 -17.5 2.33398 -36.5 5.00098s-36.167 4 -51.5 4c-79.333 0 -141.333 -24.5 -186 -73.5z" />
    <glyph glyph-name="Racute" unicode="&#x154;" horiz-adv-x="494" 
d="M402 348.5c-28.667 -39 -69.334 -66.499 -122.001 -82.499c40 -89.333 85.667 -176.333 137 -261l-1 -4c-3.33301 -3.33301 -7.66602 -6 -12.999 -8l-5 2c-54 91.333 -100.667 180.666 -140 267.999h-125l-8 -68l-25 -195h-20l25 195l55 442l133 2
c48.667 0 86.167 -12.833 112.5 -38.5s39.5 -62.167 39.5 -109.5c0 -56 -14.333 -103.5 -43 -142.5zM136 283.001h134c49.333 13.333 87.5 37.833 114.5 73.5s40.5 79.5 40.5 131.5c0 40 -10.833 71.333 -32.5 94s-53.167 35 -94.5 37l-120 -1zM388 853.001l10 -10.001
l-1 -5c-46 -46 -94 -91 -144 -135l-5 1l-11 13c46 38.667 94.667 84.334 146 137.001z" />
    <glyph glyph-name="racute" unicode="&#x155;" horiz-adv-x="450" 
d="M209 558l-11 12.999c46 38.667 94.667 84.334 146 137.001l5 -1l10 -10l-1 -5c-46 -46 -94 -91 -144 -135zM347 268.499c-23.333 -29.667 -56.333 -50.832 -99 -63.499c34 -68.667 72.333 -135.334 115 -200.001v-4l-15 -7l-6 3c-44.667 71.333 -83 139.333 -115 204
h-103l-6 -50l-19 -151h-20l19 150l43 341l110 1c41.333 0 73.5 -10.167 96.5 -30.5s34.5 -48.833 34.5 -85.5c0 -42 -11.667 -77.833 -35 -107.5zM127 222.001l108 -1c40 10 71 28.167 93 54.5s33 58.833 33 97.5c0 30.667 -9 54.667 -27 72s-44.333 27 -79 29l-96 -1z" />
    <glyph glyph-name="Rcommaaccent" unicode="&#x156;" horiz-adv-x="494" 
d="M402 348.5c-28.667 -39 -69.334 -66.499 -122.001 -82.499c40 -89.333 85.667 -176.333 137 -261l-1 -4c-3.33301 -3.33301 -7.66602 -6 -12.999 -8l-5 2c-54 91.333 -100.667 180.666 -140 267.999h-125l-8 -68l-25 -195h-20l25 195l55 442l133 2
c48.667 0 86.167 -12.833 112.5 -38.5s39.5 -62.167 39.5 -109.5c0 -56 -14.333 -103.5 -43 -142.5zM136 283.001h134c49.333 13.333 87.5 37.833 114.5 73.5s40.5 79.5 40.5 131.5c0 40 -10.833 71.333 -32.5 94s-53.167 35 -94.5 37l-120 -1zM253 -116.999
c0 -13.333 -5.66602 -28.001 -16.999 -44.001s-27.666 -32.333 -48.999 -49l-10 11l1 3c17.333 12.667 30.666 25.834 39.999 39.501s14 26.5 14 38.5c0 13.333 -10 24.666 -30 33.999v4c3.33301 4.66699 7.66602 8.33398 12.999 11.001c25.333 -11.333 38 -27.333 38 -48z
" />
    <glyph glyph-name="rcommaaccent" unicode="&#x157;" horiz-adv-x="450" 
d="M347 268.5c-23.333 -29.667 -56.333 -50.832 -99 -63.499c34 -68.667 72.333 -135.334 115 -200.001v-4l-15 -7l-6 3c-44.667 71.333 -83 139.333 -115 204h-103l-6 -50l-19 -151h-20l19 150l43 341l110 1c41.333 0 73.5 -10.167 96.5 -30.5s34.5 -48.833 34.5 -85.5
c0 -42 -11.667 -77.833 -35 -107.5zM127 222.002l108 -1c40 10 71 28.167 93 54.5s33 58.833 33 97.5c0 30.667 -9 54.667 -27 72s-44.333 27 -79 29l-96 -1zM243 -116.998c0 -13.333 -5.66602 -28.001 -16.999 -44.001s-27.666 -32.333 -48.999 -49l-10 11l1 3
c17.333 12.667 30.666 25.834 39.999 39.501s14 26.5 14 38.5c0 13.333 -10 24.666 -30 33.999v4c3.33301 4.66699 7.66602 8.33398 12.999 11.001c25.333 -11.333 38 -27.333 38 -48z" />
    <glyph glyph-name="Rcaron" unicode="&#x158;" horiz-adv-x="494" 
d="M402 348.5c-28.667 -39 -69.334 -66.499 -122.001 -82.499c40 -89.333 85.667 -176.333 137 -261l-1 -4c-3.33301 -3.33301 -7.66602 -6 -12.999 -8l-5 2c-54 91.333 -100.667 180.666 -140 267.999h-125l-8 -68l-25 -195h-20l25 195l55 442l133 2
c48.667 0 86.167 -12.833 112.5 -38.5s39.5 -62.167 39.5 -109.5c0 -56 -14.333 -103.5 -43 -142.5zM136 283.001h134c49.333 13.333 87.5 37.833 114.5 73.5s40.5 79.5 40.5 131.5c0 40 -10.833 71.333 -32.5 94s-53.167 35 -94.5 37l-120 -1zM424 831.001
c-28 -27.333 -66.333 -69.333 -115 -126h-18c-32.667 52 -61.667 94 -87 126l11 12h5c26 -33.333 53 -72.333 81 -117c39.333 45.333 76 84.333 110 117h5z" />
    <glyph glyph-name="rcaron" unicode="&#x159;" horiz-adv-x="450" 
d="M252 559c-32.667 52 -61.667 94 -87 126l11 12h5c26 -33.333 53 -72.333 81 -117c39.333 45.333 76 84.333 110 117h5l8 -12c-28 -27.333 -66.333 -69.333 -115 -126h-18zM347 268.5c-23.333 -29.667 -56.333 -50.832 -99 -63.499
c34 -68.667 72.333 -135.334 115 -200.001v-4l-15 -7l-6 3c-44.667 71.333 -83 139.333 -115 204h-103l-6 -50l-19 -151h-20l19 150l43 341l110 1c41.333 0 73.5 -10.167 96.5 -30.5s34.5 -48.833 34.5 -85.5c0 -42 -11.667 -77.833 -35 -107.5zM328 275.502
c22 26.333 33 58.833 33 97.5c0 30.667 -9 54.667 -27 72s-44.333 27 -79 29l-96 -1l-32 -251l108 -1c40 10 71 28.167 93 54.5z" />
    <glyph glyph-name="Sacute" unicode="&#x15a;" horiz-adv-x="423" 
d="M398 611l-5.99414 -18.0049l-7 -1c-30.667 18.667 -65.334 28 -104.001 28c-32 0 -60.667 -6.83301 -86 -20.5s-45 -31.5 -59 -53.5s-21 -45 -21 -69c0 -22 5.33301 -41.333 16 -58s23.5 -30.834 38.5 -42.501s35.833 -25.5 62.5 -41.5
c29.333 -17.333 52.666 -32.666 69.999 -45.999s32 -30.166 44 -50.499s18 -44.166 18 -71.499c0 -30.667 -8.83301 -59.167 -26.5 -85.5s-41.667 -47.166 -72 -62.499s-63.5 -23 -99.5 -23c-24.667 0 -49.334 4 -74.001 12s-46 19.667 -64 35l3 19l6 2
c17.333 -16 37.666 -28 60.999 -36s46.666 -12 69.999 -12c33.333 0 63.5 7 90.5 21s48 32.333 63 55s22.5 47 22.5 73c0 23.333 -5.5 43.833 -16.5 61.5s-24.333 32.5 -40 44.5s-37.167 26.333 -64.5 43c-28.667 18 -51.334 33.333 -68.001 46
s-30.834 28.834 -42.501 48.501s-17.5 42.834 -17.5 69.501c0 30 8.33301 57.333 25 82s39.334 44.167 68.001 58.5s60.667 21.5 96 21.5c40.667 0 78.667 -9.66699 114 -29zM353.006 852.995l10 -10.001l-1 -5c-46 -46 -94 -91 -144 -135l-5 1l-11 13
c46 38.667 94.667 84.334 146 137.001z" />
    <glyph glyph-name="sacute" unicode="&#x15b;" horiz-adv-x="387" 
d="M313 707l10 -10.001l-1 -5c-46 -46 -94 -91 -144 -135l-5 1l-11 13c46 38.667 94.667 84.334 146 137.001zM338 470.999l-7 -17.999l-6 -1c-25.333 14 -54 21 -86 21c-26 0 -49 -5.33301 -69 -16s-35.333 -24.5 -46 -41.5s-16 -34.833 -16 -53.5
c0 -23.333 8 -42.166 24 -56.499s40.333 -29.5 73 -45.5c24 -12 43.333 -22.833 58 -32.5s27.167 -22.167 37.5 -37.5s15.5 -34 15.5 -56c0 -24 -6.83301 -46.5 -20.5 -67.5s-32.667 -37.833 -57 -50.5s-51.5 -19 -81.5 -19c-20.667 0 -41.667 3.16699 -63 9.5
s-39.333 15.166 -54 26.499l2 20l5 1c14.667 -12 32 -21.167 52 -27.5s39.667 -9.5 59 -9.5c26 0 49.667 5.66699 71 17s37.833 26.166 49.5 44.499s17.5 37.166 17.5 56.499c0 24 -8.16699 43 -24.5 57s-40.833 29.333 -73.5 46
c-24.667 12.667 -44.167 23.834 -58.5 33.501s-26.5 22 -36.5 37s-15 33.167 -15 54.5c0 23.333 6.5 44.833 19.5 64.5s31 35.5 54 47.5s49.167 18 78.5 18c34 0 66.667 -7.33301 98 -22z" />
    <glyph glyph-name="Scircumflex" unicode="&#x15c;" horiz-adv-x="423" 
d="M398 611l-5.99414 -18.0049l-7 -1c-30.667 18.667 -65.334 28 -104.001 28c-32 0 -60.667 -6.83301 -86 -20.5s-45 -31.5 -59 -53.5s-21 -45 -21 -69c0 -22 5.33301 -41.333 16 -58s23.5 -30.834 38.5 -42.501s35.833 -25.5 62.5 -41.5
c29.333 -17.333 52.666 -32.666 69.999 -45.999s32 -30.166 44 -50.499s18 -44.166 18 -71.499c0 -30.667 -8.83301 -59.167 -26.5 -85.5s-41.667 -47.166 -72 -62.499s-63.5 -23 -99.5 -23c-24.667 0 -49.334 4 -74.001 12s-46 19.667 -64 35l3 19l6 2
c17.333 -16 37.666 -28 60.999 -36s46.666 -12 69.999 -12c33.333 0 63.5 7 90.5 21s48 32.333 63 55s22.5 47 22.5 73c0 23.333 -5.5 43.833 -16.5 61.5s-24.333 32.5 -40 44.5s-37.167 26.333 -64.5 43c-28.667 18 -51.334 33.333 -68.001 46
s-30.834 28.834 -42.501 48.501s-17.5 42.834 -17.5 69.501c0 30 8.33301 57.333 25 82s39.334 44.167 68.001 58.5s60.667 21.5 96 21.5c40.667 0 78.667 -9.66699 114 -29zM161.006 716.995c28 27.333 66.333 69.333 115 126h18c32.667 -52 61.667 -94 87 -126l-11 -12h-5
c-26 33.333 -53 72.333 -81 117c-39.333 -45.333 -76 -84.333 -110 -117h-5z" />
    <glyph glyph-name="scircumflex" unicode="&#x15d;" horiz-adv-x="387" 
d="M121 571c28 27.333 66.333 69.333 115 126h18c32.667 -52 61.667 -94 87 -126l-11 -12h-5c-26 33.333 -53 72.333 -81 117c-39.333 -45.333 -76 -84.333 -110 -117h-5zM338 471l-7 -17.999l-6 -1c-25.333 14 -54 21 -86 21c-26 0 -49 -5.33301 -69 -16
s-35.333 -24.5 -46 -41.5s-16 -34.833 -16 -53.5c0 -23.333 8 -42.166 24 -56.499s40.333 -29.5 73 -45.5c24 -12 43.333 -22.833 58 -32.5s27.167 -22.167 37.5 -37.5s15.5 -34 15.5 -56c0 -24 -6.83301 -46.5 -20.5 -67.5s-32.667 -37.833 -57 -50.5s-51.5 -19 -81.5 -19
c-20.667 0 -41.667 3.16699 -63 9.5s-39.333 15.166 -54 26.499l2 20l5 1c14.667 -12 32 -21.167 52 -27.5s39.667 -9.5 59 -9.5c26 0 49.667 5.66699 71 17s37.833 26.166 49.5 44.499s17.5 37.166 17.5 56.499c0 24 -8.16699 43 -24.5 57s-40.833 29.333 -73.5 46
c-24.667 12.667 -44.167 23.834 -58.5 33.501s-26.5 22 -36.5 37s-15 33.167 -15 54.5c0 23.333 6.5 44.833 19.5 64.5s31 35.5 54 47.5s49.167 18 78.5 18c34 0 66.667 -7.33301 98 -22z" />
    <glyph glyph-name="Scedilla" unicode="&#x15e;" horiz-adv-x="423" 
d="M398 611l-5.99414 -18.0049l-7 -1c-30.667 18.667 -65.334 28 -104.001 28c-32 0 -60.667 -6.83301 -86 -20.5s-45 -31.5 -59 -53.5s-21 -45 -21 -69c0 -22 5.33301 -41.333 16 -58s23.5 -30.834 38.5 -42.501s35.833 -25.5 62.5 -41.5
c29.333 -17.333 52.666 -32.666 69.999 -45.999s32 -30.166 44 -50.499s18 -44.166 18 -71.499c0 -30.667 -8.83301 -59.167 -26.5 -85.5s-41.667 -47.166 -72 -62.499s-63.5 -23 -99.5 -23c-24.667 0 -49.334 4 -74.001 12s-46 19.667 -64 35l3 19l6 2
c17.333 -16 37.666 -28 60.999 -36s46.666 -12 69.999 -12c33.333 0 63.5 7 90.5 21s48 32.333 63 55s22.5 47 22.5 73c0 23.333 -5.5 43.833 -16.5 61.5s-24.333 32.5 -40 44.5s-37.167 26.333 -64.5 43c-28.667 18 -51.334 33.333 -68.001 46
s-30.834 28.834 -42.501 48.501s-17.5 42.834 -17.5 69.501c0 30 8.33301 57.333 25 82s39.334 44.167 68.001 58.5s60.667 21.5 96 21.5c40.667 0 78.667 -9.66699 114 -29zM174.006 -55.0049l31.0049 -19.999c11.333 -7.33301 19.666 -14.833 24.999 -22.5
s8 -16.834 8 -27.501c0 -16 -5.83301 -28.833 -17.5 -38.5s-25.834 -14.5 -42.501 -14.5c-24.667 0 -44.334 11 -59.001 33l6 18h4c6.66699 -10.667 13.667 -18.5 21 -23.5s16.666 -7.5 27.999 -7.5c12 0 21.667 2.83301 29 8.5s11 13.834 11 24.501
c0 7.33301 -1.83301 13.166 -5.5 17.499s-9.83398 9.5 -18.501 15.5l-43 28l24 75h20z" />
    <glyph glyph-name="scedilla" unicode="&#x15f;" horiz-adv-x="387" 
d="M338 471l-6.99512 -17.998l-6 -1c-25.333 14 -54 21 -86 21c-26 0 -49 -5.33301 -69 -16s-35.333 -24.5 -46 -41.5s-16 -34.833 -16 -53.5c0 -23.333 8 -42.166 24 -56.499s40.333 -29.5 73 -45.5c24 -12 43.333 -22.833 58 -32.5s27.167 -22.167 37.5 -37.5
s15.5 -34 15.5 -56c0 -32 -11.833 -60.667 -35.5 -86s-54.167 -41.333 -91.5 -48l-17 -55l31 -20c11.333 -7.33301 19.666 -14.833 24.999 -22.5s8 -16.834 8 -27.501c0 -16 -5.83301 -28.833 -17.5 -38.5s-25.834 -14.5 -42.501 -14.5c-24.667 0 -44.334 11 -59.001 33
l6 18h4c6.66699 -10.667 13.667 -18.5 21 -23.5s16.666 -7.5 27.999 -7.5c12 0 21.667 2.83301 29 8.5s11 13.834 11 24.501c0 7.33301 -1.83301 13.166 -5.5 17.499s-9.83398 9.5 -18.501 15.5l-43 28l20 61h-12c-20.667 0 -41.667 3.16699 -63 9.5
s-39.333 15.166 -54 26.499l2 20l5 1c14.667 -12 32 -21.167 52 -27.5s39.667 -9.5 59 -9.5c26 0 49.667 5.66699 71 17s37.833 26.166 49.5 44.499s17.5 37.166 17.5 56.499c0 24 -8.16699 43 -24.5 57s-40.833 29.333 -73.5 46
c-24.667 12.667 -44.167 23.834 -58.5 33.501s-26.5 22 -36.5 37s-15 33.167 -15 54.5c0 23.333 6.5 44.833 19.5 64.5s31 35.5 54 47.5s49.167 18 78.5 18c34 0 66.667 -7.33301 98 -22z" />
    <glyph glyph-name="Scaron" unicode="&#x160;" horiz-adv-x="423" 
d="M398 611l-5.99414 -18.0049l-7 -1c-30.667 18.667 -65.334 28 -104.001 28c-32 0 -60.667 -6.83301 -86 -20.5s-45 -31.5 -59 -53.5s-21 -45 -21 -69c0 -22 5.33301 -41.333 16 -58s23.5 -30.834 38.5 -42.501s35.833 -25.5 62.5 -41.5
c29.333 -17.333 52.666 -32.666 69.999 -45.999s32 -30.166 44 -50.499s18 -44.166 18 -71.499c0 -30.667 -8.83301 -59.167 -26.5 -85.5s-41.667 -47.166 -72 -62.499s-63.5 -23 -99.5 -23c-24.667 0 -49.334 4 -74.001 12s-46 19.667 -64 35l3 19l6 2
c17.333 -16 37.666 -28 60.999 -36s46.666 -12 69.999 -12c33.333 0 63.5 7 90.5 21s48 32.333 63 55s22.5 47 22.5 73c0 23.333 -5.5 43.833 -16.5 61.5s-24.333 32.5 -40 44.5s-37.167 26.333 -64.5 43c-28.667 18 -51.334 33.333 -68.001 46
s-30.834 28.834 -42.501 48.501s-17.5 42.834 -17.5 69.501c0 30 8.33301 57.333 25 82s39.334 44.167 68.001 58.5s60.667 21.5 96 21.5c40.667 0 78.667 -9.66699 114 -29zM388.006 804.995c-24.667 -16 -59.665 -41.333 -104.998 -76h-16
c-34.667 30 -65.334 55.333 -92.001 76l8 14h5c26.667 -19.333 55.667 -42.666 87 -69.999c31.333 23.333 65.666 46.666 102.999 69.999h5z" />
    <glyph glyph-name="scaron" unicode="&#x161;" horiz-adv-x="387" 
d="M349 685c-28 -27.333 -66.333 -69.333 -115 -126h-18c-32.667 52 -61.667 94 -87 126l11 12h5c26 -33.333 53 -72.333 81 -117c39.333 45.333 76 84.333 110 117h5zM338 471l-7 -17.999l-6 -1c-25.333 14 -54 21 -86 21c-26 0 -49 -5.33301 -69 -16
s-35.333 -24.5 -46 -41.5s-16 -34.833 -16 -53.5c0 -23.333 8 -42.166 24 -56.499s40.333 -29.5 73 -45.5c24 -12 43.333 -22.833 58 -32.5s27.167 -22.167 37.5 -37.5s15.5 -34 15.5 -56c0 -24 -6.83301 -46.5 -20.5 -67.5s-32.667 -37.833 -57 -50.5s-51.5 -19 -81.5 -19
c-20.667 0 -41.667 3.16699 -63 9.5s-39.333 15.166 -54 26.499l2 20l5 1c14.667 -12 32 -21.167 52 -27.5s39.667 -9.5 59 -9.5c26 0 49.667 5.66699 71 17s37.833 26.166 49.5 44.499s17.5 37.166 17.5 56.499c0 24 -8.16699 43 -24.5 57s-40.833 29.333 -73.5 46
c-24.667 12.667 -44.167 23.834 -58.5 33.501s-26.5 22 -36.5 37s-15 33.167 -15 54.5c0 23.333 6.5 44.833 19.5 64.5s31 35.5 54 47.5s49.167 18 78.5 18c34 0 66.667 -7.33301 98 -22z" />
    <glyph glyph-name="uni0162" unicode="&#x162;" horiz-adv-x="450" 
d="M474 633l-5.99512 -15.999h-183l-54 -422l-24 -195l-19 -55l31 -20c11.333 -7.33301 19.666 -14.833 24.999 -22.5s8 -16.834 8 -27.501c0 -16 -5.83301 -28.833 -17.5 -38.5s-25.834 -14.5 -42.501 -14.5c-24.667 0 -44.334 11 -59.001 33l6 18h4
c6.66699 -10.667 13.667 -18.5 21 -23.5s16.666 -7.5 27.999 -7.5c12 0 21.667 2.83301 29 8.5s11 13.834 11 24.501c0 7.33301 -1.83301 13.166 -5.5 17.499s-9.83398 9.5 -18.501 15.5l-43 28l22 64l24 195l54 422h-185l-3 4l6 16h388z" />
    <glyph glyph-name="uni0163" unicode="&#x163;" horiz-adv-x="411" 
d="M403 487l-4.99902 -16.001l-80 1h-70l-41 -321l-19 -151l-24 -55l27 -20c16.667 -12 25 -26.667 25 -44c0 -18 -6.33301 -32.333 -19 -43s-27.667 -16 -45 -16c-12.667 0 -23.5 3.33301 -32.5 10s-15.5 14.334 -19.5 23.001l7 18h4
c5.33301 -10 11.166 -17.667 17.499 -23s14.833 -8 25.5 -8c12.667 0 23 3.33301 31 10s12 15.667 12 27c0 6 -1.5 11 -4.5 15s-7.83301 8.66699 -14.5 14l-39 28l29 64l19 150l41 322h-72l-81 -1l-2 4l5 16h324z" />
    <glyph glyph-name="Tcaron" unicode="&#x164;" horiz-adv-x="450" 
d="M474 633l-6 -16h-183l-54 -422l-24 -195h-20l24 195l54 422h-185l-3 4l6 16h388zM403 831c-28 -27.333 -66.333 -69.333 -115 -126h-18c-32.667 52 -61.667 94 -87 126l11 12h5c26 -33.333 53 -72.333 81 -117c39.333 45.333 76 84.333 110 117h5z" />
    <glyph glyph-name="tcaron" unicode="&#x165;" horiz-adv-x="411" 
d="M232 559c-32.667 52 -61.667 94 -87 126l11 12h5c26 -33.333 53 -72.333 81 -117c39.333 45.333 76 84.333 110 117h5l8 -12c-28 -27.333 -66.333 -69.333 -115 -126h-18zM403 487l-5 -16l-80 1h-70l-41 -321l-19 -151h-20l19 150l41 322h-72l-81 -1l-2 4l5 16h324z" />
    <glyph glyph-name="Tbar" unicode="&#x166;" horiz-adv-x="450" 
d="M474 633l-6 -16h-183l-34 -267h93l3 -3l-2 -17h-97l-17 -135l-24 -195h-20l24 195l17 135h-93l-3 3l2 17h97l34 267h-185l-3 4l6 16h388z" />
    <glyph glyph-name="tbar" unicode="&#x167;" horiz-adv-x="409" 
d="M403 487l-5 -16l-80 1h-70l-27 -212h93l2 -3l-4 -17h-94l-11 -89l-19 -151h-20l19 150l11 90h-97l-2 3l4 17h98l27 212h-72l-81 -1l-2 4l5 16h324z" />
    <glyph glyph-name="Umacron" unicode="&#x16a;" horiz-adv-x="583" 
d="M510 312l-10.001 -83.001c-7.33301 -74 -31.5 -131.333 -72.5 -172s-94.833 -61 -161.5 -61c-59.333 0 -105 15.5 -137 46.5s-48 75.5 -48 133.5c0 19.333 1.33301 37 4 53l13 93l40 315h20l-53 -408c-2.66699 -22.667 -4 -39 -4 -49
c0 -52.667 14.167 -93.167 42.5 -121.5s68.833 -42.5 121.5 -42.5c60.667 0 109.334 18.333 146.001 55s59.667 89.334 69 158.001l51 408h20zM505.999 788.999l-2 -17h-287l-3 3l2 17h287z" />
    <glyph glyph-name="umacron" unicode="&#x16b;" horiz-adv-x="522" 
d="M457 643l-2 -17h-287l-3 3l2 17h287zM436 240l-8.00098 -64c-6 -56.667 -25.833 -100.667 -59.5 -132s-78.5 -47 -134.5 -47c-50 0 -88.333 12.167 -115 36.5s-40 59.5 -40 105.5c0 12 1 24.333 3 37l11 72l30 243h21l-42 -314c-1.33301 -8 -2 -19.333 -2 -34
c0 -41.333 11.5 -72.833 34.5 -94.5s56.5 -32.5 100.5 -32.5c49.333 0 88.833 13.833 118.5 41.5s47.834 67.5 54.501 119.5l40 314h20z" />
    <glyph glyph-name="Ubreve" unicode="&#x16c;" horiz-adv-x="583" 
d="M510 312l-10.001 -83.001c-7.33301 -74 -31.5 -131.333 -72.5 -172s-94.833 -61 -161.5 -61c-59.333 0 -105 15.5 -137 46.5s-48 75.5 -48 133.5c0 19.333 1.33301 37 4 53l13 93l40 315h20l-53 -408c-2.66699 -22.667 -4 -39 -4 -49
c0 -52.667 14.167 -93.167 42.5 -121.5s68.833 -42.5 121.5 -42.5c60.667 0 109.334 18.333 146.001 55s59.667 89.334 69 158.001l51 408h20zM459.999 811.999c-10.667 -36 -25.332 -62.5 -43.999 -79.5s-42 -25.5 -70 -25.5s-49 8.5 -63 25.5s-22.333 43.5 -25 79.5l15 13
h5c0.666992 -33.333 6.66699 -58 18 -74s29 -24 53 -24c23.333 0 42.666 8 57.999 24s27.333 40.667 36 74h5z" />
    <glyph glyph-name="ubreve" unicode="&#x16d;" horiz-adv-x="522" 
d="M410 666c-10.667 -36 -25.332 -62.5 -43.999 -79.5s-42 -25.5 -70 -25.5s-49 8.5 -63 25.5s-22.333 43.5 -25 79.5l15 13h5c0.666992 -33.333 6.66699 -58 18 -74s29 -24 53 -24c23.333 0 42.666 8 57.999 24s27.333 40.667 36 74h5zM436.002 240l-8.00098 -64
c-6 -56.667 -25.833 -100.667 -59.5 -132s-78.5 -47 -134.5 -47c-50 0 -88.333 12.167 -115 36.5s-40 59.5 -40 105.5c0 12 1 24.333 3 37l11 72l30 243h21l-42 -314c-1.33301 -8 -2 -19.333 -2 -34c0 -41.333 11.5 -72.833 34.5 -94.5s56.5 -32.5 100.5 -32.5
c49.333 0 88.833 13.833 118.5 41.5s47.834 67.5 54.501 119.5l40 314h20z" />
    <glyph glyph-name="Uring" unicode="&#x16e;" horiz-adv-x="583" 
d="M510 312l-10.001 -83.001c-7.33301 -74 -31.5 -131.333 -72.5 -172s-94.833 -61 -161.5 -61c-59.333 0 -105 15.5 -137 46.5s-48 75.5 -48 133.5c0 19.333 1.33301 37 4 53l13 93l40 315h20l-53 -408c-2.66699 -22.667 -4 -39 -4 -49
c0 -52.667 14.167 -93.167 42.5 -121.5s68.833 -42.5 121.5 -42.5c60.667 0 109.334 18.333 146.001 55s59.667 89.334 69 158.001l51 408h20zM410.999 831.999c12.667 -14 19 -30.332 19 -48.999c0 -20.667 -7.16699 -37.334 -21.5 -50.001s-30.833 -19 -49.5 -19
s-35 6.5 -49 19.5s-21 29.833 -21 50.5c0 20 6.5 36.5 19.5 49.5s29.833 19.5 50.5 19.5c22 0 39.333 -7 52 -21zM322.499 819.5c-9 -9 -13.5 -20.833 -13.5 -35.5c0 -15.333 4.83301 -27.5 14.5 -36.5s21.5 -13.5 35.5 -13.5s26 4.33301 36 13s15 20.667 15 36
c0 14 -4.5 25.833 -13.5 35.5s-21.5 14.5 -37.5 14.5c-15.333 0 -27.5 -4.5 -36.5 -13.5z" />
    <glyph glyph-name="uring" unicode="&#x16f;" horiz-adv-x="522" 
d="M361 686c12.667 -14 19 -30.332 19 -48.999c0 -20.667 -7.16699 -37.334 -21.5 -50.001s-30.833 -19 -49.5 -19s-35 6.5 -49 19.5s-21 29.833 -21 50.5c0 20 6.5 36.5 19.5 49.5s29.833 19.5 50.5 19.5c22 0 39.333 -7 52 -21zM272.5 673.501
c-9 -9 -13.5 -20.833 -13.5 -35.5c0 -15.333 4.83301 -27.5 14.5 -36.5s21.5 -13.5 35.5 -13.5s26 4.33301 36 13s15 20.667 15 36c0 14 -4.5 25.833 -13.5 35.5s-21.5 14.5 -37.5 14.5c-15.333 0 -27.5 -4.5 -36.5 -13.5zM436 240.001l-8.00098 -64
c-6 -56.667 -25.833 -100.667 -59.5 -132s-78.5 -47 -134.5 -47c-50 0 -88.333 12.167 -115 36.5s-40 59.5 -40 105.5c0 12 1 24.333 3 37l11 72l30 243h21l-42 -314c-1.33301 -8 -2 -19.333 -2 -34c0 -41.333 11.5 -72.833 34.5 -94.5s56.5 -32.5 100.5 -32.5
c49.333 0 88.833 13.833 118.5 41.5s47.834 67.5 54.501 119.5l40 314h20z" />
    <glyph glyph-name="Uhungarumlaut" unicode="&#x170;" horiz-adv-x="583" 
d="M510 312l-10.001 -83.001c-7.33301 -74 -31.5 -131.333 -72.5 -172s-94.833 -61 -161.5 -61c-59.333 0 -105 15.5 -137 46.5s-48 75.5 -48 133.5c0 19.333 1.33301 37 4 53l13 93l40 315h20l-53 -408c-2.66699 -22.667 -4 -39 -4 -49
c0 -52.667 14.167 -93.167 42.5 -121.5s68.833 -42.5 121.5 -42.5c60.667 0 109.334 18.333 146.001 55s59.667 89.334 69 158.001l51 408h20zM284.999 756.999c50 46.667 79.666 74.667 88.999 84l5 -1l10 -10l-1 -5c-23.333 -23.333 -60.666 -58.333 -111.999 -105l-5 1
l-11 13zM414.998 756.999c50 46.667 79.666 74.667 88.999 84l5 -1l10 -10l-1 -5c-23.333 -23.333 -60.666 -58.333 -111.999 -105l-5 1l-11 13z" />
    <glyph glyph-name="uhungarumlaut" unicode="&#x171;" horiz-adv-x="522" 
d="M349 706l4.99902 -1.00098l10 -10l-1 -5c-46.667 -46 -94.667 -91 -144 -135l-5 1l-11 13c50.667 44.667 99.334 90.334 146.001 137.001zM478.999 705.999l5 -1l10 -10l-1 -5l-144 -135l-5 1l-11 13c51.333 45.333 100 91 146 137zM435.999 239.999l-8.00098 -64
c-6 -56.667 -25.833 -100.667 -59.5 -132s-78.5 -47 -134.5 -47c-50 0 -88.333 12.167 -115 36.5s-40 59.5 -40 105.5c0 12 1 24.333 3 37l11 72l30 243h21l-42 -314c-1.33301 -8 -2 -19.333 -2 -34c0 -41.333 11.5 -72.833 34.5 -94.5s56.5 -32.5 100.5 -32.5
c49.333 0 88.833 13.833 118.5 41.5s47.834 67.5 54.501 119.5l40 314h20z" />
    <glyph glyph-name="Uogonek" unicode="&#x172;" horiz-adv-x="583" 
d="M510 312l-10.001 -83.001c-7.33301 -74 -31.5 -131.333 -72.5 -172s-94.833 -61 -161.5 -61c-59.333 0 -105 15.5 -137 46.5s-48 75.5 -48 133.5c0 19.333 1.33301 37 4 53l13 93l40 315h20l-53 -408c-2.66699 -22.667 -4 -39 -4 -49
c0 -52.667 14.167 -93.167 42.5 -121.5s68.833 -42.5 121.5 -42.5c60.667 0 109.334 18.333 146.001 55s59.667 89.334 69 158.001l51 408h20zM252.499 -190.501c-11.667 11.667 -17.5 27.502 -17.5 47.502c0 13.333 3.5 26.166 10.5 38.499s23.833 36.5 50.5 72.5l31 42h24
c-12 -14.667 -21.333 -27.334 -28 -38.001c-29.333 -38.667 -47.833 -64.167 -55.5 -76.5s-11.5 -24.5 -11.5 -36.5c0 -14 3.83301 -25.167 11.5 -33.5s18.5 -12.5 32.5 -12.5s28 4.5 42 13.5s27 21.833 39 38.5h2l11 -16c-29.333 -38 -61 -57 -95 -57
c-19.333 0 -34.833 5.83301 -46.5 17.5z" />
    <glyph glyph-name="uogonek" unicode="&#x173;" horiz-adv-x="522" 
d="M468 491l-31.999 -251l-8 -64c-4 -37.333 -13.833 -69.166 -29.5 -95.499s-36.834 -46.5 -63.501 -60.5c-7.33301 -10 -14.333 -19 -21 -27c-30.667 -40.667 -49.834 -67.334 -57.501 -80.001s-11.5 -25 -11.5 -37c0 -14 3.83301 -25.167 11.5 -33.5
s18.5 -12.5 32.5 -12.5s28 4.5 42 13.5s27 21.833 39 38.5h2l11 -16c-29.333 -38 -61 -57 -95 -57c-19.333 0 -34.833 5.83301 -46.5 17.5s-17.5 27.5 -17.5 47.5c0 13.333 3.66699 26.333 11 39s24.333 37 51 73l15 20c-20.667 -6 -43 -9 -67 -9
c-50 0 -88.333 12.167 -115 36.5s-40 59.5 -40 105.5c0 12 1 24.333 3 37l11 72l30 243h21l-42 -314c-1.33301 -8 -2 -19.333 -2 -34c0 -41.333 11.5 -72.833 34.5 -94.5s56.5 -32.5 100.5 -32.5c49.333 0 88.833 13.833 118.5 41.5s47.834 67.5 54.501 119.5l40 314h20z
" />
    <glyph glyph-name="Wcircumflex" unicode="&#x174;" horiz-adv-x="834" 
d="M559 0h-20l-91 438h-4l-213 -438h-22l-135 637h23l7 -43l119 -560h4l213 437l-36 166h22l7 -43l118 -560h4l276 560l19 43h23zM353 743c24.667 16 59.665 41.333 104.998 76h16c34.667 -30 65.334 -55.333 92.001 -76l-8 -14h-5
c-26.667 19.333 -55.667 42.666 -87 69.999c-31.333 -23.333 -65.666 -46.666 -102.999 -69.999h-5z" />
    <glyph glyph-name="wcircumflex" unicode="&#x175;" horiz-adv-x="728" 
d="M274 571c28 27.333 66.333 69.333 115 126h18c32.667 -52 61.667 -94 87 -126l-11 -12h-5c-26 33.333 -53 72.333 -81 117c-39.333 -45.333 -76 -84.333 -110 -117h-5zM481 0h-21l-80 331h-3l-170 -331h-21l-115 491h23l4 -35l101 -425h2l172 332l-30 128h22l6 -36
l100 -424h4l220 425l16 35h22z" />
    <glyph glyph-name="Ycircumflex" unicode="&#x176;" horiz-adv-x="469" 
d="M238 247l-7 -52l-24 -195h-20l24 195l7 50l-141 392h25l7 -26l120 -334h5l218 334l14 26h26zM191 743c24.667 16 59.665 41.333 104.998 76h16c34.667 -30 65.334 -55.333 92.001 -76l-8 -14h-5c-26.667 19.333 -55.667 42.666 -87 69.999
c-31.333 -23.333 -65.666 -46.666 -102.999 -69.999h-5z" />
    <glyph glyph-name="ycircumflex" unicode="&#x177;" horiz-adv-x="428" 
d="M153 559l-8 12c28 27.333 66.333 69.333 115 126h18c32.667 -52 61.667 -94 87 -126l-11 -12h-5c-26 33.333 -53 72.333 -81 117c-39.333 -45.333 -76 -84.333 -110 -117h-5zM212 185l-4 -36l-20 -149h-20l20 149l5 40l-120 302h25l6 -21l100 -253h4l176 253l12 21h25z
" />
    <glyph glyph-name="Ydieresis" unicode="&#x178;" horiz-adv-x="469" 
d="M238 247l-7 -52l-24 -195h-20l24 195l7 50l-141 392h25l7 -26l120 -334h5l218 334l14 26h26zM247.5 795.5c3.66699 -3.66699 5.5 -8.5 5.5 -14.5s-1.83301 -10.833 -5.5 -14.5s-8.5 -5.5 -14.5 -5.5s-10.833 1.83301 -14.5 5.5s-5.5 8.5 -5.5 14.5
s1.83301 10.833 5.5 14.5s8.5 5.5 14.5 5.5s10.833 -1.83301 14.5 -5.5zM397.5 795.5c3.66699 -3.66699 5.5 -8.5 5.5 -14.5s-1.83301 -10.833 -5.5 -14.5s-8.5 -5.5 -14.5 -5.5s-10.833 1.83301 -14.5 5.5s-5.5 8.5 -5.5 14.5s1.83301 10.833 5.5 14.5s8.5 5.5 14.5 5.5
s10.833 -1.83301 14.5 -5.5z" />
    <glyph glyph-name="Zacute" unicode="&#x179;" horiz-adv-x="482" 
d="M487 620l-453 -600h310l65 1l4 -5l-6 -16h-368l-34 -1l2 18l453 600h-300l-55 -1l-4 5l6 17l61 -1h286l35 1zM370 834l6.99902 -11.999l-2 -5c-44.667 -25.333 -102.667 -56.333 -174 -93l-5 3l-7 15c60.667 29.333 119.334 60.666 176.001 93.999z" />
    <glyph glyph-name="zacute" unicode="&#x17a;" horiz-adv-x="436" 
d="M340 707l10 -10.001l-1 -5c-46 -46 -94 -91 -144 -135l-5 1l-11 13c46 38.667 94.667 84.334 146 137.001zM412 473.999l-366 -455h252l56 1l3 -4l-5 -16h-305l-30 -1l2 17l367 456h-245l-47 -1l-3 4l5 17l53 -1h236l30 1z" />
    <glyph glyph-name="Zdotaccent" unicode="&#x17b;" horiz-adv-x="482" 
d="M487 620l-453 -600h310l65 1l4 -5l-6 -16h-368l-34 -1l2 18l453 600h-300l-55 -1l-4 5l6 17l61 -1h286l35 1zM297.5 810.5c3.66699 -3.66699 5.5 -8.5 5.5 -14.5s-1.83301 -10.833 -5.5 -14.5s-8.5 -5.5 -14.5 -5.5s-10.833 1.83301 -14.5 5.5s-5.5 8.5 -5.5 14.5
s1.83301 10.833 5.5 14.5s8.5 5.5 14.5 5.5s10.833 -1.83301 14.5 -5.5z" />
    <glyph glyph-name="zdotaccent" unicode="&#x17c;" horiz-adv-x="436" 
d="M283.5 664.5c3.66699 -3.66699 5.5 -8.5 5.5 -14.5s-1.83301 -10.833 -5.5 -14.5s-8.5 -5.5 -14.5 -5.5s-10.833 1.83301 -14.5 5.5s-5.5 8.5 -5.5 14.5s1.83301 10.833 5.5 14.5s8.5 5.5 14.5 5.5s10.833 -1.83301 14.5 -5.5zM412 474l-366 -455h252l56 1l3 -4l-5 -16
h-305l-30 -1l2 17l367 456h-245l-47 -1l-3 4l5 17l53 -1h236l30 1z" />
    <glyph glyph-name="Zcaron" unicode="&#x17d;" horiz-adv-x="482" 
d="M487 620l-453 -600h310l65 1l4 -5l-6 -16h-368l-34 -1l2 18l453 600h-300l-55 -1l-4 5l6 17l61 -1h286l35 1zM389 805c-24.667 -16 -59.665 -41.333 -104.998 -76h-16c-34.667 30 -65.334 55.333 -92.001 76l8 14h5c26.667 -19.333 55.667 -42.666 87 -69.999
c31.333 23.333 65.666 46.666 102.999 69.999h5z" />
    <glyph glyph-name="zcaron" unicode="&#x17e;" horiz-adv-x="436" 
d="M376 685c-28 -27.333 -66.333 -69.333 -115 -126h-18c-32.667 52 -61.667 94 -87 126l11 12h5c26 -33.333 53 -72.333 81 -117c39.333 45.333 76 84.333 110 117h5zM412 474l-366 -455h252l56 1l3 -4l-5 -16h-305l-30 -1l2 17l367 456h-245l-47 -1l-3 4l5 17l53 -1h236
l30 1z" />
    <glyph glyph-name="uni018F" unicode="&#x18f;" horiz-adv-x="591" 
d="M500 572.5c39.333 -45.667 58.998 -110.168 58.998 -193.501c0 -75.333 -12.833 -142.166 -38.5 -200.499s-61.667 -103.5 -108 -135.5s-99.166 -48 -158.499 -48c-64 0 -115 18.167 -153 54.5s-57 84.5 -57 144.5c0 21.333 3.33301 44.333 10 69l8 9l468 6
c6 31.333 9 64.333 9 99c0 78 -18.167 138.167 -54.5 180.5s-88.5 63.5 -156.5 63.5c-35.333 0 -71 -5.33301 -107 -16s-67 -25 -93 -43l-7 2l5 19c31.333 18.667 64.833 33 100.5 43s70.834 15 105.501 15c72.667 0 128.667 -22.833 168 -68.5zM427.998 80.499
c48 43 80.667 101.833 98 176.5l-456 -5l-5 -32c-1.33301 -13.333 -2 -23 -2 -29c0 -52.667 17.5 -95 52.5 -127s81.833 -48 140.5 -48c66.667 0 124 21.5 172 64.5z" />
    <glyph glyph-name="florin" unicode="&#x192;" horiz-adv-x="234" 
d="M330 603l-5 -19l-3 -2c-15.333 6 -33 9 -53 9c-66.667 0 -105 -38.333 -115 -115l-14 -111h114l3 -4l-2 -16h-117l-38 -304c-4.66699 -43.333 -13.667 -77.666 -27 -102.999s-37.333 -54.333 -72 -87l-12 10l1 5c31.333 30.667 53 57.667 65 81s20.333 54 25 92l18 146
l20 160h-63l-4 4l2 16h67l14 111c4.66699 43.333 18.667 76.666 42 99.999s54 35 92 35c16 0 36.667 -2.66699 62 -8z" />
    <glyph glyph-name="Ohorn" unicode="&#x1a0;" horiz-adv-x="635" 
d="M569.5 606c-17.667 -15.333 -39.8311 -21.667 -66.498 -19c22.667 -21.333 39.167 -48.333 49.5 -81s15.5 -74 15.5 -124c0 -78 -12.333 -146.167 -37 -204.5s-59.5 -103.333 -104.5 -135s-97.5 -47.5 -157.5 -47.5c-141.333 0 -212 90 -212 270
c0 77.333 12.167 144.333 36.5 201s59.333 100.167 105 130.5s99.167 45.5 160.5 45.5c24.667 0 44.667 -2 60 -6s30.666 -9.66699 45.999 -17c8 -3.33301 16.167 -6.33301 24.5 -9s16.833 -4 25.5 -4c17.333 0 31.666 5.16699 42.999 15.5s17 23.5 17 39.5
c0 22 -7.66699 43.333 -23 64l2 5c6.66699 3.33301 11 5 13 5c6.66699 0 13.167 -7.16699 19.5 -21.5s9.5 -29.5 9.5 -45.5c0 -26 -8.83301 -46.667 -26.5 -62zM353.003 621.999c-56 0 -104.833 -14.5 -146.5 -43.5s-73.667 -70.333 -96 -124s-33.5 -116.5 -33.5 -188.5
c0 -167.333 64.667 -251 194 -251c55.333 0 103.833 14.833 145.5 44.5s74 71.667 97 126s34.5 117.5 34.5 189.5c0 164.667 -65 247 -195 247z" />
    <glyph glyph-name="ohorn" unicode="&#x1a1;" horiz-adv-x="552" 
d="M479.5 466c-14.333 -12 -32.5 -17.334 -54.5 -16.001c18.667 -16 32.167 -36.667 40.5 -62s12.5 -57.666 12.5 -96.999c0 -59.333 -10 -111.333 -30 -156s-48.333 -79 -85 -103s-79.667 -36 -129 -36c-118 0 -177 70.667 -177 212c0 58.667 10 109.5 30 152.5
s48.5 76.167 85.5 99.5s80.5 35 130.5 35c20 0 36.333 -1.66699 49 -5s25.667 -7.66602 39 -12.999c2 -0.666992 7 -2.5 15 -5.5s16.667 -4.5 26 -4.5c14 0 25.667 4 35 12s14 18 14 30c0 17.333 -6.66699 33.666 -20 48.999l2 5c6.66699 2.66699 10.667 4 12 4
c6.66699 0 12.667 -5.5 18 -16.5s8 -22.833 8 -35.5c0 -20.667 -7.16699 -37 -21.5 -49zM298 474.999c-44.667 0 -83.499 -10.834 -116.499 -32.501s-58.5 -52.5 -76.5 -92.5s-27 -87.333 -27 -142c0 -128.667 52.667 -193 158 -193c44 0 82.667 11 116 33
s59.166 53.333 77.499 94s27.5 88.334 27.5 143.001c0 126.667 -53 190 -159 190z" />
    <glyph glyph-name="Uhorn" unicode="&#x1af;" horiz-adv-x="617" 
d="M605.5 639c-14.333 -13.333 -33.168 -20.666 -56.501 -21.999l-39 -305l-10 -83c-7.33301 -74 -31.5 -131.333 -72.5 -172s-94.833 -61 -161.5 -61c-59.333 0 -105 15.5 -137 46.5s-48 75.5 -48 133.5c0 19.333 1.33301 37 4 53l13 93l40 315h20l-53 -408
c-2.66699 -22.667 -4 -39 -4 -49c0 -52.667 14.167 -93.167 42.5 -121.5s68.833 -42.5 121.5 -42.5c60.667 0 109.334 18.333 146.001 55s59.667 89.334 69 158.001l51 408h11c20 0 35.833 4.83301 47.5 14.5s17.5 22.5 17.5 38.5c0 18 -10.333 38.333 -31 61l2 5
c4 3.33301 8 5 12 5s9 -3.33301 15 -10s11.167 -15.334 15.5 -26.001s6.5 -22.334 6.5 -35.001c0 -20.667 -7.16699 -37.667 -21.5 -51z" />
    <glyph glyph-name="uhorn" unicode="&#x1b0;" horiz-adv-x="538" 
d="M508.5 491.5c-11.667 -10.333 -27.166 -16.5 -46.499 -18.5l-29 -233l-8 -62c-5.33301 -57.333 -24.833 -101.833 -58.5 -133.5s-78.167 -47.5 -133.5 -47.5c-49.333 0 -87.333 12.167 -114 36.5s-40 59.166 -40 104.499c0 13.333 1 26.333 3 39l10 71l31 243h21
l-41 -313c-2.66699 -17.333 -4 -29.666 -4 -36.999c0 -40 11.5 -70.667 34.5 -92s56.167 -32 99.5 -32c49.333 0 88.666 13.667 117.999 41s47.333 67 54 119l40 314h9c16.667 0 29.667 3.66699 39 11s14 17 14 29c0 14 -8.66699 29.667 -26 47l2 4c4 3.33301 8 5 12 5
c5.33301 0 11.833 -5.66699 19.5 -17s11.5 -24 11.5 -38c0 -16.667 -5.83301 -30.167 -17.5 -40.5z" />
    <glyph glyph-name="uni01C4" unicode="&#x1c4;" horiz-adv-x="1091" 
d="M520 577.5c39.333 -43 58.999 -104.498 58.999 -184.498c0 -80.667 -12.5 -150.834 -37.5 -210.501s-61.5 -105.834 -109.5 -138.501s-105.333 -49 -172 -49c-21.333 0 -49.666 0.5 -84.999 1.5s-67 2.16699 -95 3.5l25 195l55 442l190 5c74 0 130.667 -21.5 170 -64.5z
M421.499 61.002c44.333 30.667 78.168 74.167 101.501 130.5s35 122.5 35 198.5c0 74.667 -18 132 -54 172s-88 60 -156 60c-20 0 -46.833 -0.5 -80.5 -1.5s-63.5 -2.16699 -89.5 -3.5l-53 -422l-23 -176l56 -2l105 -2c61.333 0 114.166 15.333 158.499 46zM1096 620.002
l-453 -600h310l65 1l4 -5l-6 -16h-368l-34 -1l2 18l453 600h-300l-55 -1l-4 5l6 17l61 -1h286l35 1zM998.001 805.002c-24.667 -16 -59.665 -41.333 -104.998 -76h-16c-34.667 30 -65.334 55.333 -92.001 76l8 14h5c26.667 -19.333 55.667 -42.666 87 -69.999
c31.333 23.333 65.666 46.666 102.999 69.999h5z" />
    <glyph glyph-name="uni01C5" unicode="&#x1c5;" horiz-adv-x="1045" 
d="M520 577.5c39.333 -43 58.999 -104.498 58.999 -184.498c0 -80.667 -12.5 -150.834 -37.5 -210.501s-61.5 -105.834 -109.5 -138.501s-105.333 -49 -172 -49c-21.333 0 -49.666 0.5 -84.999 1.5s-67 2.16699 -95 3.5l25 195l55 442l190 5c74 0 130.667 -21.5 170 -64.5z
M421.499 61.002c44.333 30.667 78.168 74.167 101.501 130.5s35 122.5 35 198.5c0 74.667 -18 132 -54 172s-88 60 -156 60c-20 0 -46.833 -0.5 -80.5 -1.5s-63.5 -2.16699 -89.5 -3.5l-53 -422l-23 -176l56 -2l105 -2c61.333 0 114.166 15.333 158.499 46zM985.001 685.002
c-28 -27.333 -66.333 -69.333 -115 -126h-18c-32.667 52 -61.667 94 -87 126l11 12h5c26 -33.333 53 -72.333 81 -117c39.333 45.333 76 84.333 110 117h5zM1021 474.002l-366 -455h252l56 1l3 -4l-5 -16h-305l-30 -1l2 17l367 456h-245l-47 -1l-3 4l5 17l53 -1h236l30 1z
" />
    <glyph glyph-name="uni01C6" unicode="&#x1c6;" horiz-adv-x="979" 
d="M786 559c-32.667 52 -61.667 94 -87 126l11 12h5c26 -33.333 53 -72.333 81 -117c39.333 45.333 76 84.333 110 117h5l8 -12c-28 -27.333 -66.333 -69.333 -115 -126h-18zM441.5 443.5c33.667 -34.333 50.499 -82.5 50.499 -144.5c0 -94 -23 -168 -69 -222
s-110.333 -81 -193 -81c-18.667 0 -42.667 0.333008 -72 1s-55.666 1.66699 -78.999 3l19 150l43 341l157 4c62 0 109.833 -17.167 143.5 -51.5zM954.999 474l-366 -455h252l56 1l3 -4l-5 -16h-305l-30 -1l2 17l367 456h-245l-47 -1l-3 4l5 17l53 -1h236l30 1zM407.999 90.5
c42 50.333 63.001 119.167 63.001 206.5c0 57.333 -15 101.333 -45 132s-73 46 -129 46l-138 -4l-41 -320l-17 -132c21.333 -1.33301 44.666 -2.33301 69.999 -3s46 -1 62 -1c74.667 0 133 25.167 175 75.5z" />
    <glyph glyph-name="uni01C7" unicode="&#x1c7;" horiz-adv-x="642" 
d="M351 16l-6 -16h-264l25 195l55 442h20l-55 -442l-22 -175h244zM529 212l-12.002 -97c-6 -46.667 -20.667 -86.167 -44 -118.5s-59.666 -63.833 -108.999 -94.5l-9 11v6c45.333 28 79.333 57.333 102 88s36.334 66.667 41.001 108l11 93l51 409h-125l-4 4l5 16h146z" />
    <glyph glyph-name="uni01C8" unicode="&#x1c8;" horiz-adv-x="643" 
d="M351 16l-6 -16h-264l25 195l55 442h20l-55 -442l-22 -175h244zM519 163l-9 -74c-4.66699 -36.667 -15.5 -67.5 -32.5 -92.5s-43.833 -49.167 -80.5 -72.5l-9 13v5c32 21.333 56 43.5 72 66.5s26 50.167 30 81.5l8 70l39 312h-102l-3 3l5 16h122z" />
    <glyph glyph-name="uni01C9" unicode="&#x1c9;" horiz-adv-x="615" 
d="M304 19l1 -3l-5 -16h-221l20 150l43 341h20l-43 -340l-17 -132h202zM491 163l-9 -74c-4.66699 -36.667 -15.5 -67.5 -32.5 -92.5s-43.833 -49.167 -80.5 -72.5l-9 13v5c32 21.333 56 43.5 72 66.5s26 50.167 30 81.5l8 70l39 312h-102l-3 3l5 16h122z" />
    <glyph glyph-name="uni01CA" unicode="&#x1ca;" horiz-adv-x="900" 
d="M526 176l-23 -176h-19l-304 595h-4l-51 -396l-25 -199h-20l24 190l57 447h19l304 -595h4l77 594l20 2zM787 212l-12.002 -97c-6 -46.667 -20.667 -86.167 -44 -118.5s-59.666 -63.833 -108.999 -94.5l-9 11v6c45.333 28 79.333 57.333 102 88s36.334 66.667 41.001 108
l11 93l51 409h-125l-4 4l5 16h146z" />
    <glyph glyph-name="uni01CB" unicode="&#x1cb;" horiz-adv-x="901" 
d="M526 176l-23 -176h-19l-304 595h-4l-51 -396l-25 -199h-20l24 190l57 447h19l304 -595h4l77 594l20 2zM777 163l-9 -74c-4.66699 -36.667 -15.5 -67.5 -32.5 -92.5s-43.833 -49.167 -80.5 -72.5l-9 13v5c32 21.333 56 43.5 72 66.5s26 50.167 30 81.5l8 70l39 312h-102
l-3 3l5 16h122z" />
    <glyph glyph-name="uni01CC" unicode="&#x1cc;" horiz-adv-x="827" 
d="M474 490l20 2l-45 -355l-19 -137h-20l-252 451h-2l-39 -297l-19 -154h-20l19 146l44 345h20l252 -451h4zM703 163l-9 -74c-4.66699 -36.667 -15.5 -67.5 -32.5 -92.5s-43.833 -49.167 -80.5 -72.5l-9 13v5c32 21.333 56 43.5 72 66.5s26 50.167 30 81.5l8 70l39 312h-102
l-3 3l5 16h122z" />
    <glyph glyph-name="uni01CD" unicode="&#x1cd;" horiz-adv-x="524" 
d="M470 0h-23l-6 43l-37 170h-283l-85 -170l-20 -43h-24l319 637h21zM318 603h-3l-184 -370h268zM445 805c-24.667 -16 -59.665 -41.333 -104.998 -76h-16c-34.667 30 -65.334 55.333 -92.001 76l8 14h5c26.667 -19.333 55.667 -42.666 87 -69.999
c31.333 23.333 65.666 46.666 102.999 69.999h5z" />
    <glyph glyph-name="uni01CE" unicode="&#x1ce;" horiz-adv-x="473" 
d="M267 559c-32.667 52 -61.667 94 -87 126l11 12h5c26 -33.333 53 -72.333 81 -117c39.333 45.333 76 84.333 110 117h5l8 -12c-28 -27.333 -66.333 -69.333 -115 -126h-18zM404 0h-23l-6 35l-30 126h-234l-66 -126l-16 -35h-23l257 491h22zM272 461h-3l-148 -281h219z" />
    <glyph glyph-name="uni01CF" unicode="&#x1cf;" horiz-adv-x="235" 
d="M125 195l-25 -195h-20l25 195l55 442h20zM294 805c-24.667 -16 -59.665 -41.333 -104.998 -76h-16c-34.667 30 -65.334 55.333 -92.001 76l8 14h5c26.667 -19.333 55.667 -42.666 87 -69.999c31.333 23.333 65.666 46.666 102.999 69.999h5z" />
    <glyph glyph-name="uni01D0" unicode="&#x1d0;" horiz-adv-x="233" 
d="M274 685c-28 -27.333 -66.333 -69.333 -115 -126h-18c-32.667 52 -61.667 94 -87 126l11 12h5c26 -33.333 53 -72.333 81 -117c39.333 45.333 76 84.333 110 117h5zM118 151l-20 -151h-20l20 150l42 341h20z" />
    <glyph glyph-name="uni01D1" unicode="&#x1d1;" horiz-adv-x="599" 
d="M513.5 577c36.333 -43.333 54.501 -105.335 54.501 -186.002c0 -81.333 -11.833 -151.666 -35.5 -210.999s-58 -105 -103 -137s-99.167 -48 -162.5 -48c-68 0 -120.167 22.333 -156.5 67s-54.5 108.334 -54.5 191.001c0 80.667 11.667 150.167 35 208.5
s57.5 103 102.5 134s98.833 46.5 161.5 46.5c69.333 0 122.166 -21.667 158.499 -65zM205.001 577.998c-41.333 -29.333 -73 -71.5 -95 -126.5s-33 -120.167 -33 -195.5c0 -76.667 16.5 -136 49.5 -178s80.167 -63 141.5 -63c58 0 108 15.167 150 45.5s74 73.333 96 129
s33 121.5 33 197.5c0 75.333 -16.333 133.333 -49 174s-80.667 61 -144 61c-58 0 -107.667 -14.667 -149 -44zM476.001 804.998c-24.667 -16 -59.665 -41.333 -104.998 -76h-16c-34.667 30 -65.334 55.333 -92.001 76l8 14h5c26.667 -19.333 55.667 -42.666 87 -69.999
c31.333 23.333 65.666 46.666 102.999 69.999h5z" />
    <glyph glyph-name="uni01D2" unicode="&#x1d2;" horiz-adv-x="533" 
d="M424 685c-28 -27.333 -66.333 -69.333 -115 -126h-18c-32.667 52 -61.667 94 -87 126l11 12h5c26 -33.333 53 -72.333 81 -117c39.333 45.333 76 84.333 110 117h5zM435.5 443c31 -34.667 46.499 -83.332 46.499 -145.999c0 -94 -21.667 -167.667 -65 -221
s-103.666 -80 -180.999 -80c-57.333 0 -101.5 17.667 -132.5 53s-46.5 85 -46.5 149c0 93.333 21.5 166.166 64.5 218.499s103.5 78.5 181.5 78.5c57.333 0 101.5 -17.333 132.5 -52zM136.999 403.002c-38.667 -48 -58 -115.667 -58 -203
c0 -59.333 13.333 -104.833 40 -136.5s65.334 -47.5 116.001 -47.5c70.667 0 126 24.5 166 73.5s60 117.167 60 204.5c0 58.667 -13.667 103.5 -41 134.5s-67 46.5 -119 46.5c-70.667 0 -125.334 -24 -164.001 -72z" />
    <glyph glyph-name="uni01D3" unicode="&#x1d3;" horiz-adv-x="583" 
d="M510 312l-10.001 -83.001c-7.33301 -74 -31.5 -131.333 -72.5 -172s-94.833 -61 -161.5 -61c-59.333 0 -105 15.5 -137 46.5s-48 75.5 -48 133.5c0 19.333 1.33301 37 4 53l13 93l40 315h20l-53 -408c-2.66699 -22.667 -4 -39 -4 -49
c0 -52.667 14.167 -93.167 42.5 -121.5s68.833 -42.5 121.5 -42.5c60.667 0 109.334 18.333 146.001 55s59.667 89.334 69 158.001l51 408h20zM468.999 830.999c-28 -27.333 -66.333 -69.333 -115 -126h-18c-32.667 52 -61.667 94 -87 126l11 12h5
c26 -33.333 53 -72.333 81 -117c39.333 45.333 76 84.333 110 117h5z" />
    <glyph glyph-name="uni01D4" unicode="&#x1d4;" horiz-adv-x="522" 
d="M419 685c-28 -27.333 -66.333 -69.333 -115 -126h-18c-32.667 52 -61.667 94 -87 126l11 12h5c26 -33.333 53 -72.333 81 -117c39.333 45.333 76 84.333 110 117h5zM436 240l-8.00098 -64c-6 -56.667 -25.833 -100.667 -59.5 -132s-78.5 -47 -134.5 -47
c-50 0 -88.333 12.167 -115 36.5s-40 59.5 -40 105.5c0 12 1 24.333 3 37l11 72l30 243h21l-42 -314c-1.33301 -8 -2 -19.333 -2 -34c0 -41.333 11.5 -72.833 34.5 -94.5s56.5 -32.5 100.5 -32.5c49.333 0 88.833 13.833 118.5 41.5s47.834 67.5 54.501 119.5l40 314h20z
" />
    <glyph glyph-name="uni01D5" unicode="&#x1d5;" horiz-adv-x="583" 
d="M510 312l-10.001 -83.001c-7.33301 -74 -31.5 -131.333 -72.5 -172s-94.833 -61 -161.5 -61c-59.333 0 -105 15.5 -137 46.5s-48 75.5 -48 133.5c0 19.333 1.33301 37 4 53l13 93l40 315h20l-53 -408c-2.66699 -22.667 -4 -39 -4 -49
c0 -52.667 14.167 -93.167 42.5 -121.5s68.833 -42.5 121.5 -42.5c60.667 0 109.334 18.333 146.001 55s59.667 89.334 69 158.001l51 408h20zM497.999 872.999l-2 -17h-237l-3 3l2 17h237zM312.499 774.499c3.66699 -3.66699 5.5 -8.5 5.5 -14.5
s-1.83301 -10.833 -5.5 -14.5s-8.5 -5.5 -14.5 -5.5s-10.833 1.83301 -14.5 5.5s-5.5 8.5 -5.5 14.5s1.83301 10.833 5.5 14.5s8.5 5.5 14.5 5.5s10.833 -1.83301 14.5 -5.5zM452.499 774.499c3.66699 -3.66699 5.5 -8.5 5.5 -14.5s-1.83301 -10.833 -5.5 -14.5
s-8.5 -5.5 -14.5 -5.5s-10.833 1.83301 -14.5 5.5s-5.5 8.5 -5.5 14.5s1.83301 10.833 5.5 14.5s8.5 5.5 14.5 5.5s10.833 -1.83301 14.5 -5.5z" />
    <glyph glyph-name="uni01D6" unicode="&#x1d6;" horiz-adv-x="522" 
d="M448 727l-2 -17h-237l-3 3l2 17h237zM262.5 628.5c3.66699 -3.66699 5.5 -8.5 5.5 -14.5s-1.83301 -10.833 -5.5 -14.5s-8.5 -5.5 -14.5 -5.5s-10.833 1.83301 -14.5 5.5s-5.5 8.5 -5.5 14.5s1.83301 10.833 5.5 14.5s8.5 5.5 14.5 5.5s10.833 -1.83301 14.5 -5.5z
M402.5 628.5c3.66699 -3.66699 5.5 -8.5 5.5 -14.5s-1.83301 -10.833 -5.5 -14.5s-8.5 -5.5 -14.5 -5.5s-10.833 1.83301 -14.5 5.5s-5.5 8.5 -5.5 14.5s1.83301 10.833 5.5 14.5s8.5 5.5 14.5 5.5s10.833 -1.83301 14.5 -5.5zM436 240l-8.00098 -64
c-6 -56.667 -25.833 -100.667 -59.5 -132s-78.5 -47 -134.5 -47c-50 0 -88.333 12.167 -115 36.5s-40 59.5 -40 105.5c0 12 1 24.333 3 37l11 72l30 243h21l-42 -314c-1.33301 -8 -2 -19.333 -2 -34c0 -41.333 11.5 -72.833 34.5 -94.5s56.5 -32.5 100.5 -32.5
c49.333 0 88.833 13.833 118.5 41.5s47.834 67.5 54.501 119.5l40 314h20z" />
    <glyph glyph-name="uni01D7" unicode="&#x1d7;" horiz-adv-x="583" 
d="M510 312l-10.001 -83.001c-7.33301 -74 -31.5 -131.333 -72.5 -172s-94.833 -61 -161.5 -61c-59.333 0 -105 15.5 -137 46.5s-48 75.5 -48 133.5c0 19.333 1.33301 37 4 53l13 93l40 315h20l-53 -408c-2.66699 -22.667 -4 -39 -4 -49
c0 -52.667 14.167 -93.167 42.5 -121.5s68.833 -42.5 121.5 -42.5c60.667 0 109.334 18.333 146.001 55s59.667 89.334 69 158.001l51 408h20zM447.999 907.999l4.99902 -13.001l-3 -5c-53.333 -19.333 -115.666 -39.666 -186.999 -60.999l-5 4l-4 16
c62 17.333 125.333 38 190 62zM285.498 774.498c3.66699 -3.66699 5.5 -8.5 5.5 -14.5s-1.83301 -10.833 -5.5 -14.5s-8.5 -5.5 -14.5 -5.5s-10.833 1.83301 -14.5 5.5s-5.5 8.5 -5.5 14.5s1.83301 10.833 5.5 14.5s8.5 5.5 14.5 5.5s10.833 -1.83301 14.5 -5.5z
M425.498 774.498c3.66699 -3.66699 5.5 -8.5 5.5 -14.5s-1.83301 -10.833 -5.5 -14.5s-8.5 -5.5 -14.5 -5.5s-10.833 1.83301 -14.5 5.5s-5.5 8.5 -5.5 14.5s1.83301 10.833 5.5 14.5s8.5 5.5 14.5 5.5s10.833 -1.83301 14.5 -5.5z" />
    <glyph glyph-name="uni01D8" unicode="&#x1d8;" horiz-adv-x="522" 
d="M410 762l4.99902 -13.001l-3 -5c-53.333 -19.333 -115.666 -39.666 -186.999 -60.999l-5 4l-4 16c62 17.333 125.333 38 190 62zM257.499 628.499c3.66699 -3.66699 5.5 -8.5 5.5 -14.5s-1.83301 -10.833 -5.5 -14.5s-8.5 -5.5 -14.5 -5.5s-10.833 1.83301 -14.5 5.5
s-5.5 8.5 -5.5 14.5s1.83301 10.833 5.5 14.5s8.5 5.5 14.5 5.5s10.833 -1.83301 14.5 -5.5zM397.499 628.499c3.66699 -3.66699 5.5 -8.5 5.5 -14.5s-1.83301 -10.833 -5.5 -14.5s-8.5 -5.5 -14.5 -5.5s-10.833 1.83301 -14.5 5.5s-5.5 8.5 -5.5 14.5
s1.83301 10.833 5.5 14.5s8.5 5.5 14.5 5.5s10.833 -1.83301 14.5 -5.5zM435.999 239.999l-8.00098 -64c-6 -56.667 -25.833 -100.667 -59.5 -132s-78.5 -47 -134.5 -47c-50 0 -88.333 12.167 -115 36.5s-40 59.5 -40 105.5c0 12 1 24.333 3 37l11 72l30 243h21l-42 -314
c-1.33301 -8 -2 -19.333 -2 -34c0 -41.333 11.5 -72.833 34.5 -94.5s56.5 -32.5 100.5 -32.5c49.333 0 88.833 13.833 118.5 41.5s47.834 67.5 54.501 119.5l40 314h20z" />
    <glyph glyph-name="uni01D9" unicode="&#x1d9;" horiz-adv-x="583" 
d="M510 312l-10.001 -83.001c-7.33301 -74 -31.5 -131.333 -72.5 -172s-94.833 -61 -161.5 -61c-59.333 0 -105 15.5 -137 46.5s-48 75.5 -48 133.5c0 19.333 1.33301 37 4 53l13 93l40 315h20l-53 -408c-2.66699 -22.667 -4 -39 -4 -49
c0 -52.667 14.167 -93.167 42.5 -121.5s68.833 -42.5 121.5 -42.5c60.667 0 109.334 18.333 146.001 55s59.667 89.334 69 158.001l51 408h20zM294.499 775.499c3.66699 -3.66699 5.5 -8.5 5.5 -14.5s-1.83301 -10.833 -5.5 -14.5s-8.5 -5.5 -14.5 -5.5
s-10.833 1.83301 -14.5 5.5s-5.5 8.5 -5.5 14.5s1.83301 10.833 5.5 14.5s8.5 5.5 14.5 5.5s10.833 -1.83301 14.5 -5.5zM444.499 775.499c3.66699 -3.66699 5.5 -8.5 5.5 -14.5s-1.83301 -10.833 -5.5 -14.5s-8.5 -5.5 -14.5 -5.5s-10.833 1.83301 -14.5 5.5
s-5.5 8.5 -5.5 14.5s1.83301 10.833 5.5 14.5s8.5 5.5 14.5 5.5s10.833 -1.83301 14.5 -5.5zM474.999 893.999c-24.667 -16 -59.665 -41.333 -104.998 -76h-16c-34.667 30 -65.334 55.333 -92.001 76l8 14h5c26.667 -19.333 55.667 -42.666 87 -69.999
c31.333 23.333 65.666 46.666 102.999 69.999h5z" />
    <glyph glyph-name="uni01DA" unicode="&#x1da;" horiz-adv-x="522" 
d="M421 743c-24.667 -16 -59.665 -41.333 -104.998 -76h-16c-34.667 30 -65.334 55.333 -92.001 76l8 14h5c26.667 -19.333 55.667 -42.666 87 -69.999c31.333 23.333 65.666 46.666 102.999 69.999h5zM249.502 628.5c3.66699 -3.66699 5.5 -8.5 5.5 -14.5
s-1.83301 -10.833 -5.5 -14.5s-8.5 -5.5 -14.5 -5.5s-10.833 1.83301 -14.5 5.5s-5.5 8.5 -5.5 14.5s1.83301 10.833 5.5 14.5s8.5 5.5 14.5 5.5s10.833 -1.83301 14.5 -5.5zM389.502 628.5c3.66699 -3.66699 5.5 -8.5 5.5 -14.5s-1.83301 -10.833 -5.5 -14.5
s-8.5 -5.5 -14.5 -5.5s-10.833 1.83301 -14.5 5.5s-5.5 8.5 -5.5 14.5s1.83301 10.833 5.5 14.5s8.5 5.5 14.5 5.5s10.833 -1.83301 14.5 -5.5zM436.002 240l-8.00098 -64c-6 -56.667 -25.833 -100.667 -59.5 -132s-78.5 -47 -134.5 -47c-50 0 -88.333 12.167 -115 36.5
s-40 59.5 -40 105.5c0 12 1 24.333 3 37l11 72l30 243h21l-42 -314c-1.33301 -8 -2 -19.333 -2 -34c0 -41.333 11.5 -72.833 34.5 -94.5s56.5 -32.5 100.5 -32.5c49.333 0 88.833 13.833 118.5 41.5s47.834 67.5 54.501 119.5l40 314h20z" />
    <glyph glyph-name="uni01DB" unicode="&#x1db;" horiz-adv-x="583" 
d="M510 312l-10.001 -83.001c-7.33301 -74 -31.5 -131.333 -72.5 -172s-94.833 -61 -161.5 -61c-59.333 0 -105 15.5 -137 46.5s-48 75.5 -48 133.5c0 19.333 1.33301 37 4 53l13 93l40 315h20l-53 -408c-2.66699 -22.667 -4 -39 -4 -49
c0 -52.667 14.167 -93.167 42.5 -121.5s68.833 -42.5 121.5 -42.5c60.667 0 109.334 18.333 146.001 55s59.667 89.334 69 158.001l51 408h20zM246.999 889.999l-3.00098 5.00098l5 13l4 3c64.667 -24 128 -44.667 190 -62l-4 -16l-5 -4
c-71.333 21.333 -133.666 41.666 -186.999 60.999zM256.498 745.5c-3.66699 3.66699 -5.5 8.5 -5.5 14.5s1.83301 10.833 5.5 14.5s8.5 5.5 14.5 5.5s10.833 -1.83301 14.5 -5.5s5.5 -8.5 5.5 -14.5s-1.83301 -10.833 -5.5 -14.5s-8.5 -5.5 -14.5 -5.5
s-10.833 1.83301 -14.5 5.5zM396.498 745.5c-3.66699 3.66699 -5.5 8.5 -5.5 14.5s1.83301 10.833 5.5 14.5s8.5 5.5 14.5 5.5s10.833 -1.83301 14.5 -5.5s5.5 -8.5 5.5 -14.5s-1.83301 -10.833 -5.5 -14.5s-8.5 -5.5 -14.5 -5.5s-10.833 1.83301 -14.5 5.5z" />
    <glyph glyph-name="uni01DC" unicode="&#x1dc;" horiz-adv-x="522" 
d="M219 744l-3.00098 5.00098l5 13l4 3c64.667 -24 128 -44.667 190 -62l-4 -16l-5 -4c-71.333 21.333 -133.666 41.666 -186.999 60.999zM228.499 599.501c-3.66699 3.66699 -5.5 8.5 -5.5 14.5s1.83301 10.833 5.5 14.5s8.5 5.5 14.5 5.5s10.833 -1.83301 14.5 -5.5
s5.5 -8.5 5.5 -14.5s-1.83301 -10.833 -5.5 -14.5s-8.5 -5.5 -14.5 -5.5s-10.833 1.83301 -14.5 5.5zM368.499 599.501c-3.66699 3.66699 -5.5 8.5 -5.5 14.5s1.83301 10.833 5.5 14.5s8.5 5.5 14.5 5.5s10.833 -1.83301 14.5 -5.5s5.5 -8.5 5.5 -14.5
s-1.83301 -10.833 -5.5 -14.5s-8.5 -5.5 -14.5 -5.5s-10.833 1.83301 -14.5 5.5zM435.999 240.001l-8.00098 -64c-6 -56.667 -25.833 -100.667 -59.5 -132s-78.5 -47 -134.5 -47c-50 0 -88.333 12.167 -115 36.5s-40 59.5 -40 105.5c0 12 1 24.333 3 37l11 72l30 243h21
l-42 -314c-1.33301 -8 -2 -19.333 -2 -34c0 -41.333 11.5 -72.833 34.5 -94.5s56.5 -32.5 100.5 -32.5c49.333 0 88.833 13.833 118.5 41.5s47.834 67.5 54.501 119.5l40 314h20z" />
    <glyph glyph-name="Gcaron" unicode="&#x1e6;" horiz-adv-x="575" 
d="M461.5 627c28.333 -9.33301 55.1689 -22.667 80.502 -40l-8 -18h-7c-50.667 34.667 -101.334 52 -152.001 52c-62.667 0 -116.5 -14.667 -161.5 -44s-79.333 -71.666 -103 -126.999s-35.5 -121.333 -35.5 -198c0 -76 16.333 -134.5 49 -175.5s80 -61.5 142 -61.5
c29.333 0 56.833 2.16699 82.5 6.5s58.5 12.166 98.5 23.499l15 113l10 89l20 2l-10 -91l-17 -128c-44.667 -13.333 -80.667 -22.333 -108 -27s-57.666 -7 -90.999 -7c-68.667 0 -121 22 -157 66s-54 106.667 -54 188s12.833 151.333 38.5 210s62.667 103.5 111 134.5
s106.166 46.5 173.499 46.5c27.333 0 55.166 -4.66699 83.499 -14zM470.003 804.999c-24.667 -16 -59.665 -41.333 -104.998 -76h-16c-34.667 30 -65.334 55.333 -92.001 76l8 14h5c26.667 -19.333 55.667 -42.666 87 -69.999c31.333 23.333 65.666 46.666 102.999 69.999h5
z" />
    <glyph glyph-name="gcaron" unicode="&#x1e7;" horiz-adv-x="513" 
d="M425 685c-28 -27.333 -66.333 -69.333 -115 -126h-18c-32.667 52 -61.667 94 -87 126l11 12h5c26 -33.333 53 -72.333 81 -117c39.333 45.333 76 84.333 110 117h5zM460 453l-8.00098 -17.998h-5c-44 26.667 -85.667 40 -125 40c-77.333 0 -137.333 -24.167 -180 -72.5
s-64 -116.5 -64 -204.5c0 -58.667 13.667 -103.834 41 -135.501s66.333 -47.5 117 -47.5c24 0 46.333 1.66699 67 5s47.334 9.33301 80.001 18l10 84l9 61l20 2l-9 -62l-12 -100c-37.333 -10 -67.333 -16.833 -90 -20.5s-47.667 -5.5 -75 -5.5
c-57.333 0 -101.5 17.167 -132.5 51.5s-46.5 83.166 -46.5 146.499c0 95.333 23 169 69 221s111.333 78 196 78c46.667 0 92.667 -13.667 138 -41z" />
    <glyph glyph-name="uni01EA" unicode="&#x1ea;" horiz-adv-x="599" 
d="M513.5 577c36.333 -43.333 54.501 -105.335 54.501 -186.002c0 -81.333 -11.833 -151.666 -35.5 -210.999s-58 -105 -103 -137s-99.167 -48 -162.5 -48c-68 0 -120.167 22.333 -156.5 67s-54.5 108.334 -54.5 191.001c0 80.667 11.667 150.167 35 208.5
s57.5 103 102.5 134s98.833 46.5 161.5 46.5c69.333 0 122.166 -21.667 158.499 -65zM205.001 577.998c-41.333 -29.333 -73 -71.5 -95 -126.5s-33 -120.167 -33 -195.5c0 -76.667 16.5 -136 49.5 -178s80.167 -63 141.5 -63c58 0 108 15.167 150 45.5s74 73.333 96 129
s33 121.5 33 197.5c0 75.333 -16.333 133.333 -49 174s-80.667 61 -144 61c-58 0 -107.667 -14.667 -149 -44zM258.501 -190.502c-11.667 11.667 -17.5 27.502 -17.5 47.502c0 13.333 3.5 26.166 10.5 38.499s23.833 36.5 50.5 72.5l31 42h24
c-12 -14.667 -21.333 -27.334 -28 -38.001c-29.333 -38.667 -47.833 -64.167 -55.5 -76.5s-11.5 -24.5 -11.5 -36.5c0 -14 3.83301 -25.167 11.5 -33.5s18.5 -12.5 32.5 -12.5s28 4.5 42 13.5s27 21.833 39 38.5h2l11 -16c-29.333 -38 -61 -57 -95 -57
c-19.333 0 -34.833 5.83301 -46.5 17.5z" />
    <glyph glyph-name="uni01EB" unicode="&#x1eb;" horiz-adv-x="533" 
d="M447 123c-23.333 -48 -57.001 -82.6641 -101.001 -103.997l-20 -27c-31.333 -40.667 -51 -67.5 -59 -80.5s-12 -25.5 -12 -37.5c0 -14 3.83301 -25.167 11.5 -33.5s18.5 -12.5 32.5 -12.5s28 4.5 42 13.5s27 21.833 39 38.5h2l11 -16c-29.333 -38 -61 -57 -95 -57
c-19.333 0 -34.833 5.83301 -46.5 17.5s-17.5 27.5 -17.5 47.5c0 13.333 3.5 26.166 10.5 38.499s23.833 36.5 50.5 72.5l17 23c-25.333 -6.66699 -50.666 -10 -75.999 -10c-57.333 0 -101.5 17.667 -132.5 53s-46.5 85 -46.5 149c0 93.333 21.5 166.166 64.5 218.499
s103.5 78.5 181.5 78.5c57.333 0 101.5 -17.333 132.5 -52s46.5 -83.334 46.5 -146.001c0 -68 -11.667 -126 -35 -174zM400.999 89.5029c40 49 60 117.167 60 204.5c0 58.667 -13.667 103.5 -41 134.5s-67 46.5 -119 46.5c-70.667 0 -125.334 -24 -164.001 -72
s-58 -115.667 -58 -203c0 -59.333 13.333 -104.833 40 -136.5s65.334 -47.5 116.001 -47.5c70.667 0 126 24.5 166 73.5z" />
    <glyph glyph-name="Aringacute" unicode="&#x1fa;" horiz-adv-x="524" 
d="M256 778l-5 15c66 23.333 128 47.333 186 72l5 -2l5 -13l-2 -5c-44 -18 -105.333 -41.667 -184 -71zM470 0h-22.999l-7 43l-37 170h-283l-85 -170l-19 -43h-24l312 620c-14 4 -25.667 12 -35 24s-14 26.333 -14 43c0 20 6.5 36.5 19.5 49.5s29.833 19.5 50.5 19.5
c22 0 39.333 -7 52 -21s19 -30.333 19 -49s-5.83301 -34 -17.5 -46s-25.834 -19.333 -42.501 -22zM289.501 650.5c9.66699 -9 21.5 -13.5 35.5 -13.5s26 4.33301 36 13s15 20.667 15 36c0 14 -4.5 25.833 -13.5 35.5s-21.5 14.5 -37.5 14.5
c-15.333 0 -27.5 -4.5 -36.5 -13.5s-13.5 -20.833 -13.5 -35.5c0 -15.333 4.83301 -27.5 14.5 -36.5zM318.001 603h-3l-185 -370h269z" />
    <glyph glyph-name="aringacute" unicode="&#x1fb;" horiz-adv-x="473" 
d="M412 801l-2 -5c-44 -18 -105.333 -41.667 -184 -71l-5 4l-5 15c66 23.333 128 47.333 186 72l5 -2zM339.5 587c-14.333 -12.667 -30.833 -18.999 -49.5 -18.999s-35 6.5 -49 19.5s-21 29.833 -21 50.5c0 20 6.5 36.5 19.5 49.5s29.833 19.5 50.5 19.5
c22 0 39.333 -7 52 -21s19 -30.333 19 -49c0 -20.667 -7.16699 -37.334 -21.5 -50.001zM254.5 601.501c9.66699 -9 21.5 -13.5 35.5 -13.5s26 4.33301 36 13s15 20.667 15 36c0 14 -4.5 25.833 -13.5 35.5s-21.5 14.5 -37.5 14.5c-15.333 0 -27.5 -4.5 -36.5 -13.5
s-13.5 -20.833 -13.5 -35.5c0 -15.333 4.83301 -27.5 14.5 -36.5zM285 491.001l119 -491h-23l-6 35l-30 126h-234l-66 -126l-16 -35h-23l257 491h22zM272 461.001h-3l-148 -281h219z" />
    <glyph glyph-name="AEacute" unicode="&#x1fc;" horiz-adv-x="744" 
d="M695 16l-6 -16h-286v43l-8 247l-249 -43l-135 -204l-26 -43h-27l426 637h285l2 -4l-7 -16h-258l9 -304l227 39l2 -3l-5 -17l-224 -38l8 -274h271zM394 310l-9 292h-3l-220 -332zM623 834l6.99902 -11.999l-2 -5c-44.667 -25.333 -102.667 -56.333 -174 -93l-5 3l-7 15
c60.667 29.333 119.334 60.666 176.001 93.999z" />
    <glyph glyph-name="aeacute" unicode="&#x1fd;" horiz-adv-x="656" 
d="M397 558l-11 12.999c46 38.667 94.667 84.334 146 137.001l5 -1l10 -10l-1 -5c-46 -46 -94 -91 -144 -135zM592 15.999l-5 -16h-241l2 35l-8 186l-207 -35l-107 -151l-21 -35h-26l348 491h240l2 -4l-6 -16l-213 1l9 -229l186 30l2 -2l-4 -17l-184 -29l8 -206h224z
M339 239.999l-10 220h-3l-178 -251z" />
    <glyph glyph-name="Oslashacute" unicode="&#x1fe;" horiz-adv-x="600" 
d="M568 391c0 -81.333 -11.833 -151.667 -35.5 -211s-58 -105 -103 -137s-99.167 -48 -162.5 -48c-40.667 0 -75.667 8 -105 24l-60 -106l-15 3l-2 4l61 109c-29.333 20.667 -51.666 50 -66.999 88s-23 83.333 -23 136c0 80.667 11.667 150.167 35 208.5s57.5 103 102.5 134
s98.833 46.5 161.5 46.5c47.333 0 86.666 -10 117.999 -30l55 97l16 -3l1 -5l-56 -100c52.667 -42.667 79 -112.667 79 -210zM97.5 129.999c13.667 -35.333 33.499 -62.667 59.499 -82l306 545c-29.333 19.333 -65.666 29 -108.999 29c-58 0 -107.667 -14.667 -149 -44
s-73 -71.5 -95 -126.5s-33 -120.167 -33 -195.5c0 -48.667 6.83301 -90.667 20.5 -126zM417.999 60.498c42 30.333 74 73.333 96 129s33 121.5 33 197.5c0 91.333 -23 156.333 -69 195l-306 -544c27.333 -15.333 59.333 -23 96 -23c58 0 108 15.167 150 45.5z
M456.999 833.998l6.99902 -11.999l-2 -5c-44.667 -25.333 -102.667 -56.333 -174 -93l-5 3l-7 15c60.667 29.333 119.334 60.666 176.001 93.999z" />
    <glyph glyph-name="oslashacute" unicode="&#x1ff;" horiz-adv-x="533" 
d="M230 558l-11 12.999c46 38.667 94.667 84.334 146 137.001l5 -1l10 -10l-1 -5c-46 -46 -94 -91 -144 -135zM461.5 403.499c13.667 -29.667 20.498 -65.166 20.498 -106.499c0 -94 -21.667 -167.667 -65 -221s-103.666 -80 -180.999 -80c-33.333 0 -62 6 -86 18l-52 -94
l-16 6l-2 4l52 94c-50 34 -75 92 -75 174c0 93.333 21.5 166.166 64.5 218.499s103.5 78.5 181.5 78.5c30 0 56.667 -5 80 -15l44 80l16 -5l2 -5l-44 -79c26.667 -15.333 46.834 -37.833 60.501 -67.5zM141.998 42l231.001 420c-20 8.66699 -44 13 -72 13
c-70.667 0 -125.334 -24 -164.001 -72s-58 -115.667 -58 -203c0 -75.333 21 -128 63 -158zM400.999 89.5c40 49 60.001 117.167 60.001 204.5c0 76.667 -23.333 129.667 -70 159l-232 -421c21.333 -10.667 46.666 -16 75.999 -16c70.667 0 126 24.5 166 73.5z" />
    <glyph glyph-name="uni0200" unicode="&#x200;" horiz-adv-x="524" 
d="M470 0h-23l-6 43l-37 170h-283l-85 -170l-20 -43h-24l319 637h21zM318 603h-3l-184 -370h268zM292 728l-104 98l-1 5l10 10l5 1c34 -34 69.333 -67.333 106 -100l-11 -13zM422 728l-104 98l-1 5l10 10l5 1c34 -34 69.333 -67.333 106 -100l-11 -13z" />
    <glyph glyph-name="uni0201" unicode="&#x201;" horiz-adv-x="473" 
d="M112 690l-1 5.00098l10 10l5 1c46 -46.667 94.667 -92.334 146 -137.001l-11 -13l-5 -1zM242 690.001l-1 5l10 10l5 1c46 -46 94.667 -91.667 146 -137l-11 -13l-5 -1zM404 0.000976562h-23l-6 35l-30 126h-234l-66 -126l-16 -35h-23l257 491h22zM272 461.001h-3
l-148 -281h219z" />
    <glyph glyph-name="uni0202" unicode="&#x202;" horiz-adv-x="524" 
d="M470 0h-23l-6 43l-37 170h-283l-85 -170l-20 -43h-24l319 637h21zM318 603h-3l-184 -370h268zM235 720c10.667 36 25.332 62.5 43.999 79.5s42 25.5 70 25.5s49 -8.5 63 -25.5s22.333 -43.5 25 -79.5l-15 -13h-5c-0.666992 33.333 -6.66699 58 -18 74s-29 24 -53 24
c-23.333 0 -42.666 -8 -57.999 -24s-27.333 -40.667 -36 -74h-5z" />
    <glyph glyph-name="uni0203" unicode="&#x203;" horiz-adv-x="473" 
d="M201 561l-12.002 13c10.667 36 25.334 62.5 44.001 79.5s42 25.5 70 25.5s49 -8.5 63 -25.5s22.333 -43.5 25 -79.5l-15 -13h-5c-0.666992 33.333 -6.66699 58 -18 74s-29 24 -53 24c-23.333 0 -42.666 -8 -57.999 -24s-27.333 -40.667 -36 -74h-5zM403.998 0h-23l-6 35
l-30 126h-234l-66 -126l-16 -35h-23l257 491h22zM271.998 461h-3l-148 -281h219z" />
    <glyph glyph-name="uni0204" unicode="&#x204;" horiz-adv-x="432" 
d="M143 340h223l3 -4l-6 -16h-222l-16 -125l-22 -175h273l3 -4l-6 -16h-293l25 195l55 442h291l2 -4l-6 -16h-269zM284 728l-104 98l-1 5l10 10l5 1c34 -34 69.333 -67.333 106 -100l-11 -13zM414 728l-104 98l-1 5l10 10l5 1c34 -34 69.333 -67.333 106 -100l-11 -13z" />
    <glyph glyph-name="uni0205" unicode="&#x205;" horiz-adv-x="397" 
d="M100 690l-1.00098 5.00098l10 10l5 1c46.667 -46.667 95.334 -92.334 146.001 -137.001l-11 -13l-5 -1zM229.999 690.001l-1 5.00098l10 10l5 1c46 -46.667 94.667 -92.334 146 -137.001l-11 -13l-5 -1c-49.333 44 -97.333 89 -144 135zM386.999 487.002l-6 -16l-223 1
l-27 -208h185l2 -4l-5 -16h-184l-12 -93l-17 -132h227l3 -3l-6 -16h-246l19 150l43 341h244z" />
    <glyph glyph-name="uni0206" unicode="&#x206;" horiz-adv-x="432" 
d="M143 340h223l3 -4l-6 -16h-222l-16 -125l-22 -175h273l3 -4l-6 -16h-293l25 195l55 442h291l2 -4l-6 -16h-269zM227 720c10.667 36 25.332 62.5 43.999 79.5s42 25.5 70 25.5s49 -8.5 63 -25.5s22.333 -43.5 25 -79.5l-15 -13h-5c-0.666992 33.333 -6.66699 58 -18 74
s-29 24 -53 24c-23.333 0 -42.666 -8 -57.999 -24s-27.333 -40.667 -36 -74h-5z" />
    <glyph glyph-name="uni0207" unicode="&#x207;" horiz-adv-x="397" 
d="M189 561l-12.002 13c10.667 36 25.334 62.5 44.001 79.5s42 25.5 70 25.5s49 -8.5 63 -25.5s22.333 -43.5 25 -79.5l-15 -13h-5c-0.666992 33.333 -6.66699 58 -18 74s-29 24 -53 24c-23.333 0 -42.666 -8 -57.999 -24s-27.333 -40.667 -36 -74h-5zM130.998 264h185l2 -4
l-5 -16h-184l-12 -93l-17 -132h227l3 -3l-6 -16h-246l19 150l43 341h244l3 -4l-6 -16l-223 1z" />
    <glyph glyph-name="uni0208" unicode="&#x208;" horiz-adv-x="235" 
d="M125 195l-25 -195h-20l25 195l55 442h20zM141 728l-104 98l-1 5l10 10l5 1c34 -34 69.333 -67.333 106 -100l-11 -13zM271 728l-104 98l-1 5l10 10l5 1c34 -34 69.333 -67.333 106 -100l-11 -13z" />
    <glyph glyph-name="uni0209" unicode="&#x209;" horiz-adv-x="233" 
d="M130 555c-49.333 44 -97.334 89.001 -144.001 135.001l-1 5l10 10l5 1c46.667 -46.667 95.334 -92.334 146.001 -137.001l-11 -13zM259.999 555.001c-49.333 44 -97.334 89.001 -144.001 135.001l-1 5l10 10l5 1c46.667 -46.667 95.334 -92.334 146.001 -137.001l-11 -13
zM117.998 151.002l-20 -151h-20l20 150l42 341h20z" />
    <glyph glyph-name="uni020A" unicode="&#x20a;" horiz-adv-x="235" 
d="M125 195l-25 -195h-20l25 195l55 442h20zM84 720c10.667 36 25.332 62.5 43.999 79.5s42 25.5 70 25.5s49 -8.5 63 -25.5s22.333 -43.5 25 -79.5l-15 -13h-5c-0.666992 33.333 -6.66699 58 -18 74s-29 24 -53 24c-23.333 0 -42.666 -8 -57.999 -24
s-27.333 -40.667 -36 -74h-5z" />
    <glyph glyph-name="uni020B" unicode="&#x20b;" horiz-adv-x="233" 
d="M63 574c10.667 36 25.332 62.5 43.999 79.5s42 25.5 70 25.5s49 -8.5 63 -25.5s22.333 -43.5 25 -79.5l-15 -13h-5c-0.666992 33.333 -6.66699 58 -18 74s-29 24 -53 24c-23.333 0 -42.666 -8 -57.999 -24s-27.333 -40.667 -36 -74h-5zM117.998 151l-20 -151h-20l20 150
l42 341h20z" />
    <glyph glyph-name="uni020C" unicode="&#x20c;" horiz-adv-x="599" 
d="M513.5 577c36.333 -43.333 54.501 -105.335 54.501 -186.002c0 -81.333 -11.833 -151.666 -35.5 -210.999s-58 -105 -103 -137s-99.167 -48 -162.5 -48c-68 0 -120.167 22.333 -156.5 67s-54.5 108.334 -54.5 191.001c0 80.667 11.667 150.167 35 208.5
s57.5 103 102.5 134s98.833 46.5 161.5 46.5c69.333 0 122.166 -21.667 158.499 -65zM205.001 577.998c-41.333 -29.333 -73 -71.5 -95 -126.5s-33 -120.167 -33 -195.5c0 -76.667 16.5 -136 49.5 -178s80.167 -63 141.5 -63c58 0 108 15.167 150 45.5s74 73.333 96 129
s33 121.5 33 197.5c0 75.333 -16.333 133.333 -49 174s-80.667 61 -144 61c-58 0 -107.667 -14.667 -149 -44zM323.001 727.998l-104 98l-1 5l10 10l5 1c34 -34 69.333 -67.333 106 -100l-11 -13zM453.001 727.998l-104 98l-1 5l10 10l5 1c34 -34 69.333 -67.333 106 -100
l-11 -13z" />
    <glyph glyph-name="uni020D" unicode="&#x20d;" horiz-adv-x="533" 
d="M280 555c-49.333 44 -97.333 89 -144 135l-1 5l10 10l5 1c46 -46 94.667 -91.667 146 -137l-11 -13zM410 555l-144.001 135.001l-1 5l10 10l5 1c46.667 -46.667 95.334 -92.334 146.001 -137.001l-11 -13zM435.499 443.001c31 -34.667 46.499 -83.332 46.499 -145.999
c0 -94 -21.667 -167.667 -65 -221s-103.666 -80 -180.999 -80c-57.333 0 -101.5 17.667 -132.5 53s-46.5 85 -46.5 149c0 93.333 21.5 166.166 64.5 218.499s103.5 78.5 181.5 78.5c57.333 0 101.5 -17.333 132.5 -52zM136.998 403.003c-38.667 -48 -58 -115.667 -58 -203
c0 -59.333 13.333 -104.833 40 -136.5s65.334 -47.5 116.001 -47.5c70.667 0 126 24.5 166 73.5s60 117.167 60 204.5c0 58.667 -13.667 103.5 -41 134.5s-67 46.5 -119 46.5c-70.667 0 -125.334 -24 -164.001 -72z" />
    <glyph glyph-name="uni020E" unicode="&#x20e;" horiz-adv-x="599" 
d="M513.5 577c36.333 -43.333 54.501 -105.335 54.501 -186.002c0 -81.333 -11.833 -151.666 -35.5 -210.999s-58 -105 -103 -137s-99.167 -48 -162.5 -48c-68 0 -120.167 22.333 -156.5 67s-54.5 108.334 -54.5 191.001c0 80.667 11.667 150.167 35 208.5
s57.5 103 102.5 134s98.833 46.5 161.5 46.5c69.333 0 122.166 -21.667 158.499 -65zM205.001 577.998c-41.333 -29.333 -73 -71.5 -95 -126.5s-33 -120.167 -33 -195.5c0 -76.667 16.5 -136 49.5 -178s80.167 -63 141.5 -63c58 0 108 15.167 150 45.5s74 73.333 96 129
s33 121.5 33 197.5c0 75.333 -16.333 133.333 -49 174s-80.667 61 -144 61c-58 0 -107.667 -14.667 -149 -44zM266.001 719.998c10.667 36 25.332 62.5 43.999 79.5s42 25.5 70 25.5s49 -8.5 63 -25.5s22.333 -43.5 25 -79.5l-15 -13h-5
c-0.666992 33.333 -6.66699 58 -18 74s-29 24 -53 24c-23.333 0 -42.666 -8 -57.999 -24s-27.333 -40.667 -36 -74h-5z" />
    <glyph glyph-name="uni020F" unicode="&#x20f;" horiz-adv-x="533" 
d="M213 574c10.667 36 25.332 62.5 43.999 79.5s42 25.5 70 25.5s49 -8.5 63 -25.5s22.333 -43.5 25 -79.5l-15 -13h-5c-0.666992 33.333 -6.66699 58 -18 74s-29 24 -53 24c-23.333 0 -42.666 -8 -57.999 -24s-27.333 -40.667 -36 -74h-5zM435.498 443
c31 -34.667 46.499 -83.332 46.499 -145.999c0 -94 -21.667 -167.667 -65 -221s-103.666 -80 -180.999 -80c-57.333 0 -101.5 17.667 -132.5 53s-46.5 85 -46.5 149c0 93.333 21.5 166.166 64.5 218.499s103.5 78.5 181.5 78.5c57.333 0 101.5 -17.333 132.5 -52z
M136.997 403.002c-38.667 -48 -58 -115.667 -58 -203c0 -59.333 13.333 -104.833 40 -136.5s65.334 -47.5 116.001 -47.5c70.667 0 126 24.5 166 73.5s60 117.167 60 204.5c0 58.667 -13.667 103.5 -41 134.5s-67 46.5 -119 46.5c-70.667 0 -125.334 -24 -164.001 -72z" />
    <glyph glyph-name="uni0210" unicode="&#x210;" horiz-adv-x="494" 
d="M402 348.5c-28.667 -39 -69.334 -66.499 -122.001 -82.499c40 -89.333 85.667 -176.333 137 -261l-1 -4c-3.33301 -3.33301 -7.66602 -6 -12.999 -8l-5 2c-54 91.333 -100.667 180.666 -140 267.999h-125l-8 -68l-25 -195h-20l25 195l55 442l133 2
c48.667 0 86.167 -12.833 112.5 -38.5s39.5 -62.167 39.5 -109.5c0 -56 -14.333 -103.5 -43 -142.5zM136 283.001h134c49.333 13.333 87.5 37.833 114.5 73.5s40.5 79.5 40.5 131.5c0 40 -10.833 71.333 -32.5 94s-53.167 35 -94.5 37l-120 -1zM270 728.001l-104 98l-1 5
l10 10l5 1c34 -34 69.333 -67.333 106 -100l-11 -13zM400 728.001l-104 98l-1 5l10 10l5 1c34 -34 69.333 -67.333 106 -100l-11 -13z" />
    <glyph glyph-name="uni0211" unicode="&#x211;" horiz-adv-x="450" 
d="M97 690l-1.00098 5.00098l10 10l5 1c46.667 -46.667 95.334 -92.334 146.001 -137.001l-11 -13l-5 -1zM226.999 690.001l-1 5l10 10l5 1c46 -46 94.667 -91.667 146 -137l-11 -13l-5 -1zM346.999 268.501c-23.333 -29.667 -56.333 -50.832 -99 -63.499
c34 -68.667 72.333 -135.334 115 -200.001v-4l-15 -7l-6 3c-44.667 71.333 -83 139.333 -115 204h-103l-6 -50l-19 -151h-20l19 150l43 341l110 1c41.333 0 73.5 -10.167 96.5 -30.5s34.5 -48.833 34.5 -85.5c0 -42 -11.667 -77.833 -35 -107.5zM327.999 275.503
c22 26.333 33 58.833 33 97.5c0 30.667 -9 54.667 -27 72s-44.333 27 -79 29l-96 -1l-32 -251l108 -1c40 10 71 28.167 93 54.5z" />
    <glyph glyph-name="uni0212" unicode="&#x212;" horiz-adv-x="494" 
d="M402 348.5c-28.667 -39 -69.334 -66.499 -122.001 -82.499c40 -89.333 85.667 -176.333 137 -261l-1 -4c-3.33301 -3.33301 -7.66602 -6 -12.999 -8l-5 2c-54 91.333 -100.667 180.666 -140 267.999h-125l-8 -68l-25 -195h-20l25 195l55 442l133 2
c48.667 0 86.167 -12.833 112.5 -38.5s39.5 -62.167 39.5 -109.5c0 -56 -14.333 -103.5 -43 -142.5zM136 283.001h134c49.333 13.333 87.5 37.833 114.5 73.5s40.5 79.5 40.5 131.5c0 40 -10.833 71.333 -32.5 94s-53.167 35 -94.5 37l-120 -1zM213 720.001
c10.667 36 25.332 62.5 43.999 79.5s42 25.5 70 25.5s49 -8.5 63 -25.5s22.333 -43.5 25 -79.5l-15 -13h-5c-0.666992 33.333 -6.66699 58 -18 74s-29 24 -53 24c-23.333 0 -42.666 -8 -57.999 -24s-27.333 -40.667 -36 -74h-5z" />
    <glyph glyph-name="uni0213" unicode="&#x213;" horiz-adv-x="450" 
d="M186 561l-12.002 13c10.667 36 25.334 62.5 44.001 79.5s42 25.5 70 25.5s49 -8.5 63 -25.5s22.333 -43.5 25 -79.5l-15 -13h-5c-0.666992 33.333 -6.66699 58 -18 74s-29 24 -53 24c-23.333 0 -42.666 -8 -57.999 -24s-27.333 -40.667 -36 -74h-5zM346.998 268.5
c-23.333 -29.667 -56.333 -50.832 -99 -63.499c34 -68.667 72.333 -135.334 115 -200.001v-4l-15 -7l-6 3c-44.667 71.333 -83 139.333 -115 204h-103l-6 -50l-19 -151h-20l19 150l43 341l110 1c41.333 0 73.5 -10.167 96.5 -30.5s34.5 -48.833 34.5 -85.5
c0 -42 -11.667 -77.833 -35 -107.5zM126.998 222.002l108 -1c40 10 71 28.167 93 54.5s33 58.833 33 97.5c0 30.667 -9 54.667 -27 72s-44.333 27 -79 29l-96 -1z" />
    <glyph glyph-name="uni0214" unicode="&#x214;" horiz-adv-x="583" 
d="M510 312l-10.001 -83.001c-7.33301 -74 -31.5 -131.333 -72.5 -172s-94.833 -61 -161.5 -61c-59.333 0 -105 15.5 -137 46.5s-48 75.5 -48 133.5c0 19.333 1.33301 37 4 53l13 93l40 315h20l-53 -408c-2.66699 -22.667 -4 -39 -4 -49
c0 -52.667 14.167 -93.167 42.5 -121.5s68.833 -42.5 121.5 -42.5c60.667 0 109.334 18.333 146.001 55s59.667 89.334 69 158.001l51 408h20zM314.999 727.999l-104 98l-1 5l10 10l5 1c34 -34 69.333 -67.333 106 -100l-11 -13zM444.999 727.999l-104 98l-1 5l10 10l5 1
c34 -34 69.333 -67.333 106 -100l-11 -13z" />
    <glyph glyph-name="uni0215" unicode="&#x215;" horiz-adv-x="522" 
d="M275 555c-49.333 44 -97.334 89.001 -144.001 135.001l-1 5l10 10l5 1c46.667 -46.667 95.334 -92.334 146.001 -137.001l-11 -13zM404.999 555.001c-49.333 44 -97.333 89 -144 135l-1 5l10 10l5 1c46 -46 94.667 -91.667 146 -137l-11 -13zM435.999 240.001
l-8.00098 -64c-6 -56.667 -25.833 -100.667 -59.5 -132s-78.5 -47 -134.5 -47c-50 0 -88.333 12.167 -115 36.5s-40 59.5 -40 105.5c0 12 1 24.333 3 37l11 72l30 243h21l-42 -314c-1.33301 -8 -2 -19.333 -2 -34c0 -41.333 11.5 -72.833 34.5 -94.5s56.5 -32.5 100.5 -32.5
c49.333 0 88.833 13.833 118.5 41.5s47.834 67.5 54.501 119.5l40 314h20z" />
    <glyph glyph-name="uni0216" unicode="&#x216;" horiz-adv-x="583" 
d="M510 312l-10.001 -83.001c-7.33301 -74 -31.5 -131.333 -72.5 -172s-94.833 -61 -161.5 -61c-59.333 0 -105 15.5 -137 46.5s-48 75.5 -48 133.5c0 19.333 1.33301 37 4 53l13 93l40 315h20l-53 -408c-2.66699 -22.667 -4 -39 -4 -49
c0 -52.667 14.167 -93.167 42.5 -121.5s68.833 -42.5 121.5 -42.5c60.667 0 109.334 18.333 146.001 55s59.667 89.334 69 158.001l51 408h20zM257.999 719.999c10.667 36 25.332 62.5 43.999 79.5s42 25.5 70 25.5s49 -8.5 63 -25.5s22.333 -43.5 25 -79.5l-15 -13h-5
c-0.666992 33.333 -6.66699 58 -18 74s-29 24 -53 24c-23.333 0 -42.666 -8 -57.999 -24s-27.333 -40.667 -36 -74h-5z" />
    <glyph glyph-name="uni0217" unicode="&#x217;" horiz-adv-x="522" 
d="M208 574c10.667 36 25.332 62.5 43.999 79.5s42 25.5 70 25.5s49 -8.5 63 -25.5s22.333 -43.5 25 -79.5l-15 -13h-5c-0.666992 33.333 -6.66699 58 -18 74s-29 24 -53 24c-23.333 0 -42.666 -8 -57.999 -24s-27.333 -40.667 -36 -74h-5zM435.998 240l-8.00098 -64
c-6 -56.667 -25.833 -100.667 -59.5 -132s-78.5 -47 -134.5 -47c-50 0 -88.333 12.167 -115 36.5s-40 59.5 -40 105.5c0 12 1 24.333 3 37l11 72l30 243h21l-42 -314c-1.33301 -8 -2 -19.333 -2 -34c0 -41.333 11.5 -72.833 34.5 -94.5s56.5 -32.5 100.5 -32.5
c49.333 0 88.833 13.833 118.5 41.5s47.834 67.5 54.501 119.5l40 314h20z" />
    <glyph glyph-name="Scommaaccent" unicode="&#x218;" horiz-adv-x="423" 
d="M398 611l-5.99414 -18.0049l-7 -1c-30.667 18.667 -65.334 28 -104.001 28c-32 0 -60.667 -6.83301 -86 -20.5s-45 -31.5 -59 -53.5s-21 -45 -21 -69c0 -22 5.33301 -41.333 16 -58s23.5 -30.834 38.5 -42.501s35.833 -25.5 62.5 -41.5
c29.333 -17.333 52.666 -32.666 69.999 -45.999s32 -30.166 44 -50.499s18 -44.166 18 -71.499c0 -30.667 -8.83301 -59.167 -26.5 -85.5s-41.667 -47.166 -72 -62.499s-63.5 -23 -99.5 -23c-24.667 0 -49.334 4 -74.001 12s-46 19.667 -64 35l3 19l6 2
c17.333 -16 37.666 -28 60.999 -36s46.666 -12 69.999 -12c33.333 0 63.5 7 90.5 21s48 32.333 63 55s22.5 47 22.5 73c0 23.333 -5.5 43.833 -16.5 61.5s-24.333 32.5 -40 44.5s-37.167 26.333 -64.5 43c-28.667 18 -51.334 33.333 -68.001 46
s-30.834 28.834 -42.501 48.501s-17.5 42.834 -17.5 69.501c0 30 8.33301 57.333 25 82s39.334 44.167 68.001 58.5s60.667 21.5 96 21.5c40.667 0 78.667 -9.66699 114 -29zM218.006 -117.005c0 -13.333 -5.66602 -28.001 -16.999 -44.001s-27.666 -32.333 -48.999 -49
l-10 11l1 3c17.333 12.667 30.666 25.834 39.999 39.501s14 26.5 14 38.5c0 13.333 -10 24.666 -30 33.999v4c3.33301 4.66699 7.66602 8.33398 12.999 11.001c25.333 -11.333 38 -27.333 38 -48z" />
    <glyph glyph-name="scommaaccent" unicode="&#x219;" horiz-adv-x="387" 
d="M338 471l-7 -17.999l-6 -1c-25.333 14 -54 21 -86 21c-26 0 -49 -5.33301 -69 -16s-35.333 -24.5 -46 -41.5s-16 -34.833 -16 -53.5c0 -23.333 8 -42.166 24 -56.499s40.333 -29.5 73 -45.5c24 -12 43.333 -22.833 58 -32.5s27.167 -22.167 37.5 -37.5s15.5 -34 15.5 -56
c0 -24 -6.83301 -46.5 -20.5 -67.5s-32.667 -37.833 -57 -50.5s-51.5 -19 -81.5 -19c-20.667 0 -41.667 3.16699 -63 9.5s-39.333 15.166 -54 26.499l2 20l5 1c14.667 -12 32 -21.167 52 -27.5s39.667 -9.5 59 -9.5c26 0 49.667 5.66699 71 17s37.833 26.166 49.5 44.499
s17.5 37.166 17.5 56.499c0 24 -8.16699 43 -24.5 57s-40.833 29.333 -73.5 46c-24.667 12.667 -44.167 23.834 -58.5 33.501s-26.5 22 -36.5 37s-15 33.167 -15 54.5c0 23.333 6.5 44.833 19.5 64.5s31 35.5 54 47.5s49.167 18 78.5 18c34 0 66.667 -7.33301 98 -22z
M216 -116.999c0 -13.333 -5.66602 -28.001 -16.999 -44.001s-27.666 -32.333 -48.999 -49l-10 11l1 3c17.333 12.667 30.666 25.834 39.999 39.501s14 26.5 14 38.5c0 13.333 -10 24.666 -30 33.999v4c3.33301 4.66699 7.66602 8.33398 12.999 11.001
c25.333 -11.333 38 -27.333 38 -48z" />
    </font>
</defs>
</svg>
